<svg xmlns="http://www.w3.org/2000/svg" viewBox="0 0 400 400"><rect width="400" height="400" fill="#0f1020"/><rect x="0" y="250" width="400" height="150" fill="#0a0b17"/><ellipse cx="200" cy="262" rx="120" ry="16" fill="rgba(0,0,0,0.45)"/><polygon points="151.4,203.6 153.1,203.4 172.5,173.3 170.8,173.4" fill="rgb(35,10,18)"/><polygon points="143.3,240.0 139.1,243.8 136.0,241.7 140.2,237.9" fill="rgb(14,14,17)"/><polygon points="148.3,237.9 143.3,240.0 140.2,237.9 145.4,235.7" fill="rgb(14,14,17)"/><polygon points="139.1,243.8 136.3,248.7 133.1,246.7 136.0,241.7" fill="rgb(12,12,15)"/><polygon points="153.7,237.5 148.3,237.9 145.4,235.7 150.8,235.4" fill="rgb(14,14,17)"/><polygon points="156.7,253.1 155.6,249.5 152.7,247.4 149.0,247.6 145.9,250.0 144.6,253.7 145.7,257.3 148.6,259.4 152.4,259.2 155.5,256.8" fill="rgb(180,180,190)"/><polygon points="136.3,248.7 135.1,254.1 131.9,252.2 133.1,246.7" fill="rgb(10,10,13)"/><polygon points="166.2,252.5 165.4,247.1 162.8,242.4 158.7,239.1 153.7,237.5 148.3,237.9 143.3,240.0 139.1,243.8 136.3,248.7 135.1,254.1 135.9,259.6 138.4,264.3 142.4,267.7 147.4,269.4 152.8,269.1 158.0,266.9 162.3,263.1 165.2,258.1" fill="rgb(30,30,36)"/><polygon points="254.7,195.7 233.5,167.2 170.2,172.8 151.3,203.5" fill="rgb(68,93,135)"/><polygon points="158.7,239.1 153.7,237.5 150.8,235.4 155.9,236.9" fill="rgb(13,13,16)"/><polygon points="135.1,254.1 135.9,259.6 132.7,257.7 131.9,252.2" fill="rgb(8,8,10)"/><polygon points="162.8,242.4 158.7,239.1 155.9,236.9 160.0,240.3" fill="rgb(11,11,14)"/><polygon points="135.9,259.6 138.4,264.3 135.2,262.5 132.7,257.7" fill="rgb(9,9,11)"/><polygon points="165.4,247.1 162.8,242.4 160.0,240.3 162.6,245.0" fill="rgb(9,9,11)"/><polygon points="138.4,264.3 142.4,267.7 139.2,266.0 135.2,262.5" fill="rgb(11,11,14)"/><polygon points="166.2,252.5 165.4,247.1 162.6,245.0 163.5,250.5" fill="rgb(8,8,10)"/><polygon points="142.4,267.7 147.4,269.4 144.3,267.7 139.2,266.0" fill="rgb(13,13,16)"/><polygon points="162.4,256.2 159.5,261.3 155.1,265.2 149.9,267.4 144.3,267.7 139.2,266.0 135.2,262.5 132.7,257.7 131.9,252.2 133.1,246.7 136.0,241.7 140.2,237.9 145.4,235.7 150.8,235.4 155.9,236.9 160.0,240.3 162.6,245.0 163.5,250.5" fill="rgb(18,18,22)"/><polygon points="165.2,258.1 166.2,252.5 163.5,250.5 162.4,256.2" fill="rgb(10,10,13)"/><polygon points="252.9,195.9 254.7,195.8 233.8,167.9 232.0,168.0" fill="rgb(35,10,18)"/><polygon points="147.4,269.4 152.8,269.1 149.9,267.4 144.3,267.7" fill="rgb(14,14,17)"/><polygon points="113.5,215.9 112.9,226.6 115.8,228.5 116.3,217.9" fill="rgb(255,100,110)"/><polygon points="162.3,263.1 165.2,258.1 162.4,256.2 159.5,261.3" fill="rgb(12,12,15)"/><polygon points="152.8,269.1 158.0,266.9 155.1,265.2 149.9,267.4" fill="rgb(14,14,17)"/><polygon points="302.4,193.0 305.3,239.2 121.8,249.4 123.8,206.4" fill="rgb(186,48,61)"/><polygon points="158.0,266.9 162.3,263.1 159.5,261.3 155.1,265.2" fill="rgb(14,14,17)"/><polygon points="151.3,203.5 170.2,172.8 146.9,143.9 123.5,177.5" fill="rgb(21,31,56)"/><polygon points="265.4,232.8 261.0,236.7 259.8,234.4 264.3,230.4" fill="rgb(14,14,17)"/><polygon points="270.9,230.5 265.4,232.8 264.3,230.4 269.9,228.1" fill="rgb(14,14,17)"/><polygon points="261.0,236.7 258.2,241.9 257.0,239.7 259.8,234.4" fill="rgb(12,12,15)"/><polygon points="276.8,230.1 270.9,230.5 269.9,228.1 275.9,227.7" fill="rgb(14,14,17)"/><polygon points="281.4,246.5 279.9,242.7 276.4,240.5 272.3,240.7 269.0,243.3 267.9,247.2 269.3,251.0 272.8,253.2 277.0,253.0 280.3,250.4" fill="rgb(180,180,190)"/><polygon points="258.2,241.9 257.4,247.7 256.1,245.5 257.0,239.7" fill="rgb(10,10,13)"/><polygon points="292.0,245.8 290.7,240.1 287.4,235.2 282.6,231.8 276.8,230.1 270.9,230.5 265.4,232.8 261.0,236.7 258.2,241.9 257.4,247.7 258.6,253.4 261.8,258.3 266.5,261.9 272.3,263.6 278.3,263.4 284.0,261.1 288.5,257.0 291.3,251.7" fill="rgb(30,30,36)"/><polygon points="89.7,179.4 123.8,206.4 121.8,249.4 86.4,228.8" fill="rgb(78,13,21)"/><polygon points="282.6,231.8 276.8,230.1 275.9,227.7 281.7,229.4" fill="rgb(13,13,16)"/><polygon points="257.4,247.7 258.6,253.4 257.3,251.3 256.1,245.5" fill="rgb(8,8,10)"/><polygon points="287.4,235.2 282.6,231.8 281.7,229.4 286.6,232.9" fill="rgb(11,11,14)"/><polygon points="233.5,167.2 218.8,136.5 146.9,143.9 170.2,172.8" fill="rgb(93,19,31)"/><polygon points="258.6,253.4 261.8,258.3 260.6,256.3 257.3,251.3" fill="rgb(9,9,11)"/><polygon points="290.7,240.1 287.4,235.2 286.6,232.9 290.0,237.8" fill="rgb(9,9,11)"/><polygon points="261.8,258.3 266.5,261.9 265.4,260.0 260.6,256.3" fill="rgb(11,11,14)"/><polygon points="292.0,245.8 290.7,240.1 290.0,237.8 291.4,243.6" fill="rgb(8,8,10)"/><polygon points="266.5,261.9 272.3,263.6 271.2,261.8 265.4,260.0" fill="rgb(13,13,16)"/><polygon points="290.6,249.6 287.7,255.0 283.2,259.1 277.4,261.5 271.2,261.8 265.4,260.0 260.6,256.3 257.3,251.3 256.1,245.5 257.0,239.7 259.8,234.4 264.3,230.4 269.9,228.1 275.9,227.7 281.7,229.4 286.6,232.9 290.0,237.8 291.4,243.6" fill="rgb(18,18,22)"/><polygon points="291.3,251.7 292.0,245.8 291.4,243.6 290.6,249.6" fill="rgb(10,10,13)"/><polygon points="272.3,263.6 278.3,263.4 277.4,261.5 271.2,261.8" fill="rgb(14,14,17)"/><polygon points="288.5,257.0 291.3,251.7 290.6,249.6 287.7,255.0" fill="rgb(12,12,15)"/><polygon points="278.3,263.4 284.0,261.1 283.2,259.1 277.4,261.5" fill="rgb(14,14,17)"/><polygon points="284.0,261.1 288.5,257.0 287.7,255.0 283.2,259.1" fill="rgb(14,14,17)"/><polygon points="302.4,193.0 123.8,206.4 89.7,179.4 297.3,160.9" fill="rgb(190,85,93)"/><polygon points="254.7,195.7 242.3,167.1 218.8,136.5 233.5,167.2" fill="rgb(16,24,42)"/><polygon points="96.4,203.7 95.7,215.2 99.0,217.4 99.7,206.1" fill="rgb(255,100,110)"/><polygon points="302.5,202.5 302.9,204.9 303.6,216.3 303.2,214.0" fill="rgb(255,235,160)"/><polygon points="305.3,239.2 300.6,214.7 86.4,228.8 121.8,249.4" fill="rgb(23,6,9)"/><polygon points="123.5,177.5 125.4,177.3 148.1,142.8 146.2,143.0" fill="rgb(35,10,18)"/><polygon points="302.4,193.0 297.3,160.9 300.6,214.7 305.3,239.2" fill="rgb(112,29,36)"/><polygon points="242.3,167.1 123.5,177.5 146.9,143.9 218.8,136.5" fill="rgb(71,98,142)"/><polygon points="301.6,207.9 303.3,217.4 303.9,227.2 302.3,218.3" fill="rgb(18,18,22)"/><polygon points="107.5,215.0 102.5,219.5 106.8,222.3 111.7,218.0" fill="rgb(14,14,17)"/><polygon points="113.5,212.4 107.5,215.0 111.7,218.0 117.6,215.4" fill="rgb(14,14,17)"/><polygon points="102.5,219.5 99.1,225.3 103.4,228.0 106.8,222.3" fill="rgb(12,12,15)"/><polygon points="119.8,212.0 113.5,212.4 117.6,215.4 123.7,215.0" fill="rgb(14,14,17)"/><polygon points="99.1,225.3 97.6,231.7 102.0,234.4 103.4,228.0" fill="rgb(10,10,13)"/><polygon points="136.5,238.6 133.1,244.4 128.1,248.9 122.1,251.5 115.8,251.9 110.0,249.9 105.5,246.0 102.7,240.6 102.0,234.4 103.4,228.0 106.8,222.3 111.7,218.0 117.6,215.4 123.7,215.0 129.5,216.7 134.1,220.5 137.0,225.8 137.9,232.1" fill="rgb(18,18,22)"/><polygon points="125.6,213.7 119.8,212.0 123.7,215.0 129.5,216.7" fill="rgb(13,13,16)"/><polygon points="97.6,231.7 98.3,238.1 102.7,240.6 102.0,234.4" fill="rgb(8,8,10)"/><polygon points="130.3,217.6 125.6,213.7 129.5,216.7 134.1,220.5" fill="rgb(11,11,14)"/><polygon points="98.3,238.1 101.1,243.6 105.5,246.0 102.7,240.6" fill="rgb(9,9,11)"/><polygon points="240.1,167.2 242.3,167.0 218.4,135.6 216.3,135.8" fill="rgb(35,10,18)"/><polygon points="133.2,223.0 130.3,217.6 134.1,220.5 137.0,225.8" fill="rgb(9,9,11)"/><polygon points="101.1,243.6 105.7,247.6 110.0,249.9 105.5,246.0" fill="rgb(11,11,14)"/><polygon points="134.1,229.4 133.2,223.0 137.0,225.8 137.9,232.1" fill="rgb(8,8,10)"/><polygon points="105.7,247.6 111.6,249.5 115.8,251.9 110.0,249.9" fill="rgb(13,13,16)"/><polygon points="134.1,229.4 133.2,223.0 130.3,217.6 125.6,213.7 119.8,212.0 113.5,212.4 107.5,215.0 102.5,219.5 99.1,225.3 97.6,231.7 98.3,238.1 101.1,243.6 105.7,247.6 111.6,249.5 118.0,249.2 124.1,246.5 129.3,242.0 132.7,236.0" fill="rgb(30,30,36)"/><polygon points="132.7,236.0 134.1,229.4 137.9,232.1 136.5,238.6" fill="rgb(10,10,13)"/><polygon points="122.7,230.0 121.5,225.8 118.1,223.4 113.7,223.7 110.1,226.6 108.5,230.9 109.6,235.2 113.0,237.6 117.4,237.4 121.1,234.5" fill="rgb(180,180,190)"/><polygon points="111.6,249.5 118.0,249.2 122.1,251.5 115.8,251.9" fill="rgb(14,14,17)"/><polygon points="129.3,242.0 132.7,236.0 136.5,238.6 133.1,244.4" fill="rgb(12,12,15)"/><polygon points="118.0,249.2 124.1,246.5 128.1,248.9 122.1,251.5" fill="rgb(14,14,17)"/><polygon points="297.3,160.9 89.7,179.4 86.4,228.8 300.6,214.7" fill="rgb(186,48,61)"/><polygon points="124.1,246.5 129.3,242.0 133.1,244.4 128.1,248.9" fill="rgb(14,14,17)"/><polygon points="300.1,188.0 300.5,190.8 301.3,203.1 300.8,200.5" fill="rgb(255,235,160)"/><polygon points="252.1,204.7 246.8,209.4 248.5,212.7 253.7,208.0" fill="rgb(14,14,17)"/><polygon points="258.7,201.9 252.1,204.7 253.7,208.0 260.1,205.3" fill="rgb(14,14,17)"/><polygon points="246.8,209.4 243.4,215.6 245.2,218.7 248.5,212.7" fill="rgb(12,12,15)"/><polygon points="265.8,201.4 258.7,201.9 260.1,205.3 267.1,204.8" fill="rgb(14,14,17)"/><polygon points="243.4,215.6 242.4,222.4 244.1,225.4 245.2,218.7" fill="rgb(10,10,13)"/><polygon points="284.0,229.7 280.7,236.0 275.4,240.8 268.7,243.5 261.5,243.9 254.7,241.9 249.2,237.8 245.5,232.0 244.1,225.4 245.2,218.7 248.5,212.7 253.7,208.0 260.1,205.3 267.1,204.8 273.9,206.6 279.5,210.5 283.4,216.2 284.9,222.8" fill="rgb(18,18,22)"/><polygon points="272.7,203.2 265.8,201.4 267.1,204.8 273.9,206.6" fill="rgb(13,13,16)"/><polygon points="242.4,222.4 243.8,229.2 245.5,232.0 244.1,225.4" fill="rgb(8,8,10)"/><polygon points="278.4,207.2 272.7,203.2 273.9,206.6 279.5,210.5" fill="rgb(11,11,14)"/><polygon points="243.8,229.2 247.5,235.0 249.2,237.8 245.5,232.0" fill="rgb(9,9,11)"/><polygon points="282.4,213.0 278.4,207.2 279.5,210.5 283.4,216.2" fill="rgb(9,9,11)"/><polygon points="247.5,235.0 253.2,239.2 254.7,241.9 249.2,237.8" fill="rgb(11,11,14)"/><polygon points="284.0,219.8 282.4,213.0 283.4,216.2 284.9,222.8" fill="rgb(8,8,10)"/><polygon points="253.2,239.2 260.1,241.3 261.5,243.9 254.7,241.9" fill="rgb(13,13,16)"/><polygon points="284.0,219.8 282.4,213.0 278.4,207.2 272.7,203.2 265.8,201.4 258.7,201.9 252.1,204.7 246.8,209.4 243.4,215.6 242.4,222.4 243.8,229.2 247.5,235.0 253.2,239.2 260.1,241.3 267.4,240.9 274.2,238.0 279.6,233.1 283.0,226.8" fill="rgb(30,30,36)"/><polygon points="283.0,226.8 284.0,219.8 284.9,222.8 284.0,229.7" fill="rgb(10,10,13)"/><polygon points="271.1,220.5 269.3,216.0 265.2,213.5 260.2,213.8 256.3,216.9 254.9,221.5 256.6,226.0 260.7,228.6 265.7,228.3 269.7,225.2" fill="rgb(180,180,190)"/><polygon points="260.1,241.3 267.4,240.9 268.7,243.5 261.5,243.9" fill="rgb(14,14,17)"/><polygon points="279.6,233.1 283.0,226.8 284.0,229.7 280.7,236.0" fill="rgb(12,12,15)"/><polygon points="267.4,240.9 274.2,238.0 275.4,240.8 268.7,243.5" fill="rgb(14,14,17)"/><polygon points="274.2,238.0 279.6,233.1 280.7,236.0 275.4,240.8" fill="rgb(14,14,17)"/></svg>