<svg xmlns="http://www.w3.org/2000/svg" viewBox="0 0 400 400"><rect width="400" height="400" fill="#0f1020"/><rect x="0" y="250" width="400" height="150" fill="#0a0b17"/><ellipse cx="200" cy="262" rx="120" ry="16" fill="rgba(0,0,0,0.45)"/><polygon points="211.7,230.3 205.3,230.8 205.3,240.6 211.7,240.1" fill="rgb(255,235,160)"/><polygon points="190.2,216.9 263.3,210.1 264.9,252.2 190.0,257.3" fill="rgb(188,48,61)"/><polygon points="239.8,241.3 213.4,243.3 213.5,251.6 240.0,249.7" fill="rgb(18,18,22)"/><polygon points="247.9,227.3 241.2,227.8 241.4,237.8 248.2,237.3" fill="rgb(255,235,160)"/><polygon points="181.9,259.4 181.7,254.0 189.8,253.5 190.1,258.9" fill="rgb(14,14,18)"/><polygon points="181.7,254.0 180.8,248.9 188.9,248.3 189.8,253.5" fill="rgb(11,11,14)"/><polygon points="181.6,264.5 181.9,259.4 190.1,258.9 189.7,263.9" fill="rgb(17,17,20)"/><polygon points="180.8,248.9 179.4,244.6 187.6,244.0 188.9,248.3" fill="rgb(8,8,10)"/><polygon points="180.6,268.6 181.6,264.5 189.7,263.9 188.8,268.1" fill="rgb(18,18,22)"/><polygon points="179.4,244.6 177.7,241.7 185.9,241.0 187.6,244.0" fill="rgb(11,11,13)"/><polygon points="179.1,271.4 180.6,268.6 188.8,268.1 187.4,270.9" fill="rgb(18,18,22)"/><polygon points="177.7,241.7 175.8,240.4 184.1,239.8 185.9,241.0" fill="rgb(14,14,17)"/><polygon points="178.4,257.6 178.1,253.8 177.0,251.0 175.7,250.2 174.5,251.7 174.1,255.1 174.4,258.9 175.5,261.8 176.9,262.5 178.0,260.9" fill="rgb(180,180,190)"/><polygon points="181.9,259.4 181.7,254.0 180.8,248.9 179.4,244.6 177.7,241.7 175.8,240.4 173.9,241.1 172.3,243.6 171.2,247.8 170.8,253.0 171.0,258.7 172.0,264.1 173.5,268.5 175.3,271.4 177.3,272.3 179.1,271.4 180.6,268.6 181.6,264.5" fill="rgb(30,30,36)"/><polygon points="177.3,272.3 179.1,271.4 187.4,270.9 185.7,271.8" fill="rgb(16,16,20)"/><polygon points="175.8,240.4 173.9,241.1 182.3,240.4 184.1,239.8" fill="rgb(16,16,20)"/><polygon points="189.7,263.9 188.8,268.1 187.4,270.9 185.7,271.8 183.8,270.9 182.0,268.0 180.5,263.6 179.6,258.2 179.3,252.4 179.7,247.1 180.8,243.0 182.3,240.4 184.1,239.8 185.9,241.0 187.6,244.0 188.9,248.3 189.8,253.5 190.1,258.9" fill="rgb(18,18,22)"/><polygon points="175.3,271.4 177.3,272.3 185.7,271.8 183.8,270.9" fill="rgb(14,14,17)"/><polygon points="173.9,241.1 172.3,243.6 180.8,243.0 182.3,240.4" fill="rgb(18,18,22)"/><polygon points="177.5,204.2 178.1,204.7 171.6,169.6 171.0,169.0" fill="rgb(35,10,18)"/><polygon points="267.1,253.7 266.7,248.0 257.8,248.7 258.2,254.3" fill="rgb(14,14,18)"/><polygon points="266.7,248.0 266.0,242.6 257.1,243.3 257.8,248.7" fill="rgb(11,11,14)"/><polygon points="173.5,268.5 175.3,271.4 183.8,270.9 182.0,268.0" fill="rgb(11,11,13)"/><polygon points="172.3,243.6 171.2,247.8 179.7,247.1 180.8,243.0" fill="rgb(18,18,22)"/><polygon points="267.1,259.0 267.1,253.7 258.2,254.3 258.2,259.5" fill="rgb(17,17,20)"/><polygon points="266.0,242.6 265.0,238.1 256.0,238.8 257.1,243.3" fill="rgb(8,8,10)"/><polygon points="172.0,264.1 173.5,268.5 182.0,268.0 180.5,263.6" fill="rgb(8,8,10)"/><polygon points="171.2,247.8 170.8,253.0 179.3,252.4 179.7,247.1" fill="rgb(17,17,20)"/><polygon points="266.8,263.3 267.1,259.0 258.2,259.5 257.7,263.8" fill="rgb(18,18,22)"/><polygon points="265.0,238.1 263.9,234.9 254.8,235.6 256.0,238.8" fill="rgb(11,11,13)"/><polygon points="171.0,258.7 172.0,264.1 180.5,263.6 179.6,258.2" fill="rgb(11,11,14)"/><polygon points="170.8,253.0 171.0,258.7 179.6,258.2 179.3,252.4" fill="rgb(14,14,18)"/><polygon points="178.2,204.7 251.4,197.3 244.1,160.8 173.4,169.4" fill="rgb(18,27,49)"/><polygon points="266.0,266.1 266.8,263.3 257.7,263.8 256.9,266.7" fill="rgb(18,18,22)"/><polygon points="263.9,234.9 262.7,233.6 253.6,234.3 254.8,235.6" fill="rgb(14,14,17)"/><polygon points="258.2,259.5 257.7,263.8 256.9,266.7 255.9,267.6 254.6,266.6 253.4,263.6 252.3,258.9 251.5,253.3 251.1,247.3 251.1,241.8 251.6,237.5 252.5,234.9 253.6,234.3 254.8,235.6 256.0,238.8 257.1,243.3 257.8,248.7 258.2,254.3" fill="rgb(18,18,22)"/><polygon points="265.1,267.1 266.0,266.1 256.9,266.7 255.9,267.6" fill="rgb(16,16,20)"/><polygon points="262.7,233.6 261.7,234.2 252.5,234.9 253.6,234.3" fill="rgb(16,16,20)"/><polygon points="267.1,253.7 266.7,248.0 266.0,242.6 265.0,238.1 263.9,234.9 262.7,233.6 261.7,234.2 260.9,236.8 260.5,241.1 260.5,246.6 260.9,252.6 261.7,258.3 262.7,263.0 263.9,266.0 265.1,267.1 266.0,266.1 266.8,263.3 267.1,259.0" fill="rgb(30,30,36)"/><polygon points="265.4,251.6 265.0,247.6 264.3,244.6 263.5,243.7 263.0,245.3 262.9,248.8 263.2,252.9 264.0,255.9 264.8,256.7 265.3,255.1" fill="rgb(180,180,190)"/><polygon points="251.2,196.7 251.6,197.3 246.0,160.6 245.6,159.9" fill="rgb(35,10,18)"/><polygon points="263.9,266.0 265.1,267.1 255.9,267.6 254.6,266.6" fill="rgb(14,14,17)"/><polygon points="261.7,234.2 260.9,236.8 251.6,237.5 252.5,234.9" fill="rgb(18,18,22)"/><polygon points="262.7,263.0 263.9,266.0 254.6,266.6 253.4,263.6" fill="rgb(11,11,13)"/><polygon points="260.9,236.8 260.5,241.1 251.1,241.8 251.6,237.5" fill="rgb(18,18,22)"/><polygon points="261.7,258.3 262.7,263.0 253.4,263.6 252.3,258.9" fill="rgb(8,8,10)"/><polygon points="260.5,241.1 260.5,246.6 251.1,247.3 251.1,241.8" fill="rgb(17,17,20)"/><polygon points="260.9,252.6 261.7,258.3 252.3,258.9 251.5,253.3" fill="rgb(11,11,14)"/><polygon points="260.5,246.6 260.9,252.6 251.5,253.3 251.1,247.3" fill="rgb(14,14,18)"/><polygon points="178.2,204.7 173.4,169.4 147.3,143.5 134.6,168.2" fill="rgb(40,56,81)"/><polygon points="190.2,216.9 190.0,257.3 111.9,209.9 114.8,154.6" fill="rgb(104,27,34)"/><polygon points="173.4,169.4 244.1,160.8 226.2,132.5 147.3,143.5" fill="rgb(93,19,31)"/><polygon points="190.2,216.9 114.8,154.6 214.6,141.1 263.3,210.1" fill="rgb(190,85,93)"/><polygon points="251.4,197.3 222.3,157.1 226.2,132.5 244.1,160.8" fill="rgb(37,51,74)"/><polygon points="190.0,257.3 264.9,252.2 215.1,199.4 111.9,209.9" fill="rgb(23,6,9)"/><polygon points="263.3,210.1 214.6,141.1 215.1,199.4 264.9,252.2" fill="rgb(104,27,34)"/><polygon points="134.4,168.2 135.3,169.0 146.1,144.6 145.3,143.8" fill="rgb(35,10,18)"/><polygon points="134.6,168.2 147.3,143.5 226.2,132.5 222.3,157.1" fill="rgb(30,45,80)"/><polygon points="131.8,230.8 131.6,224.0 141.5,223.1 141.7,229.9" fill="rgb(14,14,18)"/><polygon points="131.6,224.0 130.3,217.5 140.3,216.6 141.5,223.1" fill="rgb(11,11,14)"/><polygon points="131.0,236.9 131.8,230.8 141.7,229.9 141.0,236.1" fill="rgb(17,17,20)"/><polygon points="130.3,217.5 128.3,211.9 138.3,210.9 140.3,216.6" fill="rgb(8,8,10)"/><polygon points="129.3,241.9 131.0,236.9 141.0,236.1 139.4,241.1" fill="rgb(18,18,22)"/><polygon points="128.3,211.9 125.6,207.9 135.6,206.8 138.3,210.9" fill="rgb(11,11,13)"/><polygon points="222.6,157.1 223.2,157.9 228.9,133.1 228.3,132.2" fill="rgb(35,10,18)"/><polygon points="126.9,245.1 129.3,241.9 139.4,241.1 137.0,244.3" fill="rgb(18,18,22)"/><polygon points="125.6,207.9 122.5,205.9 132.7,204.8 135.6,206.8" fill="rgb(14,14,17)"/><polygon points="126.3,227.8 125.8,223.0 124.3,219.3 122.1,218.0 120.2,219.7 119.3,223.8 119.8,228.7 121.5,232.5 123.6,233.6 125.5,231.8" fill="rgb(180,180,190)"/><polygon points="131.8,230.8 131.6,224.0 130.3,217.5 128.3,211.9 125.6,207.9 122.5,205.9 119.4,206.3 116.8,209.1 114.8,214.0 113.9,220.5 114.1,227.7 115.5,234.7 117.8,240.5 120.7,244.4 123.9,246.0 126.9,245.1 129.3,241.9 131.0,236.9" fill="rgb(30,30,36)"/><polygon points="123.9,246.0 126.9,245.1 137.0,244.3 134.2,245.2" fill="rgb(16,16,20)"/><polygon points="122.5,205.9 119.4,206.3 129.7,205.2 132.7,204.8" fill="rgb(16,16,20)"/><polygon points="141.0,236.1 139.4,241.1 137.0,244.3 134.2,245.2 131.1,243.6 128.3,239.6 126.0,233.8 124.7,226.8 124.5,219.5 125.3,213.0 127.2,208.0 129.7,205.2 132.7,204.8 135.6,206.8 138.3,210.9 140.3,216.6 141.5,223.1 141.7,229.9" fill="rgb(18,18,22)"/><polygon points="120.7,244.4 123.9,246.0 134.2,245.2 131.1,243.6" fill="rgb(14,14,17)"/><polygon points="119.4,206.3 116.8,209.1 127.2,208.0 129.7,205.2" fill="rgb(18,18,22)"/><polygon points="237.0,221.6 236.6,214.4 225.5,215.5 225.9,222.5" fill="rgb(14,14,18)"/><polygon points="236.6,214.4 235.5,207.5 224.4,208.5 225.5,215.5" fill="rgb(11,11,14)"/><polygon points="117.8,240.5 120.7,244.4 131.1,243.6 128.3,239.6" fill="rgb(11,11,13)"/><polygon points="116.8,209.1 114.8,214.0 125.3,213.0 127.2,208.0" fill="rgb(18,18,22)"/><polygon points="236.9,228.1 237.0,221.6 225.9,222.5 225.7,229.1" fill="rgb(17,17,20)"/><polygon points="235.5,207.5 234.1,201.4 222.9,202.5 224.4,208.5" fill="rgb(8,8,10)"/><polygon points="115.5,234.7 117.8,240.5 128.3,239.6 126.0,233.8" fill="rgb(8,8,10)"/><polygon points="114.8,214.0 113.9,220.5 124.5,219.5 125.3,213.0" fill="rgb(17,17,20)"/><polygon points="236.1,233.3 236.9,228.1 225.7,229.1 224.8,234.2" fill="rgb(18,18,22)"/><polygon points="234.1,201.4 232.3,197.0 221.0,198.1 222.9,202.5" fill="rgb(11,11,13)"/><polygon points="114.1,227.7 115.5,234.7 126.0,233.8 124.7,226.8" fill="rgb(11,11,14)"/><polygon points="113.9,220.5 114.1,227.7 124.7,226.8 124.5,219.5" fill="rgb(14,14,18)"/><polygon points="234.8,236.6 236.1,233.3 224.8,234.2 223.4,237.5" fill="rgb(18,18,22)"/><polygon points="232.3,197.0 230.4,194.7 219.0,195.9 221.0,198.1" fill="rgb(14,14,17)"/><polygon points="225.7,229.1 224.8,234.2 223.4,237.5 221.5,238.3 219.4,236.6 217.4,232.4 215.7,226.1 214.6,218.7 214.2,211.0 214.5,204.2 215.5,199.0 217.1,196.2 219.0,195.9 221.0,198.1 222.9,202.5 224.4,208.5 225.5,215.5 225.9,222.5" fill="rgb(18,18,22)"/><polygon points="233.1,237.4 234.8,236.6 223.4,237.5 221.5,238.3" fill="rgb(16,16,20)"/><polygon points="230.4,194.7 228.7,195.0 217.1,196.2 219.0,195.9" fill="rgb(16,16,20)"/><polygon points="142.6,171.5 142.1,185.0 133.4,186.0 133.9,172.6" fill="rgb(255,100,110)"/><polygon points="237.0,221.6 236.6,214.4 235.5,207.5 234.1,201.4 232.3,197.0 230.4,194.7 228.7,195.0 227.2,197.8 226.3,203.0 226.1,209.9 226.6,217.6 227.7,225.1 229.3,231.4 231.2,235.7 233.1,237.4 234.8,236.6 236.1,233.3 236.9,228.1" fill="rgb(30,30,36)"/><polygon points="234.2,218.2 233.7,213.1 232.6,209.1 231.3,207.6 230.3,209.3 230.0,213.6 230.5,218.9 231.6,222.9 232.9,224.3 233.9,222.4" fill="rgb(180,180,190)"/><polygon points="231.2,235.7 233.1,237.4 221.5,238.3 219.4,236.6" fill="rgb(14,14,17)"/><polygon points="228.7,195.0 227.2,197.8 215.5,199.0 217.1,196.2" fill="rgb(18,18,22)"/><polygon points="214.6,141.1 114.8,154.6 111.9,209.9 215.1,199.4" fill="rgb(131,22,35)"/><polygon points="229.3,231.4 231.2,235.7 219.4,236.6 217.4,232.4" fill="rgb(11,11,13)"/><polygon points="227.2,197.8 226.3,203.0 214.5,204.2 215.5,199.0" fill="rgb(18,18,22)"/><polygon points="192.3,165.4 192.2,179.2 182.9,180.3 183.0,166.5" fill="rgb(255,100,110)"/><polygon points="227.7,225.1 229.3,231.4 217.4,232.4 215.7,226.1" fill="rgb(8,8,10)"/><polygon points="226.3,203.0 226.1,209.9 214.2,211.0 214.5,204.2" fill="rgb(17,17,20)"/><polygon points="226.6,217.6 227.7,225.1 215.7,226.1 214.6,218.7" fill="rgb(11,11,14)"/><polygon points="226.1,209.9 226.6,217.6 214.6,218.7 214.2,211.0" fill="rgb(14,14,18)"/></svg>