<svg xmlns="http://www.w3.org/2000/svg" viewBox="0 0 400 400"><rect width="400" height="400" fill="#0f1020"/><rect x="0" y="250" width="400" height="150" fill="#0a0b17"/><ellipse cx="200" cy="262" rx="120" ry="16" fill="rgba(0,0,0,0.45)"/><polygon points="184.8,230.5 184.8,240.3 191.5,240.2 191.5,230.4" fill="rgb(255,100,110)"/><polygon points="169.3,215.5 244.3,213.8 245.3,255.0 168.5,256.3" fill="rgb(127,21,34)"/><polygon points="221.8,229.8 221.9,239.6 228.7,239.5 228.6,229.6" fill="rgb(255,100,110)"/><polygon points="162.4,252.6 162.4,258.1 171.1,257.9 171.1,252.5" fill="rgb(14,14,17)"/><polygon points="162.1,247.4 162.4,252.6 171.1,252.5 170.8,247.2" fill="rgb(11,11,13)"/><polygon points="162.4,258.1 162.2,263.2 170.9,263.0 171.1,257.9" fill="rgb(16,16,20)"/><polygon points="161.6,243.0 162.1,247.4 170.8,247.2 170.3,242.8" fill="rgb(8,8,9)"/><polygon points="162.2,263.2 161.7,267.3 170.4,267.2 170.9,263.0" fill="rgb(17,17,21)"/><polygon points="249.8,251.1 249.9,256.6 241.1,256.8 241.0,251.2" fill="rgb(14,14,17)"/><polygon points="160.8,239.9 161.6,243.0 170.3,242.8 169.6,239.8" fill="rgb(11,11,13)"/><polygon points="249.7,245.8 249.8,251.1 241.0,251.2 240.8,246.0" fill="rgb(11,11,13)"/><polygon points="249.9,256.6 250.1,261.8 241.2,261.9 241.1,256.8" fill="rgb(16,16,20)"/><polygon points="249.6,241.4 249.7,245.8 240.8,246.0 240.7,241.5" fill="rgb(8,8,9)"/><polygon points="167.7,207.0 167.4,206.4 165.4,171.5 165.6,172.1" fill="rgb(35,10,18)"/><polygon points="161.7,267.3 161.0,270.1 169.8,269.9 170.4,267.2" fill="rgb(17,17,21)"/><polygon points="241.7,205.2 239.1,170.0 167.5,172.1 167.8,207.0" fill="rgb(18,26,47)"/><polygon points="250.1,261.8 250.3,266.0 241.3,266.1 241.2,261.9" fill="rgb(17,17,21)"/><polygon points="160.0,238.6 160.8,239.9 169.6,239.8 168.9,238.4" fill="rgb(14,14,17)"/><polygon points="249.7,238.2 249.6,241.4 240.7,241.5 240.7,238.4" fill="rgb(11,11,13)"/><polygon points="241.8,205.2 241.8,204.7 241.0,169.3 241.0,169.9" fill="rgb(35,10,18)"/><polygon points="161.0,270.1 160.1,271.0 169.1,270.8 169.8,269.9" fill="rgb(16,16,20)"/><polygon points="158.8,253.4 159.1,250.0 159.6,248.5 160.2,249.3 160.6,252.2 160.7,256.0 160.5,259.4 160.0,261.0 159.4,260.2 158.9,257.3" fill="rgb(180,180,190)"/><polygon points="157.5,251.2 157.8,245.9 158.4,241.7 159.2,239.2 160.0,238.6 160.8,239.9 161.6,243.0 162.1,247.4 162.4,252.6 162.4,258.1 162.2,263.2 161.7,267.3 161.0,270.1 160.1,271.0 159.3,269.9 158.5,267.0 157.9,262.5 157.6,257.0" fill="rgb(30,30,36)"/><polygon points="250.3,266.0 250.4,268.7 241.4,268.9 241.3,266.1" fill="rgb(17,17,21)"/><polygon points="166.8,256.8 167.1,262.3 167.6,266.9 168.3,269.8 169.1,270.8 169.8,269.9 170.4,267.2 170.9,263.0 171.1,257.9 171.1,252.5 170.8,247.2 170.3,242.8 169.6,239.8 168.9,238.4 168.1,239.0 167.5,241.5 167.0,245.7 166.7,251.0" fill="rgb(18,18,22)"/><polygon points="159.2,239.2 160.0,238.6 168.9,238.4 168.1,239.0" fill="rgb(16,16,20)"/><polygon points="249.7,236.9 249.7,238.2 240.7,238.4 240.7,237.0" fill="rgb(14,14,17)"/><polygon points="160.1,271.0 159.3,269.9 168.3,269.8 169.1,270.8" fill="rgb(14,14,17)"/><polygon points="250.4,268.7 250.6,269.7 241.4,269.8 241.4,268.9" fill="rgb(16,16,20)"/><polygon points="241.1,255.6 241.2,261.2 241.3,265.7 241.4,268.7 241.4,269.8 241.4,268.9 241.3,266.1 241.2,261.9 241.1,256.8 241.0,251.2 240.8,246.0 240.7,241.5 240.7,238.4 240.7,237.0 240.7,237.6 240.7,240.1 240.9,244.4 241.0,249.7" fill="rgb(18,18,22)"/><polygon points="158.4,241.7 159.2,239.2 168.1,239.0 167.5,241.5" fill="rgb(17,17,21)"/><polygon points="250.4,249.6 250.2,244.2 250.0,240.0 249.9,237.4 249.7,236.9 249.7,238.2 249.6,241.4 249.7,245.8 249.8,251.1 249.9,256.6 250.1,261.8 250.3,266.0 250.4,268.7 250.6,269.7 250.7,268.6 250.7,265.6 250.6,261.0 250.5,255.4" fill="rgb(30,30,36)"/><polygon points="250.5,251.8 250.4,248.4 250.3,246.8 250.2,247.7 250.2,250.7 250.3,254.6 250.5,257.9 250.6,259.5 250.6,258.7 250.6,255.8" fill="rgb(180,180,190)"/><polygon points="249.9,237.4 249.7,236.9 240.7,237.0 240.7,237.6" fill="rgb(16,16,20)"/><polygon points="159.3,269.9 158.5,267.0 167.6,266.9 168.3,269.8" fill="rgb(11,11,13)"/><polygon points="250.6,269.7 250.7,268.6 241.4,268.7 241.4,269.8" fill="rgb(14,14,17)"/><polygon points="157.8,245.9 158.4,241.7 167.5,241.5 167.0,245.7" fill="rgb(17,17,21)"/><polygon points="250.0,240.0 249.9,237.4 240.7,237.6 240.7,240.1" fill="rgb(17,17,21)"/><polygon points="158.5,267.0 157.9,262.5 167.1,262.3 167.6,266.9" fill="rgb(8,8,9)"/><polygon points="157.5,251.2 157.8,245.9 167.0,245.7 166.7,251.0" fill="rgb(16,16,20)"/><polygon points="157.9,262.5 157.6,257.0 166.8,256.8 167.1,262.3" fill="rgb(11,11,13)"/><polygon points="250.7,268.6 250.7,265.6 241.3,265.7 241.4,268.7" fill="rgb(11,11,13)"/><polygon points="157.6,257.0 157.5,251.2 166.7,251.0 166.8,256.8" fill="rgb(14,14,17)"/><polygon points="250.2,244.2 250.0,240.0 240.7,240.1 240.9,244.4" fill="rgb(17,17,21)"/><polygon points="250.7,265.6 250.6,261.0 241.2,261.2 241.3,265.7" fill="rgb(8,8,9)"/><polygon points="250.4,249.6 250.2,244.2 240.9,244.4 241.0,249.7" fill="rgb(16,16,20)"/><polygon points="250.6,261.0 250.5,255.4 241.1,255.6 241.2,261.2" fill="rgb(11,11,13)"/><polygon points="250.5,255.4 250.4,249.6 241.0,249.7 241.1,255.6" fill="rgb(14,14,17)"/><polygon points="238.6,142.9 157.4,145.5 167.5,172.1 239.1,170.0" fill="rgb(93,19,31)"/><polygon points="150.7,169.5 167.8,207.0 167.5,172.1 157.4,145.5" fill="rgb(49,67,98)"/><polygon points="241.4,166.8 238.6,142.9 239.1,170.0 241.7,205.2" fill="rgb(45,62,91)"/><polygon points="244.9,144.0 244.3,213.8 169.3,215.5 137.1,147.6" fill="rgb(190,85,93)"/><polygon points="137.1,147.6 169.3,215.5 168.5,256.3 134.9,204.4" fill="rgb(127,32,41)"/><polygon points="244.9,144.0 246.5,201.7 245.3,255.0 244.3,213.8" fill="rgb(127,32,41)"/><polygon points="246.5,201.7 134.9,204.4 168.5,256.3 245.3,255.0" fill="rgb(23,6,9)"/><polygon points="150.8,170.3 150.5,169.5 155.3,145.6 155.6,146.4" fill="rgb(35,10,18)"/><polygon points="241.4,166.8 150.7,169.5 157.4,145.5 238.6,142.9" fill="rgb(29,44,78)"/><polygon points="241.6,167.6 241.6,166.8 240.7,142.8 240.8,143.7" fill="rgb(35,10,18)"/><polygon points="140.2,219.9 140.2,226.8 151.2,226.6 151.2,219.6" fill="rgb(14,14,17)"/><polygon points="139.7,213.1 140.2,219.9 151.2,219.6 150.7,212.9" fill="rgb(11,11,13)"/><polygon points="140.2,226.8 139.7,233.1 150.8,232.9 151.2,226.6" fill="rgb(16,16,20)"/><polygon points="138.9,207.2 139.7,213.1 150.7,212.9 150.0,207.0" fill="rgb(8,8,9)"/><polygon points="139.7,233.1 138.8,238.2 150.0,237.9 150.8,232.9" fill="rgb(17,17,21)"/><polygon points="251.8,217.4 251.9,224.4 240.6,224.7 240.4,217.7" fill="rgb(14,14,17)"/><polygon points="137.7,202.9 138.9,207.2 150.0,207.0 148.9,202.7" fill="rgb(11,11,13)"/><polygon points="251.6,210.5 251.8,217.4 240.4,217.7 240.3,210.8" fill="rgb(11,11,13)"/><polygon points="251.9,224.4 252.2,230.9 240.8,231.1 240.6,224.7" fill="rgb(16,16,20)"/><polygon points="251.6,204.6 251.6,210.5 240.3,210.8 240.1,204.8" fill="rgb(8,8,9)"/><polygon points="138.8,238.2 137.6,241.3 148.9,241.1 150.0,237.9" fill="rgb(17,17,21)"/><polygon points="252.2,230.9 252.4,236.0 240.9,236.2 240.8,231.1" fill="rgb(17,17,21)"/><polygon points="136.3,200.7 137.7,202.9 148.9,202.7 147.7,200.4" fill="rgb(14,14,17)"/><polygon points="251.6,200.1 251.6,204.6 240.1,204.8 240.1,200.4" fill="rgb(11,11,13)"/><polygon points="137.6,241.3 136.2,242.1 147.7,241.9 148.9,241.1" fill="rgb(16,16,20)"/><polygon points="134.3,219.1 134.8,214.9 135.7,213.2 136.7,214.7 137.3,218.6 137.5,223.5 137.0,227.6 136.1,229.4 135.1,228.1 134.4,224.1" fill="rgb(180,180,190)"/><polygon points="132.0,215.4 132.6,208.7 133.6,203.7 134.9,201.0 136.3,200.7 137.7,202.9 138.9,207.2 139.7,213.1 140.2,219.9 140.2,226.8 139.7,233.1 138.8,238.2 137.6,241.3 136.2,242.1 134.8,240.4 133.5,236.2 132.5,230.1 132.0,222.9" fill="rgb(30,30,36)"/><polygon points="252.4,236.0 252.6,239.1 241.0,239.3 240.9,236.2" fill="rgb(17,17,21)"/><polygon points="143.9,222.6 144.4,229.9 145.3,236.0 146.4,240.1 147.7,241.9 148.9,241.1 150.0,237.9 150.8,232.9 151.2,226.6 151.2,219.6 150.7,212.9 150.0,207.0 148.9,202.7 147.7,200.4 146.4,200.7 145.2,203.4 144.4,208.4 143.9,215.1" fill="rgb(18,18,22)"/><polygon points="134.9,201.0 136.3,200.7 147.7,200.4 146.4,200.7" fill="rgb(16,16,20)"/><polygon points="251.7,197.9 251.6,200.1 240.1,200.4 240.0,198.1" fill="rgb(14,14,17)"/><polygon points="136.2,242.1 134.8,240.4 146.4,240.1 147.7,241.9" fill="rgb(14,14,17)"/><polygon points="252.6,239.1 252.8,239.9 241.0,240.1 241.0,239.3" fill="rgb(16,16,20)"/><polygon points="240.6,220.5 240.8,227.9 240.9,234.1 241.0,238.3 241.0,240.1 241.0,239.3 240.9,236.2 240.8,231.1 240.6,224.7 240.4,217.7 240.3,210.8 240.1,204.8 240.1,200.4 240.0,198.1 240.0,198.3 240.1,201.1 240.3,206.2 240.4,212.9" fill="rgb(18,18,22)"/><polygon points="133.6,203.7 134.9,201.0 146.4,200.7 145.2,203.4" fill="rgb(17,17,21)"/><polygon points="252.7,212.6 252.4,205.9 252.2,200.8 251.9,198.1 251.7,197.9 251.6,200.1 251.6,204.6 251.6,210.5 251.8,217.4 251.9,224.4 252.2,230.9 252.4,236.0 252.6,239.1 252.8,239.9 253.0,238.1 253.0,233.9 253.0,227.6 252.9,220.2" fill="rgb(30,30,36)"/><polygon points="252.8,216.4 252.6,212.2 252.5,210.5 252.4,212.0 252.4,216.0 252.5,221.0 252.7,225.2 252.8,227.0 252.9,225.6 252.9,221.6" fill="rgb(180,180,190)"/><polygon points="251.9,198.1 251.7,197.9 240.0,198.1 240.0,198.3" fill="rgb(16,16,20)"/><polygon points="134.8,240.4 133.5,236.2 145.3,236.0 146.4,240.1" fill="rgb(11,11,13)"/><polygon points="252.8,239.9 253.0,238.1 241.0,238.3 241.0,240.1" fill="rgb(14,14,17)"/><polygon points="132.6,208.7 133.6,203.7 145.2,203.4 144.4,208.4" fill="rgb(17,17,21)"/><polygon points="252.2,200.8 251.9,198.1 240.0,198.3 240.1,201.1" fill="rgb(17,17,21)"/><polygon points="133.5,236.2 132.5,230.1 144.4,229.9 145.3,236.0" fill="rgb(8,8,9)"/><polygon points="132.0,215.4 132.6,208.7 144.4,208.4 143.9,215.1" fill="rgb(16,16,20)"/><polygon points="132.5,230.1 132.0,222.9 143.9,222.6 144.4,229.9" fill="rgb(11,11,13)"/><polygon points="253.0,238.1 253.0,233.9 240.9,234.1 241.0,238.3" fill="rgb(11,11,13)"/><polygon points="132.0,222.9 132.0,215.4 143.9,215.1 143.9,222.6" fill="rgb(14,14,17)"/><polygon points="252.4,205.9 252.2,200.8 240.1,201.1 240.3,206.2" fill="rgb(17,17,21)"/><polygon points="253.0,233.9 253.0,227.6 240.8,227.9 240.9,234.1" fill="rgb(8,8,9)"/><polygon points="252.7,212.6 252.4,205.9 240.3,206.2 240.4,212.9" fill="rgb(16,16,20)"/><polygon points="159.0,167.9 168.6,167.6 168.3,181.3 158.6,181.6" fill="rgb(255,235,160)"/><polygon points="253.0,227.6 252.9,220.2 240.6,220.5 240.8,227.9" fill="rgb(11,11,13)"/><polygon points="252.9,220.2 252.7,212.6 240.4,212.9 240.6,220.5" fill="rgb(14,14,17)"/><polygon points="244.9,144.0 137.1,147.6 134.9,204.4 246.5,201.7" fill="rgb(182,47,59)"/><polygon points="212.3,166.3 222.1,166.0 222.3,179.8 212.4,180.1" fill="rgb(255,235,160)"/><polygon points="170.7,185.9 210.0,184.8 210.1,196.5 170.5,197.5" fill="rgb(18,18,22)"/></svg>