<svg xmlns="http://www.w3.org/2000/svg" viewBox="0 0 400 400"><rect width="400" height="400" fill="#0f1020"/><rect x="0" y="250" width="400" height="150" fill="#0a0b17"/><ellipse cx="200" cy="262" rx="120" ry="16" fill="rgba(0,0,0,0.45)"/><polygon points="159.6,252.3 162.0,247.4 156.8,245.7 154.4,250.7" fill="rgb(10,10,12)"/><polygon points="162.0,247.4 165.4,243.4 160.3,241.7 156.8,245.7" fill="rgb(12,12,15)"/><polygon points="158.7,257.7 159.6,252.3 154.4,250.7 153.5,256.1" fill="rgb(8,8,10)"/><polygon points="165.4,243.4 169.7,241.0 164.6,239.2 160.3,241.7" fill="rgb(13,13,16)"/><polygon points="159.4,262.9 158.7,257.7 153.5,256.1 154.2,261.4" fill="rgb(9,9,12)"/><polygon points="136.9,224.3 132.5,222.7 132.1,233.0 136.5,234.5" fill="rgb(255,235,160)"/><polygon points="169.7,241.0 174.3,240.3 169.2,238.5 164.6,239.2" fill="rgb(14,14,17)"/><polygon points="161.5,267.3 159.4,262.9 154.2,261.4 156.3,265.9" fill="rgb(11,11,14)"/><polygon points="166.8,256.7 167.8,253.0 170.4,250.4 173.6,250.0 176.1,251.8 177.0,255.3 176.0,259.0 173.4,261.6 170.2,262.0 167.7,260.1" fill="rgb(180,180,190)"/><polygon points="158.7,257.7 159.6,252.3 162.0,247.4 165.4,243.4 169.7,241.0 174.3,240.3 178.5,241.5 182.1,244.4 184.3,248.8 185.1,254.2 184.2,259.7 181.8,264.8 178.2,268.8 173.8,271.3 169.2,271.8 164.9,270.4 161.5,267.3 159.4,262.9" fill="rgb(30,30,36)"/><polygon points="183.2,204.8 181.8,205.1 198.3,173.2 199.8,172.9" fill="rgb(35,10,18)"/><polygon points="174.3,240.3 178.5,241.5 173.5,239.7 169.2,238.5" fill="rgb(14,14,17)"/><polygon points="164.9,270.4 161.5,267.3 156.3,265.9 159.7,269.0" fill="rgb(13,13,16)"/><polygon points="178.5,241.5 182.1,244.4 177.1,242.7 173.5,239.7" fill="rgb(13,13,16)"/><polygon points="169.2,271.8 164.9,270.4 159.7,269.0 164.0,270.4" fill="rgb(14,14,17)"/><polygon points="154.2,261.4 156.3,265.9 159.7,269.0 164.0,270.4 168.7,269.8 173.1,267.4 176.8,263.3 179.2,258.1 180.1,252.5 179.4,247.1 177.1,242.7 173.5,239.7 169.2,238.5 164.6,239.2 160.3,241.7 156.8,245.7 154.4,250.7 153.5,256.1" fill="rgb(18,18,22)"/><polygon points="182.1,244.4 184.3,248.8 179.4,247.1 177.1,242.7" fill="rgb(11,11,14)"/><polygon points="173.8,271.3 169.2,271.8 164.0,270.4 168.7,269.8" fill="rgb(14,14,17)"/><polygon points="184.3,248.8 185.1,254.2 180.1,252.5 179.4,247.1" fill="rgb(9,9,12)"/><polygon points="178.2,268.8 173.8,271.3 168.7,269.8 173.1,267.4" fill="rgb(13,13,16)"/><polygon points="185.1,254.2 184.2,259.7 179.2,258.1 180.1,252.5" fill="rgb(8,8,10)"/><polygon points="181.8,264.8 178.2,268.8 173.1,267.4 176.8,263.3" fill="rgb(12,12,15)"/><polygon points="184.2,259.7 181.8,264.8 176.8,263.3 179.2,258.1" fill="rgb(10,10,12)"/><polygon points="95.4,191.0 147.7,212.5 146.4,254.0 92.4,237.7" fill="rgb(100,25,32)"/><polygon points="130.8,236.1 111.9,229.7 111.4,238.8 130.5,244.8" fill="rgb(18,18,22)"/><polygon points="181.7,205.1 276.9,186.9 255.4,159.6 197.4,172.6" fill="rgb(68,94,137)"/><polygon points="147.7,212.5 310.0,181.7 313.3,230.6 146.4,254.0" fill="rgb(188,48,61)"/><polygon points="111.4,214.9 106.4,213.0 105.8,223.9 110.8,225.7" fill="rgb(255,235,160)"/><polygon points="135.2,183.2 181.7,205.1 197.4,172.6 155.1,147.7" fill="rgb(17,26,46)"/><polygon points="277.0,186.9 275.2,187.3 254.6,160.7 256.3,160.3" fill="rgb(35,10,18)"/><polygon points="155.1,147.7 197.4,172.6 255.4,159.6 217.9,131.1" fill="rgb(93,19,31)"/><polygon points="95.4,191.0 272.8,150.2 310.0,181.7 147.7,212.5" fill="rgb(190,85,93)"/><polygon points="268.6,237.1 271.2,231.5 267.1,229.3 264.5,235.0" fill="rgb(10,10,12)"/><polygon points="271.2,231.5 275.4,227.0 271.4,224.8 267.1,229.3" fill="rgb(12,12,15)"/><polygon points="267.9,243.1 268.6,237.1 264.5,235.0 263.7,241.1" fill="rgb(8,8,10)"/><polygon points="275.4,227.0 280.7,224.2 276.7,221.9 271.4,224.8" fill="rgb(13,13,16)"/><polygon points="269.1,248.9 267.9,243.1 263.7,241.1 264.9,247.0" fill="rgb(9,9,12)"/><polygon points="280.7,224.2 286.5,223.3 282.6,221.0 276.7,221.9" fill="rgb(14,14,17)"/><polygon points="272.2,253.8 269.1,248.9 264.9,247.0 268.0,252.0" fill="rgb(11,11,14)"/><polygon points="100.4,233.5 103.1,227.8 109.8,230.0 107.2,235.7" fill="rgb(10,10,12)"/><polygon points="278.0,241.8 279.1,237.7 282.2,234.8 286.3,234.2 289.7,236.2 291.2,240.1 290.1,244.3 286.9,247.2 282.9,247.7 279.5,245.7" fill="rgb(180,180,190)"/><polygon points="103.1,227.8 107.1,223.2 113.7,225.5 109.8,230.0" fill="rgb(12,12,15)"/><polygon points="99.3,239.7 100.4,233.5 107.2,235.7 106.0,241.8" fill="rgb(8,8,10)"/><polygon points="267.9,243.1 268.6,237.1 271.2,231.5 275.4,227.0 280.7,224.2 286.5,223.3 292.1,224.5 296.9,227.8 300.2,232.6 301.6,238.6 300.9,244.9 298.2,250.7 293.8,255.2 288.3,258.0 282.4,258.7 276.8,257.2 272.2,253.8 269.1,248.9" fill="rgb(30,30,36)"/><polygon points="136.7,182.7 135.1,183.1 153.9,147.0 155.5,146.6" fill="rgb(35,10,18)"/><polygon points="107.1,223.2 111.7,220.3 118.3,222.6 113.7,225.5" fill="rgb(13,13,16)"/><polygon points="99.7,245.7 99.3,239.7 106.0,241.8 106.5,247.6" fill="rgb(9,9,12)"/><polygon points="286.5,223.3 292.1,224.5 288.3,222.2 282.6,221.0" fill="rgb(14,14,17)"/><polygon points="276.8,257.2 272.2,253.8 268.0,252.0 272.7,255.4" fill="rgb(13,13,16)"/><polygon points="111.7,220.3 116.6,219.4 123.2,221.8 118.3,222.6" fill="rgb(14,14,17)"/><polygon points="101.8,250.7 99.7,245.7 106.5,247.6 108.7,252.6" fill="rgb(11,11,14)"/><polygon points="92.4,237.7 146.4,254.0 313.3,230.6 275.4,206.5" fill="rgb(23,6,9)"/><polygon points="106.5,247.6 108.7,252.6 112.2,256.0 116.7,257.5 121.6,256.8 126.4,254.0 130.5,249.4 133.3,243.5 134.4,237.2 133.7,231.2 131.4,226.2 127.8,223.0 123.2,221.8 118.3,222.6 113.7,225.5 109.8,230.0 107.2,235.7 106.0,241.8" fill="rgb(18,18,22)"/><polygon points="292.1,224.5 296.9,227.8 293.1,225.5 288.3,222.2" fill="rgb(13,13,16)"/><polygon points="282.4,258.7 276.8,257.2 272.7,255.4 278.3,256.9" fill="rgb(14,14,17)"/><polygon points="116.6,219.4 121.2,220.6 127.8,223.0 123.2,221.8" fill="rgb(14,14,17)"/><polygon points="105.4,254.2 101.8,250.7 108.7,252.6 112.2,256.0" fill="rgb(13,13,16)"/><polygon points="264.9,247.0 268.0,252.0 272.7,255.4 278.3,256.9 284.3,256.2 289.9,253.4 294.4,248.7 297.1,242.8 297.8,236.4 296.4,230.4 293.1,225.5 288.3,222.2 282.6,221.0 276.7,221.9 271.4,224.8 267.1,229.3 264.5,235.0 263.7,241.1" fill="rgb(18,18,22)"/><polygon points="296.9,227.8 300.2,232.6 296.4,230.4 293.1,225.5" fill="rgb(11,11,14)"/><polygon points="288.3,258.0 282.4,258.7 278.3,256.9 284.3,256.2" fill="rgb(14,14,17)"/><polygon points="121.2,220.6 124.9,223.9 131.4,226.2 127.8,223.0" fill="rgb(13,13,16)"/><polygon points="109.9,255.7 105.4,254.2 112.2,256.0 116.7,257.5" fill="rgb(14,14,17)"/><polygon points="300.2,232.6 301.6,238.6 297.8,236.4 296.4,230.4" fill="rgb(9,9,12)"/><polygon points="293.8,255.2 288.3,258.0 284.3,256.2 289.9,253.4" fill="rgb(13,13,16)"/><polygon points="238.8,159.5 217.9,131.1 255.4,159.6 276.9,186.9" fill="rgb(19,29,52)"/><polygon points="99.3,239.7 100.4,233.5 103.1,227.8 107.1,223.2 111.7,220.3 116.6,219.4 121.2,220.6 124.9,223.9 127.2,228.9 127.8,235.0 126.7,241.4 123.9,247.3 119.7,252.1 114.9,255.0 109.9,255.7 105.4,254.2 101.8,250.7 99.7,245.7" fill="rgb(30,30,36)"/><polygon points="301.6,238.6 300.9,244.9 297.1,242.8 297.8,236.4" fill="rgb(8,8,10)"/><polygon points="298.2,250.7 293.8,255.2 289.9,253.4 294.4,248.7" fill="rgb(12,12,15)"/><polygon points="107.6,238.2 108.8,234.0 111.7,231.0 115.1,230.4 117.8,232.4 118.7,236.4 117.4,240.7 114.5,243.7 111.0,244.3 108.4,242.2" fill="rgb(180,180,190)"/><polygon points="300.9,244.9 298.2,250.7 294.4,248.7 297.1,242.8" fill="rgb(10,10,12)"/><polygon points="124.9,223.9 127.2,228.9 133.7,231.2 131.4,226.2" fill="rgb(11,11,14)"/><polygon points="114.9,255.0 109.9,255.7 116.7,257.5 121.6,256.8" fill="rgb(14,14,17)"/><polygon points="127.2,228.9 127.8,235.0 134.4,237.2 133.7,231.2" fill="rgb(9,9,12)"/><polygon points="119.7,252.1 114.9,255.0 121.6,256.8 126.4,254.0" fill="rgb(13,13,16)"/><polygon points="127.8,235.0 126.7,241.4 133.3,243.5 134.4,237.2" fill="rgb(8,8,10)"/><polygon points="123.9,247.3 119.7,252.1 126.4,254.0 130.5,249.4" fill="rgb(12,12,15)"/><polygon points="126.7,241.4 123.9,247.3 130.5,249.4 133.3,243.5" fill="rgb(10,10,12)"/><polygon points="135.2,183.2 155.1,147.7 217.9,131.1 238.8,159.5" fill="rgb(72,99,143)"/><polygon points="304.6,194.5 305.3,206.6 302.2,204.4 301.5,192.2" fill="rgb(255,100,110)"/><polygon points="95.4,191.0 92.4,237.7 275.4,206.5 272.8,150.2" fill="rgb(188,48,61)"/><polygon points="238.7,159.5 236.7,159.9 214.9,130.8 216.8,130.3" fill="rgb(35,10,18)"/><polygon points="310.0,181.7 272.8,150.2 275.4,206.5 313.3,230.6" fill="rgb(69,12,19)"/><polygon points="286.6,180.7 287.3,193.6 283.7,191.0 283.0,177.9" fill="rgb(255,100,110)"/><polygon points="220.3,212.7 223.4,206.1 228.9,209.0 225.9,215.5" fill="rgb(10,10,12)"/><polygon points="223.4,206.1 228.2,200.7 233.7,203.8 228.9,209.0" fill="rgb(12,12,15)"/><polygon points="219.3,219.7 220.3,212.7 225.9,215.5 224.9,222.5" fill="rgb(8,8,10)"/><polygon points="228.2,200.7 234.2,197.2 239.6,200.4 233.7,203.8" fill="rgb(13,13,16)"/><polygon points="220.5,226.5 219.3,219.7 224.9,222.5 226.1,229.1" fill="rgb(9,9,12)"/><polygon points="234.2,197.2 240.8,196.0 246.1,199.2 239.6,200.4" fill="rgb(14,14,17)"/><polygon points="223.8,232.2 220.5,226.5 226.1,229.1 229.4,234.7" fill="rgb(11,11,14)"/><polygon points="226.1,229.1 229.4,234.7 234.4,238.5 240.6,240.1 247.2,239.1 253.4,235.8 258.5,230.4 261.7,223.6 262.6,216.3 261.1,209.5 257.6,204.0 252.3,200.4 246.1,199.2 239.6,200.4 233.7,203.8 228.9,209.0 225.9,215.5 224.9,222.5" fill="rgb(18,18,22)"/><polygon points="240.8,196.0 247.1,197.2 252.3,200.4 246.1,199.2" fill="rgb(14,14,17)"/><polygon points="228.8,236.0 223.8,232.2 229.4,234.7 234.4,238.5" fill="rgb(13,13,16)"/><polygon points="247.1,197.2 252.4,200.8 257.6,204.0 252.3,200.4" fill="rgb(13,13,16)"/><polygon points="235.1,237.6 228.8,236.0 234.4,238.5 240.6,240.1" fill="rgb(14,14,17)"/><polygon points="219.3,219.7 220.3,212.7 223.4,206.1 228.2,200.7 234.2,197.2 240.8,196.0 247.1,197.2 252.4,200.8 256.0,206.5 257.4,213.4 256.5,220.8 253.2,227.7 248.1,233.2 241.8,236.6 235.1,237.6 228.8,236.0 223.8,232.2 220.5,226.5" fill="rgb(30,30,36)"/><polygon points="230.4,217.8 231.7,212.9 235.3,209.4 239.9,208.6 243.7,210.8 245.3,215.3 243.9,220.3 240.3,223.8 235.7,224.5 231.9,222.2" fill="rgb(180,180,190)"/><polygon points="252.4,200.8 256.0,206.5 261.1,209.5 257.6,204.0" fill="rgb(11,11,14)"/><polygon points="241.8,236.6 235.1,237.6 240.6,240.1 247.2,239.1" fill="rgb(14,14,17)"/><polygon points="256.0,206.5 257.4,213.4 262.6,216.3 261.1,209.5" fill="rgb(9,9,12)"/><polygon points="248.1,233.2 241.8,236.6 247.2,239.1 253.4,235.8" fill="rgb(13,13,16)"/><polygon points="257.4,213.4 256.5,220.8 261.7,223.6 262.6,216.3" fill="rgb(8,8,10)"/><polygon points="253.2,227.7 248.1,233.2 253.4,235.8 258.5,230.4" fill="rgb(12,12,15)"/><polygon points="256.5,220.8 253.2,227.7 258.5,230.4 261.7,223.6" fill="rgb(10,10,12)"/></svg>