<svg xmlns="http://www.w3.org/2000/svg" viewBox="0 0 400 400"><rect width="400" height="400" fill="#0f1020"/><rect x="0" y="250" width="400" height="150" fill="#0a0b17"/><ellipse cx="200" cy="262" rx="120" ry="16" fill="rgba(0,0,0,0.45)"/><polygon points="248.6,203.6 246.9,203.4 227.5,173.3 229.2,173.4" fill="rgb(35,10,18)"/><polygon points="256.7,240.0 260.9,243.8 264.0,241.7 259.8,237.9" fill="rgb(9,9,11)"/><polygon points="251.7,237.9 256.7,240.0 259.8,237.9 254.6,235.7" fill="rgb(12,12,14)"/><polygon points="260.9,243.8 263.7,248.7 266.9,246.7 264.0,241.7" fill="rgb(9,9,11)"/><polygon points="246.3,237.5 251.7,237.9 254.6,235.7 249.2,235.4" fill="rgb(14,14,17)"/><polygon points="243.3,253.1 244.4,249.5 247.3,247.4 251.0,247.6 254.1,250.0 255.4,253.7 254.3,257.3 251.4,259.4 247.6,259.2 244.5,256.8" fill="rgb(180,180,190)"/><polygon points="263.7,248.7 264.9,254.1 268.1,252.2 266.9,246.7" fill="rgb(12,12,14)"/><polygon points="233.8,252.5 234.6,247.1 237.2,242.4 241.3,239.1 246.3,237.5 251.7,237.9 256.7,240.0 260.9,243.8 263.7,248.7 264.9,254.1 264.1,259.6 261.6,264.3 257.6,267.7 252.6,269.4 247.2,269.1 242.0,266.9 237.7,263.1 234.8,258.1" fill="rgb(30,30,36)"/><polygon points="145.3,195.7 248.7,203.5 229.8,172.8 166.5,167.2" fill="rgb(60,83,120)"/><polygon points="241.3,239.1 246.3,237.5 249.2,235.4 244.1,236.9" fill="rgb(15,15,19)"/><polygon points="264.9,254.1 264.1,259.6 267.3,257.7 268.1,252.2" fill="rgb(14,14,17)"/><polygon points="237.2,242.4 241.3,239.1 244.1,236.9 240.0,240.3" fill="rgb(16,16,19)"/><polygon points="264.1,259.6 261.6,264.3 264.8,262.5 267.3,257.7" fill="rgb(15,15,19)"/><polygon points="234.6,247.1 237.2,242.4 240.0,240.3 237.4,245.0" fill="rgb(15,15,19)"/><polygon points="261.6,264.3 257.6,267.7 260.8,266.0 264.8,262.5" fill="rgb(16,16,19)"/><polygon points="233.8,252.5 234.6,247.1 237.4,245.0 236.5,250.5" fill="rgb(14,14,17)"/><polygon points="257.6,267.7 252.6,269.4 255.7,267.7 260.8,266.0" fill="rgb(15,15,19)"/><polygon points="237.6,256.2 240.5,261.3 244.9,265.2 250.1,267.4 255.7,267.7 260.8,266.0 264.8,262.5 267.3,257.7 268.1,252.2 266.9,246.7 264.0,241.7 259.8,237.9 254.6,235.7 249.2,235.4 244.1,236.9 240.0,240.3 237.4,245.0 236.5,250.5" fill="rgb(18,18,22)"/><polygon points="234.8,258.1 233.8,252.5 236.5,250.5 237.6,256.2" fill="rgb(12,12,14)"/><polygon points="147.1,195.9 145.3,195.8 166.2,167.9 168.0,168.0" fill="rgb(35,10,18)"/><polygon points="252.6,269.4 247.2,269.1 250.1,267.4 255.7,267.7" fill="rgb(14,14,17)"/><polygon points="283.7,217.9 284.2,228.5 287.1,226.6 286.5,215.9" fill="rgb(255,100,110)"/><polygon points="237.7,263.1 234.8,258.1 237.6,256.2 240.5,261.3" fill="rgb(9,9,11)"/><polygon points="247.2,269.1 242.0,266.9 244.9,265.2 250.1,267.4" fill="rgb(12,12,14)"/><polygon points="97.6,193.0 276.2,206.4 278.2,249.4 94.7,239.2" fill="rgb(166,43,54)"/><polygon points="242.0,266.9 237.7,263.1 240.5,261.3 244.9,265.2" fill="rgb(9,9,11)"/><polygon points="276.5,177.5 253.1,143.9 229.8,172.8 248.7,203.5" fill="rgb(14,21,38)"/><polygon points="134.6,232.8 139.0,236.7 140.2,234.4 135.7,230.4" fill="rgb(9,9,11)"/><polygon points="129.1,230.5 134.6,232.8 135.7,230.4 130.1,228.1" fill="rgb(12,12,14)"/><polygon points="139.0,236.7 141.8,241.9 143.0,239.7 140.2,234.4" fill="rgb(9,9,11)"/><polygon points="123.2,230.1 129.1,230.5 130.1,228.1 124.1,227.7" fill="rgb(14,14,17)"/><polygon points="118.6,246.5 120.1,242.7 123.6,240.5 127.7,240.7 131.0,243.3 132.1,247.2 130.7,251.0 127.2,253.2 123.0,253.0 119.7,250.4" fill="rgb(180,180,190)"/><polygon points="141.8,241.9 142.6,247.7 143.9,245.5 143.0,239.7" fill="rgb(12,12,14)"/><polygon points="108.0,245.8 109.3,240.1 112.6,235.2 117.4,231.8 123.2,230.1 129.1,230.5 134.6,232.8 139.0,236.7 141.8,241.9 142.6,247.7 141.4,253.4 138.2,258.3 133.5,261.9 127.7,263.6 121.7,263.4 116.0,261.1 111.5,257.0 108.7,251.7" fill="rgb(30,30,36)"/><polygon points="276.2,206.4 310.3,179.4 313.6,228.8 278.2,249.4" fill="rgb(107,18,28)"/><polygon points="117.4,231.8 123.2,230.1 124.1,227.7 118.3,229.4" fill="rgb(15,15,19)"/><polygon points="142.6,247.7 141.4,253.4 142.7,251.3 143.9,245.5" fill="rgb(14,14,17)"/><polygon points="112.6,235.2 117.4,231.8 118.3,229.4 113.4,232.9" fill="rgb(16,16,19)"/><polygon points="181.2,136.5 166.5,167.2 229.8,172.8 253.1,143.9" fill="rgb(93,19,31)"/><polygon points="141.4,253.4 138.2,258.3 139.4,256.3 142.7,251.3" fill="rgb(15,15,19)"/><polygon points="109.3,240.1 112.6,235.2 113.4,232.9 110.0,237.8" fill="rgb(15,15,19)"/><polygon points="138.2,258.3 133.5,261.9 134.6,260.0 139.4,256.3" fill="rgb(16,16,19)"/><polygon points="108.0,245.8 109.3,240.1 110.0,237.8 108.6,243.6" fill="rgb(14,14,17)"/><polygon points="133.5,261.9 127.7,263.6 128.8,261.8 134.6,260.0" fill="rgb(15,15,19)"/><polygon points="109.4,249.6 112.3,255.0 116.8,259.1 122.6,261.5 128.8,261.8 134.6,260.0 139.4,256.3 142.7,251.3 143.9,245.5 143.0,239.7 140.2,234.4 135.7,230.4 130.1,228.1 124.1,227.7 118.3,229.4 113.4,232.9 110.0,237.8 108.6,243.6" fill="rgb(18,18,22)"/><polygon points="108.7,251.7 108.0,245.8 108.6,243.6 109.4,249.6" fill="rgb(12,12,14)"/><polygon points="127.7,263.6 121.7,263.4 122.6,261.5 128.8,261.8" fill="rgb(14,14,17)"/><polygon points="111.5,257.0 108.7,251.7 109.4,249.6 112.3,255.0" fill="rgb(9,9,11)"/><polygon points="121.7,263.4 116.0,261.1 116.8,259.1 122.6,261.5" fill="rgb(12,12,14)"/><polygon points="116.0,261.1 111.5,257.0 112.3,255.0 116.8,259.1" fill="rgb(9,9,11)"/><polygon points="102.7,160.9 310.3,179.4 276.2,206.4 97.6,193.0" fill="rgb(190,85,93)"/><polygon points="157.7,167.1 145.3,195.7 166.5,167.2 181.2,136.5" fill="rgb(26,39,69)"/><polygon points="300.3,206.1 301.0,217.4 304.3,215.2 303.6,203.7" fill="rgb(255,100,110)"/><polygon points="97.1,204.9 97.5,202.5 96.8,214.0 96.4,216.3" fill="rgb(255,235,160)"/><polygon points="99.4,214.7 94.7,239.2 278.2,249.4 313.6,228.8" fill="rgb(23,6,9)"/><polygon points="276.5,177.5 274.6,177.3 251.9,142.8 253.8,143.0" fill="rgb(35,10,18)"/><polygon points="102.7,160.9 97.6,193.0 94.7,239.2 99.4,214.7" fill="rgb(153,39,50)"/><polygon points="157.7,167.1 181.2,136.5 253.1,143.9 276.5,177.5" fill="rgb(63,87,127)"/><polygon points="96.7,217.4 98.4,207.9 97.7,218.3 96.1,227.2" fill="rgb(18,18,22)"/><polygon points="292.5,215.0 297.5,219.5 293.2,222.3 288.3,218.0" fill="rgb(9,9,11)"/><polygon points="286.5,212.4 292.5,215.0 288.3,218.0 282.4,215.4" fill="rgb(12,12,14)"/><polygon points="297.5,219.5 300.9,225.3 296.6,228.0 293.2,222.3" fill="rgb(9,9,11)"/><polygon points="280.2,212.0 286.5,212.4 282.4,215.4 276.3,215.0" fill="rgb(14,14,17)"/><polygon points="300.9,225.3 302.4,231.7 298.0,234.4 296.6,228.0" fill="rgb(12,12,14)"/><polygon points="263.5,238.6 266.9,244.4 271.9,248.9 277.9,251.5 284.2,251.9 290.0,249.9 294.5,246.0 297.3,240.6 298.0,234.4 296.6,228.0 293.2,222.3 288.3,218.0 282.4,215.4 276.3,215.0 270.5,216.7 265.9,220.5 263.0,225.8 262.1,232.1" fill="rgb(18,18,22)"/><polygon points="274.4,213.7 280.2,212.0 276.3,215.0 270.5,216.7" fill="rgb(15,15,19)"/><polygon points="302.4,231.7 301.7,238.1 297.3,240.6 298.0,234.4" fill="rgb(14,14,17)"/><polygon points="269.7,217.6 274.4,213.7 270.5,216.7 265.9,220.5" fill="rgb(16,16,19)"/><polygon points="301.7,238.1 298.9,243.6 294.5,246.0 297.3,240.6" fill="rgb(15,15,19)"/><polygon points="159.9,167.2 157.7,167.0 181.6,135.6 183.7,135.8" fill="rgb(35,10,18)"/><polygon points="266.8,223.0 269.7,217.6 265.9,220.5 263.0,225.8" fill="rgb(15,15,19)"/><polygon points="298.9,243.6 294.3,247.6 290.0,249.9 294.5,246.0" fill="rgb(16,16,19)"/><polygon points="265.9,229.4 266.8,223.0 263.0,225.8 262.1,232.1" fill="rgb(14,14,17)"/><polygon points="294.3,247.6 288.4,249.5 284.2,251.9 290.0,249.9" fill="rgb(15,15,19)"/><polygon points="265.9,229.4 266.8,223.0 269.7,217.6 274.4,213.7 280.2,212.0 286.5,212.4 292.5,215.0 297.5,219.5 300.9,225.3 302.4,231.7 301.7,238.1 298.9,243.6 294.3,247.6 288.4,249.5 282.0,249.2 275.9,246.5 270.7,242.0 267.3,236.0" fill="rgb(30,30,36)"/><polygon points="267.3,236.0 265.9,229.4 262.1,232.1 263.5,238.6" fill="rgb(12,12,14)"/><polygon points="277.3,230.0 278.5,225.8 281.9,223.4 286.3,223.7 289.9,226.6 291.5,230.9 290.4,235.2 287.0,237.6 282.6,237.4 278.9,234.5" fill="rgb(180,180,190)"/><polygon points="288.4,249.5 282.0,249.2 277.9,251.5 284.2,251.9" fill="rgb(14,14,17)"/><polygon points="270.7,242.0 267.3,236.0 263.5,238.6 266.9,244.4" fill="rgb(9,9,11)"/><polygon points="282.0,249.2 275.9,246.5 271.9,248.9 277.9,251.5" fill="rgb(12,12,14)"/><polygon points="102.7,160.9 99.4,214.7 313.6,228.8 310.3,179.4" fill="rgb(166,43,54)"/><polygon points="275.9,246.5 270.7,242.0 266.9,244.4 271.9,248.9" fill="rgb(9,9,11)"/><polygon points="99.5,190.8 99.9,188.0 99.2,200.5 98.7,203.1" fill="rgb(255,235,160)"/><polygon points="147.9,204.7 153.2,209.4 151.5,212.7 146.3,208.0" fill="rgb(9,9,11)"/><polygon points="141.3,201.9 147.9,204.7 146.3,208.0 139.9,205.3" fill="rgb(12,12,14)"/><polygon points="153.2,209.4 156.6,215.6 154.8,218.7 151.5,212.7" fill="rgb(9,9,11)"/><polygon points="134.2,201.4 141.3,201.9 139.9,205.3 132.9,204.8" fill="rgb(14,14,17)"/><polygon points="156.6,215.6 157.6,222.4 155.9,225.4 154.8,218.7" fill="rgb(12,12,14)"/><polygon points="116.0,229.7 119.3,236.0 124.6,240.8 131.3,243.5 138.5,243.9 145.3,241.9 150.8,237.8 154.5,232.0 155.9,225.4 154.8,218.7 151.5,212.7 146.3,208.0 139.9,205.3 132.9,204.8 126.1,206.6 120.5,210.5 116.6,216.2 115.1,222.8" fill="rgb(18,18,22)"/><polygon points="127.3,203.2 134.2,201.4 132.9,204.8 126.1,206.6" fill="rgb(15,15,19)"/><polygon points="157.6,222.4 156.2,229.2 154.5,232.0 155.9,225.4" fill="rgb(14,14,17)"/><polygon points="121.6,207.2 127.3,203.2 126.1,206.6 120.5,210.5" fill="rgb(16,16,19)"/><polygon points="156.2,229.2 152.5,235.0 150.8,237.8 154.5,232.0" fill="rgb(15,15,19)"/><polygon points="117.6,213.0 121.6,207.2 120.5,210.5 116.6,216.2" fill="rgb(15,15,19)"/><polygon points="152.5,235.0 146.8,239.2 145.3,241.9 150.8,237.8" fill="rgb(16,16,19)"/><polygon points="116.0,219.8 117.6,213.0 116.6,216.2 115.1,222.8" fill="rgb(14,14,17)"/><polygon points="146.8,239.2 139.9,241.3 138.5,243.9 145.3,241.9" fill="rgb(15,15,19)"/><polygon points="116.0,219.8 117.6,213.0 121.6,207.2 127.3,203.2 134.2,201.4 141.3,201.9 147.9,204.7 153.2,209.4 156.6,215.6 157.6,222.4 156.2,229.2 152.5,235.0 146.8,239.2 139.9,241.3 132.6,240.9 125.8,238.0 120.4,233.1 117.0,226.8" fill="rgb(30,30,36)"/><polygon points="117.0,226.8 116.0,219.8 115.1,222.8 116.0,229.7" fill="rgb(12,12,14)"/><polygon points="128.9,220.5 130.7,216.0 134.8,213.5 139.8,213.8 143.7,216.9 145.1,221.5 143.4,226.0 139.3,228.6 134.3,228.3 130.3,225.2" fill="rgb(180,180,190)"/><polygon points="139.9,241.3 132.6,240.9 131.3,243.5 138.5,243.9" fill="rgb(14,14,17)"/><polygon points="120.4,233.1 117.0,226.8 116.0,229.7 119.3,236.0" fill="rgb(9,9,11)"/><polygon points="132.6,240.9 125.8,238.0 124.6,240.8 131.3,243.5" fill="rgb(12,12,14)"/><polygon points="125.8,238.0 120.4,233.1 119.3,236.0 124.6,240.8" fill="rgb(9,9,11)"/></svg>