<svg xmlns="http://www.w3.org/2000/svg" viewBox="0 0 400 400"><rect width="400" height="400" fill="#0f1020"/><rect x="0" y="250" width="400" height="150" fill="#0a0b17"/><ellipse cx="200" cy="262" rx="120" ry="16" fill="rgba(0,0,0,0.45)"/><polygon points="240.4,252.3 238.0,247.4 243.2,245.7 245.6,250.7" fill="rgb(10,10,13)"/><polygon points="238.0,247.4 234.6,243.4 239.7,241.7 243.2,245.7" fill="rgb(8,8,10)"/><polygon points="241.3,257.7 240.4,252.3 245.6,250.7 246.5,256.1" fill="rgb(13,13,16)"/><polygon points="234.6,243.4 230.3,241.0 235.4,239.2 239.7,241.7" fill="rgb(11,11,14)"/><polygon points="240.6,262.9 241.3,257.7 246.5,256.1 245.8,261.4" fill="rgb(16,16,19)"/><polygon points="267.5,222.7 263.1,224.3 263.5,234.5 267.9,233.0" fill="rgb(255,235,160)"/><polygon points="230.3,241.0 225.7,240.3 230.8,238.5 235.4,239.2" fill="rgb(14,14,17)"/><polygon points="238.5,267.3 240.6,262.9 245.8,261.4 243.7,265.9" fill="rgb(17,17,21)"/><polygon points="233.2,256.7 232.2,253.0 229.6,250.4 226.4,250.0 223.9,251.8 223.0,255.3 224.0,259.0 226.6,261.6 229.8,262.0 232.3,260.1" fill="rgb(180,180,190)"/><polygon points="241.3,257.7 240.4,252.3 238.0,247.4 234.6,243.4 230.3,241.0 225.7,240.3 221.5,241.5 217.9,244.4 215.7,248.8 214.9,254.2 215.8,259.7 218.2,264.8 221.8,268.8 226.2,271.3 230.8,271.8 235.1,270.4 238.5,267.3 240.6,262.9" fill="rgb(30,30,36)"/><polygon points="216.8,204.8 218.2,205.1 201.7,173.2 200.2,172.9" fill="rgb(35,10,18)"/><polygon points="225.7,240.3 221.5,241.5 226.5,239.7 230.8,238.5" fill="rgb(16,16,19)"/><polygon points="235.1,270.4 238.5,267.3 243.7,265.9 240.3,269.0" fill="rgb(17,17,21)"/><polygon points="221.5,241.5 217.9,244.4 222.9,242.7 226.5,239.7" fill="rgb(17,17,21)"/><polygon points="230.8,271.8 235.1,270.4 240.3,269.0 236.0,270.4" fill="rgb(16,16,19)"/><polygon points="245.8,261.4 243.7,265.9 240.3,269.0 236.0,270.4 231.3,269.8 226.9,267.4 223.2,263.3 220.8,258.1 219.9,252.5 220.6,247.1 222.9,242.7 226.5,239.7 230.8,238.5 235.4,239.2 239.7,241.7 243.2,245.7 245.6,250.7 246.5,256.1" fill="rgb(18,18,22)"/><polygon points="217.9,244.4 215.7,248.8 220.6,247.1 222.9,242.7" fill="rgb(17,17,21)"/><polygon points="226.2,271.3 230.8,271.8 236.0,270.4 231.3,269.8" fill="rgb(14,14,17)"/><polygon points="215.7,248.8 214.9,254.2 219.9,252.5 220.6,247.1" fill="rgb(16,16,19)"/><polygon points="221.8,268.8 226.2,271.3 231.3,269.8 226.9,267.4" fill="rgb(11,11,14)"/><polygon points="214.9,254.2 215.8,259.7 220.8,258.1 219.9,252.5" fill="rgb(13,13,16)"/><polygon points="218.2,264.8 221.8,268.8 226.9,267.4 223.2,263.3" fill="rgb(8,8,10)"/><polygon points="215.8,259.7 218.2,264.8 223.2,263.3 220.8,258.1" fill="rgb(10,10,13)"/><polygon points="252.3,212.5 304.6,191.0 307.6,237.7 253.6,254.0" fill="rgb(174,44,56)"/><polygon points="288.1,229.7 269.2,236.1 269.5,244.8 288.6,238.8" fill="rgb(18,18,22)"/><polygon points="218.3,205.1 202.6,172.6 144.6,159.6 123.1,186.9" fill="rgb(52,71,103)"/><polygon points="252.3,212.5 253.6,254.0 86.7,230.6 90.0,181.7" fill="rgb(143,37,47)"/><polygon points="293.6,213.0 288.6,214.9 289.2,225.7 294.2,223.9" fill="rgb(255,235,160)"/><polygon points="218.3,205.1 264.8,183.2 244.9,147.7 202.6,172.6" fill="rgb(17,25,44)"/><polygon points="123.0,186.9 124.8,187.3 145.4,160.7 143.7,160.3" fill="rgb(35,10,18)"/><polygon points="202.6,172.6 244.9,147.7 182.1,131.1 144.6,159.6" fill="rgb(93,19,31)"/><polygon points="252.3,212.5 90.0,181.7 127.2,150.2 304.6,191.0" fill="rgb(190,85,93)"/><polygon points="131.4,237.1 128.8,231.5 132.9,229.3 135.5,235.0" fill="rgb(10,10,13)"/><polygon points="128.8,231.5 124.6,227.0 128.6,224.8 132.9,229.3" fill="rgb(8,8,10)"/><polygon points="132.1,243.1 131.4,237.1 135.5,235.0 136.3,241.1" fill="rgb(13,13,16)"/><polygon points="124.6,227.0 119.3,224.2 123.3,221.9 128.6,224.8" fill="rgb(11,11,14)"/><polygon points="130.9,248.9 132.1,243.1 136.3,241.1 135.1,247.0" fill="rgb(16,16,19)"/><polygon points="119.3,224.2 113.5,223.3 117.4,221.0 123.3,221.9" fill="rgb(14,14,17)"/><polygon points="127.8,253.8 130.9,248.9 135.1,247.0 132.0,252.0" fill="rgb(17,17,21)"/><polygon points="299.6,233.5 296.9,227.8 290.2,230.0 292.8,235.7" fill="rgb(10,10,13)"/><polygon points="122.0,241.8 120.9,237.7 117.8,234.8 113.7,234.2 110.3,236.2 108.8,240.1 109.9,244.3 113.1,247.2 117.1,247.7 120.5,245.7" fill="rgb(180,180,190)"/><polygon points="296.9,227.8 292.9,223.2 286.3,225.5 290.2,230.0" fill="rgb(8,8,10)"/><polygon points="300.7,239.7 299.6,233.5 292.8,235.7 294.0,241.8" fill="rgb(13,13,16)"/><polygon points="132.1,243.1 131.4,237.1 128.8,231.5 124.6,227.0 119.3,224.2 113.5,223.3 107.9,224.5 103.1,227.8 99.8,232.6 98.4,238.6 99.1,244.9 101.8,250.7 106.2,255.2 111.7,258.0 117.6,258.7 123.2,257.2 127.8,253.8 130.9,248.9" fill="rgb(30,30,36)"/><polygon points="263.3,182.7 264.9,183.1 246.1,147.0 244.5,146.6" fill="rgb(35,10,18)"/><polygon points="292.9,223.2 288.3,220.3 281.7,222.6 286.3,225.5" fill="rgb(11,11,14)"/><polygon points="300.3,245.7 300.7,239.7 294.0,241.8 293.5,247.6" fill="rgb(16,16,19)"/><polygon points="113.5,223.3 107.9,224.5 111.7,222.2 117.4,221.0" fill="rgb(16,16,19)"/><polygon points="123.2,257.2 127.8,253.8 132.0,252.0 127.3,255.4" fill="rgb(17,17,21)"/><polygon points="288.3,220.3 283.4,219.4 276.8,221.8 281.7,222.6" fill="rgb(14,14,17)"/><polygon points="298.2,250.7 300.3,245.7 293.5,247.6 291.3,252.6" fill="rgb(17,17,21)"/><polygon points="253.6,254.0 307.6,237.7 124.6,206.5 86.7,230.6" fill="rgb(23,6,9)"/><polygon points="293.5,247.6 291.3,252.6 287.8,256.0 283.3,257.5 278.4,256.8 273.6,254.0 269.5,249.4 266.7,243.5 265.6,237.2 266.3,231.2 268.6,226.2 272.2,223.0 276.8,221.8 281.7,222.6 286.3,225.5 290.2,230.0 292.8,235.7 294.0,241.8" fill="rgb(18,18,22)"/><polygon points="107.9,224.5 103.1,227.8 106.9,225.5 111.7,222.2" fill="rgb(17,17,21)"/><polygon points="117.6,258.7 123.2,257.2 127.3,255.4 121.7,256.9" fill="rgb(16,16,19)"/><polygon points="283.4,219.4 278.8,220.6 272.2,223.0 276.8,221.8" fill="rgb(16,16,19)"/><polygon points="294.6,254.2 298.2,250.7 291.3,252.6 287.8,256.0" fill="rgb(17,17,21)"/><polygon points="135.1,247.0 132.0,252.0 127.3,255.4 121.7,256.9 115.7,256.2 110.1,253.4 105.6,248.7 102.9,242.8 102.2,236.4 103.6,230.4 106.9,225.5 111.7,222.2 117.4,221.0 123.3,221.9 128.6,224.8 132.9,229.3 135.5,235.0 136.3,241.1" fill="rgb(18,18,22)"/><polygon points="103.1,227.8 99.8,232.6 103.6,230.4 106.9,225.5" fill="rgb(17,17,21)"/><polygon points="111.7,258.0 117.6,258.7 121.7,256.9 115.7,256.2" fill="rgb(14,14,17)"/><polygon points="278.8,220.6 275.1,223.9 268.6,226.2 272.2,223.0" fill="rgb(17,17,21)"/><polygon points="290.1,255.7 294.6,254.2 287.8,256.0 283.3,257.5" fill="rgb(16,16,19)"/><polygon points="99.8,232.6 98.4,238.6 102.2,236.4 103.6,230.4" fill="rgb(16,16,19)"/><polygon points="106.2,255.2 111.7,258.0 115.7,256.2 110.1,253.4" fill="rgb(11,11,14)"/><polygon points="123.1,186.9 144.6,159.6 182.1,131.1 161.2,159.5" fill="rgb(28,42,75)"/><polygon points="300.7,239.7 299.6,233.5 296.9,227.8 292.9,223.2 288.3,220.3 283.4,219.4 278.8,220.6 275.1,223.9 272.8,228.9 272.2,235.0 273.3,241.4 276.1,247.3 280.3,252.1 285.1,255.0 290.1,255.7 294.6,254.2 298.2,250.7 300.3,245.7" fill="rgb(30,30,36)"/><polygon points="98.4,238.6 99.1,244.9 102.9,242.8 102.2,236.4" fill="rgb(13,13,16)"/><polygon points="101.8,250.7 106.2,255.2 110.1,253.4 105.6,248.7" fill="rgb(8,8,10)"/><polygon points="292.4,238.2 291.2,234.0 288.3,231.0 284.9,230.4 282.2,232.4 281.3,236.4 282.6,240.7 285.5,243.7 289.0,244.3 291.6,242.2" fill="rgb(180,180,190)"/><polygon points="99.1,244.9 101.8,250.7 105.6,248.7 102.9,242.8" fill="rgb(10,10,13)"/><polygon points="275.1,223.9 272.8,228.9 266.3,231.2 268.6,226.2" fill="rgb(17,17,21)"/><polygon points="285.1,255.0 290.1,255.7 283.3,257.5 278.4,256.8" fill="rgb(14,14,17)"/><polygon points="272.8,228.9 272.2,235.0 265.6,237.2 266.3,231.2" fill="rgb(16,16,19)"/><polygon points="280.3,252.1 285.1,255.0 278.4,256.8 273.6,254.0" fill="rgb(11,11,14)"/><polygon points="272.2,235.0 273.3,241.4 266.7,243.5 265.6,237.2" fill="rgb(13,13,16)"/><polygon points="276.1,247.3 280.3,252.1 273.6,254.0 269.5,249.4" fill="rgb(8,8,10)"/><polygon points="273.3,241.4 276.1,247.3 269.5,249.4 266.7,243.5" fill="rgb(10,10,13)"/><polygon points="264.8,183.2 161.2,159.5 182.1,131.1 244.9,147.7" fill="rgb(55,75,110)"/><polygon points="98.5,192.2 97.8,204.4 94.7,206.6 95.4,194.5" fill="rgb(255,100,110)"/><polygon points="304.6,191.0 127.2,150.2 124.6,206.5 307.6,237.7" fill="rgb(143,37,47)"/><polygon points="161.3,159.5 163.3,159.9 185.1,130.8 183.2,130.3" fill="rgb(35,10,18)"/><polygon points="127.2,150.2 90.0,181.7 86.7,230.6 124.6,206.5" fill="rgb(121,20,32)"/><polygon points="117.0,177.9 116.3,191.0 112.7,193.6 113.4,180.7" fill="rgb(255,100,110)"/><polygon points="179.7,212.7 176.6,206.1 171.1,209.0 174.1,215.5" fill="rgb(10,10,13)"/><polygon points="176.6,206.1 171.8,200.7 166.3,203.8 171.1,209.0" fill="rgb(8,8,10)"/><polygon points="180.7,219.7 179.7,212.7 174.1,215.5 175.1,222.5" fill="rgb(13,13,16)"/><polygon points="171.8,200.7 165.8,197.2 160.4,200.4 166.3,203.8" fill="rgb(11,11,14)"/><polygon points="179.5,226.5 180.7,219.7 175.1,222.5 173.9,229.1" fill="rgb(16,16,19)"/><polygon points="165.8,197.2 159.2,196.0 153.9,199.2 160.4,200.4" fill="rgb(14,14,17)"/><polygon points="176.2,232.2 179.5,226.5 173.9,229.1 170.6,234.7" fill="rgb(17,17,21)"/><polygon points="173.9,229.1 170.6,234.7 165.6,238.5 159.4,240.1 152.8,239.1 146.6,235.8 141.5,230.4 138.3,223.6 137.4,216.3 138.9,209.5 142.4,204.0 147.7,200.4 153.9,199.2 160.4,200.4 166.3,203.8 171.1,209.0 174.1,215.5 175.1,222.5" fill="rgb(18,18,22)"/><polygon points="159.2,196.0 152.9,197.2 147.7,200.4 153.9,199.2" fill="rgb(16,16,19)"/><polygon points="171.2,236.0 176.2,232.2 170.6,234.7 165.6,238.5" fill="rgb(17,17,21)"/><polygon points="152.9,197.2 147.6,200.8 142.4,204.0 147.7,200.4" fill="rgb(17,17,21)"/><polygon points="164.9,237.6 171.2,236.0 165.6,238.5 159.4,240.1" fill="rgb(16,16,19)"/><polygon points="180.7,219.7 179.7,212.7 176.6,206.1 171.8,200.7 165.8,197.2 159.2,196.0 152.9,197.2 147.6,200.8 144.0,206.5 142.6,213.4 143.5,220.8 146.8,227.7 151.9,233.2 158.2,236.6 164.9,237.6 171.2,236.0 176.2,232.2 179.5,226.5" fill="rgb(30,30,36)"/><polygon points="169.6,217.8 168.3,212.9 164.7,209.4 160.1,208.6 156.3,210.8 154.7,215.3 156.1,220.3 159.7,223.8 164.3,224.5 168.1,222.2" fill="rgb(180,180,190)"/><polygon points="147.6,200.8 144.0,206.5 138.9,209.5 142.4,204.0" fill="rgb(17,17,21)"/><polygon points="158.2,236.6 164.9,237.6 159.4,240.1 152.8,239.1" fill="rgb(14,14,17)"/><polygon points="144.0,206.5 142.6,213.4 137.4,216.3 138.9,209.5" fill="rgb(16,16,19)"/><polygon points="151.9,233.2 158.2,236.6 152.8,239.1 146.6,235.8" fill="rgb(11,11,14)"/><polygon points="142.6,213.4 143.5,220.8 138.3,223.6 137.4,216.3" fill="rgb(13,13,16)"/><polygon points="146.8,227.7 151.9,233.2 146.6,235.8 141.5,230.4" fill="rgb(8,8,10)"/><polygon points="143.5,220.8 146.8,227.7 141.5,230.4 138.3,223.6" fill="rgb(10,10,13)"/></svg>