<svg xmlns="http://www.w3.org/2000/svg" viewBox="0 0 400 400"><rect width="400" height="400" fill="#0f1020"/><rect x="0" y="250" width="400" height="150" fill="#0a0b17"/><ellipse cx="200" cy="262" rx="120" ry="16" fill="rgba(0,0,0,0.45)"/><polygon points="174.5,229.9 168.5,229.0 168.4,238.9 174.3,239.7" fill="rgb(255,235,160)"/><polygon points="198.0,259.8 198.5,254.5 191.1,253.5 190.6,258.9" fill="rgb(11,11,13)"/><polygon points="198.5,254.5 199.9,249.4 192.5,248.4 191.1,253.5" fill="rgb(8,8,10)"/><polygon points="198.5,264.9 198.0,259.8 190.6,258.9 191.1,264.0" fill="rgb(13,13,16)"/><polygon points="199.9,249.4 202.1,245.2 194.7,244.2 192.5,248.4" fill="rgb(10,10,12)"/><polygon points="119.6,205.0 188.6,216.8 188.3,257.3 117.6,248.3" fill="rgb(143,37,47)"/><polygon points="199.9,269.0 198.5,264.9 191.1,264.0 192.4,268.2" fill="rgb(15,15,18)"/><polygon points="202.1,245.2 204.7,242.4 197.3,241.3 194.7,244.2" fill="rgb(12,12,15)"/><polygon points="166.8,242.0 141.9,238.5 141.6,247.1 166.6,250.3" fill="rgb(18,18,22)"/><polygon points="202.1,271.8 199.9,269.0 192.4,268.2 194.6,271.0" fill="rgb(15,15,19)"/><polygon points="204.7,242.4 207.6,241.3 200.2,240.2 197.3,241.3" fill="rgb(14,14,17)"/><polygon points="203.2,258.2 203.8,254.4 205.4,251.7 207.5,251.0 209.1,252.6 209.8,256.0 209.2,259.8 207.5,262.5 205.5,263.2 203.8,261.5" fill="rgb(180,180,190)"/><polygon points="198.0,259.8 198.5,254.5 199.9,249.4 202.1,245.2 204.7,242.4 207.6,241.3 210.4,242.1 212.7,244.7 214.3,248.9 214.9,254.2 214.4,259.8 212.9,265.1 210.6,269.3 207.8,272.1 204.8,272.9 202.1,271.8 199.9,269.0 198.5,264.9" fill="rgb(30,30,36)"/><polygon points="140.7,224.7 134.3,223.7 133.9,233.9 140.4,234.8" fill="rgb(255,235,160)"/><polygon points="204.8,272.9 202.1,271.8 194.6,271.0 197.3,272.1" fill="rgb(15,15,18)"/><polygon points="207.6,241.3 210.4,242.1 202.9,241.0 200.2,240.2" fill="rgb(15,15,18)"/><polygon points="191.1,264.0 192.4,268.2 194.6,271.0 197.3,272.1 200.2,271.2 203.0,268.5 205.3,264.2 206.8,258.8 207.3,253.1 206.7,247.9 205.2,243.6 202.9,241.0 200.2,240.2 197.3,241.3 194.7,244.2 192.5,248.4 191.1,253.5 190.6,258.9" fill="rgb(18,18,22)"/><polygon points="209.6,205.3 208.7,205.8 219.0,171.7 220.0,171.1" fill="rgb(35,10,18)"/><polygon points="207.8,272.1 204.8,272.9 197.3,272.1 200.2,271.2" fill="rgb(14,14,17)"/><polygon points="210.4,242.1 212.7,244.7 205.2,243.6 202.9,241.0" fill="rgb(15,15,19)"/><polygon points="210.6,269.3 207.8,272.1 200.2,271.2 203.0,268.5" fill="rgb(12,12,15)"/><polygon points="212.7,244.7 214.3,248.9 206.7,247.9 205.2,243.6" fill="rgb(15,15,18)"/><polygon points="212.9,265.1 210.6,269.3 203.0,268.5 205.3,264.2" fill="rgb(10,10,12)"/><polygon points="214.3,248.9 214.9,254.2 207.3,253.1 206.7,247.9" fill="rgb(13,13,16)"/><polygon points="214.4,259.8 212.9,265.1 205.3,264.2 206.8,258.8" fill="rgb(8,8,10)"/><polygon points="214.9,254.2 214.4,259.8 206.8,258.8 207.3,253.1" fill="rgb(11,11,13)"/><polygon points="141.1,193.1 208.6,205.8 217.5,171.3 153.1,156.6" fill="rgb(13,19,35)"/><polygon points="118.1,249.8 118.8,244.0 127.4,245.1 126.8,250.9" fill="rgb(11,11,13)"/><polygon points="118.8,244.0 120.2,238.5 128.8,239.7 127.4,245.1" fill="rgb(8,8,10)"/><polygon points="118.3,255.3 118.1,249.8 126.8,250.9 126.9,256.3" fill="rgb(13,13,16)"/><polygon points="120.2,238.5 122.2,233.9 130.8,235.1 128.8,239.7" fill="rgb(10,10,12)"/><polygon points="119.2,259.8 118.3,255.3 126.9,256.3 127.9,260.8" fill="rgb(15,15,18)"/><polygon points="122.2,233.9 124.5,230.8 133.1,232.0 130.8,235.1" fill="rgb(12,12,15)"/><polygon points="120.8,262.8 119.2,259.8 127.9,260.8 129.6,263.8" fill="rgb(15,15,19)"/><polygon points="124.5,230.8 126.9,229.4 135.6,230.7 133.1,232.0" fill="rgb(14,14,17)"/><polygon points="126.9,256.3 127.9,260.8 129.6,263.8 131.9,264.8 134.4,263.8 136.8,260.8 139.0,256.1 140.5,250.4 141.1,244.3 140.9,238.7 139.7,234.2 137.9,231.5 135.6,230.7 133.1,232.0 130.8,235.1 128.8,239.7 127.4,245.1 126.8,250.9" fill="rgb(18,18,22)"/><polygon points="208.6,205.8 273.9,174.2 256.9,148.9 217.5,171.3" fill="rgb(63,86,126)"/><polygon points="123.0,263.8 120.8,262.8 129.6,263.8 131.9,264.8" fill="rgb(15,15,18)"/><polygon points="126.9,229.4 129.1,230.2 137.9,231.5 135.6,230.7" fill="rgb(15,15,18)"/><polygon points="188.6,216.8 300.6,163.2 303.9,216.5 188.3,257.3" fill="rgb(174,44,56)"/><polygon points="141.8,192.5 141.0,193.1 151.3,156.2 152.1,155.5" fill="rgb(35,10,18)"/><polygon points="118.1,249.8 118.8,244.0 120.2,238.5 122.2,233.9 124.5,230.8 126.9,229.4 129.1,230.2 130.9,232.9 131.9,237.4 132.1,243.1 131.5,249.2 130.0,255.1 127.9,259.8 125.4,262.8 123.0,263.8 120.8,262.8 119.2,259.8 118.3,255.3" fill="rgb(30,30,36)"/><polygon points="122.0,247.8 122.7,243.8 124.1,240.7 125.8,239.9 127.1,241.6 127.4,245.2 126.7,249.4 125.3,252.4 123.6,253.2 122.3,251.4" fill="rgb(180,180,190)"/><polygon points="125.4,262.8 123.0,263.8 131.9,264.8 134.4,263.8" fill="rgb(14,14,17)"/><polygon points="129.1,230.2 130.9,232.9 139.7,234.2 137.9,231.5" fill="rgb(15,15,19)"/><polygon points="127.9,259.8 125.4,262.8 134.4,263.8 136.8,260.8" fill="rgb(12,12,15)"/><polygon points="130.9,232.9 131.9,237.4 140.9,238.7 139.7,234.2" fill="rgb(15,15,18)"/><polygon points="153.1,156.6 217.5,171.3 256.9,148.9 188.0,130.5" fill="rgb(93,19,31)"/><polygon points="130.0,255.1 127.9,259.8 136.8,260.8 139.0,256.1" fill="rgb(10,10,12)"/><polygon points="131.9,237.4 132.1,243.1 141.1,244.3 140.9,238.7" fill="rgb(13,13,16)"/><polygon points="131.5,249.2 130.0,255.1 139.0,256.1 140.5,250.4" fill="rgb(8,8,10)"/><polygon points="132.1,243.1 131.5,249.2 140.5,250.4 141.1,244.3" fill="rgb(11,11,13)"/><polygon points="119.6,205.0 217.0,141.2 300.6,163.2 188.6,216.8" fill="rgb(190,85,93)"/><polygon points="117.6,248.3 188.3,257.3 303.9,216.5 217.7,199.5" fill="rgb(23,6,9)"/><polygon points="274.1,174.3 272.7,174.9 257.4,150.0 258.6,149.4" fill="rgb(35,10,18)"/><polygon points="141.1,193.1 153.1,156.6 188.0,130.5 198.5,156.0" fill="rgb(66,91,132)"/><polygon points="119.6,205.0 117.6,248.3 217.7,199.5 217.0,141.2" fill="rgb(174,44,56)"/><polygon points="272.2,235.0 272.6,228.5 264.3,227.0 263.9,233.6" fill="rgb(11,11,13)"/><polygon points="272.6,228.5 274.5,222.2 266.2,220.7 264.3,227.0" fill="rgb(8,8,10)"/><polygon points="273.2,241.0 272.2,235.0 263.9,233.6 264.8,239.7" fill="rgb(13,13,16)"/><polygon points="274.5,222.2 277.5,217.0 269.2,215.4 266.2,220.7" fill="rgb(10,10,12)"/><polygon points="275.5,246.0 273.2,241.0 264.8,239.7 267.1,244.7" fill="rgb(15,15,18)"/><polygon points="277.5,217.0 281.5,213.3 273.1,211.7 269.2,215.4" fill="rgb(12,12,15)"/><polygon points="198.5,156.0 188.0,130.5 256.9,148.9 273.9,174.2" fill="rgb(25,37,66)"/><polygon points="279.0,249.2 275.5,246.0 267.1,244.7 270.6,247.9" fill="rgb(15,15,19)"/><polygon points="281.5,213.3 285.8,211.6 277.5,210.0 273.1,211.7" fill="rgb(14,14,17)"/><polygon points="279.9,232.5 280.6,227.9 282.9,224.5 286.0,223.4 288.6,225.2 289.8,229.2 289.1,233.9 286.7,237.4 283.6,238.3 281.0,236.5" fill="rgb(180,180,190)"/><polygon points="272.2,235.0 272.6,228.5 274.5,222.2 277.5,217.0 281.5,213.3 285.8,211.6 290.1,212.3 293.9,215.2 296.5,220.1 297.7,226.4 297.3,233.3 295.2,239.9 291.9,245.4 287.7,248.9 283.3,250.2 279.0,249.2 275.5,246.0 273.2,241.0" fill="rgb(30,30,36)"/><polygon points="283.3,250.2 279.0,249.2 270.6,247.9 274.8,248.9" fill="rgb(15,15,18)"/><polygon points="285.8,211.6 290.1,212.3 281.7,210.6 277.5,210.0" fill="rgb(15,15,18)"/><polygon points="264.8,239.7 267.1,244.7 270.6,247.9 274.8,248.9 279.2,247.6 283.4,244.0 286.7,238.5 288.7,231.8 289.1,224.9 288.0,218.5 285.4,213.5 281.7,210.6 277.5,210.0 273.1,211.7 269.2,215.4 266.2,220.7 264.3,227.0 263.9,233.6" fill="rgb(18,18,22)"/><polygon points="287.7,248.9 283.3,250.2 274.8,248.9 279.2,247.6" fill="rgb(14,14,17)"/><polygon points="290.1,212.3 293.9,215.2 285.4,213.5 281.7,210.6" fill="rgb(15,15,19)"/><polygon points="291.9,245.4 287.7,248.9 279.2,247.6 283.4,244.0" fill="rgb(12,12,15)"/><polygon points="293.9,215.2 296.5,220.1 288.0,218.5 285.4,213.5" fill="rgb(15,15,18)"/><polygon points="198.3,156.0 197.1,156.7 185.0,130.8 186.0,130.0" fill="rgb(35,10,18)"/><polygon points="295.2,239.9 291.9,245.4 283.4,244.0 286.7,238.5" fill="rgb(10,10,12)"/><polygon points="296.5,220.1 297.7,226.4 289.1,224.9 288.0,218.5" fill="rgb(13,13,16)"/><polygon points="297.3,233.3 295.2,239.9 286.7,238.5 288.7,231.8" fill="rgb(8,8,10)"/><polygon points="297.7,226.4 297.3,233.3 288.7,231.8 289.1,224.9" fill="rgb(11,11,13)"/><polygon points="285.6,179.0 286.3,192.0 279.1,190.4 278.5,177.3" fill="rgb(255,100,110)"/><polygon points="180.7,219.7 181.4,212.5 191.5,214.3 190.8,221.4" fill="rgb(11,11,13)"/><polygon points="181.4,212.5 183.3,205.6 193.3,207.4 191.5,214.3" fill="rgb(8,8,10)"/><polygon points="181.3,226.4 180.7,219.7 190.8,221.4 191.4,228.0" fill="rgb(13,13,16)"/><polygon points="183.3,205.6 186.1,199.6 196.2,201.6 193.3,207.4" fill="rgb(10,10,12)"/><polygon points="183.0,231.7 181.3,226.4 191.4,228.0 193.2,233.3" fill="rgb(15,15,18)"/><polygon points="186.1,199.6 189.6,195.4 199.8,197.3 196.2,201.6" fill="rgb(12,12,15)"/><polygon points="185.8,235.1 183.0,231.7 193.2,233.3 196.1,236.7" fill="rgb(15,15,19)"/><polygon points="300.6,163.2 217.0,141.2 217.7,199.5 303.9,216.5" fill="rgb(100,17,27)"/><polygon points="189.6,195.4 193.4,193.3 203.6,195.3 199.8,197.3" fill="rgb(14,14,17)"/><polygon points="191.4,228.0 193.2,233.3 196.1,236.7 199.7,237.7 203.7,236.1 207.5,232.1 210.7,226.0 212.7,218.6 213.4,211.0 212.6,204.1 210.5,198.8 207.4,195.8 203.6,195.3 199.8,197.3 196.2,201.6 193.3,207.4 191.5,214.3 190.8,221.4" fill="rgb(18,18,22)"/><polygon points="189.4,236.1 185.8,235.1 196.1,236.7 199.7,237.7" fill="rgb(15,15,18)"/><polygon points="193.4,193.3 197.1,193.8 207.4,195.8 203.6,195.3" fill="rgb(15,15,18)"/><polygon points="180.7,219.7 181.4,212.5 183.3,205.6 186.1,199.6 189.6,195.4 193.4,193.3 197.1,193.8 200.1,196.8 202.2,202.1 202.9,209.1 202.2,216.8 200.1,224.2 197.0,230.4 193.3,234.5 189.4,236.1 185.8,235.1 183.0,231.7 181.3,226.4" fill="rgb(30,30,36)"/><polygon points="186.9,216.6 187.7,211.5 189.8,207.5 192.5,206.2 194.6,208.1 195.5,212.4 194.6,217.7 192.4,221.7 189.7,222.9 187.6,220.9" fill="rgb(180,180,190)"/><polygon points="193.3,234.5 189.4,236.1 199.7,237.7 203.7,236.1" fill="rgb(14,14,17)"/><polygon points="197.1,193.8 200.1,196.8 210.5,198.8 207.4,195.8" fill="rgb(15,15,19)"/><polygon points="244.7,169.2 245.1,182.9 237.1,181.1 236.8,167.4" fill="rgb(255,100,110)"/><polygon points="197.0,230.4 193.3,234.5 203.7,236.1 207.5,232.1" fill="rgb(12,12,15)"/><polygon points="200.1,196.8 202.2,202.1 212.6,204.1 210.5,198.8" fill="rgb(15,15,18)"/><polygon points="200.1,224.2 197.0,230.4 207.5,232.1 210.7,226.0" fill="rgb(10,10,12)"/><polygon points="202.2,202.1 202.9,209.1 213.4,211.0 212.6,204.1" fill="rgb(13,13,16)"/><polygon points="202.2,216.8 200.1,224.2 210.7,226.0 212.7,218.6" fill="rgb(8,8,10)"/><polygon points="202.9,209.1 202.2,216.8 212.7,218.6 213.4,211.0" fill="rgb(11,11,13)"/></svg>