<svg xmlns="http://www.w3.org/2000/svg" viewBox="0 0 400 400"><rect width="400" height="400" fill="#0f1020"/><rect x="0" y="250" width="400" height="150" fill="#0a0b17"/><ellipse cx="200" cy="262" rx="120" ry="16" fill="rgba(0,0,0,0.45)"/><polygon points="165.9,252.9 168.1,248.0 162.5,246.4 160.3,251.4" fill="rgb(10,10,12)"/><polygon points="165.1,258.3 165.9,252.9 160.3,251.4 159.4,256.8" fill="rgb(8,8,10)"/><polygon points="168.1,248.0 171.4,244.0 165.8,242.4 162.5,246.4" fill="rgb(12,12,14)"/><polygon points="142.7,225.6 138.0,224.0 137.6,234.3 142.4,235.7" fill="rgb(255,235,160)"/><polygon points="165.7,263.5 165.1,258.3 159.4,256.8 160.0,262.1" fill="rgb(10,10,12)"/><polygon points="171.4,244.0 175.4,241.5 169.9,239.8 165.8,242.4" fill="rgb(13,13,16)"/><polygon points="167.7,267.8 165.7,263.5 160.0,262.1 162.1,266.5" fill="rgb(12,12,15)"/><polygon points="175.4,241.5 179.7,240.7 174.2,239.0 169.9,239.8" fill="rgb(14,14,17)"/><polygon points="172.7,257.2 173.6,253.5 176.1,250.9 179.1,250.4 181.5,252.2 182.4,255.6 181.4,259.4 178.9,262.0 175.9,262.4 173.5,260.6" fill="rgb(180,180,190)"/><polygon points="165.1,258.3 165.9,252.9 168.1,248.0 171.4,244.0 175.4,241.5 179.7,240.7 183.8,241.8 187.1,244.7 189.3,249.1 190.0,254.4 189.2,259.9 187.0,265.1 183.5,269.1 179.3,271.6 175.0,272.2 170.9,270.9 167.7,267.8 165.7,263.5" fill="rgb(30,30,36)"/><polygon points="170.9,270.9 167.7,267.8 162.1,266.5 165.3,269.5" fill="rgb(13,13,16)"/><polygon points="187.6,205.2 186.2,205.5 201.9,173.2 203.3,172.8" fill="rgb(35,10,18)"/><polygon points="179.7,240.7 183.8,241.8 178.3,240.1 174.2,239.0" fill="rgb(14,14,17)"/><polygon points="175.0,272.2 170.9,270.9 165.3,269.5 169.3,270.9" fill="rgb(14,14,17)"/><polygon points="183.8,241.8 187.1,244.7 181.6,243.0 178.3,240.1" fill="rgb(13,13,16)"/><polygon points="160.0,262.1 162.1,266.5 165.3,269.5 169.3,270.9 173.7,270.3 177.9,267.7 181.4,263.6 183.7,258.4 184.5,252.8 183.8,247.4 181.6,243.0 178.3,240.1 174.2,239.0 169.9,239.8 165.8,242.4 162.5,246.4 160.3,251.4 159.4,256.8" fill="rgb(18,18,22)"/><polygon points="179.3,271.6 175.0,272.2 169.3,270.9 173.7,270.3" fill="rgb(14,14,17)"/><polygon points="187.1,244.7 189.3,249.1 183.8,247.4 181.6,243.0" fill="rgb(12,12,15)"/><polygon points="98.3,193.6 154.2,213.6 153.1,254.8 95.5,239.7" fill="rgb(107,27,35)"/><polygon points="183.5,269.1 179.3,271.6 173.7,270.3 177.9,267.7" fill="rgb(13,13,16)"/><polygon points="189.3,249.1 190.0,254.4 184.5,252.8 183.8,247.4" fill="rgb(10,10,12)"/><polygon points="187.0,265.1 183.5,269.1 177.9,267.7 181.4,263.6" fill="rgb(12,12,14)"/><polygon points="190.0,254.4 189.2,259.9 183.7,258.4 184.5,252.8" fill="rgb(8,8,10)"/><polygon points="189.2,259.9 187.0,265.1 181.4,263.6 183.7,258.4" fill="rgb(10,10,12)"/><polygon points="136.3,237.3 116.1,231.5 115.6,240.5 136.0,246.0" fill="rgb(18,18,22)"/><polygon points="186.1,205.4 277.7,184.8 256.5,157.9 200.8,172.7" fill="rgb(68,93,136)"/><polygon points="115.5,216.8 110.1,215.1 109.6,225.9 114.9,227.5" fill="rgb(255,235,160)"/><polygon points="154.2,213.6 310.3,178.7 313.6,228.3 153.1,254.8" fill="rgb(187,48,61)"/><polygon points="135.2,184.9 186.1,205.4 200.8,172.7 154.0,149.2" fill="rgb(16,25,44)"/><polygon points="277.8,184.9 276.0,185.3 255.9,159.0 257.5,158.6" fill="rgb(35,10,18)"/><polygon points="154.0,149.2 200.8,172.7 256.5,157.9 213.0,130.6" fill="rgb(93,19,31)"/><polygon points="98.3,193.6 264.9,148.0 310.3,178.7 154.2,213.6" fill="rgb(190,85,93)"/><polygon points="102.3,235.5 104.8,229.8 111.9,231.8 109.5,237.5" fill="rgb(10,10,12)"/><polygon points="101.2,241.6 102.3,235.5 109.5,237.5 108.4,243.5" fill="rgb(8,8,10)"/><polygon points="104.8,229.8 108.4,225.2 115.5,227.3 111.9,231.8" fill="rgb(12,12,14)"/><polygon points="101.6,247.5 101.2,241.6 108.4,243.5 108.9,249.3" fill="rgb(10,10,12)"/><polygon points="108.4,225.2 112.7,222.2 119.8,224.4 115.5,227.3" fill="rgb(13,13,16)"/><polygon points="136.6,184.4 135.1,184.9 152.7,148.5 154.2,148.0" fill="rgb(35,10,18)"/><polygon points="103.5,252.4 101.6,247.5 108.9,249.3 110.8,254.1" fill="rgb(12,12,15)"/><polygon points="112.7,222.2 117.2,221.2 124.3,223.4 119.8,224.4" fill="rgb(14,14,17)"/><polygon points="270.3,235.7 272.9,230.0 268.0,227.9 265.4,233.7" fill="rgb(10,10,12)"/><polygon points="269.6,241.8 270.3,235.7 265.4,233.7 264.7,239.9" fill="rgb(8,8,10)"/><polygon points="108.9,249.3 110.8,254.1 114.0,257.5 118.1,258.9 122.7,258.1 127.2,255.2 130.9,250.6 133.5,244.7 134.6,238.4 134.0,232.5 131.9,227.7 128.5,224.5 124.3,223.4 119.8,224.4 115.5,227.3 111.9,231.8 109.5,237.5 108.4,243.5" fill="rgb(18,18,22)"/><polygon points="272.9,230.0 276.9,225.4 272.1,223.2 268.0,227.9" fill="rgb(12,12,14)"/><polygon points="106.7,255.8 103.5,252.4 110.8,254.1 114.0,257.5" fill="rgb(13,13,16)"/><polygon points="270.8,247.7 269.6,241.8 264.7,239.9 265.9,245.8" fill="rgb(10,10,12)"/><polygon points="276.9,225.4 282.1,222.4 277.4,220.2 272.1,223.2" fill="rgb(13,13,16)"/><polygon points="117.2,221.2 121.4,222.3 128.5,224.5 124.3,223.4" fill="rgb(14,14,17)"/><polygon points="273.8,252.6 270.8,247.7 265.9,245.8 268.9,250.8" fill="rgb(12,12,15)"/><polygon points="110.9,257.2 106.7,255.8 114.0,257.5 118.1,258.9" fill="rgb(14,14,17)"/><polygon points="282.1,222.4 287.8,221.4 283.1,219.2 277.4,220.2" fill="rgb(14,14,17)"/><polygon points="95.5,239.7 153.1,254.8 313.6,228.3 267.1,204.8" fill="rgb(23,6,9)"/><polygon points="121.4,222.3 124.8,225.5 131.9,227.7 128.5,224.5" fill="rgb(13,13,16)"/><polygon points="279.6,240.3 280.6,236.1 283.6,233.1 287.6,232.5 290.9,234.4 292.4,238.3 291.4,242.6 288.3,245.6 284.3,246.2 281.0,244.2" fill="rgb(180,180,190)"/><polygon points="269.6,241.8 270.3,235.7 272.9,230.0 276.9,225.4 282.1,222.4 287.8,221.4 293.3,222.6 298.0,225.7 301.2,230.6 302.6,236.6 302.0,243.0 299.3,248.9 295.0,253.6 289.6,256.6 283.8,257.4 278.3,256.0 273.8,252.6 270.8,247.7" fill="rgb(30,30,36)"/><polygon points="101.2,241.6 102.3,235.5 104.8,229.8 108.4,225.2 112.7,222.2 117.2,221.2 121.4,222.3 124.8,225.5 126.9,230.4 127.4,236.4 126.4,242.8 123.7,248.7 120.0,253.4 115.5,256.4 110.9,257.2 106.7,255.8 103.5,252.4 101.6,247.5" fill="rgb(30,30,36)"/><polygon points="108.8,240.0 109.9,235.8 112.6,232.7 115.7,232.1 118.2,234.1 119.0,238.0 117.8,242.3 115.1,245.3 111.9,245.9 109.5,243.9" fill="rgb(180,180,190)"/><polygon points="278.3,256.0 273.8,252.6 268.9,250.8 273.5,254.2" fill="rgb(13,13,16)"/><polygon points="115.5,256.4 110.9,257.2 118.1,258.9 122.7,258.1" fill="rgb(14,14,17)"/><polygon points="287.8,221.4 293.3,222.6 288.6,220.3 283.1,219.2" fill="rgb(14,14,17)"/><polygon points="124.8,225.5 126.9,230.4 134.0,232.5 131.9,227.7" fill="rgb(12,12,15)"/><polygon points="283.8,257.4 278.3,256.0 273.5,254.2 279.0,255.6" fill="rgb(14,14,17)"/><polygon points="120.0,253.4 115.5,256.4 122.7,258.1 127.2,255.2" fill="rgb(13,13,16)"/><polygon points="126.9,230.4 127.4,236.4 134.6,238.4 134.0,232.5" fill="rgb(10,10,12)"/><polygon points="293.3,222.6 298.0,225.7 293.4,223.5 288.6,220.3" fill="rgb(13,13,16)"/><polygon points="123.7,248.7 120.0,253.4 127.2,255.2 130.9,250.6" fill="rgb(12,12,14)"/><polygon points="265.9,245.8 268.9,250.8 273.5,254.2 279.0,255.6 284.8,254.8 290.3,251.8 294.6,247.0 297.3,241.0 298.0,234.5 296.6,228.4 293.4,223.5 288.6,220.3 283.1,219.2 277.4,220.2 272.1,223.2 268.0,227.9 265.4,233.7 264.7,239.9" fill="rgb(18,18,22)"/><polygon points="127.4,236.4 126.4,242.8 133.5,244.7 134.6,238.4" fill="rgb(8,8,10)"/><polygon points="126.4,242.8 123.7,248.7 130.9,250.6 133.5,244.7" fill="rgb(10,10,12)"/><polygon points="289.6,256.6 283.8,257.4 279.0,255.6 284.8,254.8" fill="rgb(14,14,17)"/><polygon points="298.0,225.7 301.2,230.6 296.6,228.4 293.4,223.5" fill="rgb(12,12,15)"/><polygon points="232.6,158.5 213.0,130.6 256.5,157.9 277.7,184.8" fill="rgb(20,31,54)"/><polygon points="295.0,253.6 289.6,256.6 284.8,254.8 290.3,251.8" fill="rgb(13,13,16)"/><polygon points="301.2,230.6 302.6,236.6 298.0,234.5 296.6,228.4" fill="rgb(10,10,12)"/><polygon points="299.3,248.9 295.0,253.6 290.3,251.8 294.6,247.0" fill="rgb(12,12,14)"/><polygon points="302.6,236.6 302.0,243.0 297.3,241.0 298.0,234.5" fill="rgb(8,8,10)"/><polygon points="302.0,243.0 299.3,248.9 294.6,247.0 297.3,241.0" fill="rgb(10,10,12)"/><polygon points="135.2,184.9 154.0,149.2 213.0,130.6 232.6,158.5" fill="rgb(71,98,143)"/><polygon points="98.3,193.6 95.5,239.7 267.1,204.8 264.9,148.0" fill="rgb(187,48,61)"/><polygon points="303.3,191.9 304.0,204.1 300.2,201.9 299.5,189.6" fill="rgb(255,100,110)"/><polygon points="232.5,158.4 230.6,158.9 210.0,130.3 211.8,129.8" fill="rgb(35,10,18)"/><polygon points="310.3,178.7 264.9,148.0 267.1,204.8 313.6,228.3" fill="rgb(75,12,20)"/><polygon points="213.9,212.3 216.9,205.6 223.3,208.4 220.4,215.0" fill="rgb(10,10,12)"/><polygon points="212.9,219.4 213.9,212.3 220.4,215.0 219.5,222.0" fill="rgb(8,8,10)"/><polygon points="216.9,205.6 221.5,200.1 227.9,203.0 223.3,208.4" fill="rgb(12,12,14)"/><polygon points="214.0,226.1 212.9,219.4 219.5,222.0 220.6,228.6" fill="rgb(10,10,12)"/><polygon points="281.3,178.4 281.9,191.4 277.5,188.9 276.9,175.7" fill="rgb(255,100,110)"/><polygon points="221.5,200.1 227.2,196.5 233.6,199.5 227.9,203.0" fill="rgb(13,13,16)"/><polygon points="217.2,231.7 214.0,226.1 220.6,228.6 223.7,234.2" fill="rgb(12,12,15)"/><polygon points="227.2,196.5 233.4,195.1 239.7,198.1 233.6,199.5" fill="rgb(14,14,17)"/><polygon points="220.6,228.6 223.7,234.2 228.5,237.9 234.4,239.4 240.7,238.3 246.6,234.8 251.5,229.2 254.6,222.3 255.5,215.0 254.1,208.2 250.7,202.7 245.7,199.2 239.7,198.1 233.6,199.5 227.9,203.0 223.3,208.4 220.4,215.0 219.5,222.0" fill="rgb(18,18,22)"/><polygon points="221.9,235.5 217.2,231.7 223.7,234.2 228.5,237.9" fill="rgb(13,13,16)"/><polygon points="233.4,195.1 239.4,196.1 245.7,199.2 239.7,198.1" fill="rgb(14,14,17)"/><polygon points="227.9,237.0 221.9,235.5 228.5,237.9 234.4,239.4" fill="rgb(14,14,17)"/><polygon points="239.4,196.1 244.5,199.7 250.7,202.7 245.7,199.2" fill="rgb(13,13,16)"/><polygon points="212.9,219.4 213.9,212.3 216.9,205.6 221.5,200.1 227.2,196.5 233.4,195.1 239.4,196.1 244.5,199.7 247.9,205.2 249.3,212.2 248.3,219.6 245.2,226.7 240.3,232.3 234.3,235.9 227.9,237.0 221.9,235.5 217.2,231.7 214.0,226.1" fill="rgb(30,30,36)"/><polygon points="223.5,217.2 224.7,212.2 228.2,208.6 232.5,207.7 236.1,209.9 237.6,214.4 236.3,219.4 232.8,223.0 228.4,223.9 224.9,221.6" fill="rgb(180,180,190)"/><polygon points="234.3,235.9 227.9,237.0 234.4,239.4 240.7,238.3" fill="rgb(14,14,17)"/><polygon points="244.5,199.7 247.9,205.2 254.1,208.2 250.7,202.7" fill="rgb(12,12,15)"/><polygon points="240.3,232.3 234.3,235.9 240.7,238.3 246.6,234.8" fill="rgb(13,13,16)"/><polygon points="247.9,205.2 249.3,212.2 255.5,215.0 254.1,208.2" fill="rgb(10,10,12)"/><polygon points="245.2,226.7 240.3,232.3 246.6,234.8 251.5,229.2" fill="rgb(12,12,14)"/><polygon points="249.3,212.2 248.3,219.6 254.6,222.3 255.5,215.0" fill="rgb(8,8,10)"/><polygon points="248.3,219.6 245.2,226.7 251.5,229.2 254.6,222.3" fill="rgb(10,10,12)"/></svg>