<svg xmlns="http://www.w3.org/2000/svg" viewBox="0 0 400 400"><rect width="400" height="400" fill="#0f1020"/><rect x="0" y="250" width="400" height="150" fill="#0a0b17"/><ellipse cx="200" cy="262" rx="120" ry="16" fill="rgba(0,0,0,0.45)"/><polygon points="205.0,230.4 198.4,230.8 198.4,240.6 205.0,240.2" fill="rgb(255,235,160)"/><polygon points="183.2,216.6 257.2,211.5 258.6,253.2 182.8,257.1" fill="rgb(186,48,61)"/><polygon points="233.4,241.9 206.7,243.4 206.7,251.7 233.6,250.3" fill="rgb(18,18,22)"/><polygon points="241.6,228.2 234.8,228.6 235.0,238.5 241.8,238.1" fill="rgb(255,235,160)"/><polygon points="175.4,259.1 175.2,253.7 183.5,253.2 183.7,258.7" fill="rgb(14,14,18)"/><polygon points="175.2,253.7 174.5,248.5 182.8,248.1 183.5,253.2" fill="rgb(11,11,14)"/><polygon points="175.0,264.1 175.4,259.1 183.7,258.7 183.4,263.7" fill="rgb(17,17,20)"/><polygon points="174.5,248.5 173.4,244.2 181.8,243.7 182.8,248.1" fill="rgb(8,8,10)"/><polygon points="174.2,268.3 175.0,264.1 183.4,263.7 182.6,267.9" fill="rgb(18,18,22)"/><polygon points="173.4,244.2 172.0,241.2 180.4,240.7 181.8,243.7" fill="rgb(11,11,13)"/><polygon points="173.0,271.0 174.2,268.3 182.6,267.9 181.5,270.6" fill="rgb(18,18,22)"/><polygon points="172.0,241.2 170.4,239.9 178.9,239.4 180.4,240.7" fill="rgb(14,14,17)"/><polygon points="172.4,257.2 172.1,253.4 171.3,250.5 170.2,249.7 169.3,251.2 168.9,254.6 169.1,258.5 170.0,261.3 171.1,262.1 172.0,260.5" fill="rgb(180,180,190)"/><polygon points="175.4,259.1 175.2,253.7 174.5,248.5 173.4,244.2 172.0,241.2 170.4,239.9 168.9,240.5 167.5,243.1 166.6,247.2 166.2,252.5 166.4,258.2 167.1,263.7 168.3,268.1 169.8,271.0 171.5,272.0 173.0,271.0 174.2,268.3 175.0,264.1" fill="rgb(30,30,36)"/><polygon points="171.5,272.0 173.0,271.0 181.5,270.6 180.0,271.6" fill="rgb(16,16,20)"/><polygon points="170.4,239.9 168.9,240.5 177.5,240.0 178.9,239.4" fill="rgb(16,16,20)"/><polygon points="183.4,263.7 182.6,267.9 181.5,270.6 180.0,271.6 178.5,270.6 177.1,267.7 175.9,263.2 175.2,257.8 175.0,252.0 175.4,246.7 176.2,242.6 177.5,240.0 178.9,239.4 180.4,240.7 181.8,243.7 182.8,248.1 183.5,253.2 183.7,258.7" fill="rgb(18,18,22)"/><polygon points="261.6,254.8 261.3,249.2 252.4,249.6 252.7,255.2" fill="rgb(14,14,18)"/><polygon points="261.3,249.2 260.8,243.8 251.8,244.3 252.4,249.6" fill="rgb(11,11,14)"/><polygon points="261.7,260.0 261.6,254.8 252.7,255.2 252.7,260.4" fill="rgb(17,17,20)"/><polygon points="169.8,271.0 171.5,272.0 180.0,271.6 178.5,270.6" fill="rgb(14,14,17)"/><polygon points="260.8,243.8 260.1,239.3 251.1,239.8 251.8,244.3" fill="rgb(8,8,10)"/><polygon points="168.9,240.5 167.5,243.1 176.2,242.6 177.5,240.0" fill="rgb(18,18,22)"/><polygon points="173.3,203.6 173.8,204.1 168.8,168.8 168.2,168.1" fill="rgb(35,10,18)"/><polygon points="261.5,264.3 261.7,260.0 252.7,260.4 252.5,264.7" fill="rgb(18,18,22)"/><polygon points="260.1,239.3 259.4,236.1 250.3,236.7 251.1,239.8" fill="rgb(11,11,13)"/><polygon points="168.3,268.1 169.8,271.0 178.5,270.6 177.1,267.7" fill="rgb(11,11,13)"/><polygon points="167.5,243.1 166.6,247.2 175.4,246.7 176.2,242.6" fill="rgb(18,18,22)"/><polygon points="261.1,267.1 261.5,264.3 252.5,264.7 252.0,267.5" fill="rgb(18,18,22)"/><polygon points="167.1,263.7 168.3,268.1 177.1,267.7 175.9,263.2" fill="rgb(8,8,10)"/><polygon points="259.4,236.1 258.6,234.8 249.5,235.3 250.3,236.7" fill="rgb(14,14,17)"/><polygon points="166.6,247.2 166.2,252.5 175.0,252.0 175.4,246.7" fill="rgb(17,17,20)"/><polygon points="174.0,204.1 248.4,198.6 242.6,162.1 170.6,168.6" fill="rgb(18,27,48)"/><polygon points="166.4,258.2 167.1,263.7 175.9,263.2 175.2,257.8" fill="rgb(11,11,14)"/><polygon points="166.2,252.5 166.4,258.2 175.2,257.8 175.0,252.0" fill="rgb(14,14,18)"/><polygon points="252.7,260.4 252.5,264.7 252.0,267.5 251.3,268.4 250.4,267.4 249.6,264.4 248.8,259.7 248.2,254.1 247.9,248.2 247.9,242.7 248.2,238.5 248.8,235.9 249.5,235.3 250.3,236.7 251.1,239.8 251.8,244.3 252.4,249.6 252.7,255.2" fill="rgb(18,18,22)"/><polygon points="260.5,268.0 261.1,267.1 252.0,267.5 251.3,268.4" fill="rgb(16,16,20)"/><polygon points="258.6,234.8 258.0,235.4 248.8,235.9 249.5,235.3" fill="rgb(16,16,20)"/><polygon points="261.6,254.8 261.3,249.2 260.8,243.8 260.1,239.3 259.4,236.1 258.6,234.8 258.0,235.4 257.5,237.9 257.3,242.2 257.4,247.7 257.7,253.6 258.3,259.3 259.0,263.9 259.7,267.0 260.5,268.0 261.1,267.1 261.5,264.3 261.7,260.0" fill="rgb(30,30,36)"/><polygon points="260.6,252.7 260.4,248.7 259.9,245.8 259.4,244.9 259.0,246.4 259.0,249.9 259.3,253.9 259.8,256.9 260.3,257.8 260.6,256.1" fill="rgb(180,180,190)"/><polygon points="259.7,267.0 260.5,268.0 251.3,268.4 250.4,267.4" fill="rgb(14,14,17)"/><polygon points="248.3,198.0 248.6,198.6 244.6,161.9 244.3,161.2" fill="rgb(35,10,18)"/><polygon points="258.0,235.4 257.5,237.9 248.2,238.5 248.8,235.9" fill="rgb(18,18,22)"/><polygon points="259.0,263.9 259.7,267.0 250.4,267.4 249.6,264.4" fill="rgb(11,11,13)"/><polygon points="257.5,237.9 257.3,242.2 247.9,242.7 248.2,238.5" fill="rgb(18,18,22)"/><polygon points="258.3,259.3 259.0,263.9 249.6,264.4 248.8,259.7" fill="rgb(8,8,10)"/><polygon points="257.3,242.2 257.4,247.7 247.9,248.2 247.9,242.7" fill="rgb(17,17,20)"/><polygon points="257.7,253.6 258.3,259.3 248.8,259.7 248.2,254.1" fill="rgb(11,11,14)"/><polygon points="257.4,247.7 257.7,253.6 248.2,254.1 247.9,248.2" fill="rgb(14,14,18)"/><polygon points="174.0,204.1 170.6,168.6 149.4,141.8 138.5,166.3" fill="rgb(43,59,87)"/><polygon points="183.2,216.6 182.8,257.1 118.8,207.9 121.5,152.1" fill="rgb(112,29,36)"/><polygon points="170.6,168.6 242.6,162.1 230.5,133.5 149.4,141.8" fill="rgb(93,19,31)"/><polygon points="183.2,216.6 121.5,152.1 225.0,141.7 257.2,211.5" fill="rgb(190,85,93)"/><polygon points="248.4,198.6 229.0,157.9 230.5,133.5 242.6,162.1" fill="rgb(40,55,80)"/><polygon points="182.8,257.1 258.6,253.2 225.9,199.9 118.8,207.9" fill="rgb(23,6,9)"/><polygon points="257.2,211.5 225.0,141.7 225.9,199.9 258.6,253.2" fill="rgb(112,29,36)"/><polygon points="138.3,166.3 139.0,167.1 148.0,142.9 147.4,142.1" fill="rgb(35,10,18)"/><polygon points="138.5,166.3 149.4,141.8 230.5,133.5 229.0,157.9" fill="rgb(30,44,79)"/><polygon points="134.1,229.4 133.9,222.6 144.3,221.9 144.5,228.7" fill="rgb(14,14,18)"/><polygon points="133.9,222.6 133.0,216.0 143.3,215.3 144.3,221.9" fill="rgb(11,11,14)"/><polygon points="133.4,235.6 134.1,229.4 144.5,228.7 143.9,235.0" fill="rgb(17,17,20)"/><polygon points="229.2,157.9 229.6,158.8 233.1,134.1 232.7,133.2" fill="rgb(35,10,18)"/><polygon points="133.0,216.0 131.3,210.3 141.7,209.5 143.3,215.3" fill="rgb(8,8,10)"/><polygon points="132.0,240.6 133.4,235.6 143.9,235.0 142.5,240.0" fill="rgb(18,18,22)"/><polygon points="131.3,210.3 129.0,206.1 139.6,205.4 141.7,209.5" fill="rgb(11,11,13)"/><polygon points="129.9,243.8 132.0,240.6 142.5,240.0 140.5,243.1" fill="rgb(18,18,22)"/><polygon points="129.0,206.1 126.5,204.1 137.2,203.3 139.6,205.4" fill="rgb(14,14,17)"/><polygon points="129.5,226.3 129.1,221.5 127.8,217.7 126.1,216.4 124.5,218.0 123.7,222.2 124.1,227.1 125.4,230.9 127.2,232.2 128.8,230.4" fill="rgb(180,180,190)"/><polygon points="134.1,229.4 133.9,222.6 133.0,216.0 131.3,210.3 129.0,206.1 126.5,204.1 124.0,204.4 121.7,207.2 120.1,212.1 119.3,218.7 119.4,226.0 120.5,233.1 122.4,239.0 124.8,243.0 127.4,244.6 129.9,243.8 132.0,240.6 133.4,235.6" fill="rgb(30,30,36)"/><polygon points="127.4,244.6 129.9,243.8 140.5,243.1 138.2,244.0" fill="rgb(16,16,20)"/><polygon points="126.5,204.1 124.0,204.4 134.7,203.6 137.2,203.3" fill="rgb(16,16,20)"/><polygon points="143.9,235.0 142.5,240.0 140.5,243.1 138.2,244.0 135.7,242.3 133.4,238.3 131.6,232.4 130.5,225.3 130.3,217.9 131.1,211.3 132.6,206.4 134.7,203.6 137.2,203.3 139.6,205.4 141.7,209.5 143.3,215.3 144.3,221.9 144.5,228.7" fill="rgb(18,18,22)"/><polygon points="242.4,222.4 242.0,215.3 230.7,216.1 231.1,223.2" fill="rgb(14,14,18)"/><polygon points="242.0,215.3 241.3,208.4 230.0,209.2 230.7,216.1" fill="rgb(11,11,14)"/><polygon points="242.3,228.9 242.4,222.4 231.1,223.2 231.0,229.6" fill="rgb(17,17,20)"/><polygon points="124.8,243.0 127.4,244.6 138.2,244.0 135.7,242.3" fill="rgb(14,14,17)"/><polygon points="241.3,208.4 240.3,202.3 228.9,203.2 230.0,209.2" fill="rgb(8,8,10)"/><polygon points="124.0,204.4 121.7,207.2 132.6,206.4 134.7,203.6" fill="rgb(18,18,22)"/><polygon points="241.9,234.1 242.3,228.9 231.0,229.6 230.4,234.8" fill="rgb(18,18,22)"/><polygon points="240.3,202.3 239.1,197.9 227.6,198.7 228.9,203.2" fill="rgb(11,11,13)"/><polygon points="122.4,239.0 124.8,243.0 135.7,242.3 133.4,238.3" fill="rgb(11,11,13)"/><polygon points="121.7,207.2 120.1,212.1 131.1,211.3 132.6,206.4" fill="rgb(18,18,22)"/><polygon points="241.1,237.3 241.9,234.1 230.4,234.8 229.5,238.0" fill="rgb(18,18,22)"/><polygon points="120.5,233.1 122.4,239.0 133.4,238.3 131.6,232.4" fill="rgb(8,8,10)"/><polygon points="239.1,197.9 237.9,195.6 226.3,196.5 227.6,198.7" fill="rgb(14,14,17)"/><polygon points="120.1,212.1 119.3,218.7 130.3,217.9 131.1,211.3" fill="rgb(17,17,20)"/><polygon points="119.4,226.0 120.5,233.1 131.6,232.4 130.5,225.3" fill="rgb(11,11,14)"/><polygon points="119.3,218.7 119.4,226.0 130.5,225.3 130.3,217.9" fill="rgb(14,14,18)"/><polygon points="231.0,229.6 230.4,234.8 229.5,238.0 228.3,238.8 226.9,237.0 225.5,232.8 224.4,226.5 223.5,219.1 223.2,211.5 223.3,204.6 224.0,199.5 225.0,196.7 226.3,196.5 227.6,198.7 228.9,203.2 230.0,209.2 230.7,216.1 231.1,223.2" fill="rgb(18,18,22)"/><polygon points="240.1,238.1 241.1,237.3 229.5,238.0 228.3,238.8" fill="rgb(16,16,20)"/><polygon points="237.9,195.6 236.8,195.8 225.0,196.7 226.3,196.5" fill="rgb(16,16,20)"/><polygon points="242.4,222.4 242.0,215.3 241.3,208.4 240.3,202.3 239.1,197.9 237.9,195.6 236.8,195.8 235.9,198.6 235.4,203.8 235.3,210.6 235.7,218.3 236.5,225.8 237.6,232.1 238.8,236.3 240.1,238.1 241.1,237.3 241.9,234.1 242.3,228.9" fill="rgb(30,30,36)"/><polygon points="240.7,219.0 240.3,213.9 239.6,209.9 238.7,208.4 238.1,210.1 238.0,214.4 238.3,219.6 239.1,223.7 239.9,225.0 240.5,223.2" fill="rgb(180,180,190)"/><polygon points="238.8,236.3 240.1,238.1 228.3,238.8 226.9,237.0" fill="rgb(14,14,17)"/><polygon points="150.8,170.0 150.4,183.5 141.2,184.3 141.7,170.8" fill="rgb(255,100,110)"/><polygon points="236.8,195.8 235.9,198.6 224.0,199.5 225.0,196.7" fill="rgb(18,18,22)"/><polygon points="237.6,232.1 238.8,236.3 226.9,237.0 225.5,232.8" fill="rgb(11,11,13)"/><polygon points="225.0,141.7 121.5,152.1 118.8,207.9 225.9,199.9" fill="rgb(130,22,35)"/><polygon points="235.9,198.6 235.4,203.8 223.3,204.6 224.0,199.5" fill="rgb(18,18,22)"/><polygon points="236.5,225.8 237.6,232.1 225.5,232.8 224.4,226.5" fill="rgb(8,8,10)"/><polygon points="235.4,203.8 235.3,210.6 223.2,211.5 223.3,204.6" fill="rgb(17,17,20)"/><polygon points="202.3,165.3 202.3,179.1 192.7,179.9 192.8,166.2" fill="rgb(255,100,110)"/><polygon points="235.7,218.3 236.5,225.8 224.4,226.5 223.5,219.1" fill="rgb(11,11,14)"/><polygon points="235.3,210.6 235.7,218.3 223.5,219.1 223.2,211.5" fill="rgb(14,14,18)"/></svg>