<svg xmlns="http://www.w3.org/2000/svg" viewBox="0 0 400 400"><rect width="400" height="400" fill="#0f1020"/><rect x="0" y="250" width="400" height="150" fill="#0a0b17"/><ellipse cx="200" cy="262" rx="120" ry="16" fill="rgba(0,0,0,0.45)"/><polygon points="198.4,230.8 198.4,240.6 205.0,240.2 205.0,230.4" fill="rgb(255,100,110)"/><polygon points="183.2,216.6 257.2,211.5 258.6,253.2 182.8,257.1" fill="rgb(130,22,35)"/><polygon points="234.8,228.6 235.0,238.5 241.8,238.1 241.6,228.2" fill="rgb(255,100,110)"/><polygon points="175.2,253.7 175.4,259.1 183.7,258.7 183.5,253.2" fill="rgb(14,14,18)"/><polygon points="174.5,248.5 175.2,253.7 183.5,253.2 182.8,248.1" fill="rgb(11,11,14)"/><polygon points="175.4,259.1 175.0,264.1 183.4,263.7 183.7,258.7" fill="rgb(17,17,20)"/><polygon points="173.4,244.2 174.5,248.5 182.8,248.1 181.8,243.7" fill="rgb(8,8,10)"/><polygon points="175.0,264.1 174.2,268.3 182.6,267.9 183.4,263.7" fill="rgb(18,18,22)"/><polygon points="172.0,241.2 173.4,244.2 181.8,243.7 180.4,240.7" fill="rgb(11,11,13)"/><polygon points="177.7,208.3 177.2,207.7 172.4,173.3 172.9,173.9" fill="rgb(35,10,18)"/><polygon points="174.2,268.3 173.0,271.0 181.5,270.6 182.6,267.9" fill="rgb(18,18,22)"/><polygon points="170.4,239.9 172.0,241.2 180.4,240.7 178.9,239.4" fill="rgb(14,14,17)"/><polygon points="168.9,254.6 169.3,251.2 170.2,249.7 171.3,250.5 172.1,253.4 172.4,257.2 172.0,260.5 171.1,262.1 170.0,261.3 169.1,258.5" fill="rgb(180,180,190)"/><polygon points="166.2,252.5 166.6,247.2 167.5,243.1 168.9,240.5 170.4,239.9 172.0,241.2 173.4,244.2 174.5,248.5 175.2,253.7 175.4,259.1 175.0,264.1 174.2,268.3 173.0,271.0 171.5,272.0 169.8,271.0 168.3,268.1 167.1,263.7 166.4,258.2" fill="rgb(30,30,36)"/><polygon points="173.0,271.0 171.5,272.0 180.0,271.6 181.5,270.6" fill="rgb(16,16,20)"/><polygon points="168.9,240.5 170.4,239.9 178.9,239.4 177.5,240.0" fill="rgb(16,16,20)"/><polygon points="250.5,203.0 244.9,167.6 174.7,173.7 177.9,208.2" fill="rgb(18,27,48)"/><polygon points="175.2,257.8 175.9,263.2 177.1,267.7 178.5,270.6 180.0,271.6 181.5,270.6 182.6,267.9 183.4,263.7 183.7,258.7 183.5,253.2 182.8,248.1 181.8,243.7 180.4,240.7 178.9,239.4 177.5,240.0 176.2,242.6 175.4,246.7 175.0,252.0" fill="rgb(18,18,22)"/><polygon points="261.3,249.2 261.6,254.8 252.7,255.2 252.4,249.6" fill="rgb(14,14,18)"/><polygon points="260.8,243.8 261.3,249.2 252.4,249.6 251.8,244.3" fill="rgb(11,11,14)"/><polygon points="261.6,254.8 261.7,260.0 252.7,260.4 252.7,255.2" fill="rgb(17,17,20)"/><polygon points="171.5,272.0 169.8,271.0 178.5,270.6 180.0,271.6" fill="rgb(14,14,17)"/><polygon points="260.1,239.3 260.8,243.8 251.8,244.3 251.1,239.8" fill="rgb(8,8,10)"/><polygon points="167.5,243.1 168.9,240.5 177.5,240.0 176.2,242.6" fill="rgb(18,18,22)"/><polygon points="261.7,260.0 261.5,264.3 252.5,264.7 252.7,260.4" fill="rgb(18,18,22)"/><polygon points="259.4,236.1 260.1,239.3 251.1,239.8 250.3,236.7" fill="rgb(11,11,13)"/><polygon points="169.8,271.0 168.3,268.1 177.1,267.7 178.5,270.6" fill="rgb(11,11,13)"/><polygon points="250.7,203.0 250.4,202.4 246.5,166.7 246.8,167.4" fill="rgb(35,10,18)"/><polygon points="166.6,247.2 167.5,243.1 176.2,242.6 175.4,246.7" fill="rgb(18,18,22)"/><polygon points="261.5,264.3 261.1,267.1 252.0,267.5 252.5,264.7" fill="rgb(18,18,22)"/><polygon points="168.3,268.1 167.1,263.7 175.9,263.2 177.1,267.7" fill="rgb(8,8,10)"/><polygon points="258.6,234.8 259.4,236.1 250.3,236.7 249.5,235.3" fill="rgb(14,14,17)"/><polygon points="166.2,252.5 166.6,247.2 175.4,246.7 175.0,252.0" fill="rgb(17,17,20)"/><polygon points="167.1,263.7 166.4,258.2 175.2,257.8 175.9,263.2" fill="rgb(11,11,14)"/><polygon points="166.4,258.2 166.2,252.5 175.0,252.0 175.2,257.8" fill="rgb(14,14,18)"/><polygon points="248.2,254.1 248.8,259.7 249.6,264.4 250.4,267.4 251.3,268.4 252.0,267.5 252.5,264.7 252.7,260.4 252.7,255.2 252.4,249.6 251.8,244.3 251.1,239.8 250.3,236.7 249.5,235.3 248.8,235.9 248.2,238.5 247.9,242.7 247.9,248.2" fill="rgb(18,18,22)"/><polygon points="261.1,267.1 260.5,268.0 251.3,268.4 252.0,267.5" fill="rgb(16,16,20)"/><polygon points="258.0,235.4 258.6,234.8 249.5,235.3 248.8,235.9" fill="rgb(16,16,20)"/><polygon points="257.4,247.7 257.3,242.2 257.5,237.9 258.0,235.4 258.6,234.8 259.4,236.1 260.1,239.3 260.8,243.8 261.3,249.2 261.6,254.8 261.7,260.0 261.5,264.3 261.1,267.1 260.5,268.0 259.7,267.0 259.0,263.9 258.3,259.3 257.7,253.6" fill="rgb(30,30,36)"/><polygon points="259.0,249.9 259.0,246.4 259.4,244.9 259.9,245.8 260.4,248.7 260.6,252.7 260.6,256.1 260.3,257.8 259.8,256.9 259.3,253.9" fill="rgb(180,180,190)"/><polygon points="260.5,268.0 259.7,267.0 250.4,267.4 251.3,268.4" fill="rgb(14,14,17)"/><polygon points="257.5,237.9 258.0,235.4 248.8,235.9 248.2,238.5" fill="rgb(18,18,22)"/><polygon points="259.7,267.0 259.0,263.9 249.6,264.4 250.4,267.4" fill="rgb(11,11,13)"/><polygon points="257.3,242.2 257.5,237.9 248.2,238.5 247.9,242.7" fill="rgb(18,18,22)"/><polygon points="259.0,263.9 258.3,259.3 248.8,259.7 249.6,264.4" fill="rgb(8,8,10)"/><polygon points="144.3,172.5 177.9,208.2 174.7,173.7 154.6,148.4" fill="rgb(43,59,87)"/><polygon points="257.4,247.7 257.3,242.2 247.9,242.7 247.9,248.2" fill="rgb(17,17,20)"/><polygon points="258.3,259.3 257.7,253.6 248.2,254.1 248.8,259.7" fill="rgb(11,11,14)"/><polygon points="257.7,253.6 257.4,247.7 247.9,248.2 248.2,254.1" fill="rgb(14,14,18)"/><polygon points="233.5,140.5 154.6,148.4 174.7,173.7 244.9,167.6" fill="rgb(93,19,31)"/><polygon points="232.2,164.6 233.5,140.5 244.9,167.6 250.5,203.0" fill="rgb(40,55,80)"/><polygon points="121.5,152.1 183.2,216.6 182.8,257.1 118.8,207.9" fill="rgb(112,29,36)"/><polygon points="225.0,141.7 257.2,211.5 183.2,216.6 121.5,152.1" fill="rgb(190,85,93)"/><polygon points="225.9,199.9 118.8,207.9 182.8,257.1 258.6,253.2" fill="rgb(23,6,9)"/><polygon points="225.0,141.7 225.9,199.9 258.6,253.2 257.2,211.5" fill="rgb(112,29,36)"/><polygon points="144.8,173.3 144.1,172.5 152.6,148.6 153.2,149.4" fill="rgb(35,10,18)"/><polygon points="232.2,164.6 144.3,172.5 154.6,148.4 233.5,140.5" fill="rgb(30,44,79)"/><polygon points="232.8,165.4 232.4,164.6 235.6,140.3 236.0,141.1" fill="rgb(35,10,18)"/><polygon points="133.9,222.6 134.1,229.4 144.5,228.7 144.3,221.9" fill="rgb(14,14,18)"/><polygon points="133.0,216.0 133.9,222.6 144.3,221.9 143.3,215.3" fill="rgb(11,11,14)"/><polygon points="134.1,229.4 133.4,235.6 143.9,235.0 144.5,228.7" fill="rgb(17,17,20)"/><polygon points="131.3,210.3 133.0,216.0 143.3,215.3 141.7,209.5" fill="rgb(8,8,10)"/><polygon points="133.4,235.6 132.0,240.6 142.5,240.0 143.9,235.0" fill="rgb(18,18,22)"/><polygon points="129.0,206.1 131.3,210.3 141.7,209.5 139.6,205.4" fill="rgb(11,11,13)"/><polygon points="132.0,240.6 129.9,243.8 140.5,243.1 142.5,240.0" fill="rgb(18,18,22)"/><polygon points="126.5,204.1 129.0,206.1 139.6,205.4 137.2,203.3" fill="rgb(14,14,17)"/><polygon points="123.7,222.2 124.5,218.0 126.1,216.4 127.8,217.7 129.1,221.5 129.5,226.3 128.8,230.4 127.2,232.2 125.4,230.9 124.1,227.1" fill="rgb(180,180,190)"/><polygon points="119.3,218.7 120.1,212.1 121.7,207.2 124.0,204.4 126.5,204.1 129.0,206.1 131.3,210.3 133.0,216.0 133.9,222.6 134.1,229.4 133.4,235.6 132.0,240.6 129.9,243.8 127.4,244.6 124.8,243.0 122.4,239.0 120.5,233.1 119.4,226.0" fill="rgb(30,30,36)"/><polygon points="129.9,243.8 127.4,244.6 138.2,244.0 140.5,243.1" fill="rgb(16,16,20)"/><polygon points="124.0,204.4 126.5,204.1 137.2,203.3 134.7,203.6" fill="rgb(16,16,20)"/><polygon points="130.5,225.3 131.6,232.4 133.4,238.3 135.7,242.3 138.2,244.0 140.5,243.1 142.5,240.0 143.9,235.0 144.5,228.7 144.3,221.9 143.3,215.3 141.7,209.5 139.6,205.4 137.2,203.3 134.7,203.6 132.6,206.4 131.1,211.3 130.3,217.9" fill="rgb(18,18,22)"/><polygon points="242.0,215.3 242.4,222.4 231.1,223.2 230.7,216.1" fill="rgb(14,14,18)"/><polygon points="241.3,208.4 242.0,215.3 230.7,216.1 230.0,209.2" fill="rgb(11,11,14)"/><polygon points="242.4,222.4 242.3,228.9 231.0,229.6 231.1,223.2" fill="rgb(17,17,20)"/><polygon points="127.4,244.6 124.8,243.0 135.7,242.3 138.2,244.0" fill="rgb(14,14,17)"/><polygon points="240.3,202.3 241.3,208.4 230.0,209.2 228.9,203.2" fill="rgb(8,8,10)"/><polygon points="121.7,207.2 124.0,204.4 134.7,203.6 132.6,206.4" fill="rgb(18,18,22)"/><polygon points="242.3,228.9 241.9,234.1 230.4,234.8 231.0,229.6" fill="rgb(18,18,22)"/><polygon points="239.1,197.9 240.3,202.3 228.9,203.2 227.6,198.7" fill="rgb(11,11,13)"/><polygon points="124.8,243.0 122.4,239.0 133.4,238.3 135.7,242.3" fill="rgb(11,11,13)"/><polygon points="120.1,212.1 121.7,207.2 132.6,206.4 131.1,211.3" fill="rgb(18,18,22)"/><polygon points="241.9,234.1 241.1,237.3 229.5,238.0 230.4,234.8" fill="rgb(18,18,22)"/><polygon points="122.4,239.0 120.5,233.1 131.6,232.4 133.4,238.3" fill="rgb(8,8,10)"/><polygon points="237.9,195.6 239.1,197.9 227.6,198.7 226.3,196.5" fill="rgb(14,14,17)"/><polygon points="119.3,218.7 120.1,212.1 131.1,211.3 130.3,217.9" fill="rgb(17,17,20)"/><polygon points="120.5,233.1 119.4,226.0 130.5,225.3 131.6,232.4" fill="rgb(11,11,14)"/><polygon points="119.4,226.0 119.3,218.7 130.3,217.9 130.5,225.3" fill="rgb(14,14,18)"/><polygon points="223.5,219.1 224.4,226.5 225.5,232.8 226.9,237.0 228.3,238.8 229.5,238.0 230.4,234.8 231.0,229.6 231.1,223.2 230.7,216.1 230.0,209.2 228.9,203.2 227.6,198.7 226.3,196.5 225.0,196.7 224.0,199.5 223.3,204.6 223.2,211.5" fill="rgb(18,18,22)"/><polygon points="241.1,237.3 240.1,238.1 228.3,238.8 229.5,238.0" fill="rgb(16,16,20)"/><polygon points="236.8,195.8 237.9,195.6 226.3,196.5 225.0,196.7" fill="rgb(16,16,20)"/><polygon points="235.3,210.6 235.4,203.8 235.9,198.6 236.8,195.8 237.9,195.6 239.1,197.9 240.3,202.3 241.3,208.4 242.0,215.3 242.4,222.4 242.3,228.9 241.9,234.1 241.1,237.3 240.1,238.1 238.8,236.3 237.6,232.1 236.5,225.8 235.7,218.3" fill="rgb(30,30,36)"/><polygon points="238.0,214.4 238.1,210.1 238.7,208.4 239.6,209.9 240.3,213.9 240.7,219.0 240.5,223.2 239.9,225.0 239.1,223.7 238.3,219.6" fill="rgb(180,180,190)"/><polygon points="240.1,238.1 238.8,236.3 226.9,237.0 228.3,238.8" fill="rgb(14,14,17)"/><polygon points="141.7,170.8 150.8,170.0 150.4,183.5 141.2,184.3" fill="rgb(255,235,160)"/><polygon points="235.9,198.6 236.8,195.8 225.0,196.7 224.0,199.5" fill="rgb(18,18,22)"/><polygon points="238.8,236.3 237.6,232.1 225.5,232.8 226.9,237.0" fill="rgb(11,11,13)"/><polygon points="225.0,141.7 121.5,152.1 118.8,207.9 225.9,199.9" fill="rgb(186,48,61)"/><polygon points="235.4,203.8 235.9,198.6 224.0,199.5 223.3,204.6" fill="rgb(18,18,22)"/><polygon points="237.6,232.1 236.5,225.8 224.4,226.5 225.5,232.8" fill="rgb(8,8,10)"/><polygon points="235.3,210.6 235.4,203.8 223.3,204.6 223.2,211.5" fill="rgb(17,17,20)"/><polygon points="152.6,187.9 190.3,184.8 190.2,196.5 152.3,199.5" fill="rgb(18,18,22)"/><polygon points="192.8,166.2 202.3,165.3 202.3,179.1 192.7,179.9" fill="rgb(255,235,160)"/><polygon points="236.5,225.8 235.7,218.3 223.5,219.1 224.4,226.5" fill="rgb(11,11,14)"/><polygon points="235.7,218.3 235.3,210.6 223.2,211.5 223.5,219.1" fill="rgb(14,14,18)"/></svg>