<svg xmlns="http://www.w3.org/2000/svg" viewBox="0 0 400 400"><rect width="400" height="400" fill="#0f1020"/><rect x="0" y="250" width="400" height="150" fill="#0a0b17"/><ellipse cx="200" cy="262" rx="120" ry="16" fill="rgba(0,0,0,0.45)"/><polygon points="155.0,227.7 149.7,226.4 149.4,236.5 154.7,237.7" fill="rgb(255,235,160)"/><polygon points="178.7,253.9 180.6,248.9 174.3,247.5 172.4,252.6" fill="rgb(8,8,10)"/><polygon points="178.0,259.2 178.7,253.9 172.4,252.6 171.6,258.0" fill="rgb(9,9,11)"/><polygon points="180.6,248.9 183.5,244.8 177.1,243.4 174.3,247.5" fill="rgb(11,11,13)"/><polygon points="178.6,264.3 178.0,259.2 171.6,258.0 172.2,263.1" fill="rgb(11,11,14)"/><polygon points="183.5,244.8 187.0,242.2 180.6,240.7 177.1,243.4" fill="rgb(13,13,15)"/><polygon points="180.4,268.6 178.6,264.3 172.2,263.1 174.0,267.4" fill="rgb(13,13,16)"/><polygon points="187.0,242.2 190.8,241.3 184.4,239.8 180.6,240.7" fill="rgb(14,14,17)"/><polygon points="183.2,271.5 180.4,268.6 174.0,267.4 176.8,270.4" fill="rgb(14,14,17)"/><polygon points="184.8,257.9 185.6,254.2 187.7,251.5 190.3,250.9 192.5,252.7 193.3,256.0 192.4,259.8 190.3,262.5 187.6,263.0 185.5,261.2" fill="rgb(180,180,190)"/><polygon points="178.0,259.2 178.7,253.9 180.6,248.9 183.5,244.8 187.0,242.2 190.8,241.3 194.4,242.2 197.4,245.0 199.3,249.3 200.0,254.5 199.3,260.1 197.3,265.3 194.3,269.5 190.6,272.0 186.8,272.7 183.2,271.5 180.4,268.6 178.6,264.3" fill="rgb(30,30,36)"/><polygon points="190.8,241.3 194.4,242.2 188.0,240.8 184.4,239.8" fill="rgb(14,14,18)"/><polygon points="105.6,198.6 167.7,215.3 166.9,256.1 103.0,243.5" fill="rgb(122,31,40)"/><polygon points="186.8,272.7 183.2,271.5 176.8,270.4 180.3,271.6" fill="rgb(14,14,18)"/><polygon points="196.4,205.5 195.1,205.9 208.9,172.9 210.1,172.4" fill="rgb(35,10,18)"/><polygon points="172.2,263.1 174.0,267.4 176.8,270.4 180.3,271.6 184.1,270.9 187.8,268.3 190.9,264.1 192.9,258.8 193.6,253.2 192.9,247.8 191.0,243.5 188.0,240.8 184.4,239.8 180.6,240.7 177.1,243.4 174.3,247.5 172.4,252.6 171.6,258.0" fill="rgb(18,18,22)"/><polygon points="194.4,242.2 197.4,245.0 191.0,243.5 188.0,240.8" fill="rgb(14,14,17)"/><polygon points="148.0,239.6 125.5,234.6 125.1,243.4 147.7,248.1" fill="rgb(18,18,22)"/><polygon points="190.6,272.0 186.8,272.7 180.3,271.6 184.1,270.9" fill="rgb(14,14,17)"/><polygon points="197.4,245.0 199.3,249.3 192.9,247.8 191.0,243.5" fill="rgb(13,13,16)"/><polygon points="194.3,269.5 190.6,272.0 184.1,270.9 187.8,268.3" fill="rgb(13,13,15)"/><polygon points="199.3,249.3 200.0,254.5 193.6,253.2 192.9,247.8" fill="rgb(11,11,14)"/><polygon points="197.3,265.3 194.3,269.5 187.8,268.3 190.9,264.1" fill="rgb(11,11,13)"/><polygon points="200.0,254.5 199.3,260.1 192.9,258.8 193.6,253.2" fill="rgb(9,9,11)"/><polygon points="199.3,260.1 197.3,265.3 190.9,264.1 192.9,258.8" fill="rgb(8,8,10)"/><polygon points="124.7,220.3 118.8,218.9 118.3,229.4 124.2,230.8" fill="rgb(255,235,160)"/><polygon points="136.5,188.3 195.0,205.9 207.6,172.4 152.8,152.2" fill="rgb(15,22,39)"/><polygon points="195.0,205.9 277.7,180.6 257.8,154.4 207.6,172.4" fill="rgb(67,92,133)"/><polygon points="167.7,215.3 308.8,172.5 312.1,223.6 166.9,256.1" fill="rgb(184,47,60)"/><polygon points="107.5,239.1 109.6,233.5 117.5,235.2 115.5,240.8" fill="rgb(8,8,10)"/><polygon points="106.6,245.1 107.5,239.1 115.5,240.8 114.6,246.7" fill="rgb(9,9,11)"/><polygon points="109.6,233.5 112.5,228.9 120.4,230.7 117.5,235.2" fill="rgb(11,11,13)"/><polygon points="106.9,250.8 106.6,245.1 114.6,246.7 114.9,252.3" fill="rgb(11,11,14)"/><polygon points="112.5,228.9 116.1,225.8 124.0,227.6 120.4,230.7" fill="rgb(13,13,15)"/><polygon points="108.4,255.6 106.9,250.8 114.9,252.3 116.4,257.0" fill="rgb(13,13,16)"/><polygon points="152.8,152.2 207.6,172.4 257.8,154.4 203.1,130.0" fill="rgb(93,19,31)"/><polygon points="116.1,225.8 119.8,224.7 127.7,226.5 124.0,227.6" fill="rgb(14,14,17)"/><polygon points="111.0,258.7 108.4,255.6 116.4,257.0 119.1,260.2" fill="rgb(14,14,17)"/><polygon points="114.9,252.3 116.4,257.0 119.1,260.2 122.5,261.4 126.2,260.5 129.9,257.6 133.0,252.9 135.2,247.1 136.1,240.9 135.6,235.1 133.9,230.4 131.1,227.5 127.7,226.5 124.0,227.6 120.4,230.7 117.5,235.2 115.5,240.8 114.6,246.7" fill="rgb(18,18,22)"/><polygon points="137.6,187.8 136.4,188.3 151.2,151.6 152.4,151.0" fill="rgb(35,10,18)"/><polygon points="119.8,224.7 123.2,225.6 131.1,227.5 127.7,226.5" fill="rgb(14,14,18)"/><polygon points="105.6,198.6 247.1,144.4 308.8,172.5 167.7,215.3" fill="rgb(190,85,93)"/><polygon points="114.4,260.0 111.0,258.7 119.1,260.2 122.5,261.4" fill="rgb(14,14,18)"/><polygon points="277.8,180.7 276.2,181.2 257.5,155.5 259.0,154.9" fill="rgb(35,10,18)"/><polygon points="106.6,245.1 107.5,239.1 109.6,233.5 112.5,228.9 116.1,225.8 119.8,224.7 123.2,225.6 125.9,228.6 127.6,233.3 128.1,239.2 127.1,245.4 124.9,251.3 121.8,256.1 118.1,259.1 114.4,260.0 111.0,258.7 108.4,255.6 106.9,250.8" fill="rgb(30,30,36)"/><polygon points="112.7,243.3 113.7,239.2 115.9,236.1 118.4,235.4 120.4,237.2 121.1,241.0 120.1,245.2 117.8,248.3 115.2,249.0 113.3,247.1" fill="rgb(180,180,190)"/><polygon points="123.2,225.6 125.9,228.6 133.9,230.4 131.1,227.5" fill="rgb(14,14,17)"/><polygon points="118.1,259.1 114.4,260.0 122.5,261.4 126.2,260.5" fill="rgb(14,14,17)"/><polygon points="125.9,228.6 127.6,233.3 135.6,235.1 133.9,230.4" fill="rgb(13,13,16)"/><polygon points="121.8,256.1 118.1,259.1 126.2,260.5 129.9,257.6" fill="rgb(13,13,15)"/><polygon points="127.6,233.3 128.1,239.2 136.1,240.9 135.6,235.1" fill="rgb(11,11,14)"/><polygon points="124.9,251.3 121.8,256.1 129.9,257.6 133.0,252.9" fill="rgb(11,11,13)"/><polygon points="128.1,239.2 127.1,245.4 135.2,247.1 136.1,240.9" fill="rgb(9,9,11)"/><polygon points="127.1,245.4 124.9,251.3 133.0,252.9 135.2,247.1" fill="rgb(8,8,10)"/><polygon points="103.0,243.5 166.9,256.1 312.1,223.6 248.8,202.0" fill="rgb(23,6,9)"/><polygon points="272.6,232.9 274.9,227.0 268.6,225.1 266.3,231.1" fill="rgb(8,8,10)"/><polygon points="271.9,239.2 272.6,232.9 266.3,231.1 265.6,237.4" fill="rgb(9,9,11)"/><polygon points="274.9,227.0 278.6,222.1 272.4,220.1 268.6,225.1" fill="rgb(11,11,13)"/><polygon points="273.1,245.1 271.9,239.2 265.6,237.4 266.7,243.4" fill="rgb(11,11,14)"/><polygon points="278.6,222.1 283.4,218.8 277.2,216.8 272.4,220.1" fill="rgb(13,13,15)"/><polygon points="275.9,250.0 273.1,245.1 266.7,243.4 269.5,248.4" fill="rgb(13,13,16)"/><polygon points="283.4,218.8 288.7,217.6 282.5,215.5 277.2,216.8" fill="rgb(14,14,17)"/><polygon points="136.5,188.3 152.8,152.2 203.1,130.0 219.4,156.8" fill="rgb(70,96,140)"/><polygon points="280.1,253.3 275.9,250.0 269.5,248.4 273.7,251.7" fill="rgb(14,14,17)"/><polygon points="281.2,237.3 282.1,232.9 285.0,229.7 288.6,228.9 291.8,230.8 293.2,234.7 292.2,239.2 289.3,242.4 285.6,243.1 282.5,241.2" fill="rgb(180,180,190)"/><polygon points="271.9,239.2 272.6,232.9 274.9,227.0 278.6,222.1 283.4,218.8 288.7,217.6 293.9,218.5 298.3,221.6 301.4,226.5 302.7,232.6 302.1,239.2 299.7,245.4 295.6,250.4 290.6,253.6 285.2,254.6 280.1,253.3 275.9,250.0 273.1,245.1" fill="rgb(30,30,36)"/><polygon points="288.7,217.6 293.9,218.5 287.7,216.4 282.5,215.5" fill="rgb(14,14,18)"/><polygon points="219.4,156.8 203.1,130.0 257.8,154.4 277.7,180.6" fill="rgb(22,33,59)"/><polygon points="285.2,254.6 280.1,253.3 273.7,251.7 278.8,252.9" fill="rgb(14,14,18)"/><polygon points="266.7,243.4 269.5,248.4 273.7,251.7 278.8,252.9 284.3,251.9 289.3,248.7 293.4,243.6 295.9,237.3 296.5,230.6 295.2,224.4 292.1,219.5 287.7,216.4 282.5,215.5 277.2,216.8 272.4,220.1 268.6,225.1 266.3,231.1 265.6,237.4" fill="rgb(18,18,22)"/><polygon points="293.9,218.5 298.3,221.6 292.1,219.5 287.7,216.4" fill="rgb(14,14,17)"/><polygon points="290.6,253.6 285.2,254.6 278.8,252.9 284.3,251.9" fill="rgb(14,14,17)"/><polygon points="105.6,198.6 103.0,243.5 248.8,202.0 247.1,144.4" fill="rgb(184,47,60)"/><polygon points="298.3,221.6 301.4,226.5 295.2,224.4 292.1,219.5" fill="rgb(13,13,16)"/><polygon points="295.6,250.4 290.6,253.6 284.3,251.9 289.3,248.7" fill="rgb(13,13,15)"/><polygon points="301.4,226.5 302.7,232.6 296.5,230.6 295.2,224.4" fill="rgb(11,11,14)"/><polygon points="299.7,245.4 295.6,250.4 289.3,248.7 293.4,243.6" fill="rgb(11,11,13)"/><polygon points="302.7,232.6 302.1,239.2 295.9,237.3 296.5,230.6" fill="rgb(9,9,11)"/><polygon points="302.1,239.2 299.7,245.4 293.4,243.6 295.9,237.3" fill="rgb(8,8,10)"/><polygon points="219.3,156.8 217.6,157.4 199.9,130.0 201.5,129.3" fill="rgb(35,10,18)"/><polygon points="298.5,186.6 299.2,199.1 294.0,197.1 293.3,184.4" fill="rgb(255,100,110)"/><polygon points="308.8,172.5 247.1,144.4 248.8,202.0 312.1,223.6" fill="rgb(85,14,23)"/><polygon points="200.9,211.9 203.5,205.1 211.6,207.6 209.0,214.3" fill="rgb(8,8,10)"/><polygon points="200.0,219.1 200.9,211.9 209.0,214.3 208.2,221.4" fill="rgb(9,9,11)"/><polygon points="203.5,205.1 207.5,199.4 215.6,202.0 211.6,207.6" fill="rgb(11,11,13)"/><polygon points="200.9,225.8 200.0,219.1 208.2,221.4 209.1,228.0" fill="rgb(11,11,14)"/><polygon points="207.5,199.4 212.5,195.4 220.5,198.1 215.6,202.0" fill="rgb(13,13,15)"/><polygon points="203.5,231.3 200.9,225.8 209.1,228.0 211.8,233.5" fill="rgb(13,13,16)"/><polygon points="212.5,195.4 217.9,193.7 225.9,196.5 220.5,198.1" fill="rgb(14,14,17)"/><polygon points="207.6,235.0 203.5,231.3 211.8,233.5 215.9,237.0" fill="rgb(14,14,17)"/><polygon points="209.1,228.0 211.8,233.5 215.9,237.0 221.0,238.3 226.6,237.0 231.8,233.2 236.1,227.4 238.9,220.3 239.7,212.8 238.5,206.0 235.5,200.6 231.2,197.3 225.9,196.5 220.5,198.1 215.6,202.0 211.6,207.6 209.0,214.3 208.2,221.4" fill="rgb(18,18,22)"/><polygon points="268.5,174.2 269.0,187.5 263.1,185.2 262.6,171.7" fill="rgb(255,100,110)"/><polygon points="217.9,193.7 223.1,194.6 231.2,197.3 225.9,196.5" fill="rgb(14,14,18)"/><polygon points="212.8,236.2 207.6,235.0 215.9,237.0 221.0,238.3" fill="rgb(14,14,18)"/><polygon points="200.0,219.1 200.9,211.9 203.5,205.1 207.5,199.4 212.5,195.4 217.9,193.7 223.1,194.6 227.5,197.9 230.4,203.3 231.6,210.3 230.7,217.9 227.9,225.1 223.6,231.0 218.3,234.9 212.8,236.2 207.6,235.0 203.5,231.3 200.9,225.8" fill="rgb(30,30,36)"/><polygon points="209.0,216.4 210.1,211.4 213.1,207.6 216.9,206.5 220.0,208.6 221.3,213.0 220.2,218.2 217.1,222.0 213.3,223.0 210.2,220.9" fill="rgb(180,180,190)"/><polygon points="223.1,194.6 227.5,197.9 235.5,200.6 231.2,197.3" fill="rgb(14,14,17)"/><polygon points="218.3,234.9 212.8,236.2 221.0,238.3 226.6,237.0" fill="rgb(14,14,17)"/><polygon points="227.5,197.9 230.4,203.3 238.5,206.0 235.5,200.6" fill="rgb(13,13,16)"/><polygon points="223.6,231.0 218.3,234.9 226.6,237.0 231.8,233.2" fill="rgb(13,13,15)"/><polygon points="230.4,203.3 231.6,210.3 239.7,212.8 238.5,206.0" fill="rgb(11,11,14)"/><polygon points="227.9,225.1 223.6,231.0 231.8,233.2 236.1,227.4" fill="rgb(11,11,13)"/><polygon points="231.6,210.3 230.7,217.9 238.9,220.3 239.7,212.8" fill="rgb(9,9,11)"/><polygon points="230.7,217.9 227.9,225.1 236.1,227.4 238.9,220.3" fill="rgb(8,8,10)"/></svg>