<svg xmlns="http://www.w3.org/2000/svg" viewBox="0 0 400 400"><rect width="400" height="400" fill="#0f1020"/><rect x="0" y="250" width="400" height="150" fill="#0a0b17"/><ellipse cx="200" cy="262" rx="120" ry="16" fill="rgba(0,0,0,0.45)"/><polygon points="170.1,207.3 171.5,207.1 187.9,175.5 186.4,175.9" fill="rgb(35,10,18)"/><polygon points="162.0,247.4 159.6,252.3 154.4,250.7 156.8,245.7" fill="rgb(10,10,12)"/><polygon points="165.4,243.4 162.0,247.4 156.8,245.7 160.3,241.7" fill="rgb(12,12,15)"/><polygon points="159.6,252.3 158.7,257.7 153.5,256.1 154.4,250.7" fill="rgb(8,8,10)"/><polygon points="169.7,241.0 165.4,243.4 160.3,241.7 164.6,239.2" fill="rgb(13,13,16)"/><polygon points="158.7,257.7 159.4,262.9 154.2,261.4 153.5,256.1" fill="rgb(9,9,12)"/><polygon points="132.5,222.7 132.1,233.0 136.5,234.5 136.9,224.3" fill="rgb(255,100,110)"/><polygon points="174.3,240.3 169.7,241.0 164.6,239.2 169.2,238.5" fill="rgb(14,14,17)"/><polygon points="159.4,262.9 161.5,267.3 156.3,265.9 154.2,261.4" fill="rgb(11,11,14)"/><polygon points="177.0,255.3 176.1,251.8 173.6,250.0 170.4,250.4 167.8,253.0 166.8,256.7 167.7,260.1 170.2,262.0 173.4,261.6 176.0,259.0" fill="rgb(180,180,190)"/><polygon points="185.1,254.2 184.3,248.8 182.1,244.4 178.5,241.5 174.3,240.3 169.7,241.0 165.4,243.4 162.0,247.4 159.6,252.3 158.7,257.7 159.4,262.9 161.5,267.3 164.9,270.4 169.2,271.8 173.8,271.3 178.2,268.8 181.8,264.8 184.2,259.7" fill="rgb(30,30,36)"/><polygon points="178.5,241.5 174.3,240.3 169.2,238.5 173.5,239.7" fill="rgb(14,14,17)"/><polygon points="161.5,267.3 164.9,270.4 159.7,269.0 156.3,265.9" fill="rgb(13,13,16)"/><polygon points="182.1,244.4 178.5,241.5 173.5,239.7 177.1,242.7" fill="rgb(13,13,16)"/><polygon points="164.9,270.4 169.2,271.8 164.0,270.4 159.7,269.0" fill="rgb(14,14,17)"/><polygon points="179.2,258.1 176.8,263.3 173.1,267.4 168.7,269.8 164.0,270.4 159.7,269.0 156.3,265.9 154.2,261.4 153.5,256.1 154.4,250.7 156.8,245.7 160.3,241.7 164.6,239.2 169.2,238.5 173.5,239.7 177.1,242.7 179.4,247.1 180.1,252.5" fill="rgb(18,18,22)"/><polygon points="184.3,248.8 182.1,244.4 177.1,242.7 179.4,247.1" fill="rgb(11,11,14)"/><polygon points="169.2,271.8 173.8,271.3 168.7,269.8 164.0,270.4" fill="rgb(14,14,17)"/><polygon points="185.1,254.2 184.3,248.8 179.4,247.1 180.1,252.5" fill="rgb(9,9,12)"/><polygon points="173.8,271.3 178.2,268.8 173.1,267.4 168.7,269.8" fill="rgb(13,13,16)"/><polygon points="184.2,259.7 185.1,254.2 180.1,252.5 179.2,258.1" fill="rgb(8,8,10)"/><polygon points="178.2,268.8 181.8,264.8 176.8,263.3 173.1,267.4" fill="rgb(12,12,15)"/><polygon points="181.8,264.8 184.2,259.7 179.2,258.1 176.8,263.3" fill="rgb(10,10,12)"/><polygon points="95.4,191.0 147.7,212.5 146.4,254.0 92.4,237.7" fill="rgb(69,12,19)"/><polygon points="262.6,189.6 241.9,162.7 185.4,175.3 170.0,207.3" fill="rgb(68,94,137)"/><polygon points="170.0,207.3 185.4,175.3 142.3,151.1 122.7,186.0" fill="rgb(17,26,46)"/><polygon points="310.0,181.7 313.3,230.6 146.4,254.0 147.7,212.5" fill="rgb(188,48,61)"/><polygon points="106.4,213.0 105.8,223.9 110.8,225.7 111.4,214.9" fill="rgb(255,100,110)"/><polygon points="260.9,190.0 262.7,189.7 242.8,163.3 241.1,163.7" fill="rgb(35,10,18)"/><polygon points="241.9,162.7 203.2,135.0 142.3,151.1 185.4,175.3" fill="rgb(93,19,31)"/><polygon points="310.0,181.7 147.7,212.5 95.4,191.0 272.8,150.2" fill="rgb(190,85,93)"/><polygon points="122.6,185.9 124.1,185.6 142.6,150.0 141.1,150.4" fill="rgb(35,10,18)"/><polygon points="271.2,231.5 268.6,237.1 264.5,235.0 267.1,229.3" fill="rgb(10,10,12)"/><polygon points="275.4,227.0 271.2,231.5 267.1,229.3 271.4,224.8" fill="rgb(12,12,15)"/><polygon points="268.6,237.1 267.9,243.1 263.7,241.1 264.5,235.0" fill="rgb(8,8,10)"/><polygon points="280.7,224.2 275.4,227.0 271.4,224.8 276.7,221.9" fill="rgb(13,13,16)"/><polygon points="267.9,243.1 269.1,248.9 264.9,247.0 263.7,241.1" fill="rgb(9,9,12)"/><polygon points="286.5,223.3 280.7,224.2 276.7,221.9 282.6,221.0" fill="rgb(14,14,17)"/><polygon points="269.1,248.9 272.2,253.8 268.0,252.0 264.9,247.0" fill="rgb(11,11,14)"/><polygon points="103.1,227.8 100.4,233.5 107.2,235.7 109.8,230.0" fill="rgb(10,10,12)"/><polygon points="291.2,240.1 289.7,236.2 286.3,234.2 282.2,234.8 279.1,237.7 278.0,241.8 279.5,245.7 282.9,247.7 286.9,247.2 290.1,244.3" fill="rgb(180,180,190)"/><polygon points="107.1,223.2 103.1,227.8 109.8,230.0 113.7,225.5" fill="rgb(12,12,15)"/><polygon points="100.4,233.5 99.3,239.7 106.0,241.8 107.2,235.7" fill="rgb(8,8,10)"/><polygon points="301.6,238.6 300.2,232.6 296.9,227.8 292.1,224.5 286.5,223.3 280.7,224.2 275.4,227.0 271.2,231.5 268.6,237.1 267.9,243.1 269.1,248.9 272.2,253.8 276.8,257.2 282.4,258.7 288.3,258.0 293.8,255.2 298.2,250.7 300.9,244.9" fill="rgb(30,30,36)"/><polygon points="111.7,220.3 107.1,223.2 113.7,225.5 118.3,222.6" fill="rgb(13,13,16)"/><polygon points="99.3,239.7 99.7,245.7 106.5,247.6 106.0,241.8" fill="rgb(9,9,12)"/><polygon points="292.1,224.5 286.5,223.3 282.6,221.0 288.3,222.2" fill="rgb(14,14,17)"/><polygon points="272.2,253.8 276.8,257.2 272.7,255.4 268.0,252.0" fill="rgb(13,13,16)"/><polygon points="116.6,219.4 111.7,220.3 118.3,222.6 123.2,221.8" fill="rgb(14,14,17)"/><polygon points="99.7,245.7 101.8,250.7 108.7,252.6 106.5,247.6" fill="rgb(11,11,14)"/><polygon points="262.6,189.6 223.0,163.1 203.2,135.0 241.9,162.7" fill="rgb(19,29,52)"/><polygon points="313.3,230.6 275.4,206.5 92.4,237.7 146.4,254.0" fill="rgb(23,6,9)"/><polygon points="133.3,243.5 130.5,249.4 126.4,254.0 121.6,256.8 116.7,257.5 112.2,256.0 108.7,252.6 106.5,247.6 106.0,241.8 107.2,235.7 109.8,230.0 113.7,225.5 118.3,222.6 123.2,221.8 127.8,223.0 131.4,226.2 133.7,231.2 134.4,237.2" fill="rgb(18,18,22)"/><polygon points="296.9,227.8 292.1,224.5 288.3,222.2 293.1,225.5" fill="rgb(13,13,16)"/><polygon points="276.8,257.2 282.4,258.7 278.3,256.9 272.7,255.4" fill="rgb(14,14,17)"/><polygon points="121.2,220.6 116.6,219.4 123.2,221.8 127.8,223.0" fill="rgb(14,14,17)"/><polygon points="101.8,250.7 105.4,254.2 112.2,256.0 108.7,252.6" fill="rgb(13,13,16)"/><polygon points="297.1,242.8 294.4,248.7 289.9,253.4 284.3,256.2 278.3,256.9 272.7,255.4 268.0,252.0 264.9,247.0 263.7,241.1 264.5,235.0 267.1,229.3 271.4,224.8 276.7,221.9 282.6,221.0 288.3,222.2 293.1,225.5 296.4,230.4 297.8,236.4" fill="rgb(18,18,22)"/><polygon points="300.2,232.6 296.9,227.8 293.1,225.5 296.4,230.4" fill="rgb(11,11,14)"/><polygon points="282.4,258.7 288.3,258.0 284.3,256.2 278.3,256.9" fill="rgb(14,14,17)"/><polygon points="124.9,223.9 121.2,220.6 127.8,223.0 131.4,226.2" fill="rgb(13,13,16)"/><polygon points="105.4,254.2 109.9,255.7 116.7,257.5 112.2,256.0" fill="rgb(14,14,17)"/><polygon points="301.6,238.6 300.2,232.6 296.4,230.4 297.8,236.4" fill="rgb(9,9,12)"/><polygon points="288.3,258.0 293.8,255.2 289.9,253.4 284.3,256.2" fill="rgb(13,13,16)"/><polygon points="127.8,235.0 127.2,228.9 124.9,223.9 121.2,220.6 116.6,219.4 111.7,220.3 107.1,223.2 103.1,227.8 100.4,233.5 99.3,239.7 99.7,245.7 101.8,250.7 105.4,254.2 109.9,255.7 114.9,255.0 119.7,252.1 123.9,247.3 126.7,241.4" fill="rgb(30,30,36)"/><polygon points="300.9,244.9 301.6,238.6 297.8,236.4 297.1,242.8" fill="rgb(8,8,10)"/><polygon points="293.8,255.2 298.2,250.7 294.4,248.7 289.9,253.4" fill="rgb(12,12,15)"/><polygon points="118.7,236.4 117.8,232.4 115.1,230.4 111.7,231.0 108.8,234.0 107.6,238.2 108.4,242.2 111.0,244.3 114.5,243.7 117.4,240.7" fill="rgb(180,180,190)"/><polygon points="298.2,250.7 300.9,244.9 297.1,242.8 294.4,248.7" fill="rgb(10,10,12)"/><polygon points="127.2,228.9 124.9,223.9 131.4,226.2 133.7,231.2" fill="rgb(11,11,14)"/><polygon points="109.9,255.7 114.9,255.0 121.6,256.8 116.7,257.5" fill="rgb(14,14,17)"/><polygon points="223.0,163.1 122.7,186.0 142.3,151.1 203.2,135.0" fill="rgb(72,99,143)"/><polygon points="127.8,235.0 127.2,228.9 133.7,231.2 134.4,237.2" fill="rgb(9,9,12)"/><polygon points="114.9,255.0 119.7,252.1 126.4,254.0 121.6,256.8" fill="rgb(13,13,16)"/><polygon points="126.7,241.4 127.8,235.0 134.4,237.2 133.3,243.5" fill="rgb(8,8,10)"/><polygon points="119.7,252.1 123.9,247.3 130.5,249.4 126.4,254.0" fill="rgb(12,12,15)"/><polygon points="123.9,247.3 126.7,241.4 133.3,243.5 130.5,249.4" fill="rgb(10,10,12)"/><polygon points="301.5,192.2 304.6,194.5 305.3,206.6 302.2,204.4" fill="rgb(255,235,160)"/><polygon points="272.8,150.2 95.4,191.0 92.4,237.7 275.4,206.5" fill="rgb(188,48,61)"/><polygon points="220.9,163.5 222.9,163.1 202.0,134.2 200.2,134.7" fill="rgb(35,10,18)"/><polygon points="310.0,181.7 272.8,150.2 275.4,206.5 313.3,230.6" fill="rgb(100,25,32)"/><polygon points="288.4,198.6 301.7,207.9 302.3,218.3 289.0,209.5" fill="rgb(18,18,22)"/><polygon points="283.0,177.9 286.6,180.7 287.3,193.6 283.7,191.0" fill="rgb(255,235,160)"/><polygon points="223.4,206.1 220.3,212.7 225.9,215.5 228.9,209.0" fill="rgb(10,10,12)"/><polygon points="228.2,200.7 223.4,206.1 228.9,209.0 233.7,203.8" fill="rgb(12,12,15)"/><polygon points="220.3,212.7 219.3,219.7 224.9,222.5 225.9,215.5" fill="rgb(8,8,10)"/><polygon points="234.2,197.2 228.2,200.7 233.7,203.8 239.6,200.4" fill="rgb(13,13,16)"/><polygon points="219.3,219.7 220.5,226.5 226.1,229.1 224.9,222.5" fill="rgb(9,9,12)"/><polygon points="240.8,196.0 234.2,197.2 239.6,200.4 246.1,199.2" fill="rgb(14,14,17)"/><polygon points="220.5,226.5 223.8,232.2 229.4,234.7 226.1,229.1" fill="rgb(11,11,14)"/><polygon points="261.7,223.6 258.5,230.4 253.4,235.8 247.2,239.1 240.6,240.1 234.4,238.5 229.4,234.7 226.1,229.1 224.9,222.5 225.9,215.5 228.9,209.0 233.7,203.8 239.6,200.4 246.1,199.2 252.3,200.4 257.6,204.0 261.1,209.5 262.6,216.3" fill="rgb(18,18,22)"/><polygon points="247.1,197.2 240.8,196.0 246.1,199.2 252.3,200.4" fill="rgb(14,14,17)"/><polygon points="223.8,232.2 228.8,236.0 234.4,238.5 229.4,234.7" fill="rgb(13,13,16)"/><polygon points="252.4,200.8 247.1,197.2 252.3,200.4 257.6,204.0" fill="rgb(13,13,16)"/><polygon points="228.8,236.0 235.1,237.6 240.6,240.1 234.4,238.5" fill="rgb(14,14,17)"/><polygon points="257.4,213.4 256.0,206.5 252.4,200.8 247.1,197.2 240.8,196.0 234.2,197.2 228.2,200.7 223.4,206.1 220.3,212.7 219.3,219.7 220.5,226.5 223.8,232.2 228.8,236.0 235.1,237.6 241.8,236.6 248.1,233.2 253.2,227.7 256.5,220.8" fill="rgb(30,30,36)"/><polygon points="245.3,215.3 243.7,210.8 239.9,208.6 235.3,209.4 231.7,212.9 230.4,217.8 231.9,222.2 235.7,224.5 240.3,223.8 243.9,220.3" fill="rgb(180,180,190)"/><polygon points="256.0,206.5 252.4,200.8 257.6,204.0 261.1,209.5" fill="rgb(11,11,14)"/><polygon points="235.1,237.6 241.8,236.6 247.2,239.1 240.6,240.1" fill="rgb(14,14,17)"/><polygon points="257.4,213.4 256.0,206.5 261.1,209.5 262.6,216.3" fill="rgb(9,9,12)"/><polygon points="241.8,236.6 248.1,233.2 253.4,235.8 247.2,239.1" fill="rgb(13,13,16)"/><polygon points="256.5,220.8 257.4,213.4 262.6,216.3 261.7,223.6" fill="rgb(8,8,10)"/><polygon points="248.1,233.2 253.2,227.7 258.5,230.4 253.4,235.8" fill="rgb(12,12,15)"/><polygon points="253.2,227.7 256.5,220.8 261.7,223.6 258.5,230.4" fill="rgb(10,10,12)"/></svg>