<svg xmlns="http://www.w3.org/2000/svg" viewBox="0 0 400 400"><rect width="400" height="400" fill="#0f1020"/><rect x="0" y="250" width="400" height="150" fill="#0a0b17"/><ellipse cx="200" cy="262" rx="120" ry="16" fill="rgba(0,0,0,0.45)"/><polygon points="188.3,230.3 188.3,240.1 194.7,240.6 194.7,230.8" fill="rgb(255,100,110)"/><polygon points="136.7,210.1 209.8,216.9 210.0,257.3 135.1,252.2" fill="rgb(112,19,30)"/><polygon points="152.1,227.3 151.8,237.3 158.6,237.8 158.8,227.8" fill="rgb(255,100,110)"/><polygon points="218.3,254.0 218.1,259.4 209.9,258.9 210.2,253.5" fill="rgb(12,12,15)"/><polygon points="219.2,248.9 218.3,254.0 210.2,253.5 211.1,248.3" fill="rgb(9,9,12)"/><polygon points="218.1,259.4 218.4,264.5 210.3,263.9 209.9,258.9" fill="rgb(15,15,18)"/><polygon points="220.6,244.6 219.2,248.9 211.1,248.3 212.4,244.0" fill="rgb(9,9,11)"/><polygon points="218.4,264.5 219.4,268.6 211.2,268.1 210.3,263.9" fill="rgb(16,16,19)"/><polygon points="222.3,241.7 220.6,244.6 212.4,244.0 214.1,241.0" fill="rgb(12,12,14)"/><polygon points="217.1,208.7 217.7,208.2 223.9,174.0 223.3,174.6" fill="rgb(35,10,18)"/><polygon points="219.4,268.6 220.9,271.4 212.6,270.9 211.2,268.1" fill="rgb(16,16,20)"/><polygon points="224.2,240.4 222.3,241.7 214.1,241.0 215.9,239.8" fill="rgb(14,14,17)"/><polygon points="225.9,255.1 225.5,251.7 224.3,250.2 223.0,251.0 221.9,253.8 221.6,257.6 222.0,260.9 223.1,262.5 224.5,261.8 225.6,258.9" fill="rgb(180,180,190)"/><polygon points="229.2,253.0 228.8,247.8 227.7,243.6 226.1,241.1 224.2,240.4 222.3,241.7 220.6,244.6 219.2,248.9 218.3,254.0 218.1,259.4 218.4,264.5 219.4,268.6 220.9,271.4 222.7,272.3 224.7,271.4 226.5,268.5 228.0,264.1 229.0,258.7" fill="rgb(30,30,36)"/><polygon points="220.9,271.4 222.7,272.3 214.3,271.8 212.6,270.9" fill="rgb(16,16,19)"/><polygon points="226.1,241.1 224.2,240.4 215.9,239.8 217.7,240.4" fill="rgb(16,16,19)"/><polygon points="220.4,258.2 219.5,263.6 218.0,268.0 216.2,270.9 214.3,271.8 212.6,270.9 211.2,268.1 210.3,263.9 209.9,258.9 210.2,253.5 211.1,248.3 212.4,244.0 214.1,241.0 215.9,239.8 217.7,240.4 219.2,243.0 220.3,247.1 220.7,252.4" fill="rgb(18,18,22)"/><polygon points="216.9,208.7 221.6,174.4 152.5,166.2 145.4,201.7" fill="rgb(15,23,40)"/><polygon points="222.7,272.3 224.7,271.4 216.2,270.9 214.3,271.8" fill="rgb(14,14,17)"/><polygon points="227.7,243.6 226.1,241.1 217.7,240.4 219.2,243.0" fill="rgb(16,16,20)"/><polygon points="133.3,248.0 132.9,253.7 141.8,254.3 142.2,248.7" fill="rgb(12,12,15)"/><polygon points="134.0,242.6 133.3,248.0 142.2,248.7 142.9,243.3" fill="rgb(9,9,12)"/><polygon points="224.7,271.4 226.5,268.5 218.0,268.0 216.2,270.9" fill="rgb(12,12,14)"/><polygon points="228.8,247.8 227.7,243.6 219.2,243.0 220.3,247.1" fill="rgb(16,16,19)"/><polygon points="132.9,253.7 132.9,259.0 141.8,259.5 141.8,254.3" fill="rgb(15,15,18)"/><polygon points="135.0,238.1 134.0,242.6 142.9,243.3 144.0,238.8" fill="rgb(9,9,11)"/><polygon points="226.5,268.5 228.0,264.1 219.5,263.6 218.0,268.0" fill="rgb(9,9,11)"/><polygon points="229.2,253.0 228.8,247.8 220.3,247.1 220.7,252.4" fill="rgb(15,15,18)"/><polygon points="132.9,259.0 133.2,263.3 142.3,263.8 141.8,259.5" fill="rgb(16,16,19)"/><polygon points="136.1,234.9 135.0,238.1 144.0,238.8 145.2,235.6" fill="rgb(12,12,14)"/><polygon points="228.0,264.1 229.0,258.7 220.4,258.2 219.5,263.6" fill="rgb(9,9,12)"/><polygon points="229.0,258.7 229.2,253.0 220.7,252.4 220.4,258.2" fill="rgb(12,12,15)"/><polygon points="145.3,201.7 145.6,201.2 151.0,165.3 150.6,166.0" fill="rgb(35,10,18)"/><polygon points="133.2,263.3 134.0,266.1 143.1,266.7 142.3,263.8" fill="rgb(16,16,20)"/><polygon points="137.3,233.6 136.1,234.9 145.2,235.6 146.4,234.3" fill="rgb(14,14,17)"/><polygon points="148.5,253.3 147.7,258.9 146.6,263.6 145.4,266.6 144.1,267.6 143.1,266.7 142.3,263.8 141.8,259.5 141.8,254.3 142.2,248.7 142.9,243.3 144.0,238.8 145.2,235.6 146.4,234.3 147.5,234.9 148.4,237.5 148.9,241.8 148.9,247.3" fill="rgb(18,18,22)"/><polygon points="134.0,266.1 134.9,267.1 144.1,267.6 143.1,266.7" fill="rgb(16,16,19)"/><polygon points="138.3,234.2 137.3,233.6 146.4,234.3 147.5,234.9" fill="rgb(16,16,19)"/><polygon points="139.5,246.6 139.5,241.1 139.1,236.8 138.3,234.2 137.3,233.6 136.1,234.9 135.0,238.1 134.0,242.6 133.3,248.0 132.9,253.7 132.9,259.0 133.2,263.3 134.0,266.1 134.9,267.1 136.1,266.0 137.3,263.0 138.3,258.3 139.1,252.6" fill="rgb(30,30,36)"/><polygon points="137.1,248.8 137.0,245.3 136.5,243.7 135.7,244.6 135.0,247.6 134.6,251.6 134.7,255.1 135.2,256.7 136.0,255.9 136.8,252.9" fill="rgb(180,180,190)"/><polygon points="134.9,267.1 136.1,266.0 145.4,266.6 144.1,267.6" fill="rgb(14,14,17)"/><polygon points="139.1,236.8 138.3,234.2 147.5,234.9 148.4,237.5" fill="rgb(16,16,20)"/><polygon points="258.3,174.1 246.4,149.9 221.6,174.4 216.9,208.7" fill="rgb(57,79,115)"/><polygon points="136.1,266.0 137.3,263.0 146.6,263.6 145.4,266.6" fill="rgb(12,12,14)"/><polygon points="139.5,241.1 139.1,236.8 148.4,237.5 148.9,241.8" fill="rgb(16,16,19)"/><polygon points="137.3,263.0 138.3,258.3 147.7,258.9 146.6,263.6" fill="rgb(9,9,11)"/><polygon points="246.4,149.9 169.4,139.4 152.5,166.2 221.6,174.4" fill="rgb(93,19,31)"/><polygon points="139.5,246.6 139.5,241.1 148.9,241.8 148.9,247.3" fill="rgb(15,15,18)"/><polygon points="138.3,258.3 139.1,252.6 148.5,253.3 147.7,258.9" fill="rgb(9,9,12)"/><polygon points="139.1,252.6 139.5,246.6 148.9,247.3 148.5,253.3" fill="rgb(12,12,15)"/><polygon points="285.2,154.6 288.1,209.9 210.0,257.3 209.8,216.9" fill="rgb(159,41,52)"/><polygon points="172.9,163.7 145.4,201.7 152.5,166.2 169.4,139.4" fill="rgb(61,84,122)"/><polygon points="285.2,154.6 209.8,216.9 136.7,210.1 185.4,141.1" fill="rgb(190,85,93)"/><polygon points="288.1,209.9 184.9,199.4 135.1,252.2 210.0,257.3" fill="rgb(23,6,9)"/><polygon points="257.6,174.9 258.5,174.2 248.3,150.1 247.5,150.9" fill="rgb(35,10,18)"/><polygon points="185.4,141.1 136.7,210.1 135.1,252.2 184.9,199.4" fill="rgb(159,41,52)"/><polygon points="258.3,174.1 172.9,163.7 169.4,139.4 246.4,149.9" fill="rgb(27,40,71)"/><polygon points="172.1,164.5 172.7,163.7 167.3,139.1 166.8,140.0" fill="rgb(35,10,18)"/><polygon points="268.4,224.0 268.2,230.8 258.3,229.9 258.5,223.1" fill="rgb(12,12,15)"/><polygon points="269.7,217.5 268.4,224.0 258.5,223.1 259.7,216.6" fill="rgb(9,9,12)"/><polygon points="268.2,230.8 269.0,236.9 259.0,236.1 258.3,229.9" fill="rgb(15,15,18)"/><polygon points="271.7,211.9 269.7,217.5 259.7,216.6 261.7,210.9" fill="rgb(9,9,11)"/><polygon points="269.0,236.9 270.7,241.9 260.6,241.1 259.0,236.1" fill="rgb(16,16,19)"/><polygon points="274.4,207.9 271.7,211.9 261.7,210.9 264.4,206.8" fill="rgb(12,12,14)"/><polygon points="270.7,241.9 273.1,245.1 263.0,244.3 260.6,241.1" fill="rgb(16,16,20)"/><polygon points="277.5,205.9 274.4,207.9 264.4,206.8 267.3,204.8" fill="rgb(14,14,17)"/><polygon points="280.7,223.8 279.8,219.7 277.9,218.0 275.7,219.3 274.2,223.0 273.7,227.8 274.5,231.8 276.4,233.6 278.5,232.5 280.2,228.7" fill="rgb(180,180,190)"/><polygon points="286.1,220.5 285.2,214.0 283.2,209.1 280.6,206.3 277.5,205.9 274.4,207.9 271.7,211.9 269.7,217.5 268.4,224.0 268.2,230.8 269.0,236.9 270.7,241.9 273.1,245.1 276.1,246.0 279.3,244.4 282.2,240.5 284.5,234.7 285.9,227.7" fill="rgb(30,30,36)"/><polygon points="273.1,245.1 276.1,246.0 265.8,245.2 263.0,244.3" fill="rgb(16,16,19)"/><polygon points="280.6,206.3 277.5,205.9 267.3,204.8 270.3,205.2" fill="rgb(16,16,19)"/><polygon points="275.3,226.8 274.0,233.8 271.7,239.6 268.9,243.6 265.8,245.2 263.0,244.3 260.6,241.1 259.0,236.1 258.3,229.9 258.5,223.1 259.7,216.6 261.7,210.9 264.4,206.8 267.3,204.8 270.3,205.2 272.8,208.0 274.7,213.0 275.5,219.5" fill="rgb(18,18,22)"/><polygon points="276.1,246.0 279.3,244.4 268.9,243.6 265.8,245.2" fill="rgb(14,14,17)"/><polygon points="283.2,209.1 280.6,206.3 270.3,205.2 272.8,208.0" fill="rgb(16,16,20)"/><polygon points="163.4,214.4 163.0,221.6 174.1,222.5 174.5,215.5" fill="rgb(12,12,15)"/><polygon points="164.5,207.5 163.4,214.4 174.5,215.5 175.6,208.5" fill="rgb(9,9,12)"/><polygon points="279.3,244.4 282.2,240.5 271.7,239.6 268.9,243.6" fill="rgb(12,12,14)"/><polygon points="285.2,214.0 283.2,209.1 272.8,208.0 274.7,213.0" fill="rgb(16,16,19)"/><polygon points="163.0,221.6 163.1,228.1 174.3,229.1 174.1,222.5" fill="rgb(15,15,18)"/><polygon points="165.9,201.4 164.5,207.5 175.6,208.5 177.1,202.5" fill="rgb(9,9,11)"/><polygon points="282.2,240.5 284.5,234.7 274.0,233.8 271.7,239.6" fill="rgb(9,9,11)"/><polygon points="286.1,220.5 285.2,214.0 274.7,213.0 275.5,219.5" fill="rgb(15,15,18)"/><polygon points="163.1,228.1 163.9,233.3 175.2,234.2 174.3,229.1" fill="rgb(16,16,19)"/><polygon points="167.7,197.0 165.9,201.4 177.1,202.5 179.0,198.1" fill="rgb(12,12,14)"/><polygon points="284.5,234.7 285.9,227.7 275.3,226.8 274.0,233.8" fill="rgb(9,9,12)"/><polygon points="285.9,227.7 286.1,220.5 275.5,219.5 275.3,226.8" fill="rgb(12,12,15)"/><polygon points="163.9,233.3 165.2,236.6 176.6,237.5 175.2,234.2" fill="rgb(16,16,20)"/><polygon points="169.6,194.7 167.7,197.0 179.0,198.1 181.0,195.9" fill="rgb(14,14,17)"/><polygon points="185.4,218.7 184.3,226.1 182.6,232.4 180.6,236.6 178.5,238.3 176.6,237.5 175.2,234.2 174.3,229.1 174.1,222.5 174.5,215.5 175.6,208.5 177.1,202.5 179.0,198.1 181.0,195.9 182.9,196.2 184.5,199.0 185.5,204.2 185.8,211.0" fill="rgb(18,18,22)"/><polygon points="165.2,236.6 166.9,237.4 178.5,238.3 176.6,237.5" fill="rgb(16,16,19)"/><polygon points="171.3,195.0 169.6,194.7 181.0,195.9 182.9,196.2" fill="rgb(16,16,19)"/><polygon points="257.4,171.5 266.1,172.6 266.6,186.0 257.9,185.0" fill="rgb(255,235,160)"/><polygon points="173.9,209.9 173.7,203.0 172.8,197.8 171.3,195.0 169.6,194.7 167.7,197.0 165.9,201.4 164.5,207.5 163.4,214.4 163.0,221.6 163.1,228.1 163.9,233.3 165.2,236.6 166.9,237.4 168.8,235.7 170.7,231.4 172.3,225.1 173.4,217.6" fill="rgb(30,30,36)"/><polygon points="170.0,213.6 169.7,209.3 168.7,207.6 167.4,209.1 166.3,213.1 165.8,218.2 166.1,222.4 167.1,224.3 168.4,222.9 169.5,218.9" fill="rgb(180,180,190)"/><polygon points="166.9,237.4 168.8,235.7 180.6,236.6 178.5,238.3" fill="rgb(14,14,17)"/><polygon points="172.8,197.8 171.3,195.0 182.9,196.2 184.5,199.0" fill="rgb(16,16,20)"/><polygon points="285.2,154.6 185.4,141.1 184.9,199.4 288.1,209.9" fill="rgb(161,41,52)"/><polygon points="168.8,235.7 170.7,231.4 182.6,232.4 180.6,236.6" fill="rgb(12,12,14)"/><polygon points="173.7,203.0 172.8,197.8 184.5,199.0 185.5,204.2" fill="rgb(16,16,19)"/><polygon points="219.5,185.2 255.8,189.3 256.2,200.7 219.6,196.9" fill="rgb(18,18,22)"/><polygon points="207.7,165.4 217.0,166.5 217.1,180.3 207.8,179.2" fill="rgb(255,235,160)"/><polygon points="170.7,231.4 172.3,225.1 184.3,226.1 182.6,232.4" fill="rgb(9,9,11)"/><polygon points="173.9,209.9 173.7,203.0 185.5,204.2 185.8,211.0" fill="rgb(15,15,18)"/><polygon points="172.3,225.1 173.4,217.6 185.4,218.7 184.3,226.1" fill="rgb(9,9,12)"/><polygon points="173.4,217.6 173.9,209.9 185.8,211.0 185.4,218.7" fill="rgb(12,12,15)"/></svg>