<svg xmlns="http://www.w3.org/2000/svg" viewBox="0 0 400 400"><rect width="400" height="400" fill="#0f1020"/><rect x="0" y="250" width="400" height="150" fill="#0a0b17"/><ellipse cx="200" cy="262" rx="120" ry="16" fill="rgba(0,0,0,0.45)"/><polygon points="201.8,230.5 201.8,240.3 208.4,240.5 208.4,230.7" fill="rgb(255,100,110)"/><polygon points="149.2,212.7 223.8,216.1 224.4,256.7 147.9,254.2" fill="rgb(119,20,32)"/><polygon points="164.9,229.0 164.7,238.9 171.5,239.1 171.6,229.2" fill="rgb(255,100,110)"/><polygon points="231.3,253.2 231.2,258.6 222.6,258.3 222.8,252.9" fill="rgb(13,13,16)"/><polygon points="231.8,248.0 231.3,253.2 222.8,252.9 223.2,247.7" fill="rgb(10,10,12)"/><polygon points="231.2,258.6 231.4,263.7 222.9,263.4 222.6,258.3" fill="rgb(15,15,19)"/><polygon points="232.6,243.6 231.8,248.0 223.2,247.7 224.0,243.3" fill="rgb(8,8,10)"/><polygon points="231.4,263.7 232.1,267.8 223.5,267.6 222.9,263.4" fill="rgb(17,17,20)"/><polygon points="233.7,240.6 232.6,243.6 224.0,243.3 225.0,240.3" fill="rgb(11,11,14)"/><polygon points="227.4,207.7 227.7,207.2 231.2,172.4 230.8,173.1" fill="rgb(35,10,18)"/><polygon points="232.1,267.8 233.1,270.6 224.4,270.3 223.5,267.6" fill="rgb(17,17,21)"/><polygon points="234.9,239.3 233.7,240.6 225.0,240.3 226.2,239.0" fill="rgb(14,14,17)"/><polygon points="144.4,250.2 144.1,255.7 153.0,256.0 153.2,250.5" fill="rgb(13,13,16)"/><polygon points="144.7,244.9 144.4,250.2 153.2,250.5 153.6,245.2" fill="rgb(10,10,12)"/><polygon points="227.2,207.7 229.0,173.0 157.9,168.8 153.8,204.2" fill="rgb(16,24,43)"/><polygon points="144.1,255.7 144.0,260.9 153.0,261.2 153.0,256.0" fill="rgb(15,15,19)"/><polygon points="145.0,240.4 144.7,244.9 153.6,245.2 154.0,240.7" fill="rgb(8,8,10)"/><polygon points="233.1,270.6 234.3,271.5 225.5,271.3 224.4,270.3" fill="rgb(16,16,19)"/><polygon points="236.2,254.0 235.9,250.7 235.1,249.1 234.3,250.0 233.7,252.8 233.5,256.6 233.8,260.0 234.5,261.6 235.4,260.8 236.0,257.9" fill="rgb(180,180,190)"/><polygon points="238.2,251.9 237.9,246.6 237.1,242.4 236.1,239.9 234.9,239.3 233.7,240.6 232.6,243.6 231.8,248.0 231.3,253.2 231.2,258.6 231.4,263.7 232.1,267.8 233.1,270.6 234.3,271.5 235.5,270.5 236.7,267.6 237.6,263.1 238.1,257.6" fill="rgb(30,30,36)"/><polygon points="229.1,257.3 228.6,262.8 227.7,267.3 226.6,270.2 225.5,271.3 224.4,270.3 223.5,267.6 222.9,263.4 222.6,258.3 222.8,252.9 223.2,247.7 224.0,243.3 225.0,240.3 226.2,239.0 227.3,239.6 228.2,242.1 228.9,246.3 229.2,251.6" fill="rgb(18,18,22)"/><polygon points="236.1,239.9 234.9,239.3 226.2,239.0 227.3,239.6" fill="rgb(16,16,19)"/><polygon points="144.0,260.9 144.0,265.2 153.0,265.5 153.0,261.2" fill="rgb(17,17,20)"/><polygon points="145.4,237.2 145.0,240.4 154.0,240.7 154.4,237.6" fill="rgb(11,11,14)"/><polygon points="153.6,204.1 153.8,203.6 156.1,168.0 156.0,168.7" fill="rgb(35,10,18)"/><polygon points="234.3,271.5 235.5,270.5 226.6,270.2 225.5,271.3" fill="rgb(14,14,17)"/><polygon points="144.0,265.2 144.1,268.0 153.2,268.2 153.0,265.5" fill="rgb(17,17,21)"/><polygon points="237.1,242.4 236.1,239.9 227.3,239.6 228.2,242.1" fill="rgb(17,17,21)"/><polygon points="145.7,235.9 145.4,237.2 154.4,237.6 154.8,236.2" fill="rgb(14,14,17)"/><polygon points="235.5,270.5 236.7,267.6 227.7,267.3 226.6,270.2" fill="rgb(11,11,14)"/><polygon points="237.9,246.6 237.1,242.4 228.2,242.1 228.9,246.3" fill="rgb(17,17,20)"/><polygon points="144.1,268.0 144.4,268.9 153.6,269.2 153.2,268.2" fill="rgb(16,16,19)"/><polygon points="155.2,254.9 154.9,260.5 154.4,265.1 154.0,268.1 153.6,269.2 153.2,268.2 153.0,265.5 153.0,261.2 153.0,256.0 153.2,250.5 153.6,245.2 154.0,240.7 154.4,237.6 154.8,236.2 155.2,236.8 155.4,239.3 155.5,243.6 155.4,249.0" fill="rgb(18,18,22)"/><polygon points="146.0,248.7 146.1,243.2 146.1,239.0 146.0,236.4 145.7,235.9 145.4,237.2 145.0,240.4 144.7,244.9 144.4,250.2 144.1,255.7 144.0,260.9 144.0,265.2 144.1,268.0 144.4,268.9 144.7,267.8 145.1,264.8 145.4,260.2 145.8,254.6" fill="rgb(30,30,36)"/><polygon points="145.1,250.9 145.2,247.5 145.1,245.9 144.8,246.8 144.6,249.8 144.4,253.7 144.4,257.1 144.5,258.7 144.7,257.9 144.9,254.9" fill="rgb(180,180,190)"/><polygon points="146.0,236.4 145.7,235.9 154.8,236.2 155.2,236.8" fill="rgb(16,16,19)"/><polygon points="236.7,267.6 237.6,263.1 228.6,262.8 227.7,267.3" fill="rgb(8,8,10)"/><polygon points="238.2,251.9 237.9,246.6 228.9,246.3 229.2,251.6" fill="rgb(15,15,19)"/><polygon points="237.6,263.1 238.1,257.6 229.1,257.3 228.6,262.8" fill="rgb(10,10,12)"/><polygon points="238.1,257.6 238.2,251.9 229.2,251.6 229.1,257.3" fill="rgb(13,13,16)"/><polygon points="144.4,268.9 144.7,267.8 154.0,268.1 153.6,269.2" fill="rgb(14,14,17)"/><polygon points="146.1,239.0 146.0,236.4 155.2,236.8 155.4,239.3" fill="rgb(17,17,21)"/><polygon points="144.7,267.8 145.1,264.8 154.4,265.1 154.0,268.1" fill="rgb(11,11,14)"/><polygon points="146.1,243.2 146.1,239.0 155.4,239.3 155.5,243.6" fill="rgb(17,17,20)"/><polygon points="145.1,264.8 145.4,260.2 154.9,260.5 154.4,265.1" fill="rgb(8,8,10)"/><polygon points="146.0,248.7 146.1,243.2 155.5,243.6 155.4,249.0" fill="rgb(15,15,19)"/><polygon points="145.4,260.2 145.8,254.6 155.2,254.9 154.9,260.5" fill="rgb(10,10,12)"/><polygon points="145.8,254.6 146.0,248.7 155.4,249.0 155.2,254.9" fill="rgb(13,13,16)"/><polygon points="252.7,170.9 244.1,146.9 229.0,173.0 227.2,207.7" fill="rgb(53,73,106)"/><polygon points="244.1,146.9 163.8,141.6 157.9,168.8 229.0,173.0" fill="rgb(93,19,31)"/><polygon points="163.1,165.7 153.8,204.2 157.9,168.8 163.8,141.6" fill="rgb(56,77,113)"/><polygon points="271.1,149.7 223.8,216.1 149.2,212.7 164.9,142.7" fill="rgb(190,85,93)"/><polygon points="271.1,149.7 273.5,206.1 224.4,256.7 223.8,216.1" fill="rgb(147,38,48)"/><polygon points="164.9,142.7 149.2,212.7 147.9,254.2 163.6,200.7" fill="rgb(147,38,48)"/><polygon points="273.5,206.1 163.6,200.7 147.9,254.2 224.4,256.7" fill="rgb(23,6,9)"/><polygon points="252.4,171.7 252.9,171.0 246.2,147.1 245.7,147.9" fill="rgb(35,10,18)"/><polygon points="252.7,170.9 163.1,165.7 163.8,141.6 244.1,146.9" fill="rgb(28,42,74)"/><polygon points="162.7,166.5 162.8,165.6 161.7,141.5 161.5,142.4" fill="rgb(35,10,18)"/><polygon points="263.2,221.2 263.1,228.1 252.4,227.6 252.5,220.7" fill="rgb(13,13,16)"/><polygon points="263.9,214.5 263.2,221.2 252.5,220.7 253.2,214.0" fill="rgb(10,10,12)"/><polygon points="263.1,228.1 263.7,234.3 252.9,233.9 252.4,227.6" fill="rgb(15,15,19)"/><polygon points="265.2,208.7 263.9,214.5 253.2,214.0 254.4,208.2" fill="rgb(8,8,10)"/><polygon points="263.7,234.3 264.8,239.4 253.9,238.9 252.9,233.9" fill="rgb(17,17,20)"/><polygon points="266.9,204.5 265.2,208.7 254.4,208.2 256.0,204.0" fill="rgb(11,11,14)"/><polygon points="264.8,239.4 266.5,242.5 255.5,242.1 253.9,238.9" fill="rgb(17,17,21)"/><polygon points="268.9,202.3 266.9,204.5 256.0,204.0 257.8,201.8" fill="rgb(14,14,17)"/><polygon points="152.9,216.3 152.7,223.4 164.0,223.9 164.3,216.8" fill="rgb(13,13,16)"/><polygon points="153.3,209.4 152.9,216.3 164.3,216.8 164.7,209.9" fill="rgb(10,10,12)"/><polygon points="152.7,223.4 152.6,229.9 164.0,230.3 164.0,223.9" fill="rgb(15,15,19)"/><polygon points="153.9,203.4 153.3,209.4 164.7,209.9 165.3,203.9" fill="rgb(8,8,10)"/><polygon points="266.5,242.5 268.5,243.3 257.3,242.9 255.5,242.1" fill="rgb(16,16,19)"/><polygon points="271.3,220.6 270.7,216.4 269.4,214.7 268.0,216.1 267.0,220.0 266.8,224.9 267.4,229.0 268.6,230.7 270.0,229.5 271.1,225.6" fill="rgb(180,180,190)"/><polygon points="274.7,217.0 274.0,210.4 272.7,205.4 270.9,202.6 268.9,202.3 266.9,204.5 265.2,208.7 263.9,214.5 263.2,221.2 263.1,228.1 263.7,234.3 264.8,239.4 266.5,242.5 268.5,243.3 270.5,241.6 272.4,237.6 273.8,231.6 274.6,224.4" fill="rgb(30,30,36)"/><polygon points="263.1,223.9 262.3,231.1 260.9,237.1 259.2,241.2 257.3,242.9 255.5,242.1 253.9,238.9 252.9,233.9 252.4,227.6 252.5,220.7 253.2,214.0 254.4,208.2 256.0,204.0 257.8,201.8 259.7,202.1 261.3,204.8 262.6,209.8 263.2,216.4" fill="rgb(18,18,22)"/><polygon points="270.9,202.6 268.9,202.3 257.8,201.8 259.7,202.1" fill="rgb(16,16,19)"/><polygon points="152.6,229.9 152.6,235.0 164.2,235.4 164.0,230.3" fill="rgb(17,17,20)"/><polygon points="154.4,198.9 153.9,203.4 165.3,203.9 166.0,199.5" fill="rgb(11,11,14)"/><polygon points="268.5,243.3 270.5,241.6 259.2,241.2 257.3,242.9" fill="rgb(14,14,17)"/><polygon points="152.6,235.0 152.9,238.2 164.6,238.6 164.2,235.4" fill="rgb(17,17,21)"/><polygon points="272.7,205.4 270.9,202.6 259.7,202.1 261.3,204.8" fill="rgb(17,17,21)"/><polygon points="155.0,196.6 154.4,198.9 166.0,199.5 166.7,197.2" fill="rgb(14,14,17)"/><polygon points="270.5,241.6 272.4,237.6 260.9,237.1 259.2,241.2" fill="rgb(11,11,14)"/><polygon points="274.0,210.4 272.7,205.4 261.3,204.8 262.6,209.8" fill="rgb(17,17,20)"/><polygon points="152.9,238.2 153.3,239.0 165.2,239.4 164.6,238.6" fill="rgb(16,16,19)"/><polygon points="167.8,219.7 167.3,227.1 166.6,233.4 165.9,237.6 165.2,239.4 164.6,238.6 164.2,235.4 164.0,230.3 164.0,223.9 164.3,216.8 164.7,209.9 165.3,203.9 166.0,199.5 166.7,197.2 167.3,197.4 167.8,200.2 168.1,205.3 168.0,212.1" fill="rgb(18,18,22)"/><polygon points="155.8,211.5 155.9,204.7 155.7,199.6 155.4,196.8 155.0,196.6 154.4,198.9 153.9,203.4 153.3,209.4 152.9,216.3 152.7,223.4 152.6,229.9 152.6,235.0 152.9,238.2 153.3,239.0 153.9,237.2 154.5,232.9 155.0,226.6 155.5,219.2" fill="rgb(30,30,36)"/><polygon points="154.4,215.3 154.4,211.1 154.2,209.4 153.8,210.9 153.4,214.9 153.2,219.9 153.2,224.1 153.4,225.9 153.8,224.6 154.2,220.5" fill="rgb(180,180,190)"/><polygon points="155.4,196.8 155.0,196.6 166.7,197.2 167.3,197.4" fill="rgb(16,16,19)"/><polygon points="272.4,237.6 273.8,231.6 262.3,231.1 260.9,237.1" fill="rgb(8,8,10)"/><polygon points="274.7,217.0 274.0,210.4 262.6,209.8 263.2,216.4" fill="rgb(15,15,19)"/><polygon points="273.8,231.6 274.6,224.4 263.1,223.9 262.3,231.1" fill="rgb(10,10,12)"/><polygon points="274.6,224.4 274.7,217.0 263.2,216.4 263.1,223.9" fill="rgb(13,13,16)"/><polygon points="153.3,239.0 153.9,237.2 165.9,237.6 165.2,239.4" fill="rgb(14,14,17)"/><polygon points="155.7,199.6 155.4,196.8 167.3,197.4 167.8,200.2" fill="rgb(17,17,21)"/><polygon points="153.9,237.2 154.5,232.9 166.6,233.4 165.9,237.6" fill="rgb(11,11,14)"/><polygon points="240.5,168.7 249.9,169.2 250.3,182.8 240.8,182.3" fill="rgb(255,235,160)"/><polygon points="155.9,204.7 155.7,199.6 167.8,200.2 168.1,205.3" fill="rgb(17,17,20)"/><polygon points="271.1,149.7 164.9,142.7 163.6,200.7 273.5,206.1" fill="rgb(171,44,56)"/><polygon points="154.5,232.9 155.0,226.6 167.3,227.1 166.6,233.4" fill="rgb(8,8,10)"/><polygon points="155.8,211.5 155.9,204.7 168.1,205.3 168.0,212.1" fill="rgb(15,15,19)"/><polygon points="155.0,226.6 155.5,219.2 167.8,219.7 167.3,227.1" fill="rgb(10,10,12)"/><polygon points="155.5,219.2 155.8,211.5 168.0,212.1 167.8,219.7" fill="rgb(13,13,16)"/><polygon points="187.7,165.5 197.4,166.1 197.4,179.9 187.6,179.3" fill="rgb(255,235,160)"/><polygon points="199.9,184.7 238.6,186.8 238.8,198.4 199.9,196.4" fill="rgb(18,18,22)"/></svg>