<svg xmlns="http://www.w3.org/2000/svg" viewBox="0 0 400 400"><rect width="400" height="400" fill="#0f1020"/><rect x="0" y="250" width="400" height="150" fill="#0a0b17"/><ellipse cx="200" cy="262" rx="120" ry="16" fill="rgba(0,0,0,0.45)"/><polygon points="234.1,252.9 231.9,248.0 237.5,246.4 239.7,251.4" fill="rgb(11,11,13)"/><polygon points="234.9,258.3 234.1,252.9 239.7,251.4 240.6,256.8" fill="rgb(14,14,17)"/><polygon points="231.9,248.0 228.6,244.0 234.2,242.4 237.5,246.4" fill="rgb(8,8,9)"/><polygon points="262.0,224.0 257.3,225.6 257.6,235.7 262.4,234.3" fill="rgb(255,235,160)"/><polygon points="234.3,263.5 234.9,258.3 240.6,256.8 240.0,262.1" fill="rgb(16,16,19)"/><polygon points="228.6,244.0 224.6,241.5 230.1,239.8 234.2,242.4" fill="rgb(11,11,14)"/><polygon points="232.3,267.8 234.3,263.5 240.0,262.1 237.9,266.5" fill="rgb(17,17,21)"/><polygon points="224.6,241.5 220.3,240.7 225.8,239.0 230.1,239.8" fill="rgb(14,14,17)"/><polygon points="227.3,257.2 226.4,253.5 223.9,250.9 220.9,250.4 218.5,252.2 217.6,255.6 218.6,259.4 221.1,262.0 224.1,262.4 226.5,260.6" fill="rgb(180,180,190)"/><polygon points="234.9,258.3 234.1,252.9 231.9,248.0 228.6,244.0 224.6,241.5 220.3,240.7 216.2,241.8 212.9,244.7 210.7,249.1 210.0,254.4 210.8,259.9 213.0,265.1 216.5,269.1 220.7,271.6 225.0,272.2 229.1,270.9 232.3,267.8 234.3,263.5" fill="rgb(30,30,36)"/><polygon points="229.1,270.9 232.3,267.8 237.9,266.5 234.7,269.5" fill="rgb(17,17,21)"/><polygon points="212.4,205.2 213.8,205.5 198.1,173.2 196.7,172.8" fill="rgb(35,10,18)"/><polygon points="220.3,240.7 216.2,241.8 221.7,240.1 225.8,239.0" fill="rgb(16,16,20)"/><polygon points="225.0,272.2 229.1,270.9 234.7,269.5 230.7,270.9" fill="rgb(16,16,20)"/><polygon points="216.2,241.8 212.9,244.7 218.4,243.0 221.7,240.1" fill="rgb(17,17,21)"/><polygon points="240.0,262.1 237.9,266.5 234.7,269.5 230.7,270.9 226.3,270.3 222.1,267.7 218.6,263.6 216.3,258.4 215.5,252.8 216.2,247.4 218.4,243.0 221.7,240.1 225.8,239.0 230.1,239.8 234.2,242.4 237.5,246.4 239.7,251.4 240.6,256.8" fill="rgb(18,18,22)"/><polygon points="220.7,271.6 225.0,272.2 230.7,270.9 226.3,270.3" fill="rgb(14,14,17)"/><polygon points="212.9,244.7 210.7,249.1 216.2,247.4 218.4,243.0" fill="rgb(17,17,21)"/><polygon points="245.8,213.6 301.7,193.6 304.5,239.7 246.9,254.8" fill="rgb(177,45,58)"/><polygon points="216.5,269.1 220.7,271.6 226.3,270.3 222.1,267.7" fill="rgb(11,11,14)"/><polygon points="210.7,249.1 210.0,254.4 215.5,252.8 216.2,247.4" fill="rgb(16,16,19)"/><polygon points="213.0,265.1 216.5,269.1 222.1,267.7 218.6,263.6" fill="rgb(8,8,9)"/><polygon points="210.0,254.4 210.8,259.9 216.3,258.4 215.5,252.8" fill="rgb(14,14,17)"/><polygon points="210.8,259.9 213.0,265.1 218.6,263.6 216.3,258.4" fill="rgb(11,11,13)"/><polygon points="283.9,231.5 263.7,237.3 264.0,246.0 284.4,240.5" fill="rgb(18,18,22)"/><polygon points="213.9,205.4 199.2,172.7 143.5,157.9 122.3,184.8" fill="rgb(49,67,98)"/><polygon points="289.9,215.1 284.5,216.8 285.1,227.5 290.4,225.9" fill="rgb(255,235,160)"/><polygon points="245.8,213.6 246.9,254.8 86.4,228.3 89.7,178.7" fill="rgb(136,35,44)"/><polygon points="213.9,205.4 264.8,184.9 246.0,149.2 199.2,172.7" fill="rgb(17,26,45)"/><polygon points="122.2,184.9 124.0,185.3 144.1,159.0 142.5,158.6" fill="rgb(35,10,18)"/><polygon points="199.2,172.7 246.0,149.2 187.0,130.6 143.5,157.9" fill="rgb(93,19,31)"/><polygon points="245.8,213.6 89.7,178.7 135.1,148.0 301.7,193.6" fill="rgb(190,85,93)"/><polygon points="297.7,235.5 295.2,229.8 288.1,231.8 290.5,237.5" fill="rgb(11,11,13)"/><polygon points="298.8,241.6 297.7,235.5 290.5,237.5 291.6,243.5" fill="rgb(14,14,17)"/><polygon points="295.2,229.8 291.6,225.2 284.5,227.3 288.1,231.8" fill="rgb(8,8,9)"/><polygon points="298.4,247.5 298.8,241.6 291.6,243.5 291.1,249.3" fill="rgb(16,16,19)"/><polygon points="291.6,225.2 287.3,222.2 280.2,224.4 284.5,227.3" fill="rgb(11,11,14)"/><polygon points="263.4,184.4 264.9,184.9 247.3,148.5 245.8,148.0" fill="rgb(35,10,18)"/><polygon points="296.5,252.4 298.4,247.5 291.1,249.3 289.2,254.1" fill="rgb(17,17,21)"/><polygon points="287.3,222.2 282.8,221.2 275.7,223.4 280.2,224.4" fill="rgb(14,14,17)"/><polygon points="129.7,235.7 127.1,230.0 132.0,227.9 134.6,233.7" fill="rgb(11,11,13)"/><polygon points="130.4,241.8 129.7,235.7 134.6,233.7 135.3,239.9" fill="rgb(14,14,17)"/><polygon points="291.1,249.3 289.2,254.1 286.0,257.5 281.9,258.9 277.3,258.1 272.8,255.2 269.1,250.6 266.5,244.7 265.4,238.4 266.0,232.5 268.1,227.7 271.5,224.5 275.7,223.4 280.2,224.4 284.5,227.3 288.1,231.8 290.5,237.5 291.6,243.5" fill="rgb(18,18,22)"/><polygon points="127.1,230.0 123.1,225.4 127.9,223.2 132.0,227.9" fill="rgb(8,8,9)"/><polygon points="293.3,255.8 296.5,252.4 289.2,254.1 286.0,257.5" fill="rgb(17,17,21)"/><polygon points="129.2,247.7 130.4,241.8 135.3,239.9 134.1,245.8" fill="rgb(16,16,19)"/><polygon points="123.1,225.4 117.9,222.4 122.6,220.2 127.9,223.2" fill="rgb(11,11,14)"/><polygon points="282.8,221.2 278.6,222.3 271.5,224.5 275.7,223.4" fill="rgb(16,16,20)"/><polygon points="126.2,252.6 129.2,247.7 134.1,245.8 131.1,250.8" fill="rgb(17,17,21)"/><polygon points="289.1,257.2 293.3,255.8 286.0,257.5 281.9,258.9" fill="rgb(16,16,20)"/><polygon points="117.9,222.4 112.2,221.4 116.9,219.2 122.6,220.2" fill="rgb(14,14,17)"/><polygon points="246.9,254.8 304.5,239.7 132.9,204.8 86.4,228.3" fill="rgb(23,6,9)"/><polygon points="278.6,222.3 275.2,225.5 268.1,227.7 271.5,224.5" fill="rgb(17,17,21)"/><polygon points="120.4,240.3 119.4,236.1 116.4,233.1 112.4,232.5 109.1,234.4 107.6,238.3 108.6,242.6 111.7,245.6 115.7,246.2 119.0,244.2" fill="rgb(180,180,190)"/><polygon points="130.4,241.8 129.7,235.7 127.1,230.0 123.1,225.4 117.9,222.4 112.2,221.4 106.7,222.6 102.0,225.7 98.8,230.6 97.4,236.6 98.0,243.0 100.7,248.9 105.0,253.6 110.4,256.6 116.2,257.4 121.7,256.0 126.2,252.6 129.2,247.7" fill="rgb(30,30,36)"/><polygon points="298.8,241.6 297.7,235.5 295.2,229.8 291.6,225.2 287.3,222.2 282.8,221.2 278.6,222.3 275.2,225.5 273.1,230.4 272.6,236.4 273.6,242.8 276.3,248.7 280.0,253.4 284.5,256.4 289.1,257.2 293.3,255.8 296.5,252.4 298.4,247.5" fill="rgb(30,30,36)"/><polygon points="291.2,240.0 290.1,235.8 287.4,232.7 284.3,232.1 281.8,234.1 281.0,238.0 282.2,242.3 284.9,245.3 288.1,245.9 290.5,243.9" fill="rgb(180,180,190)"/><polygon points="121.7,256.0 126.2,252.6 131.1,250.8 126.5,254.2" fill="rgb(17,17,21)"/><polygon points="284.5,256.4 289.1,257.2 281.9,258.9 277.3,258.1" fill="rgb(14,14,17)"/><polygon points="112.2,221.4 106.7,222.6 111.4,220.3 116.9,219.2" fill="rgb(16,16,20)"/><polygon points="275.2,225.5 273.1,230.4 266.0,232.5 268.1,227.7" fill="rgb(17,17,21)"/><polygon points="116.2,257.4 121.7,256.0 126.5,254.2 121.0,255.6" fill="rgb(16,16,20)"/><polygon points="280.0,253.4 284.5,256.4 277.3,258.1 272.8,255.2" fill="rgb(11,11,14)"/><polygon points="273.1,230.4 272.6,236.4 265.4,238.4 266.0,232.5" fill="rgb(16,16,19)"/><polygon points="106.7,222.6 102.0,225.7 106.6,223.5 111.4,220.3" fill="rgb(17,17,21)"/><polygon points="276.3,248.7 280.0,253.4 272.8,255.2 269.1,250.6" fill="rgb(8,8,9)"/><polygon points="134.1,245.8 131.1,250.8 126.5,254.2 121.0,255.6 115.2,254.8 109.7,251.8 105.4,247.0 102.7,241.0 102.0,234.5 103.4,228.4 106.6,223.5 111.4,220.3 116.9,219.2 122.6,220.2 127.9,223.2 132.0,227.9 134.6,233.7 135.3,239.9" fill="rgb(18,18,22)"/><polygon points="272.6,236.4 273.6,242.8 266.5,244.7 265.4,238.4" fill="rgb(14,14,17)"/><polygon points="273.6,242.8 276.3,248.7 269.1,250.6 266.5,244.7" fill="rgb(11,11,13)"/><polygon points="110.4,256.6 116.2,257.4 121.0,255.6 115.2,254.8" fill="rgb(14,14,17)"/><polygon points="102.0,225.7 98.8,230.6 103.4,228.4 106.6,223.5" fill="rgb(17,17,21)"/><polygon points="122.3,184.8 143.5,157.9 187.0,130.6 167.4,158.5" fill="rgb(29,43,76)"/><polygon points="105.0,253.6 110.4,256.6 115.2,254.8 109.7,251.8" fill="rgb(11,11,14)"/><polygon points="98.8,230.6 97.4,236.6 102.0,234.5 103.4,228.4" fill="rgb(16,16,19)"/><polygon points="100.7,248.9 105.0,253.6 109.7,251.8 105.4,247.0" fill="rgb(8,8,9)"/><polygon points="97.4,236.6 98.0,243.0 102.7,241.0 102.0,234.5" fill="rgb(14,14,17)"/><polygon points="98.0,243.0 100.7,248.9 105.4,247.0 102.7,241.0" fill="rgb(11,11,13)"/><polygon points="264.8,184.9 167.4,158.5 187.0,130.6 246.0,149.2" fill="rgb(52,72,105)"/><polygon points="301.7,193.6 135.1,148.0 132.9,204.8 304.5,239.7" fill="rgb(136,35,44)"/><polygon points="100.5,189.6 99.8,201.9 96.0,204.1 96.7,191.9" fill="rgb(255,100,110)"/><polygon points="167.5,158.4 169.4,158.9 190.0,130.3 188.2,129.8" fill="rgb(35,10,18)"/><polygon points="135.1,148.0 89.7,178.7 86.4,228.3 132.9,204.8" fill="rgb(124,21,33)"/><polygon points="186.1,212.3 183.1,205.6 176.7,208.4 179.6,215.0" fill="rgb(11,11,13)"/><polygon points="187.1,219.4 186.1,212.3 179.6,215.0 180.5,222.0" fill="rgb(14,14,17)"/><polygon points="183.1,205.6 178.5,200.1 172.1,203.0 176.7,208.4" fill="rgb(8,8,9)"/><polygon points="186.0,226.1 187.1,219.4 180.5,222.0 179.4,228.6" fill="rgb(16,16,19)"/><polygon points="123.1,175.7 122.5,188.9 118.1,191.4 118.7,178.4" fill="rgb(255,100,110)"/><polygon points="178.5,200.1 172.8,196.5 166.4,199.5 172.1,203.0" fill="rgb(11,11,14)"/><polygon points="182.8,231.7 186.0,226.1 179.4,228.6 176.3,234.2" fill="rgb(17,17,21)"/><polygon points="172.8,196.5 166.6,195.1 160.3,198.1 166.4,199.5" fill="rgb(14,14,17)"/><polygon points="179.4,228.6 176.3,234.2 171.5,237.9 165.6,239.4 159.3,238.3 153.4,234.8 148.5,229.2 145.4,222.3 144.5,215.0 145.9,208.2 149.3,202.7 154.3,199.2 160.3,198.1 166.4,199.5 172.1,203.0 176.7,208.4 179.6,215.0 180.5,222.0" fill="rgb(18,18,22)"/><polygon points="178.1,235.5 182.8,231.7 176.3,234.2 171.5,237.9" fill="rgb(17,17,21)"/><polygon points="166.6,195.1 160.6,196.1 154.3,199.2 160.3,198.1" fill="rgb(16,16,20)"/><polygon points="172.1,237.0 178.1,235.5 171.5,237.9 165.6,239.4" fill="rgb(16,16,20)"/><polygon points="160.6,196.1 155.5,199.7 149.3,202.7 154.3,199.2" fill="rgb(17,17,21)"/><polygon points="187.1,219.4 186.1,212.3 183.1,205.6 178.5,200.1 172.8,196.5 166.6,195.1 160.6,196.1 155.5,199.7 152.1,205.2 150.7,212.2 151.7,219.6 154.8,226.7 159.7,232.3 165.7,235.9 172.1,237.0 178.1,235.5 182.8,231.7 186.0,226.1" fill="rgb(30,30,36)"/><polygon points="176.5,217.2 175.3,212.2 171.8,208.6 167.5,207.7 163.9,209.9 162.4,214.4 163.7,219.4 167.2,223.0 171.6,223.9 175.1,221.6" fill="rgb(180,180,190)"/><polygon points="165.7,235.9 172.1,237.0 165.6,239.4 159.3,238.3" fill="rgb(14,14,17)"/><polygon points="155.5,199.7 152.1,205.2 145.9,208.2 149.3,202.7" fill="rgb(17,17,21)"/><polygon points="159.7,232.3 165.7,235.9 159.3,238.3 153.4,234.8" fill="rgb(11,11,14)"/><polygon points="152.1,205.2 150.7,212.2 144.5,215.0 145.9,208.2" fill="rgb(16,16,19)"/><polygon points="154.8,226.7 159.7,232.3 153.4,234.8 148.5,229.2" fill="rgb(8,8,9)"/><polygon points="150.7,212.2 151.7,219.6 145.4,222.3 144.5,215.0" fill="rgb(14,14,17)"/><polygon points="151.7,219.6 154.8,226.7 148.5,229.2 145.4,222.3" fill="rgb(11,11,13)"/></svg>