<svg xmlns="http://www.w3.org/2000/svg" viewBox="0 0 400 400"><rect width="400" height="400" fill="#0f1020"/><rect x="0" y="250" width="400" height="150" fill="#0a0b17"/><ellipse cx="200" cy="262" rx="120" ry="16" fill="rgba(0,0,0,0.45)"/><polygon points="159.4,200.6 157.6,200.6 177.9,171.1 179.7,171.1" fill="rgb(35,10,18)"/><polygon points="157.6,200.6 263.9,197.9 242.7,168.6 177.7,170.5" fill="rgb(66,91,132)"/><polygon points="263.9,198.0 262.0,198.0 240.9,169.3 242.7,169.3" fill="rgb(35,10,18)"/><polygon points="133.4,237.7 138.8,235.7 137.1,233.4 131.6,235.4" fill="rgb(15,15,18)"/><polygon points="138.8,235.7 144.5,235.6 142.8,233.3 137.1,233.4" fill="rgb(14,14,17)"/><polygon points="134.8,251.6 136.1,247.9 139.4,245.6 143.3,245.5 146.4,247.7 147.5,251.4 146.2,255.2 142.9,257.5 139.0,257.6 135.9,255.3" fill="rgb(180,180,190)"/><polygon points="129.0,241.3 133.4,237.7 131.6,235.4 127.0,239.1" fill="rgb(14,14,18)"/><polygon points="124.7,251.8 126.0,246.2 129.0,241.3 133.4,237.7 138.8,235.7 144.5,235.6 149.7,237.4 154.0,240.9 156.7,245.6 157.5,251.2 156.4,256.8 153.4,261.8 148.9,265.5 143.4,267.6 137.7,267.7 132.4,265.8 128.1,262.2 125.5,257.3" fill="rgb(30,30,36)"/><polygon points="144.5,235.6 149.7,237.4 148.1,235.1 142.8,233.3" fill="rgb(13,13,15)"/><polygon points="126.0,246.2 129.0,241.3 127.0,239.1 124.0,244.1" fill="rgb(13,13,16)"/><polygon points="113.4,202.5 295.4,198.0 298.0,243.0 111.2,246.4" fill="rgb(182,47,59)"/><polygon points="149.7,237.4 154.0,240.9 152.5,238.6 148.1,235.1" fill="rgb(11,11,13)"/><polygon points="124.7,251.8 126.0,246.2 124.0,244.1 122.7,249.7" fill="rgb(12,12,14)"/><polygon points="154.0,240.9 156.7,245.6 155.2,243.5 152.5,238.6" fill="rgb(8,8,10)"/><polygon points="125.5,257.3 124.7,251.8 122.7,249.7 123.5,255.3" fill="rgb(9,9,12)"/><polygon points="156.7,245.6 157.5,251.2 156.1,249.1 155.2,243.5" fill="rgb(9,9,12)"/><polygon points="128.1,262.2 125.5,257.3 123.5,255.3 126.1,260.3" fill="rgb(8,8,10)"/><polygon points="157.5,251.2 156.4,256.8 154.9,254.8 156.1,249.1" fill="rgb(12,12,14)"/><polygon points="132.4,265.8 128.1,262.2 126.1,260.3 130.4,264.0" fill="rgb(11,11,13)"/><polygon points="156.4,256.8 153.4,261.8 151.9,259.9 154.9,254.8" fill="rgb(13,13,16)"/><polygon points="137.7,267.7 132.4,265.8 130.4,264.0 135.8,265.9" fill="rgb(13,13,15)"/><polygon points="123.5,255.3 126.1,260.3 130.4,264.0 135.8,265.9 141.7,265.8 147.3,263.7 151.9,259.9 154.9,254.8 156.1,249.1 155.2,243.5 152.5,238.6 148.1,235.1 142.8,233.3 137.1,233.4 131.6,235.4 127.0,239.1 124.0,244.1 122.7,249.7" fill="rgb(18,18,22)"/><polygon points="258.4,235.2 263.8,233.2 264.2,230.8 258.6,232.9" fill="rgb(15,15,18)"/><polygon points="153.4,261.8 148.9,265.5 147.3,263.7 151.9,259.9" fill="rgb(14,14,18)"/><polygon points="263.8,233.2 269.7,233.1 270.1,230.7 264.2,230.8" fill="rgb(14,14,17)"/><polygon points="260.7,249.4 261.9,245.7 265.1,243.3 269.1,243.2 272.5,245.5 274.0,249.2 272.9,253.0 269.6,255.4 265.5,255.5 262.1,253.2" fill="rgb(180,180,190)"/><polygon points="143.4,267.6 137.7,267.7 135.8,265.9 141.7,265.8" fill="rgb(14,14,17)"/><polygon points="254.0,239.0 258.4,235.2 258.6,232.9 254.2,236.7" fill="rgb(14,14,18)"/><polygon points="148.9,265.5 143.4,267.6 141.7,265.8 147.3,263.7" fill="rgb(15,15,18)"/><polygon points="250.4,249.6 251.2,243.9 254.0,239.0 258.4,235.2 263.8,233.2 269.7,233.1 275.2,234.9 279.9,238.5 283.1,243.3 284.4,249.0 283.7,254.7 280.9,259.8 276.5,263.6 271.0,265.7 265.0,265.7 259.3,263.8 254.7,260.2 251.6,255.2" fill="rgb(30,30,36)"/><polygon points="269.7,233.1 275.2,234.9 275.8,232.5 270.1,230.7" fill="rgb(13,13,15)"/><polygon points="251.2,243.9 254.0,239.0 254.2,236.7 251.4,241.7" fill="rgb(13,13,16)"/><polygon points="275.2,234.9 279.9,238.5 280.6,236.2 275.8,232.5" fill="rgb(11,11,13)"/><polygon points="250.4,249.6 251.2,243.9 251.4,241.7 250.5,247.4" fill="rgb(12,12,14)"/><polygon points="279.9,238.5 283.1,243.3 283.8,241.1 280.6,236.2" fill="rgb(8,8,10)"/><polygon points="251.6,255.2 250.4,249.6 250.5,247.4 251.7,253.2" fill="rgb(9,9,12)"/><polygon points="283.1,243.3 284.4,249.0 285.1,246.8 283.8,241.1" fill="rgb(9,9,12)"/><polygon points="108.1,214.0 106.2,211.8 105.6,222.8 107.5,224.8" fill="rgb(255,235,160)"/><polygon points="254.7,260.2 251.6,255.2 251.7,253.2 254.9,258.2" fill="rgb(8,8,10)"/><polygon points="284.4,249.0 283.7,254.7 284.4,252.6 285.1,246.8" fill="rgb(12,12,14)"/><polygon points="259.3,263.8 254.7,260.2 254.9,258.2 259.6,262.0" fill="rgb(11,11,13)"/><polygon points="283.7,254.7 280.9,259.8 281.6,257.8 284.4,252.6" fill="rgb(13,13,16)"/><polygon points="265.0,265.7 259.3,263.8 259.6,262.0 265.4,263.9" fill="rgb(13,13,15)"/><polygon points="251.7,253.2 254.9,258.2 259.6,262.0 265.4,263.9 271.5,263.8 277.1,261.7 281.6,257.8 284.4,252.6 285.1,246.8 283.8,241.1 280.6,236.2 275.8,232.5 270.1,230.7 264.2,230.8 258.6,232.9 254.2,236.7 251.4,241.7 250.5,247.4" fill="rgb(18,18,22)"/><polygon points="280.9,259.8 276.5,263.6 277.1,261.7 281.6,257.8" fill="rgb(14,14,18)"/><polygon points="271.0,265.7 265.0,265.7 265.4,263.9 271.5,263.8" fill="rgb(14,14,17)"/><polygon points="276.5,263.6 271.0,265.7 271.5,263.8 277.1,261.7" fill="rgb(15,15,18)"/><polygon points="167.8,140.0 177.7,170.5 242.7,168.6 242.7,137.5" fill="rgb(93,19,31)"/><polygon points="143.7,172.8 157.6,200.6 177.7,170.5 167.8,140.0" fill="rgb(23,34,60)"/><polygon points="298.4,209.6 299.1,220.7 299.9,218.6 299.2,207.3" fill="rgb(255,100,110)"/><polygon points="267.4,169.3 242.7,137.5 242.7,168.6 263.9,197.9" fill="rgb(14,21,38)"/><polygon points="90.9,173.2 113.4,202.5 111.2,246.4 87.5,224.1" fill="rgb(127,32,41)"/><polygon points="90.9,173.2 304.8,167.0 295.4,198.0 113.4,202.5" fill="rgb(190,85,93)"/><polygon points="104.9,226.0 96.6,217.3 96.0,227.2 104.4,235.3" fill="rgb(18,18,22)"/><polygon points="87.5,224.1 111.2,246.4 298.0,243.0 308.2,219.3" fill="rgb(23,6,9)"/><polygon points="295.4,198.0 304.8,167.0 308.2,219.3 298.0,243.0" fill="rgb(88,15,24)"/><polygon points="97.0,201.2 94.8,198.6 94.1,210.4 96.3,212.8" fill="rgb(255,235,160)"/><polygon points="145.8,172.7 143.7,172.8 167.5,139.1 169.6,139.0" fill="rgb(35,10,18)"/><polygon points="143.7,172.8 167.8,140.0 242.7,137.5 267.4,169.3" fill="rgb(69,95,139)"/><polygon points="303.1,196.0 303.9,208.0 304.8,205.4 304.1,193.3" fill="rgb(255,100,110)"/><polygon points="267.4,169.2 265.2,169.3 240.6,136.6 242.7,136.5" fill="rgb(35,10,18)"/><polygon points="111.5,210.9 117.9,208.5 120.4,211.7 114.1,214.1" fill="rgb(15,15,18)"/><polygon points="117.9,208.5 124.7,208.4 127.0,211.6 120.4,211.7" fill="rgb(14,14,17)"/><polygon points="106.1,215.2 111.5,210.9 114.1,214.1 108.8,218.3" fill="rgb(14,14,18)"/><polygon points="104.4,236.9 107.4,242.6 112.4,246.8 118.6,249.0 125.4,248.9 131.9,246.4 137.2,242.0 140.8,236.2 142.2,229.7 141.3,223.2 138.1,217.7 133.2,213.6 127.0,211.6 120.4,211.7 114.1,214.1 108.8,218.3 105.1,224.0 103.6,230.5" fill="rgb(18,18,22)"/><polygon points="124.7,208.4 131.0,210.4 133.2,213.6 127.0,211.6" fill="rgb(13,13,15)"/><polygon points="102.4,221.0 106.1,215.2 108.8,218.3 105.1,224.0" fill="rgb(13,13,16)"/><polygon points="90.9,173.2 87.5,224.1 308.2,219.3 304.8,167.0" fill="rgb(182,47,59)"/><polygon points="131.0,210.4 136.0,214.6 138.1,217.7 133.2,213.6" fill="rgb(11,11,13)"/><polygon points="100.8,227.6 102.4,221.0 105.1,224.0 103.6,230.5" fill="rgb(12,12,14)"/><polygon points="136.0,214.6 139.2,220.2 141.3,223.2 138.1,217.7" fill="rgb(8,8,10)"/><polygon points="101.6,234.2 100.8,227.6 103.6,230.5 104.4,236.9" fill="rgb(9,9,12)"/><polygon points="139.2,220.2 140.2,226.8 142.2,229.7 141.3,223.2" fill="rgb(9,9,12)"/><polygon points="104.7,240.0 101.6,234.2 104.4,236.9 107.4,242.6" fill="rgb(8,8,10)"/><polygon points="140.2,226.8 138.7,233.5 140.8,236.2 142.2,229.7" fill="rgb(12,12,14)"/><polygon points="109.7,244.3 104.7,240.0 107.4,242.6 112.4,246.8" fill="rgb(11,11,13)"/><polygon points="138.7,233.5 135.1,239.4 137.2,242.0 140.8,236.2" fill="rgb(13,13,16)"/><polygon points="116.1,246.5 109.7,244.3 112.4,246.8 118.6,249.0" fill="rgb(13,13,15)"/><polygon points="100.8,227.6 102.4,221.0 106.1,215.2 111.5,210.9 117.9,208.5 124.7,208.4 131.0,210.4 136.0,214.6 139.2,220.2 140.2,226.8 138.7,233.5 135.1,239.4 129.6,243.9 123.0,246.3 116.1,246.5 109.7,244.3 104.7,240.0 101.6,234.2" fill="rgb(30,30,36)"/><polygon points="261.6,207.4 268.1,204.9 267.6,208.3 261.2,210.7" fill="rgb(15,15,18)"/><polygon points="135.1,239.4 129.6,243.9 131.9,246.4 137.2,242.0" fill="rgb(14,14,18)"/><polygon points="268.1,204.9 275.2,204.8 274.5,208.1 267.6,208.3" fill="rgb(14,14,17)"/><polygon points="112.7,227.3 114.4,222.9 118.3,220.1 123.0,220.0 126.7,222.6 128.0,227.0 126.4,231.4 122.4,234.2 117.6,234.3 113.9,231.7" fill="rgb(180,180,190)"/><polygon points="123.0,246.3 116.1,246.5 118.6,249.0 125.4,248.9" fill="rgb(14,14,17)"/><polygon points="256.3,211.8 261.6,207.4 261.2,210.7 256.0,215.0" fill="rgb(14,14,18)"/><polygon points="129.6,243.9 123.0,246.3 125.4,248.9 131.9,246.4" fill="rgb(15,15,18)"/><polygon points="253.2,234.0 256.9,239.8 262.4,244.1 269.1,246.3 276.2,246.2 282.7,243.7 288.0,239.2 291.2,233.3 292.1,226.6 290.5,220.0 286.7,214.3 281.1,210.2 274.5,208.1 267.6,208.3 261.2,210.7 256.0,215.0 252.8,220.8 251.8,227.4" fill="rgb(18,18,22)"/><polygon points="275.2,204.8 281.9,206.9 281.1,210.2 274.5,208.1" fill="rgb(13,13,15)"/><polygon points="253.0,217.7 256.3,211.8 256.0,215.0 252.8,220.8" fill="rgb(13,13,16)"/><polygon points="281.9,206.9 287.6,211.1 286.7,214.3 281.1,210.2" fill="rgb(11,11,13)"/><polygon points="251.9,224.4 253.0,217.7 252.8,220.8 251.8,227.4" fill="rgb(12,12,14)"/><polygon points="287.6,211.1 291.5,216.9 290.5,220.0 286.7,214.3" fill="rgb(8,8,10)"/><polygon points="253.4,231.2 251.9,224.4 251.8,227.4 253.2,234.0" fill="rgb(9,9,12)"/><polygon points="291.5,216.9 293.1,223.6 292.1,226.6 290.5,220.0" fill="rgb(9,9,12)"/><polygon points="257.2,237.1 253.4,231.2 253.2,234.0 256.9,239.8" fill="rgb(8,8,10)"/><polygon points="293.1,223.6 292.2,230.4 291.2,233.3 292.1,226.6" fill="rgb(12,12,14)"/><polygon points="262.8,241.4 257.2,237.1 256.9,239.8 262.4,244.1" fill="rgb(11,11,13)"/><polygon points="292.2,230.4 288.9,236.4 288.0,239.2 291.2,233.3" fill="rgb(13,13,16)"/><polygon points="269.7,243.7 262.8,241.4 262.4,244.1 269.1,246.3" fill="rgb(13,13,15)"/><polygon points="251.9,224.4 253.0,217.7 256.3,211.8 261.6,207.4 268.1,204.9 275.2,204.8 281.9,206.9 287.6,211.1 291.5,216.9 293.1,223.6 292.2,230.4 288.9,236.4 283.6,241.0 276.9,243.5 269.7,243.7 262.8,241.4 257.2,237.1 253.4,231.2" fill="rgb(30,30,36)"/><polygon points="288.9,236.4 283.6,241.0 282.7,243.7 288.0,239.2" fill="rgb(14,14,18)"/><polygon points="264.5,224.1 265.8,219.6 269.7,216.7 274.6,216.6 278.7,219.3 280.5,223.8 279.2,228.3 275.3,231.2 270.3,231.3 266.2,228.6" fill="rgb(180,180,190)"/><polygon points="276.9,243.5 269.7,243.7 269.1,246.3 276.2,246.2" fill="rgb(14,14,17)"/><polygon points="283.6,241.0 276.9,243.5 276.2,246.2 282.7,243.7" fill="rgb(15,15,18)"/></svg>