<svg xmlns="http://www.w3.org/2000/svg" viewBox="0 0 400 400"><rect width="400" height="400" fill="#0f1020"/><rect x="0" y="250" width="400" height="150" fill="#0a0b17"/><ellipse cx="200" cy="262" rx="120" ry="16" fill="rgba(0,0,0,0.45)"/><polygon points="198.2,230.5 191.6,230.7 191.6,240.5 198.2,240.3" fill="rgb(255,235,160)"/><polygon points="176.2,216.1 250.8,212.7 252.1,254.2 175.6,256.7" fill="rgb(184,47,60)"/><polygon points="235.1,229.0 228.4,229.2 228.5,239.1 235.3,238.9" fill="rgb(255,235,160)"/><polygon points="226.9,242.5 199.9,243.5 199.9,251.8 227.0,250.9" fill="rgb(18,18,22)"/><polygon points="168.8,258.6 168.7,253.2 177.2,252.9 177.4,258.3" fill="rgb(14,14,17)"/><polygon points="168.7,253.2 168.2,248.0 176.8,247.7 177.2,252.9" fill="rgb(11,11,14)"/><polygon points="168.6,263.7 168.8,258.6 177.4,258.3 177.1,263.4" fill="rgb(16,16,20)"/><polygon points="168.2,248.0 167.4,243.6 176.0,243.3 176.8,247.7" fill="rgb(8,8,9)"/><polygon points="167.9,267.8 168.6,263.7 177.1,263.4 176.5,267.6" fill="rgb(18,18,21)"/><polygon points="167.4,243.6 166.3,240.6 175.0,240.3 176.0,243.3" fill="rgb(11,11,13)"/><polygon points="166.9,270.6 167.9,267.8 176.5,267.6 175.6,270.3" fill="rgb(18,18,21)"/><polygon points="166.3,240.6 165.1,239.3 173.8,239.0 175.0,240.3" fill="rgb(14,14,17)"/><polygon points="255.9,255.7 255.6,250.2 246.8,250.5 247.0,256.0" fill="rgb(14,14,17)"/><polygon points="255.6,250.2 255.3,244.9 246.4,245.2 246.8,250.5" fill="rgb(11,11,14)"/><polygon points="256.0,260.9 255.9,255.7 247.0,256.0 247.0,261.2" fill="rgb(16,16,20)"/><polygon points="255.3,244.9 255.0,240.4 246.0,240.7 246.4,245.2" fill="rgb(8,8,9)"/><polygon points="165.7,271.5 166.9,270.6 175.6,270.3 174.5,271.3" fill="rgb(16,16,20)"/><polygon points="166.5,256.6 166.3,252.8 165.7,250.0 164.9,249.1 164.1,250.7 163.8,254.0 164.0,257.9 164.6,260.8 165.5,261.6 166.2,260.0" fill="rgb(180,180,190)"/><polygon points="168.8,258.6 168.7,253.2 168.2,248.0 167.4,243.6 166.3,240.6 165.1,239.3 163.9,239.9 162.9,242.4 162.1,246.6 161.8,251.9 161.9,257.6 162.4,263.1 163.3,267.6 164.5,270.5 165.7,271.5 166.9,270.6 167.9,267.8 168.6,263.7" fill="rgb(30,30,36)"/><polygon points="177.1,263.4 176.5,267.6 175.6,270.3 174.5,271.3 173.4,270.2 172.3,267.3 171.4,262.8 170.9,257.3 170.8,251.6 171.1,246.3 171.8,242.1 172.7,239.6 173.8,239.0 175.0,240.3 176.0,243.3 176.8,247.7 177.2,252.9 177.4,258.3" fill="rgb(18,18,22)"/><polygon points="165.1,239.3 163.9,239.9 172.7,239.6 173.8,239.0" fill="rgb(16,16,20)"/><polygon points="256.0,265.2 256.0,260.9 247.0,261.2 247.0,265.5" fill="rgb(18,18,21)"/><polygon points="255.0,240.4 254.6,237.2 245.6,237.6 246.0,240.7" fill="rgb(11,11,13)"/><polygon points="164.5,270.5 165.7,271.5 174.5,271.3 173.4,270.2" fill="rgb(14,14,17)"/><polygon points="255.9,268.0 256.0,265.2 247.0,265.5 246.8,268.2" fill="rgb(18,18,21)"/><polygon points="163.9,239.9 162.9,242.4 171.8,242.1 172.7,239.6" fill="rgb(18,18,21)"/><polygon points="169.3,202.9 169.7,203.4 166.1,167.8 165.7,167.1" fill="rgb(35,10,18)"/><polygon points="254.6,237.2 254.3,235.9 245.2,236.2 245.6,237.6" fill="rgb(14,14,17)"/><polygon points="163.3,267.6 164.5,270.5 173.4,270.2 172.3,267.3" fill="rgb(11,11,13)"/><polygon points="162.9,242.4 162.1,246.6 171.1,246.3 171.8,242.1" fill="rgb(18,18,21)"/><polygon points="255.6,268.9 255.9,268.0 246.8,268.2 246.4,269.2" fill="rgb(16,16,20)"/><polygon points="247.0,261.2 247.0,265.5 246.8,268.2 246.4,269.2 246.0,268.1 245.6,265.1 245.1,260.5 244.8,254.9 244.6,249.0 244.5,243.6 244.6,239.3 244.8,236.8 245.2,236.2 245.6,237.6 246.0,240.7 246.4,245.2 246.8,250.5 247.0,256.0" fill="rgb(18,18,22)"/><polygon points="169.9,203.4 245.1,199.7 240.9,163.4 167.9,167.7" fill="rgb(18,27,48)"/><polygon points="255.9,255.7 255.6,250.2 255.3,244.9 255.0,240.4 254.6,237.2 254.3,235.9 254.0,236.4 253.9,239.0 253.9,243.2 254.0,248.7 254.2,254.6 254.6,260.2 254.9,264.8 255.3,267.8 255.6,268.9 255.9,268.0 256.0,265.2 256.0,260.9" fill="rgb(30,30,36)"/><polygon points="255.6,253.7 255.4,249.8 255.2,246.8 254.9,245.9 254.8,247.5 254.9,250.9 255.1,254.9 255.3,257.9 255.5,258.7 255.6,257.1" fill="rgb(180,180,190)"/><polygon points="254.3,235.9 254.0,236.4 244.8,236.8 245.2,236.2" fill="rgb(16,16,20)"/><polygon points="162.4,263.1 163.3,267.6 172.3,267.3 171.4,262.8" fill="rgb(8,8,9)"/><polygon points="162.1,246.6 161.8,251.9 170.8,251.6 171.1,246.3" fill="rgb(16,16,20)"/><polygon points="161.9,257.6 162.4,263.1 171.4,262.8 170.9,257.3" fill="rgb(11,11,14)"/><polygon points="161.8,251.9 161.9,257.6 170.9,257.3 170.8,251.6" fill="rgb(14,14,17)"/><polygon points="255.3,267.8 255.6,268.9 246.4,269.2 246.0,268.1" fill="rgb(14,14,17)"/><polygon points="245.2,199.1 245.3,199.7 242.9,163.2 242.7,162.5" fill="rgb(35,10,18)"/><polygon points="254.0,236.4 253.9,239.0 244.6,239.3 244.8,236.8" fill="rgb(18,18,21)"/><polygon points="254.9,264.8 255.3,267.8 246.0,268.1 245.6,265.1" fill="rgb(11,11,13)"/><polygon points="253.9,239.0 253.9,243.2 244.5,243.6 244.6,239.3" fill="rgb(18,18,21)"/><polygon points="254.6,260.2 254.9,264.8 245.6,265.1 245.1,260.5" fill="rgb(8,8,9)"/><polygon points="253.9,243.2 254.0,248.7 244.6,249.0 244.5,243.6" fill="rgb(16,16,20)"/><polygon points="254.2,254.6 254.6,260.2 245.1,260.5 244.8,254.9" fill="rgb(11,11,14)"/><polygon points="254.0,248.7 254.2,254.6 244.8,254.9 244.6,249.0" fill="rgb(14,14,17)"/><polygon points="169.9,203.4 167.9,167.7 151.9,140.2 142.8,164.5" fill="rgb(46,63,92)"/><polygon points="167.9,167.7 240.9,163.4 234.6,134.6 151.9,140.2" fill="rgb(93,19,31)"/><polygon points="176.2,216.1 128.9,149.7 235.1,142.7 250.8,212.7" fill="rgb(190,85,93)"/><polygon points="176.2,216.1 175.6,256.7 126.5,206.1 128.9,149.7" fill="rgb(119,31,39)"/><polygon points="245.1,199.7 235.3,158.9 234.6,134.6 240.9,163.4" fill="rgb(43,59,85)"/><polygon points="250.8,212.7 235.1,142.7 236.4,200.7 252.1,254.2" fill="rgb(119,31,39)"/><polygon points="175.6,256.7 252.1,254.2 236.4,200.7 126.5,206.1" fill="rgb(23,6,9)"/><polygon points="142.6,164.6 143.2,165.4 150.3,141.2 149.8,140.4" fill="rgb(35,10,18)"/><polygon points="142.8,164.5 151.9,140.2 234.6,134.6 235.3,158.9" fill="rgb(29,44,78)"/><polygon points="235.5,158.9 235.7,159.8 237.0,135.3 236.9,134.4" fill="rgb(35,10,18)"/><polygon points="136.9,228.1 136.8,221.2 147.5,220.7 147.6,227.6" fill="rgb(14,14,17)"/><polygon points="136.8,221.2 136.1,214.5 146.8,214.0 147.5,220.7" fill="rgb(11,11,14)"/><polygon points="136.3,234.3 136.9,228.1 147.6,227.6 147.1,233.9" fill="rgb(16,16,20)"/><polygon points="136.1,214.5 134.8,208.7 145.6,208.2 146.8,214.0" fill="rgb(8,8,9)"/><polygon points="135.2,239.4 136.3,234.3 147.1,233.9 146.1,238.9" fill="rgb(18,18,21)"/><polygon points="134.8,208.7 133.1,204.5 144.0,204.0 145.6,208.2" fill="rgb(11,11,13)"/><polygon points="133.5,242.5 135.2,239.4 146.1,238.9 144.5,242.1" fill="rgb(18,18,21)"/><polygon points="133.1,204.5 131.1,202.3 142.2,201.8 144.0,204.0" fill="rgb(14,14,17)"/><polygon points="247.3,223.4 247.1,216.3 235.7,216.8 236.0,223.9" fill="rgb(14,14,17)"/><polygon points="247.1,216.3 246.7,209.4 235.3,209.9 235.7,216.8" fill="rgb(11,11,14)"/><polygon points="247.4,229.9 247.3,223.4 236.0,223.9 236.0,230.3" fill="rgb(16,16,20)"/><polygon points="246.7,209.4 246.1,203.4 234.7,203.9 235.3,209.9" fill="rgb(8,8,9)"/><polygon points="131.5,243.3 133.5,242.5 144.5,242.1 142.7,242.9" fill="rgb(16,16,20)"/><polygon points="133.2,224.9 133.0,220.0 132.0,216.1 130.6,214.7 129.3,216.4 128.7,220.6 128.9,225.6 130.0,229.5 131.4,230.7 132.6,229.0" fill="rgb(180,180,190)"/><polygon points="136.9,228.1 136.8,221.2 136.1,214.5 134.8,208.7 133.1,204.5 131.1,202.3 129.1,202.6 127.3,205.4 126.0,210.4 125.3,217.0 125.4,224.4 126.2,231.6 127.6,237.6 129.5,241.6 131.5,243.3 133.5,242.5 135.2,239.4 136.3,234.3" fill="rgb(30,30,36)"/><polygon points="147.1,233.9 146.1,238.9 144.5,242.1 142.7,242.9 140.8,241.2 139.1,237.1 137.7,231.1 136.9,223.9 136.8,216.4 137.4,209.8 138.7,204.8 140.3,202.1 142.2,201.8 144.0,204.0 145.6,208.2 146.8,214.0 147.5,220.7 147.6,227.6" fill="rgb(18,18,22)"/><polygon points="131.1,202.3 129.1,202.6 140.3,202.1 142.2,201.8" fill="rgb(16,16,20)"/><polygon points="247.4,235.0 247.4,229.9 236.0,230.3 235.8,235.4" fill="rgb(18,18,21)"/><polygon points="246.1,203.4 245.6,198.9 234.0,199.5 234.7,203.9" fill="rgb(11,11,13)"/><polygon points="129.5,241.6 131.5,243.3 142.7,242.9 140.8,241.2" fill="rgb(14,14,17)"/><polygon points="247.1,238.2 247.4,235.0 235.8,235.4 235.4,238.6" fill="rgb(18,18,21)"/><polygon points="129.1,202.6 127.3,205.4 138.7,204.8 140.3,202.1" fill="rgb(18,18,21)"/><polygon points="245.6,198.9 245.0,196.6 233.3,197.2 234.0,199.5" fill="rgb(14,14,17)"/><polygon points="127.6,237.6 129.5,241.6 140.8,241.2 139.1,237.1" fill="rgb(11,11,13)"/><polygon points="127.3,205.4 126.0,210.4 137.4,209.8 138.7,204.8" fill="rgb(18,18,21)"/><polygon points="246.7,239.0 247.1,238.2 235.4,238.6 234.8,239.4" fill="rgb(16,16,20)"/><polygon points="236.0,230.3 235.8,235.4 235.4,238.6 234.8,239.4 234.1,237.6 233.4,233.4 232.7,227.1 232.2,219.7 232.0,212.1 231.9,205.3 232.2,200.2 232.7,197.4 233.3,197.2 234.0,199.5 234.7,203.9 235.3,209.9 235.7,216.8 236.0,223.9" fill="rgb(18,18,22)"/><polygon points="247.3,223.4 247.1,216.3 246.7,209.4 246.1,203.4 245.6,198.9 245.0,196.6 244.6,196.8 244.3,199.6 244.1,204.7 244.2,211.5 244.5,219.2 245.0,226.6 245.5,232.9 246.1,237.2 246.7,239.0 247.1,238.2 247.4,235.0 247.4,229.9" fill="rgb(30,30,36)"/><polygon points="246.8,219.9 246.6,214.9 246.2,210.9 245.8,209.4 245.6,211.1 245.6,215.3 245.8,220.5 246.2,224.6 246.6,225.9 246.8,224.1" fill="rgb(180,180,190)"/><polygon points="245.0,196.6 244.6,196.8 232.7,197.4 233.3,197.2" fill="rgb(16,16,20)"/><polygon points="126.2,231.6 127.6,237.6 139.1,237.1 137.7,231.1" fill="rgb(8,8,9)"/><polygon points="126.0,210.4 125.3,217.0 136.8,216.4 137.4,209.8" fill="rgb(16,16,20)"/><polygon points="125.4,224.4 126.2,231.6 137.7,231.1 136.9,223.9" fill="rgb(11,11,14)"/><polygon points="125.3,217.0 125.4,224.4 136.9,223.9 136.8,216.4" fill="rgb(14,14,17)"/><polygon points="246.1,237.2 246.7,239.0 234.8,239.4 234.1,237.6" fill="rgb(14,14,17)"/><polygon points="244.6,196.8 244.3,199.6 232.2,200.2 232.7,197.4" fill="rgb(18,18,21)"/><polygon points="245.5,232.9 246.1,237.2 234.1,237.6 233.4,233.4" fill="rgb(11,11,13)"/><polygon points="159.5,168.7 159.2,182.3 149.7,182.8 150.1,169.2" fill="rgb(255,100,110)"/><polygon points="244.3,199.6 244.1,204.7 231.9,205.3 232.2,200.2" fill="rgb(18,18,21)"/><polygon points="235.1,142.7 128.9,149.7 126.5,206.1 236.4,200.7" fill="rgb(129,21,34)"/><polygon points="245.0,226.6 245.5,232.9 233.4,233.4 232.7,227.1" fill="rgb(8,8,9)"/><polygon points="244.1,204.7 244.2,211.5 232.0,212.1 231.9,205.3" fill="rgb(16,16,20)"/><polygon points="244.5,219.2 245.0,226.6 232.7,227.1 232.2,219.7" fill="rgb(11,11,14)"/><polygon points="244.2,211.5 244.5,219.2 232.2,219.7 232.0,212.1" fill="rgb(14,14,17)"/><polygon points="212.3,165.5 212.4,179.3 202.6,179.9 202.6,166.1" fill="rgb(255,100,110)"/></svg>