<svg xmlns="http://www.w3.org/2000/svg" viewBox="0 0 400 400"><rect width="400" height="400" fill="#0f1020"/><rect x="0" y="250" width="400" height="150" fill="#0a0b17"/><ellipse cx="200" cy="262" rx="120" ry="16" fill="rgba(0,0,0,0.45)"/><polygon points="143.2,201.0 145.0,200.9 165.5,171.5 163.7,171.6" fill="rgb(35,10,18)"/><polygon points="249.0,198.3 228.2,169.0 163.4,170.9 143.2,200.9" fill="rgb(66,91,132)"/><polygon points="247.2,198.4 249.0,198.4 228.2,169.7 226.4,169.7" fill="rgb(35,10,18)"/><polygon points="138.8,235.7 133.4,237.7 131.6,235.4 137.1,233.4" fill="rgb(15,15,18)"/><polygon points="144.5,235.6 138.8,235.7 137.1,233.4 142.8,233.3" fill="rgb(14,14,17)"/><polygon points="147.5,251.4 146.4,247.7 143.3,245.5 139.4,245.6 136.1,247.9 134.8,251.6 135.9,255.3 139.0,257.6 142.9,257.5 146.2,255.2" fill="rgb(180,180,190)"/><polygon points="133.4,237.7 129.0,241.3 127.0,239.1 131.6,235.4" fill="rgb(14,14,18)"/><polygon points="157.5,251.2 156.7,245.6 154.0,240.9 149.7,237.4 144.5,235.6 138.8,235.7 133.4,237.7 129.0,241.3 126.0,246.2 124.7,251.8 125.5,257.3 128.1,262.2 132.4,265.8 137.7,267.7 143.4,267.6 148.9,265.5 153.4,261.8 156.4,256.8" fill="rgb(30,30,36)"/><polygon points="149.7,237.4 144.5,235.6 142.8,233.3 148.1,235.1" fill="rgb(13,13,15)"/><polygon points="129.0,241.3 126.0,246.2 124.0,244.1 127.0,239.1" fill="rgb(13,13,16)"/><polygon points="295.4,198.0 298.0,243.0 111.2,246.4 113.4,202.5" fill="rgb(182,47,59)"/><polygon points="154.0,240.9 149.7,237.4 148.1,235.1 152.5,238.6" fill="rgb(11,11,13)"/><polygon points="126.0,246.2 124.7,251.8 122.7,249.7 124.0,244.1" fill="rgb(12,12,14)"/><polygon points="156.7,245.6 154.0,240.9 152.5,238.6 155.2,243.5" fill="rgb(8,8,10)"/><polygon points="124.7,251.8 125.5,257.3 123.5,255.3 122.7,249.7" fill="rgb(9,9,12)"/><polygon points="157.5,251.2 156.7,245.6 155.2,243.5 156.1,249.1" fill="rgb(9,9,12)"/><polygon points="125.5,257.3 128.1,262.2 126.1,260.3 123.5,255.3" fill="rgb(8,8,10)"/><polygon points="156.4,256.8 157.5,251.2 156.1,249.1 154.9,254.8" fill="rgb(12,12,14)"/><polygon points="128.1,262.2 132.4,265.8 130.4,264.0 126.1,260.3" fill="rgb(11,11,13)"/><polygon points="153.4,261.8 156.4,256.8 154.9,254.8 151.9,259.9" fill="rgb(13,13,16)"/><polygon points="132.4,265.8 137.7,267.7 135.8,265.9 130.4,264.0" fill="rgb(13,13,15)"/><polygon points="154.9,254.8 151.9,259.9 147.3,263.7 141.7,265.8 135.8,265.9 130.4,264.0 126.1,260.3 123.5,255.3 122.7,249.7 124.0,244.1 127.0,239.1 131.6,235.4 137.1,233.4 142.8,233.3 148.1,235.1 152.5,238.6 155.2,243.5 156.1,249.1" fill="rgb(18,18,22)"/><polygon points="263.8,233.2 258.4,235.2 258.6,232.9 264.2,230.8" fill="rgb(15,15,18)"/><polygon points="148.9,265.5 153.4,261.8 151.9,259.9 147.3,263.7" fill="rgb(14,14,18)"/><polygon points="269.7,233.1 263.8,233.2 264.2,230.8 270.1,230.7" fill="rgb(14,14,17)"/><polygon points="274.0,249.2 272.5,245.5 269.1,243.2 265.1,243.3 261.9,245.7 260.7,249.4 262.1,253.2 265.5,255.5 269.6,255.4 272.9,253.0" fill="rgb(180,180,190)"/><polygon points="137.7,267.7 143.4,267.6 141.7,265.8 135.8,265.9" fill="rgb(14,14,17)"/><polygon points="258.4,235.2 254.0,239.0 254.2,236.7 258.6,232.9" fill="rgb(14,14,18)"/><polygon points="143.4,267.6 148.9,265.5 147.3,263.7 141.7,265.8" fill="rgb(15,15,18)"/><polygon points="284.4,249.0 283.1,243.3 279.9,238.5 275.2,234.9 269.7,233.1 263.8,233.2 258.4,235.2 254.0,239.0 251.2,243.9 250.4,249.6 251.6,255.2 254.7,260.2 259.3,263.8 265.0,265.7 271.0,265.7 276.5,263.6 280.9,259.8 283.7,254.7" fill="rgb(30,30,36)"/><polygon points="275.2,234.9 269.7,233.1 270.1,230.7 275.8,232.5" fill="rgb(13,13,15)"/><polygon points="254.0,239.0 251.2,243.9 251.4,241.7 254.2,236.7" fill="rgb(13,13,16)"/><polygon points="279.9,238.5 275.2,234.9 275.8,232.5 280.6,236.2" fill="rgb(11,11,13)"/><polygon points="251.2,243.9 250.4,249.6 250.5,247.4 251.4,241.7" fill="rgb(12,12,14)"/><polygon points="283.1,243.3 279.9,238.5 280.6,236.2 283.8,241.1" fill="rgb(8,8,10)"/><polygon points="250.4,249.6 251.6,255.2 251.7,253.2 250.5,247.4" fill="rgb(9,9,12)"/><polygon points="284.4,249.0 283.1,243.3 283.8,241.1 285.1,246.8" fill="rgb(9,9,12)"/><polygon points="106.2,211.8 105.6,222.8 107.5,224.8 108.1,214.0" fill="rgb(255,100,110)"/><polygon points="251.6,255.2 254.7,260.2 254.9,258.2 251.7,253.2" fill="rgb(8,8,10)"/><polygon points="283.7,254.7 284.4,249.0 285.1,246.8 284.4,252.6" fill="rgb(12,12,14)"/><polygon points="254.7,260.2 259.3,263.8 259.6,262.0 254.9,258.2" fill="rgb(11,11,13)"/><polygon points="280.9,259.8 283.7,254.7 284.4,252.6 281.6,257.8" fill="rgb(13,13,16)"/><polygon points="259.3,263.8 265.0,265.7 265.4,263.9 259.6,262.0" fill="rgb(13,13,15)"/><polygon points="284.4,252.6 281.6,257.8 277.1,261.7 271.5,263.8 265.4,263.9 259.6,262.0 254.9,258.2 251.7,253.2 250.5,247.4 251.4,241.7 254.2,236.7 258.6,232.9 264.2,230.8 270.1,230.7 275.8,232.5 280.6,236.2 283.8,241.1 285.1,246.8" fill="rgb(18,18,22)"/><polygon points="276.5,263.6 280.9,259.8 281.6,257.8 277.1,261.7" fill="rgb(14,14,18)"/><polygon points="265.0,265.7 271.0,265.7 271.5,263.8 265.4,263.9" fill="rgb(14,14,17)"/><polygon points="271.0,265.7 276.5,263.6 277.1,261.7 271.5,263.8" fill="rgb(15,15,18)"/><polygon points="228.2,169.0 225.9,138.1 151.4,140.6 163.4,170.9" fill="rgb(93,19,31)"/><polygon points="143.2,200.9 163.4,170.9 151.4,140.6 127.0,173.3" fill="rgb(23,34,60)"/><polygon points="299.2,207.3 298.4,209.6 299.1,220.7 299.9,218.6" fill="rgb(255,235,160)"/><polygon points="249.0,198.3 250.1,169.8 225.9,138.1 228.2,169.0" fill="rgb(14,21,38)"/><polygon points="90.9,173.2 113.4,202.5 111.2,246.4 87.5,224.1" fill="rgb(88,15,24)"/><polygon points="295.4,198.0 113.4,202.5 90.9,173.2 304.8,167.0" fill="rgb(190,85,93)"/><polygon points="298.0,243.0 308.2,219.3 87.5,224.1 111.2,246.4" fill="rgb(23,6,9)"/><polygon points="295.4,198.0 304.8,167.0 308.2,219.3 298.0,243.0" fill="rgb(127,32,41)"/><polygon points="303.9,212.6 300.3,221.8 300.9,231.4 304.5,222.8" fill="rgb(18,18,22)"/><polygon points="94.8,198.6 94.1,210.4 96.3,212.8 97.0,201.2" fill="rgb(255,100,110)"/><polygon points="127.0,173.2 129.1,173.2 153.1,139.6 151.0,139.6" fill="rgb(35,10,18)"/><polygon points="250.1,169.8 127.0,173.3 151.4,140.6 225.9,138.1" fill="rgb(69,95,139)"/><polygon points="304.1,193.3 303.1,196.0 303.9,208.0 304.8,205.4" fill="rgb(255,235,160)"/><polygon points="247.9,169.8 250.1,169.7 225.8,137.1 223.7,137.2" fill="rgb(35,10,18)"/><polygon points="117.9,208.5 111.5,210.9 114.1,214.1 120.4,211.7" fill="rgb(15,15,18)"/><polygon points="124.7,208.4 117.9,208.5 120.4,211.7 127.0,211.6" fill="rgb(14,14,17)"/><polygon points="111.5,210.9 106.1,215.2 108.8,218.3 114.1,214.1" fill="rgb(14,14,18)"/><polygon points="140.8,236.2 137.2,242.0 131.9,246.4 125.4,248.9 118.6,249.0 112.4,246.8 107.4,242.6 104.4,236.9 103.6,230.5 105.1,224.0 108.8,218.3 114.1,214.1 120.4,211.7 127.0,211.6 133.2,213.6 138.1,217.7 141.3,223.2 142.2,229.7" fill="rgb(18,18,22)"/><polygon points="131.0,210.4 124.7,208.4 127.0,211.6 133.2,213.6" fill="rgb(13,13,15)"/><polygon points="106.1,215.2 102.4,221.0 105.1,224.0 108.8,218.3" fill="rgb(13,13,16)"/><polygon points="304.8,167.0 90.9,173.2 87.5,224.1 308.2,219.3" fill="rgb(182,47,59)"/><polygon points="136.0,214.6 131.0,210.4 133.2,213.6 138.1,217.7" fill="rgb(11,11,13)"/><polygon points="102.4,221.0 100.8,227.6 103.6,230.5 105.1,224.0" fill="rgb(12,12,14)"/><polygon points="139.2,220.2 136.0,214.6 138.1,217.7 141.3,223.2" fill="rgb(8,8,10)"/><polygon points="100.8,227.6 101.6,234.2 104.4,236.9 103.6,230.5" fill="rgb(9,9,12)"/><polygon points="140.2,226.8 139.2,220.2 141.3,223.2 142.2,229.7" fill="rgb(9,9,12)"/><polygon points="101.6,234.2 104.7,240.0 107.4,242.6 104.4,236.9" fill="rgb(8,8,10)"/><polygon points="138.7,233.5 140.2,226.8 142.2,229.7 140.8,236.2" fill="rgb(12,12,14)"/><polygon points="104.7,240.0 109.7,244.3 112.4,246.8 107.4,242.6" fill="rgb(11,11,13)"/><polygon points="135.1,239.4 138.7,233.5 140.8,236.2 137.2,242.0" fill="rgb(13,13,16)"/><polygon points="109.7,244.3 116.1,246.5 118.6,249.0 112.4,246.8" fill="rgb(13,13,15)"/><polygon points="140.2,226.8 139.2,220.2 136.0,214.6 131.0,210.4 124.7,208.4 117.9,208.5 111.5,210.9 106.1,215.2 102.4,221.0 100.8,227.6 101.6,234.2 104.7,240.0 109.7,244.3 116.1,246.5 123.0,246.3 129.6,243.9 135.1,239.4 138.7,233.5" fill="rgb(30,30,36)"/><polygon points="268.1,204.9 261.6,207.4 261.2,210.7 267.6,208.3" fill="rgb(15,15,18)"/><polygon points="129.6,243.9 135.1,239.4 137.2,242.0 131.9,246.4" fill="rgb(14,14,18)"/><polygon points="275.2,204.8 268.1,204.9 267.6,208.3 274.5,208.1" fill="rgb(14,14,17)"/><polygon points="128.0,227.0 126.7,222.6 123.0,220.0 118.3,220.1 114.4,222.9 112.7,227.3 113.9,231.7 117.6,234.3 122.4,234.2 126.4,231.4" fill="rgb(180,180,190)"/><polygon points="116.1,246.5 123.0,246.3 125.4,248.9 118.6,249.0" fill="rgb(14,14,17)"/><polygon points="261.6,207.4 256.3,211.8 256.0,215.0 261.2,210.7" fill="rgb(14,14,18)"/><polygon points="123.0,246.3 129.6,243.9 131.9,246.4 125.4,248.9" fill="rgb(15,15,18)"/><polygon points="291.2,233.3 288.0,239.2 282.7,243.7 276.2,246.2 269.1,246.3 262.4,244.1 256.9,239.8 253.2,234.0 251.8,227.4 252.8,220.8 256.0,215.0 261.2,210.7 267.6,208.3 274.5,208.1 281.1,210.2 286.7,214.3 290.5,220.0 292.1,226.6" fill="rgb(18,18,22)"/><polygon points="281.9,206.9 275.2,204.8 274.5,208.1 281.1,210.2" fill="rgb(13,13,15)"/><polygon points="256.3,211.8 253.0,217.7 252.8,220.8 256.0,215.0" fill="rgb(13,13,16)"/><polygon points="287.6,211.1 281.9,206.9 281.1,210.2 286.7,214.3" fill="rgb(11,11,13)"/><polygon points="253.0,217.7 251.9,224.4 251.8,227.4 252.8,220.8" fill="rgb(12,12,14)"/><polygon points="291.5,216.9 287.6,211.1 286.7,214.3 290.5,220.0" fill="rgb(8,8,10)"/><polygon points="251.9,224.4 253.4,231.2 253.2,234.0 251.8,227.4" fill="rgb(9,9,12)"/><polygon points="293.1,223.6 291.5,216.9 290.5,220.0 292.1,226.6" fill="rgb(9,9,12)"/><polygon points="253.4,231.2 257.2,237.1 256.9,239.8 253.2,234.0" fill="rgb(8,8,10)"/><polygon points="292.2,230.4 293.1,223.6 292.1,226.6 291.2,233.3" fill="rgb(12,12,14)"/><polygon points="257.2,237.1 262.8,241.4 262.4,244.1 256.9,239.8" fill="rgb(11,11,13)"/><polygon points="288.9,236.4 292.2,230.4 291.2,233.3 288.0,239.2" fill="rgb(13,13,16)"/><polygon points="262.8,241.4 269.7,243.7 269.1,246.3 262.4,244.1" fill="rgb(13,13,15)"/><polygon points="293.1,223.6 291.5,216.9 287.6,211.1 281.9,206.9 275.2,204.8 268.1,204.9 261.6,207.4 256.3,211.8 253.0,217.7 251.9,224.4 253.4,231.2 257.2,237.1 262.8,241.4 269.7,243.7 276.9,243.5 283.6,241.0 288.9,236.4 292.2,230.4" fill="rgb(30,30,36)"/><polygon points="283.6,241.0 288.9,236.4 288.0,239.2 282.7,243.7" fill="rgb(14,14,18)"/><polygon points="280.5,223.8 278.7,219.3 274.6,216.6 269.7,216.7 265.8,219.6 264.5,224.1 266.2,228.6 270.3,231.3 275.3,231.2 279.2,228.3" fill="rgb(180,180,190)"/><polygon points="269.7,243.7 276.9,243.5 276.2,246.2 269.1,246.3" fill="rgb(14,14,17)"/><polygon points="276.9,243.5 283.6,241.0 282.7,243.7 276.2,246.2" fill="rgb(15,15,18)"/></svg>