<svg xmlns="http://www.w3.org/2000/svg" viewBox="0 0 400 400"><rect width="400" height="400" fill="#0f1020"/><rect x="0" y="250" width="400" height="150" fill="#0a0b17"/><ellipse cx="200" cy="262" rx="120" ry="16" fill="rgba(0,0,0,0.45)"/><polygon points="188.0,230.6 181.7,230.0 181.6,239.8 187.9,240.4" fill="rgb(255,235,160)"/><polygon points="130.7,208.6 202.7,217.0 202.8,257.4 129.0,251.0" fill="rgb(155,40,51)"/><polygon points="179.9,243.0 153.9,240.5 153.7,248.9 179.8,251.3" fill="rgb(18,18,22)"/><polygon points="211.4,259.6 211.8,254.3 203.8,253.6 203.5,259.0" fill="rgb(12,12,14)"/><polygon points="211.8,254.3 212.8,249.2 204.9,248.4 203.8,253.6" fill="rgb(9,9,11)"/><polygon points="211.8,264.7 211.4,259.6 203.5,259.0 203.9,264.0" fill="rgb(14,14,17)"/><polygon points="212.8,249.2 214.4,244.9 206.5,244.2 204.9,248.4" fill="rgb(9,9,11)"/><polygon points="152.6,226.9 146.0,226.2 145.7,236.3 152.3,236.9" fill="rgb(255,235,160)"/><polygon points="212.9,268.9 211.8,264.7 203.9,264.0 204.9,268.2" fill="rgb(15,15,19)"/><polygon points="214.4,244.9 216.5,242.0 208.5,241.2 206.5,244.2" fill="rgb(12,12,14)"/><polygon points="214.7,271.6 212.9,268.9 204.9,268.2 206.6,271.0" fill="rgb(16,16,20)"/><polygon points="216.5,242.0 218.8,240.8 210.7,240.0 208.5,241.2" fill="rgb(14,14,17)"/><polygon points="215.5,257.9 216.0,254.1 217.2,251.3 218.8,250.5 220.1,252.1 220.6,255.5 220.2,259.3 218.9,262.1 217.3,262.8 216.0,261.2" fill="rgb(180,180,190)"/><polygon points="211.4,259.6 211.8,254.3 212.8,249.2 214.4,244.9 216.5,242.0 218.8,240.8 221.0,241.5 222.8,244.1 224.0,248.2 224.5,253.5 224.2,259.2 223.1,264.5 221.3,268.9 219.1,271.7 216.8,272.6 214.7,271.6 212.9,268.9 211.8,264.7" fill="rgb(30,30,36)"/><polygon points="216.8,272.6 214.7,271.6 206.6,271.0 208.7,272.0" fill="rgb(15,15,19)"/><polygon points="218.8,240.8 221.0,241.5 212.8,240.7 210.7,240.0" fill="rgb(15,15,19)"/><polygon points="203.9,264.0 204.9,268.2 206.6,271.0 208.7,272.0 210.9,271.0 213.0,268.2 214.8,263.8 215.9,258.4 216.3,252.7 215.8,247.5 214.6,243.3 212.8,240.7 210.7,240.0 208.5,241.2 206.5,244.2 204.9,248.4 203.8,253.6 203.5,259.0" fill="rgb(18,18,22)"/><polygon points="219.1,271.7 216.8,272.6 208.7,272.0 210.9,271.0" fill="rgb(14,14,17)"/><polygon points="221.0,241.5 222.8,244.1 214.6,243.3 212.8,240.7" fill="rgb(16,16,20)"/><polygon points="218.3,204.7 217.6,205.2 225.4,170.4 226.1,169.8" fill="rgb(35,10,18)"/><polygon points="221.3,268.9 219.1,271.7 210.9,271.0 213.0,268.2" fill="rgb(12,12,14)"/><polygon points="222.8,244.1 224.0,248.2 215.8,247.5 214.6,243.3" fill="rgb(15,15,19)"/><polygon points="223.1,264.5 221.3,268.9 213.0,268.2 214.8,263.8" fill="rgb(9,9,11)"/><polygon points="224.0,248.2 224.5,253.5 216.3,252.7 215.8,247.5" fill="rgb(14,14,17)"/><polygon points="224.2,259.2 223.1,264.5 214.8,263.8 215.9,258.4" fill="rgb(9,9,11)"/><polygon points="224.5,253.5 224.2,259.2 215.9,258.4 216.3,252.7" fill="rgb(12,12,14)"/><polygon points="127.7,252.5 128.2,246.8 137.0,247.6 136.5,253.3" fill="rgb(12,12,14)"/><polygon points="128.2,246.8 129.1,241.4 138.0,242.2 137.0,247.6" fill="rgb(9,9,11)"/><polygon points="127.7,257.8 127.7,252.5 136.5,253.3 136.6,258.6" fill="rgb(14,14,17)"/><polygon points="129.1,241.4 130.4,236.8 139.3,237.7 138.0,242.2" fill="rgb(9,9,11)"/><polygon points="145.8,196.0 217.4,205.1 223.7,170.2 154.7,159.4" fill="rgb(14,22,39)"/><polygon points="128.3,262.2 127.7,257.8 136.6,258.6 137.2,262.9" fill="rgb(15,15,19)"/><polygon points="130.4,236.8 131.9,233.6 140.9,234.5 139.3,237.7" fill="rgb(12,12,14)"/><polygon points="129.3,265.1 128.3,262.2 137.2,262.9 138.3,265.8" fill="rgb(16,16,20)"/><polygon points="131.9,233.6 133.5,232.3 142.5,233.2 140.9,234.5" fill="rgb(14,14,17)"/><polygon points="136.6,258.6 137.2,262.9 138.3,265.8 139.8,266.8 141.4,265.7 143.1,262.7 144.5,258.1 145.6,252.4 146.1,246.3 145.9,240.8 145.2,236.5 144.0,233.8 142.5,233.2 140.9,234.5 139.3,237.7 138.0,242.2 137.0,247.6 136.5,253.3" fill="rgb(18,18,22)"/><polygon points="130.6,266.1 129.3,265.1 138.3,265.8 139.8,266.8" fill="rgb(15,15,19)"/><polygon points="133.5,232.3 134.9,232.9 144.0,233.8 142.5,233.2" fill="rgb(15,15,19)"/><polygon points="127.7,252.5 128.2,246.8 129.1,241.4 130.4,236.8 131.9,233.6 133.5,232.3 134.9,232.9 136.0,235.6 136.7,239.9 136.7,245.5 136.2,251.5 135.2,257.3 133.8,262.0 132.2,265.0 130.6,266.1 129.3,265.1 128.3,262.2 127.7,257.8" fill="rgb(30,30,36)"/><polygon points="130.1,250.4 130.5,246.4 131.5,243.4 132.6,242.5 133.4,244.2 133.6,247.7 133.1,251.8 132.1,254.8 131.0,255.6 130.2,253.9" fill="rgb(180,180,190)"/><polygon points="146.2,195.4 145.7,196.0 152.8,159.1 153.4,158.5" fill="rgb(35,10,18)"/><polygon points="132.2,265.0 130.6,266.1 139.8,266.8 141.4,265.7" fill="rgb(14,14,17)"/><polygon points="134.9,232.9 136.0,235.6 145.2,236.5 144.0,233.8" fill="rgb(16,16,20)"/><polygon points="133.8,262.0 132.2,265.0 141.4,265.7 143.1,262.7" fill="rgb(12,12,14)"/><polygon points="136.0,235.6 136.7,239.9 145.9,240.8 145.2,236.5" fill="rgb(15,15,19)"/><polygon points="135.2,257.3 133.8,262.0 143.1,262.7 144.5,258.1" fill="rgb(9,9,11)"/><polygon points="217.4,205.1 268.8,170.1 254.5,145.3 223.7,170.2" fill="rgb(59,82,119)"/><polygon points="136.7,239.9 136.7,245.5 146.1,246.3 145.9,240.8" fill="rgb(14,14,17)"/><polygon points="136.2,251.5 135.2,257.3 144.5,258.1 145.6,252.4" fill="rgb(9,9,11)"/><polygon points="136.7,245.5 136.2,251.5 145.6,252.4 146.1,246.3" fill="rgb(12,12,14)"/><polygon points="202.7,217.0 291.1,157.4 294.2,212.0 202.8,257.4" fill="rgb(164,42,53)"/><polygon points="154.7,159.4 223.7,170.2 254.5,145.3 178.4,131.7" fill="rgb(93,19,31)"/><polygon points="130.7,208.6 195.9,140.8 291.1,157.4 202.7,217.0" fill="rgb(190,85,93)"/><polygon points="129.0,251.0 202.8,257.4 294.2,212.0 195.8,199.2" fill="rgb(23,6,9)"/><polygon points="145.8,196.0 154.7,159.4 178.4,131.7 184.5,156.5" fill="rgb(63,86,125)"/><polygon points="130.7,208.6 129.0,251.0 195.8,199.2 195.9,140.8" fill="rgb(164,42,53)"/><polygon points="268.9,170.2 267.9,170.9 255.4,146.4 256.4,145.6" fill="rgb(35,10,18)"/><polygon points="270.0,232.1 270.3,225.5 260.9,224.4 260.6,231.1" fill="rgb(12,12,14)"/><polygon points="184.5,156.5 178.4,131.7 254.5,145.3 268.8,170.1" fill="rgb(26,39,69)"/><polygon points="270.3,225.5 271.8,219.1 262.3,217.9 260.9,224.4" fill="rgb(9,9,11)"/><polygon points="270.9,238.3 270.0,232.1 260.6,231.1 261.4,237.3" fill="rgb(14,14,17)"/><polygon points="271.8,219.1 274.2,213.6 264.7,212.4 262.3,217.9" fill="rgb(9,9,11)"/><polygon points="272.8,243.2 270.9,238.3 261.4,237.3 263.2,242.3" fill="rgb(15,15,19)"/><polygon points="274.2,213.6 277.4,209.6 267.8,208.4 264.7,212.4" fill="rgb(12,12,14)"/><polygon points="275.6,246.4 272.8,243.2 263.2,242.3 266.0,245.4" fill="rgb(16,16,20)"/><polygon points="277.4,209.6 280.9,207.8 271.3,206.5 267.8,208.4" fill="rgb(14,14,17)"/><polygon points="276.3,229.3 276.9,224.6 278.7,221.0 281.2,219.8 283.4,221.5 284.4,225.6 283.8,230.4 281.9,234.1 279.4,235.2 277.3,233.4" fill="rgb(180,180,190)"/><polygon points="270.0,232.1 270.3,225.5 271.8,219.1 274.2,213.6 277.4,209.6 280.9,207.8 284.4,208.2 287.5,211.1 289.7,216.0 290.7,222.4 290.4,229.5 288.8,236.4 286.1,242.1 282.7,245.9 279.1,247.3 275.6,246.4 272.8,243.2 270.9,238.3" fill="rgb(30,30,36)"/><polygon points="184.3,156.5 183.5,157.3 175.5,132.2 176.3,131.3" fill="rgb(35,10,18)"/><polygon points="279.1,247.3 275.6,246.4 266.0,245.4 269.3,246.4" fill="rgb(15,15,19)"/><polygon points="280.9,207.8 284.4,208.2 274.7,206.9 271.3,206.5" fill="rgb(15,15,19)"/><polygon points="261.4,237.3 263.2,242.3 266.0,245.4 269.3,246.4 272.9,244.9 276.2,241.0 278.8,235.3 280.4,228.4 280.8,221.2 279.8,214.7 277.7,209.8 274.7,206.9 271.3,206.5 267.8,208.4 264.7,212.4 262.3,217.9 260.9,224.4 260.6,231.1" fill="rgb(18,18,22)"/><polygon points="282.7,245.9 279.1,247.3 269.3,246.4 272.9,244.9" fill="rgb(14,14,17)"/><polygon points="284.4,208.2 287.5,211.1 277.7,209.8 274.7,206.9" fill="rgb(16,16,20)"/><polygon points="286.1,242.1 282.7,245.9 272.9,244.9 276.2,241.0" fill="rgb(12,12,14)"/><polygon points="287.5,211.1 289.7,216.0 279.8,214.7 277.7,209.8" fill="rgb(15,15,19)"/><polygon points="288.8,236.4 286.1,242.1 276.2,241.0 278.8,235.3" fill="rgb(9,9,11)"/><polygon points="289.7,216.0 290.7,222.4 280.8,221.2 279.8,214.7" fill="rgb(14,14,17)"/><polygon points="290.4,229.5 288.8,236.4 278.8,235.3 280.4,228.4" fill="rgb(9,9,11)"/><polygon points="290.7,222.4 290.4,229.5 280.4,228.4 280.8,221.2" fill="rgb(12,12,14)"/><polygon points="168.6,220.8 169.2,213.7 180.0,214.9 179.5,222.1" fill="rgb(12,12,14)"/><polygon points="169.2,213.7 170.5,206.7 181.4,208.0 180.0,214.9" fill="rgb(9,9,11)"/><polygon points="168.9,227.4 168.6,220.8 179.5,222.1 179.9,228.6" fill="rgb(14,14,17)"/><polygon points="170.5,206.7 172.4,200.7 183.4,202.1 181.4,208.0" fill="rgb(9,9,11)"/><polygon points="170.0,232.7 168.9,227.4 179.9,228.6 181.1,233.8" fill="rgb(15,15,19)"/><polygon points="172.4,200.7 174.8,196.3 185.8,197.7 183.4,202.1" fill="rgb(12,12,14)"/><polygon points="171.8,236.0 170.0,232.7 181.1,233.8 183.0,237.1" fill="rgb(16,16,20)"/><polygon points="174.8,196.3 177.3,194.1 188.5,195.5 185.8,197.7" fill="rgb(14,14,17)"/><polygon points="273.3,174.6 273.9,187.8 265.6,186.6 265.0,173.3" fill="rgb(255,100,110)"/><polygon points="179.9,228.6 181.1,233.8 183.0,237.1 185.5,238.0 188.2,236.3 190.8,232.1 193.0,225.9 194.5,218.5 195.0,210.8 194.5,203.9 193.1,198.8 191.0,195.9 188.5,195.5 185.8,197.7 183.4,202.1 181.4,208.0 180.0,214.9 179.5,222.1" fill="rgb(18,18,22)"/><polygon points="174.2,236.9 171.8,236.0 183.0,237.1 185.5,238.0" fill="rgb(15,15,19)"/><polygon points="177.3,194.1 179.7,194.4 191.0,195.9 188.5,195.5" fill="rgb(15,15,19)"/><polygon points="168.6,220.8 169.2,213.7 170.5,206.7 172.4,200.7 174.8,196.3 177.3,194.1 179.7,194.4 181.7,197.3 183.0,202.5 183.4,209.4 182.9,217.1 181.4,224.6 179.3,230.9 176.8,235.1 174.2,236.9 171.8,236.0 170.0,232.7 168.9,227.4" fill="rgb(30,30,36)"/><polygon points="172.6,217.5 173.2,212.4 174.7,208.4 176.4,206.9 177.8,208.7 178.3,213.0 177.7,218.3 176.2,222.3 174.4,223.6 173.1,221.8" fill="rgb(180,180,190)"/><polygon points="291.1,157.4 195.9,140.8 195.8,199.2 294.2,212.0" fill="rgb(108,18,29)"/><polygon points="176.8,235.1 174.2,236.9 185.5,238.0 188.2,236.3" fill="rgb(14,14,17)"/><polygon points="179.7,194.4 181.7,197.3 193.1,198.8 191.0,195.9" fill="rgb(16,16,20)"/><polygon points="179.3,230.9 176.8,235.1 188.2,236.3 190.8,232.1" fill="rgb(12,12,14)"/><polygon points="181.7,197.3 183.0,202.5 194.5,203.9 193.1,198.8" fill="rgb(15,15,19)"/><polygon points="226.5,167.2 226.7,180.9 217.8,179.6 217.6,165.8" fill="rgb(255,100,110)"/><polygon points="181.4,224.6 179.3,230.9 190.8,232.1 193.0,225.9" fill="rgb(9,9,11)"/><polygon points="183.0,202.5 183.4,209.4 195.0,210.8 194.5,203.9" fill="rgb(14,14,17)"/><polygon points="182.9,217.1 181.4,224.6 193.0,225.9 194.5,218.5" fill="rgb(9,9,11)"/><polygon points="183.4,209.4 182.9,217.1 194.5,218.5 195.0,210.8" fill="rgb(12,12,14)"/></svg>