<svg xmlns="http://www.w3.org/2000/svg" viewBox="0 0 400 400"><rect width="400" height="400" fill="#0f1020"/><rect x="0" y="250" width="400" height="150" fill="#0a0b17"/><ellipse cx="200" cy="262" rx="120" ry="16" fill="rgba(0,0,0,0.45)"/><polygon points="194.7,230.8 188.3,230.3 188.3,240.1 194.7,240.6" fill="rgb(255,235,160)"/><polygon points="136.7,210.1 209.8,216.9 210.0,257.3 135.1,252.2" fill="rgb(161,41,52)"/><polygon points="186.6,243.3 160.2,241.3 160.0,249.7 186.5,251.6" fill="rgb(18,18,22)"/><polygon points="158.8,227.8 152.1,227.3 151.8,237.3 158.6,237.8" fill="rgb(255,235,160)"/><polygon points="218.1,259.4 218.3,254.0 210.2,253.5 209.9,258.9" fill="rgb(12,12,15)"/><polygon points="218.3,254.0 219.2,248.9 211.1,248.3 210.2,253.5" fill="rgb(9,9,12)"/><polygon points="218.4,264.5 218.1,259.4 209.9,258.9 210.3,263.9" fill="rgb(15,15,18)"/><polygon points="219.2,248.9 220.6,244.6 212.4,244.0 211.1,248.3" fill="rgb(9,9,11)"/><polygon points="219.4,268.6 218.4,264.5 210.3,263.9 211.2,268.1" fill="rgb(16,16,19)"/><polygon points="220.6,244.6 222.3,241.7 214.1,241.0 212.4,244.0" fill="rgb(12,12,14)"/><polygon points="220.9,271.4 219.4,268.6 211.2,268.1 212.6,270.9" fill="rgb(16,16,20)"/><polygon points="222.3,241.7 224.2,240.4 215.9,239.8 214.1,241.0" fill="rgb(14,14,17)"/><polygon points="221.6,257.6 221.9,253.8 223.0,251.0 224.3,250.2 225.5,251.7 225.9,255.1 225.6,258.9 224.5,261.8 223.1,262.5 222.0,260.9" fill="rgb(180,180,190)"/><polygon points="218.1,259.4 218.3,254.0 219.2,248.9 220.6,244.6 222.3,241.7 224.2,240.4 226.1,241.1 227.7,243.6 228.8,247.8 229.2,253.0 229.0,258.7 228.0,264.1 226.5,268.5 224.7,271.4 222.7,272.3 220.9,271.4 219.4,268.6 218.4,264.5" fill="rgb(30,30,36)"/><polygon points="222.7,272.3 220.9,271.4 212.6,270.9 214.3,271.8" fill="rgb(16,16,19)"/><polygon points="224.2,240.4 226.1,241.1 217.7,240.4 215.9,239.8" fill="rgb(16,16,19)"/><polygon points="210.3,263.9 211.2,268.1 212.6,270.9 214.3,271.8 216.2,270.9 218.0,268.0 219.5,263.6 220.4,258.2 220.7,252.4 220.3,247.1 219.2,243.0 217.7,240.4 215.9,239.8 214.1,241.0 212.4,244.0 211.1,248.3 210.2,253.5 209.9,258.9" fill="rgb(18,18,22)"/><polygon points="224.7,271.4 222.7,272.3 214.3,271.8 216.2,270.9" fill="rgb(14,14,17)"/><polygon points="226.1,241.1 227.7,243.6 219.2,243.0 217.7,240.4" fill="rgb(16,16,20)"/><polygon points="222.5,204.2 221.9,204.7 228.4,169.6 229.0,169.0" fill="rgb(35,10,18)"/><polygon points="132.9,253.7 133.3,248.0 142.2,248.7 141.8,254.3" fill="rgb(12,12,15)"/><polygon points="133.3,248.0 134.0,242.6 142.9,243.3 142.2,248.7" fill="rgb(9,9,12)"/><polygon points="226.5,268.5 224.7,271.4 216.2,270.9 218.0,268.0" fill="rgb(12,12,14)"/><polygon points="227.7,243.6 228.8,247.8 220.3,247.1 219.2,243.0" fill="rgb(16,16,19)"/><polygon points="132.9,259.0 132.9,253.7 141.8,254.3 141.8,259.5" fill="rgb(15,15,18)"/><polygon points="134.0,242.6 135.0,238.1 144.0,238.8 142.9,243.3" fill="rgb(9,9,11)"/><polygon points="228.0,264.1 226.5,268.5 218.0,268.0 219.5,263.6" fill="rgb(9,9,11)"/><polygon points="228.8,247.8 229.2,253.0 220.7,252.4 220.3,247.1" fill="rgb(15,15,18)"/><polygon points="133.2,263.3 132.9,259.0 141.8,259.5 142.3,263.8" fill="rgb(16,16,19)"/><polygon points="135.0,238.1 136.1,234.9 145.2,235.6 144.0,238.8" fill="rgb(12,12,14)"/><polygon points="229.0,258.7 228.0,264.1 219.5,263.6 220.4,258.2" fill="rgb(9,9,12)"/><polygon points="229.2,253.0 229.0,258.7 220.4,258.2 220.7,252.4" fill="rgb(12,12,15)"/><polygon points="148.6,197.3 221.8,204.7 226.6,169.4 155.9,160.8" fill="rgb(15,23,40)"/><polygon points="134.0,266.1 133.2,263.3 142.3,263.8 143.1,266.7" fill="rgb(16,16,20)"/><polygon points="136.1,234.9 137.3,233.6 146.4,234.3 145.2,235.6" fill="rgb(14,14,17)"/><polygon points="141.8,259.5 142.3,263.8 143.1,266.7 144.1,267.6 145.4,266.6 146.6,263.6 147.7,258.9 148.5,253.3 148.9,247.3 148.9,241.8 148.4,237.5 147.5,234.9 146.4,234.3 145.2,235.6 144.0,238.8 142.9,243.3 142.2,248.7 141.8,254.3" fill="rgb(18,18,22)"/><polygon points="134.9,267.1 134.0,266.1 143.1,266.7 144.1,267.6" fill="rgb(16,16,19)"/><polygon points="137.3,233.6 138.3,234.2 147.5,234.9 146.4,234.3" fill="rgb(16,16,19)"/><polygon points="132.9,253.7 133.3,248.0 134.0,242.6 135.0,238.1 136.1,234.9 137.3,233.6 138.3,234.2 139.1,236.8 139.5,241.1 139.5,246.6 139.1,252.6 138.3,258.3 137.3,263.0 136.1,266.0 134.9,267.1 134.0,266.1 133.2,263.3 132.9,259.0" fill="rgb(30,30,36)"/><polygon points="134.6,251.6 135.0,247.6 135.7,244.6 136.5,243.7 137.0,245.3 137.1,248.8 136.8,252.9 136.0,255.9 135.2,256.7 134.7,255.1" fill="rgb(180,180,190)"/><polygon points="148.8,196.7 148.4,197.3 154.0,160.6 154.4,159.9" fill="rgb(35,10,18)"/><polygon points="136.1,266.0 134.9,267.1 144.1,267.6 145.4,266.6" fill="rgb(14,14,17)"/><polygon points="138.3,234.2 139.1,236.8 148.4,237.5 147.5,234.9" fill="rgb(16,16,20)"/><polygon points="137.3,263.0 136.1,266.0 145.4,266.6 146.6,263.6" fill="rgb(12,12,14)"/><polygon points="139.1,236.8 139.5,241.1 148.9,241.8 148.4,237.5" fill="rgb(16,16,19)"/><polygon points="138.3,258.3 137.3,263.0 146.6,263.6 147.7,258.9" fill="rgb(9,9,11)"/><polygon points="139.5,241.1 139.5,246.6 148.9,247.3 148.9,241.8" fill="rgb(15,15,18)"/><polygon points="139.1,252.6 138.3,258.3 147.7,258.9 148.5,253.3" fill="rgb(9,9,12)"/><polygon points="139.5,246.6 139.1,252.6 148.5,253.3 148.9,247.3" fill="rgb(12,12,15)"/><polygon points="221.8,204.7 265.4,168.2 252.7,143.5 226.6,169.4" fill="rgb(57,79,115)"/><polygon points="209.8,216.9 285.2,154.6 288.1,209.9 210.0,257.3" fill="rgb(159,41,52)"/><polygon points="155.9,160.8 226.6,169.4 252.7,143.5 173.8,132.5" fill="rgb(93,19,31)"/><polygon points="136.7,210.1 185.4,141.1 285.2,154.6 209.8,216.9" fill="rgb(190,85,93)"/><polygon points="148.6,197.3 155.9,160.8 173.8,132.5 177.7,157.1" fill="rgb(61,84,122)"/><polygon points="135.1,252.2 210.0,257.3 288.1,209.9 184.9,199.4" fill="rgb(23,6,9)"/><polygon points="136.7,210.1 135.1,252.2 184.9,199.4 185.4,141.1" fill="rgb(159,41,52)"/><polygon points="265.6,168.2 264.7,169.0 253.9,144.6 254.7,143.8" fill="rgb(35,10,18)"/><polygon points="177.7,157.1 173.8,132.5 252.7,143.5 265.4,168.2" fill="rgb(27,40,71)"/><polygon points="268.2,230.8 268.4,224.0 258.5,223.1 258.3,229.9" fill="rgb(12,12,15)"/><polygon points="268.4,224.0 269.7,217.5 259.7,216.6 258.5,223.1" fill="rgb(9,9,12)"/><polygon points="269.0,236.9 268.2,230.8 258.3,229.9 259.0,236.1" fill="rgb(15,15,18)"/><polygon points="269.7,217.5 271.7,211.9 261.7,210.9 259.7,216.6" fill="rgb(9,9,11)"/><polygon points="270.7,241.9 269.0,236.9 259.0,236.1 260.6,241.1" fill="rgb(16,16,19)"/><polygon points="271.7,211.9 274.4,207.9 264.4,206.8 261.7,210.9" fill="rgb(12,12,14)"/><polygon points="177.4,157.1 176.8,157.9 171.1,133.1 171.7,132.2" fill="rgb(35,10,18)"/><polygon points="273.1,245.1 270.7,241.9 260.6,241.1 263.0,244.3" fill="rgb(16,16,20)"/><polygon points="274.4,207.9 277.5,205.9 267.3,204.8 264.4,206.8" fill="rgb(14,14,17)"/><polygon points="273.7,227.8 274.2,223.0 275.7,219.3 277.9,218.0 279.8,219.7 280.7,223.8 280.2,228.7 278.5,232.5 276.4,233.6 274.5,231.8" fill="rgb(180,180,190)"/><polygon points="268.2,230.8 268.4,224.0 269.7,217.5 271.7,211.9 274.4,207.9 277.5,205.9 280.6,206.3 283.2,209.1 285.2,214.0 286.1,220.5 285.9,227.7 284.5,234.7 282.2,240.5 279.3,244.4 276.1,246.0 273.1,245.1 270.7,241.9 269.0,236.9" fill="rgb(30,30,36)"/><polygon points="276.1,246.0 273.1,245.1 263.0,244.3 265.8,245.2" fill="rgb(16,16,19)"/><polygon points="277.5,205.9 280.6,206.3 270.3,205.2 267.3,204.8" fill="rgb(16,16,19)"/><polygon points="259.0,236.1 260.6,241.1 263.0,244.3 265.8,245.2 268.9,243.6 271.7,239.6 274.0,233.8 275.3,226.8 275.5,219.5 274.7,213.0 272.8,208.0 270.3,205.2 267.3,204.8 264.4,206.8 261.7,210.9 259.7,216.6 258.5,223.1 258.3,229.9" fill="rgb(18,18,22)"/><polygon points="279.3,244.4 276.1,246.0 265.8,245.2 268.9,243.6" fill="rgb(14,14,17)"/><polygon points="280.6,206.3 283.2,209.1 272.8,208.0 270.3,205.2" fill="rgb(16,16,20)"/><polygon points="163.0,221.6 163.4,214.4 174.5,215.5 174.1,222.5" fill="rgb(12,12,15)"/><polygon points="163.4,214.4 164.5,207.5 175.6,208.5 174.5,215.5" fill="rgb(9,9,12)"/><polygon points="282.2,240.5 279.3,244.4 268.9,243.6 271.7,239.6" fill="rgb(12,12,14)"/><polygon points="283.2,209.1 285.2,214.0 274.7,213.0 272.8,208.0" fill="rgb(16,16,19)"/><polygon points="163.1,228.1 163.0,221.6 174.1,222.5 174.3,229.1" fill="rgb(15,15,18)"/><polygon points="164.5,207.5 165.9,201.4 177.1,202.5 175.6,208.5" fill="rgb(9,9,11)"/><polygon points="284.5,234.7 282.2,240.5 271.7,239.6 274.0,233.8" fill="rgb(9,9,11)"/><polygon points="285.2,214.0 286.1,220.5 275.5,219.5 274.7,213.0" fill="rgb(15,15,18)"/><polygon points="163.9,233.3 163.1,228.1 174.3,229.1 175.2,234.2" fill="rgb(16,16,19)"/><polygon points="165.9,201.4 167.7,197.0 179.0,198.1 177.1,202.5" fill="rgb(12,12,14)"/><polygon points="285.9,227.7 284.5,234.7 274.0,233.8 275.3,226.8" fill="rgb(9,9,12)"/><polygon points="286.1,220.5 285.9,227.7 275.3,226.8 275.5,219.5" fill="rgb(12,12,15)"/><polygon points="165.2,236.6 163.9,233.3 175.2,234.2 176.6,237.5" fill="rgb(16,16,20)"/><polygon points="167.7,197.0 169.6,194.7 181.0,195.9 179.0,198.1" fill="rgb(14,14,17)"/><polygon points="174.3,229.1 175.2,234.2 176.6,237.5 178.5,238.3 180.6,236.6 182.6,232.4 184.3,226.1 185.4,218.7 185.8,211.0 185.5,204.2 184.5,199.0 182.9,196.2 181.0,195.9 179.0,198.1 177.1,202.5 175.6,208.5 174.5,215.5 174.1,222.5" fill="rgb(18,18,22)"/><polygon points="166.9,237.4 165.2,236.6 176.6,237.5 178.5,238.3" fill="rgb(16,16,19)"/><polygon points="169.6,194.7 171.3,195.0 182.9,196.2 181.0,195.9" fill="rgb(16,16,19)"/><polygon points="266.1,172.6 266.6,186.0 257.9,185.0 257.4,171.5" fill="rgb(255,100,110)"/><polygon points="163.0,221.6 163.4,214.4 164.5,207.5 165.9,201.4 167.7,197.0 169.6,194.7 171.3,195.0 172.8,197.8 173.7,203.0 173.9,209.9 173.4,217.6 172.3,225.1 170.7,231.4 168.8,235.7 166.9,237.4 165.2,236.6 163.9,233.3 163.1,228.1" fill="rgb(30,30,36)"/><polygon points="165.8,218.2 166.3,213.1 167.4,209.1 168.7,207.6 169.7,209.3 170.0,213.6 169.5,218.9 168.4,222.9 167.1,224.3 166.1,222.4" fill="rgb(180,180,190)"/><polygon points="168.8,235.7 166.9,237.4 178.5,238.3 180.6,236.6" fill="rgb(14,14,17)"/><polygon points="171.3,195.0 172.8,197.8 184.5,199.0 182.9,196.2" fill="rgb(16,16,20)"/><polygon points="285.2,154.6 185.4,141.1 184.9,199.4 288.1,209.9" fill="rgb(112,19,30)"/><polygon points="170.7,231.4 168.8,235.7 180.6,236.6 182.6,232.4" fill="rgb(12,12,14)"/><polygon points="172.8,197.8 173.7,203.0 185.5,204.2 184.5,199.0" fill="rgb(16,16,19)"/><polygon points="217.0,166.5 217.1,180.3 207.8,179.2 207.7,165.4" fill="rgb(255,100,110)"/><polygon points="172.3,225.1 170.7,231.4 182.6,232.4 184.3,226.1" fill="rgb(9,9,11)"/><polygon points="173.7,203.0 173.9,209.9 185.8,211.0 185.5,204.2" fill="rgb(15,15,18)"/><polygon points="173.4,217.6 172.3,225.1 184.3,226.1 185.4,218.7" fill="rgb(9,9,12)"/><polygon points="173.9,209.9 173.4,217.6 185.4,218.7 185.8,211.0" fill="rgb(12,12,15)"/></svg>