<svg xmlns="http://www.w3.org/2000/svg" viewBox="0 0 400 400"><rect width="400" height="400" fill="#0f1020"/><rect x="0" y="250" width="400" height="150" fill="#0a0b17"/><ellipse cx="200" cy="262" rx="120" ry="16" fill="rgba(0,0,0,0.45)"/><polygon points="251.2,226.7 251.5,236.7 256.6,235.4 256.2,225.3" fill="rgb(255,100,110)"/><polygon points="225.7,248.5 227.7,253.5 233.7,252.0 231.7,247.0" fill="rgb(11,11,13)"/><polygon points="227.7,253.5 228.5,258.8 234.5,257.4 233.7,252.0" fill="rgb(14,14,17)"/><polygon points="222.6,244.5 225.7,248.5 231.7,247.0 228.6,242.9" fill="rgb(8,8,9)"/><polygon points="219.8,208.5 218.5,208.2 204.0,176.0 205.3,176.4" fill="rgb(35,10,18)"/><polygon points="228.5,258.8 227.9,263.9 234.0,262.6 234.5,257.4" fill="rgb(16,16,20)"/><polygon points="218.8,241.9 222.6,244.5 228.6,242.9 224.8,240.3" fill="rgb(11,11,13)"/><polygon points="227.9,263.9 226.0,268.3 232.1,267.0 234.0,262.6" fill="rgb(17,17,21)"/><polygon points="214.8,241.1 218.8,241.9 224.8,240.3 220.7,239.4" fill="rgb(14,14,17)"/><polygon points="212.2,255.9 213.0,252.5 215.3,250.7 218.1,251.3 220.4,253.9 221.3,257.6 220.5,261.0 218.3,262.8 215.4,262.3 213.1,259.6" fill="rgb(180,180,190)"/><polygon points="205.0,254.5 205.7,249.2 207.8,244.9 210.9,242.1 214.8,241.1 218.8,241.9 222.6,244.5 225.7,248.5 227.7,253.5 228.5,258.8 227.9,263.9 226.0,268.3 223.0,271.2 219.2,272.5 215.1,271.9 211.1,269.3 207.9,265.2 205.7,260.1" fill="rgb(30,30,36)"/><polygon points="226.0,268.3 223.0,271.2 229.0,270.0 232.1,267.0" fill="rgb(17,17,21)"/><polygon points="210.9,242.1 214.8,241.1 220.7,239.4 216.9,240.5" fill="rgb(16,16,20)"/><polygon points="223.0,271.2 219.2,272.5 225.2,271.3 229.0,270.0" fill="rgb(16,16,20)"/><polygon points="207.8,244.9 210.9,242.1 216.9,240.5 213.7,243.3" fill="rgb(17,17,21)"/><polygon points="211.7,258.7 213.9,263.9 217.2,268.0 221.1,270.6 225.2,271.3 229.0,270.0 232.1,267.0 234.0,262.6 234.5,257.4 233.7,252.0 231.7,247.0 228.6,242.9 224.8,240.3 220.7,239.4 216.9,240.5 213.7,243.3 211.7,247.7 211.0,253.0" fill="rgb(18,18,22)"/><polygon points="239.1,214.5 298.3,196.2 301.0,241.6 240.1,255.5" fill="rgb(126,21,34)"/><polygon points="219.2,272.5 215.1,271.9 221.1,270.6 225.2,271.3" fill="rgb(14,14,17)"/><polygon points="205.7,249.2 207.8,244.9 213.7,243.3 211.7,247.7" fill="rgb(17,17,21)"/><polygon points="215.1,271.9 211.1,269.3 217.2,268.0 221.1,270.6" fill="rgb(11,11,13)"/><polygon points="205.0,254.5 205.7,249.2 211.7,247.7 211.0,253.0" fill="rgb(16,16,20)"/><polygon points="211.1,269.3 207.9,265.2 213.9,263.9 217.2,268.0" fill="rgb(8,8,9)"/><polygon points="205.7,260.1 205.0,254.5 211.0,253.0 211.7,258.7" fill="rgb(14,14,17)"/><polygon points="207.9,265.2 205.7,260.1 211.7,258.7 213.9,263.9" fill="rgb(11,11,13)"/><polygon points="135.6,186.3 219.9,208.5 206.6,175.9 155.2,160.0" fill="rgb(46,64,93)"/><polygon points="274.9,190.0 257.7,154.8 206.6,175.9 219.9,208.5" fill="rgb(17,26,46)"/><polygon points="280.1,218.6 280.6,229.2 286.3,227.7 285.7,217.1" fill="rgb(255,100,110)"/><polygon points="90.1,175.6 239.1,214.5 240.1,255.5 86.7,225.9" fill="rgb(129,33,42)"/><polygon points="205.0,135.1 155.2,160.0 206.6,175.9 257.7,154.8" fill="rgb(93,19,31)"/><polygon points="137.1,186.8 135.4,186.3 154.1,160.6 155.6,161.1" fill="rgb(35,10,18)"/><polygon points="275.0,190.0 273.7,189.6 257.8,153.6 259.2,154.1" fill="rgb(35,10,18)"/><polygon points="293.1,231.7 295.3,237.4 287.7,239.2 285.5,233.6" fill="rgb(11,11,13)"/><polygon points="295.3,237.4 296.4,243.4 288.7,245.1 287.7,239.2" fill="rgb(14,14,17)"/><polygon points="289.8,227.1 293.1,231.7 285.5,233.6 282.2,229.0" fill="rgb(8,8,9)"/><polygon points="296.4,243.4 296.0,249.2 288.3,250.8 288.7,245.1" fill="rgb(16,16,20)"/><polygon points="285.9,224.0 289.8,227.1 282.2,229.0 278.3,226.0" fill="rgb(11,11,13)"/><polygon points="296.0,249.2 294.3,254.0 286.6,255.6 288.3,250.8" fill="rgb(17,17,21)"/><polygon points="143.7,146.1 298.3,196.2 239.1,214.5 90.1,175.6" fill="rgb(190,85,93)"/><polygon points="281.8,222.9 285.9,224.0 278.3,226.0 274.2,225.0" fill="rgb(14,14,17)"/><polygon points="265.8,245.9 268.2,251.7 271.7,256.4 275.7,259.3 279.9,260.2 283.7,258.8 286.6,255.6 288.3,250.8 288.7,245.1 287.7,239.2 285.5,233.6 282.2,229.0 278.3,226.0 274.2,225.0 270.4,226.0 267.3,229.1 265.4,233.8 264.9,239.7" fill="rgb(18,18,22)"/><polygon points="294.3,254.0 291.4,257.3 283.7,258.8 286.6,255.6" fill="rgb(17,17,21)"/><polygon points="277.9,224.0 281.8,222.9 274.2,225.0 270.4,226.0" fill="rgb(16,16,20)"/><polygon points="291.4,257.3 287.6,258.6 279.9,260.2 283.7,258.8" fill="rgb(16,16,20)"/><polygon points="274.9,227.0 277.9,224.0 270.4,226.0 267.3,229.1" fill="rgb(17,17,21)"/><polygon points="272.5,237.8 273.0,231.8 274.9,227.0 277.9,224.0 281.8,222.9 285.9,224.0 289.8,227.1 293.1,231.7 295.3,237.4 296.4,243.4 296.0,249.2 294.3,254.0 291.4,257.3 287.6,258.6 283.4,257.7 279.3,254.8 275.9,250.0 273.5,244.1" fill="rgb(30,30,36)"/><polygon points="280.2,239.5 280.9,235.7 283.1,233.8 286.0,234.5 288.4,237.5 289.5,241.7 288.8,245.5 286.7,247.5 283.8,246.8 281.3,243.8" fill="rgb(180,180,190)"/><polygon points="287.6,258.6 283.4,257.7 275.7,259.3 279.9,260.2" fill="rgb(14,14,17)"/><polygon points="125.9,228.5 128.3,234.3 133.9,232.4 131.5,226.5" fill="rgb(11,11,13)"/><polygon points="273.0,231.8 274.9,227.0 267.3,229.1 265.4,233.8" fill="rgb(17,17,21)"/><polygon points="128.3,234.3 129.0,240.5 134.6,238.6 133.9,232.4" fill="rgb(14,14,17)"/><polygon points="122.0,223.8 125.9,228.5 131.5,226.5 127.5,221.7" fill="rgb(8,8,9)"/><polygon points="141.7,203.3 86.7,225.9 240.1,255.5 301.0,241.6" fill="rgb(23,6,9)"/><polygon points="283.4,257.7 279.3,254.8 271.7,256.4 275.7,259.3" fill="rgb(11,11,13)"/><polygon points="129.0,240.5 127.8,246.4 133.5,244.6 134.6,238.6" fill="rgb(16,16,20)"/><polygon points="272.5,237.8 273.0,231.8 265.4,233.8 264.9,239.7" fill="rgb(16,16,20)"/><polygon points="117.0,220.7 122.0,223.8 127.5,221.7 122.5,218.5" fill="rgb(11,11,13)"/><polygon points="279.3,254.8 275.9,250.0 268.2,251.7 271.7,256.4" fill="rgb(8,8,9)"/><polygon points="273.5,244.1 272.5,237.8 264.9,239.7 265.8,245.9" fill="rgb(14,14,17)"/><polygon points="127.8,246.4 124.9,251.3 130.5,249.6 133.5,244.6" fill="rgb(17,17,21)"/><polygon points="275.9,250.0 273.5,244.1 265.8,245.9 268.2,251.7" fill="rgb(11,11,13)"/><polygon points="188.0,162.1 135.6,186.3 155.2,160.0 205.0,135.1" fill="rgb(29,43,77)"/><polygon points="188.0,162.1 205.0,135.1 257.7,154.8 274.9,190.0" fill="rgb(50,68,100)"/><polygon points="111.5,219.5 117.0,220.7 122.5,218.5 117.0,217.3" fill="rgb(14,14,17)"/><polygon points="106.9,236.5 108.4,232.6 111.6,230.7 115.4,231.4 118.4,234.5 119.4,238.8 118.0,242.7 114.8,244.7 110.9,244.0 107.9,240.9" fill="rgb(180,180,190)"/><polygon points="97.0,234.6 98.4,228.6 101.6,223.7 106.1,220.5 111.5,219.5 117.0,220.7 122.0,223.8 125.9,228.5 128.3,234.3 129.0,240.5 127.8,246.4 124.9,251.3 120.6,254.6 115.3,256.0 109.6,255.1 104.4,252.0 100.2,247.2 97.6,241.1" fill="rgb(30,30,36)"/><polygon points="124.9,251.3 120.6,254.6 126.2,253.0 130.5,249.6" fill="rgb(17,17,21)"/><polygon points="106.1,220.5 111.5,219.5 117.0,217.3 111.6,218.3" fill="rgb(16,16,20)"/><polygon points="120.6,254.6 115.3,256.0 120.8,254.3 126.2,253.0" fill="rgb(16,16,20)"/><polygon points="101.6,223.7 106.1,220.5 111.6,218.3 107.0,221.5" fill="rgb(17,17,21)"/><polygon points="103.1,239.2 105.7,245.3 109.9,250.3 115.2,253.4 120.8,254.3 126.2,253.0 130.5,249.6 133.5,244.6 134.6,238.6 133.9,232.4 131.5,226.5 127.5,221.7 122.5,218.5 117.0,217.3 111.6,218.3 107.0,221.5 103.8,226.4 102.4,232.6" fill="rgb(18,18,22)"/><polygon points="115.3,256.0 109.6,255.1 115.2,253.4 120.8,254.3" fill="rgb(14,14,17)"/><polygon points="98.4,228.6 101.6,223.7 107.0,221.5 103.8,226.4" fill="rgb(17,17,21)"/><polygon points="109.6,255.1 104.4,252.0 109.9,250.3 115.2,253.4" fill="rgb(11,11,13)"/><polygon points="97.0,234.6 98.4,228.6 103.8,226.4 102.4,232.6" fill="rgb(16,16,20)"/><polygon points="104.4,252.0 100.2,247.2 105.7,245.3 109.9,250.3" fill="rgb(8,8,9)"/><polygon points="97.6,241.1 97.0,234.6 102.4,232.6 103.1,239.2" fill="rgb(14,14,17)"/><polygon points="100.2,247.2 97.6,241.1 103.1,239.2 105.7,245.3" fill="rgb(11,11,13)"/><polygon points="143.7,146.1 141.7,203.3 301.0,241.6 298.3,196.2" fill="rgb(129,33,42)"/><polygon points="189.9,162.6 188.1,162.0 206.4,134.4 208.0,135.0" fill="rgb(35,10,18)"/><polygon points="98.8,189.2 103.2,187.0 102.5,199.5 98.0,201.6" fill="rgb(255,235,160)"/><polygon points="143.7,146.1 90.1,175.6 86.7,225.9 141.7,203.3" fill="rgb(181,46,59)"/><polygon points="103.4,203.2 122.7,194.4 122.2,205.6 102.8,213.9" fill="rgb(18,18,22)"/><polygon points="189.8,205.3 192.6,212.0 185.2,214.6 182.5,207.9" fill="rgb(11,11,13)"/><polygon points="192.6,212.0 193.5,219.2 186.1,221.6 185.2,214.6" fill="rgb(14,14,17)"/><polygon points="185.4,199.7 189.8,205.3 182.5,207.9 178.2,202.4" fill="rgb(8,8,9)"/><polygon points="193.5,219.2 192.5,225.9 185.1,228.3 186.1,221.6" fill="rgb(16,16,20)"/><polygon points="180.1,195.9 185.4,199.7 178.2,202.4 172.8,198.7" fill="rgb(11,11,13)"/><polygon points="192.5,225.9 189.6,231.5 182.2,233.7 185.1,228.3" fill="rgb(17,17,21)"/><polygon points="124.8,176.2 129.9,173.6 129.4,187.0 124.2,189.4" fill="rgb(255,235,160)"/><polygon points="174.2,194.3 180.1,195.9 172.8,198.7 167.0,197.2" fill="rgb(14,14,17)"/><polygon points="153.1,221.3 156.0,228.3 160.6,233.9 166.2,237.6 172.2,238.8 177.7,237.4 182.2,233.7 185.1,228.3 186.1,221.6 185.2,214.6 182.5,207.9 178.2,202.4 172.8,198.7 167.0,197.2 161.4,198.2 156.7,201.5 153.5,207.0 152.2,213.8" fill="rgb(18,18,22)"/><polygon points="189.6,231.5 185.1,235.2 177.7,237.4 182.2,233.7" fill="rgb(17,17,21)"/><polygon points="168.6,195.2 174.2,194.3 167.0,197.2 161.4,198.2" fill="rgb(16,16,20)"/><polygon points="185.1,235.2 179.6,236.5 172.2,238.8 177.7,237.4" fill="rgb(16,16,20)"/><polygon points="163.8,198.7 168.6,195.2 161.4,198.2 156.7,201.5" fill="rgb(17,17,21)"/><polygon points="159.4,211.1 160.6,204.2 163.8,198.7 168.6,195.2 174.2,194.3 180.1,195.9 185.4,199.7 189.8,205.3 192.6,212.0 193.5,219.2 192.5,225.9 189.6,231.5 185.1,235.2 179.6,236.5 173.6,235.3 167.9,231.6 163.3,225.8 160.3,218.7" fill="rgb(30,30,36)"/><polygon points="170.4,213.6 171.8,209.1 175.2,207.0 179.2,208.0 182.5,211.7 183.7,216.7 182.4,221.2 179.1,223.3 174.9,222.4 171.6,218.7" fill="rgb(180,180,190)"/><polygon points="179.6,236.5 173.6,235.3 166.2,237.6 172.2,238.8" fill="rgb(14,14,17)"/><polygon points="160.6,204.2 163.8,198.7 156.7,201.5 153.5,207.0" fill="rgb(17,17,21)"/><polygon points="173.6,235.3 167.9,231.6 160.6,233.9 166.2,237.6" fill="rgb(11,11,13)"/><polygon points="159.4,211.1 160.6,204.2 153.5,207.0 152.2,213.8" fill="rgb(16,16,20)"/><polygon points="167.9,231.6 163.3,225.8 156.0,228.3 160.6,233.9" fill="rgb(8,8,9)"/><polygon points="160.3,218.7 159.4,211.1 152.2,213.8 153.1,221.3" fill="rgb(14,14,17)"/><polygon points="163.3,225.8 160.3,218.7 153.1,221.3 156.0,228.3" fill="rgb(11,11,13)"/></svg>