<svg xmlns="http://www.w3.org/2000/svg" viewBox="0 0 400 400"><rect width="400" height="400" fill="#0f1020"/><rect x="0" y="250" width="400" height="150" fill="#0a0b17"/><ellipse cx="200" cy="262" rx="120" ry="16" fill="rgba(0,0,0,0.45)"/><polygon points="208.5,230.4 208.5,240.2 215.2,240.3 215.2,230.5" fill="rgb(255,100,110)"/><polygon points="155.7,213.8 230.7,215.5 231.5,256.3 154.7,255.0" fill="rgb(122,20,33)"/><polygon points="171.4,229.6 171.3,239.5 178.1,239.6 178.2,229.8" fill="rgb(255,100,110)"/><polygon points="237.6,252.6 237.6,258.1 228.9,257.9 228.9,252.5" fill="rgb(13,13,16)"/><polygon points="237.9,247.4 237.6,252.6 228.9,252.5 229.2,247.2" fill="rgb(11,11,13)"/><polygon points="237.6,258.1 237.8,263.2 229.1,263.0 228.9,257.9" fill="rgb(16,16,19)"/><polygon points="238.4,243.0 237.9,247.4 229.2,247.2 229.7,242.8" fill="rgb(8,8,10)"/><polygon points="237.8,263.2 238.3,267.3 229.6,267.2 229.1,263.0" fill="rgb(17,17,21)"/><polygon points="150.2,251.1 150.1,256.6 158.9,256.8 159.0,251.2" fill="rgb(13,13,16)"/><polygon points="239.2,239.9 238.4,243.0 229.7,242.8 230.4,239.8" fill="rgb(11,11,14)"/><polygon points="150.3,245.8 150.2,251.1 159.0,251.2 159.2,246.0" fill="rgb(11,11,13)"/><polygon points="150.1,256.6 149.9,261.8 158.8,261.9 158.9,256.8" fill="rgb(16,16,19)"/><polygon points="150.4,241.4 150.3,245.8 159.2,246.0 159.3,241.5" fill="rgb(8,8,10)"/><polygon points="232.3,207.0 232.6,206.4 234.6,171.5 234.4,172.1" fill="rgb(35,10,18)"/><polygon points="238.3,267.3 239.0,270.1 230.2,269.9 229.6,267.2" fill="rgb(17,17,21)"/><polygon points="232.2,207.0 232.5,172.1 160.9,170.0 158.3,205.2" fill="rgb(17,25,45)"/><polygon points="149.9,261.8 149.7,266.0 158.7,266.1 158.8,261.9" fill="rgb(17,17,21)"/><polygon points="240.0,238.6 239.2,239.9 230.4,239.8 231.1,238.4" fill="rgb(14,14,17)"/><polygon points="150.3,238.2 150.4,241.4 159.3,241.5 159.3,238.4" fill="rgb(11,11,14)"/><polygon points="158.2,205.2 158.2,204.7 159.0,169.3 159.0,169.9" fill="rgb(35,10,18)"/><polygon points="239.0,270.1 239.9,271.0 230.9,270.8 230.2,269.9" fill="rgb(16,16,20)"/><polygon points="241.2,253.4 240.9,250.0 240.4,248.5 239.8,249.3 239.4,252.2 239.3,256.0 239.5,259.4 240.0,261.0 240.6,260.2 241.1,257.3" fill="rgb(180,180,190)"/><polygon points="242.5,251.2 242.2,245.9 241.6,241.7 240.8,239.2 240.0,238.6 239.2,239.9 238.4,243.0 237.9,247.4 237.6,252.6 237.6,258.1 237.8,263.2 238.3,267.3 239.0,270.1 239.9,271.0 240.7,269.9 241.5,267.0 242.1,262.5 242.4,257.0" fill="rgb(30,30,36)"/><polygon points="149.7,266.0 149.6,268.7 158.6,268.9 158.7,266.1" fill="rgb(17,17,21)"/><polygon points="233.2,256.8 232.9,262.3 232.4,266.9 231.7,269.8 230.9,270.8 230.2,269.9 229.6,267.2 229.1,263.0 228.9,257.9 228.9,252.5 229.2,247.2 229.7,242.8 230.4,239.8 231.1,238.4 231.9,239.0 232.5,241.5 233.0,245.7 233.3,251.0" fill="rgb(18,18,22)"/><polygon points="240.8,239.2 240.0,238.6 231.1,238.4 231.9,239.0" fill="rgb(16,16,20)"/><polygon points="150.3,236.9 150.3,238.2 159.3,238.4 159.3,237.0" fill="rgb(14,14,17)"/><polygon points="239.9,271.0 240.7,269.9 231.7,269.8 230.9,270.8" fill="rgb(14,14,17)"/><polygon points="149.6,268.7 149.4,269.7 158.6,269.8 158.6,268.9" fill="rgb(16,16,20)"/><polygon points="158.9,255.6 158.8,261.2 158.7,265.7 158.6,268.7 158.6,269.8 158.6,268.9 158.7,266.1 158.8,261.9 158.9,256.8 159.0,251.2 159.2,246.0 159.3,241.5 159.3,238.4 159.3,237.0 159.3,237.6 159.3,240.1 159.1,244.4 159.0,249.7" fill="rgb(18,18,22)"/><polygon points="241.6,241.7 240.8,239.2 231.9,239.0 232.5,241.5" fill="rgb(17,17,21)"/><polygon points="149.6,249.6 149.8,244.2 150.0,240.0 150.1,237.4 150.3,236.9 150.3,238.2 150.4,241.4 150.3,245.8 150.2,251.1 150.1,256.6 149.9,261.8 149.7,266.0 149.6,268.7 149.4,269.7 149.3,268.6 149.3,265.6 149.4,261.0 149.5,255.4" fill="rgb(30,30,36)"/><polygon points="149.5,251.8 149.6,248.4 149.7,246.8 149.8,247.7 149.8,250.7 149.7,254.6 149.5,257.9 149.4,259.5 149.4,258.7 149.4,255.8" fill="rgb(180,180,190)"/><polygon points="150.1,237.4 150.3,236.9 159.3,237.0 159.3,237.6" fill="rgb(16,16,20)"/><polygon points="240.7,269.9 241.5,267.0 232.4,266.9 231.7,269.8" fill="rgb(11,11,14)"/><polygon points="149.4,269.7 149.3,268.6 158.6,268.7 158.6,269.8" fill="rgb(14,14,17)"/><polygon points="242.2,245.9 241.6,241.7 232.5,241.5 233.0,245.7" fill="rgb(17,17,21)"/><polygon points="150.0,240.0 150.1,237.4 159.3,237.6 159.3,240.1" fill="rgb(17,17,21)"/><polygon points="241.5,267.0 242.1,262.5 232.9,262.3 232.4,266.9" fill="rgb(8,8,10)"/><polygon points="242.5,251.2 242.2,245.9 233.0,245.7 233.3,251.0" fill="rgb(16,16,19)"/><polygon points="242.1,262.5 242.4,257.0 233.2,256.8 232.9,262.3" fill="rgb(11,11,13)"/><polygon points="149.3,268.6 149.3,265.6 158.7,265.7 158.6,268.7" fill="rgb(11,11,14)"/><polygon points="242.4,257.0 242.5,251.2 233.3,251.0 233.2,256.8" fill="rgb(13,13,16)"/><polygon points="149.8,244.2 150.0,240.0 159.3,240.1 159.1,244.4" fill="rgb(17,17,21)"/><polygon points="149.3,265.6 149.4,261.0 158.8,261.2 158.7,265.7" fill="rgb(8,8,10)"/><polygon points="149.6,249.6 149.8,244.2 159.1,244.4 159.0,249.7" fill="rgb(16,16,19)"/><polygon points="149.4,261.0 149.5,255.4 158.9,255.6 158.8,261.2" fill="rgb(11,11,13)"/><polygon points="149.5,255.4 149.6,249.6 159.0,249.7 158.9,255.6" fill="rgb(13,13,16)"/><polygon points="242.6,145.5 161.4,142.9 160.9,170.0 232.5,172.1" fill="rgb(93,19,31)"/><polygon points="249.3,169.5 242.6,145.5 232.5,172.1 232.2,207.0" fill="rgb(51,70,101)"/><polygon points="158.6,166.8 158.3,205.2 160.9,170.0 161.4,142.9" fill="rgb(54,74,108)"/><polygon points="262.9,147.6 230.7,215.5 155.7,213.8 155.1,144.0" fill="rgb(190,85,93)"/><polygon points="262.9,147.6 265.1,204.4 231.5,256.3 230.7,215.5" fill="rgb(140,36,46)"/><polygon points="155.1,144.0 155.7,213.8 154.7,255.0 153.5,201.7" fill="rgb(140,36,46)"/><polygon points="265.1,204.4 153.5,201.7 154.7,255.0 231.5,256.3" fill="rgb(23,6,9)"/><polygon points="249.2,170.3 249.5,169.5 244.7,145.6 244.4,146.4" fill="rgb(35,10,18)"/><polygon points="249.3,169.5 158.6,166.8 161.4,142.9 242.6,145.5" fill="rgb(28,42,76)"/><polygon points="158.4,167.6 158.4,166.8 159.3,142.8 159.2,143.7" fill="rgb(35,10,18)"/><polygon points="259.8,219.9 259.8,226.8 248.8,226.6 248.8,219.6" fill="rgb(13,13,16)"/><polygon points="260.3,213.1 259.8,219.9 248.8,219.6 249.3,212.9" fill="rgb(11,11,13)"/><polygon points="259.8,226.8 260.3,233.1 249.2,232.9 248.8,226.6" fill="rgb(16,16,19)"/><polygon points="261.1,207.2 260.3,213.1 249.3,212.9 250.0,207.0" fill="rgb(8,8,10)"/><polygon points="260.3,233.1 261.2,238.2 250.0,237.9 249.2,232.9" fill="rgb(17,17,21)"/><polygon points="148.2,217.4 148.1,224.4 159.4,224.7 159.6,217.7" fill="rgb(13,13,16)"/><polygon points="262.3,202.9 261.1,207.2 250.0,207.0 251.1,202.7" fill="rgb(11,11,14)"/><polygon points="148.4,210.5 148.2,217.4 159.6,217.7 159.7,210.8" fill="rgb(11,11,13)"/><polygon points="148.1,224.4 147.8,230.9 159.2,231.1 159.4,224.7" fill="rgb(16,16,19)"/><polygon points="148.4,204.6 148.4,210.5 159.7,210.8 159.9,204.8" fill="rgb(8,8,10)"/><polygon points="261.2,238.2 262.4,241.3 251.1,241.1 250.0,237.9" fill="rgb(17,17,21)"/><polygon points="147.8,230.9 147.6,236.0 159.1,236.2 159.2,231.1" fill="rgb(17,17,21)"/><polygon points="263.7,200.7 262.3,202.9 251.1,202.7 252.3,200.4" fill="rgb(14,14,17)"/><polygon points="148.4,200.1 148.4,204.6 159.9,204.8 159.9,200.4" fill="rgb(11,11,14)"/><polygon points="262.4,241.3 263.8,242.1 252.3,241.9 251.1,241.1" fill="rgb(16,16,20)"/><polygon points="265.7,219.1 265.2,214.9 264.3,213.2 263.3,214.7 262.7,218.6 262.5,223.5 263.0,227.6 263.9,229.4 264.9,228.1 265.6,224.1" fill="rgb(180,180,190)"/><polygon points="268.0,215.4 267.4,208.7 266.4,203.7 265.1,201.0 263.7,200.7 262.3,202.9 261.1,207.2 260.3,213.1 259.8,219.9 259.8,226.8 260.3,233.1 261.2,238.2 262.4,241.3 263.8,242.1 265.2,240.4 266.5,236.2 267.5,230.1 268.0,222.9" fill="rgb(30,30,36)"/><polygon points="147.6,236.0 147.4,239.1 159.0,239.3 159.1,236.2" fill="rgb(17,17,21)"/><polygon points="256.1,222.6 255.6,229.9 254.7,236.0 253.6,240.1 252.3,241.9 251.1,241.1 250.0,237.9 249.2,232.9 248.8,226.6 248.8,219.6 249.3,212.9 250.0,207.0 251.1,202.7 252.3,200.4 253.6,200.7 254.8,203.4 255.6,208.4 256.1,215.1" fill="rgb(18,18,22)"/><polygon points="265.1,201.0 263.7,200.7 252.3,200.4 253.6,200.7" fill="rgb(16,16,20)"/><polygon points="148.3,197.9 148.4,200.1 159.9,200.4 160.0,198.1" fill="rgb(14,14,17)"/><polygon points="263.8,242.1 265.2,240.4 253.6,240.1 252.3,241.9" fill="rgb(14,14,17)"/><polygon points="147.4,239.1 147.2,239.9 159.0,240.1 159.0,239.3" fill="rgb(16,16,20)"/><polygon points="159.4,220.5 159.2,227.9 159.1,234.1 159.0,238.3 159.0,240.1 159.0,239.3 159.1,236.2 159.2,231.1 159.4,224.7 159.6,217.7 159.7,210.8 159.9,204.8 159.9,200.4 160.0,198.1 160.0,198.3 159.9,201.1 159.7,206.2 159.6,212.9" fill="rgb(18,18,22)"/><polygon points="266.4,203.7 265.1,201.0 253.6,200.7 254.8,203.4" fill="rgb(17,17,21)"/><polygon points="147.3,212.6 147.6,205.9 147.8,200.8 148.1,198.1 148.3,197.9 148.4,200.1 148.4,204.6 148.4,210.5 148.2,217.4 148.1,224.4 147.8,230.9 147.6,236.0 147.4,239.1 147.2,239.9 147.0,238.1 147.0,233.9 147.0,227.6 147.1,220.2" fill="rgb(30,30,36)"/><polygon points="147.2,216.4 147.4,212.2 147.5,210.5 147.6,212.0 147.6,216.0 147.5,221.0 147.3,225.2 147.2,227.0 147.1,225.6 147.1,221.6" fill="rgb(180,180,190)"/><polygon points="148.1,198.1 148.3,197.9 160.0,198.1 160.0,198.3" fill="rgb(16,16,20)"/><polygon points="265.2,240.4 266.5,236.2 254.7,236.0 253.6,240.1" fill="rgb(11,11,14)"/><polygon points="147.2,239.9 147.0,238.1 159.0,238.3 159.0,240.1" fill="rgb(14,14,17)"/><polygon points="267.4,208.7 266.4,203.7 254.8,203.4 255.6,208.4" fill="rgb(17,17,21)"/><polygon points="147.8,200.8 148.1,198.1 160.0,198.3 159.9,201.1" fill="rgb(17,17,21)"/><polygon points="266.5,236.2 267.5,230.1 255.6,229.9 254.7,236.0" fill="rgb(8,8,10)"/><polygon points="268.0,215.4 267.4,208.7 255.6,208.4 256.1,215.1" fill="rgb(16,16,19)"/><polygon points="267.5,230.1 268.0,222.9 256.1,222.6 255.6,229.9" fill="rgb(11,11,13)"/><polygon points="147.0,238.1 147.0,233.9 159.1,234.1 159.0,238.3" fill="rgb(11,11,14)"/><polygon points="268.0,222.9 268.0,215.4 256.1,215.1 256.1,222.6" fill="rgb(13,13,16)"/><polygon points="147.6,205.9 147.8,200.8 159.9,201.1 159.7,206.2" fill="rgb(17,17,21)"/><polygon points="147.0,233.9 147.0,227.6 159.2,227.9 159.1,234.1" fill="rgb(8,8,10)"/><polygon points="147.3,212.6 147.6,205.9 159.7,206.2 159.6,212.9" fill="rgb(16,16,19)"/><polygon points="231.4,167.6 241.0,167.9 241.4,181.6 231.7,181.3" fill="rgb(255,235,160)"/><polygon points="147.0,227.6 147.1,220.2 159.4,220.5 159.2,227.9" fill="rgb(11,11,13)"/><polygon points="147.1,220.2 147.3,212.6 159.6,212.9 159.4,220.5" fill="rgb(13,13,16)"/><polygon points="262.9,147.6 155.1,144.0 153.5,201.7 265.1,204.4" fill="rgb(175,45,57)"/><polygon points="177.9,166.0 187.7,166.3 187.6,180.1 177.7,179.8" fill="rgb(255,235,160)"/><polygon points="190.0,184.8 229.3,185.9 229.5,197.5 189.9,196.5" fill="rgb(18,18,22)"/></svg>