<svg xmlns="http://www.w3.org/2000/svg" viewBox="0 0 400 400"><rect width="400" height="400" fill="#0f1020"/><rect x="0" y="250" width="400" height="150" fill="#0a0b17"/><ellipse cx="200" cy="262" rx="120" ry="16" fill="rgba(0,0,0,0.45)"/><polygon points="246.5,251.6 244.0,246.6 248.7,244.8 251.2,249.8" fill="rgb(10,10,12)"/><polygon points="244.0,246.6 240.3,242.7 245.0,240.9 248.7,244.8" fill="rgb(8,8,10)"/><polygon points="247.4,257.0 246.5,251.6 251.2,249.8 252.2,255.3" fill="rgb(13,13,16)"/><polygon points="240.3,242.7 235.9,240.4 240.4,238.4 245.0,240.9" fill="rgb(11,11,14)"/><polygon points="246.8,262.2 247.4,257.0 252.2,255.3 251.5,260.6" fill="rgb(15,15,19)"/><polygon points="221.0,204.4 222.6,204.6 205.2,173.1 203.6,172.8" fill="rgb(35,10,18)"/><polygon points="235.9,240.4 231.1,239.8 235.6,237.8 240.4,238.4" fill="rgb(14,14,17)"/><polygon points="239.0,256.1 237.9,252.4 235.2,249.9 231.9,249.5 229.2,251.4 228.2,254.9 229.3,258.6 232.1,261.1 235.4,261.5 238.1,259.6" fill="rgb(180,180,190)"/><polygon points="247.4,257.0 246.5,251.6 244.0,246.6 240.3,242.7 235.9,240.4 231.1,239.8 226.6,241.0 222.9,244.1 220.5,248.5 219.7,253.9 220.7,259.4 223.2,264.5 227.0,268.5 231.7,270.8 236.5,271.3 241.0,269.9 244.5,266.7 246.8,262.2" fill="rgb(30,30,36)"/><polygon points="244.5,266.7 246.8,262.2 251.5,260.6 249.3,265.1" fill="rgb(16,16,20)"/><polygon points="272.7,221.2 268.7,222.9 269.1,233.2 273.2,231.6" fill="rgb(255,235,160)"/><polygon points="231.1,239.8 226.6,241.0 231.1,239.1 235.6,237.8" fill="rgb(16,16,19)"/><polygon points="241.0,269.9 244.5,266.7 249.3,265.1 245.7,268.4" fill="rgb(17,17,20)"/><polygon points="226.6,241.0 222.9,244.1 227.4,242.2 231.1,239.1" fill="rgb(17,17,20)"/><polygon points="236.5,271.3 241.0,269.9 245.7,268.4 241.2,269.8" fill="rgb(16,16,19)"/><polygon points="222.9,244.1 220.5,248.5 225.0,246.7 227.4,242.2" fill="rgb(16,16,20)"/><polygon points="251.5,260.6 249.3,265.1 245.7,268.4 241.2,269.8 236.3,269.3 231.6,266.9 227.7,262.9 225.2,257.7 224.2,252.1 225.0,246.7 227.4,242.2 231.1,239.1 235.6,237.8 240.4,238.4 245.0,240.9 248.7,244.8 251.2,249.8 252.2,255.3" fill="rgb(18,18,22)"/><polygon points="231.7,270.8 236.5,271.3 241.2,269.8 236.3,269.3" fill="rgb(14,14,17)"/><polygon points="220.5,248.5 219.7,253.9 224.2,252.1 225.0,246.7" fill="rgb(15,15,19)"/><polygon points="227.0,268.5 231.7,270.8 236.3,269.3 231.6,266.9" fill="rgb(11,11,14)"/><polygon points="219.7,253.9 220.7,259.4 225.2,257.7 224.2,252.1" fill="rgb(13,13,16)"/><polygon points="223.2,264.5 227.0,268.5 231.6,266.9 227.7,262.9" fill="rgb(8,8,10)"/><polygon points="220.7,259.4 223.2,264.5 227.7,262.9 225.2,257.7" fill="rgb(10,10,12)"/><polygon points="222.7,204.6 206.0,172.5 146.0,161.3 124.2,188.9" fill="rgb(54,74,108)"/><polygon points="258.6,211.2 307.0,188.2 310.0,235.6 260.1,253.0" fill="rgb(169,43,55)"/><polygon points="291.9,227.9 274.4,234.7 274.7,243.5 292.4,237.1" fill="rgb(18,18,22)"/><polygon points="258.6,211.2 260.1,253.0 87.8,232.9 91.0,184.7" fill="rgb(149,38,49)"/><polygon points="222.7,204.6 264.4,181.4 243.5,146.3 206.0,172.5" fill="rgb(16,24,43)"/><polygon points="124.2,189.0 126.0,189.3 147.0,162.3 145.3,162.0" fill="rgb(35,10,18)"/><polygon points="296.9,210.8 292.2,212.8 292.8,223.8 297.5,221.9" fill="rgb(255,235,160)"/><polygon points="206.0,172.5 243.5,146.3 177.4,131.8 146.0,161.3" fill="rgb(93,19,31)"/><polygon points="133.5,238.4 130.8,232.9 134.2,230.7 136.9,236.2" fill="rgb(10,10,12)"/><polygon points="130.8,232.9 126.5,228.6 129.8,226.3 134.2,230.7" fill="rgb(8,8,10)"/><polygon points="134.3,244.3 133.5,238.4 136.9,236.2 137.7,242.3" fill="rgb(13,13,16)"/><polygon points="126.5,228.6 121.1,225.9 124.4,223.5 129.8,226.3" fill="rgb(11,11,14)"/><polygon points="258.6,211.2 91.0,184.7 119.9,152.7 307.0,188.2" fill="rgb(190,85,93)"/><polygon points="133.0,250.1 134.3,244.3 137.7,242.3 136.5,248.1" fill="rgb(15,15,19)"/><polygon points="121.1,225.9 115.2,225.1 118.4,222.7 124.4,223.5" fill="rgb(14,14,17)"/><polygon points="123.9,243.2 122.8,239.2 119.6,236.3 115.5,235.9 112.1,237.9 110.6,241.8 111.7,245.9 114.9,248.7 119.0,249.2 122.5,247.1" fill="rgb(180,180,190)"/><polygon points="134.3,244.3 133.5,238.4 130.8,232.9 126.5,228.6 121.1,225.9 115.2,225.1 109.5,226.4 104.7,229.7 101.4,234.6 100.0,240.5 100.7,246.7 103.5,252.3 107.9,256.8 113.5,259.4 119.5,260.0 125.2,258.5 129.9,255.0 133.0,250.1" fill="rgb(30,30,36)"/><polygon points="129.9,255.0 133.0,250.1 136.5,248.1 133.3,253.1" fill="rgb(16,16,20)"/><polygon points="115.2,225.1 109.5,226.4 112.6,224.1 118.4,222.7" fill="rgb(16,16,19)"/><polygon points="125.2,258.5 129.9,255.0 133.3,253.1 128.6,256.6" fill="rgb(17,17,20)"/><polygon points="109.5,226.4 104.7,229.7 107.7,227.4 112.6,224.1" fill="rgb(17,17,20)"/><polygon points="119.5,260.0 125.2,258.5 128.6,256.6 122.8,258.2" fill="rgb(16,16,19)"/><polygon points="104.7,229.7 101.4,234.6 104.4,232.3 107.7,227.4" fill="rgb(16,16,20)"/><polygon points="136.5,248.1 133.3,253.1 128.6,256.6 122.8,258.2 116.7,257.6 111.0,254.9 106.5,250.3 103.7,244.6 103.0,238.3 104.4,232.3 107.7,227.4 112.6,224.1 118.4,222.7 124.4,223.5 129.8,226.3 134.2,230.7 136.9,236.2 137.7,242.3" fill="rgb(18,18,22)"/><polygon points="113.5,259.4 119.5,260.0 122.8,258.2 116.7,257.6" fill="rgb(14,14,17)"/><polygon points="101.4,234.6 100.0,240.5 103.0,238.3 104.4,232.3" fill="rgb(15,15,19)"/><polygon points="262.9,181.0 264.6,181.3 244.6,145.5 242.9,145.1" fill="rgb(35,10,18)"/><polygon points="260.1,253.0 310.0,235.6 117.1,208.3 87.8,232.9" fill="rgb(23,6,9)"/><polygon points="107.9,256.8 113.5,259.4 116.7,257.6 111.0,254.9" fill="rgb(11,11,14)"/><polygon points="300.8,231.5 297.9,225.8 291.7,228.2 294.6,233.8" fill="rgb(10,10,12)"/><polygon points="100.0,240.5 100.7,246.7 103.7,244.6 103.0,238.3" fill="rgb(13,13,16)"/><polygon points="297.9,225.8 293.7,221.2 287.6,223.7 291.7,228.2" fill="rgb(8,8,10)"/><polygon points="103.5,252.3 107.9,256.8 111.0,254.9 106.5,250.3" fill="rgb(8,8,10)"/><polygon points="302.1,237.8 300.8,231.5 294.6,233.8 295.8,240.0" fill="rgb(13,13,16)"/><polygon points="100.7,246.7 103.5,252.3 106.5,250.3 103.7,244.6" fill="rgb(10,10,12)"/><polygon points="293.7,221.2 288.7,218.3 282.6,220.9 287.6,223.7" fill="rgb(11,11,14)"/><polygon points="301.6,243.8 302.1,237.8 295.8,240.0 295.3,245.9" fill="rgb(15,15,19)"/><polygon points="124.2,188.9 146.0,161.3 177.4,131.8 155.4,160.8" fill="rgb(28,41,74)"/><polygon points="288.7,218.3 283.4,217.5 277.4,220.1 282.6,220.9" fill="rgb(14,14,17)"/><polygon points="295.3,245.9 293.0,251.0 289.2,254.6 284.3,256.1 279.0,255.5 273.8,252.7 269.5,248.1 266.6,242.3 265.4,235.9 266.1,229.8 268.6,224.8 272.5,221.4 277.4,220.1 282.6,220.9 287.6,223.7 291.7,228.2 294.6,233.8 295.8,240.0" fill="rgb(18,18,22)"/><polygon points="299.3,249.0 301.6,243.8 295.3,245.9 293.0,251.0" fill="rgb(16,16,20)"/><polygon points="283.4,217.5 278.5,218.9 272.5,221.4 277.4,220.1" fill="rgb(16,16,19)"/><polygon points="295.5,252.6 299.3,249.0 293.0,251.0 289.2,254.6" fill="rgb(17,17,20)"/><polygon points="278.5,218.9 274.5,222.3 268.6,224.8 272.5,221.4" fill="rgb(17,17,20)"/><polygon points="290.6,254.2 295.5,252.6 289.2,254.6 284.3,256.1" fill="rgb(16,16,19)"/><polygon points="274.5,222.3 272.0,227.4 266.1,229.8 268.6,224.8" fill="rgb(16,16,20)"/><polygon points="302.1,237.8 300.8,231.5 297.9,225.8 293.7,221.2 288.7,218.3 283.4,217.5 278.5,218.9 274.5,222.3 272.0,227.4 271.3,233.5 272.6,240.0 275.6,246.0 279.9,250.7 285.2,253.5 290.6,254.2 295.5,252.6 299.3,249.0 301.6,243.8" fill="rgb(30,30,36)"/><polygon points="293.1,236.5 291.7,232.2 288.6,229.2 285.0,228.6 282.1,230.8 281.1,234.8 282.5,239.2 285.6,242.2 289.3,242.6 292.2,240.5" fill="rgb(180,180,190)"/><polygon points="285.2,253.5 290.6,254.2 284.3,256.1 279.0,255.5" fill="rgb(14,14,17)"/><polygon points="272.0,227.4 271.3,233.5 265.4,235.9 266.1,229.8" fill="rgb(15,15,19)"/><polygon points="97.2,194.8 96.5,206.8 94.1,209.1 94.9,197.2" fill="rgb(255,100,110)"/><polygon points="279.9,250.7 285.2,253.5 279.0,255.5 273.8,252.7" fill="rgb(11,11,14)"/><polygon points="264.4,181.4 155.4,160.8 177.4,131.8 243.5,146.3" fill="rgb(57,79,114)"/><polygon points="271.3,233.5 272.6,240.0 266.6,242.3 265.4,235.9" fill="rgb(13,13,16)"/><polygon points="275.6,246.0 279.9,250.7 273.8,252.7 269.5,248.1" fill="rgb(8,8,10)"/><polygon points="272.6,240.0 275.6,246.0 269.5,248.1 266.6,242.3" fill="rgb(10,10,12)"/><polygon points="307.0,188.2 119.9,152.7 117.1,208.3 310.0,235.6" fill="rgb(149,38,49)"/><polygon points="119.9,152.7 91.0,184.7 87.8,232.9 117.1,208.3" fill="rgb(118,20,31)"/><polygon points="155.5,160.7 157.5,161.1 180.3,131.4 178.3,130.9" fill="rgb(35,10,18)"/><polygon points="111.6,180.3 110.9,193.3 108.1,195.9 108.8,183.1" fill="rgb(255,100,110)"/><polygon points="173.5,213.2 170.3,206.7 165.7,209.8 168.9,216.1" fill="rgb(10,10,12)"/><polygon points="170.3,206.7 165.3,201.5 160.8,204.7 165.7,209.8" fill="rgb(8,8,10)"/><polygon points="174.6,220.2 173.5,213.2 168.9,216.1 169.9,223.0" fill="rgb(13,13,16)"/><polygon points="165.3,201.5 159.0,198.2 154.6,201.4 160.8,204.7" fill="rgb(11,11,14)"/><polygon points="173.3,227.0 174.6,220.2 169.9,223.0 168.6,229.7" fill="rgb(15,15,19)"/><polygon points="159.0,198.2 152.3,197.1 147.9,200.4 154.6,201.4" fill="rgb(14,14,17)"/><polygon points="168.6,229.7 165.2,235.3 160.0,239.2 153.5,240.9 146.7,240.1 140.3,236.9 135.1,231.6 131.8,225.0 130.9,217.8 132.4,211.0 136.1,205.4 141.5,201.8 147.9,200.4 154.6,201.4 160.8,204.7 165.7,209.8 168.9,216.1 169.9,223.0" fill="rgb(18,18,22)"/><polygon points="169.9,232.7 173.3,227.0 168.6,229.7 165.2,235.3" fill="rgb(16,16,20)"/><polygon points="152.3,197.1 145.7,198.5 141.5,201.8 147.9,200.4" fill="rgb(16,16,19)"/><polygon points="164.6,236.7 169.9,232.7 165.2,235.3 160.0,239.2" fill="rgb(17,17,20)"/><polygon points="145.7,198.5 140.2,202.2 136.1,205.4 141.5,201.8" fill="rgb(17,17,20)"/><polygon points="158.1,238.3 164.6,236.7 160.0,239.2 153.5,240.9" fill="rgb(16,16,19)"/><polygon points="140.2,202.2 136.5,207.9 132.4,211.0 136.1,205.4" fill="rgb(16,16,20)"/><polygon points="174.6,220.2 173.5,213.2 170.3,206.7 165.3,201.5 159.0,198.2 152.3,197.1 145.7,198.5 140.2,202.2 136.5,207.9 135.0,214.8 135.9,222.1 139.3,228.8 144.6,234.2 151.1,237.5 158.1,238.3 164.6,236.7 169.9,232.7 173.3,227.0" fill="rgb(30,30,36)"/><polygon points="162.9,218.5 161.6,213.7 157.8,210.3 153.1,209.6 149.1,211.9 147.5,216.4 148.9,221.3 152.7,224.7 157.4,225.4 161.4,223.0" fill="rgb(180,180,190)"/><polygon points="151.1,237.5 158.1,238.3 153.5,240.9 146.7,240.1" fill="rgb(14,14,17)"/><polygon points="136.5,207.9 135.0,214.8 130.9,217.8 132.4,211.0" fill="rgb(15,15,19)"/><polygon points="144.6,234.2 151.1,237.5 146.7,240.1 140.3,236.9" fill="rgb(11,11,14)"/><polygon points="135.0,214.8 135.9,222.1 131.8,225.0 130.9,217.8" fill="rgb(13,13,16)"/><polygon points="139.3,228.8 144.6,234.2 140.3,236.9 135.1,231.6" fill="rgb(8,8,10)"/><polygon points="135.9,222.1 139.3,228.8 135.1,231.6 131.8,225.0" fill="rgb(10,10,12)"/></svg>