<svg xmlns="http://www.w3.org/2000/svg" viewBox="0 0 400 400"><rect width="400" height="400" fill="#0f1020"/><rect x="0" y="250" width="400" height="150" fill="#0a0b17"/><ellipse cx="200" cy="262" rx="120" ry="16" fill="rgba(0,0,0,0.45)"/><polygon points="234.8,206.6 233.3,206.3 216.1,175.1 217.6,175.4" fill="rgb(35,10,18)"/><polygon points="244.0,246.6 246.5,251.6 251.2,249.8 248.7,244.8" fill="rgb(10,10,12)"/><polygon points="240.3,242.7 244.0,246.6 248.7,244.8 245.0,240.9" fill="rgb(8,8,10)"/><polygon points="246.5,251.6 247.4,257.0 252.2,255.3 251.2,249.8" fill="rgb(13,13,16)"/><polygon points="235.9,240.4 240.3,242.7 245.0,240.9 240.4,238.4" fill="rgb(11,11,14)"/><polygon points="247.4,257.0 246.8,262.2 251.5,260.6 252.2,255.3" fill="rgb(15,15,19)"/><polygon points="231.1,239.8 235.9,240.4 240.4,238.4 235.6,237.8" fill="rgb(14,14,17)"/><polygon points="228.2,254.9 229.2,251.4 231.9,249.5 235.2,249.9 237.9,252.4 239.0,256.1 238.1,259.6 235.4,261.5 232.1,261.1 229.3,258.6" fill="rgb(180,180,190)"/><polygon points="219.7,253.9 220.5,248.5 222.9,244.1 226.6,241.0 231.1,239.8 235.9,240.4 240.3,242.7 244.0,246.6 246.5,251.6 247.4,257.0 246.8,262.2 244.5,266.7 241.0,269.9 236.5,271.3 231.7,270.8 227.0,268.5 223.2,264.5 220.7,259.4" fill="rgb(30,30,36)"/><polygon points="246.8,262.2 244.5,266.7 249.3,265.1 251.5,260.6" fill="rgb(16,16,20)"/><polygon points="268.7,222.9 269.1,233.2 273.2,231.6 272.7,221.2" fill="rgb(255,100,110)"/><polygon points="226.6,241.0 231.1,239.8 235.6,237.8 231.1,239.1" fill="rgb(16,16,19)"/><polygon points="244.5,266.7 241.0,269.9 245.7,268.4 249.3,265.1" fill="rgb(17,17,20)"/><polygon points="222.9,244.1 226.6,241.0 231.1,239.1 227.4,242.2" fill="rgb(17,17,20)"/><polygon points="241.0,269.9 236.5,271.3 241.2,269.8 245.7,268.4" fill="rgb(16,16,19)"/><polygon points="220.5,248.5 222.9,244.1 227.4,242.2 225.0,246.7" fill="rgb(16,16,20)"/><polygon points="225.2,257.7 227.7,262.9 231.6,266.9 236.3,269.3 241.2,269.8 245.7,268.4 249.3,265.1 251.5,260.6 252.2,255.3 251.2,249.8 248.7,244.8 245.0,240.9 240.4,238.4 235.6,237.8 231.1,239.1 227.4,242.2 225.0,246.7 224.2,252.1" fill="rgb(18,18,22)"/><polygon points="236.5,271.3 231.7,270.8 236.3,269.3 241.2,269.8" fill="rgb(14,14,17)"/><polygon points="219.7,253.9 220.5,248.5 225.0,246.7 224.2,252.1" fill="rgb(15,15,19)"/><polygon points="231.7,270.8 227.0,268.5 231.6,266.9 236.3,269.3" fill="rgb(11,11,14)"/><polygon points="138.9,191.2 234.9,206.5 218.5,174.8 159.9,163.9" fill="rgb(54,74,108)"/><polygon points="220.7,259.4 219.7,253.9 224.2,252.1 225.2,257.7" fill="rgb(13,13,16)"/><polygon points="227.0,268.5 223.2,264.5 227.7,262.9 231.6,266.9" fill="rgb(8,8,10)"/><polygon points="223.2,264.5 220.7,259.4 225.2,257.7 227.7,262.9" fill="rgb(10,10,12)"/><polygon points="258.6,211.2 307.0,188.2 310.0,235.6 260.1,253.0" fill="rgb(118,20,31)"/><polygon points="91.0,184.7 258.6,211.2 260.1,253.0 87.8,232.9" fill="rgb(149,38,49)"/><polygon points="277.8,183.9 257.1,149.3 218.5,174.8 234.9,206.5" fill="rgb(16,24,43)"/><polygon points="140.6,191.6 138.8,191.3 159.2,164.6 160.9,164.9" fill="rgb(35,10,18)"/><polygon points="292.2,212.8 292.8,223.8 297.5,221.9 296.9,210.8" fill="rgb(255,100,110)"/><polygon points="192.8,135.2 159.9,163.9 218.5,174.8 257.1,149.3" fill="rgb(93,19,31)"/><polygon points="130.8,232.9 133.5,238.4 136.9,236.2 134.2,230.7" fill="rgb(10,10,12)"/><polygon points="126.5,228.6 130.8,232.9 134.2,230.7 129.8,226.3" fill="rgb(8,8,10)"/><polygon points="133.5,238.4 134.3,244.3 137.7,242.3 136.9,236.2" fill="rgb(13,13,16)"/><polygon points="121.1,225.9 126.5,228.6 129.8,226.3 124.4,223.5" fill="rgb(11,11,14)"/><polygon points="119.9,152.7 307.0,188.2 258.6,211.2 91.0,184.7" fill="rgb(190,85,93)"/><polygon points="134.3,244.3 133.0,250.1 136.5,248.1 137.7,242.3" fill="rgb(15,15,19)"/><polygon points="115.2,225.1 121.1,225.9 124.4,223.5 118.4,222.7" fill="rgb(14,14,17)"/><polygon points="110.6,241.8 112.1,237.9 115.5,235.9 119.6,236.3 122.8,239.2 123.9,243.2 122.5,247.1 119.0,249.2 114.9,248.7 111.7,245.9" fill="rgb(180,180,190)"/><polygon points="100.0,240.5 101.4,234.6 104.7,229.7 109.5,226.4 115.2,225.1 121.1,225.9 126.5,228.6 130.8,232.9 133.5,238.4 134.3,244.3 133.0,250.1 129.9,255.0 125.2,258.5 119.5,260.0 113.5,259.4 107.9,256.8 103.5,252.3 100.7,246.7" fill="rgb(30,30,36)"/><polygon points="133.0,250.1 129.9,255.0 133.3,253.1 136.5,248.1" fill="rgb(16,16,20)"/><polygon points="109.5,226.4 115.2,225.1 118.4,222.7 112.6,224.1" fill="rgb(16,16,19)"/><polygon points="129.9,255.0 125.2,258.5 128.6,256.6 133.3,253.1" fill="rgb(17,17,20)"/><polygon points="278.0,183.9 276.3,183.6 256.6,148.2 258.2,148.5" fill="rgb(35,10,18)"/><polygon points="104.7,229.7 109.5,226.4 112.6,224.1 107.7,227.4" fill="rgb(17,17,20)"/><polygon points="125.2,258.5 119.5,260.0 122.8,258.2 128.6,256.6" fill="rgb(16,16,19)"/><polygon points="101.4,234.6 104.7,229.7 107.7,227.4 104.4,232.3" fill="rgb(16,16,20)"/><polygon points="103.7,244.6 106.5,250.3 111.0,254.9 116.7,257.6 122.8,258.2 128.6,256.6 133.3,253.1 136.5,248.1 137.7,242.3 136.9,236.2 134.2,230.7 129.8,226.3 124.4,223.5 118.4,222.7 112.6,224.1 107.7,227.4 104.4,232.3 103.0,238.3" fill="rgb(18,18,22)"/><polygon points="171.8,163.9 138.9,191.2 159.9,163.9 192.8,135.2" fill="rgb(28,41,74)"/><polygon points="119.5,260.0 113.5,259.4 116.7,257.6 122.8,258.2" fill="rgb(14,14,17)"/><polygon points="100.0,240.5 101.4,234.6 104.4,232.3 103.0,238.3" fill="rgb(15,15,19)"/><polygon points="117.1,208.3 87.8,232.9 260.1,253.0 310.0,235.6" fill="rgb(23,6,9)"/><polygon points="113.5,259.4 107.9,256.8 111.0,254.9 116.7,257.6" fill="rgb(11,11,14)"/><polygon points="297.9,225.8 300.8,231.5 294.6,233.8 291.7,228.2" fill="rgb(10,10,12)"/><polygon points="100.7,246.7 100.0,240.5 103.0,238.3 103.7,244.6" fill="rgb(13,13,16)"/><polygon points="293.7,221.2 297.9,225.8 291.7,228.2 287.6,223.7" fill="rgb(8,8,10)"/><polygon points="107.9,256.8 103.5,252.3 106.5,250.3 111.0,254.9" fill="rgb(8,8,10)"/><polygon points="300.8,231.5 302.1,237.8 295.8,240.0 294.6,233.8" fill="rgb(13,13,16)"/><polygon points="103.5,252.3 100.7,246.7 103.7,244.6 106.5,250.3" fill="rgb(10,10,12)"/><polygon points="288.7,218.3 293.7,221.2 287.6,223.7 282.6,220.9" fill="rgb(11,11,14)"/><polygon points="302.1,237.8 301.6,243.8 295.3,245.9 295.8,240.0" fill="rgb(15,15,19)"/><polygon points="283.4,217.5 288.7,218.3 282.6,220.9 277.4,220.1" fill="rgb(14,14,17)"/><polygon points="266.6,242.3 269.5,248.1 273.8,252.7 279.0,255.5 284.3,256.1 289.2,254.6 293.0,251.0 295.3,245.9 295.8,240.0 294.6,233.8 291.7,228.2 287.6,223.7 282.6,220.9 277.4,220.1 272.5,221.4 268.6,224.8 266.1,229.8 265.4,235.9" fill="rgb(18,18,22)"/><polygon points="301.6,243.8 299.3,249.0 293.0,251.0 295.3,245.9" fill="rgb(16,16,20)"/><polygon points="278.5,218.9 283.4,217.5 277.4,220.1 272.5,221.4" fill="rgb(16,16,19)"/><polygon points="299.3,249.0 295.5,252.6 289.2,254.6 293.0,251.0" fill="rgb(17,17,20)"/><polygon points="274.5,222.3 278.5,218.9 272.5,221.4 268.6,224.8" fill="rgb(17,17,20)"/><polygon points="171.8,163.9 192.8,135.2 257.1,149.3 277.8,183.9" fill="rgb(57,79,114)"/><polygon points="295.5,252.6 290.6,254.2 284.3,256.1 289.2,254.6" fill="rgb(16,16,19)"/><polygon points="272.0,227.4 274.5,222.3 268.6,224.8 266.1,229.8" fill="rgb(16,16,20)"/><polygon points="271.3,233.5 272.0,227.4 274.5,222.3 278.5,218.9 283.4,217.5 288.7,218.3 293.7,221.2 297.9,225.8 300.8,231.5 302.1,237.8 301.6,243.8 299.3,249.0 295.5,252.6 290.6,254.2 285.2,253.5 279.9,250.7 275.6,246.0 272.6,240.0" fill="rgb(30,30,36)"/><polygon points="281.1,234.8 282.1,230.8 285.0,228.6 288.6,229.2 291.7,232.2 293.1,236.5 292.2,240.5 289.3,242.6 285.6,242.2 282.5,239.2" fill="rgb(180,180,190)"/><polygon points="290.6,254.2 285.2,253.5 279.0,255.5 284.3,256.1" fill="rgb(14,14,17)"/><polygon points="271.3,233.5 272.0,227.4 266.1,229.8 265.4,235.9" fill="rgb(15,15,19)"/><polygon points="94.9,197.2 97.2,194.8 96.5,206.8 94.1,209.1" fill="rgb(255,235,160)"/><polygon points="285.2,253.5 279.9,250.7 273.8,252.7 279.0,255.5" fill="rgb(11,11,14)"/><polygon points="272.6,240.0 271.3,233.5 265.4,235.9 266.6,242.3" fill="rgb(13,13,16)"/><polygon points="279.9,250.7 275.6,246.0 269.5,248.1 273.8,252.7" fill="rgb(8,8,10)"/><polygon points="275.6,246.0 272.6,240.0 266.6,242.3 269.5,248.1" fill="rgb(10,10,12)"/><polygon points="119.9,152.7 117.1,208.3 310.0,235.6 307.0,188.2" fill="rgb(149,38,49)"/><polygon points="173.9,164.2 171.9,163.8 193.8,134.3 195.7,134.8" fill="rgb(35,10,18)"/><polygon points="119.9,152.7 91.0,184.7 87.8,232.9 117.1,208.3" fill="rgb(169,43,55)"/><polygon points="96.9,210.3 107.2,200.8 106.6,211.6 96.2,220.6" fill="rgb(18,18,22)"/><polygon points="108.8,183.1 111.6,180.3 110.9,193.3 108.1,195.9" fill="rgb(255,235,160)"/><polygon points="170.3,206.7 173.5,213.2 168.9,216.1 165.7,209.8" fill="rgb(10,10,12)"/><polygon points="165.3,201.5 170.3,206.7 165.7,209.8 160.8,204.7" fill="rgb(8,8,10)"/><polygon points="173.5,213.2 174.6,220.2 169.9,223.0 168.9,216.1" fill="rgb(13,13,16)"/><polygon points="159.0,198.2 165.3,201.5 160.8,204.7 154.6,201.4" fill="rgb(11,11,14)"/><polygon points="174.6,220.2 173.3,227.0 168.6,229.7 169.9,223.0" fill="rgb(15,15,19)"/><polygon points="152.3,197.1 159.0,198.2 154.6,201.4 147.9,200.4" fill="rgb(14,14,17)"/><polygon points="131.8,225.0 135.1,231.6 140.3,236.9 146.7,240.1 153.5,240.9 160.0,239.2 165.2,235.3 168.6,229.7 169.9,223.0 168.9,216.1 165.7,209.8 160.8,204.7 154.6,201.4 147.9,200.4 141.5,201.8 136.1,205.4 132.4,211.0 130.9,217.8" fill="rgb(18,18,22)"/><polygon points="173.3,227.0 169.9,232.7 165.2,235.3 168.6,229.7" fill="rgb(16,16,20)"/><polygon points="145.7,198.5 152.3,197.1 147.9,200.4 141.5,201.8" fill="rgb(16,16,19)"/><polygon points="169.9,232.7 164.6,236.7 160.0,239.2 165.2,235.3" fill="rgb(17,17,20)"/><polygon points="140.2,202.2 145.7,198.5 141.5,201.8 136.1,205.4" fill="rgb(17,17,20)"/><polygon points="164.6,236.7 158.1,238.3 153.5,240.9 160.0,239.2" fill="rgb(16,16,19)"/><polygon points="136.5,207.9 140.2,202.2 136.1,205.4 132.4,211.0" fill="rgb(16,16,20)"/><polygon points="135.0,214.8 136.5,207.9 140.2,202.2 145.7,198.5 152.3,197.1 159.0,198.2 165.3,201.5 170.3,206.7 173.5,213.2 174.6,220.2 173.3,227.0 169.9,232.7 164.6,236.7 158.1,238.3 151.1,237.5 144.6,234.2 139.3,228.8 135.9,222.1" fill="rgb(30,30,36)"/><polygon points="147.5,216.4 149.1,211.9 153.1,209.6 157.8,210.3 161.6,213.7 162.9,218.5 161.4,223.0 157.4,225.4 152.7,224.7 148.9,221.3" fill="rgb(180,180,190)"/><polygon points="158.1,238.3 151.1,237.5 146.7,240.1 153.5,240.9" fill="rgb(14,14,17)"/><polygon points="135.0,214.8 136.5,207.9 132.4,211.0 130.9,217.8" fill="rgb(15,15,19)"/><polygon points="151.1,237.5 144.6,234.2 140.3,236.9 146.7,240.1" fill="rgb(11,11,14)"/><polygon points="135.9,222.1 135.0,214.8 130.9,217.8 131.8,225.0" fill="rgb(13,13,16)"/><polygon points="144.6,234.2 139.3,228.8 135.1,231.6 140.3,236.9" fill="rgb(8,8,10)"/><polygon points="139.3,228.8 135.9,222.1 131.8,225.0 135.1,231.6" fill="rgb(10,10,12)"/></svg>