<svg xmlns="http://www.w3.org/2000/svg" viewBox="0 0 400 400"><rect width="400" height="400" fill="#0f1020"/><rect x="0" y="250" width="400" height="150" fill="#0a0b17"/><ellipse cx="200" cy="262" rx="120" ry="16" fill="rgba(0,0,0,0.45)"/><polygon points="155.8,227.4 155.6,237.4 161.1,238.5 161.4,228.6" fill="rgb(255,100,110)"/><polygon points="187.0,249.2 185.3,254.2 178.5,253.0 180.3,247.9" fill="rgb(8,8,10)"/><polygon points="185.3,254.2 184.7,259.5 177.9,258.4 178.5,253.0" fill="rgb(10,10,12)"/><polygon points="189.7,245.1 187.0,249.2 180.3,247.9 182.9,243.8" fill="rgb(10,10,13)"/><polygon points="184.7,259.5 185.2,264.6 178.4,263.5 177.9,258.4" fill="rgb(12,12,15)"/><polygon points="190.7,209.2 191.8,208.8 204.1,176.0 203.0,176.5" fill="rgb(35,10,18)"/><polygon points="192.9,242.4 189.7,245.1 182.9,243.8 186.2,241.0" fill="rgb(12,12,15)"/><polygon points="185.2,264.6 186.9,268.8 180.1,267.8 178.4,263.5" fill="rgb(14,14,17)"/><polygon points="196.4,241.4 192.9,242.4 186.2,241.0 189.6,240.0" fill="rgb(14,14,17)"/><polygon points="186.9,268.8 189.5,271.7 182.7,270.7 180.1,267.8" fill="rgb(15,15,18)"/><polygon points="109.9,200.9 174.6,216.0 173.9,256.6 107.5,245.2" fill="rgb(90,15,24)"/><polygon points="198.8,256.1 198.0,252.7 196.0,251.1 193.6,251.7 191.6,254.4 190.9,258.1 191.6,261.4 193.6,263.1 196.0,262.6 198.0,259.9" fill="rgb(180,180,190)"/><polygon points="205.0,254.5 204.3,249.2 202.5,245.0 199.7,242.3 196.4,241.4 192.9,242.4 189.7,245.1 187.0,249.2 185.3,254.2 184.7,259.5 185.2,264.6 186.9,268.8 189.5,271.7 192.8,272.9 196.3,272.1 199.7,269.5 202.5,265.3 204.4,260.1" fill="rgb(30,30,36)"/><polygon points="199.7,242.3 196.4,241.4 189.6,240.0 193.0,240.9" fill="rgb(15,15,18)"/><polygon points="189.5,271.7 192.8,272.9 185.9,271.8 182.7,270.7" fill="rgb(15,15,18)"/><polygon points="197.5,258.9 195.6,264.2 192.8,268.4 189.5,271.1 185.9,271.8 182.7,270.7 180.1,267.8 178.4,263.5 177.9,258.4 178.5,253.0 180.3,247.9 182.9,243.8 186.2,241.0 189.6,240.0 193.0,240.9 195.7,243.7 197.5,247.9 198.1,253.2" fill="rgb(18,18,22)"/><polygon points="202.5,245.0 199.7,242.3 193.0,240.9 195.7,243.7" fill="rgb(15,15,18)"/><polygon points="192.8,272.9 196.3,272.1 189.5,271.1 185.9,271.8" fill="rgb(14,14,17)"/><polygon points="204.3,249.2 202.5,245.0 195.7,243.7 197.5,247.9" fill="rgb(14,14,17)"/><polygon points="123.7,220.6 123.2,231.1 129.3,232.3 129.7,221.9" fill="rgb(255,100,110)"/><polygon points="196.3,272.1 199.7,269.5 192.8,268.4 189.5,271.1" fill="rgb(12,12,15)"/><polygon points="205.0,254.5 204.3,249.2 197.5,247.9 198.1,253.2" fill="rgb(12,12,15)"/><polygon points="199.7,269.5 202.5,265.3 195.6,264.2 192.8,268.4" fill="rgb(10,10,13)"/><polygon points="204.4,260.1 205.0,254.5 198.1,253.2 197.5,258.9" fill="rgb(10,10,12)"/><polygon points="202.5,265.3 204.4,260.1 197.5,258.9 195.6,264.2" fill="rgb(8,8,10)"/><polygon points="190.6,209.1 201.6,176.0 143.7,158.3 129.2,193.8" fill="rgb(14,21,37)"/><polygon points="264.8,182.8 246.6,157.2 201.6,176.0 190.6,209.1" fill="rgb(66,90,131)"/><polygon points="306.8,169.4 310.2,221.2 173.9,256.6 174.6,216.0" fill="rgb(181,46,59)"/><polygon points="112.7,235.3 110.9,240.9 119.1,242.3 120.9,236.8" fill="rgb(8,8,10)"/><polygon points="110.9,240.9 110.0,246.8 118.3,248.2 119.1,242.3" fill="rgb(10,10,12)"/><polygon points="129.0,193.8 130.1,193.3 143.1,157.2 142.0,157.8" fill="rgb(35,10,18)"/><polygon points="115.3,230.7 112.7,235.3 120.9,236.8 123.5,232.2" fill="rgb(10,10,13)"/><polygon points="110.0,246.8 110.3,252.4 118.5,253.7 118.3,248.2" fill="rgb(12,12,15)"/><polygon points="246.6,157.2 187.1,135.7 143.7,158.3 201.6,176.0" fill="rgb(93,19,31)"/><polygon points="118.5,227.5 115.3,230.7 123.5,232.2 126.7,229.2" fill="rgb(12,12,15)"/><polygon points="110.3,252.4 111.6,257.0 119.9,258.3 118.5,253.7" fill="rgb(14,14,17)"/><polygon points="121.7,226.3 118.5,227.5 126.7,229.2 130.0,228.0" fill="rgb(14,14,17)"/><polygon points="111.6,257.0 113.9,260.2 122.2,261.4 119.9,258.3" fill="rgb(15,15,18)"/><polygon points="136.6,248.2 134.7,254.0 131.9,258.7 128.6,261.7 125.2,262.6 122.2,261.4 119.9,258.3 118.5,253.7 118.3,248.2 119.1,242.3 120.9,236.8 123.5,232.2 126.7,229.2 130.0,228.0 133.0,228.8 135.5,231.7 137.0,236.3 137.4,242.1" fill="rgb(18,18,22)"/><polygon points="124.8,227.2 121.7,226.3 130.0,228.0 133.0,228.8" fill="rgb(15,15,18)"/><polygon points="113.9,260.2 116.8,261.3 125.2,262.6 122.2,261.4" fill="rgb(15,15,18)"/><polygon points="263.4,183.4 264.9,182.8 248.1,157.8 246.7,158.3" fill="rgb(35,10,18)"/><polygon points="129.0,240.5 128.7,234.7 127.2,230.1 124.8,227.2 121.7,226.3 118.5,227.5 115.3,230.7 112.7,235.3 110.9,240.9 110.0,246.8 110.3,252.4 111.6,257.0 113.9,260.2 116.8,261.3 120.2,260.4 123.4,257.4 126.2,252.6 128.2,246.7" fill="rgb(30,30,36)"/><polygon points="122.8,242.4 122.2,238.7 120.5,236.9 118.2,237.7 116.3,240.8 115.4,244.9 115.9,248.6 117.6,250.4 119.9,249.7 121.9,246.7" fill="rgb(180,180,190)"/><polygon points="127.2,230.1 124.8,227.2 133.0,228.8 135.5,231.7" fill="rgb(15,15,18)"/><polygon points="306.8,169.4 174.6,216.0 109.9,200.9 237.4,143.0" fill="rgb(190,85,93)"/><polygon points="116.8,261.3 120.2,260.4 128.6,261.7 125.2,262.6" fill="rgb(14,14,17)"/><polygon points="128.7,234.7 127.2,230.1 135.5,231.7 137.0,236.3" fill="rgb(14,14,17)"/><polygon points="120.2,260.4 123.4,257.4 131.9,258.7 128.6,261.7" fill="rgb(12,12,15)"/><polygon points="129.0,240.5 128.7,234.7 137.0,236.3 137.4,242.1" fill="rgb(12,12,15)"/><polygon points="123.4,257.4 126.2,252.6 134.7,254.0 131.9,258.7" fill="rgb(10,10,13)"/><polygon points="128.2,246.7 129.0,240.5 137.4,242.1 136.6,248.2" fill="rgb(10,10,12)"/><polygon points="126.2,252.6 128.2,246.7 136.6,248.2 134.7,254.0" fill="rgb(8,8,10)"/><polygon points="200.6,161.7 129.2,193.8 143.7,158.3 187.1,135.7" fill="rgb(69,95,138)"/><polygon points="310.2,221.2 238.8,200.9 107.5,245.2 173.9,256.6" fill="rgb(23,6,9)"/><polygon points="264.8,182.8 200.6,161.7 187.1,135.7 246.6,157.2" fill="rgb(23,34,61)"/><polygon points="275.2,225.4 273.0,231.4 266.1,229.7 268.2,223.6" fill="rgb(8,8,10)"/><polygon points="273.0,231.4 272.5,237.8 265.5,236.1 266.1,229.7" fill="rgb(10,10,12)"/><polygon points="278.8,220.4 275.2,225.4 268.2,223.6 271.8,218.6" fill="rgb(10,10,13)"/><polygon points="272.5,237.8 273.6,243.7 266.5,242.2 265.5,236.1" fill="rgb(12,12,15)"/><polygon points="283.3,217.0 278.8,220.4 271.8,218.6 276.4,215.1" fill="rgb(12,12,15)"/><polygon points="273.6,243.7 276.3,248.7 269.2,247.1 266.5,242.2" fill="rgb(14,14,17)"/><polygon points="288.3,215.6 283.3,217.0 276.4,215.1 281.4,213.6" fill="rgb(14,14,17)"/><polygon points="276.3,248.7 280.2,251.9 273.2,250.4 269.2,247.1" fill="rgb(15,15,18)"/><polygon points="292.7,232.9 291.4,228.9 288.3,227.1 284.8,228.0 282.2,231.3 281.3,235.7 282.6,239.6 285.5,241.5 289.1,240.7 291.8,237.4" fill="rgb(180,180,190)"/><polygon points="301.8,230.5 300.5,224.3 297.5,219.4 293.3,216.4 288.3,215.6 283.3,217.0 278.8,220.4 275.2,225.4 273.0,231.4 272.5,237.8 273.6,243.7 276.3,248.7 280.2,251.9 285.1,253.1 290.2,252.0 295.0,248.7 298.9,243.6 301.2,237.2" fill="rgb(30,30,36)"/><polygon points="237.4,143.0 109.9,200.9 107.5,245.2 238.8,200.9" fill="rgb(181,46,59)"/><polygon points="293.3,216.4 288.3,215.6 281.4,213.6 286.3,214.4" fill="rgb(15,15,18)"/><polygon points="280.2,251.9 285.1,253.1 278.0,251.6 273.2,250.4" fill="rgb(15,15,18)"/><polygon points="294.2,235.5 291.8,241.9 288.0,247.1 283.2,250.5 278.0,251.6 273.2,250.4 269.2,247.1 266.5,242.2 265.5,236.1 266.1,229.7 268.2,223.6 271.8,218.6 276.4,215.1 281.4,213.6 286.3,214.4 290.5,217.5 293.5,222.4 294.7,228.7" fill="rgb(18,18,22)"/><polygon points="297.5,219.4 293.3,216.4 286.3,214.4 290.5,217.5" fill="rgb(15,15,18)"/><polygon points="285.1,253.1 290.2,252.0 283.2,250.5 278.0,251.6" fill="rgb(14,14,17)"/><polygon points="300.5,224.3 297.5,219.4 290.5,217.5 293.5,222.4" fill="rgb(14,14,17)"/><polygon points="290.2,252.0 295.0,248.7 288.0,247.1 283.2,250.5" fill="rgb(12,12,15)"/><polygon points="199.0,162.3 200.4,161.7 185.4,135.1 184.0,135.8" fill="rgb(35,10,18)"/><polygon points="301.8,230.5 300.5,224.3 293.5,222.4 294.7,228.7" fill="rgb(12,12,15)"/><polygon points="295.0,248.7 298.9,243.6 291.8,241.9 288.0,247.1" fill="rgb(10,10,13)"/><polygon points="301.2,237.2 301.8,230.5 294.7,228.7 294.2,235.5" fill="rgb(10,10,12)"/><polygon points="298.9,243.6 301.2,237.2 294.2,235.5 291.8,241.9" fill="rgb(8,8,10)"/><polygon points="289.1,182.0 294.9,184.0 295.7,196.7 289.8,194.8" fill="rgb(255,235,160)"/><polygon points="196.7,205.1 194.3,212.0 203.2,214.2 205.5,207.4" fill="rgb(8,8,10)"/><polygon points="194.3,212.0 193.5,219.2 202.4,221.3 203.2,214.2" fill="rgb(10,10,12)"/><polygon points="306.8,169.4 237.4,143.0 238.8,200.9 310.2,221.2" fill="rgb(129,33,42)"/><polygon points="200.3,199.3 196.7,205.1 205.5,207.4 209.2,201.7" fill="rgb(10,10,13)"/><polygon points="193.5,219.2 194.3,225.9 203.2,227.9 202.4,221.3" fill="rgb(12,12,15)"/><polygon points="204.9,195.2 200.3,199.3 209.2,201.7 213.7,197.7" fill="rgb(12,12,15)"/><polygon points="263.4,190.8 288.5,198.6 289.1,209.6 263.9,202.2" fill="rgb(18,18,22)"/><polygon points="194.3,225.9 196.7,231.3 205.6,233.3 203.2,227.9" fill="rgb(14,14,17)"/><polygon points="209.8,193.4 204.9,195.2 213.7,197.7 218.6,195.9" fill="rgb(14,14,17)"/><polygon points="196.7,231.3 200.4,234.9 209.4,236.8 205.6,233.3" fill="rgb(15,15,18)"/><polygon points="230.4,219.6 227.9,226.8 223.9,232.7 219.1,236.6 214.0,238.0 209.4,236.8 205.6,233.3 203.2,227.9 202.4,221.3 203.2,214.2 205.5,207.4 209.2,201.7 213.7,197.7 218.6,195.9 223.4,196.6 227.4,199.8 230.2,205.1 231.2,212.0" fill="rgb(18,18,22)"/><polygon points="214.5,194.1 209.8,193.4 218.6,195.9 223.4,196.6" fill="rgb(15,15,18)"/><polygon points="254.5,170.0 261.1,172.3 261.6,185.7 255.0,183.6" fill="rgb(255,235,160)"/><polygon points="200.4,234.9 205.0,236.0 214.0,238.0 209.4,236.8" fill="rgb(15,15,18)"/><polygon points="222.2,209.7 221.2,202.7 218.5,197.3 214.5,194.1 209.8,193.4 204.9,195.2 200.3,199.3 196.7,205.1 194.3,212.0 193.5,219.2 194.3,225.9 196.7,231.3 200.4,234.9 205.0,236.0 210.0,234.6 214.9,230.6 218.8,224.6 221.4,217.3" fill="rgb(30,30,36)"/><polygon points="212.8,212.6 211.7,208.2 208.8,206.2 205.4,207.4 202.7,211.3 201.6,216.3 202.7,220.7 205.5,222.8 208.9,221.7 211.7,217.8" fill="rgb(180,180,190)"/><polygon points="218.5,197.3 214.5,194.1 223.4,196.6 227.4,199.8" fill="rgb(15,15,18)"/><polygon points="205.0,236.0 210.0,234.6 219.1,236.6 214.0,238.0" fill="rgb(14,14,17)"/><polygon points="221.2,202.7 218.5,197.3 227.4,199.8 230.2,205.1" fill="rgb(14,14,17)"/><polygon points="210.0,234.6 214.9,230.6 223.9,232.7 219.1,236.6" fill="rgb(12,12,15)"/><polygon points="222.2,209.7 221.2,202.7 230.2,205.1 231.2,212.0" fill="rgb(12,12,15)"/><polygon points="214.9,230.6 218.8,224.6 227.9,226.8 223.9,232.7" fill="rgb(10,10,13)"/><polygon points="221.4,217.3 222.2,209.7 231.2,212.0 230.4,219.6" fill="rgb(10,10,12)"/><polygon points="218.8,224.6 221.4,217.3 230.4,219.6 227.9,226.8" fill="rgb(8,8,10)"/></svg>