<svg xmlns="http://www.w3.org/2000/svg" viewBox="0 0 400 400"><rect width="400" height="400" fill="#0f1020"/><rect x="0" y="250" width="400" height="150" fill="#0a0b17"/><ellipse cx="200" cy="262" rx="120" ry="16" fill="rgba(0,0,0,0.45)"/><polygon points="167.9,229.3 162.1,228.2 161.9,238.2 167.7,239.2" fill="rgb(255,235,160)"/><polygon points="191.9,254.4 193.5,249.3 186.4,248.2 184.8,253.3" fill="rgb(8,8,9)"/><polygon points="191.3,259.7 191.9,254.4 184.8,253.3 184.2,258.7" fill="rgb(10,10,13)"/><polygon points="193.5,249.3 195.9,245.2 188.8,244.0 186.4,248.2" fill="rgb(10,10,12)"/><polygon points="191.8,264.8 191.3,259.7 184.2,258.7 184.7,263.8" fill="rgb(12,12,15)"/><polygon points="195.9,245.2 198.8,242.5 191.7,241.2 188.8,244.0" fill="rgb(12,12,15)"/><polygon points="193.4,269.0 191.8,264.8 184.7,263.8 186.2,268.0" fill="rgb(14,14,17)"/><polygon points="114.6,203.0 181.5,216.5 181.1,257.0 112.3,246.8" fill="rgb(136,35,44)"/><polygon points="198.8,242.5 202.0,241.4 194.9,240.2 191.7,241.2" fill="rgb(14,14,17)"/><polygon points="195.8,271.8 193.4,269.0 186.2,268.0 188.6,270.9" fill="rgb(15,15,18)"/><polygon points="160.4,241.3 136.2,237.3 135.8,246.0 160.2,249.7" fill="rgb(18,18,22)"/><polygon points="197.0,258.2 197.7,254.5 199.5,251.7 201.8,251.1 203.6,252.7 204.3,256.1 203.6,259.9 201.8,262.6 199.5,263.2 197.7,261.5" fill="rgb(180,180,190)"/><polygon points="191.3,259.7 191.9,254.4 193.5,249.3 195.9,245.2 198.8,242.5 202.0,241.4 205.1,242.3 207.6,244.9 209.3,249.1 210.0,254.4 209.4,260.0 207.7,265.2 205.2,269.5 202.1,272.1 198.8,272.9 195.8,271.8 193.4,269.0 191.8,264.8" fill="rgb(30,30,36)"/><polygon points="202.0,241.4 205.1,242.3 197.9,241.0 194.9,240.2" fill="rgb(15,15,18)"/><polygon points="198.8,272.9 195.8,271.8 188.6,270.9 191.6,272.0" fill="rgb(15,15,18)"/><polygon points="184.7,263.8 186.2,268.0 188.6,270.9 191.6,272.0 194.8,271.2 197.9,268.5 200.5,264.2 202.1,258.9 202.7,253.2 202.1,247.9 200.4,243.7 197.9,241.0 194.9,240.2 191.7,241.2 188.8,244.0 186.4,248.2 184.8,253.3 184.2,258.7" fill="rgb(18,18,22)"/><polygon points="205.2,205.5 204.2,205.9 215.7,172.2 216.8,171.7" fill="rgb(35,10,18)"/><polygon points="135.1,223.3 128.9,222.2 128.4,232.5 134.7,233.6" fill="rgb(255,235,160)"/><polygon points="205.1,242.3 207.6,244.9 200.4,243.7 197.9,241.0" fill="rgb(15,15,18)"/><polygon points="202.1,272.1 198.8,272.9 191.6,272.0 194.8,271.2" fill="rgb(14,14,17)"/><polygon points="207.6,244.9 209.3,249.1 202.1,247.9 200.4,243.7" fill="rgb(14,14,17)"/><polygon points="205.2,269.5 202.1,272.1 194.8,271.2 197.9,268.5" fill="rgb(12,12,15)"/><polygon points="209.3,249.1 210.0,254.4 202.7,253.2 202.1,247.9" fill="rgb(12,12,15)"/><polygon points="207.7,265.2 205.2,269.5 197.9,268.5 200.5,264.2" fill="rgb(10,10,12)"/><polygon points="210.0,254.4 209.4,260.0 202.1,258.9 202.7,253.2" fill="rgb(10,10,13)"/><polygon points="209.4,260.0 207.7,265.2 200.5,264.2 202.1,258.9" fill="rgb(8,8,9)"/><polygon points="139.3,191.6 204.0,205.9 214.2,171.8 152.7,155.1" fill="rgb(13,19,35)"/><polygon points="114.6,242.5 116.3,236.9 124.7,238.3 123.1,243.8" fill="rgb(8,8,9)"/><polygon points="113.9,248.4 114.6,242.5 123.1,243.8 122.3,249.6" fill="rgb(10,10,13)"/><polygon points="116.3,236.9 118.5,232.3 127.0,233.7 124.7,238.3" fill="rgb(10,10,12)"/><polygon points="114.1,253.9 113.9,248.4 122.3,249.6 122.6,255.1" fill="rgb(12,12,15)"/><polygon points="204.0,205.9 275.7,176.3 257.6,150.7 214.2,171.8" fill="rgb(64,88,129)"/><polygon points="118.5,232.3 121.3,229.2 129.7,230.6 127.0,233.7" fill="rgb(12,12,15)"/><polygon points="115.2,258.5 114.1,253.9 122.6,255.1 123.7,259.6" fill="rgb(14,14,17)"/><polygon points="181.5,216.5 304.1,166.3 307.5,218.8 181.1,257.0" fill="rgb(177,45,58)"/><polygon points="121.3,229.2 124.1,227.9 132.6,229.4 129.7,230.6" fill="rgb(14,14,17)"/><polygon points="117.2,261.5 115.2,258.5 123.7,259.6 125.7,262.6" fill="rgb(15,15,18)"/><polygon points="122.6,255.1 123.7,259.6 125.7,262.6 128.4,263.7 131.3,262.8 134.2,259.8 136.6,255.1 138.4,249.3 139.1,243.2 138.8,237.5 137.5,233.0 135.3,230.2 132.6,229.4 129.7,230.6 127.0,233.7 124.7,238.3 123.1,243.8 122.3,249.6" fill="rgb(18,18,22)"/><polygon points="124.1,227.9 126.7,228.7 135.3,230.2 132.6,229.4" fill="rgb(15,15,18)"/><polygon points="119.7,262.6 117.2,261.5 125.7,262.6 128.4,263.7" fill="rgb(15,15,18)"/><polygon points="140.0,191.0 139.1,191.5 150.9,154.7 151.9,154.0" fill="rgb(35,10,18)"/><polygon points="113.9,248.4 114.6,242.5 116.3,236.9 118.5,232.3 121.3,229.2 124.1,227.9 126.7,228.7 128.8,231.5 130.1,236.1 130.4,241.8 129.6,248.0 127.9,253.9 125.5,258.6 122.6,261.6 119.7,262.6 117.2,261.5 115.2,258.5 114.1,253.9" fill="rgb(30,30,36)"/><polygon points="118.5,246.4 119.3,242.3 121.0,239.3 122.9,238.4 124.5,240.2 124.9,243.9 124.1,248.0 122.4,251.1 120.4,251.8 118.9,250.0" fill="rgb(180,180,190)"/><polygon points="126.7,228.7 128.8,231.5 137.5,233.0 135.3,230.2" fill="rgb(15,15,18)"/><polygon points="122.6,261.6 119.7,262.6 128.4,263.7 131.3,262.8" fill="rgb(14,14,17)"/><polygon points="152.7,155.1 214.2,171.8 257.6,150.7 193.0,130.2" fill="rgb(93,19,31)"/><polygon points="128.8,231.5 130.1,236.1 138.8,237.5 137.5,233.0" fill="rgb(14,14,17)"/><polygon points="125.5,258.6 122.6,261.6 131.3,262.8 134.2,259.8" fill="rgb(12,12,15)"/><polygon points="114.6,203.0 227.4,141.9 304.1,166.3 181.5,216.5" fill="rgb(190,85,93)"/><polygon points="130.1,236.1 130.4,241.8 139.1,243.2 138.8,237.5" fill="rgb(12,12,15)"/><polygon points="127.9,253.9 125.5,258.6 134.2,259.8 136.6,255.1" fill="rgb(10,10,12)"/><polygon points="130.4,241.8 129.6,248.0 138.4,249.3 139.1,243.2" fill="rgb(10,10,13)"/><polygon points="129.6,248.0 127.9,253.9 136.6,255.1 138.4,249.3" fill="rgb(8,8,9)"/><polygon points="275.8,176.4 274.4,177.0 257.8,151.9 259.1,151.2" fill="rgb(35,10,18)"/><polygon points="112.3,246.8 181.1,257.0 307.5,218.8 228.4,200.1" fill="rgb(23,6,9)"/><polygon points="139.3,191.6 152.7,155.1 193.0,130.2 205.5,156.1" fill="rgb(68,93,135)"/><polygon points="273.1,230.0 275.1,223.8 267.5,222.2 265.4,228.4" fill="rgb(8,8,9)"/><polygon points="272.6,236.4 273.1,230.0 265.4,228.4 264.9,234.9" fill="rgb(10,10,13)"/><polygon points="275.1,223.8 278.4,218.7 270.8,217.0 267.5,222.2" fill="rgb(10,10,12)"/><polygon points="273.6,242.4 272.6,236.4 264.9,234.9 265.9,240.9" fill="rgb(12,12,15)"/><polygon points="114.6,203.0 112.3,246.8 228.4,200.1 227.4,141.9" fill="rgb(177,45,58)"/><polygon points="278.4,218.7 282.7,215.2 275.0,213.4 270.8,217.0" fill="rgb(12,12,15)"/><polygon points="276.1,247.3 273.6,242.4 265.9,240.9 268.4,245.9" fill="rgb(14,14,17)"/><polygon points="205.5,156.1 193.0,130.2 257.6,150.7 275.7,176.3" fill="rgb(24,36,63)"/><polygon points="282.7,215.2 287.4,213.6 279.7,211.8 275.0,213.4" fill="rgb(14,14,17)"/><polygon points="279.9,250.5 276.1,247.3 268.4,245.9 272.1,249.2" fill="rgb(15,15,18)"/><polygon points="280.9,234.1 281.7,229.6 284.2,226.2 287.5,225.2 290.3,227.0 291.6,231.0 290.8,235.6 288.2,239.0 284.9,239.9 282.1,238.0" fill="rgb(180,180,190)"/><polygon points="272.6,236.4 273.1,230.0 275.1,223.8 278.4,218.7 282.7,215.2 287.4,213.6 292.0,214.3 296.0,217.3 298.8,222.2 300.1,228.5 299.6,235.3 297.4,241.7 293.8,247.0 289.3,250.5 284.5,251.7 279.9,250.5 276.1,247.3 273.6,242.4" fill="rgb(30,30,36)"/><polygon points="287.4,213.6 292.0,214.3 284.3,212.5 279.7,211.8" fill="rgb(15,15,18)"/><polygon points="284.5,251.7 279.9,250.5 272.1,249.2 276.7,250.3" fill="rgb(15,15,18)"/><polygon points="265.9,240.9 268.4,245.9 272.1,249.2 276.7,250.3 281.5,249.0 286.0,245.5 289.6,240.2 291.8,233.6 292.3,226.8 291.1,220.4 288.3,215.5 284.3,212.5 279.7,211.8 275.0,213.4 270.8,217.0 267.5,222.2 265.4,228.4 264.9,234.9" fill="rgb(18,18,22)"/><polygon points="292.0,214.3 296.0,217.3 288.3,215.5 284.3,212.5" fill="rgb(15,15,18)"/><polygon points="289.3,250.5 284.5,251.7 276.7,250.3 281.5,249.0" fill="rgb(14,14,17)"/><polygon points="296.0,217.3 298.8,222.2 291.1,220.4 288.3,215.5" fill="rgb(14,14,17)"/><polygon points="293.8,247.0 289.3,250.5 281.5,249.0 286.0,245.5" fill="rgb(12,12,15)"/><polygon points="298.8,222.2 300.1,228.5 292.3,226.8 291.1,220.4" fill="rgb(12,12,15)"/><polygon points="297.4,241.7 293.8,247.0 286.0,245.5 289.6,240.2" fill="rgb(10,10,12)"/><polygon points="300.1,228.5 299.6,235.3 291.8,233.6 292.3,226.8" fill="rgb(10,10,13)"/><polygon points="299.6,235.3 297.4,241.7 289.6,240.2 291.8,233.6" fill="rgb(8,8,9)"/><polygon points="205.3,156.0 204.0,156.7 189.9,130.4 191.1,129.6" fill="rgb(35,10,18)"/><polygon points="290.6,181.4 291.4,194.3 284.8,192.6 284.1,179.6" fill="rgb(255,100,110)"/><polygon points="187.8,212.2 190.0,205.3 199.4,207.3 197.3,214.2" fill="rgb(8,8,9)"/><polygon points="187.1,219.4 187.8,212.2 197.3,214.2 196.6,221.3" fill="rgb(10,10,13)"/><polygon points="190.0,205.3 193.2,199.4 202.7,201.5 199.4,207.3" fill="rgb(10,10,12)"/><polygon points="187.7,226.1 187.1,219.4 196.6,221.3 197.3,227.9" fill="rgb(12,12,15)"/><polygon points="193.2,199.4 197.2,195.2 206.8,197.4 202.7,201.5" fill="rgb(12,12,15)"/><polygon points="304.1,166.3 227.4,141.9 228.4,200.1 307.5,218.8" fill="rgb(95,16,25)"/><polygon points="189.8,231.5 187.7,226.1 197.3,227.9 199.4,233.2" fill="rgb(14,14,17)"/><polygon points="197.2,195.2 201.6,193.2 211.2,195.5 206.8,197.4" fill="rgb(14,14,17)"/><polygon points="193.1,234.9 189.8,231.5 199.4,233.2 202.7,236.7" fill="rgb(15,15,18)"/><polygon points="197.3,227.9 199.4,233.2 202.7,236.7 206.9,237.8 211.5,236.3 215.8,232.3 219.4,226.3 221.7,219.0 222.4,211.4 221.5,204.5 219.1,199.2 215.5,196.1 211.2,195.5 206.8,197.4 202.7,201.5 199.4,207.3 197.3,214.2 196.6,221.3" fill="rgb(18,18,22)"/><polygon points="201.6,193.2 205.8,193.8 215.5,196.1 211.2,195.5" fill="rgb(15,15,18)"/><polygon points="197.2,236.0 193.1,234.9 202.7,236.7 206.9,237.8" fill="rgb(15,15,18)"/><polygon points="187.1,219.4 187.8,212.2 190.0,205.3 193.2,199.4 197.2,195.2 201.6,193.2 205.8,193.8 209.4,196.9 211.7,202.3 212.6,209.3 211.8,217.0 209.5,224.3 206.0,230.4 201.7,234.5 197.2,236.0 193.1,234.9 189.8,231.5 187.7,226.1" fill="rgb(30,30,36)"/><polygon points="194.2,216.4 195.2,211.3 197.6,207.4 200.7,206.1 203.2,208.0 204.1,212.4 203.2,217.6 200.7,221.6 197.6,222.7 195.1,220.7" fill="rgb(180,180,190)"/><polygon points="253.2,170.7 253.6,184.2 246.3,182.2 245.9,168.6" fill="rgb(255,100,110)"/><polygon points="205.8,193.8 209.4,196.9 219.1,199.2 215.5,196.1" fill="rgb(15,15,18)"/><polygon points="201.7,234.5 197.2,236.0 206.9,237.8 211.5,236.3" fill="rgb(14,14,17)"/><polygon points="209.4,196.9 211.7,202.3 221.5,204.5 219.1,199.2" fill="rgb(14,14,17)"/><polygon points="206.0,230.4 201.7,234.5 211.5,236.3 215.8,232.3" fill="rgb(12,12,15)"/><polygon points="211.7,202.3 212.6,209.3 222.4,211.4 221.5,204.5" fill="rgb(12,12,15)"/><polygon points="209.5,224.3 206.0,230.4 215.8,232.3 219.4,226.3" fill="rgb(10,10,12)"/><polygon points="212.6,209.3 211.8,217.0 221.7,219.0 222.4,211.4" fill="rgb(10,10,13)"/><polygon points="211.8,217.0 209.5,224.3 219.4,226.3 221.7,219.0" fill="rgb(8,8,9)"/></svg>