<svg xmlns="http://www.w3.org/2000/svg" viewBox="0 0 400 400"><rect width="400" height="400" fill="#0f1020"/><rect x="0" y="250" width="400" height="150" fill="#0a0b17"/><ellipse cx="200" cy="262" rx="120" ry="16" fill="rgba(0,0,0,0.45)"/><polygon points="252.8,202.3 251.0,202.2 231.1,172.4 232.8,172.5" fill="rgb(35,10,18)"/><polygon points="148.0,197.0 252.8,202.3 233.3,171.9 169.1,168.1" fill="rgb(62,85,124)"/><polygon points="256.5,236.8 261.8,238.9 264.2,236.7 258.9,234.6" fill="rgb(12,12,15)"/><polygon points="261.8,238.9 266.1,242.6 268.6,240.5 264.2,236.7" fill="rgb(9,9,12)"/><polygon points="251.0,236.6 256.5,236.8 258.9,234.6 253.3,234.3" fill="rgb(14,14,17)"/><polygon points="248.0,252.3 249.1,248.6 252.1,246.5 255.9,246.6 259.1,249.0 260.4,252.7 259.4,256.4 256.3,258.5 252.5,258.4 249.3,256.0" fill="rgb(180,180,190)"/><polygon points="266.1,242.6 269.0,247.5 271.6,245.4 268.6,240.5" fill="rgb(8,8,10)"/><polygon points="238.2,251.9 239.0,246.4 241.7,241.7 245.9,238.3 251.0,236.6 256.5,236.8 261.8,238.9 266.1,242.6 269.0,247.5 270.2,253.0 269.5,258.5 266.9,263.3 262.8,266.8 257.6,268.6 252.0,268.4 246.6,266.3 242.2,262.5 239.3,257.5" fill="rgb(30,30,36)"/><polygon points="245.9,238.3 251.0,236.6 253.3,234.3 248.1,236.1" fill="rgb(15,15,19)"/><polygon points="269.0,247.5 270.2,253.0 272.8,251.0 271.6,245.4" fill="rgb(11,11,14)"/><polygon points="149.9,197.2 148.0,197.1 168.9,168.8 170.7,168.9" fill="rgb(35,10,18)"/><polygon points="241.7,241.7 245.9,238.3 248.1,236.1 243.9,239.5" fill="rgb(16,16,19)"/><polygon points="270.2,253.0 269.5,258.5 272.1,256.6 272.8,251.0" fill="rgb(13,13,16)"/><polygon points="239.0,246.4 241.7,241.7 243.9,239.5 241.2,244.3" fill="rgb(15,15,18)"/><polygon points="269.5,258.5 266.9,263.3 269.5,261.4 272.1,256.6" fill="rgb(15,15,18)"/><polygon points="100.8,195.6 281.6,204.6 283.7,248.0 98.1,241.2" fill="rgb(171,44,56)"/><polygon points="238.2,251.9 239.0,246.4 241.2,244.3 240.3,249.9" fill="rgb(13,13,16)"/><polygon points="266.9,263.3 262.8,266.8 265.3,265.0 269.5,261.4" fill="rgb(16,16,19)"/><polygon points="239.3,257.5 238.2,251.9 240.3,249.9 241.4,255.5" fill="rgb(11,11,14)"/><polygon points="262.8,266.8 257.6,268.6 260.0,266.8 265.3,265.0" fill="rgb(15,15,19)"/><polygon points="241.4,255.5 244.4,260.6 248.9,264.5 254.3,266.6 260.0,266.8 265.3,265.0 269.5,261.4 272.1,256.6 272.8,251.0 271.6,245.4 268.6,240.5 264.2,236.7 258.9,234.6 253.3,234.3 248.1,236.1 243.9,239.5 241.2,244.3 240.3,249.9" fill="rgb(18,18,22)"/><polygon points="242.2,262.5 239.3,257.5 241.4,255.5 244.4,260.6" fill="rgb(8,8,10)"/><polygon points="257.6,268.6 252.0,268.4 254.3,266.6 260.0,266.8" fill="rgb(14,14,17)"/><polygon points="246.6,266.3 242.2,262.5 244.4,260.6 248.9,264.5" fill="rgb(9,9,12)"/><polygon points="252.0,268.4 246.6,266.3 248.9,264.5 254.3,266.6" fill="rgb(12,12,15)"/><polygon points="288.0,216.0 288.6,226.7 291.0,224.8 290.4,213.9" fill="rgb(255,100,110)"/><polygon points="132.5,231.9 138.0,234.1 138.4,231.7 132.8,229.5" fill="rgb(12,12,15)"/><polygon points="138.0,234.1 142.4,237.9 142.9,235.6 138.4,231.7" fill="rgb(9,9,12)"/><polygon points="126.6,231.7 132.5,231.9 132.8,229.5 126.8,229.2" fill="rgb(14,14,17)"/><polygon points="122.2,247.9 123.6,244.1 127.1,241.9 131.2,242.0 134.4,244.5 135.5,248.3 134.1,252.1 130.7,254.4 126.5,254.2 123.3,251.7" fill="rgb(180,180,190)"/><polygon points="142.4,237.9 145.1,243.0 145.7,240.7 142.9,235.6" fill="rgb(8,8,10)"/><polygon points="111.6,247.4 112.9,241.8 116.2,236.9 120.9,233.4 126.6,231.7 132.5,231.9 138.0,234.1 142.4,237.9 145.1,243.0 146.0,248.7 144.8,254.3 141.6,259.3 136.9,262.9 131.2,264.7 125.2,264.5 119.6,262.4 115.1,258.4 112.3,253.2" fill="rgb(30,30,36)"/><polygon points="120.9,233.4 126.6,231.7 126.8,229.2 121.0,231.0" fill="rgb(15,15,19)"/><polygon points="145.1,243.0 146.0,248.7 146.6,246.5 145.7,240.7" fill="rgb(11,11,14)"/><polygon points="116.2,236.9 120.9,233.4 121.0,231.0 116.2,234.6" fill="rgb(16,16,19)"/><polygon points="146.0,248.7 144.8,254.3 145.3,252.3 146.6,246.5" fill="rgb(13,13,16)"/><polygon points="112.9,241.8 116.2,236.9 116.2,234.6 112.9,239.5" fill="rgb(15,15,18)"/><polygon points="144.8,254.3 141.6,259.3 142.1,257.3 145.3,252.3" fill="rgb(15,15,18)"/><polygon points="111.6,247.4 112.9,241.8 112.9,239.5 111.5,245.3" fill="rgb(13,13,16)"/><polygon points="141.6,259.3 136.9,262.9 137.3,261.0 142.1,257.3" fill="rgb(16,16,19)"/><polygon points="275.0,175.4 251.1,142.2 233.3,171.9 252.8,202.3" fill="rgb(13,20,36)"/><polygon points="112.3,253.2 111.6,247.4 111.5,245.3 112.3,251.2" fill="rgb(11,11,14)"/><polygon points="136.9,262.9 131.2,264.7 131.5,262.9 137.3,261.0" fill="rgb(15,15,19)"/><polygon points="112.3,251.2 115.1,256.4 119.7,260.4 125.4,262.7 131.5,262.9 137.3,261.0 142.1,257.3 145.3,252.3 146.6,246.5 145.7,240.7 142.9,235.6 138.4,231.7 132.8,229.5 126.8,229.2 121.0,231.0 116.2,234.6 112.9,239.5 111.5,245.3" fill="rgb(18,18,22)"/><polygon points="177.5,137.2 169.1,168.1 233.3,171.9 251.1,142.2" fill="rgb(93,19,31)"/><polygon points="115.1,258.4 112.3,253.2 112.3,251.2 115.1,256.4" fill="rgb(8,8,10)"/><polygon points="131.2,264.7 125.2,264.5 125.4,262.7 131.5,262.9" fill="rgb(14,14,17)"/><polygon points="119.6,262.4 115.1,258.4 115.1,256.4 119.7,260.4" fill="rgb(9,9,12)"/><polygon points="125.2,264.5 119.6,262.4 119.7,260.4 125.4,262.7" fill="rgb(12,12,15)"/><polygon points="281.6,204.6 310.1,176.3 313.4,226.5 283.7,248.0" fill="rgb(103,17,27)"/><polygon points="98.5,163.9 310.1,176.3 281.6,204.6 100.8,195.6" fill="rgb(190,85,93)"/><polygon points="153.6,168.4 148.0,197.0 169.1,168.1 177.5,137.2" fill="rgb(25,38,67)"/><polygon points="99.1,207.3 98.9,204.9 98.2,216.3 98.4,218.6" fill="rgb(255,235,160)"/><polygon points="301.9,203.6 302.6,215.2 305.4,212.8 304.7,201.2" fill="rgb(255,100,110)"/><polygon points="95.2,217.0 98.1,241.2 283.7,248.0 313.4,226.5" fill="rgb(23,6,9)"/><polygon points="98.5,163.9 100.8,195.6 98.1,241.2 95.2,217.0" fill="rgb(147,38,48)"/><polygon points="275.0,175.3 273.0,175.2 249.6,141.2 251.6,141.3" fill="rgb(35,10,18)"/><polygon points="97.9,219.6 96.9,210.3 96.3,220.5 97.3,229.4" fill="rgb(18,18,22)"/><polygon points="153.6,168.4 177.5,137.2 251.1,142.2 275.0,175.4" fill="rgb(65,90,130)"/><polygon points="155.8,168.4 153.7,168.3 177.8,136.3 179.9,136.4" fill="rgb(35,10,18)"/><polygon points="284.6,210.5 290.8,213.0 287.4,216.0 281.3,213.5" fill="rgb(12,12,15)"/><polygon points="290.8,213.0 296.1,217.4 292.6,220.3 287.4,216.0" fill="rgb(9,9,12)"/><polygon points="97.8,193.4 97.6,190.6 96.8,202.9 97.1,205.6" fill="rgb(255,235,160)"/><polygon points="278.1,210.1 284.6,210.5 281.3,213.5 274.9,213.2" fill="rgb(14,14,17)"/><polygon points="296.1,217.4 299.7,223.2 296.1,226.0 292.6,220.3" fill="rgb(8,8,10)"/><polygon points="261.5,237.4 265.0,243.2 270.3,247.7 276.5,250.2 283.1,250.4 289.1,248.4 293.9,244.3 296.8,238.8 297.5,232.4 296.1,226.0 292.6,220.3 287.4,216.0 281.3,213.5 274.9,213.2 268.9,215.1 264.1,219.0 261.1,224.5 260.2,230.9" fill="rgb(18,18,22)"/><polygon points="272.0,212.1 278.1,210.1 274.9,213.2 268.9,215.1" fill="rgb(15,15,19)"/><polygon points="299.7,223.2 301.2,229.7 297.5,232.4 296.1,226.0" fill="rgb(11,11,14)"/><polygon points="267.1,216.0 272.0,212.1 268.9,215.1 264.1,219.0" fill="rgb(16,16,19)"/><polygon points="301.2,229.7 300.4,236.1 296.8,238.8 297.5,232.4" fill="rgb(13,13,16)"/><polygon points="264.0,221.6 267.1,216.0 264.1,219.0 261.1,224.5" fill="rgb(15,15,18)"/><polygon points="300.4,236.1 297.5,241.8 293.9,244.3 296.8,238.8" fill="rgb(15,15,18)"/><polygon points="98.5,163.9 95.2,217.0 313.4,226.5 310.1,176.3" fill="rgb(171,44,56)"/><polygon points="263.1,228.1 264.0,221.6 261.1,224.5 260.2,230.9" fill="rgb(13,13,16)"/><polygon points="297.5,241.8 292.6,245.9 289.1,248.4 293.9,244.3" fill="rgb(16,16,19)"/><polygon points="264.5,234.7 263.1,228.1 260.2,230.9 261.5,237.4" fill="rgb(11,11,14)"/><polygon points="292.6,245.9 286.5,248.0 283.1,250.4 289.1,248.4" fill="rgb(15,15,19)"/><polygon points="263.1,228.1 264.0,221.6 267.1,216.0 272.0,212.1 278.1,210.1 284.6,210.5 290.8,213.0 296.1,217.4 299.7,223.2 301.2,229.7 300.4,236.1 297.5,241.8 292.6,245.9 286.5,248.0 279.8,247.7 273.4,245.2 268.1,240.7 264.5,234.7" fill="rgb(30,30,36)"/><polygon points="268.1,240.7 264.5,234.7 261.5,237.4 265.0,243.2" fill="rgb(8,8,10)"/><polygon points="274.9,228.5 276.1,224.2 279.7,221.7 284.3,221.9 288.1,224.7 289.7,229.1 288.5,233.4 285.0,236.0 280.4,235.8 276.5,232.9" fill="rgb(180,180,190)"/><polygon points="286.5,248.0 279.8,247.7 276.5,250.2 283.1,250.4" fill="rgb(14,14,17)"/><polygon points="273.4,245.2 268.1,240.7 265.0,243.2 270.3,247.7" fill="rgb(9,9,12)"/><polygon points="279.8,247.7 273.4,245.2 270.3,247.7 276.5,250.2" fill="rgb(12,12,15)"/><polygon points="136.3,203.4 142.9,206.0 142.3,209.3 135.9,206.7" fill="rgb(12,12,15)"/><polygon points="142.9,206.0 148.2,210.6 147.5,213.8 142.3,209.3" fill="rgb(9,9,12)"/><polygon points="129.2,203.0 136.3,203.4 135.9,206.7 128.9,206.4" fill="rgb(14,14,17)"/><polygon points="148.2,210.6 151.6,216.6 150.8,219.7 147.5,213.8" fill="rgb(8,8,10)"/><polygon points="112.1,231.5 115.3,237.6 120.6,242.2 127.3,244.8 134.4,245.1 141.2,243.0 146.8,238.7 150.5,233.0 151.9,226.4 150.8,219.7 147.5,213.8 142.3,209.3 135.9,206.7 128.9,206.4 122.2,208.4 116.6,212.4 112.7,218.1 111.2,224.7" fill="rgb(18,18,22)"/><polygon points="122.4,205.0 129.2,203.0 128.9,206.4 122.2,208.4" fill="rgb(15,15,19)"/><polygon points="151.6,216.6 152.7,223.4 151.9,226.4 150.8,219.7" fill="rgb(11,11,14)"/><polygon points="116.6,209.1 122.4,205.0 122.2,208.4 116.6,212.4" fill="rgb(16,16,19)"/><polygon points="152.7,223.4 151.2,230.1 150.5,233.0 151.9,226.4" fill="rgb(13,13,16)"/><polygon points="112.7,214.9 116.6,209.1 116.6,212.4 112.7,218.1" fill="rgb(15,15,18)"/><polygon points="151.2,230.1 147.4,236.0 146.8,238.7 150.5,233.0" fill="rgb(15,15,18)"/><polygon points="111.1,221.6 112.7,214.9 112.7,218.1 111.2,224.7" fill="rgb(13,13,16)"/><polygon points="147.4,236.0 141.8,240.3 141.2,243.0 146.8,238.7" fill="rgb(16,16,19)"/><polygon points="112.0,228.5 111.1,221.6 111.2,224.7 112.1,231.5" fill="rgb(11,11,14)"/><polygon points="141.8,240.3 134.9,242.4 134.4,245.1 141.2,243.0" fill="rgb(15,15,19)"/><polygon points="111.1,221.6 112.7,214.9 116.6,209.1 122.4,205.0 129.2,203.0 136.3,203.4 142.9,206.0 148.2,210.6 151.6,216.6 152.7,223.4 151.2,230.1 147.4,236.0 141.8,240.3 134.9,242.4 127.6,242.2 120.8,239.5 115.4,234.8 112.0,228.5" fill="rgb(30,30,36)"/><polygon points="115.4,234.8 112.0,228.5 112.1,231.5 115.3,237.6" fill="rgb(8,8,10)"/><polygon points="123.9,222.1 125.7,217.6 129.8,215.0 134.8,215.2 138.7,218.2 140.1,222.8 138.4,227.2 134.2,229.9 129.2,229.7 125.3,226.7" fill="rgb(180,180,190)"/><polygon points="134.9,242.4 127.6,242.2 127.3,244.8 134.4,245.1" fill="rgb(14,14,17)"/><polygon points="120.8,239.5 115.4,234.8 115.3,237.6 120.6,242.2" fill="rgb(9,9,12)"/><polygon points="127.6,242.2 120.8,239.5 120.6,242.2 127.3,244.8" fill="rgb(12,12,15)"/></svg>