<svg xmlns="http://www.w3.org/2000/svg" viewBox="0 0 400 400"><rect width="400" height="400" fill="#0f1020"/><rect x="0" y="250" width="400" height="150" fill="#0a0b17"/><ellipse cx="200" cy="262" rx="120" ry="16" fill="rgba(0,0,0,0.45)"/><polygon points="147.6,250.7 150.1,245.8 146.0,243.9 143.3,248.9" fill="rgb(11,11,14)"/><polygon points="150.1,245.8 154.0,241.9 149.9,240.0 146.0,243.9" fill="rgb(13,13,16)"/><polygon points="174.8,203.8 173.2,204.0 191.3,172.9 193.0,172.7" fill="rgb(35,10,18)"/><polygon points="146.5,256.1 147.6,250.7 143.3,248.9 142.3,254.4" fill="rgb(9,9,11)"/><polygon points="154.0,241.9 158.7,239.6 154.6,237.6 149.9,240.0" fill="rgb(14,14,17)"/><polygon points="147.2,261.4 146.5,256.1 142.3,254.4 143.0,259.7" fill="rgb(8,8,10)"/><polygon points="158.7,239.6 163.7,239.1 159.7,237.1 154.6,237.6" fill="rgb(14,14,17)"/><polygon points="155.4,255.4 156.5,251.7 159.4,249.2 162.8,248.9 165.6,250.8 166.6,254.4 165.5,258.1 162.6,260.6 159.1,260.9 156.3,258.9" fill="rgb(180,180,190)"/><polygon points="146.5,256.1 147.6,250.7 150.1,245.8 154.0,241.9 158.7,239.6 163.7,239.1 168.4,240.5 172.2,243.6 174.7,248.1 175.5,253.5 174.5,259.1 171.8,264.1 167.9,268.0 163.0,270.3 158.0,270.7 153.3,269.2 149.6,266.0 147.2,261.4" fill="rgb(30,30,36)"/><polygon points="149.6,266.0 147.2,261.4 143.0,259.7 145.3,264.4" fill="rgb(10,10,13)"/><polygon points="163.7,239.1 168.4,240.5 164.4,238.5 159.7,237.1" fill="rgb(13,13,16)"/><polygon points="126.0,221.4 122.3,219.5 121.9,230.0 125.6,231.8" fill="rgb(255,235,160)"/><polygon points="153.3,269.2 149.6,266.0 145.3,264.4 149.1,267.6" fill="rgb(12,12,15)"/><polygon points="168.4,240.5 172.2,243.6 168.3,241.6 164.4,238.5" fill="rgb(12,12,15)"/><polygon points="158.0,270.7 153.3,269.2 149.1,267.6 153.8,269.2" fill="rgb(13,13,16)"/><polygon points="172.2,243.6 174.7,248.1 170.8,246.2 168.3,241.6" fill="rgb(10,10,13)"/><polygon points="143.0,259.7 145.3,264.4 149.1,267.6 153.8,269.2 158.9,268.8 163.8,266.4 167.9,262.4 170.6,257.3 171.6,251.7 170.8,246.2 168.3,241.6 164.4,238.5 159.7,237.1 154.6,237.6 149.9,240.0 146.0,243.9 143.3,248.9 142.3,254.4" fill="rgb(18,18,22)"/><polygon points="163.0,270.3 158.0,270.7 153.8,269.2 158.9,268.8" fill="rgb(14,14,17)"/><polygon points="174.7,248.1 175.5,253.5 171.6,251.7 170.8,246.2" fill="rgb(8,8,10)"/><polygon points="167.9,268.0 163.0,270.3 158.9,268.8 163.8,266.4" fill="rgb(14,14,17)"/><polygon points="175.5,253.5 174.5,259.1 170.6,257.3 171.6,251.7" fill="rgb(9,9,11)"/><polygon points="171.8,264.1 167.9,268.0 163.8,266.4 167.9,262.4" fill="rgb(13,13,16)"/><polygon points="174.5,259.1 171.8,264.1 167.9,262.4 170.6,257.3" fill="rgb(11,11,14)"/><polygon points="173.1,204.0 274.1,190.9 252.3,162.9 190.6,172.3" fill="rgb(68,94,137)"/><polygon points="135.3,209.8 307.4,187.5 310.5,235.1 133.6,251.9" fill="rgb(189,48,61)"/><polygon points="91.3,185.3 135.3,209.8 133.6,251.9 88.1,233.4" fill="rgb(97,25,31)"/><polygon points="120.7,233.1 104.8,225.9 104.3,235.3 120.3,242.1" fill="rgb(18,18,22)"/><polygon points="274.2,190.9 272.3,191.2 251.1,163.9 252.8,163.6" fill="rgb(35,10,18)"/><polygon points="136.3,179.6 173.1,204.0 190.6,172.3 158.2,144.9" fill="rgb(19,29,51)"/><polygon points="104.6,210.7 100.4,208.6 99.7,219.8 104.0,221.7" fill="rgb(255,235,160)"/><polygon points="158.2,144.9 190.6,172.3 252.3,162.9 227.1,132.7" fill="rgb(93,19,31)"/><polygon points="264.1,239.6 266.8,234.2 264.2,232.0 261.4,237.4" fill="rgb(11,11,14)"/><polygon points="266.8,234.2 271.1,230.0 268.6,227.7 264.2,232.0" fill="rgb(13,13,16)"/><polygon points="263.3,245.5 264.1,239.6 261.4,237.4 260.6,243.4" fill="rgb(9,9,11)"/><polygon points="271.1,230.0 276.6,227.5 274.1,225.1 268.6,227.7" fill="rgb(14,14,17)"/><polygon points="264.5,251.2 263.3,245.5 260.6,243.4 261.8,249.2" fill="rgb(8,8,10)"/><polygon points="276.6,227.5 282.5,226.9 280.1,224.4 274.1,225.1" fill="rgb(14,14,17)"/><polygon points="273.7,244.6 274.8,240.6 278.1,237.9 282.2,237.5 285.7,239.6 287.2,243.4 286.1,247.5 282.8,250.2 278.6,250.6 275.2,248.4" fill="rgb(180,180,190)"/><polygon points="263.3,245.5 264.1,239.6 266.8,234.2 271.1,230.0 276.6,227.5 282.5,226.9 288.3,228.3 293.1,231.6 296.5,236.5 297.9,242.3 297.1,248.4 294.3,254.0 289.8,258.3 284.2,260.8 278.1,261.3 272.4,259.7 267.7,256.2 264.5,251.2" fill="rgb(30,30,36)"/><polygon points="267.7,256.2 264.5,251.2 261.8,249.2 265.0,254.2" fill="rgb(10,10,13)"/><polygon points="282.5,226.9 288.3,228.3 286.0,225.9 280.1,224.4" fill="rgb(13,13,16)"/><polygon points="91.3,185.3 286.6,155.3 307.4,187.5 135.3,209.8" fill="rgb(190,85,93)"/><polygon points="272.4,259.7 267.7,256.2 265.0,254.2 269.8,257.8" fill="rgb(12,12,15)"/><polygon points="288.3,228.3 293.1,231.6 290.9,229.3 286.0,225.9" fill="rgb(12,12,15)"/><polygon points="278.1,261.3 272.4,259.7 269.8,257.8 275.6,259.4" fill="rgb(13,13,16)"/><polygon points="293.1,231.6 296.5,236.5 294.3,234.2 290.9,229.3" fill="rgb(10,10,13)"/><polygon points="261.8,249.2 265.0,254.2 269.8,257.8 275.6,259.4 281.8,258.9 287.5,256.3 292.1,251.9 294.9,246.3 295.7,240.1 294.3,234.2 290.9,229.3 286.0,225.9 280.1,224.4 274.1,225.1 268.6,227.7 264.2,232.0 261.4,237.4 260.6,243.4" fill="rgb(18,18,22)"/><polygon points="284.2,260.8 278.1,261.3 275.6,259.4 281.8,258.9" fill="rgb(14,14,17)"/><polygon points="296.5,236.5 297.9,242.3 295.7,240.1 294.3,234.2" fill="rgb(8,8,10)"/><polygon points="289.8,258.3 284.2,260.8 281.8,258.9 287.5,256.3" fill="rgb(14,14,17)"/><polygon points="297.9,242.3 297.1,248.4 294.9,246.3 295.7,240.1" fill="rgb(9,9,11)"/><polygon points="294.3,254.0 289.8,258.3 287.5,256.3 292.1,251.9" fill="rgb(13,13,16)"/><polygon points="297.1,248.4 294.3,254.0 292.1,251.9 294.9,246.3" fill="rgb(11,11,14)"/><polygon points="88.1,233.4 133.6,251.9 310.5,235.1 289.6,210.3" fill="rgb(23,6,9)"/><polygon points="250.1,162.2 227.1,132.7 252.3,162.9 274.1,190.9" fill="rgb(18,26,47)"/><polygon points="138.0,179.3 136.2,179.6 157.2,144.1 159.1,143.8" fill="rgb(35,10,18)"/><polygon points="98.5,229.5 101.6,223.7 107.2,226.3 104.2,231.9" fill="rgb(11,11,14)"/><polygon points="101.6,223.7 106.1,219.2 111.6,221.8 107.2,226.3" fill="rgb(13,13,16)"/><polygon points="97.1,235.8 98.5,229.5 104.2,231.9 102.9,238.2" fill="rgb(9,9,11)"/><polygon points="106.1,219.2 111.4,216.4 116.9,219.1 111.6,221.8" fill="rgb(14,14,17)"/><polygon points="305.0,199.8 305.8,211.5 304.1,209.3 303.3,197.4" fill="rgb(255,100,110)"/><polygon points="97.7,242.0 97.1,235.8 102.9,238.2 103.5,244.2" fill="rgb(8,8,10)"/><polygon points="111.4,216.4 117.1,215.7 122.5,218.4 116.9,219.1" fill="rgb(14,14,17)"/><polygon points="103.5,244.2 105.9,249.4 110.0,253.0 115.2,254.7 120.8,254.2 126.3,251.5 130.9,246.9 134.0,241.0 135.3,234.6 134.5,228.5 131.9,223.4 127.7,219.9 122.5,218.4 116.9,219.1 111.6,221.8 107.2,226.3 104.2,231.9 102.9,238.2" fill="rgb(18,18,22)"/><polygon points="100.2,247.2 97.7,242.0 103.5,244.2 105.9,249.4" fill="rgb(10,10,13)"/><polygon points="117.1,215.7 122.4,217.2 127.7,219.9 122.5,218.4" fill="rgb(13,13,16)"/><polygon points="104.3,250.9 100.2,247.2 105.9,249.4 110.0,253.0" fill="rgb(12,12,15)"/><polygon points="122.4,217.2 126.6,220.7 131.9,223.4 127.7,219.9" fill="rgb(12,12,15)"/><polygon points="109.5,252.6 104.3,250.9 110.0,253.0 115.2,254.7" fill="rgb(13,13,16)"/><polygon points="136.3,179.6 158.2,144.9 227.1,132.7 250.1,162.2" fill="rgb(72,99,144)"/><polygon points="126.6,220.7 129.2,225.9 134.5,228.5 131.9,223.4" fill="rgb(10,10,13)"/><polygon points="97.1,235.8 98.5,229.5 101.6,223.7 106.1,219.2 111.4,216.4 117.1,215.7 122.4,217.2 126.6,220.7 129.2,225.9 130.0,232.1 128.7,238.7 125.5,244.6 120.9,249.3 115.3,252.1 109.5,252.6 104.3,250.9 100.2,247.2 97.7,242.0" fill="rgb(30,30,36)"/><polygon points="106.8,234.6 108.3,230.3 111.6,227.4 115.5,226.9 118.6,229.1 119.6,233.2 118.2,237.6 114.8,240.6 110.9,241.0 107.8,238.7" fill="rgb(180,180,190)"/><polygon points="115.3,252.1 109.5,252.6 115.2,254.7 120.8,254.2" fill="rgb(14,14,17)"/><polygon points="129.2,225.9 130.0,232.1 135.3,234.6 134.5,228.5" fill="rgb(8,8,10)"/><polygon points="120.9,249.3 115.3,252.1 120.8,254.2 126.3,251.5" fill="rgb(14,14,17)"/><polygon points="130.0,232.1 128.7,238.7 134.0,241.0 135.3,234.6" fill="rgb(9,9,11)"/><polygon points="125.5,244.6 120.9,249.3 126.3,251.5 130.9,246.9" fill="rgb(13,13,16)"/><polygon points="128.7,238.7 125.5,244.6 130.9,246.9 134.0,241.0" fill="rgb(11,11,14)"/><polygon points="307.4,187.5 286.6,155.3 289.6,210.3 310.5,235.1" fill="rgb(67,11,18)"/><polygon points="91.3,185.3 88.1,233.4 289.6,210.3 286.6,155.3" fill="rgb(189,48,61)"/><polygon points="250.0,162.2 247.9,162.5 224.3,132.1 226.4,131.8" fill="rgb(35,10,18)"/><polygon points="295.1,185.6 295.8,198.2 293.8,195.6 293.1,182.8" fill="rgb(255,100,110)"/><polygon points="232.4,213.9 235.7,207.5 239.4,210.6 236.1,216.9" fill="rgb(11,11,14)"/><polygon points="235.7,207.5 240.9,202.4 244.4,205.7 239.4,210.6" fill="rgb(13,13,16)"/><polygon points="231.4,220.8 232.4,213.9 236.1,216.9 235.1,223.7" fill="rgb(9,9,11)"/><polygon points="240.9,202.4 247.3,199.3 250.7,202.6 244.4,205.7" fill="rgb(14,14,17)"/><polygon points="232.7,227.6 231.4,220.8 235.1,223.7 236.4,230.4" fill="rgb(8,8,10)"/><polygon points="247.3,199.3 254.3,198.4 257.6,201.7 250.7,202.6" fill="rgb(14,14,17)"/><polygon points="236.4,230.4 240.0,236.0 245.3,240.0 251.9,241.8 259.0,241.1 265.5,238.1 270.8,233.0 274.1,226.5 275.1,219.4 273.5,212.6 269.7,207.0 264.2,203.3 257.6,201.7 250.7,202.6 244.4,205.7 239.4,210.6 236.1,216.9 235.1,223.7" fill="rgb(18,18,22)"/><polygon points="236.3,233.4 232.7,227.6 236.4,230.4 240.0,236.0" fill="rgb(10,10,13)"/><polygon points="254.3,198.4 261.0,199.9 264.2,203.3 257.6,201.7" fill="rgb(13,13,16)"/><polygon points="241.7,237.4 236.3,233.4 240.0,236.0 245.3,240.0" fill="rgb(12,12,15)"/><polygon points="261.0,199.9 266.6,203.8 269.7,207.0 264.2,203.3" fill="rgb(12,12,15)"/><polygon points="248.4,239.2 241.7,237.4 245.3,240.0 251.9,241.8" fill="rgb(13,13,16)"/><polygon points="266.6,203.8 270.5,209.4 273.5,212.6 269.7,207.0" fill="rgb(10,10,13)"/><polygon points="231.4,220.8 232.4,213.9 235.7,207.5 240.9,202.4 247.3,199.3 254.3,198.4 261.0,199.9 266.6,203.8 270.5,209.4 272.0,216.3 271.0,223.5 267.7,230.2 262.3,235.4 255.6,238.5 248.4,239.2 241.7,237.4 236.3,233.4 232.7,227.6" fill="rgb(30,30,36)"/><polygon points="243.4,219.4 244.8,214.6 248.6,211.3 253.5,210.7 257.5,213.1 259.2,217.6 257.9,222.5 254.0,225.8 249.1,226.3 245.0,223.9" fill="rgb(180,180,190)"/><polygon points="255.6,238.5 248.4,239.2 251.9,241.8 259.0,241.1" fill="rgb(14,14,17)"/><polygon points="270.5,209.4 272.0,216.3 275.1,219.4 273.5,212.6" fill="rgb(8,8,10)"/><polygon points="262.3,235.4 255.6,238.5 259.0,241.1 265.5,238.1" fill="rgb(14,14,17)"/><polygon points="272.0,216.3 271.0,223.5 274.1,226.5 275.1,219.4" fill="rgb(9,9,11)"/><polygon points="267.7,230.2 262.3,235.4 265.5,238.1 270.8,233.0" fill="rgb(13,13,16)"/><polygon points="271.0,223.5 267.7,230.2 270.8,233.0 274.1,226.5" fill="rgb(11,11,14)"/></svg>