<svg xmlns="http://www.w3.org/2000/svg" viewBox="0 0 400 400"><rect width="400" height="400" fill="#0f1020"/><rect x="0" y="250" width="400" height="150" fill="#0a0b17"/><ellipse cx="200" cy="262" rx="120" ry="16" fill="rgba(0,0,0,0.45)"/><polygon points="256.2,225.3 251.2,226.7 251.5,236.7 256.6,235.4" fill="rgb(255,235,160)"/><polygon points="227.7,253.5 225.7,248.5 231.7,247.0 233.7,252.0" fill="rgb(11,11,13)"/><polygon points="228.5,258.8 227.7,253.5 233.7,252.0 234.5,257.4" fill="rgb(14,14,17)"/><polygon points="225.7,248.5 222.6,244.5 228.6,242.9 231.7,247.0" fill="rgb(8,8,9)"/><polygon points="227.9,263.9 228.5,258.8 234.5,257.4 234.0,262.6" fill="rgb(16,16,20)"/><polygon points="222.6,244.5 218.8,241.9 224.8,240.3 228.6,242.9" fill="rgb(11,11,13)"/><polygon points="226.0,268.3 227.9,263.9 234.0,262.6 232.1,267.0" fill="rgb(17,17,21)"/><polygon points="218.8,241.9 214.8,241.1 220.7,239.4 224.8,240.3" fill="rgb(14,14,17)"/><polygon points="221.3,257.6 220.4,253.9 218.1,251.3 215.3,250.7 213.0,252.5 212.2,255.9 213.1,259.6 215.4,262.3 218.3,262.8 220.5,261.0" fill="rgb(180,180,190)"/><polygon points="228.5,258.8 227.7,253.5 225.7,248.5 222.6,244.5 218.8,241.9 214.8,241.1 210.9,242.1 207.8,244.9 205.7,249.2 205.0,254.5 205.7,260.1 207.9,265.2 211.1,269.3 215.1,271.9 219.2,272.5 223.0,271.2 226.0,268.3 227.9,263.9" fill="rgb(30,30,36)"/><polygon points="223.0,271.2 226.0,268.3 232.1,267.0 229.0,270.0" fill="rgb(17,17,21)"/><polygon points="214.8,241.1 210.9,242.1 216.9,240.5 220.7,239.4" fill="rgb(16,16,20)"/><polygon points="208.0,205.4 209.4,205.8 194.6,173.1 193.3,172.7" fill="rgb(35,10,18)"/><polygon points="219.2,272.5 223.0,271.2 229.0,270.0 225.2,271.3" fill="rgb(16,16,20)"/><polygon points="210.9,242.1 207.8,244.9 213.7,243.3 216.9,240.5" fill="rgb(17,17,21)"/><polygon points="234.0,262.6 232.1,267.0 229.0,270.0 225.2,271.3 221.1,270.6 217.2,268.0 213.9,263.9 211.7,258.7 211.0,253.0 211.7,247.7 213.7,243.3 216.9,240.5 220.7,239.4 224.8,240.3 228.6,242.9 231.7,247.0 233.7,252.0 234.5,257.4" fill="rgb(18,18,22)"/><polygon points="239.1,214.5 298.3,196.2 301.0,241.6 240.1,255.5" fill="rgb(181,46,59)"/><polygon points="215.1,271.9 219.2,272.5 225.2,271.3 221.1,270.6" fill="rgb(14,14,17)"/><polygon points="207.8,244.9 205.7,249.2 211.7,247.7 213.7,243.3" fill="rgb(17,17,21)"/><polygon points="279.4,233.1 258.0,238.5 258.3,247.1 279.8,242.0" fill="rgb(18,18,22)"/><polygon points="211.1,269.3 215.1,271.9 221.1,270.6 217.2,268.0" fill="rgb(11,11,13)"/><polygon points="205.7,249.2 205.0,254.5 211.0,253.0 211.7,247.7" fill="rgb(16,16,20)"/><polygon points="207.9,265.2 211.1,269.3 217.2,268.0 213.9,263.9" fill="rgb(8,8,9)"/><polygon points="205.0,254.5 205.7,260.1 211.7,258.7 211.0,253.0" fill="rgb(14,14,17)"/><polygon points="205.7,260.1 207.9,265.2 213.9,263.9 211.7,258.7" fill="rgb(11,11,13)"/><polygon points="285.7,217.1 280.1,218.6 280.6,229.2 286.3,227.7" fill="rgb(255,235,160)"/><polygon points="209.5,205.7 195.8,172.6 142.7,156.2 122.1,182.7" fill="rgb(46,64,93)"/><polygon points="209.5,205.7 264.3,186.6 246.8,150.7 195.8,172.6" fill="rgb(17,26,46)"/><polygon points="239.1,214.5 240.1,255.5 86.7,225.9 90.1,175.6" fill="rgb(129,33,42)"/><polygon points="295.3,237.4 293.1,231.7 285.5,233.6 287.7,239.2" fill="rgb(11,11,13)"/><polygon points="195.8,172.6 246.8,150.7 191.9,130.2 142.7,156.2" fill="rgb(93,19,31)"/><polygon points="296.4,243.4 295.3,237.4 287.7,239.2 288.7,245.1" fill="rgb(14,14,17)"/><polygon points="293.1,231.7 289.8,227.1 282.2,229.0 285.5,233.6" fill="rgb(8,8,9)"/><polygon points="296.0,249.2 296.4,243.4 288.7,245.1 288.3,250.8" fill="rgb(16,16,20)"/><polygon points="122.0,182.8 123.7,183.2 143.1,157.3 141.5,156.8" fill="rgb(35,10,18)"/><polygon points="289.8,227.1 285.9,224.0 278.3,226.0 282.2,229.0" fill="rgb(11,11,13)"/><polygon points="294.3,254.0 296.0,249.2 288.3,250.8 286.6,255.6" fill="rgb(17,17,21)"/><polygon points="239.1,214.5 90.1,175.6 143.7,146.1 298.3,196.2" fill="rgb(190,85,93)"/><polygon points="285.9,224.0 281.8,222.9 274.2,225.0 278.3,226.0" fill="rgb(14,14,17)"/><polygon points="263.1,186.1 264.5,186.6 248.2,150.0 246.8,149.5" fill="rgb(35,10,18)"/><polygon points="288.3,250.8 286.6,255.6 283.7,258.8 279.9,260.2 275.7,259.3 271.7,256.4 268.2,251.7 265.8,245.9 264.9,239.7 265.4,233.8 267.3,229.1 270.4,226.0 274.2,225.0 278.3,226.0 282.2,229.0 285.5,233.6 287.7,239.2 288.7,245.1" fill="rgb(18,18,22)"/><polygon points="291.4,257.3 294.3,254.0 286.6,255.6 283.7,258.8" fill="rgb(17,17,21)"/><polygon points="281.8,222.9 277.9,224.0 270.4,226.0 274.2,225.0" fill="rgb(16,16,20)"/><polygon points="287.6,258.6 291.4,257.3 283.7,258.8 279.9,260.2" fill="rgb(16,16,20)"/><polygon points="277.9,224.0 274.9,227.0 267.3,229.1 270.4,226.0" fill="rgb(17,17,21)"/><polygon points="296.4,243.4 295.3,237.4 293.1,231.7 289.8,227.1 285.9,224.0 281.8,222.9 277.9,224.0 274.9,227.0 273.0,231.8 272.5,237.8 273.5,244.1 275.9,250.0 279.3,254.8 283.4,257.7 287.6,258.6 291.4,257.3 294.3,254.0 296.0,249.2" fill="rgb(30,30,36)"/><polygon points="289.5,241.7 288.4,237.5 286.0,234.5 283.1,233.8 280.9,235.7 280.2,239.5 281.3,243.8 283.8,246.8 286.7,247.5 288.8,245.5" fill="rgb(180,180,190)"/><polygon points="283.4,257.7 287.6,258.6 279.9,260.2 275.7,259.3" fill="rgb(14,14,17)"/><polygon points="128.3,234.3 125.9,228.5 131.5,226.5 133.9,232.4" fill="rgb(11,11,13)"/><polygon points="274.9,227.0 273.0,231.8 265.4,233.8 267.3,229.1" fill="rgb(17,17,21)"/><polygon points="129.0,240.5 128.3,234.3 133.9,232.4 134.6,238.6" fill="rgb(14,14,17)"/><polygon points="125.9,228.5 122.0,223.8 127.5,221.7 131.5,226.5" fill="rgb(8,8,9)"/><polygon points="240.1,255.5 301.0,241.6 141.7,203.3 86.7,225.9" fill="rgb(23,6,9)"/><polygon points="279.3,254.8 283.4,257.7 275.7,259.3 271.7,256.4" fill="rgb(11,11,13)"/><polygon points="127.8,246.4 129.0,240.5 134.6,238.6 133.5,244.6" fill="rgb(16,16,20)"/><polygon points="273.0,231.8 272.5,237.8 264.9,239.7 265.4,233.8" fill="rgb(16,16,20)"/><polygon points="122.0,223.8 117.0,220.7 122.5,218.5 127.5,221.7" fill="rgb(11,11,13)"/><polygon points="275.9,250.0 279.3,254.8 271.7,256.4 268.2,251.7" fill="rgb(8,8,9)"/><polygon points="272.5,237.8 273.5,244.1 265.8,245.9 264.9,239.7" fill="rgb(14,14,17)"/><polygon points="124.9,251.3 127.8,246.4 133.5,244.6 130.5,249.6" fill="rgb(17,17,21)"/><polygon points="273.5,244.1 275.9,250.0 268.2,251.7 265.8,245.9" fill="rgb(11,11,13)"/><polygon points="117.0,220.7 111.5,219.5 117.0,217.3 122.5,218.5" fill="rgb(14,14,17)"/><polygon points="119.4,238.8 118.4,234.5 115.4,231.4 111.6,230.7 108.4,232.6 106.9,236.5 107.9,240.9 110.9,244.0 114.8,244.7 118.0,242.7" fill="rgb(180,180,190)"/><polygon points="129.0,240.5 128.3,234.3 125.9,228.5 122.0,223.8 117.0,220.7 111.5,219.5 106.1,220.5 101.6,223.7 98.4,228.6 97.0,234.6 97.6,241.1 100.2,247.2 104.4,252.0 109.6,255.1 115.3,256.0 120.6,254.6 124.9,251.3 127.8,246.4" fill="rgb(30,30,36)"/><polygon points="120.6,254.6 124.9,251.3 130.5,249.6 126.2,253.0" fill="rgb(17,17,21)"/><polygon points="111.5,219.5 106.1,220.5 111.6,218.3 117.0,217.3" fill="rgb(16,16,20)"/><polygon points="115.3,256.0 120.6,254.6 126.2,253.0 120.8,254.3" fill="rgb(16,16,20)"/><polygon points="106.1,220.5 101.6,223.7 107.0,221.5 111.6,218.3" fill="rgb(17,17,21)"/><polygon points="122.1,182.7 142.7,156.2 191.9,130.2 173.9,157.5" fill="rgb(29,43,77)"/><polygon points="133.5,244.6 130.5,249.6 126.2,253.0 120.8,254.3 115.2,253.4 109.9,250.3 105.7,245.3 103.1,239.2 102.4,232.6 103.8,226.4 107.0,221.5 111.6,218.3 117.0,217.3 122.5,218.5 127.5,221.7 131.5,226.5 133.9,232.4 134.6,238.6" fill="rgb(18,18,22)"/><polygon points="264.3,186.6 173.9,157.5 191.9,130.2 246.8,150.7" fill="rgb(50,68,100)"/><polygon points="109.6,255.1 115.3,256.0 120.8,254.3 115.2,253.4" fill="rgb(14,14,17)"/><polygon points="101.6,223.7 98.4,228.6 103.8,226.4 107.0,221.5" fill="rgb(17,17,21)"/><polygon points="104.4,252.0 109.6,255.1 115.2,253.4 109.9,250.3" fill="rgb(11,11,13)"/><polygon points="98.4,228.6 97.0,234.6 102.4,232.6 103.8,226.4" fill="rgb(16,16,20)"/><polygon points="100.2,247.2 104.4,252.0 109.9,250.3 105.7,245.3" fill="rgb(8,8,9)"/><polygon points="97.0,234.6 97.6,241.1 103.1,239.2 102.4,232.6" fill="rgb(14,14,17)"/><polygon points="97.6,241.1 100.2,247.2 105.7,245.3 103.1,239.2" fill="rgb(11,11,13)"/><polygon points="298.3,196.2 143.7,146.1 141.7,203.3 301.0,241.6" fill="rgb(129,33,42)"/><polygon points="103.2,187.0 102.5,199.5 98.0,201.6 98.8,189.2" fill="rgb(255,100,110)"/><polygon points="174.0,157.5 175.8,158.1 195.0,130.1 193.4,129.5" fill="rgb(35,10,18)"/><polygon points="143.7,146.1 90.1,175.6 86.7,225.9 141.7,203.3" fill="rgb(126,21,34)"/><polygon points="192.6,212.0 189.8,205.3 182.5,207.9 185.2,214.6" fill="rgb(11,11,13)"/><polygon points="193.5,219.2 192.6,212.0 185.2,214.6 186.1,221.6" fill="rgb(14,14,17)"/><polygon points="189.8,205.3 185.4,199.7 178.2,202.4 182.5,207.9" fill="rgb(8,8,9)"/><polygon points="192.5,225.9 193.5,219.2 186.1,221.6 185.1,228.3" fill="rgb(16,16,20)"/><polygon points="185.4,199.7 180.1,195.9 172.8,198.7 178.2,202.4" fill="rgb(11,11,13)"/><polygon points="189.6,231.5 192.5,225.9 185.1,228.3 182.2,233.7" fill="rgb(17,17,21)"/><polygon points="129.9,173.6 129.4,187.0 124.2,189.4 124.8,176.2" fill="rgb(255,100,110)"/><polygon points="180.1,195.9 174.2,194.3 167.0,197.2 172.8,198.7" fill="rgb(14,14,17)"/><polygon points="185.1,228.3 182.2,233.7 177.7,237.4 172.2,238.8 166.2,237.6 160.6,233.9 156.0,228.3 153.1,221.3 152.2,213.8 153.5,207.0 156.7,201.5 161.4,198.2 167.0,197.2 172.8,198.7 178.2,202.4 182.5,207.9 185.2,214.6 186.1,221.6" fill="rgb(18,18,22)"/><polygon points="185.1,235.2 189.6,231.5 182.2,233.7 177.7,237.4" fill="rgb(17,17,21)"/><polygon points="174.2,194.3 168.6,195.2 161.4,198.2 167.0,197.2" fill="rgb(16,16,20)"/><polygon points="179.6,236.5 185.1,235.2 177.7,237.4 172.2,238.8" fill="rgb(16,16,20)"/><polygon points="168.6,195.2 163.8,198.7 156.7,201.5 161.4,198.2" fill="rgb(17,17,21)"/><polygon points="193.5,219.2 192.6,212.0 189.8,205.3 185.4,199.7 180.1,195.9 174.2,194.3 168.6,195.2 163.8,198.7 160.6,204.2 159.4,211.1 160.3,218.7 163.3,225.8 167.9,231.6 173.6,235.3 179.6,236.5 185.1,235.2 189.6,231.5 192.5,225.9" fill="rgb(30,30,36)"/><polygon points="183.7,216.7 182.5,211.7 179.2,208.0 175.2,207.0 171.8,209.1 170.4,213.6 171.6,218.7 174.9,222.4 179.1,223.3 182.4,221.2" fill="rgb(180,180,190)"/><polygon points="173.6,235.3 179.6,236.5 172.2,238.8 166.2,237.6" fill="rgb(14,14,17)"/><polygon points="163.8,198.7 160.6,204.2 153.5,207.0 156.7,201.5" fill="rgb(17,17,21)"/><polygon points="167.9,231.6 173.6,235.3 166.2,237.6 160.6,233.9" fill="rgb(11,11,13)"/><polygon points="160.6,204.2 159.4,211.1 152.2,213.8 153.5,207.0" fill="rgb(16,16,20)"/><polygon points="163.3,225.8 167.9,231.6 160.6,233.9 156.0,228.3" fill="rgb(8,8,9)"/><polygon points="159.4,211.1 160.3,218.7 153.1,221.3 152.2,213.8" fill="rgb(14,14,17)"/><polygon points="160.3,218.7 163.3,225.8 156.0,228.3 153.1,221.3" fill="rgb(11,11,13)"/></svg>