<svg xmlns="http://www.w3.org/2000/svg" viewBox="0 0 400 400"><rect width="400" height="400" fill="#0f1020"/><rect x="0" y="250" width="400" height="150" fill="#0a0b17"/><ellipse cx="200" cy="262" rx="120" ry="16" fill="rgba(0,0,0,0.45)"/><polygon points="245.0,227.7 245.3,237.7 250.6,236.5 250.3,226.4" fill="rgb(255,100,110)"/><polygon points="219.4,248.9 221.3,253.9 227.6,252.6 225.7,247.5" fill="rgb(11,11,14)"/><polygon points="221.3,253.9 222.0,259.2 228.4,258.0 227.6,252.6" fill="rgb(14,14,17)"/><polygon points="216.5,244.8 219.4,248.9 225.7,247.5 222.9,243.4" fill="rgb(8,8,9)"/><polygon points="222.0,259.2 221.4,264.3 227.8,263.1 228.4,258.0" fill="rgb(16,16,20)"/><polygon points="214.6,208.9 213.4,208.5 199.9,176.1 201.2,176.5" fill="rgb(35,10,18)"/><polygon points="213.0,242.2 216.5,244.8 222.9,243.4 219.4,240.7" fill="rgb(11,11,13)"/><polygon points="221.4,264.3 219.6,268.6 226.0,267.4 227.8,263.1" fill="rgb(18,18,21)"/><polygon points="209.2,241.3 213.0,242.2 219.4,240.7 215.6,239.8" fill="rgb(14,14,17)"/><polygon points="219.6,268.6 216.8,271.5 223.2,270.4 226.0,267.4" fill="rgb(17,17,21)"/><polygon points="206.7,256.0 207.5,252.7 209.7,250.9 212.3,251.5 214.4,254.2 215.2,257.9 214.5,261.2 212.4,263.0 209.7,262.5 207.6,259.8" fill="rgb(180,180,190)"/><polygon points="200.0,254.5 200.7,249.3 202.6,245.0 205.6,242.2 209.2,241.3 213.0,242.2 216.5,244.8 219.4,248.9 221.3,253.9 222.0,259.2 221.4,264.3 219.6,268.6 216.8,271.5 213.2,272.7 209.4,272.0 205.7,269.5 202.7,265.3 200.7,260.1" fill="rgb(30,30,36)"/><polygon points="205.6,242.2 209.2,241.3 215.6,239.8 212.0,240.8" fill="rgb(16,16,20)"/><polygon points="232.3,215.3 294.4,198.6 297.0,243.5 233.1,256.1" fill="rgb(128,21,34)"/><polygon points="216.8,271.5 213.2,272.7 219.7,271.6 223.2,270.4" fill="rgb(16,16,20)"/><polygon points="207.1,258.8 209.1,264.1 212.2,268.3 215.9,270.9 219.7,271.6 223.2,270.4 226.0,267.4 227.8,263.1 228.4,258.0 227.6,252.6 225.7,247.5 222.9,243.4 219.4,240.7 215.6,239.8 212.0,240.8 209.0,243.5 207.1,247.8 206.4,253.2" fill="rgb(18,18,22)"/><polygon points="202.6,245.0 205.6,242.2 212.0,240.8 209.0,243.5" fill="rgb(17,17,21)"/><polygon points="213.2,272.7 209.4,272.0 215.9,270.9 219.7,271.6" fill="rgb(14,14,17)"/><polygon points="200.7,249.3 202.6,245.0 209.0,243.5 207.1,247.8" fill="rgb(18,18,21)"/><polygon points="209.4,272.0 205.7,269.5 212.2,268.3 215.9,270.9" fill="rgb(11,11,13)"/><polygon points="200.0,254.5 200.7,249.3 207.1,247.8 206.4,253.2" fill="rgb(16,16,20)"/><polygon points="205.7,269.5 202.7,265.3 209.1,264.1 212.2,268.3" fill="rgb(8,8,9)"/><polygon points="200.7,260.1 200.0,254.5 206.4,253.2 207.1,258.8" fill="rgb(14,14,17)"/><polygon points="202.7,265.3 200.7,260.1 207.1,258.8 209.1,264.1" fill="rgb(11,11,14)"/><polygon points="275.3,220.3 275.8,230.8 281.7,229.4 281.2,218.9" fill="rgb(255,100,110)"/><polygon points="273.1,192.0 257.2,156.5 202.5,176.0 214.7,208.9" fill="rgb(18,27,47)"/><polygon points="135.2,184.5 214.7,208.9 202.5,176.0 154.2,158.7" fill="rgb(44,60,88)"/><polygon points="91.2,172.5 232.3,215.3 233.1,256.1 87.9,223.6" fill="rgb(122,31,40)"/><polygon points="209.0,135.3 154.2,158.7 202.5,176.0 257.2,156.5" fill="rgb(93,19,31)"/><polygon points="273.2,191.9 272.0,191.5 257.5,155.4 258.8,156.0" fill="rgb(35,10,18)"/><polygon points="290.4,233.5 292.5,239.1 284.5,240.8 282.5,235.2" fill="rgb(11,11,14)"/><polygon points="292.5,239.1 293.4,245.1 285.4,246.7 284.5,240.8" fill="rgb(14,14,17)"/><polygon points="287.5,228.9 290.4,233.5 282.5,235.2 279.6,230.7" fill="rgb(8,8,9)"/><polygon points="293.4,245.1 293.1,250.8 285.1,252.3 285.4,246.7" fill="rgb(16,16,20)"/><polygon points="283.9,225.8 287.5,228.9 279.6,230.7 276.0,227.6" fill="rgb(11,11,13)"/><polygon points="136.6,185.1 135.1,184.6 152.9,159.2 154.3,159.7" fill="rgb(35,10,18)"/><polygon points="293.1,250.8 291.6,255.6 283.6,257.0 285.1,252.3" fill="rgb(18,18,21)"/><polygon points="280.2,224.7 283.9,225.8 276.0,227.6 272.3,226.5" fill="rgb(14,14,17)"/><polygon points="291.6,255.6 289.0,258.7 280.9,260.2 283.6,257.0" fill="rgb(17,17,21)"/><polygon points="264.8,247.1 267.0,252.9 270.1,257.6 273.8,260.5 277.5,261.4 280.9,260.2 283.6,257.0 285.1,252.3 285.4,246.7 284.5,240.8 282.5,235.2 279.6,230.7 276.0,227.6 272.3,226.5 268.9,227.5 266.1,230.4 264.4,235.1 263.9,240.9" fill="rgb(18,18,22)"/><polygon points="276.8,225.6 280.2,224.7 272.3,226.5 268.9,227.5" fill="rgb(16,16,20)"/><polygon points="152.9,144.4 294.4,198.6 232.3,215.3 91.2,172.5" fill="rgb(190,85,93)"/><polygon points="289.0,258.7 285.6,260.0 277.5,261.4 280.9,260.2" fill="rgb(16,16,20)"/><polygon points="271.9,239.2 272.4,233.3 274.1,228.6 276.8,225.6 280.2,224.7 283.9,225.8 287.5,228.9 290.4,233.5 292.5,239.1 293.4,245.1 293.1,250.8 291.6,255.6 289.0,258.7 285.6,260.0 281.9,259.1 278.2,256.1 275.1,251.3 272.9,245.4" fill="rgb(30,30,36)"/><polygon points="278.9,241.0 279.6,237.2 281.6,235.4 284.1,236.1 286.3,239.2 287.3,243.3 286.7,247.1 284.8,249.0 282.2,248.3 279.9,245.2" fill="rgb(180,180,190)"/><polygon points="274.1,228.6 276.8,225.6 268.9,227.5 266.1,230.4" fill="rgb(17,17,21)"/><polygon points="285.6,260.0 281.9,259.1 273.8,260.5 277.5,261.4" fill="rgb(14,14,17)"/><polygon points="272.4,233.3 274.1,228.6 266.1,230.4 264.4,235.1" fill="rgb(18,18,21)"/><polygon points="281.9,259.1 278.2,256.1 270.1,257.6 273.8,260.5" fill="rgb(11,11,13)"/><polygon points="271.9,239.2 272.4,233.3 264.4,235.1 263.9,240.9" fill="rgb(16,16,20)"/><polygon points="278.2,256.1 275.1,251.3 267.0,252.9 270.1,257.6" fill="rgb(8,8,9)"/><polygon points="272.9,245.4 271.9,239.2 263.9,240.9 264.8,247.1" fill="rgb(14,14,17)"/><polygon points="275.1,251.3 272.9,245.4 264.8,247.1 267.0,252.9" fill="rgb(11,11,14)"/><polygon points="151.2,202.0 87.9,223.6 233.1,256.1 297.0,243.5" fill="rgb(23,6,9)"/><polygon points="193.7,161.8 209.0,135.3 257.2,156.5 273.1,192.0" fill="rgb(47,65,94)"/><polygon points="125.1,227.0 127.4,232.9 133.7,231.1 131.4,225.1" fill="rgb(11,11,14)"/><polygon points="127.4,232.9 128.1,239.2 134.4,237.4 133.7,231.1" fill="rgb(14,14,17)"/><polygon points="121.4,222.1 125.1,227.0 131.4,225.1 127.6,220.1" fill="rgb(8,8,9)"/><polygon points="128.1,239.2 126.9,245.1 133.3,243.4 134.4,237.4" fill="rgb(16,16,20)"/><polygon points="193.7,161.8 135.2,184.5 154.2,158.7 209.0,135.3" fill="rgb(29,44,78)"/><polygon points="116.6,218.8 121.4,222.1 127.6,220.1 122.8,216.8" fill="rgb(11,11,13)"/><polygon points="126.9,245.1 124.1,250.0 130.5,248.4 133.3,243.4" fill="rgb(18,18,21)"/><polygon points="111.3,217.6 116.6,218.8 122.8,216.8 117.5,215.5" fill="rgb(14,14,17)"/><polygon points="124.1,250.0 119.9,253.3 126.3,251.7 130.5,248.4" fill="rgb(17,17,21)"/><polygon points="106.8,234.7 108.2,230.8 111.4,228.9 115.0,229.7 117.9,232.9 118.8,237.3 117.5,241.2 114.4,243.1 110.7,242.4 107.8,239.2" fill="rgb(180,180,190)"/><polygon points="97.3,232.6 98.6,226.5 101.7,221.6 106.1,218.5 111.3,217.6 116.6,218.8 121.4,222.1 125.1,227.0 127.4,232.9 128.1,239.2 126.9,245.1 124.1,250.0 119.9,253.3 114.8,254.6 109.4,253.6 104.4,250.4 100.3,245.4 97.9,239.2" fill="rgb(30,30,36)"/><polygon points="106.1,218.5 111.3,217.6 117.5,215.5 112.3,216.4" fill="rgb(16,16,20)"/><polygon points="119.9,253.3 114.8,254.6 121.2,252.9 126.3,251.7" fill="rgb(16,16,20)"/><polygon points="104.1,237.3 106.6,243.6 110.7,248.7 115.7,251.9 121.2,252.9 126.3,251.7 130.5,248.4 133.3,243.4 134.4,237.4 133.7,231.1 131.4,225.1 127.6,220.1 122.8,216.8 117.5,215.5 112.3,216.4 107.9,219.5 104.8,224.4 103.5,230.6" fill="rgb(18,18,22)"/><polygon points="101.7,221.6 106.1,218.5 112.3,216.4 107.9,219.5" fill="rgb(17,17,21)"/><polygon points="114.8,254.6 109.4,253.6 115.7,251.9 121.2,252.9" fill="rgb(14,14,17)"/><polygon points="152.9,144.4 151.2,202.0 297.0,243.5 294.4,198.6" fill="rgb(122,31,40)"/><polygon points="98.6,226.5 101.7,221.6 107.9,219.5 104.8,224.4" fill="rgb(18,18,21)"/><polygon points="109.4,253.6 104.4,250.4 110.7,248.7 115.7,251.9" fill="rgb(11,11,13)"/><polygon points="97.3,232.6 98.6,226.5 104.8,224.4 103.5,230.6" fill="rgb(16,16,20)"/><polygon points="104.4,250.4 100.3,245.4 106.6,243.6 110.7,248.7" fill="rgb(8,8,9)"/><polygon points="97.9,239.2 97.3,232.6 103.5,230.6 104.1,237.3" fill="rgb(14,14,17)"/><polygon points="100.3,245.4 97.9,239.2 104.1,237.3 106.6,243.6" fill="rgb(11,11,14)"/><polygon points="195.4,162.4 193.8,161.8 210.6,134.7 212.0,135.3" fill="rgb(35,10,18)"/><polygon points="101.5,186.6 106.7,184.4 106.0,197.1 100.8,199.1" fill="rgb(255,235,160)"/><polygon points="152.9,144.4 91.2,172.5 87.9,223.6 151.2,202.0" fill="rgb(184,47,60)"/><polygon points="107.1,200.9 129.3,192.5 128.8,203.8 106.5,211.7" fill="rgb(18,18,22)"/><polygon points="196.5,205.1 199.1,211.9 191.0,214.3 188.4,207.6" fill="rgb(11,11,14)"/><polygon points="199.1,211.9 200.0,219.1 191.8,221.4 191.0,214.3" fill="rgb(14,14,17)"/><polygon points="192.5,199.4 196.5,205.1 188.4,207.6 184.4,202.0" fill="rgb(8,8,9)"/><polygon points="200.0,219.1 199.1,225.8 190.9,228.0 191.8,221.4" fill="rgb(16,16,20)"/><polygon points="187.5,195.4 192.5,199.4 184.4,202.0 179.5,198.1" fill="rgb(11,11,13)"/><polygon points="199.1,225.8 196.5,231.3 188.2,233.5 190.9,228.0" fill="rgb(18,18,21)"/><polygon points="182.1,193.7 187.5,195.4 179.5,198.1 174.1,196.5" fill="rgb(14,14,17)"/><polygon points="196.5,231.3 192.4,235.0 184.1,237.0 188.2,233.5" fill="rgb(17,17,21)"/><polygon points="161.1,220.3 163.9,227.4 168.2,233.2 173.4,237.0 179.0,238.3 184.1,237.0 188.2,233.5 190.9,228.0 191.8,221.4 191.0,214.3 188.4,207.6 184.4,202.0 179.5,198.1 174.1,196.5 168.8,197.3 164.5,200.6 161.5,206.0 160.3,212.8" fill="rgb(18,18,22)"/><polygon points="131.5,174.2 137.4,171.7 136.9,185.2 131.0,187.5" fill="rgb(255,235,160)"/><polygon points="176.9,194.6 182.1,193.7 174.1,196.5 168.8,197.3" fill="rgb(16,16,20)"/><polygon points="192.4,235.0 187.2,236.2 179.0,238.3 184.1,237.0" fill="rgb(16,16,20)"/><polygon points="168.4,210.3 169.6,203.3 172.5,197.9 176.9,194.6 182.1,193.7 187.5,195.4 192.5,199.4 196.5,205.1 199.1,211.9 200.0,219.1 199.1,225.8 196.5,231.3 192.4,235.0 187.2,236.2 181.7,234.9 176.4,231.0 172.1,225.1 169.3,217.9" fill="rgb(30,30,36)"/><polygon points="178.7,213.0 180.0,208.6 183.1,206.5 186.9,207.6 189.9,211.4 191.0,216.4 189.8,220.9 186.7,223.0 182.9,222.0 179.8,218.2" fill="rgb(180,180,190)"/><polygon points="172.5,197.9 176.9,194.6 168.8,197.3 164.5,200.6" fill="rgb(17,17,21)"/><polygon points="187.2,236.2 181.7,234.9 173.4,237.0 179.0,238.3" fill="rgb(14,14,17)"/><polygon points="169.6,203.3 172.5,197.9 164.5,200.6 161.5,206.0" fill="rgb(18,18,21)"/><polygon points="181.7,234.9 176.4,231.0 168.2,233.2 173.4,237.0" fill="rgb(11,11,13)"/><polygon points="168.4,210.3 169.6,203.3 161.5,206.0 160.3,212.8" fill="rgb(16,16,20)"/><polygon points="176.4,231.0 172.1,225.1 163.9,227.4 168.2,233.2" fill="rgb(8,8,9)"/><polygon points="169.3,217.9 168.4,210.3 160.3,212.8 161.1,220.3" fill="rgb(14,14,17)"/><polygon points="172.1,225.1 169.3,217.9 161.1,220.3 163.9,227.4" fill="rgb(11,11,14)"/></svg>