<svg xmlns="http://www.w3.org/2000/svg" viewBox="0 0 400 400"><rect width="400" height="400" fill="#0f1020"/><rect x="0" y="250" width="400" height="150" fill="#0a0b17"/><ellipse cx="200" cy="262" rx="120" ry="16" fill="rgba(0,0,0,0.45)"/><polygon points="237.9,228.2 232.1,229.3 232.3,239.2 238.1,238.2" fill="rgb(255,235,160)"/><polygon points="208.1,254.4 206.5,249.3 213.6,248.2 215.2,253.3" fill="rgb(11,11,14)"/><polygon points="208.7,259.7 208.1,254.4 215.2,253.3 215.8,258.7" fill="rgb(14,14,18)"/><polygon points="206.5,249.3 204.1,245.2 211.2,244.0 213.6,248.2" fill="rgb(8,8,10)"/><polygon points="208.2,264.8 208.7,259.7 215.8,258.7 215.3,263.8" fill="rgb(17,17,20)"/><polygon points="204.1,245.2 201.2,242.5 208.3,241.2 211.2,244.0" fill="rgb(11,11,13)"/><polygon points="206.6,269.0 208.2,264.8 215.3,263.8 213.8,268.0" fill="rgb(18,18,22)"/><polygon points="218.5,216.5 285.4,203.0 287.7,246.8 218.9,257.0" fill="rgb(187,48,61)"/><polygon points="201.2,242.5 198.0,241.4 205.1,240.2 208.3,241.2" fill="rgb(14,14,17)"/><polygon points="204.2,271.8 206.6,269.0 213.8,268.0 211.4,270.9" fill="rgb(18,18,22)"/><polygon points="263.8,237.3 239.6,241.3 239.8,249.7 264.2,246.0" fill="rgb(18,18,22)"/><polygon points="203.0,258.2 202.3,254.5 200.5,251.7 198.2,251.1 196.4,252.7 195.7,256.1 196.4,259.9 198.2,262.6 200.5,263.2 202.3,261.5" fill="rgb(180,180,190)"/><polygon points="208.7,259.7 208.1,254.4 206.5,249.3 204.1,245.2 201.2,242.5 198.0,241.4 194.9,242.3 192.4,244.9 190.7,249.1 190.0,254.4 190.6,260.0 192.3,265.2 194.8,269.5 197.9,272.1 201.2,272.9 204.2,271.8 206.6,269.0 208.2,264.8" fill="rgb(30,30,36)"/><polygon points="198.0,241.4 194.9,242.3 202.1,241.0 205.1,240.2" fill="rgb(16,16,20)"/><polygon points="201.2,272.9 204.2,271.8 211.4,270.9 208.4,272.0" fill="rgb(16,16,20)"/><polygon points="215.3,263.8 213.8,268.0 211.4,270.9 208.4,272.0 205.2,271.2 202.1,268.5 199.5,264.2 197.9,258.9 197.3,253.2 197.9,247.9 199.6,243.7 202.1,241.0 205.1,240.2 208.3,241.2 211.2,244.0 213.6,248.2 215.2,253.3 215.8,258.7" fill="rgb(18,18,22)"/><polygon points="194.8,205.5 195.8,205.9 184.3,172.2 183.2,171.7" fill="rgb(35,10,18)"/><polygon points="271.1,222.2 264.9,223.3 265.3,233.6 271.6,232.5" fill="rgb(255,235,160)"/><polygon points="194.9,242.3 192.4,244.9 199.6,243.7 202.1,241.0" fill="rgb(18,18,22)"/><polygon points="197.9,272.1 201.2,272.9 208.4,272.0 205.2,271.2" fill="rgb(14,14,17)"/><polygon points="192.4,244.9 190.7,249.1 197.9,247.9 199.6,243.7" fill="rgb(18,18,22)"/><polygon points="194.8,269.5 197.9,272.1 205.2,271.2 202.1,268.5" fill="rgb(11,11,13)"/><polygon points="190.7,249.1 190.0,254.4 197.3,253.2 197.9,247.9" fill="rgb(17,17,20)"/><polygon points="192.3,265.2 194.8,269.5 202.1,268.5 199.5,264.2" fill="rgb(8,8,10)"/><polygon points="190.0,254.4 190.6,260.0 197.9,258.9 197.3,253.2" fill="rgb(14,14,18)"/><polygon points="190.6,260.0 192.3,265.2 199.5,264.2 197.9,258.9" fill="rgb(11,11,14)"/><polygon points="196.0,205.9 260.7,191.6 247.3,155.1 185.8,171.8" fill="rgb(18,27,48)"/><polygon points="285.4,242.5 283.7,236.9 275.3,238.3 276.9,243.8" fill="rgb(11,11,14)"/><polygon points="286.1,248.4 285.4,242.5 276.9,243.8 277.7,249.6" fill="rgb(14,14,18)"/><polygon points="283.7,236.9 281.5,232.3 273.0,233.7 275.3,238.3" fill="rgb(8,8,10)"/><polygon points="285.9,253.9 286.1,248.4 277.7,249.6 277.4,255.1" fill="rgb(17,17,20)"/><polygon points="196.0,205.9 185.8,171.8 142.4,150.7 124.3,176.3" fill="rgb(38,53,76)"/><polygon points="281.5,232.3 278.7,229.2 270.3,230.6 273.0,233.7" fill="rgb(11,11,13)"/><polygon points="284.8,258.5 285.9,253.9 277.4,255.1 276.3,259.6" fill="rgb(18,18,22)"/><polygon points="218.5,216.5 218.9,257.0 92.5,218.8 95.9,166.3" fill="rgb(107,27,35)"/><polygon points="278.7,229.2 275.9,227.9 267.4,229.4 270.3,230.6" fill="rgb(14,14,17)"/><polygon points="282.8,261.5 284.8,258.5 276.3,259.6 274.3,262.6" fill="rgb(18,18,22)"/><polygon points="277.4,255.1 276.3,259.6 274.3,262.6 271.6,263.7 268.7,262.8 265.8,259.8 263.4,255.1 261.6,249.3 260.9,243.2 261.2,237.5 262.5,233.0 264.7,230.2 267.4,229.4 270.3,230.6 273.0,233.7 275.3,238.3 276.9,243.8 277.7,249.6" fill="rgb(18,18,22)"/><polygon points="275.9,227.9 273.3,228.7 264.7,230.2 267.4,229.4" fill="rgb(16,16,20)"/><polygon points="280.3,262.6 282.8,261.5 274.3,262.6 271.6,263.7" fill="rgb(16,16,20)"/><polygon points="260.0,191.0 260.9,191.5 249.1,154.7 248.1,154.0" fill="rgb(35,10,18)"/><polygon points="286.1,248.4 285.4,242.5 283.7,236.9 281.5,232.3 278.7,229.2 275.9,227.9 273.3,228.7 271.2,231.5 269.9,236.1 269.6,241.8 270.4,248.0 272.1,253.9 274.5,258.6 277.4,261.6 280.3,262.6 282.8,261.5 284.8,258.5 285.9,253.9" fill="rgb(30,30,36)"/><polygon points="281.5,246.4 280.7,242.3 279.0,239.3 277.1,238.4 275.5,240.2 275.1,243.9 275.9,248.0 277.6,251.1 279.6,251.8 281.1,250.0" fill="rgb(180,180,190)"/><polygon points="273.3,228.7 271.2,231.5 262.5,233.0 264.7,230.2" fill="rgb(18,18,22)"/><polygon points="277.4,261.6 280.3,262.6 271.6,263.7 268.7,262.8" fill="rgb(14,14,17)"/><polygon points="185.8,171.8 247.3,155.1 207.0,130.2 142.4,150.7" fill="rgb(93,19,31)"/><polygon points="271.2,231.5 269.9,236.1 261.2,237.5 262.5,233.0" fill="rgb(18,18,22)"/><polygon points="274.5,258.6 277.4,261.6 268.7,262.8 265.8,259.8" fill="rgb(11,11,13)"/><polygon points="218.5,216.5 95.9,166.3 172.6,141.9 285.4,203.0" fill="rgb(190,85,93)"/><polygon points="269.9,236.1 269.6,241.8 260.9,243.2 261.2,237.5" fill="rgb(17,17,20)"/><polygon points="272.1,253.9 274.5,258.6 265.8,259.8 263.4,255.1" fill="rgb(8,8,10)"/><polygon points="269.6,241.8 270.4,248.0 261.6,249.3 260.9,243.2" fill="rgb(14,14,18)"/><polygon points="270.4,248.0 272.1,253.9 263.4,255.1 261.6,249.3" fill="rgb(11,11,14)"/><polygon points="124.2,176.4 125.6,177.0 142.2,151.9 140.9,151.2" fill="rgb(35,10,18)"/><polygon points="218.9,257.0 287.7,246.8 171.6,200.1 92.5,218.8" fill="rgb(23,6,9)"/><polygon points="260.7,191.6 194.5,156.1 207.0,130.2 247.3,155.1" fill="rgb(42,57,83)"/><polygon points="126.9,230.0 124.9,223.8 132.5,222.2 134.6,228.4" fill="rgb(11,11,14)"/><polygon points="127.4,236.4 126.9,230.0 134.6,228.4 135.1,234.9" fill="rgb(14,14,18)"/><polygon points="124.9,223.8 121.6,218.7 129.2,217.0 132.5,222.2" fill="rgb(8,8,10)"/><polygon points="126.4,242.4 127.4,236.4 135.1,234.9 134.1,240.9" fill="rgb(17,17,20)"/><polygon points="285.4,203.0 172.6,141.9 171.6,200.1 287.7,246.8" fill="rgb(107,27,35)"/><polygon points="121.6,218.7 117.3,215.2 125.0,213.4 129.2,217.0" fill="rgb(11,11,13)"/><polygon points="123.9,247.3 126.4,242.4 134.1,240.9 131.6,245.9" fill="rgb(18,18,22)"/><polygon points="124.3,176.3 142.4,150.7 207.0,130.2 194.5,156.1" fill="rgb(30,45,79)"/><polygon points="117.3,215.2 112.6,213.6 120.3,211.8 125.0,213.4" fill="rgb(14,14,17)"/><polygon points="120.1,250.5 123.9,247.3 131.6,245.9 127.9,249.2" fill="rgb(18,18,22)"/><polygon points="119.1,234.1 118.3,229.6 115.8,226.2 112.5,225.2 109.7,227.0 108.4,231.0 109.2,235.6 111.8,239.0 115.1,239.9 117.9,238.0" fill="rgb(180,180,190)"/><polygon points="127.4,236.4 126.9,230.0 124.9,223.8 121.6,218.7 117.3,215.2 112.6,213.6 108.0,214.3 104.0,217.3 101.2,222.2 99.9,228.5 100.4,235.3 102.6,241.7 106.2,247.0 110.7,250.5 115.5,251.7 120.1,250.5 123.9,247.3 126.4,242.4" fill="rgb(30,30,36)"/><polygon points="112.6,213.6 108.0,214.3 115.7,212.5 120.3,211.8" fill="rgb(16,16,20)"/><polygon points="115.5,251.7 120.1,250.5 127.9,249.2 123.3,250.3" fill="rgb(16,16,20)"/><polygon points="134.1,240.9 131.6,245.9 127.9,249.2 123.3,250.3 118.5,249.0 114.0,245.5 110.4,240.2 108.2,233.6 107.7,226.8 108.9,220.4 111.7,215.5 115.7,212.5 120.3,211.8 125.0,213.4 129.2,217.0 132.5,222.2 134.6,228.4 135.1,234.9" fill="rgb(18,18,22)"/><polygon points="108.0,214.3 104.0,217.3 111.7,215.5 115.7,212.5" fill="rgb(18,18,22)"/><polygon points="110.7,250.5 115.5,251.7 123.3,250.3 118.5,249.0" fill="rgb(14,14,17)"/><polygon points="104.0,217.3 101.2,222.2 108.9,220.4 111.7,215.5" fill="rgb(18,18,22)"/><polygon points="106.2,247.0 110.7,250.5 118.5,249.0 114.0,245.5" fill="rgb(11,11,13)"/><polygon points="101.2,222.2 99.9,228.5 107.7,226.8 108.9,220.4" fill="rgb(17,17,20)"/><polygon points="102.6,241.7 106.2,247.0 114.0,245.5 110.4,240.2" fill="rgb(8,8,10)"/><polygon points="99.9,228.5 100.4,235.3 108.2,233.6 107.7,226.8" fill="rgb(14,14,18)"/><polygon points="100.4,235.3 102.6,241.7 110.4,240.2 108.2,233.6" fill="rgb(11,11,14)"/><polygon points="194.7,156.0 196.0,156.7 210.1,130.4 208.9,129.6" fill="rgb(35,10,18)"/><polygon points="115.9,179.6 115.2,192.6 108.6,194.3 109.4,181.4" fill="rgb(255,100,110)"/><polygon points="212.2,212.2 210.0,205.3 200.6,207.3 202.7,214.2" fill="rgb(11,11,14)"/><polygon points="212.9,219.4 212.2,212.2 202.7,214.2 203.4,221.3" fill="rgb(14,14,18)"/><polygon points="210.0,205.3 206.8,199.4 197.3,201.5 200.6,207.3" fill="rgb(8,8,10)"/><polygon points="212.3,226.1 212.9,219.4 203.4,221.3 202.7,227.9" fill="rgb(17,17,20)"/><polygon points="206.8,199.4 202.8,195.2 193.2,197.4 197.3,201.5" fill="rgb(11,11,13)"/><polygon points="172.6,141.9 95.9,166.3 92.5,218.8 171.6,200.1" fill="rgb(131,22,35)"/><polygon points="210.2,231.5 212.3,226.1 202.7,227.9 200.6,233.2" fill="rgb(18,18,22)"/><polygon points="202.8,195.2 198.4,193.2 188.8,195.5 193.2,197.4" fill="rgb(14,14,17)"/><polygon points="206.9,234.9 210.2,231.5 200.6,233.2 197.3,236.7" fill="rgb(18,18,22)"/><polygon points="202.7,227.9 200.6,233.2 197.3,236.7 193.1,237.8 188.5,236.3 184.2,232.3 180.6,226.3 178.3,219.0 177.6,211.4 178.5,204.5 180.9,199.2 184.5,196.1 188.8,195.5 193.2,197.4 197.3,201.5 200.6,207.3 202.7,214.2 203.4,221.3" fill="rgb(18,18,22)"/><polygon points="198.4,193.2 194.2,193.8 184.5,196.1 188.8,195.5" fill="rgb(16,16,20)"/><polygon points="202.8,236.0 206.9,234.9 197.3,236.7 193.1,237.8" fill="rgb(16,16,20)"/><polygon points="212.9,219.4 212.2,212.2 210.0,205.3 206.8,199.4 202.8,195.2 198.4,193.2 194.2,193.8 190.6,196.9 188.3,202.3 187.4,209.3 188.2,217.0 190.5,224.3 194.0,230.4 198.3,234.5 202.8,236.0 206.9,234.9 210.2,231.5 212.3,226.1" fill="rgb(30,30,36)"/><polygon points="205.8,216.4 204.8,211.3 202.4,207.4 199.3,206.1 196.8,208.0 195.9,212.4 196.8,217.6 199.3,221.6 202.4,222.7 204.9,220.7" fill="rgb(180,180,190)"/><polygon points="154.1,168.6 153.7,182.2 146.4,184.2 146.8,170.7" fill="rgb(255,100,110)"/><polygon points="194.2,193.8 190.6,196.9 180.9,199.2 184.5,196.1" fill="rgb(18,18,22)"/><polygon points="198.3,234.5 202.8,236.0 193.1,237.8 188.5,236.3" fill="rgb(14,14,17)"/><polygon points="190.6,196.9 188.3,202.3 178.5,204.5 180.9,199.2" fill="rgb(18,18,22)"/><polygon points="194.0,230.4 198.3,234.5 188.5,236.3 184.2,232.3" fill="rgb(11,11,13)"/><polygon points="188.3,202.3 187.4,209.3 177.6,211.4 178.5,204.5" fill="rgb(17,17,20)"/><polygon points="190.5,224.3 194.0,230.4 184.2,232.3 180.6,226.3" fill="rgb(8,8,10)"/><polygon points="187.4,209.3 188.2,217.0 178.3,219.0 177.6,211.4" fill="rgb(14,14,18)"/><polygon points="188.2,217.0 190.5,224.3 180.6,226.3 178.3,219.0" fill="rgb(11,11,14)"/></svg>