<svg xmlns="http://www.w3.org/2000/svg" viewBox="0 0 400 400"><rect width="400" height="400" fill="#0f1020"/><rect x="0" y="250" width="400" height="150" fill="#0a0b17"/><ellipse cx="200" cy="262" rx="120" ry="16" fill="rgba(0,0,0,0.45)"/><polygon points="233.2,202.4 234.9,202.5 215.5,172.2 213.8,172.1" fill="rgb(35,10,18)"/><polygon points="260.9,243.8 256.7,240.0 259.8,237.9 264.0,241.7" fill="rgb(9,9,11)"/><polygon points="256.7,240.0 251.7,237.9 254.6,235.7 259.8,237.9" fill="rgb(12,12,14)"/><polygon points="263.7,248.7 260.9,243.8 264.0,241.7 266.9,246.7" fill="rgb(9,9,11)"/><polygon points="251.7,237.9 246.3,237.5 249.2,235.4 254.6,235.7" fill="rgb(14,14,17)"/><polygon points="255.4,253.7 254.1,250.0 251.0,247.6 247.3,247.4 244.4,249.5 243.3,253.1 244.5,256.8 247.6,259.2 251.4,259.4 254.3,257.3" fill="rgb(180,180,190)"/><polygon points="264.9,254.1 263.7,248.7 266.9,246.7 268.1,252.2" fill="rgb(12,12,14)"/><polygon points="264.9,254.1 263.7,248.7 260.9,243.8 256.7,240.0 251.7,237.9 246.3,237.5 241.3,239.1 237.2,242.4 234.6,247.1 233.8,252.5 234.8,258.1 237.7,263.1 242.0,266.9 247.2,269.1 252.6,269.4 257.6,267.7 261.6,264.3 264.1,259.6" fill="rgb(30,30,36)"/><polygon points="246.3,237.5 241.3,239.1 244.1,236.9 249.2,235.4" fill="rgb(15,15,19)"/><polygon points="264.1,259.6 264.9,254.1 268.1,252.2 267.3,257.7" fill="rgb(14,14,17)"/><polygon points="241.3,239.1 237.2,242.4 240.0,240.3 244.1,236.9" fill="rgb(16,16,19)"/><polygon points="261.6,264.3 264.1,259.6 267.3,257.7 264.8,262.5" fill="rgb(15,15,19)"/><polygon points="234.9,202.5 216.0,171.6 152.0,165.9 130.3,194.6" fill="rgb(60,83,120)"/><polygon points="237.2,242.4 234.6,247.1 237.4,245.0 240.0,240.3" fill="rgb(15,15,19)"/><polygon points="257.6,267.7 261.6,264.3 264.8,262.5 260.8,266.0" fill="rgb(16,16,19)"/><polygon points="234.6,247.1 233.8,252.5 236.5,250.5 237.4,245.0" fill="rgb(14,14,17)"/><polygon points="252.6,269.4 257.6,267.7 260.8,266.0 255.7,267.7" fill="rgb(15,15,19)"/><polygon points="267.3,257.7 264.8,262.5 260.8,266.0 255.7,267.7 250.1,267.4 244.9,265.2 240.5,261.3 237.6,256.2 236.5,250.5 237.4,245.0 240.0,240.3 244.1,236.9 249.2,235.4 254.6,235.7 259.8,237.9 264.0,241.7 266.9,246.7 268.1,252.2" fill="rgb(18,18,22)"/><polygon points="233.8,252.5 234.8,258.1 237.6,256.2 236.5,250.5" fill="rgb(12,12,14)"/><polygon points="247.2,269.1 252.6,269.4 255.7,267.7 250.1,267.4" fill="rgb(14,14,17)"/><polygon points="286.5,215.9 283.7,217.9 284.2,228.5 287.1,226.6" fill="rgb(255,235,160)"/><polygon points="234.8,258.1 237.7,263.1 240.5,261.3 237.6,256.2" fill="rgb(9,9,11)"/><polygon points="242.0,266.9 247.2,269.1 250.1,267.4 244.9,265.2" fill="rgb(12,12,14)"/><polygon points="276.2,206.4 278.2,249.4 94.7,239.2 97.6,193.0" fill="rgb(166,43,54)"/><polygon points="237.7,263.1 242.0,266.9 244.9,265.2 240.5,261.3" fill="rgb(9,9,11)"/><polygon points="130.2,194.6 132.1,194.8 153.5,166.8 151.7,166.6" fill="rgb(35,10,18)"/><polygon points="139.0,236.7 134.6,232.8 135.7,230.4 140.2,234.4" fill="rgb(9,9,11)"/><polygon points="134.6,232.8 129.1,230.5 130.1,228.1 135.7,230.4" fill="rgb(12,12,14)"/><polygon points="141.8,241.9 139.0,236.7 140.2,234.4 143.0,239.7" fill="rgb(9,9,11)"/><polygon points="129.1,230.5 123.2,230.1 124.1,227.7 130.1,228.1" fill="rgb(14,14,17)"/><polygon points="132.1,247.2 131.0,243.3 127.7,240.7 123.6,240.5 120.1,242.7 118.6,246.5 119.7,250.4 123.0,253.0 127.2,253.2 130.7,251.0" fill="rgb(180,180,190)"/><polygon points="142.6,247.7 141.8,241.9 143.0,239.7 143.9,245.5" fill="rgb(12,12,14)"/><polygon points="142.6,247.7 141.8,241.9 139.0,236.7 134.6,232.8 129.1,230.5 123.2,230.1 117.4,231.8 112.6,235.2 109.3,240.1 108.0,245.8 108.7,251.7 111.5,257.0 116.0,261.1 121.7,263.4 127.7,263.6 133.5,261.9 138.2,258.3 141.4,253.4" fill="rgb(30,30,36)"/><polygon points="276.2,206.4 310.3,179.4 313.6,228.8 278.2,249.4" fill="rgb(153,39,50)"/><polygon points="123.2,230.1 117.4,231.8 118.3,229.4 124.1,227.7" fill="rgb(15,15,19)"/><polygon points="234.9,202.5 260.8,176.2 237.5,142.3 216.0,171.6" fill="rgb(14,21,38)"/><polygon points="141.4,253.4 142.6,247.7 143.9,245.5 142.7,251.3" fill="rgb(14,14,17)"/><polygon points="117.4,231.8 112.6,235.2 113.4,232.9 118.3,229.4" fill="rgb(16,16,19)"/><polygon points="138.2,258.3 141.4,253.4 142.7,251.3 139.4,256.3" fill="rgb(15,15,19)"/><polygon points="300.4,221.8 288.0,229.8 288.5,238.9 301.0,231.4" fill="rgb(18,18,22)"/><polygon points="112.6,235.2 109.3,240.1 110.0,237.8 113.4,232.9" fill="rgb(15,15,19)"/><polygon points="133.5,261.9 138.2,258.3 139.4,256.3 134.6,260.0" fill="rgb(16,16,19)"/><polygon points="216.0,171.6 237.5,142.3 164.5,134.8 152.0,165.9" fill="rgb(93,19,31)"/><polygon points="109.3,240.1 108.0,245.8 108.6,243.6 110.0,237.8" fill="rgb(14,14,17)"/><polygon points="127.7,263.6 133.5,261.9 134.6,260.0 128.8,261.8" fill="rgb(15,15,19)"/><polygon points="142.7,251.3 139.4,256.3 134.6,260.0 128.8,261.8 122.6,261.5 116.8,259.1 112.3,255.0 109.4,249.6 108.6,243.6 110.0,237.8 113.4,232.9 118.3,229.4 124.1,227.7 130.1,228.1 135.7,230.4 140.2,234.4 143.0,239.7 143.9,245.5" fill="rgb(18,18,22)"/><polygon points="108.0,245.8 108.7,251.7 109.4,249.6 108.6,243.6" fill="rgb(12,12,14)"/><polygon points="121.7,263.4 127.7,263.6 128.8,261.8 122.6,261.5" fill="rgb(14,14,17)"/><polygon points="108.7,251.7 111.5,257.0 112.3,255.0 109.4,249.6" fill="rgb(9,9,11)"/><polygon points="116.0,261.1 121.7,263.4 122.6,261.5 116.8,259.1" fill="rgb(12,12,14)"/><polygon points="111.5,257.0 116.0,261.1 116.8,259.1 112.3,255.0" fill="rgb(9,9,11)"/><polygon points="276.2,206.4 97.6,193.0 102.7,160.9 310.3,179.4" fill="rgb(190,85,93)"/><polygon points="303.6,203.7 300.3,206.1 301.0,217.4 304.3,215.2" fill="rgb(255,235,160)"/><polygon points="130.3,194.6 152.0,165.9 164.5,134.8 140.3,165.5" fill="rgb(26,39,69)"/><polygon points="97.5,202.5 96.8,214.0 96.4,216.3 97.1,204.9" fill="rgb(255,100,110)"/><polygon points="278.2,249.4 313.6,228.8 99.4,214.7 94.7,239.2" fill="rgb(23,6,9)"/><polygon points="258.9,175.9 260.9,176.1 238.2,141.4 236.2,141.2" fill="rgb(35,10,18)"/><polygon points="102.7,160.9 97.6,193.0 94.7,239.2 99.4,214.7" fill="rgb(107,18,28)"/><polygon points="260.8,176.2 140.3,165.5 164.5,134.8 237.5,142.3" fill="rgb(63,87,127)"/><polygon points="297.5,219.5 292.5,215.0 288.3,218.0 293.2,222.3" fill="rgb(9,9,11)"/><polygon points="292.5,215.0 286.5,212.4 282.4,215.4 288.3,218.0" fill="rgb(12,12,14)"/><polygon points="300.9,225.3 297.5,219.5 293.2,222.3 296.6,228.0" fill="rgb(9,9,11)"/><polygon points="286.5,212.4 280.2,212.0 276.3,215.0 282.4,215.4" fill="rgb(14,14,17)"/><polygon points="302.4,231.7 300.9,225.3 296.6,228.0 298.0,234.4" fill="rgb(12,12,14)"/><polygon points="297.3,240.6 294.5,246.0 290.0,249.9 284.2,251.9 277.9,251.5 271.9,248.9 266.9,244.4 263.5,238.6 262.1,232.1 263.0,225.8 265.9,220.5 270.5,216.7 276.3,215.0 282.4,215.4 288.3,218.0 293.2,222.3 296.6,228.0 298.0,234.4" fill="rgb(18,18,22)"/><polygon points="280.2,212.0 274.4,213.7 270.5,216.7 276.3,215.0" fill="rgb(15,15,19)"/><polygon points="301.7,238.1 302.4,231.7 298.0,234.4 297.3,240.6" fill="rgb(14,14,17)"/><polygon points="274.4,213.7 269.7,217.6 265.9,220.5 270.5,216.7" fill="rgb(16,16,19)"/><polygon points="298.9,243.6 301.7,238.1 297.3,240.6 294.5,246.0" fill="rgb(15,15,19)"/><polygon points="269.7,217.6 266.8,223.0 263.0,225.8 265.9,220.5" fill="rgb(15,15,19)"/><polygon points="294.3,247.6 298.9,243.6 294.5,246.0 290.0,249.9" fill="rgb(16,16,19)"/><polygon points="266.8,223.0 265.9,229.4 262.1,232.1 263.0,225.8" fill="rgb(14,14,17)"/><polygon points="140.3,165.5 142.5,165.6 167.0,134.1 164.9,133.9" fill="rgb(35,10,18)"/><polygon points="288.4,249.5 294.3,247.6 290.0,249.9 284.2,251.9" fill="rgb(15,15,19)"/><polygon points="302.4,231.7 300.9,225.3 297.5,219.5 292.5,215.0 286.5,212.4 280.2,212.0 274.4,213.7 269.7,217.6 266.8,223.0 265.9,229.4 267.3,236.0 270.7,242.0 275.9,246.5 282.0,249.2 288.4,249.5 294.3,247.6 298.9,243.6 301.7,238.1" fill="rgb(30,30,36)"/><polygon points="265.9,229.4 267.3,236.0 263.5,238.6 262.1,232.1" fill="rgb(12,12,14)"/><polygon points="291.5,230.9 289.9,226.6 286.3,223.7 281.9,223.4 278.5,225.8 277.3,230.0 278.9,234.5 282.6,237.4 287.0,237.6 290.4,235.2" fill="rgb(180,180,190)"/><polygon points="282.0,249.2 288.4,249.5 284.2,251.9 277.9,251.5" fill="rgb(14,14,17)"/><polygon points="267.3,236.0 270.7,242.0 266.9,244.4 263.5,238.6" fill="rgb(9,9,11)"/><polygon points="275.9,246.5 282.0,249.2 277.9,251.5 271.9,248.9" fill="rgb(12,12,14)"/><polygon points="310.3,179.4 102.7,160.9 99.4,214.7 313.6,228.8" fill="rgb(166,43,54)"/><polygon points="270.7,242.0 275.9,246.5 271.9,248.9 266.9,244.4" fill="rgb(9,9,11)"/><polygon points="99.9,188.0 99.2,200.5 98.7,203.1 99.5,190.8" fill="rgb(255,100,110)"/><polygon points="153.2,209.4 147.9,204.7 146.3,208.0 151.5,212.7" fill="rgb(9,9,11)"/><polygon points="147.9,204.7 141.3,201.9 139.9,205.3 146.3,208.0" fill="rgb(12,12,14)"/><polygon points="156.6,215.6 153.2,209.4 151.5,212.7 154.8,218.7" fill="rgb(9,9,11)"/><polygon points="141.3,201.9 134.2,201.4 132.9,204.8 139.9,205.3" fill="rgb(14,14,17)"/><polygon points="157.6,222.4 156.6,215.6 154.8,218.7 155.9,225.4" fill="rgb(12,12,14)"/><polygon points="154.5,232.0 150.8,237.8 145.3,241.9 138.5,243.9 131.3,243.5 124.6,240.8 119.3,236.0 116.0,229.7 115.1,222.8 116.6,216.2 120.5,210.5 126.1,206.6 132.9,204.8 139.9,205.3 146.3,208.0 151.5,212.7 154.8,218.7 155.9,225.4" fill="rgb(18,18,22)"/><polygon points="134.2,201.4 127.3,203.2 126.1,206.6 132.9,204.8" fill="rgb(15,15,19)"/><polygon points="156.2,229.2 157.6,222.4 155.9,225.4 154.5,232.0" fill="rgb(14,14,17)"/><polygon points="127.3,203.2 121.6,207.2 120.5,210.5 126.1,206.6" fill="rgb(16,16,19)"/><polygon points="152.5,235.0 156.2,229.2 154.5,232.0 150.8,237.8" fill="rgb(15,15,19)"/><polygon points="121.6,207.2 117.6,213.0 116.6,216.2 120.5,210.5" fill="rgb(15,15,19)"/><polygon points="146.8,239.2 152.5,235.0 150.8,237.8 145.3,241.9" fill="rgb(16,16,19)"/><polygon points="117.6,213.0 116.0,219.8 115.1,222.8 116.6,216.2" fill="rgb(14,14,17)"/><polygon points="139.9,241.3 146.8,239.2 145.3,241.9 138.5,243.9" fill="rgb(15,15,19)"/><polygon points="157.6,222.4 156.6,215.6 153.2,209.4 147.9,204.7 141.3,201.9 134.2,201.4 127.3,203.2 121.6,207.2 117.6,213.0 116.0,219.8 117.0,226.8 120.4,233.1 125.8,238.0 132.6,240.9 139.9,241.3 146.8,239.2 152.5,235.0 156.2,229.2" fill="rgb(30,30,36)"/><polygon points="116.0,219.8 117.0,226.8 116.0,229.7 115.1,222.8" fill="rgb(12,12,14)"/><polygon points="145.1,221.5 143.7,216.9 139.8,213.8 134.8,213.5 130.7,216.0 128.9,220.5 130.3,225.2 134.3,228.3 139.3,228.6 143.4,226.0" fill="rgb(180,180,190)"/><polygon points="132.6,240.9 139.9,241.3 138.5,243.9 131.3,243.5" fill="rgb(14,14,17)"/><polygon points="117.0,226.8 120.4,233.1 119.3,236.0 116.0,229.7" fill="rgb(9,9,11)"/><polygon points="125.8,238.0 132.6,240.9 131.3,243.5 124.6,240.8" fill="rgb(12,12,14)"/><polygon points="120.4,233.1 125.8,238.0 124.6,240.8 119.3,236.0" fill="rgb(9,9,11)"/></svg>