<svg xmlns="http://www.w3.org/2000/svg" viewBox="0 0 400 400"><rect width="400" height="400" fill="#0f1020"/><rect x="0" y="250" width="400" height="150" fill="#0a0b17"/><ellipse cx="200" cy="262" rx="120" ry="16" fill="rgba(0,0,0,0.45)"/><polygon points="168.5,229.0 168.4,238.9 174.3,239.7 174.5,229.9" fill="rgb(255,100,110)"/><polygon points="198.5,254.5 198.0,259.8 190.6,258.9 191.1,253.5" fill="rgb(11,11,13)"/><polygon points="199.9,249.4 198.5,254.5 191.1,253.5 192.5,248.4" fill="rgb(8,8,10)"/><polygon points="198.0,259.8 198.5,264.9 191.1,264.0 190.6,258.9" fill="rgb(13,13,16)"/><polygon points="202.1,245.2 199.9,249.4 192.5,248.4 194.7,244.2" fill="rgb(10,10,12)"/><polygon points="119.6,205.0 188.6,216.8 188.3,257.3 117.6,248.3" fill="rgb(100,17,27)"/><polygon points="198.5,264.9 199.9,269.0 192.4,268.2 191.1,264.0" fill="rgb(15,15,18)"/><polygon points="204.7,242.4 202.1,245.2 194.7,244.2 197.3,241.3" fill="rgb(12,12,15)"/><polygon points="201.3,209.4 202.2,208.9 212.2,175.5 211.3,176.1" fill="rgb(35,10,18)"/><polygon points="199.9,269.0 202.1,271.8 194.6,271.0 192.4,268.2" fill="rgb(15,15,19)"/><polygon points="207.6,241.3 204.7,242.4 197.3,241.3 200.2,240.2" fill="rgb(14,14,17)"/><polygon points="209.8,256.0 209.1,252.6 207.5,251.0 205.4,251.7 203.8,254.4 203.2,258.2 203.8,261.5 205.5,263.2 207.5,262.5 209.2,259.8" fill="rgb(180,180,190)"/><polygon points="214.9,254.2 214.3,248.9 212.7,244.7 210.4,242.1 207.6,241.3 204.7,242.4 202.1,245.2 199.9,249.4 198.5,254.5 198.0,259.8 198.5,264.9 199.9,269.0 202.1,271.8 204.8,272.9 207.8,272.1 210.6,269.3 212.9,265.1 214.4,259.8" fill="rgb(30,30,36)"/><polygon points="134.3,223.7 133.9,233.9 140.4,234.8 140.7,224.7" fill="rgb(255,100,110)"/><polygon points="202.1,271.8 204.8,272.9 197.3,272.1 194.6,271.0" fill="rgb(15,15,18)"/><polygon points="210.4,242.1 207.6,241.3 200.2,240.2 202.9,241.0" fill="rgb(15,15,18)"/><polygon points="206.8,258.8 205.3,264.2 203.0,268.5 200.2,271.2 197.3,272.1 194.6,271.0 192.4,268.2 191.1,264.0 190.6,258.9 191.1,253.5 192.5,248.4 194.7,244.2 197.3,241.3 200.2,240.2 202.9,241.0 205.2,243.6 206.7,247.9 207.3,253.1" fill="rgb(18,18,22)"/><polygon points="204.8,272.9 207.8,272.1 200.2,271.2 197.3,272.1" fill="rgb(14,14,17)"/><polygon points="212.7,244.7 210.4,242.1 202.9,241.0 205.2,243.6" fill="rgb(15,15,19)"/><polygon points="207.8,272.1 210.6,269.3 203.0,268.5 200.2,271.2" fill="rgb(12,12,15)"/><polygon points="214.3,248.9 212.7,244.7 205.2,243.6 206.7,247.9" fill="rgb(15,15,18)"/><polygon points="201.1,209.3 209.7,175.7 146.3,161.6 134.7,197.2" fill="rgb(13,19,35)"/><polygon points="210.6,269.3 212.9,265.1 205.3,264.2 203.0,268.5" fill="rgb(10,10,12)"/><polygon points="214.9,254.2 214.3,248.9 206.7,247.9 207.3,253.1" fill="rgb(13,13,16)"/><polygon points="212.9,265.1 214.4,259.8 206.8,258.8 205.3,264.2" fill="rgb(8,8,10)"/><polygon points="214.4,259.8 214.9,254.2 207.3,253.1 206.8,258.8" fill="rgb(11,11,13)"/><polygon points="263.4,179.3 247.4,154.3 209.7,175.7 201.1,209.3" fill="rgb(63,86,126)"/><polygon points="118.8,244.0 118.1,249.8 126.8,250.9 127.4,245.1" fill="rgb(11,11,13)"/><polygon points="120.2,238.5 118.8,244.0 127.4,245.1 128.8,239.7" fill="rgb(8,8,10)"/><polygon points="118.1,249.8 118.3,255.3 126.9,256.3 126.8,250.9" fill="rgb(13,13,16)"/><polygon points="122.2,233.9 120.2,238.5 128.8,239.7 130.8,235.1" fill="rgb(10,10,12)"/><polygon points="134.6,197.2 135.4,196.7 145.4,160.6 144.6,161.2" fill="rgb(35,10,18)"/><polygon points="118.3,255.3 119.2,259.8 127.9,260.8 126.9,256.3" fill="rgb(15,15,18)"/><polygon points="124.5,230.8 122.2,233.9 130.8,235.1 133.1,232.0" fill="rgb(12,12,15)"/><polygon points="119.2,259.8 120.8,262.8 129.6,263.8 127.9,260.8" fill="rgb(15,15,19)"/><polygon points="126.9,229.4 124.5,230.8 133.1,232.0 135.6,230.7" fill="rgb(14,14,17)"/><polygon points="140.5,250.4 139.0,256.1 136.8,260.8 134.4,263.8 131.9,264.8 129.6,263.8 127.9,260.8 126.9,256.3 126.8,250.9 127.4,245.1 128.8,239.7 130.8,235.1 133.1,232.0 135.6,230.7 137.9,231.5 139.7,234.2 140.9,238.7 141.1,244.3" fill="rgb(18,18,22)"/><polygon points="120.8,262.8 123.0,263.8 131.9,264.8 129.6,263.8" fill="rgb(15,15,18)"/><polygon points="129.1,230.2 126.9,229.4 135.6,230.7 137.9,231.5" fill="rgb(15,15,18)"/><polygon points="247.4,154.3 179.5,136.8 146.3,161.6 209.7,175.7" fill="rgb(93,19,31)"/><polygon points="300.6,163.2 303.9,216.5 188.3,257.3 188.6,216.8" fill="rgb(174,44,56)"/><polygon points="132.1,243.1 131.9,237.4 130.9,232.9 129.1,230.2 126.9,229.4 124.5,230.8 122.2,233.9 120.2,238.5 118.8,244.0 118.1,249.8 118.3,255.3 119.2,259.8 120.8,262.8 123.0,263.8 125.4,262.8 127.9,259.8 130.0,255.1 131.5,249.2" fill="rgb(30,30,36)"/><polygon points="127.4,245.2 127.1,241.6 125.8,239.9 124.1,240.7 122.7,243.8 122.0,247.8 122.3,251.4 123.6,253.2 125.3,252.4 126.7,249.4" fill="rgb(180,180,190)"/><polygon points="123.0,263.8 125.4,262.8 134.4,263.8 131.9,264.8" fill="rgb(14,14,17)"/><polygon points="130.9,232.9 129.1,230.2 137.9,231.5 139.7,234.2" fill="rgb(15,15,19)"/><polygon points="125.4,262.8 127.9,259.8 136.8,260.8 134.4,263.8" fill="rgb(12,12,15)"/><polygon points="131.9,237.4 130.9,232.9 139.7,234.2 140.9,238.7" fill="rgb(15,15,18)"/><polygon points="127.9,259.8 130.0,255.1 139.0,256.1 136.8,260.8" fill="rgb(10,10,12)"/><polygon points="132.1,243.1 131.9,237.4 140.9,238.7 141.1,244.3" fill="rgb(13,13,16)"/><polygon points="130.0,255.1 131.5,249.2 140.5,250.4 139.0,256.1" fill="rgb(8,8,10)"/><polygon points="131.5,249.2 132.1,243.1 141.1,244.3 140.5,250.4" fill="rgb(11,11,13)"/><polygon points="300.6,163.2 188.6,216.8 119.6,205.0 217.0,141.2" fill="rgb(190,85,93)"/><polygon points="262.3,179.9 263.6,179.3 249.1,154.7 247.9,155.4" fill="rgb(35,10,18)"/><polygon points="189.2,162.0 134.7,197.2 146.3,161.6 179.5,136.8" fill="rgb(66,91,132)"/><polygon points="303.9,216.5 217.7,199.5 117.6,248.3 188.3,257.3" fill="rgb(23,6,9)"/><polygon points="263.4,179.3 189.2,162.0 179.5,136.8 247.4,154.3" fill="rgb(25,37,66)"/><polygon points="217.0,141.2 119.6,205.0 117.6,248.3 217.7,199.5" fill="rgb(174,44,56)"/><polygon points="272.6,228.5 272.2,235.0 263.9,233.6 264.3,227.0" fill="rgb(11,11,13)"/><polygon points="274.5,222.2 272.6,228.5 264.3,227.0 266.2,220.7" fill="rgb(8,8,10)"/><polygon points="272.2,235.0 273.2,241.0 264.8,239.7 263.9,233.6" fill="rgb(13,13,16)"/><polygon points="277.5,217.0 274.5,222.2 266.2,220.7 269.2,215.4" fill="rgb(10,10,12)"/><polygon points="273.2,241.0 275.5,246.0 267.1,244.7 264.8,239.7" fill="rgb(15,15,18)"/><polygon points="281.5,213.3 277.5,217.0 269.2,215.4 273.1,211.7" fill="rgb(12,12,15)"/><polygon points="275.5,246.0 279.0,249.2 270.6,247.9 267.1,244.7" fill="rgb(15,15,19)"/><polygon points="285.8,211.6 281.5,213.3 273.1,211.7 277.5,210.0" fill="rgb(14,14,17)"/><polygon points="289.8,229.2 288.6,225.2 286.0,223.4 282.9,224.5 280.6,227.9 279.9,232.5 281.0,236.5 283.6,238.3 286.7,237.4 289.1,233.9" fill="rgb(180,180,190)"/><polygon points="297.7,226.4 296.5,220.1 293.9,215.2 290.1,212.3 285.8,211.6 281.5,213.3 277.5,217.0 274.5,222.2 272.6,228.5 272.2,235.0 273.2,241.0 275.5,246.0 279.0,249.2 283.3,250.2 287.7,248.9 291.9,245.4 295.2,239.9 297.3,233.3" fill="rgb(30,30,36)"/><polygon points="187.9,162.7 189.0,162.0 177.6,136.3 176.6,137.1" fill="rgb(35,10,18)"/><polygon points="279.0,249.2 283.3,250.2 274.8,248.9 270.6,247.9" fill="rgb(15,15,18)"/><polygon points="290.1,212.3 285.8,211.6 277.5,210.0 281.7,210.6" fill="rgb(15,15,18)"/><polygon points="288.7,231.8 286.7,238.5 283.4,244.0 279.2,247.6 274.8,248.9 270.6,247.9 267.1,244.7 264.8,239.7 263.9,233.6 264.3,227.0 266.2,220.7 269.2,215.4 273.1,211.7 277.5,210.0 281.7,210.6 285.4,213.5 288.0,218.5 289.1,224.9" fill="rgb(18,18,22)"/><polygon points="283.3,250.2 287.7,248.9 279.2,247.6 274.8,248.9" fill="rgb(14,14,17)"/><polygon points="293.9,215.2 290.1,212.3 281.7,210.6 285.4,213.5" fill="rgb(15,15,19)"/><polygon points="287.7,248.9 291.9,245.4 283.4,244.0 279.2,247.6" fill="rgb(12,12,15)"/><polygon points="296.5,220.1 293.9,215.2 285.4,213.5 288.0,218.5" fill="rgb(15,15,18)"/><polygon points="291.9,245.4 295.2,239.9 286.7,238.5 283.4,244.0" fill="rgb(10,10,12)"/><polygon points="297.7,226.4 296.5,220.1 288.0,218.5 289.1,224.9" fill="rgb(13,13,16)"/><polygon points="295.2,239.9 297.3,233.3 288.7,231.8 286.7,238.5" fill="rgb(8,8,10)"/><polygon points="297.3,233.3 297.7,226.4 289.1,224.9 288.7,231.8" fill="rgb(11,11,13)"/><polygon points="278.5,177.3 285.6,179.0 286.3,192.0 279.1,190.4" fill="rgb(255,235,160)"/><polygon points="181.4,212.5 180.7,219.7 190.8,221.4 191.5,214.3" fill="rgb(11,11,13)"/><polygon points="183.3,205.6 181.4,212.5 191.5,214.3 193.3,207.4" fill="rgb(8,8,10)"/><polygon points="180.7,219.7 181.3,226.4 191.4,228.0 190.8,221.4" fill="rgb(13,13,16)"/><polygon points="186.1,199.6 183.3,205.6 193.3,207.4 196.2,201.6" fill="rgb(10,10,12)"/><polygon points="181.3,226.4 183.0,231.7 193.2,233.3 191.4,228.0" fill="rgb(15,15,18)"/><polygon points="189.6,195.4 186.1,199.6 196.2,201.6 199.8,197.3" fill="rgb(12,12,15)"/><polygon points="183.0,231.7 185.8,235.1 196.1,236.7 193.2,233.3" fill="rgb(15,15,19)"/><polygon points="300.6,163.2 217.0,141.2 217.7,199.5 303.9,216.5" fill="rgb(143,37,47)"/><polygon points="193.4,193.3 189.6,195.4 199.8,197.3 203.6,195.3" fill="rgb(14,14,17)"/><polygon points="212.7,218.6 210.7,226.0 207.5,232.1 203.7,236.1 199.7,237.7 196.1,236.7 193.2,233.3 191.4,228.0 190.8,221.4 191.5,214.3 193.3,207.4 196.2,201.6 199.8,197.3 203.6,195.3 207.4,195.8 210.5,198.8 212.6,204.1 213.4,211.0" fill="rgb(18,18,22)"/><polygon points="247.2,187.9 277.5,194.5 278.0,205.6 247.5,199.4" fill="rgb(18,18,22)"/><polygon points="185.8,235.1 189.4,236.1 199.7,237.7 196.1,236.7" fill="rgb(15,15,18)"/><polygon points="197.1,193.8 193.4,193.3 203.6,195.3 207.4,195.8" fill="rgb(15,15,18)"/><polygon points="202.9,209.1 202.2,202.1 200.1,196.8 197.1,193.8 193.4,193.3 189.6,195.4 186.1,199.6 183.3,205.6 181.4,212.5 180.7,219.7 181.3,226.4 183.0,231.7 185.8,235.1 189.4,236.1 193.3,234.5 197.0,230.4 200.1,224.2 202.2,216.8" fill="rgb(30,30,36)"/><polygon points="195.5,212.4 194.6,208.1 192.5,206.2 189.8,207.5 187.7,211.5 186.9,216.6 187.6,220.9 189.7,222.9 192.4,221.7 194.6,217.7" fill="rgb(180,180,190)"/><polygon points="189.4,236.1 193.3,234.5 203.7,236.1 199.7,237.7" fill="rgb(14,14,17)"/><polygon points="200.1,196.8 197.1,193.8 207.4,195.8 210.5,198.8" fill="rgb(15,15,19)"/><polygon points="236.8,167.4 244.7,169.2 245.1,182.9 237.1,181.1" fill="rgb(255,235,160)"/><polygon points="193.3,234.5 197.0,230.4 207.5,232.1 203.7,236.1" fill="rgb(12,12,15)"/><polygon points="202.2,202.1 200.1,196.8 210.5,198.8 212.6,204.1" fill="rgb(15,15,18)"/><polygon points="197.0,230.4 200.1,224.2 210.7,226.0 207.5,232.1" fill="rgb(10,10,12)"/><polygon points="202.9,209.1 202.2,202.1 212.6,204.1 213.4,211.0" fill="rgb(13,13,16)"/><polygon points="200.1,224.2 202.2,216.8 212.7,218.6 210.7,226.0" fill="rgb(8,8,10)"/><polygon points="202.2,216.8 202.9,209.1 213.4,211.0 212.7,218.6" fill="rgb(11,11,13)"/></svg>