<svg xmlns="http://www.w3.org/2000/svg" viewBox="0 0 400 400"><rect width="400" height="400" fill="#0f1020"/><rect x="0" y="250" width="400" height="150" fill="#0a0b17"/><ellipse cx="200" cy="262" rx="120" ry="16" fill="rgba(0,0,0,0.45)"/><polygon points="181.2,230.3 175.1,229.5 174.9,239.4 181.1,240.1" fill="rgb(255,235,160)"/><polygon points="125.0,206.9 195.6,217.0 195.5,257.4 123.1,249.7" fill="rgb(149,38,49)"/><polygon points="204.7,259.8 205.1,254.4 197.5,253.6 197.1,259.0" fill="rgb(11,11,14)"/><polygon points="205.1,254.4 206.4,249.4 198.7,248.5 197.5,253.6" fill="rgb(9,9,11)"/><polygon points="205.2,264.8 204.7,259.8 197.1,259.0 197.5,264.1" fill="rgb(14,14,17)"/><polygon points="206.4,249.4 208.3,245.1 200.6,244.2 198.7,248.5" fill="rgb(9,9,11)"/><polygon points="173.3,242.5 147.8,239.5 147.5,248.1 173.2,250.9" fill="rgb(18,18,22)"/><polygon points="206.4,269.0 205.2,264.8 197.5,264.1 198.7,268.2" fill="rgb(15,15,18)"/><polygon points="208.3,245.1 210.7,242.3 202.9,241.3 200.6,244.2" fill="rgb(12,12,15)"/><polygon points="146.6,225.8 140.0,225.0 139.7,235.2 146.3,235.9" fill="rgb(255,235,160)"/><polygon points="208.4,271.8 206.4,269.0 198.7,268.2 200.6,271.0" fill="rgb(16,16,19)"/><polygon points="210.7,242.3 213.2,241.1 205.5,240.2 202.9,241.3" fill="rgb(14,14,17)"/><polygon points="209.4,258.1 209.9,254.3 211.3,251.6 213.1,250.8 214.6,252.4 215.2,255.8 214.7,259.6 213.2,262.4 211.4,263.0 210.0,261.4" fill="rgb(180,180,190)"/><polygon points="204.7,259.8 205.1,254.4 206.4,249.4 208.3,245.1 210.7,242.3 213.2,241.1 215.7,241.9 217.8,244.5 219.2,248.6 219.7,253.9 219.3,259.5 218.0,264.8 216.0,269.1 213.5,271.9 210.8,272.8 208.4,271.8 206.4,269.0 205.2,264.8" fill="rgb(30,30,36)"/><polygon points="210.8,272.8 208.4,271.8 200.6,271.0 203.0,272.1" fill="rgb(15,15,19)"/><polygon points="213.2,241.1 215.7,241.9 207.9,240.9 205.5,240.2" fill="rgb(15,15,19)"/><polygon points="197.5,264.1 198.7,268.2 200.6,271.0 203.0,272.1 205.6,271.2 208.0,268.4 210.0,264.0 211.4,258.7 211.8,253.0 211.3,247.7 209.9,243.5 207.9,240.9 205.5,240.2 202.9,241.3 200.6,244.2 198.7,248.5 197.5,253.6 197.1,259.0" fill="rgb(18,18,22)"/><polygon points="213.5,271.9 210.8,272.8 203.0,272.1 205.6,271.2" fill="rgb(14,14,17)"/><polygon points="214.0,205.1 213.2,205.5 222.3,171.1 223.1,170.5" fill="rgb(35,10,18)"/><polygon points="215.7,241.9 217.8,244.5 209.9,243.5 207.9,240.9" fill="rgb(16,16,19)"/><polygon points="216.0,269.1 213.5,271.9 205.6,271.2 208.0,268.4" fill="rgb(12,12,15)"/><polygon points="217.8,244.5 219.2,248.6 211.3,247.7 209.9,243.5" fill="rgb(15,15,18)"/><polygon points="218.0,264.8 216.0,269.1 208.0,268.4 210.0,264.0" fill="rgb(9,9,11)"/><polygon points="219.2,248.6 219.7,253.9 211.8,253.0 211.3,247.7" fill="rgb(14,14,17)"/><polygon points="219.3,259.5 218.0,264.8 210.0,264.0 211.4,258.7" fill="rgb(9,9,11)"/><polygon points="219.7,253.9 219.3,259.5 211.4,258.7 211.8,253.0" fill="rgb(11,11,14)"/><polygon points="143.3,194.6 213.0,205.5 220.6,170.8 153.8,158.0" fill="rgb(14,21,37)"/><polygon points="122.7,251.2 123.3,245.5 132.1,246.4 131.5,252.1" fill="rgb(11,11,14)"/><polygon points="123.3,245.5 124.5,240.0 133.2,241.0 132.1,246.4" fill="rgb(9,9,11)"/><polygon points="122.8,256.6 122.7,251.2 131.5,252.1 131.6,257.5" fill="rgb(14,14,17)"/><polygon points="124.5,240.0 126.1,235.4 134.9,236.4 133.2,241.0" fill="rgb(9,9,11)"/><polygon points="123.6,261.0 122.8,256.6 131.6,257.5 132.4,261.9" fill="rgb(15,15,18)"/><polygon points="126.1,235.4 128.0,232.2 136.9,233.3 134.9,236.4" fill="rgb(12,12,15)"/><polygon points="124.9,264.0 123.6,261.0 132.4,261.9 133.8,264.8" fill="rgb(16,16,19)"/><polygon points="128.0,232.2 130.0,230.9 138.9,232.0 136.9,233.3" fill="rgb(14,14,17)"/><polygon points="131.6,257.5 132.4,261.9 133.8,264.8 135.7,265.8 137.8,264.8 139.8,261.8 141.6,257.1 142.9,251.4 143.4,245.3 143.3,239.8 142.3,235.4 140.8,232.7 138.9,232.0 136.9,233.3 134.9,236.4 133.2,241.0 132.1,246.4 131.5,252.1" fill="rgb(18,18,22)"/><polygon points="126.7,265.0 124.9,264.0 133.8,264.8 135.7,265.8" fill="rgb(15,15,19)"/><polygon points="130.0,230.9 131.8,231.6 140.8,232.7 138.9,232.0" fill="rgb(15,15,19)"/><polygon points="122.7,251.2 123.3,245.5 124.5,240.0 126.1,235.4 128.0,232.2 130.0,230.9 131.8,231.6 133.3,234.3 134.1,238.7 134.3,244.3 133.7,250.4 132.4,256.2 130.7,260.9 128.7,264.0 126.7,265.0 124.9,264.0 123.6,261.0 122.8,256.6" fill="rgb(30,30,36)"/><polygon points="125.9,249.2 126.4,245.1 127.6,242.1 129.0,241.2 130.1,242.9 130.3,246.5 129.7,250.6 128.5,253.6 127.1,254.4 126.1,252.7" fill="rgb(180,180,190)"/><polygon points="143.8,194.0 143.2,194.6 151.9,157.7 152.6,157.0" fill="rgb(35,10,18)"/><polygon points="128.7,264.0 126.7,265.0 135.7,265.8 137.8,264.8" fill="rgb(14,14,17)"/><polygon points="131.8,231.6 133.3,234.3 142.3,235.4 140.8,232.7" fill="rgb(16,16,19)"/><polygon points="213.0,205.5 271.6,172.1 255.9,147.1 220.6,170.8" fill="rgb(61,84,122)"/><polygon points="195.6,217.0 296.3,160.3 299.5,214.2 195.5,257.4" fill="rgb(169,43,55)"/><polygon points="130.7,260.9 128.7,264.0 137.8,264.8 139.8,261.8" fill="rgb(12,12,15)"/><polygon points="133.3,234.3 134.1,238.7 143.3,239.8 142.3,235.4" fill="rgb(15,15,18)"/><polygon points="132.4,256.2 130.7,260.9 139.8,261.8 141.6,257.1" fill="rgb(9,9,11)"/><polygon points="134.1,238.7 134.3,244.3 143.4,245.3 143.3,239.8" fill="rgb(14,14,17)"/><polygon points="133.7,250.4 132.4,256.2 141.6,257.1 142.9,251.4" fill="rgb(9,9,11)"/><polygon points="134.3,244.3 133.7,250.4 142.9,251.4 143.4,245.3" fill="rgb(11,11,14)"/><polygon points="153.8,158.0 220.6,170.8 255.9,147.1 183.1,131.0" fill="rgb(93,19,31)"/><polygon points="125.0,206.9 206.5,140.8 296.3,160.3 195.6,217.0" fill="rgb(190,85,93)"/><polygon points="123.1,249.7 195.5,257.4 299.5,214.2 206.8,199.2" fill="rgb(23,6,9)"/><polygon points="143.3,194.6 153.8,158.0 183.1,131.0 191.4,156.2" fill="rgb(65,89,129)"/><polygon points="271.8,172.2 270.6,172.9 256.6,148.2 257.7,147.5" fill="rgb(35,10,18)"/><polygon points="125.0,206.9 123.1,249.7 206.8,199.2 206.5,140.8" fill="rgb(169,43,55)"/><polygon points="271.3,233.5 271.7,227.0 262.8,225.7 262.4,232.3" fill="rgb(11,11,14)"/><polygon points="271.7,227.0 273.4,220.7 264.5,219.3 262.8,225.7" fill="rgb(9,9,11)"/><polygon points="272.3,239.7 271.3,233.5 262.4,232.3 263.3,238.5" fill="rgb(14,14,17)"/><polygon points="273.4,220.7 276.1,215.3 267.2,213.9 264.5,219.3" fill="rgb(9,9,11)"/><polygon points="191.4,156.2 183.1,131.0 255.9,147.1 271.6,172.1" fill="rgb(25,38,68)"/><polygon points="274.4,244.6 272.3,239.7 263.3,238.5 265.4,243.4" fill="rgb(15,15,18)"/><polygon points="276.1,215.3 279.7,211.5 270.7,210.0 267.2,213.9" fill="rgb(12,12,15)"/><polygon points="277.6,247.8 274.4,244.6 265.4,243.4 268.5,246.6" fill="rgb(16,16,19)"/><polygon points="279.7,211.5 283.7,209.7 274.7,208.2 270.7,210.0" fill="rgb(14,14,17)"/><polygon points="278.4,230.9 279.0,226.3 281.1,222.7 283.9,221.6 286.3,223.3 287.4,227.4 286.8,232.1 284.6,235.7 281.8,236.8 279.4,234.9" fill="rgb(180,180,190)"/><polygon points="271.3,233.5 271.7,227.0 273.4,220.7 276.1,215.3 279.7,211.5 283.7,209.7 287.6,210.2 291.0,213.1 293.5,218.0 294.6,224.4 294.2,231.4 292.4,238.1 289.4,243.7 285.6,247.4 281.5,248.8 277.6,247.8 274.4,244.6 272.3,239.7" fill="rgb(30,30,36)"/><polygon points="281.5,248.8 277.6,247.8 268.5,246.6 272.3,247.6" fill="rgb(15,15,19)"/><polygon points="283.7,209.7 287.6,210.2 278.5,208.7 274.7,208.2" fill="rgb(15,15,19)"/><polygon points="263.3,238.5 265.4,243.4 268.5,246.6 272.3,247.6 276.3,246.2 280.1,242.5 283.1,236.9 284.9,230.1 285.3,223.0 284.2,216.6 281.9,211.6 278.5,208.7 274.7,208.2 270.7,210.0 267.2,213.9 264.5,219.3 262.8,225.7 262.4,232.3" fill="rgb(18,18,22)"/><polygon points="191.2,156.1 190.2,156.9 180.2,131.4 181.1,130.6" fill="rgb(35,10,18)"/><polygon points="285.6,247.4 281.5,248.8 272.3,247.6 276.3,246.2" fill="rgb(14,14,17)"/><polygon points="287.6,210.2 291.0,213.1 281.9,211.6 278.5,208.7" fill="rgb(16,16,19)"/><polygon points="289.4,243.7 285.6,247.4 276.3,246.2 280.1,242.5" fill="rgb(12,12,15)"/><polygon points="291.0,213.1 293.5,218.0 284.2,216.6 281.9,211.6" fill="rgb(15,15,18)"/><polygon points="292.4,238.1 289.4,243.7 280.1,242.5 283.1,236.9" fill="rgb(9,9,11)"/><polygon points="293.5,218.0 294.6,224.4 285.3,223.0 284.2,216.6" fill="rgb(14,14,17)"/><polygon points="294.2,231.4 292.4,238.1 283.1,236.9 284.9,230.1" fill="rgb(9,9,11)"/><polygon points="294.6,224.4 294.2,231.4 284.9,230.1 285.3,223.0" fill="rgb(11,11,14)"/><polygon points="174.6,220.2 175.2,213.0 185.7,214.6 185.1,221.7" fill="rgb(11,11,14)"/><polygon points="175.2,213.0 176.8,206.1 187.3,207.7 185.7,214.6" fill="rgb(9,9,11)"/><polygon points="175.0,226.8 174.6,220.2 185.1,221.7 185.6,228.2" fill="rgb(14,14,17)"/><polygon points="176.8,206.1 179.2,200.1 189.7,201.7 187.3,207.7" fill="rgb(9,9,11)"/><polygon points="176.4,232.1 175.0,226.8 185.6,228.2 187.1,233.5" fill="rgb(15,15,18)"/><polygon points="279.8,176.7 280.4,189.9 272.7,188.4 272.1,175.2" fill="rgb(255,100,110)"/><polygon points="179.2,200.1 182.1,195.7 192.7,197.4 189.7,201.7" fill="rgb(12,12,15)"/><polygon points="178.7,235.5 176.4,232.1 187.1,233.5 189.5,236.8" fill="rgb(16,16,19)"/><polygon points="182.1,195.7 185.3,193.6 196.0,195.3 192.7,197.4" fill="rgb(14,14,17)"/><polygon points="185.6,228.2 187.1,233.5 189.5,236.8 192.6,237.8 195.9,236.1 199.2,232.0 201.8,225.8 203.6,218.4 204.2,210.8 203.6,203.9 201.8,198.7 199.2,195.7 196.0,195.3 192.7,197.4 189.7,201.7 187.3,207.7 185.7,214.6 185.1,221.7" fill="rgb(18,18,22)"/><polygon points="296.3,160.3 206.5,140.8 206.8,199.2 299.5,214.2" fill="rgb(104,17,28)"/><polygon points="181.7,236.4 178.7,235.5 189.5,236.8 192.6,237.8" fill="rgb(15,15,19)"/><polygon points="185.3,193.6 188.4,194.0 199.2,195.7 196.0,195.3" fill="rgb(15,15,19)"/><polygon points="174.6,220.2 175.2,213.0 176.8,206.1 179.2,200.1 182.1,195.7 185.3,193.6 188.4,194.0 190.9,196.9 192.6,202.2 193.1,209.1 192.5,216.9 190.7,224.3 188.1,230.5 185.0,234.7 181.7,236.4 178.7,235.5 176.4,232.1 175.0,226.8" fill="rgb(30,30,36)"/><polygon points="179.6,217.0 180.4,211.9 182.2,207.9 184.4,206.5 186.2,208.3 186.8,212.6 186.1,217.9 184.2,221.9 182.0,223.2 180.3,221.3" fill="rgb(180,180,190)"/><polygon points="185.0,234.7 181.7,236.4 192.6,237.8 195.9,236.1" fill="rgb(14,14,17)"/><polygon points="188.4,194.0 190.9,196.9 201.8,198.7 199.2,195.7" fill="rgb(16,16,19)"/><polygon points="235.8,168.1 236.1,181.7 227.6,180.2 227.4,166.4" fill="rgb(255,100,110)"/><polygon points="188.1,230.5 185.0,234.7 195.9,236.1 199.2,232.0" fill="rgb(12,12,15)"/><polygon points="190.9,196.9 192.6,202.2 203.6,203.9 201.8,198.7" fill="rgb(15,15,18)"/><polygon points="190.7,224.3 188.1,230.5 199.2,232.0 201.8,225.8" fill="rgb(9,9,11)"/><polygon points="192.6,202.2 193.1,209.1 204.2,210.8 203.6,203.9" fill="rgb(14,14,17)"/><polygon points="192.5,216.9 190.7,224.3 201.8,225.8 203.6,218.4" fill="rgb(9,9,11)"/><polygon points="193.1,209.1 192.5,216.9 203.6,218.4 204.2,210.8" fill="rgb(11,11,14)"/></svg>