<svg xmlns="http://www.w3.org/2000/svg" viewBox="0 0 400 400"><rect width="400" height="400" fill="#0f1020"/><rect x="0" y="250" width="400" height="150" fill="#0a0b17"/><ellipse cx="200" cy="262" rx="120" ry="16" fill="rgba(0,0,0,0.45)"/><polygon points="147.2,202.3 149.0,202.2 168.9,172.4 167.2,172.5" fill="rgb(35,10,18)"/><polygon points="252.0,197.0 230.9,168.1 166.7,171.9 147.2,202.3" fill="rgb(67,92,134)"/><polygon points="143.5,236.8 138.2,238.9 135.8,236.7 141.1,234.6" fill="rgb(14,14,18)"/><polygon points="138.2,238.9 133.9,242.6 131.4,240.5 135.8,236.7" fill="rgb(14,14,17)"/><polygon points="149.0,236.6 143.5,236.8 141.1,234.6 146.7,234.3" fill="rgb(14,14,17)"/><polygon points="152.0,252.3 150.9,248.6 147.9,246.5 144.1,246.6 140.9,249.0 139.6,252.7 140.6,256.4 143.7,258.5 147.5,258.4 150.7,256.0" fill="rgb(180,180,190)"/><polygon points="133.9,242.6 131.0,247.5 128.4,245.4 131.4,240.5" fill="rgb(13,13,16)"/><polygon points="161.8,251.9 161.0,246.4 158.3,241.7 154.1,238.3 149.0,236.6 143.5,236.8 138.2,238.9 133.9,242.6 131.0,247.5 129.8,253.0 130.5,258.5 133.1,263.3 137.2,266.8 142.4,268.6 148.0,268.4 153.4,266.3 157.8,262.5 160.7,257.5" fill="rgb(30,30,36)"/><polygon points="154.1,238.3 149.0,236.6 146.7,234.3 151.9,236.1" fill="rgb(13,13,16)"/><polygon points="131.0,247.5 129.8,253.0 127.2,251.0 128.4,245.4" fill="rgb(11,11,14)"/><polygon points="250.1,197.2 252.0,197.1 231.1,168.8 229.3,168.9" fill="rgb(35,10,18)"/><polygon points="158.3,241.7 154.1,238.3 151.9,236.1 156.1,239.5" fill="rgb(11,11,13)"/><polygon points="129.8,253.0 130.5,258.5 127.9,256.6 127.2,251.0" fill="rgb(9,9,11)"/><polygon points="161.0,246.4 158.3,241.7 156.1,239.5 158.8,244.3" fill="rgb(9,9,11)"/><polygon points="130.5,258.5 133.1,263.3 130.5,261.4 127.9,256.6" fill="rgb(9,9,11)"/><polygon points="299.2,195.6 301.9,241.2 116.3,248.0 118.4,204.6" fill="rgb(184,47,60)"/><polygon points="161.8,251.9 161.0,246.4 158.8,244.3 159.7,249.9" fill="rgb(9,9,11)"/><polygon points="133.1,263.3 137.2,266.8 134.7,265.0 130.5,261.4" fill="rgb(11,11,13)"/><polygon points="160.7,257.5 161.8,251.9 159.7,249.9 158.6,255.5" fill="rgb(11,11,14)"/><polygon points="137.2,266.8 142.4,268.6 140.0,266.8 134.7,265.0" fill="rgb(13,13,16)"/><polygon points="158.6,255.5 155.6,260.6 151.1,264.5 145.7,266.6 140.0,266.8 134.7,265.0 130.5,261.4 127.9,256.6 127.2,251.0 128.4,245.4 131.4,240.5 135.8,236.7 141.1,234.6 146.7,234.3 151.9,236.1 156.1,239.5 158.8,244.3 159.7,249.9" fill="rgb(18,18,22)"/><polygon points="157.8,262.5 160.7,257.5 158.6,255.5 155.6,260.6" fill="rgb(13,13,16)"/><polygon points="142.4,268.6 148.0,268.4 145.7,266.6 140.0,266.8" fill="rgb(14,14,17)"/><polygon points="153.4,266.3 157.8,262.5 155.6,260.6 151.1,264.5" fill="rgb(14,14,17)"/><polygon points="148.0,268.4 153.4,266.3 151.1,264.5 145.7,266.6" fill="rgb(14,14,18)"/><polygon points="109.6,213.9 109.0,224.8 111.4,226.7 112.0,216.0" fill="rgb(255,100,110)"/><polygon points="267.5,231.9 262.0,234.1 261.6,231.7 267.2,229.5" fill="rgb(14,14,18)"/><polygon points="262.0,234.1 257.6,237.9 257.1,235.6 261.6,231.7" fill="rgb(14,14,17)"/><polygon points="273.4,231.7 267.5,231.9 267.2,229.5 273.2,229.2" fill="rgb(14,14,17)"/><polygon points="277.8,247.9 276.4,244.1 272.9,241.9 268.8,242.0 265.6,244.5 264.5,248.3 265.9,252.1 269.3,254.4 273.5,254.2 276.7,251.7" fill="rgb(180,180,190)"/><polygon points="257.6,237.9 254.9,243.0 254.3,240.7 257.1,235.6" fill="rgb(13,13,16)"/><polygon points="288.4,247.4 287.1,241.8 283.8,236.9 279.1,233.4 273.4,231.7 267.5,231.9 262.0,234.1 257.6,237.9 254.9,243.0 254.0,248.7 255.2,254.3 258.4,259.3 263.1,262.9 268.8,264.7 274.8,264.5 280.4,262.4 284.9,258.4 287.7,253.2" fill="rgb(30,30,36)"/><polygon points="279.1,233.4 273.4,231.7 273.2,229.2 279.0,231.0" fill="rgb(13,13,16)"/><polygon points="254.9,243.0 254.0,248.7 253.4,246.5 254.3,240.7" fill="rgb(11,11,14)"/><polygon points="283.8,236.9 279.1,233.4 279.0,231.0 283.8,234.6" fill="rgb(11,11,13)"/><polygon points="254.0,248.7 255.2,254.3 254.7,252.3 253.4,246.5" fill="rgb(9,9,11)"/><polygon points="287.1,241.8 283.8,236.9 283.8,234.6 287.1,239.5" fill="rgb(9,9,11)"/><polygon points="255.2,254.3 258.4,259.3 257.9,257.3 254.7,252.3" fill="rgb(9,9,11)"/><polygon points="288.4,247.4 287.1,241.8 287.1,239.5 288.5,245.3" fill="rgb(9,9,11)"/><polygon points="258.4,259.3 263.1,262.9 262.7,261.0 257.9,257.3" fill="rgb(11,11,13)"/><polygon points="147.2,202.3 166.7,171.9 148.9,142.2 125.0,175.4" fill="rgb(22,33,58)"/><polygon points="287.7,253.2 288.4,247.4 288.5,245.3 287.7,251.2" fill="rgb(11,11,14)"/><polygon points="263.1,262.9 268.8,264.7 268.5,262.9 262.7,261.0" fill="rgb(13,13,16)"/><polygon points="287.7,251.2 284.9,256.4 280.3,260.4 274.6,262.7 268.5,262.9 262.7,261.0 257.9,257.3 254.7,252.3 253.4,246.5 254.3,240.7 257.1,235.6 261.6,231.7 267.2,229.5 273.2,229.2 279.0,231.0 283.8,234.6 287.1,239.5 288.5,245.3" fill="rgb(18,18,22)"/><polygon points="230.9,168.1 222.5,137.2 148.9,142.2 166.7,171.9" fill="rgb(93,19,31)"/><polygon points="284.9,258.4 287.7,253.2 287.7,251.2 284.9,256.4" fill="rgb(13,13,16)"/><polygon points="268.8,264.7 274.8,264.5 274.6,262.7 268.5,262.9" fill="rgb(14,14,17)"/><polygon points="280.4,262.4 284.9,258.4 284.9,256.4 280.3,260.4" fill="rgb(14,14,17)"/><polygon points="274.8,264.5 280.4,262.4 280.3,260.4 274.6,262.7" fill="rgb(14,14,18)"/><polygon points="89.9,176.3 118.4,204.6 116.3,248.0 86.6,226.5" fill="rgb(83,14,22)"/><polygon points="299.2,195.6 118.4,204.6 89.9,176.3 301.5,163.9" fill="rgb(190,85,93)"/><polygon points="252.0,197.0 246.4,168.4 222.5,137.2 230.9,168.1" fill="rgb(15,22,40)"/><polygon points="301.1,204.9 300.9,207.3 301.6,218.6 301.8,216.3" fill="rgb(255,235,160)"/><polygon points="95.3,201.2 94.6,212.8 97.4,215.2 98.1,203.6" fill="rgb(255,100,110)"/><polygon points="301.9,241.2 304.8,217.0 86.6,226.5 116.3,248.0" fill="rgb(23,6,9)"/><polygon points="299.2,195.6 301.5,163.9 304.8,217.0 301.9,241.2" fill="rgb(119,31,39)"/><polygon points="125.0,175.3 127.0,175.2 150.4,141.2 148.4,141.3" fill="rgb(35,10,18)"/><polygon points="303.1,210.3 302.1,219.6 302.7,229.4 303.7,220.5" fill="rgb(18,18,22)"/><polygon points="246.4,168.4 125.0,175.4 148.9,142.2 222.5,137.2" fill="rgb(70,97,141)"/><polygon points="244.2,168.4 246.3,168.3 222.2,136.3 220.1,136.4" fill="rgb(35,10,18)"/><polygon points="115.4,210.5 109.2,213.0 112.6,216.0 118.7,213.5" fill="rgb(14,14,18)"/><polygon points="109.2,213.0 103.9,217.4 107.4,220.3 112.6,216.0" fill="rgb(14,14,17)"/><polygon points="302.4,190.6 302.2,193.4 302.9,205.6 303.2,202.9" fill="rgb(255,235,160)"/><polygon points="121.9,210.1 115.4,210.5 118.7,213.5 125.1,213.2" fill="rgb(14,14,17)"/><polygon points="103.9,217.4 100.3,223.2 103.9,226.0 107.4,220.3" fill="rgb(13,13,16)"/><polygon points="138.5,237.4 135.0,243.2 129.7,247.7 123.5,250.2 116.9,250.4 110.9,248.4 106.1,244.3 103.2,238.8 102.5,232.4 103.9,226.0 107.4,220.3 112.6,216.0 118.7,213.5 125.1,213.2 131.1,215.1 135.9,219.0 138.9,224.5 139.8,230.9" fill="rgb(18,18,22)"/><polygon points="128.0,212.1 121.9,210.1 125.1,213.2 131.1,215.1" fill="rgb(13,13,16)"/><polygon points="100.3,223.2 98.8,229.7 102.5,232.4 103.9,226.0" fill="rgb(11,11,14)"/><polygon points="132.9,216.0 128.0,212.1 131.1,215.1 135.9,219.0" fill="rgb(11,11,13)"/><polygon points="98.8,229.7 99.6,236.1 103.2,238.8 102.5,232.4" fill="rgb(9,9,11)"/><polygon points="136.0,221.6 132.9,216.0 135.9,219.0 138.9,224.5" fill="rgb(9,9,11)"/><polygon points="99.6,236.1 102.5,241.8 106.1,244.3 103.2,238.8" fill="rgb(9,9,11)"/><polygon points="301.5,163.9 89.9,176.3 86.6,226.5 304.8,217.0" fill="rgb(184,47,60)"/><polygon points="136.9,228.1 136.0,221.6 138.9,224.5 139.8,230.9" fill="rgb(9,9,11)"/><polygon points="102.5,241.8 107.4,245.9 110.9,248.4 106.1,244.3" fill="rgb(11,11,13)"/><polygon points="135.5,234.7 136.9,228.1 139.8,230.9 138.5,237.4" fill="rgb(11,11,14)"/><polygon points="107.4,245.9 113.5,248.0 116.9,250.4 110.9,248.4" fill="rgb(13,13,16)"/><polygon points="136.9,228.1 136.0,221.6 132.9,216.0 128.0,212.1 121.9,210.1 115.4,210.5 109.2,213.0 103.9,217.4 100.3,223.2 98.8,229.7 99.6,236.1 102.5,241.8 107.4,245.9 113.5,248.0 120.2,247.7 126.6,245.2 131.9,240.7 135.5,234.7" fill="rgb(30,30,36)"/><polygon points="131.9,240.7 135.5,234.7 138.5,237.4 135.0,243.2" fill="rgb(13,13,16)"/><polygon points="125.1,228.5 123.9,224.2 120.3,221.7 115.7,221.9 111.9,224.7 110.3,229.1 111.5,233.4 115.0,236.0 119.6,235.8 123.5,232.9" fill="rgb(180,180,190)"/><polygon points="113.5,248.0 120.2,247.7 123.5,250.2 116.9,250.4" fill="rgb(14,14,17)"/><polygon points="126.6,245.2 131.9,240.7 135.0,243.2 129.7,247.7" fill="rgb(14,14,17)"/><polygon points="120.2,247.7 126.6,245.2 129.7,247.7 123.5,250.2" fill="rgb(14,14,18)"/><polygon points="263.7,203.4 257.1,206.0 257.7,209.3 264.1,206.7" fill="rgb(14,14,18)"/><polygon points="257.1,206.0 251.8,210.6 252.5,213.8 257.7,209.3" fill="rgb(14,14,17)"/><polygon points="270.8,203.0 263.7,203.4 264.1,206.7 271.1,206.4" fill="rgb(14,14,17)"/><polygon points="251.8,210.6 248.4,216.6 249.2,219.7 252.5,213.8" fill="rgb(13,13,16)"/><polygon points="287.9,231.5 284.7,237.6 279.4,242.2 272.7,244.8 265.6,245.1 258.8,243.0 253.2,238.7 249.5,233.0 248.1,226.4 249.2,219.7 252.5,213.8 257.7,209.3 264.1,206.7 271.1,206.4 277.8,208.4 283.4,212.4 287.3,218.1 288.8,224.7" fill="rgb(18,18,22)"/><polygon points="277.6,205.0 270.8,203.0 271.1,206.4 277.8,208.4" fill="rgb(13,13,16)"/><polygon points="248.4,216.6 247.3,223.4 248.1,226.4 249.2,219.7" fill="rgb(11,11,14)"/><polygon points="283.4,209.1 277.6,205.0 277.8,208.4 283.4,212.4" fill="rgb(11,11,13)"/><polygon points="247.3,223.4 248.8,230.1 249.5,233.0 248.1,226.4" fill="rgb(9,9,11)"/><polygon points="287.3,214.9 283.4,209.1 283.4,212.4 287.3,218.1" fill="rgb(9,9,11)"/><polygon points="248.8,230.1 252.6,236.0 253.2,238.7 249.5,233.0" fill="rgb(9,9,11)"/><polygon points="288.9,221.6 287.3,214.9 287.3,218.1 288.8,224.7" fill="rgb(9,9,11)"/><polygon points="252.6,236.0 258.2,240.3 258.8,243.0 253.2,238.7" fill="rgb(11,11,13)"/><polygon points="288.0,228.5 288.9,221.6 288.8,224.7 287.9,231.5" fill="rgb(11,11,14)"/><polygon points="258.2,240.3 265.1,242.4 265.6,245.1 258.8,243.0" fill="rgb(13,13,16)"/><polygon points="288.9,221.6 287.3,214.9 283.4,209.1 277.6,205.0 270.8,203.0 263.7,203.4 257.1,206.0 251.8,210.6 248.4,216.6 247.3,223.4 248.8,230.1 252.6,236.0 258.2,240.3 265.1,242.4 272.4,242.2 279.2,239.5 284.6,234.8 288.0,228.5" fill="rgb(30,30,36)"/><polygon points="284.6,234.8 288.0,228.5 287.9,231.5 284.7,237.6" fill="rgb(13,13,16)"/><polygon points="276.1,222.1 274.3,217.6 270.2,215.0 265.2,215.2 261.3,218.2 259.9,222.8 261.6,227.2 265.8,229.9 270.8,229.7 274.7,226.7" fill="rgb(180,180,190)"/><polygon points="265.1,242.4 272.4,242.2 272.7,244.8 265.6,245.1" fill="rgb(14,14,17)"/><polygon points="279.2,239.5 284.6,234.8 284.7,237.6 279.4,242.2" fill="rgb(14,14,17)"/><polygon points="272.4,242.2 279.2,239.5 279.4,242.2 272.7,244.8" fill="rgb(14,14,18)"/></svg>