<svg xmlns="http://www.w3.org/2000/svg" viewBox="0 0 400 400"><rect width="400" height="400" fill="#0f1020"/><rect x="0" y="250" width="400" height="150" fill="#0a0b17"/><ellipse cx="200" cy="262" rx="120" ry="16" fill="rgba(0,0,0,0.45)"/><polygon points="205.3,230.8 205.3,240.6 211.7,240.1 211.7,230.3" fill="rgb(255,100,110)"/><polygon points="190.2,216.9 263.3,210.1 264.9,252.2 190.0,257.3" fill="rgb(131,22,35)"/><polygon points="241.2,227.8 241.4,237.8 248.2,237.3 247.9,227.3" fill="rgb(255,100,110)"/><polygon points="181.7,254.0 181.9,259.4 190.1,258.9 189.8,253.5" fill="rgb(14,14,18)"/><polygon points="180.8,248.9 181.7,254.0 189.8,253.5 188.9,248.3" fill="rgb(11,11,14)"/><polygon points="181.9,259.4 181.6,264.5 189.7,263.9 190.1,258.9" fill="rgb(17,17,20)"/><polygon points="179.4,244.6 180.8,248.9 188.9,248.3 187.6,244.0" fill="rgb(8,8,10)"/><polygon points="181.6,264.5 180.6,268.6 188.8,268.1 189.7,263.9" fill="rgb(18,18,22)"/><polygon points="177.7,241.7 179.4,244.6 187.6,244.0 185.9,241.0" fill="rgb(11,11,13)"/><polygon points="182.9,208.7 182.3,208.2 176.1,174.0 176.7,174.6" fill="rgb(35,10,18)"/><polygon points="180.6,268.6 179.1,271.4 187.4,270.9 188.8,268.1" fill="rgb(18,18,22)"/><polygon points="175.8,240.4 177.7,241.7 185.9,241.0 184.1,239.8" fill="rgb(14,14,17)"/><polygon points="174.1,255.1 174.5,251.7 175.7,250.2 177.0,251.0 178.1,253.8 178.4,257.6 178.0,260.9 176.9,262.5 175.5,261.8 174.4,258.9" fill="rgb(180,180,190)"/><polygon points="170.8,253.0 171.2,247.8 172.3,243.6 173.9,241.1 175.8,240.4 177.7,241.7 179.4,244.6 180.8,248.9 181.7,254.0 181.9,259.4 181.6,264.5 180.6,268.6 179.1,271.4 177.3,272.3 175.3,271.4 173.5,268.5 172.0,264.1 171.0,258.7" fill="rgb(30,30,36)"/><polygon points="179.1,271.4 177.3,272.3 185.7,271.8 187.4,270.9" fill="rgb(16,16,20)"/><polygon points="173.9,241.1 175.8,240.4 184.1,239.8 182.3,240.4" fill="rgb(16,16,20)"/><polygon points="179.6,258.2 180.5,263.6 182.0,268.0 183.8,270.9 185.7,271.8 187.4,270.9 188.8,268.1 189.7,263.9 190.1,258.9 189.8,253.5 188.9,248.3 187.6,244.0 185.9,241.0 184.1,239.8 182.3,240.4 180.8,243.0 179.7,247.1 179.3,252.4" fill="rgb(18,18,22)"/><polygon points="254.6,201.7 247.5,166.2 178.4,174.4 183.1,208.7" fill="rgb(18,27,49)"/><polygon points="177.3,272.3 175.3,271.4 183.8,270.9 185.7,271.8" fill="rgb(14,14,17)"/><polygon points="172.3,243.6 173.9,241.1 182.3,240.4 180.8,243.0" fill="rgb(18,18,22)"/><polygon points="266.7,248.0 267.1,253.7 258.2,254.3 257.8,248.7" fill="rgb(14,14,18)"/><polygon points="266.0,242.6 266.7,248.0 257.8,248.7 257.1,243.3" fill="rgb(11,11,14)"/><polygon points="175.3,271.4 173.5,268.5 182.0,268.0 183.8,270.9" fill="rgb(11,11,13)"/><polygon points="171.2,247.8 172.3,243.6 180.8,243.0 179.7,247.1" fill="rgb(18,18,22)"/><polygon points="267.1,253.7 267.1,259.0 258.2,259.5 258.2,254.3" fill="rgb(17,17,20)"/><polygon points="265.0,238.1 266.0,242.6 257.1,243.3 256.0,238.8" fill="rgb(8,8,10)"/><polygon points="173.5,268.5 172.0,264.1 180.5,263.6 182.0,268.0" fill="rgb(8,8,10)"/><polygon points="170.8,253.0 171.2,247.8 179.7,247.1 179.3,252.4" fill="rgb(17,17,20)"/><polygon points="267.1,259.0 266.8,263.3 257.7,263.8 258.2,259.5" fill="rgb(18,18,22)"/><polygon points="263.9,234.9 265.0,238.1 256.0,238.8 254.8,235.6" fill="rgb(11,11,13)"/><polygon points="172.0,264.1 171.0,258.7 179.6,258.2 180.5,263.6" fill="rgb(11,11,14)"/><polygon points="171.0,258.7 170.8,253.0 179.3,252.4 179.6,258.2" fill="rgb(14,14,18)"/><polygon points="254.7,201.7 254.4,201.2 249.0,165.3 249.4,166.0" fill="rgb(35,10,18)"/><polygon points="266.8,263.3 266.0,266.1 256.9,266.7 257.7,263.8" fill="rgb(18,18,22)"/><polygon points="262.7,233.6 263.9,234.9 254.8,235.6 253.6,234.3" fill="rgb(14,14,17)"/><polygon points="251.5,253.3 252.3,258.9 253.4,263.6 254.6,266.6 255.9,267.6 256.9,266.7 257.7,263.8 258.2,259.5 258.2,254.3 257.8,248.7 257.1,243.3 256.0,238.8 254.8,235.6 253.6,234.3 252.5,234.9 251.6,237.5 251.1,241.8 251.1,247.3" fill="rgb(18,18,22)"/><polygon points="266.0,266.1 265.1,267.1 255.9,267.6 256.9,266.7" fill="rgb(16,16,20)"/><polygon points="261.7,234.2 262.7,233.6 253.6,234.3 252.5,234.9" fill="rgb(16,16,20)"/><polygon points="260.5,246.6 260.5,241.1 260.9,236.8 261.7,234.2 262.7,233.6 263.9,234.9 265.0,238.1 266.0,242.6 266.7,248.0 267.1,253.7 267.1,259.0 266.8,263.3 266.0,266.1 265.1,267.1 263.9,266.0 262.7,263.0 261.7,258.3 260.9,252.6" fill="rgb(30,30,36)"/><polygon points="262.9,248.8 263.0,245.3 263.5,243.7 264.3,244.6 265.0,247.6 265.4,251.6 265.3,255.1 264.8,256.7 264.0,255.9 263.2,252.9" fill="rgb(180,180,190)"/><polygon points="265.1,267.1 263.9,266.0 254.6,266.6 255.9,267.6" fill="rgb(14,14,17)"/><polygon points="260.9,236.8 261.7,234.2 252.5,234.9 251.6,237.5" fill="rgb(18,18,22)"/><polygon points="141.7,174.1 183.1,208.7 178.4,174.4 153.6,149.9" fill="rgb(40,56,81)"/><polygon points="263.9,266.0 262.7,263.0 253.4,263.6 254.6,266.6" fill="rgb(11,11,13)"/><polygon points="260.5,241.1 260.9,236.8 251.6,237.5 251.1,241.8" fill="rgb(18,18,22)"/><polygon points="262.7,263.0 261.7,258.3 252.3,258.9 253.4,263.6" fill="rgb(8,8,10)"/><polygon points="230.6,139.4 153.6,149.9 178.4,174.4 247.5,166.2" fill="rgb(93,19,31)"/><polygon points="260.5,246.6 260.5,241.1 251.1,241.8 251.1,247.3" fill="rgb(17,17,20)"/><polygon points="261.7,258.3 260.9,252.6 251.5,253.3 252.3,258.9" fill="rgb(11,11,14)"/><polygon points="260.9,252.6 260.5,246.6 251.1,247.3 251.5,253.3" fill="rgb(14,14,18)"/><polygon points="114.8,154.6 190.2,216.9 190.0,257.3 111.9,209.9" fill="rgb(104,27,34)"/><polygon points="227.1,163.7 230.6,139.4 247.5,166.2 254.6,201.7" fill="rgb(37,51,74)"/><polygon points="214.6,141.1 263.3,210.1 190.2,216.9 114.8,154.6" fill="rgb(190,85,93)"/><polygon points="215.1,199.4 111.9,209.9 190.0,257.3 264.9,252.2" fill="rgb(23,6,9)"/><polygon points="142.4,174.9 141.5,174.2 151.7,150.1 152.5,150.9" fill="rgb(35,10,18)"/><polygon points="214.6,141.1 215.1,199.4 264.9,252.2 263.3,210.1" fill="rgb(104,27,34)"/><polygon points="227.1,163.7 141.7,174.1 153.6,149.9 230.6,139.4" fill="rgb(30,45,80)"/><polygon points="227.9,164.5 227.3,163.7 232.7,139.1 233.2,140.0" fill="rgb(35,10,18)"/><polygon points="131.6,224.0 131.8,230.8 141.7,229.9 141.5,223.1" fill="rgb(14,14,18)"/><polygon points="130.3,217.5 131.6,224.0 141.5,223.1 140.3,216.6" fill="rgb(11,11,14)"/><polygon points="131.8,230.8 131.0,236.9 141.0,236.1 141.7,229.9" fill="rgb(17,17,20)"/><polygon points="128.3,211.9 130.3,217.5 140.3,216.6 138.3,210.9" fill="rgb(8,8,10)"/><polygon points="131.0,236.9 129.3,241.9 139.4,241.1 141.0,236.1" fill="rgb(18,18,22)"/><polygon points="125.6,207.9 128.3,211.9 138.3,210.9 135.6,206.8" fill="rgb(11,11,13)"/><polygon points="129.3,241.9 126.9,245.1 137.0,244.3 139.4,241.1" fill="rgb(18,18,22)"/><polygon points="122.5,205.9 125.6,207.9 135.6,206.8 132.7,204.8" fill="rgb(14,14,17)"/><polygon points="119.3,223.8 120.2,219.7 122.1,218.0 124.3,219.3 125.8,223.0 126.3,227.8 125.5,231.8 123.6,233.6 121.5,232.5 119.8,228.7" fill="rgb(180,180,190)"/><polygon points="113.9,220.5 114.8,214.0 116.8,209.1 119.4,206.3 122.5,205.9 125.6,207.9 128.3,211.9 130.3,217.5 131.6,224.0 131.8,230.8 131.0,236.9 129.3,241.9 126.9,245.1 123.9,246.0 120.7,244.4 117.8,240.5 115.5,234.7 114.1,227.7" fill="rgb(30,30,36)"/><polygon points="126.9,245.1 123.9,246.0 134.2,245.2 137.0,244.3" fill="rgb(16,16,20)"/><polygon points="119.4,206.3 122.5,205.9 132.7,204.8 129.7,205.2" fill="rgb(16,16,20)"/><polygon points="124.7,226.8 126.0,233.8 128.3,239.6 131.1,243.6 134.2,245.2 137.0,244.3 139.4,241.1 141.0,236.1 141.7,229.9 141.5,223.1 140.3,216.6 138.3,210.9 135.6,206.8 132.7,204.8 129.7,205.2 127.2,208.0 125.3,213.0 124.5,219.5" fill="rgb(18,18,22)"/><polygon points="123.9,246.0 120.7,244.4 131.1,243.6 134.2,245.2" fill="rgb(14,14,17)"/><polygon points="116.8,209.1 119.4,206.3 129.7,205.2 127.2,208.0" fill="rgb(18,18,22)"/><polygon points="236.6,214.4 237.0,221.6 225.9,222.5 225.5,215.5" fill="rgb(14,14,18)"/><polygon points="235.5,207.5 236.6,214.4 225.5,215.5 224.4,208.5" fill="rgb(11,11,14)"/><polygon points="120.7,244.4 117.8,240.5 128.3,239.6 131.1,243.6" fill="rgb(11,11,13)"/><polygon points="114.8,214.0 116.8,209.1 127.2,208.0 125.3,213.0" fill="rgb(18,18,22)"/><polygon points="237.0,221.6 236.9,228.1 225.7,229.1 225.9,222.5" fill="rgb(17,17,20)"/><polygon points="234.1,201.4 235.5,207.5 224.4,208.5 222.9,202.5" fill="rgb(8,8,10)"/><polygon points="117.8,240.5 115.5,234.7 126.0,233.8 128.3,239.6" fill="rgb(8,8,10)"/><polygon points="113.9,220.5 114.8,214.0 125.3,213.0 124.5,219.5" fill="rgb(17,17,20)"/><polygon points="236.9,228.1 236.1,233.3 224.8,234.2 225.7,229.1" fill="rgb(18,18,22)"/><polygon points="232.3,197.0 234.1,201.4 222.9,202.5 221.0,198.1" fill="rgb(11,11,13)"/><polygon points="115.5,234.7 114.1,227.7 124.7,226.8 126.0,233.8" fill="rgb(11,11,14)"/><polygon points="114.1,227.7 113.9,220.5 124.5,219.5 124.7,226.8" fill="rgb(14,14,18)"/><polygon points="236.1,233.3 234.8,236.6 223.4,237.5 224.8,234.2" fill="rgb(18,18,22)"/><polygon points="230.4,194.7 232.3,197.0 221.0,198.1 219.0,195.9" fill="rgb(14,14,17)"/><polygon points="214.6,218.7 215.7,226.1 217.4,232.4 219.4,236.6 221.5,238.3 223.4,237.5 224.8,234.2 225.7,229.1 225.9,222.5 225.5,215.5 224.4,208.5 222.9,202.5 221.0,198.1 219.0,195.9 217.1,196.2 215.5,199.0 214.5,204.2 214.2,211.0" fill="rgb(18,18,22)"/><polygon points="234.8,236.6 233.1,237.4 221.5,238.3 223.4,237.5" fill="rgb(16,16,20)"/><polygon points="228.7,195.0 230.4,194.7 219.0,195.9 217.1,196.2" fill="rgb(16,16,20)"/><polygon points="133.9,172.6 142.6,171.5 142.1,185.0 133.4,186.0" fill="rgb(255,235,160)"/><polygon points="226.1,209.9 226.3,203.0 227.2,197.8 228.7,195.0 230.4,194.7 232.3,197.0 234.1,201.4 235.5,207.5 236.6,214.4 237.0,221.6 236.9,228.1 236.1,233.3 234.8,236.6 233.1,237.4 231.2,235.7 229.3,231.4 227.7,225.1 226.6,217.6" fill="rgb(30,30,36)"/><polygon points="230.0,213.6 230.3,209.3 231.3,207.6 232.6,209.1 233.7,213.1 234.2,218.2 233.9,222.4 232.9,224.3 231.6,222.9 230.5,218.9" fill="rgb(180,180,190)"/><polygon points="233.1,237.4 231.2,235.7 219.4,236.6 221.5,238.3" fill="rgb(14,14,17)"/><polygon points="227.2,197.8 228.7,195.0 217.1,196.2 215.5,199.0" fill="rgb(18,18,22)"/><polygon points="214.6,141.1 114.8,154.6 111.9,209.9 215.1,199.4" fill="rgb(188,48,61)"/><polygon points="231.2,235.7 229.3,231.4 217.4,232.4 219.4,236.6" fill="rgb(11,11,13)"/><polygon points="226.3,203.0 227.2,197.8 215.5,199.0 214.5,204.2" fill="rgb(18,18,22)"/><polygon points="144.2,189.3 180.5,185.2 180.4,196.9 143.8,200.7" fill="rgb(18,18,22)"/><polygon points="183.0,166.5 192.3,165.4 192.2,179.2 182.9,180.3" fill="rgb(255,235,160)"/><polygon points="229.3,231.4 227.7,225.1 215.7,226.1 217.4,232.4" fill="rgb(8,8,10)"/><polygon points="226.1,209.9 226.3,203.0 214.5,204.2 214.2,211.0" fill="rgb(17,17,20)"/><polygon points="227.7,225.1 226.6,217.6 214.6,218.7 215.7,226.1" fill="rgb(11,11,14)"/><polygon points="226.6,217.6 226.1,209.9 214.2,211.0 214.6,218.7" fill="rgb(14,14,18)"/></svg>