<svg xmlns="http://www.w3.org/2000/svg" viewBox="0 0 400 400"><rect width="400" height="400" fill="#0f1020"/><rect x="0" y="250" width="400" height="150" fill="#0a0b17"/><ellipse cx="200" cy="262" rx="120" ry="16" fill="rgba(0,0,0,0.45)"/><polygon points="244.2,227.4 238.6,228.6 238.9,238.5 244.4,237.4" fill="rgb(255,235,160)"/><polygon points="214.7,254.2 213.0,249.2 219.7,247.9 221.5,253.0" fill="rgb(11,11,14)"/><polygon points="215.3,259.5 214.7,254.2 221.5,253.0 222.1,258.4" fill="rgb(14,14,18)"/><polygon points="213.0,249.2 210.3,245.1 217.1,243.8 219.7,247.9" fill="rgb(8,8,10)"/><polygon points="214.8,264.6 215.3,259.5 222.1,258.4 221.6,263.5" fill="rgb(17,17,20)"/><polygon points="210.3,245.1 207.1,242.4 213.8,241.0 217.1,243.8" fill="rgb(11,11,13)"/><polygon points="213.1,268.8 214.8,264.6 221.6,263.5 219.9,267.8" fill="rgb(18,18,22)"/><polygon points="207.1,242.4 203.6,241.4 210.4,240.0 213.8,241.0" fill="rgb(14,14,17)"/><polygon points="210.5,271.7 213.1,268.8 219.9,267.8 217.3,270.7" fill="rgb(18,18,22)"/><polygon points="225.4,216.0 290.1,200.9 292.5,245.2 226.1,256.6" fill="rgb(186,48,60)"/><polygon points="209.1,258.1 208.4,254.4 206.4,251.7 204.0,251.1 202.0,252.7 201.2,256.1 202.0,259.9 204.0,262.6 206.4,263.1 208.4,261.4" fill="rgb(180,180,190)"/><polygon points="215.3,259.5 214.7,254.2 213.0,249.2 210.3,245.1 207.1,242.4 203.6,241.4 200.3,242.3 197.5,245.0 195.7,249.2 195.0,254.5 195.6,260.1 197.5,265.3 200.3,269.5 203.7,272.1 207.2,272.9 210.5,271.7 213.1,268.8 214.8,264.6" fill="rgb(30,30,36)"/><polygon points="203.6,241.4 200.3,242.3 207.0,240.9 210.4,240.0" fill="rgb(16,16,20)"/><polygon points="269.3,236.0 245.9,240.5 246.2,249.0 269.7,244.8" fill="rgb(18,18,22)"/><polygon points="207.2,272.9 210.5,271.7 217.3,270.7 214.1,271.8" fill="rgb(16,16,20)"/><polygon points="199.2,205.6 200.3,206.0 187.7,172.6 186.5,172.1" fill="rgb(35,10,18)"/><polygon points="221.6,263.5 219.9,267.8 217.3,270.7 214.1,271.8 210.5,271.1 207.2,268.4 204.4,264.2 202.5,258.9 201.9,253.2 202.5,247.9 204.3,243.7 207.0,240.9 210.4,240.0 213.8,241.0 217.1,243.8 219.7,247.9 221.5,253.0 222.1,258.4" fill="rgb(18,18,22)"/><polygon points="200.3,242.3 197.5,245.0 204.3,243.7 207.0,240.9" fill="rgb(18,18,22)"/><polygon points="203.7,272.1 207.2,272.9 214.1,271.8 210.5,271.1" fill="rgb(14,14,17)"/><polygon points="197.5,245.0 195.7,249.2 202.5,247.9 204.3,243.7" fill="rgb(18,18,22)"/><polygon points="276.3,220.6 270.3,221.9 270.7,232.3 276.8,231.1" fill="rgb(255,235,160)"/><polygon points="200.3,269.5 203.7,272.1 210.5,271.1 207.2,268.4" fill="rgb(11,11,13)"/><polygon points="195.7,249.2 195.0,254.5 201.9,253.2 202.5,247.9" fill="rgb(17,17,20)"/><polygon points="197.5,265.3 200.3,269.5 207.2,268.4 204.4,264.2" fill="rgb(8,8,10)"/><polygon points="195.0,254.5 195.6,260.1 202.5,258.9 201.9,253.2" fill="rgb(14,14,18)"/><polygon points="195.6,260.1 197.5,265.3 204.4,264.2 202.5,258.9" fill="rgb(11,11,14)"/><polygon points="200.5,206.0 262.3,190.0 247.4,153.7 189.1,172.2" fill="rgb(18,27,48)"/><polygon points="200.5,206.0 189.1,172.2 142.2,152.6 123.1,178.5" fill="rgb(41,56,82)"/><polygon points="225.4,216.0 226.1,256.6 89.8,221.2 93.2,169.4" fill="rgb(115,29,37)"/><polygon points="289.1,240.9 287.3,235.3 279.1,236.8 280.9,242.3" fill="rgb(11,11,14)"/><polygon points="290.0,246.8 289.1,240.9 280.9,242.3 281.7,248.2" fill="rgb(14,14,18)"/><polygon points="287.3,235.3 284.7,230.7 276.5,232.2 279.1,236.8" fill="rgb(8,8,10)"/><polygon points="289.7,252.4 290.0,246.8 281.7,248.2 281.5,253.7" fill="rgb(17,17,20)"/><polygon points="284.7,230.7 281.5,227.5 273.3,229.2 276.5,232.2" fill="rgb(11,11,13)"/><polygon points="288.4,257.0 289.7,252.4 281.5,253.7 280.1,258.3" fill="rgb(18,18,22)"/><polygon points="281.5,227.5 278.3,226.3 270.0,228.0 273.3,229.2" fill="rgb(14,14,17)"/><polygon points="286.1,260.2 288.4,257.0 280.1,258.3 277.8,261.4" fill="rgb(18,18,22)"/><polygon points="281.5,253.7 280.1,258.3 277.8,261.4 274.8,262.6 271.4,261.7 268.1,258.7 265.3,254.0 263.4,248.2 262.6,242.1 263.0,236.3 264.5,231.7 267.0,228.8 270.0,228.0 273.3,229.2 276.5,232.2 279.1,236.8 280.9,242.3 281.7,248.2" fill="rgb(18,18,22)"/><polygon points="261.4,189.4 262.5,189.9 249.1,153.1 248.0,152.5" fill="rgb(35,10,18)"/><polygon points="278.3,226.3 275.2,227.2 267.0,228.8 270.0,228.0" fill="rgb(16,16,20)"/><polygon points="283.2,261.3 286.1,260.2 277.8,261.4 274.8,262.6" fill="rgb(16,16,20)"/><polygon points="189.1,172.2 247.4,153.7 202.0,130.0 142.2,152.6" fill="rgb(93,19,31)"/><polygon points="290.0,246.8 289.1,240.9 287.3,235.3 284.7,230.7 281.5,227.5 278.3,226.3 275.2,227.2 272.8,230.1 271.3,234.7 271.0,240.5 271.8,246.7 273.8,252.6 276.6,257.4 279.8,260.4 283.2,261.3 286.1,260.2 288.4,257.0 289.7,252.4" fill="rgb(30,30,36)"/><polygon points="284.6,244.9 283.7,240.8 281.8,237.7 279.5,236.9 277.8,238.7 277.2,242.4 278.1,246.7 280.1,249.7 282.4,250.4 284.1,248.6" fill="rgb(180,180,190)"/><polygon points="275.2,227.2 272.8,230.1 264.5,231.7 267.0,228.8" fill="rgb(18,18,22)"/><polygon points="225.4,216.0 93.2,169.4 162.6,143.0 290.1,200.9" fill="rgb(190,85,93)"/><polygon points="279.8,260.4 283.2,261.3 274.8,262.6 271.4,261.7" fill="rgb(14,14,17)"/><polygon points="272.8,230.1 271.3,234.7 263.0,236.3 264.5,231.7" fill="rgb(18,18,22)"/><polygon points="276.6,257.4 279.8,260.4 271.4,261.7 268.1,258.7" fill="rgb(11,11,13)"/><polygon points="271.3,234.7 271.0,240.5 262.6,242.1 263.0,236.3" fill="rgb(17,17,20)"/><polygon points="273.8,252.6 276.6,257.4 268.1,258.7 265.3,254.0" fill="rgb(8,8,10)"/><polygon points="122.9,178.5 124.5,179.1 142.2,153.7 140.7,153.1" fill="rgb(35,10,18)"/><polygon points="271.0,240.5 271.8,246.7 263.4,248.2 262.6,242.1" fill="rgb(14,14,18)"/><polygon points="271.8,246.7 273.8,252.6 265.3,254.0 263.4,248.2" fill="rgb(11,11,14)"/><polygon points="226.1,256.6 292.5,245.2 161.2,200.9 89.8,221.2" fill="rgb(23,6,9)"/><polygon points="127.0,231.4 124.8,225.4 131.8,223.6 133.9,229.7" fill="rgb(11,11,14)"/><polygon points="127.5,237.8 127.0,231.4 133.9,229.7 134.5,236.1" fill="rgb(14,14,18)"/><polygon points="124.8,225.4 121.2,220.4 128.2,218.6 131.8,223.6" fill="rgb(8,8,10)"/><polygon points="126.4,243.7 127.5,237.8 134.5,236.1 133.5,242.2" fill="rgb(17,17,20)"/><polygon points="262.3,190.0 187.5,156.4 202.0,130.0 247.4,153.7" fill="rgb(44,61,89)"/><polygon points="121.2,220.4 116.7,217.0 123.6,215.1 128.2,218.6" fill="rgb(11,11,13)"/><polygon points="123.7,248.7 126.4,243.7 133.5,242.2 130.8,247.1" fill="rgb(18,18,22)"/><polygon points="116.7,217.0 111.7,215.6 118.6,213.6 123.6,215.1" fill="rgb(14,14,17)"/><polygon points="119.8,251.9 123.7,248.7 130.8,247.1 126.8,250.4" fill="rgb(18,18,22)"/><polygon points="118.7,235.7 117.8,231.3 115.2,228.0 111.7,227.1 108.6,228.9 107.3,232.9 108.2,237.4 110.9,240.7 114.5,241.5 117.4,239.6" fill="rgb(180,180,190)"/><polygon points="127.5,237.8 127.0,231.4 124.8,225.4 121.2,220.4 116.7,217.0 111.7,215.6 106.7,216.4 102.5,219.4 99.5,224.3 98.2,230.5 98.8,237.2 101.1,243.6 105.0,248.7 109.8,252.0 114.9,253.1 119.8,251.9 123.7,248.7 126.4,243.7" fill="rgb(30,30,36)"/><polygon points="123.1,178.5 142.2,152.6 202.0,130.0 187.5,156.4" fill="rgb(30,44,79)"/><polygon points="290.1,200.9 162.6,143.0 161.2,200.9 292.5,245.2" fill="rgb(115,29,37)"/><polygon points="111.7,215.6 106.7,216.4 113.7,214.4 118.6,213.6" fill="rgb(16,16,20)"/><polygon points="114.9,253.1 119.8,251.9 126.8,250.4 122.0,251.6" fill="rgb(16,16,20)"/><polygon points="133.5,242.2 130.8,247.1 126.8,250.4 122.0,251.6 116.8,250.5 112.0,247.1 108.2,241.9 105.8,235.5 105.3,228.7 106.5,222.4 109.5,217.5 113.7,214.4 118.6,213.6 123.6,215.1 128.2,218.6 131.8,223.6 133.9,229.7 134.5,236.1" fill="rgb(18,18,22)"/><polygon points="106.7,216.4 102.5,219.4 109.5,217.5 113.7,214.4" fill="rgb(18,18,22)"/><polygon points="109.8,252.0 114.9,253.1 122.0,251.6 116.8,250.5" fill="rgb(14,14,17)"/><polygon points="102.5,219.4 99.5,224.3 106.5,222.4 109.5,217.5" fill="rgb(18,18,22)"/><polygon points="105.0,248.7 109.8,252.0 116.8,250.5 112.0,247.1" fill="rgb(11,11,13)"/><polygon points="99.5,224.3 98.2,230.5 105.3,228.7 106.5,222.4" fill="rgb(17,17,20)"/><polygon points="101.1,243.6 105.0,248.7 112.0,247.1 108.2,241.9" fill="rgb(8,8,10)"/><polygon points="98.2,230.5 98.8,237.2 105.8,235.5 105.3,228.7" fill="rgb(14,14,18)"/><polygon points="98.8,237.2 101.1,243.6 108.2,241.9 105.8,235.5" fill="rgb(11,11,14)"/><polygon points="187.6,156.3 189.2,157.0 205.1,130.1 203.7,129.4" fill="rgb(35,10,18)"/><polygon points="110.9,182.0 110.2,194.8 104.3,196.7 105.1,184.0" fill="rgb(255,100,110)"/><polygon points="205.7,212.0 203.3,205.1 194.5,207.4 196.8,214.2" fill="rgb(11,11,14)"/><polygon points="206.5,219.2 205.7,212.0 196.8,214.2 197.6,221.3" fill="rgb(14,14,18)"/><polygon points="162.6,143.0 93.2,169.4 89.8,221.2 161.2,200.9" fill="rgb(130,22,35)"/><polygon points="203.3,205.1 199.7,199.3 190.8,201.7 194.5,207.4" fill="rgb(8,8,10)"/><polygon points="205.7,225.9 206.5,219.2 197.6,221.3 196.8,227.9" fill="rgb(17,17,20)"/><polygon points="199.7,199.3 195.1,195.2 186.3,197.7 190.8,201.7" fill="rgb(11,11,13)"/><polygon points="203.3,231.3 205.7,225.9 196.8,227.9 194.4,233.3" fill="rgb(18,18,22)"/><polygon points="195.1,195.2 190.2,193.4 181.4,195.9 186.3,197.7" fill="rgb(14,14,17)"/><polygon points="199.6,234.9 203.3,231.3 194.4,233.3 190.6,236.8" fill="rgb(18,18,22)"/><polygon points="196.8,227.9 194.4,233.3 190.6,236.8 186.0,238.0 180.9,236.6 176.1,232.7 172.1,226.8 169.6,219.6 168.8,212.0 169.8,205.1 172.6,199.8 176.6,196.6 181.4,195.9 186.3,197.7 190.8,201.7 194.5,207.4 196.8,214.2 197.6,221.3" fill="rgb(18,18,22)"/><polygon points="190.2,193.4 185.5,194.1 176.6,196.6 181.4,195.9" fill="rgb(16,16,20)"/><polygon points="145.5,170.0 145.0,183.6 138.4,185.7 138.9,172.3" fill="rgb(255,100,110)"/><polygon points="195.0,236.0 199.6,234.9 190.6,236.8 186.0,238.0" fill="rgb(16,16,20)"/><polygon points="206.5,219.2 205.7,212.0 203.3,205.1 199.7,199.3 195.1,195.2 190.2,193.4 185.5,194.1 181.5,197.3 178.8,202.7 177.8,209.7 178.6,217.3 181.2,224.6 185.1,230.6 190.0,234.6 195.0,236.0 199.6,234.9 203.3,231.3 205.7,225.9" fill="rgb(30,30,36)"/><polygon points="198.4,216.3 197.3,211.3 194.6,207.4 191.2,206.2 188.3,208.2 187.2,212.6 188.3,217.8 191.1,221.7 194.5,222.8 197.3,220.7" fill="rgb(180,180,190)"/><polygon points="185.5,194.1 181.5,197.3 172.6,199.8 176.6,196.6" fill="rgb(18,18,22)"/><polygon points="190.0,234.6 195.0,236.0 186.0,238.0 180.9,236.6" fill="rgb(14,14,17)"/><polygon points="181.5,197.3 178.8,202.7 169.8,205.1 172.6,199.8" fill="rgb(18,18,22)"/><polygon points="185.1,230.6 190.0,234.6 180.9,236.6 176.1,232.7" fill="rgb(11,11,13)"/><polygon points="178.8,202.7 177.8,209.7 168.8,212.0 169.8,205.1" fill="rgb(17,17,20)"/><polygon points="181.2,224.6 185.1,230.6 176.1,232.7 172.1,226.8" fill="rgb(8,8,10)"/><polygon points="177.8,209.7 178.6,217.3 169.6,219.6 168.8,212.0" fill="rgb(14,14,18)"/><polygon points="178.6,217.3 181.2,224.6 172.1,226.8 169.6,219.6" fill="rgb(11,11,14)"/></svg>