<svg xmlns="http://www.w3.org/2000/svg" viewBox="0 0 400 400"><rect width="400" height="400" fill="#0f1020"/><rect x="0" y="250" width="400" height="150" fill="#0a0b17"/><ellipse cx="200" cy="262" rx="120" ry="16" fill="rgba(0,0,0,0.45)"/><polygon points="260.5,199.5 258.6,199.5 237.8,170.5 239.6,170.5" fill="rgb(35,10,18)"/><polygon points="156.0,199.5 154.2,199.5 174.8,170.5 176.6,170.5" fill="rgb(35,10,18)"/><polygon points="154.2,199.5 260.5,199.5 239.7,169.8 174.7,169.8" fill="rgb(65,89,130)"/><polygon points="108.8,200.3 291.2,200.3 293.6,244.8 106.4,244.8" fill="rgb(179,46,58)"/><polygon points="259.8,234.4 265.6,234.4 266.7,232.1 260.8,232.1" fill="rgb(14,14,17)"/><polygon points="134.4,234.4 140.2,234.4 139.2,232.1 133.3,232.1" fill="rgb(14,14,17)"/><polygon points="256.7,250.5 257.8,246.7 261.0,244.4 265.0,244.4 268.4,246.7 269.7,250.5 268.7,254.2 265.5,256.6 261.4,256.6 258.1,254.2" fill="rgb(180,180,190)"/><polygon points="130.3,250.5 131.6,246.7 135.0,244.4 139.0,244.4 142.2,246.7 143.3,250.5 141.9,254.2 138.6,256.6 134.5,256.6 131.3,254.2" fill="rgb(180,180,190)"/><polygon points="254.4,236.3 259.8,234.4 260.8,232.1 255.4,234.0" fill="rgb(15,15,18)"/><polygon points="265.6,234.4 271.1,236.3 272.3,234.0 266.7,232.1" fill="rgb(12,12,15)"/><polygon points="128.9,236.3 134.4,234.4 133.3,232.1 127.7,234.0" fill="rgb(15,15,18)"/><polygon points="140.2,234.4 145.6,236.3 144.6,234.0 139.2,232.1" fill="rgb(12,12,15)"/><polygon points="246.5,250.4 247.4,244.8 250.1,239.9 254.4,236.3 259.8,234.4 265.6,234.4 271.1,236.3 275.6,239.9 278.7,244.8 280.0,250.4 279.3,256.0 276.6,261.0 272.2,264.7 266.8,266.7 260.9,266.7 255.3,264.7 250.7,261.0 247.7,256.0" fill="rgb(30,30,36)"/><polygon points="120.0,250.4 121.3,244.8 124.4,239.9 128.9,236.3 134.4,234.4 140.2,234.4 145.6,236.3 149.9,239.9 152.6,244.8 153.5,250.4 152.3,256.0 149.3,261.0 144.7,264.7 139.1,266.7 133.2,266.7 127.8,264.7 123.4,261.0 120.7,256.0" fill="rgb(30,30,36)"/><polygon points="271.1,236.3 275.6,239.9 276.9,237.7 272.3,234.0" fill="rgb(10,10,12)"/><polygon points="250.1,239.9 254.4,236.3 255.4,234.0 251.0,237.7" fill="rgb(15,15,18)"/><polygon points="124.4,239.9 128.9,236.3 127.7,234.0 123.1,237.7" fill="rgb(15,15,18)"/><polygon points="145.6,236.3 149.9,239.9 149.0,237.7 144.6,234.0" fill="rgb(10,10,12)"/><polygon points="247.4,244.8 250.1,239.9 251.0,237.7 248.2,242.6" fill="rgb(14,14,17)"/><polygon points="275.6,239.9 278.7,244.8 280.1,242.6 276.9,237.7" fill="rgb(8,8,9)"/><polygon points="149.9,239.9 152.6,244.8 151.8,242.6 149.0,237.7" fill="rgb(8,8,9)"/><polygon points="121.3,244.8 124.4,239.9 123.1,237.7 119.9,242.6" fill="rgb(14,14,17)"/><polygon points="278.7,244.8 280.0,250.4 281.4,248.3 280.1,242.6" fill="rgb(10,10,12)"/><polygon points="246.5,250.4 247.4,244.8 248.2,242.6 247.3,248.3" fill="rgb(12,12,15)"/><polygon points="120.0,250.4 121.3,244.8 119.9,242.6 118.6,248.3" fill="rgb(12,12,15)"/><polygon points="152.6,244.8 153.5,250.4 152.7,248.3 151.8,242.6" fill="rgb(10,10,12)"/><polygon points="280.0,250.4 279.3,256.0 280.6,254.0 281.4,248.3" fill="rgb(12,12,15)"/><polygon points="247.7,256.0 246.5,250.4 247.3,248.3 248.5,254.0" fill="rgb(10,10,12)"/><polygon points="153.5,250.4 152.3,256.0 151.5,254.0 152.7,248.3" fill="rgb(12,12,15)"/><polygon points="120.7,256.0 120.0,250.4 118.6,248.3 119.4,254.0" fill="rgb(10,10,12)"/><polygon points="279.3,256.0 276.6,261.0 277.9,259.1 280.6,254.0" fill="rgb(14,14,17)"/><polygon points="250.7,261.0 247.7,256.0 248.5,254.0 251.6,259.1" fill="rgb(8,8,9)"/><polygon points="152.3,256.0 149.3,261.0 148.4,259.1 151.5,254.0" fill="rgb(14,14,17)"/><polygon points="123.4,261.0 120.7,256.0 119.4,254.0 122.1,259.1" fill="rgb(8,8,9)"/><polygon points="276.6,261.0 272.2,264.7 273.5,262.9 277.9,259.1" fill="rgb(15,15,18)"/><polygon points="255.3,264.7 250.7,261.0 251.6,259.1 256.3,262.9" fill="rgb(10,10,12)"/><polygon points="149.3,261.0 144.7,264.7 143.7,262.9 148.4,259.1" fill="rgb(15,15,18)"/><polygon points="127.8,264.7 123.4,261.0 122.1,259.1 126.5,262.9" fill="rgb(10,10,12)"/><polygon points="248.5,254.0 251.6,259.1 256.3,262.9 262.0,264.9 268.0,264.9 273.5,262.9 277.9,259.1 280.6,254.0 281.4,248.3 280.1,242.6 276.9,237.7 272.3,234.0 266.7,232.1 260.8,232.1 255.4,234.0 251.0,237.7 248.2,242.6 247.3,248.3" fill="rgb(18,18,22)"/><polygon points="119.4,254.0 122.1,259.1 126.5,262.9 132.0,264.9 138.0,264.9 143.7,262.9 148.4,259.1 151.5,254.0 152.7,248.3 151.8,242.6 149.0,237.7 144.6,234.0 139.2,232.1 133.3,232.1 127.7,234.0 123.1,237.7 119.9,242.6 118.6,248.3" fill="rgb(18,18,22)"/><polygon points="272.2,264.7 266.8,266.7 268.0,264.9 273.5,262.9" fill="rgb(15,15,18)"/><polygon points="260.9,266.7 255.3,264.7 256.3,262.9 262.0,264.9" fill="rgb(12,12,15)"/><polygon points="144.7,264.7 139.1,266.7 138.0,264.9 143.7,262.9" fill="rgb(15,15,18)"/><polygon points="133.2,266.7 127.8,264.7 126.5,262.9 132.0,264.9" fill="rgb(12,12,15)"/><polygon points="266.8,266.7 260.9,266.7 262.0,264.9 268.0,264.9" fill="rgb(14,14,17)"/><polygon points="139.1,266.7 133.2,266.7 132.0,264.9 138.0,264.9" fill="rgb(14,14,17)"/><polygon points="295.4,211.9 296.0,222.8 297.4,220.7 296.8,209.6" fill="rgb(255,100,110)"/><polygon points="104.6,211.9 103.2,209.6 102.6,220.7 104.0,222.8" fill="rgb(255,235,160)"/><polygon points="170.8,139.0 174.7,169.8 239.7,169.8 245.8,139.0" fill="rgb(93,19,31)"/><polygon points="270.4,171.3 245.8,139.0 239.7,169.8 260.5,199.5" fill="rgb(13,20,35)"/><polygon points="146.6,171.3 154.2,199.5 174.7,169.8 170.8,139.0" fill="rgb(23,35,63)"/><polygon points="92.7,170.1 307.3,170.1 291.2,200.3 108.8,200.3" fill="rgb(190,85,93)"/><polygon points="291.2,200.3 307.3,170.1 310.7,221.7 293.6,244.8" fill="rgb(93,16,25)"/><polygon points="92.7,170.1 108.8,200.3 106.4,244.8 89.3,221.7" fill="rgb(134,34,44)"/><polygon points="102.0,224.0 96.1,215.0 95.4,225.0 101.5,233.4" fill="rgb(18,18,22)"/><polygon points="89.3,221.7 106.4,244.8 293.6,244.8 310.7,221.7" fill="rgb(23,6,9)"/><polygon points="303.4,198.6 304.1,210.4 305.7,207.9 305.0,196.0" fill="rgb(255,100,110)"/><polygon points="96.6,198.6 95.0,196.0 94.3,207.9 95.9,210.4" fill="rgb(255,235,160)"/><polygon points="146.6,171.3 170.8,139.0 245.8,139.0 270.4,171.3" fill="rgb(68,94,136)"/><polygon points="270.5,171.2 268.3,171.2 243.9,138.0 246.0,138.0" fill="rgb(35,10,18)"/><polygon points="148.8,171.2 146.6,171.2 170.7,138.0 172.8,138.0" fill="rgb(35,10,18)"/><polygon points="92.7,170.1 89.3,221.7 310.7,221.7 307.3,170.1" fill="rgb(179,46,58)"/><polygon points="272.0,206.6 278.9,206.6 277.3,209.9 270.6,209.9" fill="rgb(14,14,17)"/><polygon points="121.1,206.6 128.0,206.6 129.4,209.9 122.7,209.9" fill="rgb(14,14,17)"/><polygon points="265.6,208.9 272.0,206.6 270.6,209.9 264.2,212.1" fill="rgb(15,15,18)"/><polygon points="278.9,206.6 285.6,208.9 283.8,212.1 277.3,209.9" fill="rgb(12,12,15)"/><polygon points="114.4,208.9 121.1,206.6 122.7,209.9 116.2,212.1" fill="rgb(15,15,18)"/><polygon points="128.0,206.6 134.4,208.9 135.8,212.1 129.4,209.9" fill="rgb(12,12,15)"/><polygon points="256.4,235.1 260.0,240.9 265.5,245.2 272.1,247.6 279.1,247.6 285.5,245.2 290.6,240.9 293.7,235.1 294.6,228.5 293.0,222.0 289.3,216.3 283.8,212.1 277.3,209.9 270.6,209.9 264.2,212.1 259.2,216.3 256.0,222.0 255.0,228.5" fill="rgb(18,18,22)"/><polygon points="106.3,235.1 109.4,240.9 114.5,245.2 120.9,247.6 127.9,247.6 134.5,245.2 140.0,240.9 143.6,235.1 145.0,228.5 144.0,222.0 140.8,216.3 135.8,212.1 129.4,209.9 122.7,209.9 116.2,212.1 110.7,216.3 107.0,222.0 105.4,228.5" fill="rgb(18,18,22)"/><polygon points="285.6,208.9 291.1,213.2 289.3,216.3 283.8,212.1" fill="rgb(10,10,12)"/><polygon points="260.4,213.2 265.6,208.9 264.2,212.1 259.2,216.3" fill="rgb(15,15,18)"/><polygon points="108.9,213.2 114.4,208.9 116.2,212.1 110.7,216.3" fill="rgb(15,15,18)"/><polygon points="134.4,208.9 139.6,213.2 140.8,216.3 135.8,212.1" fill="rgb(10,10,12)"/><polygon points="257.1,218.9 260.4,213.2 259.2,216.3 256.0,222.0" fill="rgb(14,14,17)"/><polygon points="291.1,213.2 294.9,218.9 293.0,222.0 289.3,216.3" fill="rgb(8,8,9)"/><polygon points="139.6,213.2 142.9,218.9 144.0,222.0 140.8,216.3" fill="rgb(8,8,9)"/><polygon points="105.1,218.9 108.9,213.2 110.7,216.3 107.0,222.0" fill="rgb(14,14,17)"/><polygon points="294.9,218.9 296.5,225.6 294.6,228.5 293.0,222.0" fill="rgb(10,10,12)"/><polygon points="256.1,225.6 257.1,218.9 256.0,222.0 255.0,228.5" fill="rgb(12,12,15)"/><polygon points="103.5,225.6 105.1,218.9 107.0,222.0 105.4,228.5" fill="rgb(12,12,15)"/><polygon points="142.9,218.9 143.9,225.6 145.0,228.5 144.0,222.0" fill="rgb(10,10,12)"/><polygon points="296.5,225.6 295.7,232.3 293.7,235.1 294.6,228.5" fill="rgb(12,12,15)"/><polygon points="143.9,225.6 142.4,232.3 143.6,235.1 145.0,228.5" fill="rgb(12,12,15)"/><polygon points="257.6,232.3 256.1,225.6 255.0,228.5 256.4,235.1" fill="rgb(10,10,12)"/><polygon points="104.3,232.3 103.5,225.6 105.4,228.5 106.3,235.1" fill="rgb(10,10,12)"/><polygon points="295.7,232.3 292.5,238.2 290.6,240.9 293.7,235.1" fill="rgb(14,14,17)"/><polygon points="261.3,238.2 257.6,232.3 256.4,235.1 260.0,240.9" fill="rgb(8,8,9)"/><polygon points="142.4,232.3 138.7,238.2 140.0,240.9 143.6,235.1" fill="rgb(14,14,17)"/><polygon points="107.5,238.2 104.3,232.3 106.3,235.1 109.4,240.9" fill="rgb(8,8,9)"/><polygon points="266.9,242.6 261.3,238.2 260.0,240.9 265.5,245.2" fill="rgb(10,10,12)"/><polygon points="292.5,238.2 287.3,242.6 285.5,245.2 290.6,240.9" fill="rgb(15,15,18)"/><polygon points="138.7,238.2 133.1,242.6 134.5,245.2 140.0,240.9" fill="rgb(15,15,18)"/><polygon points="112.7,242.6 107.5,238.2 109.4,240.9 114.5,245.2" fill="rgb(10,10,12)"/><polygon points="256.1,225.6 257.1,218.9 260.4,213.2 265.6,208.9 272.0,206.6 278.9,206.6 285.6,208.9 291.1,213.2 294.9,218.9 296.5,225.6 295.7,232.3 292.5,238.2 287.3,242.6 280.7,245.0 273.6,245.0 266.9,242.6 261.3,238.2 257.6,232.3" fill="rgb(30,30,36)"/><polygon points="103.5,225.6 105.1,218.9 108.9,213.2 114.4,208.9 121.1,206.6 128.0,206.6 134.4,208.9 139.6,213.2 142.9,218.9 143.9,225.6 142.4,232.3 138.7,238.2 133.1,242.6 126.4,245.0 119.3,245.0 112.7,242.6 107.5,238.2 104.3,232.3" fill="rgb(30,30,36)"/><polygon points="287.3,242.6 280.7,245.0 279.1,247.6 285.5,245.2" fill="rgb(15,15,18)"/><polygon points="273.6,245.0 266.9,242.6 265.5,245.2 272.1,247.6" fill="rgb(12,12,15)"/><polygon points="133.1,242.6 126.4,245.0 127.9,247.6 134.5,245.2" fill="rgb(15,15,18)"/><polygon points="119.3,245.0 112.7,242.6 114.5,245.2 120.9,247.6" fill="rgb(12,12,15)"/><polygon points="115.8,225.5 117.5,221.0 121.5,218.3 126.4,218.3 130.2,221.0 131.5,225.5 129.8,230.0 125.8,232.7 120.9,232.7 117.1,230.0" fill="rgb(180,180,190)"/><polygon points="268.5,225.5 269.8,221.0 273.6,218.3 278.5,218.3 282.5,221.0 284.2,225.5 282.9,230.0 279.1,232.7 274.2,232.7 270.2,230.0" fill="rgb(180,180,190)"/><polygon points="280.7,245.0 273.6,245.0 272.1,247.6 279.1,247.6" fill="rgb(14,14,17)"/><polygon points="126.4,245.0 119.3,245.0 120.9,247.6 127.9,247.6" fill="rgb(14,14,17)"/></svg>