<svg xmlns="http://www.w3.org/2000/svg" viewBox="0 0 400 400"><rect width="400" height="400" fill="#0f1020"/><rect x="0" y="250" width="400" height="150" fill="#0a0b17"/><ellipse cx="200" cy="262" rx="120" ry="16" fill="rgba(0,0,0,0.45)"/><polygon points="212.0,230.6 212.1,240.4 218.4,239.8 218.3,230.0" fill="rgb(255,100,110)"/><polygon points="197.3,217.0 269.3,208.6 271.0,251.0 197.2,257.4" fill="rgb(132,22,35)"/><polygon points="188.2,254.3 188.6,259.6 196.5,259.0 196.2,253.6" fill="rgb(15,15,18)"/><polygon points="187.2,249.2 188.2,254.3 196.2,253.6 195.1,248.4" fill="rgb(11,11,14)"/><polygon points="188.6,259.6 188.2,264.7 196.1,264.0 196.5,259.0" fill="rgb(17,17,21)"/><polygon points="185.6,244.9 187.2,249.2 195.1,248.4 193.5,244.2" fill="rgb(8,8,10)"/><polygon points="247.4,226.9 247.7,236.9 254.3,236.3 254.0,226.2" fill="rgb(255,100,110)"/><polygon points="188.2,264.7 187.1,268.9 195.1,268.2 196.1,264.0" fill="rgb(18,18,22)"/><polygon points="183.5,242.0 185.6,244.9 193.5,244.2 191.5,241.2" fill="rgb(11,11,13)"/><polygon points="188.1,209.1 187.4,208.6 179.9,174.6 180.6,175.2" fill="rgb(35,10,18)"/><polygon points="187.1,268.9 185.3,271.6 193.4,271.0 195.1,268.2" fill="rgb(18,18,22)"/><polygon points="181.2,240.8 183.5,242.0 191.5,241.2 189.3,240.0" fill="rgb(14,14,17)"/><polygon points="179.4,255.5 179.9,252.1 181.2,250.5 182.8,251.3 184.0,254.1 184.5,257.9 184.0,261.2 182.7,262.8 181.1,262.1 179.8,259.3" fill="rgb(180,180,190)"/><polygon points="175.5,253.5 176.0,248.2 177.2,244.1 179.0,241.5 181.2,240.8 183.5,242.0 185.6,244.9 187.2,249.2 188.2,254.3 188.6,259.6 188.2,264.7 187.1,268.9 185.3,271.6 183.2,272.6 180.9,271.7 178.7,268.9 176.9,264.5 175.8,259.2" fill="rgb(30,30,36)"/><polygon points="185.3,271.6 183.2,272.6 191.3,272.0 193.4,271.0" fill="rgb(16,16,20)"/><polygon points="179.0,241.5 181.2,240.8 189.3,240.0 187.2,240.7" fill="rgb(16,16,20)"/><polygon points="184.1,258.4 185.2,263.8 187.0,268.2 189.1,271.0 191.3,272.0 193.4,271.0 195.1,268.2 196.1,264.0 196.5,259.0 196.2,253.6 195.1,248.4 193.5,244.2 191.5,241.2 189.3,240.0 187.2,240.7 185.4,243.3 184.2,247.5 183.7,252.7" fill="rgb(18,18,22)"/><polygon points="183.2,272.6 180.9,271.7 189.1,271.0 191.3,272.0" fill="rgb(14,14,17)"/><polygon points="177.2,244.1 179.0,241.5 187.2,240.7 185.4,243.3" fill="rgb(18,18,22)"/><polygon points="258.4,200.3 249.8,164.7 182.3,175.0 188.3,209.0" fill="rgb(18,27,49)"/><polygon points="180.9,271.7 178.7,268.9 187.0,268.2 189.1,271.0" fill="rgb(11,11,13)"/><polygon points="176.0,248.2 177.2,244.1 185.4,243.3 184.2,247.5" fill="rgb(18,18,22)"/><polygon points="178.7,268.9 176.9,264.5 185.2,263.8 187.0,268.2" fill="rgb(8,8,10)"/><polygon points="175.5,253.5 176.0,248.2 184.2,247.5 183.7,252.7" fill="rgb(17,17,21)"/><polygon points="176.9,264.5 175.8,259.2 184.1,258.4 185.2,263.8" fill="rgb(11,11,14)"/><polygon points="175.8,259.2 175.5,253.5 183.7,252.7 184.1,258.4" fill="rgb(15,15,18)"/><polygon points="271.8,246.8 272.3,252.5 263.5,253.3 263.0,247.6" fill="rgb(15,15,18)"/><polygon points="270.9,241.4 271.8,246.8 263.0,247.6 262.0,242.2" fill="rgb(11,11,14)"/><polygon points="272.3,252.5 272.3,257.8 263.4,258.6 263.5,253.3" fill="rgb(17,17,21)"/><polygon points="269.6,236.8 270.9,241.4 262.0,242.2 260.7,237.7" fill="rgb(8,8,10)"/><polygon points="272.3,257.8 271.7,262.2 262.8,262.9 263.4,258.6" fill="rgb(18,18,22)"/><polygon points="268.1,233.6 269.6,236.8 260.7,237.7 259.1,234.5" fill="rgb(11,11,13)"/><polygon points="258.6,200.3 258.1,199.8 251.1,163.8 251.7,164.5" fill="rgb(35,10,18)"/><polygon points="271.7,262.2 270.7,265.1 261.7,265.8 262.8,262.9" fill="rgb(18,18,22)"/><polygon points="266.5,232.3 268.1,233.6 259.1,234.5 257.5,233.2" fill="rgb(14,14,17)"/><polygon points="254.4,252.4 255.5,258.1 256.9,262.7 258.6,265.7 260.2,266.8 261.7,265.8 262.8,262.9 263.4,258.6 263.5,253.3 263.0,247.6 262.0,242.2 260.7,237.7 259.1,234.5 257.5,233.2 256.0,233.8 254.8,236.5 254.1,240.8 253.9,246.3" fill="rgb(18,18,22)"/><polygon points="270.7,265.1 269.4,266.1 260.2,266.8 261.7,265.8" fill="rgb(16,16,20)"/><polygon points="139.6,175.8 188.3,209.0 182.3,175.0 153.0,151.3" fill="rgb(38,52,75)"/><polygon points="265.1,232.9 266.5,232.3 257.5,233.2 256.0,233.8" fill="rgb(16,16,20)"/><polygon points="263.3,245.5 263.3,239.9 264.0,235.6 265.1,232.9 266.5,232.3 268.1,233.6 269.6,236.8 270.9,241.4 271.8,246.8 272.3,252.5 272.3,257.8 271.7,262.2 270.7,265.1 269.4,266.1 267.8,265.0 266.2,262.0 264.8,257.3 263.8,251.5" fill="rgb(30,30,36)"/><polygon points="266.4,247.7 266.6,244.2 267.4,242.5 268.5,243.4 269.5,246.4 269.9,250.4 269.8,253.9 269.0,255.6 267.9,254.8 266.9,251.8" fill="rgb(180,180,190)"/><polygon points="269.4,266.1 267.8,265.0 258.6,265.7 260.2,266.8" fill="rgb(14,14,17)"/><polygon points="264.0,235.6 265.1,232.9 256.0,233.8 254.8,236.5" fill="rgb(18,18,22)"/><polygon points="227.4,138.5 153.0,151.3 182.3,175.0 249.8,164.7" fill="rgb(93,19,31)"/><polygon points="267.8,265.0 266.2,262.0 256.9,262.7 258.6,265.7" fill="rgb(11,11,13)"/><polygon points="263.3,239.9 264.0,235.6 254.8,236.5 254.1,240.8" fill="rgb(18,18,22)"/><polygon points="266.2,262.0 264.8,257.3 255.5,258.1 256.9,262.7" fill="rgb(8,8,10)"/><polygon points="263.3,245.5 263.3,239.9 254.1,240.8 253.9,246.3" fill="rgb(17,17,21)"/><polygon points="264.8,257.3 263.8,251.5 254.4,252.4 255.5,258.1" fill="rgb(11,11,14)"/><polygon points="263.8,251.5 263.3,245.5 253.9,246.3 254.4,252.4" fill="rgb(15,15,18)"/><polygon points="108.9,157.4 197.3,217.0 197.2,257.4 105.8,212.0" fill="rgb(97,25,31)"/><polygon points="204.1,140.8 269.3,208.6 197.3,217.0 108.9,157.4" fill="rgb(190,85,93)"/><polygon points="221.9,163.0 227.4,138.5 249.8,164.7 258.4,200.3" fill="rgb(34,47,68)"/><polygon points="140.4,176.5 139.4,175.8 151.2,151.7 152.1,152.4" fill="rgb(35,10,18)"/><polygon points="204.2,199.2 105.8,212.0 197.2,257.4 271.0,251.0" fill="rgb(23,6,9)"/><polygon points="204.1,140.8 204.2,199.2 271.0,251.0 269.3,208.6" fill="rgb(97,25,31)"/><polygon points="221.9,163.0 139.6,175.8 153.0,151.3 227.4,138.5" fill="rgb(30,45,80)"/><polygon points="129.7,225.5 130.0,232.1 139.4,231.1 139.1,224.4" fill="rgb(15,15,18)"/><polygon points="128.2,219.1 129.7,225.5 139.1,224.4 137.7,217.9" fill="rgb(11,11,14)"/><polygon points="222.8,163.8 222.1,163.0 229.5,138.1 230.2,138.9" fill="rgb(35,10,18)"/><polygon points="130.0,232.1 129.1,238.3 138.6,237.3 139.4,231.1" fill="rgb(17,17,21)"/><polygon points="125.8,213.6 128.2,219.1 137.7,217.9 135.3,212.4" fill="rgb(8,8,10)"/><polygon points="129.1,238.3 127.2,243.2 136.8,242.3 138.6,237.3" fill="rgb(18,18,22)"/><polygon points="122.6,209.6 125.8,213.6 135.3,212.4 132.2,208.4" fill="rgb(11,11,13)"/><polygon points="127.2,243.2 124.4,246.4 134.0,245.4 136.8,242.3" fill="rgb(18,18,22)"/><polygon points="119.1,207.8 122.6,209.6 132.2,208.4 128.7,206.5" fill="rgb(14,14,17)"/><polygon points="115.6,225.6 116.6,221.5 118.8,219.8 121.3,221.0 123.1,224.6 123.7,229.3 122.7,233.4 120.6,235.2 118.1,234.1 116.2,230.4" fill="rgb(180,180,190)"/><polygon points="109.3,222.4 110.3,216.0 112.5,211.1 115.6,208.2 119.1,207.8 122.6,209.6 125.8,213.6 128.2,219.1 129.7,225.5 130.0,232.1 129.1,238.3 127.2,243.2 124.4,246.4 120.9,247.3 117.3,245.9 113.9,242.1 111.2,236.4 109.6,229.5" fill="rgb(30,30,36)"/><polygon points="124.4,246.4 120.9,247.3 130.7,246.4 134.0,245.4" fill="rgb(16,16,20)"/><polygon points="115.6,208.2 119.1,207.8 128.7,206.5 125.3,206.9" fill="rgb(16,16,20)"/><polygon points="119.6,228.4 121.2,235.3 123.8,241.0 127.1,244.9 130.7,246.4 134.0,245.4 136.8,242.3 138.6,237.3 139.4,231.1 139.1,224.4 137.7,217.9 135.3,212.4 132.2,208.4 128.7,206.5 125.3,206.9 122.3,209.8 120.2,214.7 119.2,221.2" fill="rgb(18,18,22)"/><polygon points="120.9,247.3 117.3,245.9 127.1,244.9 130.7,246.4" fill="rgb(14,14,17)"/><polygon points="112.5,211.1 115.6,208.2 125.3,206.9 122.3,209.8" fill="rgb(18,18,22)"/><polygon points="117.3,245.9 113.9,242.1 123.8,241.0 127.1,244.9" fill="rgb(11,11,13)"/><polygon points="110.3,216.0 112.5,211.1 122.3,209.8 120.2,214.7" fill="rgb(18,18,22)"/><polygon points="113.9,242.1 111.2,236.4 121.2,235.3 123.8,241.0" fill="rgb(8,8,10)"/><polygon points="109.3,222.4 110.3,216.0 120.2,214.7 119.2,221.2" fill="rgb(17,17,21)"/><polygon points="111.2,236.4 109.6,229.5 119.6,228.4 121.2,235.3" fill="rgb(11,11,14)"/><polygon points="109.6,229.5 109.3,222.4 119.2,221.2 119.6,228.4" fill="rgb(15,15,18)"/><polygon points="230.8,213.7 231.4,220.8 220.5,222.1 220.0,214.9" fill="rgb(15,15,18)"/><polygon points="229.5,206.7 230.8,213.7 220.0,214.9 218.6,208.0" fill="rgb(11,11,14)"/><polygon points="231.4,220.8 231.1,227.4 220.1,228.6 220.5,222.1" fill="rgb(17,17,21)"/><polygon points="227.6,200.7 229.5,206.7 218.6,208.0 216.6,202.1" fill="rgb(8,8,10)"/><polygon points="231.1,227.4 230.0,232.7 218.9,233.8 220.1,228.6" fill="rgb(18,18,22)"/><polygon points="225.2,196.3 227.6,200.7 216.6,202.1 214.2,197.7" fill="rgb(11,11,13)"/><polygon points="230.0,232.7 228.2,236.0 217.0,237.1 218.9,233.8" fill="rgb(18,18,22)"/><polygon points="222.7,194.1 225.2,196.3 214.2,197.7 211.5,195.5" fill="rgb(14,14,17)"/><polygon points="126.7,174.6 135.0,173.3 134.4,186.6 126.1,187.8" fill="rgb(255,235,160)"/><polygon points="205.5,218.5 207.0,225.9 209.2,232.1 211.8,236.3 214.5,238.0 217.0,237.1 218.9,233.8 220.1,228.6 220.5,222.1 220.0,214.9 218.6,208.0 216.6,202.1 214.2,197.7 211.5,195.5 209.0,195.9 206.9,198.8 205.5,203.9 205.0,210.8" fill="rgb(18,18,22)"/><polygon points="228.2,236.0 225.8,236.9 214.5,238.0 217.0,237.1" fill="rgb(16,16,20)"/><polygon points="220.3,194.4 222.7,194.1 211.5,195.5 209.0,195.9" fill="rgb(16,16,20)"/><polygon points="216.6,209.4 217.0,202.5 218.3,197.3 220.3,194.4 222.7,194.1 225.2,196.3 227.6,200.7 229.5,206.7 230.8,213.7 231.4,220.8 231.1,227.4 230.0,232.7 228.2,236.0 225.8,236.9 223.2,235.1 220.7,230.9 218.6,224.6 217.1,217.1" fill="rgb(30,30,36)"/><polygon points="221.7,213.0 222.2,208.7 223.6,206.9 225.3,208.4 226.8,212.4 227.4,217.5 226.9,221.8 225.6,223.6 223.8,222.3 222.3,218.3" fill="rgb(180,180,190)"/><polygon points="204.1,140.8 108.9,157.4 105.8,212.0 204.2,199.2" fill="rgb(189,48,61)"/><polygon points="225.8,236.9 223.2,235.1 211.8,236.3 214.5,238.0" fill="rgb(14,14,17)"/><polygon points="218.3,197.3 220.3,194.4 209.0,195.9 206.9,198.8" fill="rgb(18,18,22)"/><polygon points="136.4,190.8 171.0,185.8 170.8,197.5 135.9,202.2" fill="rgb(18,18,22)"/><polygon points="223.2,235.1 220.7,230.9 209.2,232.1 211.8,236.3" fill="rgb(11,11,13)"/><polygon points="217.0,202.5 218.3,197.3 206.9,198.8 205.5,203.9" fill="rgb(18,18,22)"/><polygon points="173.5,167.2 182.4,165.8 182.2,179.6 173.3,180.9" fill="rgb(255,235,160)"/><polygon points="220.7,230.9 218.6,224.6 207.0,225.9 209.2,232.1" fill="rgb(8,8,10)"/><polygon points="216.6,209.4 217.0,202.5 205.5,203.9 205.0,210.8" fill="rgb(17,17,21)"/><polygon points="218.6,224.6 217.1,217.1 205.5,218.5 207.0,225.9" fill="rgb(11,11,14)"/><polygon points="217.1,217.1 216.6,209.4 205.0,210.8 205.5,218.5" fill="rgb(15,15,18)"/></svg>