<svg xmlns="http://www.w3.org/2000/svg" viewBox="0 0 400 400"><rect width="400" height="400" fill="#0f1020"/><rect x="0" y="250" width="400" height="150" fill="#0a0b17"/><ellipse cx="200" cy="262" rx="120" ry="16" fill="rgba(0,0,0,0.45)"/><polygon points="215.2,230.1 215.2,240.0 222.0,240.0 221.9,230.1" fill="rgb(255,100,110)"/><polygon points="178.1,230.1 178.0,240.0 184.8,240.0 184.8,230.1" fill="rgb(255,100,110)"/><polygon points="162.4,214.7 237.6,214.7 238.5,255.7 161.5,255.7" fill="rgb(125,21,33)"/><polygon points="243.8,251.9 243.8,257.4 235.1,257.4 235.0,251.9" fill="rgb(14,14,17)"/><polygon points="156.2,251.9 156.2,257.4 164.9,257.4 165.0,251.9" fill="rgb(14,14,17)"/><polygon points="243.9,246.7 243.8,251.9 235.0,251.9 235.1,246.7" fill="rgb(11,11,13)"/><polygon points="156.1,246.7 156.2,251.9 165.0,251.9 164.9,246.7" fill="rgb(11,11,13)"/><polygon points="243.8,257.4 244.0,262.5 235.2,262.5 235.1,257.4" fill="rgb(16,16,20)"/><polygon points="156.2,257.4 156.0,262.5 164.8,262.5 164.9,257.4" fill="rgb(16,16,20)"/><polygon points="244.1,242.2 243.9,246.7 235.1,246.7 235.3,242.2" fill="rgb(8,8,9)"/><polygon points="155.9,242.2 156.1,246.7 164.9,246.7 164.7,242.2" fill="rgb(8,8,9)"/><polygon points="244.0,262.5 244.4,266.7 235.5,266.7 235.2,262.5" fill="rgb(17,17,21)"/><polygon points="156.0,262.5 155.6,266.7 164.5,266.7 164.8,262.5" fill="rgb(17,17,21)"/><polygon points="244.5,239.1 244.1,242.2 235.3,242.2 235.6,239.1" fill="rgb(11,11,13)"/><polygon points="155.5,239.1 155.9,242.2 164.7,242.2 164.4,239.1" fill="rgb(11,11,13)"/><polygon points="237.0,206.1 235.9,171.1 164.1,171.1 163.0,206.1" fill="rgb(17,26,46)"/><polygon points="237.2,206.1 237.3,205.6 237.9,170.4 237.8,171.1" fill="rgb(35,10,18)"/><polygon points="162.8,206.1 162.7,205.6 162.1,170.4 162.2,171.1" fill="rgb(35,10,18)"/><polygon points="244.4,266.7 244.8,269.4 235.9,269.4 235.5,266.7" fill="rgb(17,17,21)"/><polygon points="155.6,266.7 155.2,269.4 164.1,269.4 164.5,266.7" fill="rgb(17,17,21)"/><polygon points="245.0,237.8 244.5,239.1 235.6,239.1 236.0,237.8" fill="rgb(14,14,17)"/><polygon points="155.0,237.8 155.5,239.1 164.4,239.1 164.0,237.8" fill="rgb(14,14,17)"/><polygon points="244.8,269.4 245.3,270.4 236.2,270.4 235.9,269.4" fill="rgb(16,16,20)"/><polygon points="155.2,269.4 154.7,270.4 163.8,270.4 164.1,269.4" fill="rgb(16,16,20)"/><polygon points="246.5,250.4 246.3,245.1 245.9,240.9 245.4,238.4 245.0,237.8 244.5,239.1 244.1,242.2 243.9,246.7 243.8,251.9 243.8,257.4 244.0,262.5 244.4,266.7 244.8,269.4 245.3,270.4 245.8,269.3 246.2,266.3 246.5,261.8 246.6,256.2" fill="rgb(30,30,36)"/><polygon points="153.5,250.4 153.7,245.1 154.1,240.9 154.6,238.4 155.0,237.8 155.5,239.1 155.9,242.2 156.1,246.7 156.2,251.9 156.2,257.4 156.0,262.5 155.6,266.7 155.2,269.4 154.7,270.4 154.2,269.3 153.8,266.3 153.5,261.8 153.4,256.2" fill="rgb(30,30,36)"/><polygon points="237.3,256.2 237.2,261.8 237.0,266.3 236.6,269.3 236.2,270.4 235.9,269.4 235.5,266.7 235.2,262.5 235.1,257.4 235.0,251.9 235.1,246.7 235.3,242.2 235.6,239.1 236.0,237.8 236.4,238.4 236.7,240.9 237.0,245.1 237.2,250.4" fill="rgb(18,18,22)"/><polygon points="162.7,256.2 162.8,261.8 163.0,266.3 163.4,269.3 163.8,270.4 164.1,269.4 164.5,266.7 164.8,262.5 164.9,257.4 165.0,251.9 164.9,246.7 164.7,242.2 164.4,239.1 164.0,237.8 163.6,238.4 163.3,240.9 163.0,245.1 162.8,250.4" fill="rgb(18,18,22)"/><polygon points="245.9,252.6 245.7,249.2 245.4,247.7 245.1,248.6 244.9,251.5 244.9,255.3 245.1,258.7 245.4,260.3 245.7,259.5 245.9,256.6" fill="rgb(180,180,190)"/><polygon points="154.1,252.6 154.3,249.2 154.6,247.7 154.9,248.6 155.1,251.5 155.1,255.3 154.9,258.7 154.6,260.3 154.3,259.5 154.1,256.6" fill="rgb(180,180,190)"/><polygon points="245.4,238.4 245.0,237.8 236.0,237.8 236.4,238.4" fill="rgb(16,16,20)"/><polygon points="154.6,238.4 155.0,237.8 164.0,237.8 163.6,238.4" fill="rgb(16,16,20)"/><polygon points="245.3,270.4 245.8,269.3 236.6,269.3 236.2,270.4" fill="rgb(14,14,17)"/><polygon points="154.7,270.4 154.2,269.3 163.4,269.3 163.8,270.4" fill="rgb(14,14,17)"/><polygon points="245.9,240.9 245.4,238.4 236.4,238.4 236.7,240.9" fill="rgb(17,17,21)"/><polygon points="154.1,240.9 154.6,238.4 163.6,238.4 163.3,240.9" fill="rgb(17,17,21)"/><polygon points="245.8,269.3 246.2,266.3 237.0,266.3 236.6,269.3" fill="rgb(11,11,13)"/><polygon points="154.2,269.3 153.8,266.3 163.0,266.3 163.4,269.3" fill="rgb(11,11,13)"/><polygon points="246.3,245.1 245.9,240.9 236.7,240.9 237.0,245.1" fill="rgb(17,17,21)"/><polygon points="153.7,245.1 154.1,240.9 163.3,240.9 163.0,245.1" fill="rgb(17,17,21)"/><polygon points="246.2,266.3 246.5,261.8 237.2,261.8 237.0,266.3" fill="rgb(8,8,9)"/><polygon points="153.8,266.3 153.5,261.8 162.8,261.8 163.0,266.3" fill="rgb(8,8,9)"/><polygon points="246.5,250.4 246.3,245.1 237.0,245.1 237.2,250.4" fill="rgb(16,16,20)"/><polygon points="153.5,250.4 153.7,245.1 163.0,245.1 162.8,250.4" fill="rgb(16,16,20)"/><polygon points="246.5,261.8 246.6,256.2 237.3,256.2 237.2,261.8" fill="rgb(11,11,13)"/><polygon points="153.5,261.8 153.4,256.2 162.7,256.2 162.8,261.8" fill="rgb(11,11,13)"/><polygon points="246.6,256.2 246.5,250.4 237.2,250.4 237.3,256.2" fill="rgb(14,14,17)"/><polygon points="153.4,256.2 153.5,250.4 162.8,250.4 162.7,256.2" fill="rgb(14,14,17)"/><polygon points="240.7,144.2 159.3,144.2 164.1,171.1 235.9,171.1" fill="rgb(93,19,31)"/><polygon points="245.5,168.1 240.7,144.2 235.9,171.1 237.0,206.1" fill="rgb(48,66,96)"/><polygon points="154.5,168.1 163.0,206.1 164.1,171.1 159.3,144.2" fill="rgb(51,71,103)"/><polygon points="254.2,145.7 237.6,214.7 162.4,214.7 145.8,145.7" fill="rgb(190,85,93)"/><polygon points="254.2,145.7 256.1,202.9 238.5,255.7 237.6,214.7" fill="rgb(134,34,44)"/><polygon points="145.8,145.7 162.4,214.7 161.5,255.7 143.9,202.9" fill="rgb(134,34,44)"/><polygon points="256.1,202.9 143.9,202.9 161.5,255.7 238.5,255.7" fill="rgb(23,6,9)"/><polygon points="245.6,168.9 245.8,168.1 242.9,144.2 242.7,145.0" fill="rgb(35,10,18)"/><polygon points="154.4,168.9 154.2,168.1 157.1,144.2 157.3,145.0" fill="rgb(35,10,18)"/><polygon points="245.5,168.1 154.5,168.1 159.3,144.2 240.7,144.2" fill="rgb(29,43,77)"/><polygon points="256.0,218.6 256.1,225.6 244.9,225.6 244.8,218.6" fill="rgb(14,14,17)"/><polygon points="144.0,218.6 143.9,225.6 155.1,225.6 155.2,218.6" fill="rgb(14,14,17)"/><polygon points="256.2,211.8 256.0,218.6 244.8,218.6 244.9,211.8" fill="rgb(11,11,13)"/><polygon points="143.8,211.8 144.0,218.6 155.2,218.6 155.1,211.8" fill="rgb(11,11,13)"/><polygon points="256.1,225.6 256.5,232.0 245.2,232.0 244.9,225.6" fill="rgb(16,16,20)"/><polygon points="143.9,225.6 143.5,232.0 154.8,232.0 155.1,225.6" fill="rgb(16,16,20)"/><polygon points="256.6,205.8 256.2,211.8 244.9,211.8 245.3,205.8" fill="rgb(8,8,9)"/><polygon points="143.4,205.8 143.8,211.8 155.1,211.8 154.7,205.8" fill="rgb(8,8,9)"/><polygon points="256.5,232.0 257.0,237.0 245.6,237.0 245.2,232.0" fill="rgb(17,17,21)"/><polygon points="143.5,232.0 143.0,237.0 154.4,237.0 154.8,232.0" fill="rgb(17,17,21)"/><polygon points="257.2,201.5 256.6,205.8 245.3,205.8 245.8,201.5" fill="rgb(11,11,13)"/><polygon points="142.8,201.5 143.4,205.8 154.7,205.8 154.2,201.5" fill="rgb(11,11,13)"/><polygon points="257.0,237.0 257.8,240.2 246.2,240.2 245.6,237.0" fill="rgb(17,17,21)"/><polygon points="143.0,237.0 142.2,240.2 153.8,240.2 154.4,237.0" fill="rgb(17,17,21)"/><polygon points="258.0,199.2 257.2,201.5 245.8,201.5 246.4,199.2" fill="rgb(14,14,17)"/><polygon points="142.0,199.2 142.8,201.5 154.2,201.5 153.6,199.2" fill="rgb(14,14,17)"/><polygon points="257.8,240.2 258.6,241.0 246.9,241.0 246.2,240.2" fill="rgb(16,16,20)"/><polygon points="142.2,240.2 141.4,241.0 153.1,241.0 153.8,240.2" fill="rgb(16,16,20)"/><polygon points="259.5,217.7 259.2,213.5 258.6,211.8 258.1,213.3 257.8,217.2 257.8,222.2 258.1,226.4 258.6,228.1 259.2,226.8 259.5,222.8" fill="rgb(180,180,190)"/><polygon points="140.5,217.7 140.8,213.5 141.4,211.8 141.9,213.3 142.2,217.2 142.2,222.2 141.9,226.4 141.4,228.1 140.8,226.8 140.5,222.8" fill="rgb(180,180,190)"/><polygon points="260.6,213.9 260.2,207.2 259.6,202.2 258.8,199.4 258.0,199.2 257.2,201.5 256.6,205.8 256.2,211.8 256.0,218.6 256.1,225.6 256.5,232.0 257.0,237.0 257.8,240.2 258.6,241.0 259.4,239.2 260.1,235.0 260.5,228.8 260.7,221.5" fill="rgb(30,30,36)"/><polygon points="248.6,221.5 248.4,228.8 248.0,235.0 247.5,239.2 246.9,241.0 246.2,240.2 245.6,237.0 245.2,232.0 244.9,225.6 244.8,218.6 244.9,211.8 245.3,205.8 245.8,201.5 246.4,199.2 247.0,199.4 247.7,202.2 248.2,207.2 248.5,213.9" fill="rgb(18,18,22)"/><polygon points="139.4,213.9 139.8,207.2 140.4,202.2 141.2,199.4 142.0,199.2 142.8,201.5 143.4,205.8 143.8,211.8 144.0,218.6 143.9,225.6 143.5,232.0 143.0,237.0 142.2,240.2 141.4,241.0 140.6,239.2 139.9,235.0 139.5,228.8 139.3,221.5" fill="rgb(30,30,36)"/><polygon points="151.4,221.5 151.6,228.8 152.0,235.0 152.5,239.2 153.1,241.0 153.8,240.2 154.4,237.0 154.8,232.0 155.1,225.6 155.2,218.6 155.1,211.8 154.7,205.8 154.2,201.5 153.6,199.2 153.0,199.4 152.3,202.2 151.8,207.2 151.5,213.9" fill="rgb(18,18,22)"/><polygon points="258.8,199.4 258.0,199.2 246.4,199.2 247.0,199.4" fill="rgb(16,16,20)"/><polygon points="141.2,199.4 142.0,199.2 153.6,199.2 153.0,199.4" fill="rgb(16,16,20)"/><polygon points="258.6,241.0 259.4,239.2 247.5,239.2 246.9,241.0" fill="rgb(14,14,17)"/><polygon points="141.4,241.0 140.6,239.2 152.5,239.2 153.1,241.0" fill="rgb(14,14,17)"/><polygon points="259.6,202.2 258.8,199.4 247.0,199.4 247.7,202.2" fill="rgb(17,17,21)"/><polygon points="140.4,202.2 141.2,199.4 153.0,199.4 152.3,202.2" fill="rgb(17,17,21)"/><polygon points="259.4,239.2 260.1,235.0 248.0,235.0 247.5,239.2" fill="rgb(11,11,13)"/><polygon points="140.6,239.2 139.9,235.0 152.0,235.0 152.5,239.2" fill="rgb(11,11,13)"/><polygon points="260.2,207.2 259.6,202.2 247.7,202.2 248.2,207.2" fill="rgb(17,17,21)"/><polygon points="139.8,207.2 140.4,202.2 152.3,202.2 151.8,207.2" fill="rgb(17,17,21)"/><polygon points="260.1,235.0 260.5,228.8 248.4,228.8 248.0,235.0" fill="rgb(8,8,9)"/><polygon points="139.9,235.0 139.5,228.8 151.6,228.8 152.0,235.0" fill="rgb(8,8,9)"/><polygon points="260.6,213.9 260.2,207.2 248.2,207.2 248.5,213.9" fill="rgb(16,16,20)"/><polygon points="139.4,213.9 139.8,207.2 151.8,207.2 151.5,213.9" fill="rgb(16,16,20)"/><polygon points="260.5,228.8 260.7,221.5 248.6,221.5 248.4,228.8" fill="rgb(11,11,13)"/><polygon points="139.5,228.8 139.3,221.5 151.4,221.5 151.6,228.8" fill="rgb(11,11,13)"/><polygon points="260.7,221.5 260.6,213.9 248.5,213.9 248.6,221.5" fill="rgb(14,14,17)"/><polygon points="139.3,221.5 139.4,213.9 151.5,213.9 151.4,221.5" fill="rgb(14,14,17)"/><polygon points="254.2,145.7 145.8,145.7 143.9,202.9 256.1,202.9" fill="rgb(179,46,58)"/><polygon points="222.0,166.8 231.7,166.8 232.0,180.6 222.2,180.6" fill="rgb(255,235,160)"/><polygon points="168.3,166.8 178.0,166.8 177.8,180.6 168.0,180.6" fill="rgb(255,235,160)"/><polygon points="180.2,185.2 219.8,185.2 219.9,196.9 180.1,196.9" fill="rgb(18,18,22)"/></svg>