<svg xmlns="http://www.w3.org/2000/svg" viewBox="0 0 400 400"><rect width="400" height="400" fill="#0f1020"/><rect x="0" y="250" width="400" height="150" fill="#0a0b17"/><ellipse cx="200" cy="262" rx="120" ry="16" fill="rgba(0,0,0,0.45)"/><polygon points="224.9,229.5 218.8,230.3 218.9,240.1 225.1,239.4" fill="rgb(255,235,160)"/><polygon points="204.4,217.0 275.0,206.9 276.9,249.7 204.5,257.4" fill="rgb(189,48,61)"/><polygon points="195.3,259.8 194.9,254.4 202.5,253.6 202.9,259.0" fill="rgb(15,15,18)"/><polygon points="194.9,254.4 193.6,249.4 201.3,248.5 202.5,253.6" fill="rgb(12,12,14)"/><polygon points="194.8,264.8 195.3,259.8 202.9,259.0 202.5,264.1" fill="rgb(17,17,21)"/><polygon points="193.6,249.4 191.7,245.1 199.4,244.2 201.3,248.5" fill="rgb(8,8,10)"/><polygon points="252.2,239.5 226.7,242.5 226.8,250.9 252.5,248.1" fill="rgb(18,18,22)"/><polygon points="193.6,269.0 194.8,264.8 202.5,264.1 201.3,268.2" fill="rgb(18,18,22)"/><polygon points="191.7,245.1 189.3,242.3 197.1,241.3 199.4,244.2" fill="rgb(11,11,13)"/><polygon points="260.0,225.0 253.4,225.8 253.7,235.9 260.3,235.2" fill="rgb(255,235,160)"/><polygon points="191.6,271.8 193.6,269.0 201.3,268.2 199.4,271.0" fill="rgb(18,18,22)"/><polygon points="189.3,242.3 186.8,241.1 194.5,240.2 197.1,241.3" fill="rgb(14,14,17)"/><polygon points="190.6,258.1 190.1,254.3 188.7,251.6 186.9,250.8 185.4,252.4 184.8,255.8 185.3,259.6 186.8,262.4 188.6,263.0 190.0,261.4" fill="rgb(180,180,190)"/><polygon points="195.3,259.8 194.9,254.4 193.6,249.4 191.7,245.1 189.3,242.3 186.8,241.1 184.3,241.9 182.2,244.5 180.8,248.6 180.3,253.9 180.7,259.5 182.0,264.8 184.0,269.1 186.5,271.9 189.2,272.8 191.6,271.8 193.6,269.0 194.8,264.8" fill="rgb(30,30,36)"/><polygon points="189.2,272.8 191.6,271.8 199.4,271.0 197.0,272.1" fill="rgb(16,16,20)"/><polygon points="186.8,241.1 184.3,241.9 192.1,240.9 194.5,240.2" fill="rgb(16,16,20)"/><polygon points="202.5,264.1 201.3,268.2 199.4,271.0 197.0,272.1 194.4,271.2 192.0,268.4 190.0,264.0 188.6,258.7 188.2,253.0 188.7,247.7 190.1,243.5 192.1,240.9 194.5,240.2 197.1,241.3 199.4,244.2 201.3,248.5 202.5,253.6 202.9,259.0" fill="rgb(18,18,22)"/><polygon points="186.5,271.9 189.2,272.8 197.0,272.1 194.4,271.2" fill="rgb(14,14,17)"/><polygon points="186.0,205.1 186.8,205.5 177.7,171.1 176.9,170.5" fill="rgb(35,10,18)"/><polygon points="184.3,241.9 182.2,244.5 190.1,243.5 192.1,240.9" fill="rgb(18,18,22)"/><polygon points="184.0,269.1 186.5,271.9 194.4,271.2 192.0,268.4" fill="rgb(11,11,13)"/><polygon points="182.2,244.5 180.8,248.6 188.7,247.7 190.1,243.5" fill="rgb(18,18,22)"/><polygon points="182.0,264.8 184.0,269.1 192.0,268.4 190.0,264.0" fill="rgb(8,8,10)"/><polygon points="180.8,248.6 180.3,253.9 188.2,253.0 188.7,247.7" fill="rgb(17,17,21)"/><polygon points="180.7,259.5 182.0,264.8 190.0,264.0 188.6,258.7" fill="rgb(12,12,14)"/><polygon points="180.3,253.9 180.7,259.5 188.6,258.7 188.2,253.0" fill="rgb(15,15,18)"/><polygon points="187.0,205.5 256.7,194.6 246.2,158.0 179.4,170.8" fill="rgb(18,28,49)"/><polygon points="277.3,251.2 276.7,245.5 267.9,246.4 268.5,252.1" fill="rgb(15,15,18)"/><polygon points="276.7,245.5 275.5,240.0 266.8,241.0 267.9,246.4" fill="rgb(12,12,14)"/><polygon points="277.2,256.6 277.3,251.2 268.5,252.1 268.4,257.5" fill="rgb(17,17,21)"/><polygon points="275.5,240.0 273.9,235.4 265.1,236.4 266.8,241.0" fill="rgb(8,8,10)"/><polygon points="276.4,261.0 277.2,256.6 268.4,257.5 267.6,261.9" fill="rgb(18,18,22)"/><polygon points="273.9,235.4 272.0,232.2 263.1,233.3 265.1,236.4" fill="rgb(11,11,13)"/><polygon points="275.1,264.0 276.4,261.0 267.6,261.9 266.2,264.8" fill="rgb(18,18,22)"/><polygon points="272.0,232.2 270.0,230.9 261.1,232.0 263.1,233.3" fill="rgb(14,14,17)"/><polygon points="268.4,257.5 267.6,261.9 266.2,264.8 264.3,265.8 262.2,264.8 260.2,261.8 258.4,257.1 257.1,251.4 256.6,245.3 256.7,239.8 257.7,235.4 259.2,232.7 261.1,232.0 263.1,233.3 265.1,236.4 266.8,241.0 267.9,246.4 268.5,252.1" fill="rgb(18,18,22)"/><polygon points="273.3,265.0 275.1,264.0 266.2,264.8 264.3,265.8" fill="rgb(16,16,20)"/><polygon points="270.0,230.9 268.2,231.6 259.2,232.7 261.1,232.0" fill="rgb(16,16,20)"/><polygon points="277.3,251.2 276.7,245.5 275.5,240.0 273.9,235.4 272.0,232.2 270.0,230.9 268.2,231.6 266.7,234.3 265.9,238.7 265.7,244.3 266.3,250.4 267.6,256.2 269.3,260.9 271.3,264.0 273.3,265.0 275.1,264.0 276.4,261.0 277.2,256.6" fill="rgb(30,30,36)"/><polygon points="274.1,249.2 273.6,245.1 272.4,242.1 271.0,241.2 269.9,242.9 269.7,246.5 270.3,250.6 271.5,253.6 272.9,254.4 273.9,252.7" fill="rgb(180,180,190)"/><polygon points="256.2,194.0 256.8,194.6 248.1,157.7 247.4,157.0" fill="rgb(35,10,18)"/><polygon points="271.3,264.0 273.3,265.0 264.3,265.8 262.2,264.8" fill="rgb(14,14,17)"/><polygon points="268.2,231.6 266.7,234.3 257.7,235.4 259.2,232.7" fill="rgb(18,18,22)"/><polygon points="187.0,205.5 179.4,170.8 144.1,147.1 128.4,172.1" fill="rgb(35,48,69)"/><polygon points="204.4,217.0 204.5,257.4 100.5,214.2 103.7,160.3" fill="rgb(92,23,30)"/><polygon points="269.3,260.9 271.3,264.0 262.2,264.8 260.2,261.8" fill="rgb(11,11,13)"/><polygon points="266.7,234.3 265.9,238.7 256.7,239.8 257.7,235.4" fill="rgb(18,18,22)"/><polygon points="267.6,256.2 269.3,260.9 260.2,261.8 258.4,257.1" fill="rgb(8,8,10)"/><polygon points="265.9,238.7 265.7,244.3 256.6,245.3 256.7,239.8" fill="rgb(17,17,21)"/><polygon points="266.3,250.4 267.6,256.2 258.4,257.1 257.1,251.4" fill="rgb(12,12,14)"/><polygon points="265.7,244.3 266.3,250.4 257.1,251.4 256.6,245.3" fill="rgb(15,15,18)"/><polygon points="179.4,170.8 246.2,158.0 216.9,131.0 144.1,147.1" fill="rgb(93,19,31)"/><polygon points="204.4,217.0 103.7,160.3 193.5,140.8 275.0,206.9" fill="rgb(190,85,93)"/><polygon points="204.5,257.4 276.9,249.7 193.2,199.2 100.5,214.2" fill="rgb(23,6,9)"/><polygon points="256.7,194.6 208.6,156.2 216.9,131.0 246.2,158.0" fill="rgb(36,49,72)"/><polygon points="128.2,172.2 129.4,172.9 143.4,148.2 142.3,147.5" fill="rgb(35,10,18)"/><polygon points="275.0,206.9 193.5,140.8 193.2,199.2 276.9,249.7" fill="rgb(92,23,30)"/><polygon points="128.7,233.5 128.3,227.0 137.2,225.7 137.6,232.3" fill="rgb(15,15,18)"/><polygon points="128.3,227.0 126.6,220.7 135.5,219.3 137.2,225.7" fill="rgb(12,12,14)"/><polygon points="127.7,239.7 128.7,233.5 137.6,232.3 136.7,238.5" fill="rgb(17,17,21)"/><polygon points="126.6,220.7 123.9,215.3 132.8,213.9 135.5,219.3" fill="rgb(8,8,10)"/><polygon points="128.4,172.1 144.1,147.1 216.9,131.0 208.6,156.2" fill="rgb(30,45,80)"/><polygon points="125.6,244.6 127.7,239.7 136.7,238.5 134.6,243.4" fill="rgb(18,18,22)"/><polygon points="123.9,215.3 120.3,211.5 129.3,210.0 132.8,213.9" fill="rgb(11,11,13)"/><polygon points="122.4,247.8 125.6,244.6 134.6,243.4 131.5,246.6" fill="rgb(18,18,22)"/><polygon points="120.3,211.5 116.3,209.7 125.3,208.2 129.3,210.0" fill="rgb(14,14,17)"/><polygon points="121.6,230.9 121.0,226.3 118.9,222.7 116.1,221.6 113.7,223.3 112.6,227.4 113.2,232.1 115.4,235.7 118.2,236.8 120.6,234.9" fill="rgb(180,180,190)"/><polygon points="128.7,233.5 128.3,227.0 126.6,220.7 123.9,215.3 120.3,211.5 116.3,209.7 112.4,210.2 109.0,213.1 106.5,218.0 105.4,224.4 105.8,231.4 107.6,238.1 110.6,243.7 114.4,247.4 118.5,248.8 122.4,247.8 125.6,244.6 127.7,239.7" fill="rgb(30,30,36)"/><polygon points="118.5,248.8 122.4,247.8 131.5,246.6 127.7,247.6" fill="rgb(16,16,20)"/><polygon points="116.3,209.7 112.4,210.2 121.5,208.7 125.3,208.2" fill="rgb(16,16,20)"/><polygon points="136.7,238.5 134.6,243.4 131.5,246.6 127.7,247.6 123.7,246.2 119.9,242.5 116.9,236.9 115.1,230.1 114.7,223.0 115.8,216.6 118.1,211.6 121.5,208.7 125.3,208.2 129.3,210.0 132.8,213.9 135.5,219.3 137.2,225.7 137.6,232.3" fill="rgb(18,18,22)"/><polygon points="208.8,156.1 209.8,156.9 219.8,131.4 218.9,130.6" fill="rgb(35,10,18)"/><polygon points="114.4,247.4 118.5,248.8 127.7,247.6 123.7,246.2" fill="rgb(14,14,17)"/><polygon points="112.4,210.2 109.0,213.1 118.1,211.6 121.5,208.7" fill="rgb(18,18,22)"/><polygon points="110.6,243.7 114.4,247.4 123.7,246.2 119.9,242.5" fill="rgb(11,11,13)"/><polygon points="109.0,213.1 106.5,218.0 115.8,216.6 118.1,211.6" fill="rgb(18,18,22)"/><polygon points="107.6,238.1 110.6,243.7 119.9,242.5 116.9,236.9" fill="rgb(8,8,10)"/><polygon points="106.5,218.0 105.4,224.4 114.7,223.0 115.8,216.6" fill="rgb(17,17,21)"/><polygon points="105.8,231.4 107.6,238.1 116.9,236.9 115.1,230.1" fill="rgb(12,12,14)"/><polygon points="105.4,224.4 105.8,231.4 115.1,230.1 114.7,223.0" fill="rgb(15,15,18)"/><polygon points="225.4,220.2 224.8,213.0 214.3,214.6 214.9,221.7" fill="rgb(15,15,18)"/><polygon points="224.8,213.0 223.2,206.1 212.7,207.7 214.3,214.6" fill="rgb(12,12,14)"/><polygon points="225.0,226.8 225.4,220.2 214.9,221.7 214.4,228.2" fill="rgb(17,17,21)"/><polygon points="223.2,206.1 220.8,200.1 210.3,201.7 212.7,207.7" fill="rgb(8,8,10)"/><polygon points="223.6,232.1 225.0,226.8 214.4,228.2 212.9,233.5" fill="rgb(18,18,22)"/><polygon points="127.9,175.2 127.3,188.4 119.6,189.9 120.2,176.7" fill="rgb(255,100,110)"/><polygon points="220.8,200.1 217.9,195.7 207.3,197.4 210.3,201.7" fill="rgb(11,11,13)"/><polygon points="221.3,235.5 223.6,232.1 212.9,233.5 210.5,236.8" fill="rgb(18,18,22)"/><polygon points="217.9,195.7 214.7,193.6 204.0,195.3 207.3,197.4" fill="rgb(14,14,17)"/><polygon points="214.4,228.2 212.9,233.5 210.5,236.8 207.4,237.8 204.1,236.1 200.8,232.0 198.2,225.8 196.4,218.4 195.8,210.8 196.4,203.9 198.2,198.7 200.8,195.7 204.0,195.3 207.3,197.4 210.3,201.7 212.7,207.7 214.3,214.6 214.9,221.7" fill="rgb(18,18,22)"/><polygon points="193.5,140.8 103.7,160.3 100.5,214.2 193.2,199.2" fill="rgb(132,22,35)"/><polygon points="218.3,236.4 221.3,235.5 210.5,236.8 207.4,237.8" fill="rgb(16,16,20)"/><polygon points="214.7,193.6 211.6,194.0 200.8,195.7 204.0,195.3" fill="rgb(16,16,20)"/><polygon points="225.4,220.2 224.8,213.0 223.2,206.1 220.8,200.1 217.9,195.7 214.7,193.6 211.6,194.0 209.1,196.9 207.4,202.2 206.9,209.1 207.5,216.9 209.3,224.3 211.9,230.5 215.0,234.7 218.3,236.4 221.3,235.5 223.6,232.1 225.0,226.8" fill="rgb(30,30,36)"/><polygon points="220.4,217.0 219.6,211.9 217.8,207.9 215.6,206.5 213.8,208.3 213.2,212.6 213.9,217.9 215.8,221.9 218.0,223.2 219.7,221.3" fill="rgb(180,180,190)"/><polygon points="215.0,234.7 218.3,236.4 207.4,237.8 204.1,236.1" fill="rgb(14,14,17)"/><polygon points="211.6,194.0 209.1,196.9 198.2,198.7 200.8,195.7" fill="rgb(18,18,22)"/><polygon points="172.6,166.4 172.4,180.2 163.9,181.7 164.2,168.1" fill="rgb(255,100,110)"/><polygon points="211.9,230.5 215.0,234.7 204.1,236.1 200.8,232.0" fill="rgb(11,11,13)"/><polygon points="209.1,196.9 207.4,202.2 196.4,203.9 198.2,198.7" fill="rgb(18,18,22)"/><polygon points="209.3,224.3 211.9,230.5 200.8,232.0 198.2,225.8" fill="rgb(8,8,10)"/><polygon points="207.4,202.2 206.9,209.1 195.8,210.8 196.4,203.9" fill="rgb(17,17,21)"/><polygon points="207.5,216.9 209.3,224.3 198.2,225.8 196.4,218.4" fill="rgb(12,12,14)"/><polygon points="206.9,209.1 207.5,216.9 196.4,218.4 195.8,210.8" fill="rgb(15,15,18)"/></svg>