<svg xmlns="http://www.w3.org/2000/svg" viewBox="0 0 400 400"><rect width="400" height="400" fill="#0f1020"/><rect x="0" y="250" width="400" height="150" fill="#0a0b17"/><ellipse cx="200" cy="262" rx="120" ry="16" fill="rgba(0,0,0,0.45)"/><polygon points="225.5,229.9 225.7,239.7 231.6,238.9 231.5,229.0" fill="rgb(255,100,110)"/><polygon points="201.5,254.5 202.0,259.8 209.4,258.9 208.9,253.5" fill="rgb(15,15,18)"/><polygon points="200.1,249.4 201.5,254.5 208.9,253.5 207.5,248.4" fill="rgb(11,11,14)"/><polygon points="202.0,259.8 201.5,264.9 208.9,264.0 209.4,258.9" fill="rgb(17,17,20)"/><polygon points="197.9,245.2 200.1,249.4 207.5,248.4 205.3,244.2" fill="rgb(8,8,10)"/><polygon points="211.4,216.8 280.4,205.0 282.4,248.3 211.7,257.3" fill="rgb(131,22,35)"/><polygon points="201.5,264.9 200.1,269.0 207.6,268.2 208.9,264.0" fill="rgb(18,18,22)"/><polygon points="195.3,242.4 197.9,245.2 205.3,244.2 202.7,241.3" fill="rgb(11,11,13)"/><polygon points="198.7,209.4 197.8,208.9 187.8,175.5 188.7,176.1" fill="rgb(35,10,18)"/><polygon points="200.1,269.0 197.9,271.8 205.4,271.0 207.6,268.2" fill="rgb(18,18,22)"/><polygon points="192.4,241.3 195.3,242.4 202.7,241.3 199.8,240.2" fill="rgb(14,14,17)"/><polygon points="190.2,256.0 190.9,252.6 192.5,251.0 194.6,251.7 196.2,254.4 196.8,258.2 196.2,261.5 194.5,263.2 192.5,262.5 190.8,259.8" fill="rgb(180,180,190)"/><polygon points="185.1,254.2 185.7,248.9 187.3,244.7 189.6,242.1 192.4,241.3 195.3,242.4 197.9,245.2 200.1,249.4 201.5,254.5 202.0,259.8 201.5,264.9 200.1,269.0 197.9,271.8 195.2,272.9 192.2,272.1 189.4,269.3 187.1,265.1 185.6,259.8" fill="rgb(30,30,36)"/><polygon points="259.3,224.7 259.6,234.8 266.1,233.9 265.7,223.7" fill="rgb(255,100,110)"/><polygon points="197.9,271.8 195.2,272.9 202.7,272.1 205.4,271.0" fill="rgb(16,16,20)"/><polygon points="189.6,242.1 192.4,241.3 199.8,240.2 197.1,241.0" fill="rgb(16,16,20)"/><polygon points="193.2,258.8 194.7,264.2 197.0,268.5 199.8,271.2 202.7,272.1 205.4,271.0 207.6,268.2 208.9,264.0 209.4,258.9 208.9,253.5 207.5,248.4 205.3,244.2 202.7,241.3 199.8,240.2 197.1,241.0 194.8,243.6 193.3,247.9 192.7,253.1" fill="rgb(18,18,22)"/><polygon points="195.2,272.9 192.2,272.1 199.8,271.2 202.7,272.1" fill="rgb(14,14,17)"/><polygon points="187.3,244.7 189.6,242.1 197.1,241.0 194.8,243.6" fill="rgb(18,18,22)"/><polygon points="192.2,272.1 189.4,269.3 197.0,268.5 199.8,271.2" fill="rgb(11,11,13)"/><polygon points="185.7,248.9 187.3,244.7 194.8,243.6 193.3,247.9" fill="rgb(18,18,22)"/><polygon points="265.3,197.2 253.7,161.6 190.3,175.7 198.9,209.3" fill="rgb(18,27,49)"/><polygon points="189.4,269.3 187.1,265.1 194.7,264.2 197.0,268.5" fill="rgb(8,8,10)"/><polygon points="185.1,254.2 185.7,248.9 193.3,247.9 192.7,253.1" fill="rgb(17,17,20)"/><polygon points="187.1,265.1 185.6,259.8 193.2,258.8 194.7,264.2" fill="rgb(11,11,14)"/><polygon points="185.6,259.8 185.1,254.2 192.7,253.1 193.2,258.8" fill="rgb(15,15,18)"/><polygon points="136.6,179.3 198.9,209.3 190.3,175.7 152.6,154.3" fill="rgb(35,49,71)"/><polygon points="281.2,244.0 281.9,249.8 273.2,250.9 272.6,245.1" fill="rgb(15,15,18)"/><polygon points="279.8,238.5 281.2,244.0 272.6,245.1 271.2,239.7" fill="rgb(11,11,14)"/><polygon points="281.9,249.8 281.7,255.3 273.1,256.3 273.2,250.9" fill="rgb(17,17,20)"/><polygon points="277.8,233.9 279.8,238.5 271.2,239.7 269.2,235.1" fill="rgb(8,8,10)"/><polygon points="265.4,197.2 264.6,196.7 254.6,160.6 255.4,161.2" fill="rgb(35,10,18)"/><polygon points="281.7,255.3 280.8,259.8 272.1,260.8 273.1,256.3" fill="rgb(18,18,22)"/><polygon points="275.5,230.8 277.8,233.9 269.2,235.1 266.9,232.0" fill="rgb(11,11,13)"/><polygon points="280.8,259.8 279.2,262.8 270.4,263.8 272.1,260.8" fill="rgb(18,18,22)"/><polygon points="273.1,229.4 275.5,230.8 266.9,232.0 264.4,230.7" fill="rgb(14,14,17)"/><polygon points="259.5,250.4 261.0,256.1 263.2,260.8 265.6,263.8 268.1,264.8 270.4,263.8 272.1,260.8 273.1,256.3 273.2,250.9 272.6,245.1 271.2,239.7 269.2,235.1 266.9,232.0 264.4,230.7 262.1,231.5 260.3,234.2 259.1,238.7 258.9,244.3" fill="rgb(18,18,22)"/><polygon points="279.2,262.8 277.0,263.8 268.1,264.8 270.4,263.8" fill="rgb(16,16,20)"/><polygon points="270.9,230.2 273.1,229.4 264.4,230.7 262.1,231.5" fill="rgb(16,16,20)"/><polygon points="220.5,136.8 152.6,154.3 190.3,175.7 253.7,161.6" fill="rgb(93,19,31)"/><polygon points="99.4,163.2 211.4,216.8 211.7,257.3 96.1,216.5" fill="rgb(100,25,32)"/><polygon points="267.9,243.1 268.1,237.4 269.1,232.9 270.9,230.2 273.1,229.4 275.5,230.8 277.8,233.9 279.8,238.5 281.2,244.0 281.9,249.8 281.7,255.3 280.8,259.8 279.2,262.8 277.0,263.8 274.6,262.8 272.1,259.8 270.0,255.1 268.5,249.2" fill="rgb(30,30,36)"/><polygon points="272.6,245.2 272.9,241.6 274.2,239.9 275.9,240.7 277.3,243.8 278.0,247.8 277.7,251.4 276.4,253.2 274.7,252.4 273.3,249.4" fill="rgb(180,180,190)"/><polygon points="277.0,263.8 274.6,262.8 265.6,263.8 268.1,264.8" fill="rgb(14,14,17)"/><polygon points="269.1,232.9 270.9,230.2 262.1,231.5 260.3,234.2" fill="rgb(18,18,22)"/><polygon points="274.6,262.8 272.1,259.8 263.2,260.8 265.6,263.8" fill="rgb(11,11,13)"/><polygon points="268.1,237.4 269.1,232.9 260.3,234.2 259.1,238.7" fill="rgb(18,18,22)"/><polygon points="272.1,259.8 270.0,255.1 261.0,256.1 263.2,260.8" fill="rgb(8,8,10)"/><polygon points="267.9,243.1 268.1,237.4 259.1,238.7 258.9,244.3" fill="rgb(17,17,20)"/><polygon points="270.0,255.1 268.5,249.2 259.5,250.4 261.0,256.1" fill="rgb(11,11,14)"/><polygon points="268.5,249.2 267.9,243.1 258.9,244.3 259.5,250.4" fill="rgb(15,15,18)"/><polygon points="183.0,141.2 280.4,205.0 211.4,216.8 99.4,163.2" fill="rgb(190,85,93)"/><polygon points="137.7,179.9 136.4,179.3 150.9,154.7 152.1,155.4" fill="rgb(35,10,18)"/><polygon points="210.8,162.0 220.5,136.8 253.7,161.6 265.3,197.2" fill="rgb(39,53,77)"/><polygon points="182.3,199.5 96.1,216.5 211.7,257.3 282.4,248.3" fill="rgb(23,6,9)"/><polygon points="210.8,162.0 136.6,179.3 152.6,154.3 220.5,136.8" fill="rgb(30,45,80)"/><polygon points="183.0,141.2 182.3,199.5 282.4,248.3 280.4,205.0" fill="rgb(100,25,32)"/><polygon points="127.4,228.5 127.8,235.0 136.1,233.6 135.7,227.0" fill="rgb(15,15,18)"/><polygon points="125.5,222.2 127.4,228.5 135.7,227.0 133.8,220.7" fill="rgb(11,11,14)"/><polygon points="127.8,235.0 126.8,241.0 135.2,239.7 136.1,233.6" fill="rgb(17,17,20)"/><polygon points="122.5,217.0 125.5,222.2 133.8,220.7 130.8,215.4" fill="rgb(8,8,10)"/><polygon points="126.8,241.0 124.5,246.0 132.9,244.7 135.2,239.7" fill="rgb(18,18,22)"/><polygon points="118.5,213.3 122.5,217.0 130.8,215.4 126.9,211.7" fill="rgb(11,11,13)"/><polygon points="124.5,246.0 121.0,249.2 129.4,247.9 132.9,244.7" fill="rgb(18,18,22)"/><polygon points="114.2,211.6 118.5,213.3 126.9,211.7 122.5,210.0" fill="rgb(14,14,17)"/><polygon points="110.2,229.2 111.4,225.2 114.0,223.4 117.1,224.5 119.4,227.9 120.1,232.5 119.0,236.5 116.4,238.3 113.3,237.4 110.9,233.9" fill="rgb(180,180,190)"/><polygon points="102.3,226.4 103.5,220.1 106.1,215.2 109.9,212.3 114.2,211.6 118.5,213.3 122.5,217.0 125.5,222.2 127.4,228.5 127.8,235.0 126.8,241.0 124.5,246.0 121.0,249.2 116.7,250.2 112.3,248.9 108.1,245.4 104.8,239.9 102.7,233.3" fill="rgb(30,30,36)"/><polygon points="212.1,162.7 211.0,162.0 222.4,136.3 223.4,137.1" fill="rgb(35,10,18)"/><polygon points="121.0,249.2 116.7,250.2 125.2,248.9 129.4,247.9" fill="rgb(16,16,20)"/><polygon points="109.9,212.3 114.2,211.6 122.5,210.0 118.3,210.6" fill="rgb(16,16,20)"/><polygon points="111.3,231.8 113.3,238.5 116.6,244.0 120.8,247.6 125.2,248.9 129.4,247.9 132.9,244.7 135.2,239.7 136.1,233.6 135.7,227.0 133.8,220.7 130.8,215.4 126.9,211.7 122.5,210.0 118.3,210.6 114.6,213.5 112.0,218.5 110.9,224.9" fill="rgb(18,18,22)"/><polygon points="116.7,250.2 112.3,248.9 120.8,247.6 125.2,248.9" fill="rgb(14,14,17)"/><polygon points="106.1,215.2 109.9,212.3 118.3,210.6 114.6,213.5" fill="rgb(18,18,22)"/><polygon points="112.3,248.9 108.1,245.4 116.6,244.0 120.8,247.6" fill="rgb(11,11,13)"/><polygon points="103.5,220.1 106.1,215.2 114.6,213.5 112.0,218.5" fill="rgb(18,18,22)"/><polygon points="108.1,245.4 104.8,239.9 113.3,238.5 116.6,244.0" fill="rgb(8,8,10)"/><polygon points="102.3,226.4 103.5,220.1 112.0,218.5 110.9,224.9" fill="rgb(17,17,20)"/><polygon points="104.8,239.9 102.7,233.3 111.3,231.8 113.3,238.5" fill="rgb(11,11,14)"/><polygon points="102.7,233.3 102.3,226.4 110.9,224.9 111.3,231.8" fill="rgb(15,15,18)"/><polygon points="114.4,179.0 121.5,177.3 120.9,190.4 113.7,192.0" fill="rgb(255,235,160)"/><polygon points="218.6,212.5 219.3,219.7 209.2,221.4 208.5,214.3" fill="rgb(15,15,18)"/><polygon points="216.7,205.6 218.6,212.5 208.5,214.3 206.7,207.4" fill="rgb(11,11,14)"/><polygon points="219.3,219.7 218.7,226.4 208.6,228.0 209.2,221.4" fill="rgb(17,17,20)"/><polygon points="213.9,199.6 216.7,205.6 206.7,207.4 203.8,201.6" fill="rgb(8,8,10)"/><polygon points="218.7,226.4 217.0,231.7 206.8,233.3 208.6,228.0" fill="rgb(18,18,22)"/><polygon points="210.4,195.4 213.9,199.6 203.8,201.6 200.2,197.3" fill="rgb(11,11,13)"/><polygon points="217.0,231.7 214.2,235.1 203.9,236.7 206.8,233.3" fill="rgb(18,18,22)"/><polygon points="183.0,141.2 99.4,163.2 96.1,216.5 182.3,199.5" fill="rgb(188,48,61)"/><polygon points="206.6,193.3 210.4,195.4 200.2,197.3 196.4,195.3" fill="rgb(14,14,17)"/><polygon points="187.3,218.6 189.3,226.0 192.5,232.1 196.3,236.1 200.3,237.7 203.9,236.7 206.8,233.3 208.6,228.0 209.2,221.4 208.5,214.3 206.7,207.4 203.8,201.6 200.2,197.3 196.4,195.3 192.6,195.8 189.5,198.8 187.4,204.1 186.6,211.0" fill="rgb(18,18,22)"/><polygon points="122.5,194.5 152.8,187.9 152.5,199.4 122.0,205.6" fill="rgb(18,18,22)"/><polygon points="214.2,235.1 210.6,236.1 200.3,237.7 203.9,236.7" fill="rgb(16,16,20)"/><polygon points="202.9,193.8 206.6,193.3 196.4,195.3 192.6,195.8" fill="rgb(16,16,20)"/><polygon points="197.1,209.1 197.8,202.1 199.9,196.8 202.9,193.8 206.6,193.3 210.4,195.4 213.9,199.6 216.7,205.6 218.6,212.5 219.3,219.7 218.7,226.4 217.0,231.7 214.2,235.1 210.6,236.1 206.7,234.5 203.0,230.4 199.9,224.2 197.8,216.8" fill="rgb(30,30,36)"/><polygon points="204.5,212.4 205.4,208.1 207.5,206.2 210.2,207.5 212.3,211.5 213.1,216.6 212.4,220.9 210.3,222.9 207.6,221.7 205.4,217.7" fill="rgb(180,180,190)"/><polygon points="210.6,236.1 206.7,234.5 196.3,236.1 200.3,237.7" fill="rgb(14,14,17)"/><polygon points="199.9,196.8 202.9,193.8 192.6,195.8 189.5,198.8" fill="rgb(18,18,22)"/><polygon points="155.3,169.2 163.2,167.4 162.9,181.1 154.9,182.9" fill="rgb(255,235,160)"/><polygon points="206.7,234.5 203.0,230.4 192.5,232.1 196.3,236.1" fill="rgb(11,11,13)"/><polygon points="197.8,202.1 199.9,196.8 189.5,198.8 187.4,204.1" fill="rgb(18,18,22)"/><polygon points="203.0,230.4 199.9,224.2 189.3,226.0 192.5,232.1" fill="rgb(8,8,10)"/><polygon points="197.1,209.1 197.8,202.1 187.4,204.1 186.6,211.0" fill="rgb(17,17,20)"/><polygon points="199.9,224.2 197.8,216.8 187.3,218.6 189.3,226.0" fill="rgb(11,11,14)"/><polygon points="197.8,216.8 197.1,209.1 186.6,211.0 187.3,218.6" fill="rgb(15,15,18)"/></svg>