<svg xmlns="http://www.w3.org/2000/svg" viewBox="0 0 400 400"><rect width="400" height="400" fill="#0f1020"/><rect x="0" y="250" width="400" height="150" fill="#0a0b17"/><ellipse cx="200" cy="262" rx="120" ry="16" fill="rgba(0,0,0,0.45)"/><polygon points="160.4,205.7 162.0,205.5 180.0,174.6 178.4,174.9" fill="rgb(35,10,18)"/><polygon points="150.1,245.8 147.6,250.7 143.3,248.9 146.0,243.9" fill="rgb(11,11,14)"/><polygon points="154.0,241.9 150.1,245.8 146.0,243.9 149.9,240.0" fill="rgb(13,13,16)"/><polygon points="147.6,250.7 146.5,256.1 142.3,254.4 143.3,248.9" fill="rgb(9,9,11)"/><polygon points="158.7,239.6 154.0,241.9 149.9,240.0 154.6,237.6" fill="rgb(14,14,17)"/><polygon points="146.5,256.1 147.2,261.4 143.0,259.7 142.3,254.4" fill="rgb(8,8,10)"/><polygon points="163.7,239.1 158.7,239.6 154.6,237.6 159.7,237.1" fill="rgb(14,14,17)"/><polygon points="166.6,254.4 165.6,250.8 162.8,248.9 159.4,249.2 156.5,251.7 155.4,255.4 156.3,258.9 159.1,260.9 162.6,260.6 165.5,258.1" fill="rgb(180,180,190)"/><polygon points="175.5,253.5 174.7,248.1 172.2,243.6 168.4,240.5 163.7,239.1 158.7,239.6 154.0,241.9 150.1,245.8 147.6,250.7 146.5,256.1 147.2,261.4 149.6,266.0 153.3,269.2 158.0,270.7 163.0,270.3 167.9,268.0 171.8,264.1 174.5,259.1" fill="rgb(30,30,36)"/><polygon points="147.2,261.4 149.6,266.0 145.3,264.4 143.0,259.7" fill="rgb(10,10,13)"/><polygon points="168.4,240.5 163.7,239.1 159.7,237.1 164.4,238.5" fill="rgb(13,13,16)"/><polygon points="122.3,219.5 121.9,230.0 125.6,231.8 126.0,221.4" fill="rgb(255,100,110)"/><polygon points="149.6,266.0 153.3,269.2 149.1,267.6 145.3,264.4" fill="rgb(12,12,15)"/><polygon points="172.2,243.6 168.4,240.5 164.4,238.5 168.3,241.6" fill="rgb(12,12,15)"/><polygon points="153.3,269.2 158.0,270.7 153.8,269.2 149.1,267.6" fill="rgb(13,13,16)"/><polygon points="174.7,248.1 172.2,243.6 168.3,241.6 170.8,246.2" fill="rgb(10,10,13)"/><polygon points="259.3,192.8 238.1,165.1 177.6,174.3 160.3,205.6" fill="rgb(68,94,137)"/><polygon points="170.6,257.3 167.9,262.4 163.8,266.4 158.9,268.8 153.8,269.2 149.1,267.6 145.3,264.4 143.0,259.7 142.3,254.4 143.3,248.9 146.0,243.9 149.9,240.0 154.6,237.6 159.7,237.1 164.4,238.5 168.3,241.6 170.8,246.2 171.6,251.7" fill="rgb(18,18,22)"/><polygon points="158.0,270.7 163.0,270.3 158.9,268.8 153.8,269.2" fill="rgb(14,14,17)"/><polygon points="175.5,253.5 174.7,248.1 170.8,246.2 171.6,251.7" fill="rgb(8,8,10)"/><polygon points="163.0,270.3 167.9,268.0 163.8,266.4 158.9,268.8" fill="rgb(14,14,17)"/><polygon points="174.5,259.1 175.5,253.5 171.6,251.7 170.6,257.3" fill="rgb(9,9,11)"/><polygon points="167.9,268.0 171.8,264.1 167.9,262.4 163.8,266.4" fill="rgb(13,13,16)"/><polygon points="171.8,264.1 174.5,259.1 170.6,257.3 167.9,262.4" fill="rgb(11,11,14)"/><polygon points="307.4,187.5 310.5,235.1 133.6,251.9 135.3,209.8" fill="rgb(189,48,61)"/><polygon points="91.3,185.3 135.3,209.8 133.6,251.9 88.1,233.4" fill="rgb(67,11,18)"/><polygon points="257.5,193.1 259.3,192.9 238.7,165.7 236.9,166.0" fill="rgb(35,10,18)"/><polygon points="160.3,205.6 177.6,174.3 143.8,147.5 122.1,181.8" fill="rgb(19,29,51)"/><polygon points="238.1,165.1 211.2,135.5 143.8,147.5 177.6,174.3" fill="rgb(93,19,31)"/><polygon points="100.4,208.6 99.7,219.8 104.0,221.7 104.6,210.7" fill="rgb(255,100,110)"/><polygon points="266.8,234.2 264.1,239.6 261.4,237.4 264.2,232.0" fill="rgb(11,11,14)"/><polygon points="271.1,230.0 266.8,234.2 264.2,232.0 268.6,227.7" fill="rgb(13,13,16)"/><polygon points="264.1,239.6 263.3,245.5 260.6,243.4 261.4,237.4" fill="rgb(9,9,11)"/><polygon points="276.6,227.5 271.1,230.0 268.6,227.7 274.1,225.1" fill="rgb(14,14,17)"/><polygon points="263.3,245.5 264.5,251.2 261.8,249.2 260.6,243.4" fill="rgb(8,8,10)"/><polygon points="282.5,226.9 276.6,227.5 274.1,225.1 280.1,224.4" fill="rgb(14,14,17)"/><polygon points="287.2,243.4 285.7,239.6 282.2,237.5 278.1,237.9 274.8,240.6 273.7,244.6 275.2,248.4 278.6,250.6 282.8,250.2 286.1,247.5" fill="rgb(180,180,190)"/><polygon points="297.9,242.3 296.5,236.5 293.1,231.6 288.3,228.3 282.5,226.9 276.6,227.5 271.1,230.0 266.8,234.2 264.1,239.6 263.3,245.5 264.5,251.2 267.7,256.2 272.4,259.7 278.1,261.3 284.2,260.8 289.8,258.3 294.3,254.0 297.1,248.4" fill="rgb(30,30,36)"/><polygon points="264.5,251.2 267.7,256.2 265.0,254.2 261.8,249.2" fill="rgb(10,10,13)"/><polygon points="288.3,228.3 282.5,226.9 280.1,224.4 286.0,225.9" fill="rgb(13,13,16)"/><polygon points="307.4,187.5 135.3,209.8 91.3,185.3 286.6,155.3" fill="rgb(190,85,93)"/><polygon points="267.7,256.2 272.4,259.7 269.8,257.8 265.0,254.2" fill="rgb(12,12,15)"/><polygon points="293.1,231.6 288.3,228.3 286.0,225.9 290.9,229.3" fill="rgb(12,12,15)"/><polygon points="272.4,259.7 278.1,261.3 275.6,259.4 269.8,257.8" fill="rgb(13,13,16)"/><polygon points="296.5,236.5 293.1,231.6 290.9,229.3 294.3,234.2" fill="rgb(10,10,13)"/><polygon points="294.9,246.3 292.1,251.9 287.5,256.3 281.8,258.9 275.6,259.4 269.8,257.8 265.0,254.2 261.8,249.2 260.6,243.4 261.4,237.4 264.2,232.0 268.6,227.7 274.1,225.1 280.1,224.4 286.0,225.9 290.9,229.3 294.3,234.2 295.7,240.1" fill="rgb(18,18,22)"/><polygon points="278.1,261.3 284.2,260.8 281.8,258.9 275.6,259.4" fill="rgb(14,14,17)"/><polygon points="297.9,242.3 296.5,236.5 294.3,234.2 295.7,240.1" fill="rgb(8,8,10)"/><polygon points="284.2,260.8 289.8,258.3 287.5,256.3 281.8,258.9" fill="rgb(14,14,17)"/><polygon points="297.1,248.4 297.9,242.3 295.7,240.1 294.9,246.3" fill="rgb(9,9,11)"/><polygon points="259.3,192.8 233.2,164.8 211.2,135.5 238.1,165.1" fill="rgb(18,26,47)"/><polygon points="289.8,258.3 294.3,254.0 292.1,251.9 287.5,256.3" fill="rgb(13,13,16)"/><polygon points="294.3,254.0 297.1,248.4 294.9,246.3 292.1,251.9" fill="rgb(11,11,14)"/><polygon points="122.0,181.7 123.8,181.5 144.6,146.4 142.8,146.7" fill="rgb(35,10,18)"/><polygon points="310.5,235.1 289.6,210.3 88.1,233.4 133.6,251.9" fill="rgb(23,6,9)"/><polygon points="101.6,223.7 98.5,229.5 104.2,231.9 107.2,226.3" fill="rgb(11,11,14)"/><polygon points="106.1,219.2 101.6,223.7 107.2,226.3 111.6,221.8" fill="rgb(13,13,16)"/><polygon points="98.5,229.5 97.1,235.8 102.9,238.2 104.2,231.9" fill="rgb(9,9,11)"/><polygon points="111.4,216.4 106.1,219.2 111.6,221.8 116.9,219.1" fill="rgb(14,14,17)"/><polygon points="303.3,197.4 305.0,199.8 305.8,211.5 304.1,209.3" fill="rgb(255,235,160)"/><polygon points="97.1,235.8 97.7,242.0 103.5,244.2 102.9,238.2" fill="rgb(8,8,10)"/><polygon points="117.1,215.7 111.4,216.4 116.9,219.1 122.5,218.4" fill="rgb(14,14,17)"/><polygon points="134.0,241.0 130.9,246.9 126.3,251.5 120.8,254.2 115.2,254.7 110.0,253.0 105.9,249.4 103.5,244.2 102.9,238.2 104.2,231.9 107.2,226.3 111.6,221.8 116.9,219.1 122.5,218.4 127.7,219.9 131.9,223.4 134.5,228.5 135.3,234.6" fill="rgb(18,18,22)"/><polygon points="97.7,242.0 100.2,247.2 105.9,249.4 103.5,244.2" fill="rgb(10,10,13)"/><polygon points="233.2,164.8 122.1,181.8 143.8,147.5 211.2,135.5" fill="rgb(72,99,144)"/><polygon points="122.4,217.2 117.1,215.7 122.5,218.4 127.7,219.9" fill="rgb(13,13,16)"/><polygon points="100.2,247.2 104.3,250.9 110.0,253.0 105.9,249.4" fill="rgb(12,12,15)"/><polygon points="126.6,220.7 122.4,217.2 127.7,219.9 131.9,223.4" fill="rgb(12,12,15)"/><polygon points="104.3,250.9 109.5,252.6 115.2,254.7 110.0,253.0" fill="rgb(13,13,16)"/><polygon points="129.2,225.9 126.6,220.7 131.9,223.4 134.5,228.5" fill="rgb(10,10,13)"/><polygon points="130.0,232.1 129.2,225.9 126.6,220.7 122.4,217.2 117.1,215.7 111.4,216.4 106.1,219.2 101.6,223.7 98.5,229.5 97.1,235.8 97.7,242.0 100.2,247.2 104.3,250.9 109.5,252.6 115.3,252.1 120.9,249.3 125.5,244.6 128.7,238.7" fill="rgb(30,30,36)"/><polygon points="119.6,233.2 118.6,229.1 115.5,226.9 111.6,227.4 108.3,230.3 106.8,234.6 107.8,238.7 110.9,241.0 114.8,240.6 118.2,237.6" fill="rgb(180,180,190)"/><polygon points="109.5,252.6 115.3,252.1 120.8,254.2 115.2,254.7" fill="rgb(14,14,17)"/><polygon points="130.0,232.1 129.2,225.9 134.5,228.5 135.3,234.6" fill="rgb(8,8,10)"/><polygon points="115.3,252.1 120.9,249.3 126.3,251.5 120.8,254.2" fill="rgb(14,14,17)"/><polygon points="128.7,238.7 130.0,232.1 135.3,234.6 134.0,241.0" fill="rgb(9,9,11)"/><polygon points="120.9,249.3 125.5,244.6 130.9,246.9 126.3,251.5" fill="rgb(13,13,16)"/><polygon points="125.5,244.6 128.7,238.7 134.0,241.0 130.9,246.9" fill="rgb(11,11,14)"/><polygon points="307.4,187.5 286.6,155.3 289.6,210.3 310.5,235.1" fill="rgb(97,25,31)"/><polygon points="231.0,165.1 233.1,164.8 210.4,134.6 208.4,135.0" fill="rgb(35,10,18)"/><polygon points="286.6,155.3 91.3,185.3 88.1,233.4 289.6,210.3" fill="rgb(189,48,61)"/><polygon points="296.5,203.1 303.9,212.7 304.5,222.8 297.1,213.8" fill="rgb(18,18,22)"/><polygon points="293.1,182.8 295.1,185.6 295.8,198.2 293.8,195.6" fill="rgb(255,235,160)"/><polygon points="235.7,207.5 232.4,213.9 236.1,216.9 239.4,210.6" fill="rgb(11,11,14)"/><polygon points="240.9,202.4 235.7,207.5 239.4,210.6 244.4,205.7" fill="rgb(13,13,16)"/><polygon points="232.4,213.9 231.4,220.8 235.1,223.7 236.1,216.9" fill="rgb(9,9,11)"/><polygon points="247.3,199.3 240.9,202.4 244.4,205.7 250.7,202.6" fill="rgb(14,14,17)"/><polygon points="231.4,220.8 232.7,227.6 236.4,230.4 235.1,223.7" fill="rgb(8,8,10)"/><polygon points="254.3,198.4 247.3,199.3 250.7,202.6 257.6,201.7" fill="rgb(14,14,17)"/><polygon points="274.1,226.5 270.8,233.0 265.5,238.1 259.0,241.1 251.9,241.8 245.3,240.0 240.0,236.0 236.4,230.4 235.1,223.7 236.1,216.9 239.4,210.6 244.4,205.7 250.7,202.6 257.6,201.7 264.2,203.3 269.7,207.0 273.5,212.6 275.1,219.4" fill="rgb(18,18,22)"/><polygon points="232.7,227.6 236.3,233.4 240.0,236.0 236.4,230.4" fill="rgb(10,10,13)"/><polygon points="261.0,199.9 254.3,198.4 257.6,201.7 264.2,203.3" fill="rgb(13,13,16)"/><polygon points="236.3,233.4 241.7,237.4 245.3,240.0 240.0,236.0" fill="rgb(12,12,15)"/><polygon points="266.6,203.8 261.0,199.9 264.2,203.3 269.7,207.0" fill="rgb(12,12,15)"/><polygon points="241.7,237.4 248.4,239.2 251.9,241.8 245.3,240.0" fill="rgb(13,13,16)"/><polygon points="270.5,209.4 266.6,203.8 269.7,207.0 273.5,212.6" fill="rgb(10,10,13)"/><polygon points="272.0,216.3 270.5,209.4 266.6,203.8 261.0,199.9 254.3,198.4 247.3,199.3 240.9,202.4 235.7,207.5 232.4,213.9 231.4,220.8 232.7,227.6 236.3,233.4 241.7,237.4 248.4,239.2 255.6,238.5 262.3,235.4 267.7,230.2 271.0,223.5" fill="rgb(30,30,36)"/><polygon points="259.2,217.6 257.5,213.1 253.5,210.7 248.6,211.3 244.8,214.6 243.4,219.4 245.0,223.9 249.1,226.3 254.0,225.8 257.9,222.5" fill="rgb(180,180,190)"/><polygon points="248.4,239.2 255.6,238.5 259.0,241.1 251.9,241.8" fill="rgb(14,14,17)"/><polygon points="272.0,216.3 270.5,209.4 273.5,212.6 275.1,219.4" fill="rgb(8,8,10)"/><polygon points="255.6,238.5 262.3,235.4 265.5,238.1 259.0,241.1" fill="rgb(14,14,17)"/><polygon points="271.0,223.5 272.0,216.3 275.1,219.4 274.1,226.5" fill="rgb(9,9,11)"/><polygon points="262.3,235.4 267.7,230.2 270.8,233.0 265.5,238.1" fill="rgb(13,13,16)"/><polygon points="267.7,230.2 271.0,223.5 274.1,226.5 270.8,233.0" fill="rgb(11,11,14)"/></svg>