<svg xmlns="http://www.w3.org/2000/svg" viewBox="0 0 400 400"><rect width="400" height="400" fill="#0f1020"/><rect x="0" y="250" width="400" height="150" fill="#0a0b17"/><ellipse cx="200" cy="262" rx="120" ry="16" fill="rgba(0,0,0,0.45)"/><polygon points="240.6,200.6 242.4,200.6 222.1,171.1 220.3,171.1" fill="rgb(35,10,18)"/><polygon points="242.4,200.6 222.3,170.5 157.3,168.6 136.1,197.9" fill="rgb(63,87,127)"/><polygon points="136.1,198.0 138.0,198.0 159.1,169.3 157.3,169.3" fill="rgb(35,10,18)"/><polygon points="266.6,237.7 261.2,235.7 262.9,233.4 268.4,235.4" fill="rgb(12,12,15)"/><polygon points="261.2,235.7 255.5,235.6 257.2,233.3 262.9,233.4" fill="rgb(14,14,17)"/><polygon points="265.2,251.6 263.9,247.9 260.6,245.6 256.7,245.5 253.6,247.7 252.5,251.4 253.8,255.2 257.1,257.5 261.0,257.6 264.1,255.3" fill="rgb(180,180,190)"/><polygon points="271.0,241.3 266.6,237.7 268.4,235.4 273.0,239.1" fill="rgb(10,10,12)"/><polygon points="275.3,251.8 274.0,246.2 271.0,241.3 266.6,237.7 261.2,235.7 255.5,235.6 250.3,237.4 246.0,240.9 243.3,245.6 242.5,251.2 243.6,256.8 246.6,261.8 251.1,265.5 256.6,267.6 262.3,267.7 267.6,265.8 271.9,262.2 274.5,257.3" fill="rgb(30,30,36)"/><polygon points="255.5,235.6 250.3,237.4 251.9,235.1 257.2,233.3" fill="rgb(15,15,18)"/><polygon points="274.0,246.2 271.0,241.3 273.0,239.1 276.0,244.1" fill="rgb(8,8,10)"/><polygon points="286.6,202.5 288.8,246.4 102.0,243.0 104.6,198.0" fill="rgb(175,45,57)"/><polygon points="250.3,237.4 246.0,240.9 247.5,238.6 251.9,235.1" fill="rgb(15,15,19)"/><polygon points="275.3,251.8 274.0,246.2 276.0,244.1 277.3,249.7" fill="rgb(11,11,13)"/><polygon points="246.0,240.9 243.3,245.6 244.8,243.5 247.5,238.6" fill="rgb(14,14,18)"/><polygon points="274.5,257.3 275.3,251.8 277.3,249.7 276.5,255.3" fill="rgb(13,13,16)"/><polygon points="243.3,245.6 242.5,251.2 243.9,249.1 244.8,243.5" fill="rgb(13,13,16)"/><polygon points="271.9,262.2 274.5,257.3 276.5,255.3 273.9,260.3" fill="rgb(14,14,18)"/><polygon points="242.5,251.2 243.6,256.8 245.1,254.8 243.9,249.1" fill="rgb(11,11,13)"/><polygon points="267.6,265.8 271.9,262.2 273.9,260.3 269.6,264.0" fill="rgb(15,15,19)"/><polygon points="243.6,256.8 246.6,261.8 248.1,259.9 245.1,254.8" fill="rgb(8,8,10)"/><polygon points="262.3,267.7 267.6,265.8 269.6,264.0 264.2,265.9" fill="rgb(15,15,18)"/><polygon points="276.5,255.3 273.9,260.3 269.6,264.0 264.2,265.9 258.3,265.8 252.7,263.7 248.1,259.9 245.1,254.8 243.9,249.1 244.8,243.5 247.5,238.6 251.9,235.1 257.2,233.3 262.9,233.4 268.4,235.4 273.0,239.1 276.0,244.1 277.3,249.7" fill="rgb(18,18,22)"/><polygon points="141.6,235.2 136.2,233.2 135.8,230.8 141.4,232.9" fill="rgb(12,12,15)"/><polygon points="246.6,261.8 251.1,265.5 252.7,263.7 248.1,259.9" fill="rgb(10,10,12)"/><polygon points="136.2,233.2 130.3,233.1 129.9,230.7 135.8,230.8" fill="rgb(14,14,17)"/><polygon points="139.3,249.4 138.1,245.7 134.9,243.3 130.9,243.2 127.5,245.5 126.0,249.2 127.1,253.0 130.4,255.4 134.5,255.5 137.9,253.2" fill="rgb(180,180,190)"/><polygon points="256.6,267.6 262.3,267.7 264.2,265.9 258.3,265.8" fill="rgb(14,14,17)"/><polygon points="146.0,239.0 141.6,235.2 141.4,232.9 145.8,236.7" fill="rgb(10,10,12)"/><polygon points="251.1,265.5 256.6,267.6 258.3,265.8 252.7,263.7" fill="rgb(12,12,15)"/><polygon points="149.6,249.6 148.8,243.9 146.0,239.0 141.6,235.2 136.2,233.2 130.3,233.1 124.8,234.9 120.1,238.5 116.9,243.3 115.6,249.0 116.3,254.7 119.1,259.8 123.5,263.6 129.0,265.7 135.0,265.7 140.7,263.8 145.3,260.2 148.4,255.2" fill="rgb(30,30,36)"/><polygon points="130.3,233.1 124.8,234.9 124.2,232.5 129.9,230.7" fill="rgb(15,15,18)"/><polygon points="148.8,243.9 146.0,239.0 145.8,236.7 148.6,241.7" fill="rgb(8,8,10)"/><polygon points="124.8,234.9 120.1,238.5 119.4,236.2 124.2,232.5" fill="rgb(15,15,19)"/><polygon points="149.6,249.6 148.8,243.9 148.6,241.7 149.5,247.4" fill="rgb(11,11,13)"/><polygon points="120.1,238.5 116.9,243.3 116.2,241.1 119.4,236.2" fill="rgb(14,14,18)"/><polygon points="148.4,255.2 149.6,249.6 149.5,247.4 148.3,253.2" fill="rgb(13,13,16)"/><polygon points="116.9,243.3 115.6,249.0 114.9,246.8 116.2,241.1" fill="rgb(13,13,16)"/><polygon points="293.8,211.8 291.9,214.0 292.5,224.8 294.4,222.8" fill="rgb(255,235,160)"/><polygon points="145.3,260.2 148.4,255.2 148.3,253.2 145.1,258.2" fill="rgb(14,14,18)"/><polygon points="115.6,249.0 116.3,254.7 115.6,252.6 114.9,246.8" fill="rgb(11,11,13)"/><polygon points="140.7,263.8 145.3,260.2 145.1,258.2 140.4,262.0" fill="rgb(15,15,19)"/><polygon points="116.3,254.7 119.1,259.8 118.4,257.8 115.6,252.6" fill="rgb(8,8,10)"/><polygon points="135.0,265.7 140.7,263.8 140.4,262.0 134.6,263.9" fill="rgb(15,15,18)"/><polygon points="148.3,253.2 145.1,258.2 140.4,262.0 134.6,263.9 128.5,263.8 122.9,261.7 118.4,257.8 115.6,252.6 114.9,246.8 116.2,241.1 119.4,236.2 124.2,232.5 129.9,230.7 135.8,230.8 141.4,232.9 145.8,236.7 148.6,241.7 149.5,247.4" fill="rgb(18,18,22)"/><polygon points="119.1,259.8 123.5,263.6 122.9,261.7 118.4,257.8" fill="rgb(10,10,12)"/><polygon points="129.0,265.7 135.0,265.7 134.6,263.9 128.5,263.8" fill="rgb(14,14,17)"/><polygon points="123.5,263.6 129.0,265.7 128.5,263.8 122.9,261.7" fill="rgb(12,12,15)"/><polygon points="222.3,170.5 232.2,140.0 157.3,137.5 157.3,168.6" fill="rgb(93,19,31)"/><polygon points="242.4,200.6 256.3,172.8 232.2,140.0 222.3,170.5" fill="rgb(13,19,34)"/><polygon points="100.8,207.3 100.1,218.6 100.9,220.7 101.6,209.6" fill="rgb(255,100,110)"/><polygon points="136.1,197.9 157.3,168.6 157.3,137.5 132.6,169.3" fill="rgb(24,36,65)"/><polygon points="286.6,202.5 309.1,173.2 312.5,224.1 288.8,246.4" fill="rgb(140,36,46)"/><polygon points="286.6,202.5 104.6,198.0 95.2,167.0 309.1,173.2" fill="rgb(190,85,93)"/><polygon points="303.4,217.3 295.1,226.0 295.6,235.3 304.0,227.2" fill="rgb(18,18,22)"/><polygon points="288.8,246.4 312.5,224.1 91.8,219.3 102.0,243.0" fill="rgb(23,6,9)"/><polygon points="95.2,167.0 104.6,198.0 102.0,243.0 91.8,219.3" fill="rgb(98,16,26)"/><polygon points="305.2,198.6 303.0,201.2 303.7,212.8 305.9,210.4" fill="rgb(255,235,160)"/><polygon points="254.2,172.7 256.3,172.8 232.5,139.1 230.4,139.0" fill="rgb(35,10,18)"/><polygon points="256.3,172.8 132.6,169.3 157.3,137.5 232.2,140.0" fill="rgb(67,92,134)"/><polygon points="95.9,193.3 95.2,205.4 96.1,208.0 96.9,196.0" fill="rgb(255,100,110)"/><polygon points="132.6,169.2 134.8,169.3 159.4,136.6 157.3,136.5" fill="rgb(35,10,18)"/><polygon points="288.5,210.9 282.1,208.5 279.6,211.7 285.9,214.1" fill="rgb(12,12,15)"/><polygon points="282.1,208.5 275.3,208.4 273.0,211.6 279.6,211.7" fill="rgb(14,14,17)"/><polygon points="293.9,215.2 288.5,210.9 285.9,214.1 291.2,218.3" fill="rgb(10,10,12)"/><polygon points="295.6,236.9 292.6,242.6 287.6,246.8 281.4,249.0 274.6,248.9 268.1,246.4 262.8,242.0 259.2,236.2 257.8,229.7 258.7,223.2 261.9,217.7 266.8,213.6 273.0,211.6 279.6,211.7 285.9,214.1 291.2,218.3 294.9,224.0 296.4,230.5" fill="rgb(18,18,22)"/><polygon points="275.3,208.4 269.0,210.4 266.8,213.6 273.0,211.6" fill="rgb(15,15,18)"/><polygon points="297.6,221.0 293.9,215.2 291.2,218.3 294.9,224.0" fill="rgb(8,8,10)"/><polygon points="309.1,173.2 95.2,167.0 91.8,219.3 312.5,224.1" fill="rgb(175,45,57)"/><polygon points="269.0,210.4 264.0,214.6 261.9,217.7 266.8,213.6" fill="rgb(15,15,19)"/><polygon points="299.2,227.6 297.6,221.0 294.9,224.0 296.4,230.5" fill="rgb(11,11,13)"/><polygon points="264.0,214.6 260.8,220.2 258.7,223.2 261.9,217.7" fill="rgb(14,14,18)"/><polygon points="298.4,234.2 299.2,227.6 296.4,230.5 295.6,236.9" fill="rgb(13,13,16)"/><polygon points="260.8,220.2 259.8,226.8 257.8,229.7 258.7,223.2" fill="rgb(13,13,16)"/><polygon points="295.3,240.0 298.4,234.2 295.6,236.9 292.6,242.6" fill="rgb(14,14,18)"/><polygon points="259.8,226.8 261.3,233.5 259.2,236.2 257.8,229.7" fill="rgb(11,11,13)"/><polygon points="290.3,244.3 295.3,240.0 292.6,242.6 287.6,246.8" fill="rgb(15,15,19)"/><polygon points="261.3,233.5 264.9,239.4 262.8,242.0 259.2,236.2" fill="rgb(8,8,10)"/><polygon points="283.9,246.5 290.3,244.3 287.6,246.8 281.4,249.0" fill="rgb(15,15,18)"/><polygon points="299.2,227.6 297.6,221.0 293.9,215.2 288.5,210.9 282.1,208.5 275.3,208.4 269.0,210.4 264.0,214.6 260.8,220.2 259.8,226.8 261.3,233.5 264.9,239.4 270.4,243.9 277.0,246.3 283.9,246.5 290.3,244.3 295.3,240.0 298.4,234.2" fill="rgb(30,30,36)"/><polygon points="138.4,207.4 131.9,204.9 132.4,208.3 138.8,210.7" fill="rgb(12,12,15)"/><polygon points="264.9,239.4 270.4,243.9 268.1,246.4 262.8,242.0" fill="rgb(10,10,12)"/><polygon points="131.9,204.9 124.8,204.8 125.5,208.1 132.4,208.3" fill="rgb(14,14,17)"/><polygon points="287.3,227.3 285.6,222.9 281.7,220.1 277.0,220.0 273.3,222.6 272.0,227.0 273.6,231.4 277.6,234.2 282.4,234.3 286.1,231.7" fill="rgb(180,180,190)"/><polygon points="277.0,246.3 283.9,246.5 281.4,249.0 274.6,248.9" fill="rgb(14,14,17)"/><polygon points="143.7,211.8 138.4,207.4 138.8,210.7 144.0,215.0" fill="rgb(10,10,12)"/><polygon points="270.4,243.9 277.0,246.3 274.6,248.9 268.1,246.4" fill="rgb(12,12,15)"/><polygon points="146.8,234.0 143.1,239.8 137.6,244.1 130.9,246.3 123.8,246.2 117.3,243.7 112.0,239.2 108.8,233.3 107.9,226.6 109.5,220.0 113.3,214.3 118.9,210.2 125.5,208.1 132.4,208.3 138.8,210.7 144.0,215.0 147.2,220.8 148.2,227.4" fill="rgb(18,18,22)"/><polygon points="124.8,204.8 118.1,206.9 118.9,210.2 125.5,208.1" fill="rgb(15,15,18)"/><polygon points="147.0,217.7 143.7,211.8 144.0,215.0 147.2,220.8" fill="rgb(8,8,10)"/><polygon points="118.1,206.9 112.4,211.1 113.3,214.3 118.9,210.2" fill="rgb(15,15,19)"/><polygon points="148.1,224.4 147.0,217.7 147.2,220.8 148.2,227.4" fill="rgb(11,11,13)"/><polygon points="112.4,211.1 108.5,216.9 109.5,220.0 113.3,214.3" fill="rgb(14,14,18)"/><polygon points="146.6,231.2 148.1,224.4 148.2,227.4 146.8,234.0" fill="rgb(13,13,16)"/><polygon points="108.5,216.9 106.9,223.6 107.9,226.6 109.5,220.0" fill="rgb(13,13,16)"/><polygon points="142.8,237.1 146.6,231.2 146.8,234.0 143.1,239.8" fill="rgb(14,14,18)"/><polygon points="106.9,223.6 107.8,230.4 108.8,233.3 107.9,226.6" fill="rgb(11,11,13)"/><polygon points="137.2,241.4 142.8,237.1 143.1,239.8 137.6,244.1" fill="rgb(15,15,19)"/><polygon points="107.8,230.4 111.1,236.4 112.0,239.2 108.8,233.3" fill="rgb(8,8,10)"/><polygon points="130.3,243.7 137.2,241.4 137.6,244.1 130.9,246.3" fill="rgb(15,15,18)"/><polygon points="148.1,224.4 147.0,217.7 143.7,211.8 138.4,207.4 131.9,204.9 124.8,204.8 118.1,206.9 112.4,211.1 108.5,216.9 106.9,223.6 107.8,230.4 111.1,236.4 116.4,241.0 123.1,243.5 130.3,243.7 137.2,241.4 142.8,237.1 146.6,231.2" fill="rgb(30,30,36)"/><polygon points="111.1,236.4 116.4,241.0 117.3,243.7 112.0,239.2" fill="rgb(10,10,12)"/><polygon points="135.5,224.1 134.2,219.6 130.3,216.7 125.4,216.6 121.3,219.3 119.5,223.8 120.8,228.3 124.7,231.2 129.7,231.3 133.8,228.6" fill="rgb(180,180,190)"/><polygon points="123.1,243.5 130.3,243.7 130.9,246.3 123.8,246.2" fill="rgb(14,14,17)"/><polygon points="116.4,241.0 123.1,243.5 123.8,246.2 117.3,243.7" fill="rgb(12,12,15)"/></svg>