<svg xmlns="http://www.w3.org/2000/svg" viewBox="0 0 400 400"><rect width="400" height="400" fill="#0f1020"/><rect x="0" y="250" width="400" height="150" fill="#0a0b17"/><ellipse cx="200" cy="262" rx="120" ry="16" fill="rgba(0,0,0,0.45)"/><polygon points="229.9,207.3 228.5,207.1 212.1,175.5 213.6,175.9" fill="rgb(35,10,18)"/><polygon points="238.0,247.4 240.4,252.3 245.6,250.7 243.2,245.7" fill="rgb(10,10,13)"/><polygon points="234.6,243.4 238.0,247.4 243.2,245.7 239.7,241.7" fill="rgb(8,8,10)"/><polygon points="240.4,252.3 241.3,257.7 246.5,256.1 245.6,250.7" fill="rgb(13,13,16)"/><polygon points="230.3,241.0 234.6,243.4 239.7,241.7 235.4,239.2" fill="rgb(11,11,14)"/><polygon points="241.3,257.7 240.6,262.9 245.8,261.4 246.5,256.1" fill="rgb(16,16,19)"/><polygon points="263.1,224.3 263.5,234.5 267.9,233.0 267.5,222.7" fill="rgb(255,100,110)"/><polygon points="225.7,240.3 230.3,241.0 235.4,239.2 230.8,238.5" fill="rgb(14,14,17)"/><polygon points="240.6,262.9 238.5,267.3 243.7,265.9 245.8,261.4" fill="rgb(17,17,21)"/><polygon points="223.0,255.3 223.9,251.8 226.4,250.0 229.6,250.4 232.2,253.0 233.2,256.7 232.3,260.1 229.8,262.0 226.6,261.6 224.0,259.0" fill="rgb(180,180,190)"/><polygon points="214.9,254.2 215.7,248.8 217.9,244.4 221.5,241.5 225.7,240.3 230.3,241.0 234.6,243.4 238.0,247.4 240.4,252.3 241.3,257.7 240.6,262.9 238.5,267.3 235.1,270.4 230.8,271.8 226.2,271.3 221.8,268.8 218.2,264.8 215.8,259.7" fill="rgb(30,30,36)"/><polygon points="221.5,241.5 225.7,240.3 230.8,238.5 226.5,239.7" fill="rgb(16,16,19)"/><polygon points="238.5,267.3 235.1,270.4 240.3,269.0 243.7,265.9" fill="rgb(17,17,21)"/><polygon points="217.9,244.4 221.5,241.5 226.5,239.7 222.9,242.7" fill="rgb(17,17,21)"/><polygon points="235.1,270.4 230.8,271.8 236.0,270.4 240.3,269.0" fill="rgb(16,16,19)"/><polygon points="220.8,258.1 223.2,263.3 226.9,267.4 231.3,269.8 236.0,270.4 240.3,269.0 243.7,265.9 245.8,261.4 246.5,256.1 245.6,250.7 243.2,245.7 239.7,241.7 235.4,239.2 230.8,238.5 226.5,239.7 222.9,242.7 220.6,247.1 219.9,252.5" fill="rgb(18,18,22)"/><polygon points="215.7,248.8 217.9,244.4 222.9,242.7 220.6,247.1" fill="rgb(17,17,21)"/><polygon points="230.8,271.8 226.2,271.3 231.3,269.8 236.0,270.4" fill="rgb(14,14,17)"/><polygon points="214.9,254.2 215.7,248.8 220.6,247.1 219.9,252.5" fill="rgb(16,16,19)"/><polygon points="226.2,271.3 221.8,268.8 226.9,267.4 231.3,269.8" fill="rgb(11,11,14)"/><polygon points="215.8,259.7 214.9,254.2 219.9,252.5 220.8,258.1" fill="rgb(13,13,16)"/><polygon points="221.8,268.8 218.2,264.8 223.2,263.3 226.9,267.4" fill="rgb(8,8,10)"/><polygon points="218.2,264.8 215.8,259.7 220.8,258.1 223.2,263.3" fill="rgb(10,10,13)"/><polygon points="252.3,212.5 304.6,191.0 307.6,237.7 253.6,254.0" fill="rgb(121,20,32)"/><polygon points="137.4,189.6 230.0,207.3 214.6,175.3 158.1,162.7" fill="rgb(52,71,103)"/><polygon points="277.3,186.0 257.7,151.1 214.6,175.3 230.0,207.3" fill="rgb(17,25,44)"/><polygon points="90.0,181.7 252.3,212.5 253.6,254.0 86.7,230.6" fill="rgb(143,37,47)"/><polygon points="288.6,214.9 289.2,225.7 294.2,223.9 293.6,213.0" fill="rgb(255,100,110)"/><polygon points="139.1,190.0 137.3,189.7 157.2,163.3 158.9,163.7" fill="rgb(35,10,18)"/><polygon points="196.8,135.0 158.1,162.7 214.6,175.3 257.7,151.1" fill="rgb(93,19,31)"/><polygon points="127.2,150.2 304.6,191.0 252.3,212.5 90.0,181.7" fill="rgb(190,85,93)"/><polygon points="277.4,185.9 275.9,185.6 257.4,150.0 258.9,150.4" fill="rgb(35,10,18)"/><polygon points="128.8,231.5 131.4,237.1 135.5,235.0 132.9,229.3" fill="rgb(10,10,13)"/><polygon points="124.6,227.0 128.8,231.5 132.9,229.3 128.6,224.8" fill="rgb(8,8,10)"/><polygon points="131.4,237.1 132.1,243.1 136.3,241.1 135.5,235.0" fill="rgb(13,13,16)"/><polygon points="119.3,224.2 124.6,227.0 128.6,224.8 123.3,221.9" fill="rgb(11,11,14)"/><polygon points="132.1,243.1 130.9,248.9 135.1,247.0 136.3,241.1" fill="rgb(16,16,19)"/><polygon points="113.5,223.3 119.3,224.2 123.3,221.9 117.4,221.0" fill="rgb(14,14,17)"/><polygon points="130.9,248.9 127.8,253.8 132.0,252.0 135.1,247.0" fill="rgb(17,17,21)"/><polygon points="296.9,227.8 299.6,233.5 292.8,235.7 290.2,230.0" fill="rgb(10,10,13)"/><polygon points="108.8,240.1 110.3,236.2 113.7,234.2 117.8,234.8 120.9,237.7 122.0,241.8 120.5,245.7 117.1,247.7 113.1,247.2 109.9,244.3" fill="rgb(180,180,190)"/><polygon points="292.9,223.2 296.9,227.8 290.2,230.0 286.3,225.5" fill="rgb(8,8,10)"/><polygon points="299.6,233.5 300.7,239.7 294.0,241.8 292.8,235.7" fill="rgb(13,13,16)"/><polygon points="98.4,238.6 99.8,232.6 103.1,227.8 107.9,224.5 113.5,223.3 119.3,224.2 124.6,227.0 128.8,231.5 131.4,237.1 132.1,243.1 130.9,248.9 127.8,253.8 123.2,257.2 117.6,258.7 111.7,258.0 106.2,255.2 101.8,250.7 99.1,244.9" fill="rgb(30,30,36)"/><polygon points="288.3,220.3 292.9,223.2 286.3,225.5 281.7,222.6" fill="rgb(11,11,14)"/><polygon points="300.7,239.7 300.3,245.7 293.5,247.6 294.0,241.8" fill="rgb(16,16,19)"/><polygon points="107.9,224.5 113.5,223.3 117.4,221.0 111.7,222.2" fill="rgb(16,16,19)"/><polygon points="127.8,253.8 123.2,257.2 127.3,255.4 132.0,252.0" fill="rgb(17,17,21)"/><polygon points="283.4,219.4 288.3,220.3 281.7,222.6 276.8,221.8" fill="rgb(14,14,17)"/><polygon points="300.3,245.7 298.2,250.7 291.3,252.6 293.5,247.6" fill="rgb(17,17,21)"/><polygon points="177.0,163.1 137.4,189.6 158.1,162.7 196.8,135.0" fill="rgb(28,42,75)"/><polygon points="124.6,206.5 86.7,230.6 253.6,254.0 307.6,237.7" fill="rgb(23,6,9)"/><polygon points="266.7,243.5 269.5,249.4 273.6,254.0 278.4,256.8 283.3,257.5 287.8,256.0 291.3,252.6 293.5,247.6 294.0,241.8 292.8,235.7 290.2,230.0 286.3,225.5 281.7,222.6 276.8,221.8 272.2,223.0 268.6,226.2 266.3,231.2 265.6,237.2" fill="rgb(18,18,22)"/><polygon points="103.1,227.8 107.9,224.5 111.7,222.2 106.9,225.5" fill="rgb(17,17,21)"/><polygon points="123.2,257.2 117.6,258.7 121.7,256.9 127.3,255.4" fill="rgb(16,16,19)"/><polygon points="278.8,220.6 283.4,219.4 276.8,221.8 272.2,223.0" fill="rgb(16,16,19)"/><polygon points="298.2,250.7 294.6,254.2 287.8,256.0 291.3,252.6" fill="rgb(17,17,21)"/><polygon points="102.9,242.8 105.6,248.7 110.1,253.4 115.7,256.2 121.7,256.9 127.3,255.4 132.0,252.0 135.1,247.0 136.3,241.1 135.5,235.0 132.9,229.3 128.6,224.8 123.3,221.9 117.4,221.0 111.7,222.2 106.9,225.5 103.6,230.4 102.2,236.4" fill="rgb(18,18,22)"/><polygon points="99.8,232.6 103.1,227.8 106.9,225.5 103.6,230.4" fill="rgb(17,17,21)"/><polygon points="117.6,258.7 111.7,258.0 115.7,256.2 121.7,256.9" fill="rgb(14,14,17)"/><polygon points="275.1,223.9 278.8,220.6 272.2,223.0 268.6,226.2" fill="rgb(17,17,21)"/><polygon points="294.6,254.2 290.1,255.7 283.3,257.5 287.8,256.0" fill="rgb(16,16,19)"/><polygon points="98.4,238.6 99.8,232.6 103.6,230.4 102.2,236.4" fill="rgb(16,16,19)"/><polygon points="111.7,258.0 106.2,255.2 110.1,253.4 115.7,256.2" fill="rgb(11,11,14)"/><polygon points="272.2,235.0 272.8,228.9 275.1,223.9 278.8,220.6 283.4,219.4 288.3,220.3 292.9,223.2 296.9,227.8 299.6,233.5 300.7,239.7 300.3,245.7 298.2,250.7 294.6,254.2 290.1,255.7 285.1,255.0 280.3,252.1 276.1,247.3 273.3,241.4" fill="rgb(30,30,36)"/><polygon points="99.1,244.9 98.4,238.6 102.2,236.4 102.9,242.8" fill="rgb(13,13,16)"/><polygon points="106.2,255.2 101.8,250.7 105.6,248.7 110.1,253.4" fill="rgb(8,8,10)"/><polygon points="281.3,236.4 282.2,232.4 284.9,230.4 288.3,231.0 291.2,234.0 292.4,238.2 291.6,242.2 289.0,244.3 285.5,243.7 282.6,240.7" fill="rgb(180,180,190)"/><polygon points="101.8,250.7 99.1,244.9 102.9,242.8 105.6,248.7" fill="rgb(10,10,13)"/><polygon points="272.8,228.9 275.1,223.9 268.6,226.2 266.3,231.2" fill="rgb(17,17,21)"/><polygon points="290.1,255.7 285.1,255.0 278.4,256.8 283.3,257.5" fill="rgb(14,14,17)"/><polygon points="177.0,163.1 196.8,135.0 257.7,151.1 277.3,186.0" fill="rgb(55,75,110)"/><polygon points="272.2,235.0 272.8,228.9 266.3,231.2 265.6,237.2" fill="rgb(16,16,19)"/><polygon points="285.1,255.0 280.3,252.1 273.6,254.0 278.4,256.8" fill="rgb(11,11,14)"/><polygon points="273.3,241.4 272.2,235.0 265.6,237.2 266.7,243.5" fill="rgb(13,13,16)"/><polygon points="280.3,252.1 276.1,247.3 269.5,249.4 273.6,254.0" fill="rgb(8,8,10)"/><polygon points="276.1,247.3 273.3,241.4 266.7,243.5 269.5,249.4" fill="rgb(10,10,13)"/><polygon points="95.4,194.5 98.5,192.2 97.8,204.4 94.7,206.6" fill="rgb(255,235,160)"/><polygon points="127.2,150.2 124.6,206.5 307.6,237.7 304.6,191.0" fill="rgb(143,37,47)"/><polygon points="179.1,163.5 177.1,163.1 198.0,134.2 199.8,134.7" fill="rgb(35,10,18)"/><polygon points="127.2,150.2 90.0,181.7 86.7,230.6 124.6,206.5" fill="rgb(174,44,56)"/><polygon points="98.3,207.9 111.6,198.6 111.0,209.5 97.7,218.3" fill="rgb(18,18,22)"/><polygon points="113.4,180.7 117.0,177.9 116.3,191.0 112.7,193.6" fill="rgb(255,235,160)"/><polygon points="176.6,206.1 179.7,212.7 174.1,215.5 171.1,209.0" fill="rgb(10,10,13)"/><polygon points="171.8,200.7 176.6,206.1 171.1,209.0 166.3,203.8" fill="rgb(8,8,10)"/><polygon points="179.7,212.7 180.7,219.7 175.1,222.5 174.1,215.5" fill="rgb(13,13,16)"/><polygon points="165.8,197.2 171.8,200.7 166.3,203.8 160.4,200.4" fill="rgb(11,11,14)"/><polygon points="180.7,219.7 179.5,226.5 173.9,229.1 175.1,222.5" fill="rgb(16,16,19)"/><polygon points="159.2,196.0 165.8,197.2 160.4,200.4 153.9,199.2" fill="rgb(14,14,17)"/><polygon points="179.5,226.5 176.2,232.2 170.6,234.7 173.9,229.1" fill="rgb(17,17,21)"/><polygon points="138.3,223.6 141.5,230.4 146.6,235.8 152.8,239.1 159.4,240.1 165.6,238.5 170.6,234.7 173.9,229.1 175.1,222.5 174.1,215.5 171.1,209.0 166.3,203.8 160.4,200.4 153.9,199.2 147.7,200.4 142.4,204.0 138.9,209.5 137.4,216.3" fill="rgb(18,18,22)"/><polygon points="152.9,197.2 159.2,196.0 153.9,199.2 147.7,200.4" fill="rgb(16,16,19)"/><polygon points="176.2,232.2 171.2,236.0 165.6,238.5 170.6,234.7" fill="rgb(17,17,21)"/><polygon points="147.6,200.8 152.9,197.2 147.7,200.4 142.4,204.0" fill="rgb(17,17,21)"/><polygon points="171.2,236.0 164.9,237.6 159.4,240.1 165.6,238.5" fill="rgb(16,16,19)"/><polygon points="142.6,213.4 144.0,206.5 147.6,200.8 152.9,197.2 159.2,196.0 165.8,197.2 171.8,200.7 176.6,206.1 179.7,212.7 180.7,219.7 179.5,226.5 176.2,232.2 171.2,236.0 164.9,237.6 158.2,236.6 151.9,233.2 146.8,227.7 143.5,220.8" fill="rgb(30,30,36)"/><polygon points="154.7,215.3 156.3,210.8 160.1,208.6 164.7,209.4 168.3,212.9 169.6,217.8 168.1,222.2 164.3,224.5 159.7,223.8 156.1,220.3" fill="rgb(180,180,190)"/><polygon points="144.0,206.5 147.6,200.8 142.4,204.0 138.9,209.5" fill="rgb(17,17,21)"/><polygon points="164.9,237.6 158.2,236.6 152.8,239.1 159.4,240.1" fill="rgb(14,14,17)"/><polygon points="142.6,213.4 144.0,206.5 138.9,209.5 137.4,216.3" fill="rgb(16,16,19)"/><polygon points="158.2,236.6 151.9,233.2 146.6,235.8 152.8,239.1" fill="rgb(11,11,14)"/><polygon points="143.5,220.8 142.6,213.4 137.4,216.3 138.3,223.6" fill="rgb(13,13,16)"/><polygon points="151.9,233.2 146.8,227.7 141.5,230.4 146.6,235.8" fill="rgb(8,8,10)"/><polygon points="146.8,227.7 143.5,220.8 138.3,223.6 141.5,230.4" fill="rgb(10,10,13)"/></svg>