<svg xmlns="http://www.w3.org/2000/svg" viewBox="0 0 400 400"><rect width="400" height="400" fill="#0f1020"/><rect x="0" y="250" width="400" height="150" fill="#0a0b17"/><ellipse cx="200" cy="262" rx="120" ry="16" fill="rgba(0,0,0,0.45)"/><polygon points="184.8,230.1 178.1,230.1 178.0,240.0 184.8,240.0" fill="rgb(255,235,160)"/><polygon points="221.9,230.1 215.2,230.1 215.2,240.0 222.0,240.0" fill="rgb(255,235,160)"/><polygon points="162.4,214.7 237.6,214.7 238.5,255.7 161.5,255.7" fill="rgb(179,46,58)"/><polygon points="213.6,243.3 186.4,243.3 186.4,251.6 213.6,251.6" fill="rgb(18,18,22)"/><polygon points="243.8,257.4 243.8,251.9 235.0,251.9 235.1,257.4" fill="rgb(14,14,17)"/><polygon points="156.2,257.4 156.2,251.9 165.0,251.9 164.9,257.4" fill="rgb(14,14,17)"/><polygon points="243.8,251.9 243.9,246.7 235.1,246.7 235.0,251.9" fill="rgb(11,11,13)"/><polygon points="156.2,251.9 156.1,246.7 164.9,246.7 165.0,251.9" fill="rgb(11,11,13)"/><polygon points="244.0,262.5 243.8,257.4 235.1,257.4 235.2,262.5" fill="rgb(16,16,20)"/><polygon points="156.0,262.5 156.2,257.4 164.9,257.4 164.8,262.5" fill="rgb(16,16,20)"/><polygon points="243.9,246.7 244.1,242.2 235.3,242.2 235.1,246.7" fill="rgb(8,8,9)"/><polygon points="156.1,246.7 155.9,242.2 164.7,242.2 164.9,246.7" fill="rgb(8,8,9)"/><polygon points="244.4,266.7 244.0,262.5 235.2,262.5 235.5,266.7" fill="rgb(17,17,21)"/><polygon points="155.6,266.7 156.0,262.5 164.8,262.5 164.5,266.7" fill="rgb(17,17,21)"/><polygon points="244.1,242.2 244.5,239.1 235.6,239.1 235.3,242.2" fill="rgb(11,11,13)"/><polygon points="155.9,242.2 155.5,239.1 164.4,239.1 164.7,242.2" fill="rgb(11,11,13)"/><polygon points="244.8,269.4 244.4,266.7 235.5,266.7 235.9,269.4" fill="rgb(17,17,21)"/><polygon points="155.2,269.4 155.6,266.7 164.5,266.7 164.1,269.4" fill="rgb(17,17,21)"/><polygon points="244.5,239.1 245.0,237.8 236.0,237.8 235.6,239.1" fill="rgb(14,14,17)"/><polygon points="155.5,239.1 155.0,237.8 164.0,237.8 164.4,239.1" fill="rgb(14,14,17)"/><polygon points="245.3,270.4 244.8,269.4 235.9,269.4 236.2,270.4" fill="rgb(16,16,20)"/><polygon points="154.7,270.4 155.2,269.4 164.1,269.4 163.8,270.4" fill="rgb(16,16,20)"/><polygon points="243.8,257.4 243.8,251.9 243.9,246.7 244.1,242.2 244.5,239.1 245.0,237.8 245.4,238.4 245.9,240.9 246.3,245.1 246.5,250.4 246.6,256.2 246.5,261.8 246.2,266.3 245.8,269.3 245.3,270.4 244.8,269.4 244.4,266.7 244.0,262.5" fill="rgb(30,30,36)"/><polygon points="235.2,262.5 235.5,266.7 235.9,269.4 236.2,270.4 236.6,269.3 237.0,266.3 237.2,261.8 237.3,256.2 237.2,250.4 237.0,245.1 236.7,240.9 236.4,238.4 236.0,237.8 235.6,239.1 235.3,242.2 235.1,246.7 235.0,251.9 235.1,257.4" fill="rgb(18,18,22)"/><polygon points="244.9,255.3 244.9,251.5 245.1,248.6 245.4,247.7 245.7,249.2 245.9,252.6 245.9,256.6 245.7,259.5 245.4,260.3 245.1,258.7" fill="rgb(180,180,190)"/><polygon points="164.8,262.5 164.5,266.7 164.1,269.4 163.8,270.4 163.4,269.3 163.0,266.3 162.8,261.8 162.7,256.2 162.8,250.4 163.0,245.1 163.3,240.9 163.6,238.4 164.0,237.8 164.4,239.1 164.7,242.2 164.9,246.7 165.0,251.9 164.9,257.4" fill="rgb(18,18,22)"/><polygon points="156.2,257.4 156.2,251.9 156.1,246.7 155.9,242.2 155.5,239.1 155.0,237.8 154.6,238.4 154.1,240.9 153.7,245.1 153.5,250.4 153.4,256.2 153.5,261.8 153.8,266.3 154.2,269.3 154.7,270.4 155.2,269.4 155.6,266.7 156.0,262.5" fill="rgb(30,30,36)"/><polygon points="155.1,255.3 155.1,251.5 154.9,248.6 154.6,247.7 154.3,249.2 154.1,252.6 154.1,256.6 154.3,259.5 154.6,260.3 154.9,258.7" fill="rgb(180,180,190)"/><polygon points="245.0,237.8 245.4,238.4 236.4,238.4 236.0,237.8" fill="rgb(16,16,20)"/><polygon points="155.0,237.8 154.6,238.4 163.6,238.4 164.0,237.8" fill="rgb(16,16,20)"/><polygon points="245.8,269.3 245.3,270.4 236.2,270.4 236.6,269.3" fill="rgb(14,14,17)"/><polygon points="154.2,269.3 154.7,270.4 163.8,270.4 163.4,269.3" fill="rgb(14,14,17)"/><polygon points="162.0,201.8 238.0,201.8 236.9,165.7 163.1,165.7" fill="rgb(17,26,46)"/><polygon points="245.4,238.4 245.9,240.9 236.7,240.9 236.4,238.4" fill="rgb(17,17,21)"/><polygon points="154.6,238.4 154.1,240.9 163.3,240.9 163.6,238.4" fill="rgb(17,17,21)"/><polygon points="238.3,201.2 238.2,201.8 238.8,165.7 238.9,165.0" fill="rgb(35,10,18)"/><polygon points="161.7,201.2 161.8,201.8 161.2,165.7 161.1,165.0" fill="rgb(35,10,18)"/><polygon points="246.2,266.3 245.8,269.3 236.6,269.3 237.0,266.3" fill="rgb(11,11,13)"/><polygon points="153.8,266.3 154.2,269.3 163.4,269.3 163.0,266.3" fill="rgb(11,11,13)"/><polygon points="245.9,240.9 246.3,245.1 237.0,245.1 236.7,240.9" fill="rgb(17,17,21)"/><polygon points="154.1,240.9 153.7,245.1 163.0,245.1 163.3,240.9" fill="rgb(17,17,21)"/><polygon points="246.5,261.8 246.2,266.3 237.0,266.3 237.2,261.8" fill="rgb(8,8,9)"/><polygon points="153.5,261.8 153.8,266.3 163.0,266.3 162.8,261.8" fill="rgb(8,8,9)"/><polygon points="246.3,245.1 246.5,250.4 237.2,250.4 237.0,245.1" fill="rgb(16,16,20)"/><polygon points="153.7,245.1 153.5,250.4 162.8,250.4 163.0,245.1" fill="rgb(16,16,20)"/><polygon points="246.6,256.2 246.5,261.8 237.2,261.8 237.3,256.2" fill="rgb(11,11,13)"/><polygon points="153.4,256.2 153.5,261.8 162.8,261.8 162.7,256.2" fill="rgb(11,11,13)"/><polygon points="246.5,250.4 246.6,256.2 237.3,256.2 237.2,250.4" fill="rgb(14,14,17)"/><polygon points="153.5,250.4 153.4,256.2 162.7,256.2 162.8,250.4" fill="rgb(14,14,17)"/><polygon points="163.1,165.7 236.9,165.7 242.0,137.2 158.0,137.2" fill="rgb(93,19,31)"/><polygon points="162.4,214.7 145.8,145.7 254.2,145.7 237.6,214.7" fill="rgb(190,85,93)"/><polygon points="238.0,201.8 247.0,161.4 242.0,137.2 236.9,165.7" fill="rgb(48,66,96)"/><polygon points="162.0,201.8 163.1,165.7 158.0,137.2 153.0,161.4" fill="rgb(51,71,103)"/><polygon points="237.6,214.7 254.2,145.7 256.1,202.9 238.5,255.7" fill="rgb(134,34,44)"/><polygon points="162.4,214.7 161.5,255.7 143.9,202.9 145.8,145.7" fill="rgb(134,34,44)"/><polygon points="161.5,255.7 238.5,255.7 256.1,202.9 143.9,202.9" fill="rgb(23,6,9)"/><polygon points="247.3,161.4 247.1,162.3 244.0,138.1 244.2,137.2" fill="rgb(35,10,18)"/><polygon points="152.7,161.4 152.9,162.3 156.0,138.1 155.8,137.2" fill="rgb(35,10,18)"/><polygon points="153.0,161.4 158.0,137.2 242.0,137.2 247.0,161.4" fill="rgb(29,43,77)"/><polygon points="256.1,225.6 256.0,218.6 244.8,218.6 244.9,225.6" fill="rgb(14,14,17)"/><polygon points="143.9,225.6 144.0,218.6 155.2,218.6 155.1,225.6" fill="rgb(14,14,17)"/><polygon points="256.0,218.6 256.2,211.8 244.9,211.8 244.8,218.6" fill="rgb(11,11,13)"/><polygon points="144.0,218.6 143.8,211.8 155.1,211.8 155.2,218.6" fill="rgb(11,11,13)"/><polygon points="256.5,232.0 256.1,225.6 244.9,225.6 245.2,232.0" fill="rgb(16,16,20)"/><polygon points="143.5,232.0 143.9,225.6 155.1,225.6 154.8,232.0" fill="rgb(16,16,20)"/><polygon points="256.2,211.8 256.6,205.8 245.3,205.8 244.9,211.8" fill="rgb(8,8,9)"/><polygon points="143.8,211.8 143.4,205.8 154.7,205.8 155.1,211.8" fill="rgb(8,8,9)"/><polygon points="257.0,237.0 256.5,232.0 245.2,232.0 245.6,237.0" fill="rgb(17,17,21)"/><polygon points="143.0,237.0 143.5,232.0 154.8,232.0 154.4,237.0" fill="rgb(17,17,21)"/><polygon points="256.6,205.8 257.2,201.5 245.8,201.5 245.3,205.8" fill="rgb(11,11,13)"/><polygon points="143.4,205.8 142.8,201.5 154.2,201.5 154.7,205.8" fill="rgb(11,11,13)"/><polygon points="142.2,240.2 143.0,237.0 154.4,237.0 153.8,240.2" fill="rgb(17,17,21)"/><polygon points="257.8,240.2 257.0,237.0 245.6,237.0 246.2,240.2" fill="rgb(17,17,21)"/><polygon points="257.2,201.5 258.0,199.2 246.4,199.2 245.8,201.5" fill="rgb(14,14,17)"/><polygon points="142.8,201.5 142.0,199.2 153.6,199.2 154.2,201.5" fill="rgb(14,14,17)"/><polygon points="258.6,241.0 257.8,240.2 246.2,240.2 246.9,241.0" fill="rgb(16,16,20)"/><polygon points="141.4,241.0 142.2,240.2 153.8,240.2 153.1,241.0" fill="rgb(16,16,20)"/><polygon points="256.1,225.6 256.0,218.6 256.2,211.8 256.6,205.8 257.2,201.5 258.0,199.2 258.8,199.4 259.6,202.2 260.2,207.2 260.6,213.9 260.7,221.5 260.5,228.8 260.1,235.0 259.4,239.2 258.6,241.0 257.8,240.2 257.0,237.0 256.5,232.0" fill="rgb(30,30,36)"/><polygon points="245.2,232.0 245.6,237.0 246.2,240.2 246.9,241.0 247.5,239.2 248.0,235.0 248.4,228.8 248.6,221.5 248.5,213.9 248.2,207.2 247.7,202.2 247.0,199.4 246.4,199.2 245.8,201.5 245.3,205.8 244.9,211.8 244.8,218.6 244.9,225.6" fill="rgb(18,18,22)"/><polygon points="143.9,225.6 144.0,218.6 143.8,211.8 143.4,205.8 142.8,201.5 142.0,199.2 141.2,199.4 140.4,202.2 139.8,207.2 139.4,213.9 139.3,221.5 139.5,228.8 139.9,235.0 140.6,239.2 141.4,241.0 142.2,240.2 143.0,237.0 143.5,232.0" fill="rgb(30,30,36)"/><polygon points="257.8,222.2 257.8,217.2 258.1,213.3 258.6,211.8 259.2,213.5 259.5,217.7 259.5,222.8 259.2,226.8 258.6,228.1 258.1,226.4" fill="rgb(180,180,190)"/><polygon points="154.8,232.0 154.4,237.0 153.8,240.2 153.1,241.0 152.5,239.2 152.0,235.0 151.6,228.8 151.4,221.5 151.5,213.9 151.8,207.2 152.3,202.2 153.0,199.4 153.6,199.2 154.2,201.5 154.7,205.8 155.1,211.8 155.2,218.6 155.1,225.6" fill="rgb(18,18,22)"/><polygon points="142.2,222.2 142.2,217.2 141.9,213.3 141.4,211.8 140.8,213.5 140.5,217.7 140.5,222.8 140.8,226.8 141.4,228.1 141.9,226.4" fill="rgb(180,180,190)"/><polygon points="258.0,199.2 258.8,199.4 247.0,199.4 246.4,199.2" fill="rgb(16,16,20)"/><polygon points="142.0,199.2 141.2,199.4 153.0,199.4 153.6,199.2" fill="rgb(16,16,20)"/><polygon points="259.4,239.2 258.6,241.0 246.9,241.0 247.5,239.2" fill="rgb(14,14,17)"/><polygon points="140.6,239.2 141.4,241.0 153.1,241.0 152.5,239.2" fill="rgb(14,14,17)"/><polygon points="258.8,199.4 259.6,202.2 247.7,202.2 247.0,199.4" fill="rgb(17,17,21)"/><polygon points="141.2,199.4 140.4,202.2 152.3,202.2 153.0,199.4" fill="rgb(17,17,21)"/><polygon points="260.1,235.0 259.4,239.2 247.5,239.2 248.0,235.0" fill="rgb(11,11,13)"/><polygon points="139.9,235.0 140.6,239.2 152.5,239.2 152.0,235.0" fill="rgb(11,11,13)"/><polygon points="259.6,202.2 260.2,207.2 248.2,207.2 247.7,202.2" fill="rgb(17,17,21)"/><polygon points="140.4,202.2 139.8,207.2 151.8,207.2 152.3,202.2" fill="rgb(17,17,21)"/><polygon points="260.5,228.8 260.1,235.0 248.0,235.0 248.4,228.8" fill="rgb(8,8,9)"/><polygon points="139.5,228.8 139.9,235.0 152.0,235.0 151.6,228.8" fill="rgb(8,8,9)"/><polygon points="260.2,207.2 260.6,213.9 248.5,213.9 248.2,207.2" fill="rgb(16,16,20)"/><polygon points="139.8,207.2 139.4,213.9 151.5,213.9 151.8,207.2" fill="rgb(16,16,20)"/><polygon points="260.7,221.5 260.5,228.8 248.4,228.8 248.6,221.5" fill="rgb(11,11,13)"/><polygon points="139.3,221.5 139.5,228.8 151.6,228.8 151.4,221.5" fill="rgb(11,11,13)"/><polygon points="260.6,213.9 260.7,221.5 248.6,221.5 248.5,213.9" fill="rgb(14,14,17)"/><polygon points="139.4,213.9 139.3,221.5 151.4,221.5 151.5,213.9" fill="rgb(14,14,17)"/><polygon points="254.2,145.7 145.8,145.7 143.9,202.9 256.1,202.9" fill="rgb(125,21,33)"/><polygon points="178.0,166.8 177.8,180.6 168.0,180.6 168.3,166.8" fill="rgb(255,100,110)"/><polygon points="231.7,166.8 232.0,180.6 222.2,180.6 222.0,166.8" fill="rgb(255,100,110)"/></svg>