<svg xmlns="http://www.w3.org/2000/svg" viewBox="0 0 400 400"><rect width="400" height="400" fill="#0f1020"/><rect x="0" y="250" width="400" height="150" fill="#0a0b17"/><ellipse cx="200" cy="262" rx="120" ry="16" fill="rgba(0,0,0,0.45)"/><polygon points="229.2,203.1 230.9,203.3 212.1,172.6 210.4,172.4" fill="rgb(35,10,18)"/><polygon points="255.5,244.8 251.5,241.0 255.1,239.0 259.2,242.8" fill="rgb(9,9,11)"/><polygon points="258.2,249.7 255.5,244.8 259.2,242.8 261.9,247.8" fill="rgb(9,9,11)"/><polygon points="251.5,241.0 246.6,238.8 250.1,236.7 255.1,239.0" fill="rgb(12,12,14)"/><polygon points="259.3,255.2 258.2,249.7 261.9,247.8 263.0,253.3" fill="rgb(12,12,15)"/><polygon points="246.6,238.8 241.4,238.4 244.9,236.3 250.1,236.7" fill="rgb(14,14,17)"/><polygon points="250.1,254.6 248.9,250.9 245.9,248.4 242.3,248.2 239.5,250.2 238.4,253.8 239.6,257.5 242.6,260.0 246.2,260.2 249.1,258.1" fill="rgb(180,180,190)"/><polygon points="259.3,255.2 258.2,249.7 255.5,244.8 251.5,241.0 246.6,238.8 241.4,238.4 236.5,239.8 232.6,243.1 230.0,247.6 229.2,253.0 230.2,258.6 233.0,263.6 237.1,267.5 242.2,269.8 247.4,270.1 252.3,268.5 256.1,265.2 258.6,260.5" fill="rgb(30,30,36)"/><polygon points="258.6,260.5 259.3,255.2 263.0,253.3 262.3,258.8" fill="rgb(14,14,18)"/><polygon points="241.4,238.4 236.5,239.8 239.9,237.8 244.9,236.3" fill="rgb(16,16,19)"/><polygon points="256.1,265.2 258.6,260.5 262.3,258.8 259.9,263.5" fill="rgb(16,16,19)"/><polygon points="236.5,239.8 232.6,243.1 236.0,241.0 239.9,237.8" fill="rgb(16,16,20)"/><polygon points="252.3,268.5 256.1,265.2 259.9,263.5 256.0,266.8" fill="rgb(16,16,20)"/><polygon points="232.6,243.1 230.0,247.6 233.4,245.6 236.0,241.0" fill="rgb(16,16,19)"/><polygon points="282.3,217.8 279.0,219.7 279.5,230.2 282.8,228.4" fill="rgb(255,235,160)"/><polygon points="247.4,270.1 252.3,268.5 256.0,266.8 251.0,268.5" fill="rgb(16,16,19)"/><polygon points="230.0,247.6 229.2,253.0 232.5,251.1 233.4,245.6" fill="rgb(14,14,18)"/><polygon points="262.3,258.8 259.9,263.5 256.0,266.8 251.0,268.5 245.7,268.1 240.6,265.9 236.4,261.9 233.6,256.8 232.5,251.1 233.4,245.6 236.0,241.0 239.9,237.8 244.9,236.3 250.1,236.7 255.1,239.0 259.2,242.8 261.9,247.8 263.0,253.3" fill="rgb(18,18,22)"/><polygon points="231.0,203.3 212.7,172.0 149.7,164.4 127.9,192.8" fill="rgb(58,80,116)"/><polygon points="242.2,269.8 247.4,270.1 251.0,268.5 245.7,268.1" fill="rgb(14,14,17)"/><polygon points="229.2,253.0 230.2,258.6 233.6,256.8 232.5,251.1" fill="rgb(12,12,15)"/><polygon points="237.1,267.5 242.2,269.8 245.7,268.1 240.6,265.9" fill="rgb(12,12,14)"/><polygon points="230.2,258.6 233.0,263.6 236.4,261.9 233.6,256.8" fill="rgb(9,9,11)"/><polygon points="233.0,263.6 237.1,267.5 240.6,265.9 236.4,261.9" fill="rgb(9,9,11)"/><polygon points="270.6,208.2 272.4,250.7 91.8,237.2 94.8,190.3" fill="rgb(161,41,52)"/><polygon points="127.8,192.8 129.7,193.0 151.1,165.3 149.3,165.1" fill="rgb(35,10,18)"/><polygon points="270.6,208.2 309.9,182.4 313.1,231.1 272.4,250.7" fill="rgb(159,41,52)"/><polygon points="298.1,223.9 283.8,231.5 284.3,240.5 298.6,233.4" fill="rgb(18,18,22)"/><polygon points="231.0,203.3 262.5,177.9 239.8,143.6 212.7,172.0" fill="rgb(15,22,40)"/><polygon points="135.9,235.5 131.6,231.5 133.4,229.1 137.9,233.2" fill="rgb(9,9,11)"/><polygon points="138.7,240.8 135.9,235.5 137.9,233.2 140.7,238.6" fill="rgb(9,9,11)"/><polygon points="131.6,231.5 126.1,229.0 127.8,226.6 133.4,229.1" fill="rgb(12,12,14)"/><polygon points="139.5,246.6 138.7,240.8 140.7,238.6 141.5,244.5" fill="rgb(12,12,15)"/><polygon points="126.1,229.0 120.1,228.5 121.8,226.1 127.8,226.6" fill="rgb(14,14,17)"/><polygon points="129.0,245.9 127.9,242.0 124.6,239.3 120.5,239.0 117.0,241.2 115.5,245.0 116.6,249.0 119.9,251.6 124.1,251.9 127.6,249.7" fill="rgb(180,180,190)"/><polygon points="139.5,246.6 138.7,240.8 135.9,235.5 131.6,231.5 126.1,229.0 120.1,228.5 114.4,230.1 109.5,233.5 106.2,238.4 104.8,244.1 105.5,250.1 108.3,255.5 112.9,259.7 118.5,262.1 124.6,262.5 130.4,260.8 135.1,257.3 138.3,252.3" fill="rgb(30,30,36)"/><polygon points="138.3,252.3 139.5,246.6 141.5,244.5 140.3,250.3" fill="rgb(14,14,18)"/><polygon points="120.1,228.5 114.4,230.1 115.9,227.7 121.8,226.1" fill="rgb(16,16,19)"/><polygon points="212.7,172.0 239.8,143.6 168.6,133.7 149.7,164.4" fill="rgb(93,19,31)"/><polygon points="135.1,257.3 138.3,252.3 140.3,250.3 137.1,255.3" fill="rgb(16,16,19)"/><polygon points="114.4,230.1 109.5,233.5 111.0,231.1 115.9,227.7" fill="rgb(16,16,20)"/><polygon points="130.4,260.8 135.1,257.3 137.1,255.3 132.2,258.9" fill="rgb(16,16,20)"/><polygon points="109.5,233.5 106.2,238.4 107.6,236.1 111.0,231.1" fill="rgb(16,16,19)"/><polygon points="301.9,206.2 298.1,208.4 298.8,219.6 302.6,217.5" fill="rgb(255,235,160)"/><polygon points="124.6,262.5 130.4,260.8 132.2,258.9 126.4,260.6" fill="rgb(16,16,19)"/><polygon points="106.2,238.4 104.8,244.1 106.2,241.9 107.6,236.1" fill="rgb(14,14,18)"/><polygon points="140.3,250.3 137.1,255.3 132.2,258.9 126.4,260.6 120.2,260.2 114.4,257.8 109.8,253.5 107.0,248.0 106.2,241.9 107.6,236.1 111.0,231.1 115.9,227.7 121.8,226.1 127.8,226.6 133.4,229.1 137.9,233.2 140.7,238.6 141.5,244.5" fill="rgb(18,18,22)"/><polygon points="270.6,208.2 94.8,190.3 107.6,158.0 309.9,182.4" fill="rgb(190,85,93)"/><polygon points="118.5,262.1 124.6,262.5 126.4,260.6 120.2,260.2" fill="rgb(14,14,17)"/><polygon points="104.8,244.1 105.5,250.1 107.0,248.0 106.2,241.9" fill="rgb(12,12,15)"/><polygon points="112.9,259.7 118.5,262.1 120.2,260.2 114.4,257.8" fill="rgb(12,12,14)"/><polygon points="105.5,250.1 108.3,255.5 109.8,253.5 107.0,248.0" fill="rgb(9,9,11)"/><polygon points="108.3,255.5 112.9,259.7 114.4,257.8 109.8,253.5" fill="rgb(9,9,11)"/><polygon points="127.9,192.8 149.7,164.4 168.6,133.7 144.9,163.8" fill="rgb(26,40,70)"/><polygon points="272.4,250.7 313.1,231.1 104.5,212.5 91.8,237.2" fill="rgb(23,6,9)"/><polygon points="96.8,199.9 96.0,211.7 95.0,213.9 95.7,202.4" fill="rgb(255,100,110)"/><polygon points="260.6,177.6 262.5,177.8 240.6,142.7 238.7,142.5" fill="rgb(35,10,18)"/><polygon points="298.3,221.6 293.5,217.1 288.6,219.9 293.3,224.3" fill="rgb(9,9,11)"/><polygon points="301.6,227.4 298.3,221.6 293.3,224.3 296.5,230.0" fill="rgb(9,9,11)"/><polygon points="293.5,217.1 287.8,214.4 283.0,217.2 288.6,219.9" fill="rgb(12,12,14)"/><polygon points="303.0,233.8 301.6,227.4 296.5,230.0 297.9,236.3" fill="rgb(12,12,15)"/><polygon points="287.8,214.4 281.9,213.8 277.1,216.7 283.0,217.2" fill="rgb(14,14,17)"/><polygon points="297.2,242.4 294.6,247.7 290.3,251.5 284.8,253.3 278.8,252.9 273.0,250.2 268.2,245.7 264.9,239.8 263.6,233.4 264.5,227.1 267.3,221.9 271.7,218.3 277.1,216.7 283.0,217.2 288.6,219.9 293.3,224.3 296.5,230.0 297.9,236.3" fill="rgb(18,18,22)"/><polygon points="302.3,240.0 303.0,233.8 297.9,236.3 297.2,242.4" fill="rgb(14,14,18)"/><polygon points="281.9,213.8 276.3,215.4 271.7,218.3 277.1,216.7" fill="rgb(16,16,19)"/><polygon points="262.5,177.9 144.9,163.8 168.6,133.7 239.8,143.6" fill="rgb(62,85,123)"/><polygon points="299.7,245.4 302.3,240.0 297.2,242.4 294.6,247.7" fill="rgb(16,16,19)"/><polygon points="276.3,215.4 271.8,219.1 267.3,221.9 271.7,218.3" fill="rgb(16,16,20)"/><polygon points="107.6,158.0 94.8,190.3 91.8,237.2 104.5,212.5" fill="rgb(111,18,30)"/><polygon points="295.3,249.3 299.7,245.4 294.6,247.7 290.3,251.5" fill="rgb(16,16,20)"/><polygon points="271.8,219.1 269.0,224.4 264.5,227.1 267.3,221.9" fill="rgb(16,16,19)"/><polygon points="289.7,251.1 295.3,249.3 290.3,251.5 284.8,253.3" fill="rgb(16,16,19)"/><polygon points="269.0,224.4 268.2,230.8 263.6,233.4 264.5,227.1" fill="rgb(14,14,18)"/><polygon points="303.0,233.8 301.6,227.4 298.3,221.6 293.5,217.1 287.8,214.4 281.9,213.8 276.3,215.4 271.8,219.1 269.0,224.4 268.2,230.8 269.5,237.3 272.9,243.3 277.8,247.9 283.6,250.6 289.7,251.1 295.3,249.3 299.7,245.4 302.3,240.0" fill="rgb(30,30,36)"/><polygon points="292.7,232.8 291.1,228.4 287.6,225.5 283.5,225.1 280.2,227.5 279.1,231.6 280.6,236.0 284.2,239.0 288.4,239.3 291.6,236.9" fill="rgb(180,180,190)"/><polygon points="283.6,250.6 289.7,251.1 284.8,253.3 278.8,252.9" fill="rgb(14,14,17)"/><polygon points="268.2,230.8 269.5,237.3 264.9,239.8 263.6,233.4" fill="rgb(12,12,15)"/><polygon points="277.8,247.9 283.6,250.6 278.8,252.9 273.0,250.2" fill="rgb(12,12,14)"/><polygon points="269.5,237.3 272.9,243.3 268.2,245.7 264.9,239.8" fill="rgb(9,9,11)"/><polygon points="272.9,243.3 277.8,247.9 273.0,250.2 268.2,245.7" fill="rgb(9,9,11)"/><polygon points="309.9,182.4 107.6,158.0 104.5,212.5 313.1,231.1" fill="rgb(161,41,52)"/><polygon points="144.9,163.7 147.1,164.0 171.2,133.1 169.2,132.8" fill="rgb(35,10,18)"/><polygon points="103.0,185.4 102.3,198.0 101.1,200.7 101.8,188.2" fill="rgb(255,100,110)"/><polygon points="158.6,208.4 153.3,203.5 150.8,206.8 155.9,211.6" fill="rgb(9,9,11)"/><polygon points="161.9,214.7 158.6,208.4 155.9,211.6 159.2,217.7" fill="rgb(9,9,11)"/><polygon points="153.3,203.5 146.8,200.5 144.3,203.9 150.8,206.8" fill="rgb(12,12,14)"/><polygon points="163.0,221.6 161.9,214.7 159.2,217.7 160.2,224.5" fill="rgb(12,12,15)"/><polygon points="146.8,200.5 139.7,199.8 137.4,203.2 144.3,203.9" fill="rgb(14,14,17)"/><polygon points="158.9,231.2 155.2,236.9 149.8,240.9 143.0,242.8 135.9,242.3 129.3,239.4 123.9,234.4 120.6,228.0 119.7,221.1 121.2,214.4 125.1,208.7 130.7,204.9 137.4,203.2 144.3,203.9 150.8,206.8 155.9,211.6 159.2,217.7 160.2,224.5" fill="rgb(18,18,22)"/><polygon points="161.6,228.3 163.0,221.6 160.2,224.5 158.9,231.2" fill="rgb(14,14,18)"/><polygon points="139.7,199.8 132.9,201.5 130.7,204.9 137.4,203.2" fill="rgb(16,16,19)"/><polygon points="157.9,234.1 161.6,228.3 158.9,231.2 155.2,236.9" fill="rgb(16,16,19)"/><polygon points="132.9,201.5 127.2,205.4 125.1,208.7 130.7,204.9" fill="rgb(16,16,20)"/><polygon points="152.3,238.3 157.9,234.1 155.2,236.9 149.8,240.9" fill="rgb(16,16,20)"/><polygon points="127.2,205.4 123.2,211.1 121.2,214.4 125.1,208.7" fill="rgb(16,16,19)"/><polygon points="145.5,240.2 152.3,238.3 149.8,240.9 143.0,242.8" fill="rgb(16,16,19)"/><polygon points="123.2,211.1 121.7,218.0 119.7,221.1 121.2,214.4" fill="rgb(14,14,18)"/><polygon points="163.0,221.6 161.9,214.7 158.6,208.4 153.3,203.5 146.8,200.5 139.7,199.8 132.9,201.5 127.2,205.4 123.2,211.1 121.7,218.0 122.6,225.1 126.0,231.6 131.5,236.7 138.2,239.6 145.5,240.2 152.3,238.3 157.9,234.1 161.6,228.3" fill="rgb(30,30,36)"/><polygon points="150.6,220.4 149.3,215.7 145.4,212.5 140.4,212.0 136.3,214.5 134.6,219.0 135.9,223.8 139.9,227.0 144.9,227.4 149.0,224.9" fill="rgb(180,180,190)"/><polygon points="138.2,239.6 145.5,240.2 143.0,242.8 135.9,242.3" fill="rgb(14,14,17)"/><polygon points="121.7,218.0 122.6,225.1 120.6,228.0 119.7,221.1" fill="rgb(12,12,15)"/><polygon points="131.5,236.7 138.2,239.6 135.9,242.3 129.3,239.4" fill="rgb(12,12,14)"/><polygon points="122.6,225.1 126.0,231.6 123.9,234.4 120.6,228.0" fill="rgb(9,9,11)"/><polygon points="126.0,231.6 131.5,236.7 129.3,239.4 123.9,234.4" fill="rgb(9,9,11)"/></svg>