<svg xmlns="http://www.w3.org/2000/svg" viewBox="0 0 400 400"><rect width="400" height="400" fill="#0f1020"/><rect x="0" y="250" width="400" height="150" fill="#0a0b17"/><ellipse cx="200" cy="262" rx="120" ry="16" fill="rgba(0,0,0,0.45)"/><polygon points="149.7,226.4 149.4,236.5 154.7,237.7 155.0,227.7" fill="rgb(255,100,110)"/><polygon points="180.6,248.9 178.7,253.9 172.4,252.6 174.3,247.5" fill="rgb(8,8,10)"/><polygon points="178.7,253.9 178.0,259.2 171.6,258.0 172.4,252.6" fill="rgb(9,9,11)"/><polygon points="183.5,244.8 180.6,248.9 174.3,247.5 177.1,243.4" fill="rgb(11,11,13)"/><polygon points="178.0,259.2 178.6,264.3 172.2,263.1 171.6,258.0" fill="rgb(11,11,14)"/><polygon points="185.4,208.9 186.6,208.5 200.1,176.1 198.8,176.5" fill="rgb(35,10,18)"/><polygon points="187.0,242.2 183.5,244.8 177.1,243.4 180.6,240.7" fill="rgb(13,13,15)"/><polygon points="178.6,264.3 180.4,268.6 174.0,267.4 172.2,263.1" fill="rgb(13,13,16)"/><polygon points="190.8,241.3 187.0,242.2 180.6,240.7 184.4,239.8" fill="rgb(14,14,17)"/><polygon points="180.4,268.6 183.2,271.5 176.8,270.4 174.0,267.4" fill="rgb(14,14,17)"/><polygon points="193.3,256.0 192.5,252.7 190.3,250.9 187.7,251.5 185.6,254.2 184.8,257.9 185.5,261.2 187.6,263.0 190.3,262.5 192.4,259.8" fill="rgb(180,180,190)"/><polygon points="200.0,254.5 199.3,249.3 197.4,245.0 194.4,242.2 190.8,241.3 187.0,242.2 183.5,244.8 180.6,248.9 178.7,253.9 178.0,259.2 178.6,264.3 180.4,268.6 183.2,271.5 186.8,272.7 190.6,272.0 194.3,269.5 197.3,265.3 199.3,260.1" fill="rgb(30,30,36)"/><polygon points="194.4,242.2 190.8,241.3 184.4,239.8 188.0,240.8" fill="rgb(14,14,18)"/><polygon points="105.6,198.6 167.7,215.3 166.9,256.1 103.0,243.5" fill="rgb(85,14,23)"/><polygon points="183.2,271.5 186.8,272.7 180.3,271.6 176.8,270.4" fill="rgb(14,14,18)"/><polygon points="192.9,258.8 190.9,264.1 187.8,268.3 184.1,270.9 180.3,271.6 176.8,270.4 174.0,267.4 172.2,263.1 171.6,258.0 172.4,252.6 174.3,247.5 177.1,243.4 180.6,240.7 184.4,239.8 188.0,240.8 191.0,243.5 192.9,247.8 193.6,253.2" fill="rgb(18,18,22)"/><polygon points="197.4,245.0 194.4,242.2 188.0,240.8 191.0,243.5" fill="rgb(14,14,17)"/><polygon points="186.8,272.7 190.6,272.0 184.1,270.9 180.3,271.6" fill="rgb(14,14,17)"/><polygon points="199.3,249.3 197.4,245.0 191.0,243.5 192.9,247.8" fill="rgb(13,13,16)"/><polygon points="190.6,272.0 194.3,269.5 187.8,268.3 184.1,270.9" fill="rgb(13,13,15)"/><polygon points="200.0,254.5 199.3,249.3 192.9,247.8 193.6,253.2" fill="rgb(11,11,14)"/><polygon points="194.3,269.5 197.3,265.3 190.9,264.1 187.8,268.3" fill="rgb(11,11,13)"/><polygon points="199.3,260.1 200.0,254.5 193.6,253.2 192.9,258.8" fill="rgb(9,9,11)"/><polygon points="197.3,265.3 199.3,260.1 192.9,258.8 190.9,264.1" fill="rgb(8,8,10)"/><polygon points="118.8,218.9 118.3,229.4 124.2,230.8 124.7,220.3" fill="rgb(255,100,110)"/><polygon points="185.3,208.9 197.5,176.0 142.8,156.5 126.9,192.0" fill="rgb(15,22,39)"/><polygon points="264.8,184.5 245.8,158.7 197.5,176.0 185.3,208.9" fill="rgb(67,92,133)"/><polygon points="308.8,172.5 312.1,223.6 166.9,256.1 167.7,215.3" fill="rgb(184,47,60)"/><polygon points="245.8,158.7 191.0,135.3 142.8,156.5 197.5,176.0" fill="rgb(93,19,31)"/><polygon points="126.8,191.9 128.0,191.5 142.5,155.4 141.2,156.0" fill="rgb(35,10,18)"/><polygon points="109.6,233.5 107.5,239.1 115.5,240.8 117.5,235.2" fill="rgb(8,8,10)"/><polygon points="107.5,239.1 106.6,245.1 114.6,246.7 115.5,240.8" fill="rgb(9,9,11)"/><polygon points="112.5,228.9 109.6,233.5 117.5,235.2 120.4,230.7" fill="rgb(11,11,13)"/><polygon points="106.6,245.1 106.9,250.8 114.9,252.3 114.6,246.7" fill="rgb(11,11,14)"/><polygon points="116.1,225.8 112.5,228.9 120.4,230.7 124.0,227.6" fill="rgb(13,13,15)"/><polygon points="263.4,185.1 264.9,184.6 247.1,159.2 245.7,159.7" fill="rgb(35,10,18)"/><polygon points="106.9,250.8 108.4,255.6 116.4,257.0 114.9,252.3" fill="rgb(13,13,16)"/><polygon points="119.8,224.7 116.1,225.8 124.0,227.6 127.7,226.5" fill="rgb(14,14,17)"/><polygon points="108.4,255.6 111.0,258.7 119.1,260.2 116.4,257.0" fill="rgb(14,14,17)"/><polygon points="135.2,247.1 133.0,252.9 129.9,257.6 126.2,260.5 122.5,261.4 119.1,260.2 116.4,257.0 114.9,252.3 114.6,246.7 115.5,240.8 117.5,235.2 120.4,230.7 124.0,227.6 127.7,226.5 131.1,227.5 133.9,230.4 135.6,235.1 136.1,240.9" fill="rgb(18,18,22)"/><polygon points="123.2,225.6 119.8,224.7 127.7,226.5 131.1,227.5" fill="rgb(14,14,18)"/><polygon points="308.8,172.5 167.7,215.3 105.6,198.6 247.1,144.4" fill="rgb(190,85,93)"/><polygon points="111.0,258.7 114.4,260.0 122.5,261.4 119.1,260.2" fill="rgb(14,14,18)"/><polygon points="128.1,239.2 127.6,233.3 125.9,228.6 123.2,225.6 119.8,224.7 116.1,225.8 112.5,228.9 109.6,233.5 107.5,239.1 106.6,245.1 106.9,250.8 108.4,255.6 111.0,258.7 114.4,260.0 118.1,259.1 121.8,256.1 124.9,251.3 127.1,245.4" fill="rgb(30,30,36)"/><polygon points="121.1,241.0 120.4,237.2 118.4,235.4 115.9,236.1 113.7,239.2 112.7,243.3 113.3,247.1 115.2,249.0 117.8,248.3 120.1,245.2" fill="rgb(180,180,190)"/><polygon points="125.9,228.6 123.2,225.6 131.1,227.5 133.9,230.4" fill="rgb(14,14,17)"/><polygon points="114.4,260.0 118.1,259.1 126.2,260.5 122.5,261.4" fill="rgb(14,14,17)"/><polygon points="127.6,233.3 125.9,228.6 133.9,230.4 135.6,235.1" fill="rgb(13,13,16)"/><polygon points="118.1,259.1 121.8,256.1 129.9,257.6 126.2,260.5" fill="rgb(13,13,15)"/><polygon points="128.1,239.2 127.6,233.3 135.6,235.1 136.1,240.9" fill="rgb(11,11,14)"/><polygon points="121.8,256.1 124.9,251.3 133.0,252.9 129.9,257.6" fill="rgb(11,11,13)"/><polygon points="127.1,245.4 128.1,239.2 136.1,240.9 135.2,247.1" fill="rgb(9,9,11)"/><polygon points="124.9,251.3 127.1,245.4 135.2,247.1 133.0,252.9" fill="rgb(8,8,10)"/><polygon points="312.1,223.6 248.8,202.0 103.0,243.5 166.9,256.1" fill="rgb(23,6,9)"/><polygon points="206.3,161.8 126.9,192.0 142.8,156.5 191.0,135.3" fill="rgb(70,96,140)"/><polygon points="274.9,227.0 272.6,232.9 266.3,231.1 268.6,225.1" fill="rgb(8,8,10)"/><polygon points="272.6,232.9 271.9,239.2 265.6,237.4 266.3,231.1" fill="rgb(9,9,11)"/><polygon points="278.6,222.1 274.9,227.0 268.6,225.1 272.4,220.1" fill="rgb(11,11,13)"/><polygon points="271.9,239.2 273.1,245.1 266.7,243.4 265.6,237.4" fill="rgb(11,11,14)"/><polygon points="264.8,184.5 206.3,161.8 191.0,135.3 245.8,158.7" fill="rgb(22,33,59)"/><polygon points="283.4,218.8 278.6,222.1 272.4,220.1 277.2,216.8" fill="rgb(13,13,15)"/><polygon points="273.1,245.1 275.9,250.0 269.5,248.4 266.7,243.4" fill="rgb(13,13,16)"/><polygon points="288.7,217.6 283.4,218.8 277.2,216.8 282.5,215.5" fill="rgb(14,14,17)"/><polygon points="275.9,250.0 280.1,253.3 273.7,251.7 269.5,248.4" fill="rgb(14,14,17)"/><polygon points="293.2,234.7 291.8,230.8 288.6,228.9 285.0,229.7 282.1,232.9 281.2,237.3 282.5,241.2 285.6,243.1 289.3,242.4 292.2,239.2" fill="rgb(180,180,190)"/><polygon points="302.7,232.6 301.4,226.5 298.3,221.6 293.9,218.5 288.7,217.6 283.4,218.8 278.6,222.1 274.9,227.0 272.6,232.9 271.9,239.2 273.1,245.1 275.9,250.0 280.1,253.3 285.2,254.6 290.6,253.6 295.6,250.4 299.7,245.4 302.1,239.2" fill="rgb(30,30,36)"/><polygon points="293.9,218.5 288.7,217.6 282.5,215.5 287.7,216.4" fill="rgb(14,14,18)"/><polygon points="280.1,253.3 285.2,254.6 278.8,252.9 273.7,251.7" fill="rgb(14,14,18)"/><polygon points="295.9,237.3 293.4,243.6 289.3,248.7 284.3,251.9 278.8,252.9 273.7,251.7 269.5,248.4 266.7,243.4 265.6,237.4 266.3,231.1 268.6,225.1 272.4,220.1 277.2,216.8 282.5,215.5 287.7,216.4 292.1,219.5 295.2,224.4 296.5,230.6" fill="rgb(18,18,22)"/><polygon points="298.3,221.6 293.9,218.5 287.7,216.4 292.1,219.5" fill="rgb(14,14,17)"/><polygon points="285.2,254.6 290.6,253.6 284.3,251.9 278.8,252.9" fill="rgb(14,14,17)"/><polygon points="247.1,144.4 105.6,198.6 103.0,243.5 248.8,202.0" fill="rgb(184,47,60)"/><polygon points="301.4,226.5 298.3,221.6 292.1,219.5 295.2,224.4" fill="rgb(13,13,16)"/><polygon points="290.6,253.6 295.6,250.4 289.3,248.7 284.3,251.9" fill="rgb(13,13,15)"/><polygon points="302.7,232.6 301.4,226.5 295.2,224.4 296.5,230.6" fill="rgb(11,11,14)"/><polygon points="295.6,250.4 299.7,245.4 293.4,243.6 289.3,248.7" fill="rgb(11,11,13)"/><polygon points="302.1,239.2 302.7,232.6 296.5,230.6 295.9,237.3" fill="rgb(9,9,11)"/><polygon points="299.7,245.4 302.1,239.2 295.9,237.3 293.4,243.6" fill="rgb(8,8,10)"/><polygon points="204.6,162.4 206.2,161.8 189.4,134.7 188.0,135.3" fill="rgb(35,10,18)"/><polygon points="293.3,184.4 298.5,186.6 299.2,199.1 294.0,197.1" fill="rgb(255,235,160)"/><polygon points="308.8,172.5 247.1,144.4 248.8,202.0 312.1,223.6" fill="rgb(122,31,40)"/><polygon points="270.7,192.5 292.9,200.9 293.5,211.7 271.2,203.8" fill="rgb(18,18,22)"/><polygon points="203.5,205.1 200.9,211.9 209.0,214.3 211.6,207.6" fill="rgb(8,8,10)"/><polygon points="200.9,211.9 200.0,219.1 208.2,221.4 209.0,214.3" fill="rgb(9,9,11)"/><polygon points="207.5,199.4 203.5,205.1 211.6,207.6 215.6,202.0" fill="rgb(11,11,13)"/><polygon points="200.0,219.1 200.9,225.8 209.1,228.0 208.2,221.4" fill="rgb(11,11,14)"/><polygon points="212.5,195.4 207.5,199.4 215.6,202.0 220.5,198.1" fill="rgb(13,13,15)"/><polygon points="200.9,225.8 203.5,231.3 211.8,233.5 209.1,228.0" fill="rgb(13,13,16)"/><polygon points="217.9,193.7 212.5,195.4 220.5,198.1 225.9,196.5" fill="rgb(14,14,17)"/><polygon points="203.5,231.3 207.6,235.0 215.9,237.0 211.8,233.5" fill="rgb(14,14,17)"/><polygon points="238.9,220.3 236.1,227.4 231.8,233.2 226.6,237.0 221.0,238.3 215.9,237.0 211.8,233.5 209.1,228.0 208.2,221.4 209.0,214.3 211.6,207.6 215.6,202.0 220.5,198.1 225.9,196.5 231.2,197.3 235.5,200.6 238.5,206.0 239.7,212.8" fill="rgb(18,18,22)"/><polygon points="262.6,171.7 268.5,174.2 269.0,187.5 263.1,185.2" fill="rgb(255,235,160)"/><polygon points="223.1,194.6 217.9,193.7 225.9,196.5 231.2,197.3" fill="rgb(14,14,18)"/><polygon points="207.6,235.0 212.8,236.2 221.0,238.3 215.9,237.0" fill="rgb(14,14,18)"/><polygon points="231.6,210.3 230.4,203.3 227.5,197.9 223.1,194.6 217.9,193.7 212.5,195.4 207.5,199.4 203.5,205.1 200.9,211.9 200.0,219.1 200.9,225.8 203.5,231.3 207.6,235.0 212.8,236.2 218.3,234.9 223.6,231.0 227.9,225.1 230.7,217.9" fill="rgb(30,30,36)"/><polygon points="221.3,213.0 220.0,208.6 216.9,206.5 213.1,207.6 210.1,211.4 209.0,216.4 210.2,220.9 213.3,223.0 217.1,222.0 220.2,218.2" fill="rgb(180,180,190)"/><polygon points="227.5,197.9 223.1,194.6 231.2,197.3 235.5,200.6" fill="rgb(14,14,17)"/><polygon points="212.8,236.2 218.3,234.9 226.6,237.0 221.0,238.3" fill="rgb(14,14,17)"/><polygon points="230.4,203.3 227.5,197.9 235.5,200.6 238.5,206.0" fill="rgb(13,13,16)"/><polygon points="218.3,234.9 223.6,231.0 231.8,233.2 226.6,237.0" fill="rgb(13,13,15)"/><polygon points="231.6,210.3 230.4,203.3 238.5,206.0 239.7,212.8" fill="rgb(11,11,14)"/><polygon points="223.6,231.0 227.9,225.1 236.1,227.4 231.8,233.2" fill="rgb(11,11,13)"/><polygon points="230.7,217.9 231.6,210.3 239.7,212.8 238.9,220.3" fill="rgb(9,9,11)"/><polygon points="227.9,225.1 230.7,217.9 238.9,220.3 236.1,227.4" fill="rgb(8,8,10)"/></svg>