<svg xmlns="http://www.w3.org/2000/svg" viewBox="0 0 400 400"><rect width="400" height="400" fill="#0f1020"/><rect x="0" y="250" width="400" height="150" fill="#0a0b17"/><ellipse cx="200" cy="262" rx="120" ry="16" fill="rgba(0,0,0,0.45)"/><polygon points="168.1,248.0 165.9,252.9 160.3,251.4 162.5,246.4" fill="rgb(10,10,12)"/><polygon points="175.1,208.0 176.5,207.7 191.9,175.8 190.5,176.2" fill="rgb(35,10,18)"/><polygon points="165.9,252.9 165.1,258.3 159.4,256.8 160.3,251.4" fill="rgb(8,8,10)"/><polygon points="171.4,244.0 168.1,248.0 162.5,246.4 165.8,242.4" fill="rgb(12,12,14)"/><polygon points="138.0,224.0 137.6,234.3 142.4,235.7 142.7,225.6" fill="rgb(255,100,110)"/><polygon points="165.1,258.3 165.7,263.5 160.0,262.1 159.4,256.8" fill="rgb(10,10,12)"/><polygon points="175.4,241.5 171.4,244.0 165.8,242.4 169.9,239.8" fill="rgb(13,13,16)"/><polygon points="165.7,263.5 167.7,267.8 162.1,266.5 160.0,262.1" fill="rgb(12,12,15)"/><polygon points="179.7,240.7 175.4,241.5 169.9,239.8 174.2,239.0" fill="rgb(14,14,17)"/><polygon points="182.4,255.6 181.5,252.2 179.1,250.4 176.1,250.9 173.6,253.5 172.7,257.2 173.5,260.6 175.9,262.4 178.9,262.0 181.4,259.4" fill="rgb(180,180,190)"/><polygon points="190.0,254.4 189.3,249.1 187.1,244.7 183.8,241.8 179.7,240.7 175.4,241.5 171.4,244.0 168.1,248.0 165.9,252.9 165.1,258.3 165.7,263.5 167.7,267.8 170.9,270.9 175.0,272.2 179.3,271.6 183.5,269.1 187.0,265.1 189.2,259.9" fill="rgb(30,30,36)"/><polygon points="167.7,267.8 170.9,270.9 165.3,269.5 162.1,266.5" fill="rgb(13,13,16)"/><polygon points="183.8,241.8 179.7,240.7 174.2,239.0 178.3,240.1" fill="rgb(14,14,17)"/><polygon points="170.9,270.9 175.0,272.2 169.3,270.9 165.3,269.5" fill="rgb(14,14,17)"/><polygon points="187.1,244.7 183.8,241.8 178.3,240.1 181.6,243.0" fill="rgb(13,13,16)"/><polygon points="183.7,258.4 181.4,263.6 177.9,267.7 173.7,270.3 169.3,270.9 165.3,269.5 162.1,266.5 160.0,262.1 159.4,256.8 160.3,251.4 162.5,246.4 165.8,242.4 169.9,239.8 174.2,239.0 178.3,240.1 181.6,243.0 183.8,247.4 184.5,252.8" fill="rgb(18,18,22)"/><polygon points="175.0,272.2 179.3,271.6 173.7,270.3 169.3,270.9" fill="rgb(14,14,17)"/><polygon points="189.3,249.1 187.1,244.7 181.6,243.0 183.8,247.4" fill="rgb(12,12,15)"/><polygon points="98.3,193.6 154.2,213.6 153.1,254.8 95.5,239.7" fill="rgb(75,12,20)"/><polygon points="179.3,271.6 183.5,269.1 177.9,267.7 173.7,270.3" fill="rgb(13,13,16)"/><polygon points="190.0,254.4 189.3,249.1 183.8,247.4 184.5,252.8" fill="rgb(10,10,12)"/><polygon points="183.5,269.1 187.0,265.1 181.4,263.6 177.9,267.7" fill="rgb(12,12,14)"/><polygon points="189.2,259.9 190.0,254.4 184.5,252.8 183.7,258.4" fill="rgb(8,8,10)"/><polygon points="187.0,265.1 189.2,259.9 183.7,258.4 181.4,263.6" fill="rgb(10,10,12)"/><polygon points="263.7,188.0 243.4,161.4 189.4,175.7 175.0,207.9" fill="rgb(68,93,136)"/><polygon points="175.0,207.9 189.4,175.7 142.1,152.9 123.7,188.0" fill="rgb(16,25,44)"/><polygon points="110.1,215.1 109.6,225.9 114.9,227.5 115.5,216.8" fill="rgb(255,100,110)"/><polygon points="310.3,178.7 313.6,228.3 153.1,254.8 154.2,213.6" fill="rgb(187,48,61)"/><polygon points="262.1,188.4 263.8,188.0 244.5,162.0 242.9,162.4" fill="rgb(35,10,18)"/><polygon points="243.4,161.4 199.1,135.0 142.1,152.9 189.4,175.7" fill="rgb(93,19,31)"/><polygon points="123.5,188.0 125.0,187.6 142.2,151.8 140.8,152.3" fill="rgb(35,10,18)"/><polygon points="310.3,178.7 154.2,213.6 98.3,193.6 264.9,148.0" fill="rgb(190,85,93)"/><polygon points="104.8,229.8 102.3,235.5 109.5,237.5 111.9,231.8" fill="rgb(10,10,12)"/><polygon points="102.3,235.5 101.2,241.6 108.4,243.5 109.5,237.5" fill="rgb(8,8,10)"/><polygon points="108.4,225.2 104.8,229.8 111.9,231.8 115.5,227.3" fill="rgb(12,12,14)"/><polygon points="101.2,241.6 101.6,247.5 108.9,249.3 108.4,243.5" fill="rgb(10,10,12)"/><polygon points="112.7,222.2 108.4,225.2 115.5,227.3 119.8,224.4" fill="rgb(13,13,16)"/><polygon points="101.6,247.5 103.5,252.4 110.8,254.1 108.9,249.3" fill="rgb(12,12,15)"/><polygon points="117.2,221.2 112.7,222.2 119.8,224.4 124.3,223.4" fill="rgb(14,14,17)"/><polygon points="272.9,230.0 270.3,235.7 265.4,233.7 268.0,227.9" fill="rgb(10,10,12)"/><polygon points="270.3,235.7 269.6,241.8 264.7,239.9 265.4,233.7" fill="rgb(8,8,10)"/><polygon points="133.5,244.7 130.9,250.6 127.2,255.2 122.7,258.1 118.1,258.9 114.0,257.5 110.8,254.1 108.9,249.3 108.4,243.5 109.5,237.5 111.9,231.8 115.5,227.3 119.8,224.4 124.3,223.4 128.5,224.5 131.9,227.7 134.0,232.5 134.6,238.4" fill="rgb(18,18,22)"/><polygon points="276.9,225.4 272.9,230.0 268.0,227.9 272.1,223.2" fill="rgb(12,12,14)"/><polygon points="103.5,252.4 106.7,255.8 114.0,257.5 110.8,254.1" fill="rgb(13,13,16)"/><polygon points="269.6,241.8 270.8,247.7 265.9,245.8 264.7,239.9" fill="rgb(10,10,12)"/><polygon points="282.1,222.4 276.9,225.4 272.1,223.2 277.4,220.2" fill="rgb(13,13,16)"/><polygon points="121.4,222.3 117.2,221.2 124.3,223.4 128.5,224.5" fill="rgb(14,14,17)"/><polygon points="270.8,247.7 273.8,252.6 268.9,250.8 265.9,245.8" fill="rgb(12,12,15)"/><polygon points="106.7,255.8 110.9,257.2 118.1,258.9 114.0,257.5" fill="rgb(14,14,17)"/><polygon points="287.8,221.4 282.1,222.4 277.4,220.2 283.1,219.2" fill="rgb(14,14,17)"/><polygon points="313.6,228.3 267.1,204.8 95.5,239.7 153.1,254.8" fill="rgb(23,6,9)"/><polygon points="124.8,225.5 121.4,222.3 128.5,224.5 131.9,227.7" fill="rgb(13,13,16)"/><polygon points="292.4,238.3 290.9,234.4 287.6,232.5 283.6,233.1 280.6,236.1 279.6,240.3 281.0,244.2 284.3,246.2 288.3,245.6 291.4,242.6" fill="rgb(180,180,190)"/><polygon points="302.6,236.6 301.2,230.6 298.0,225.7 293.3,222.6 287.8,221.4 282.1,222.4 276.9,225.4 272.9,230.0 270.3,235.7 269.6,241.8 270.8,247.7 273.8,252.6 278.3,256.0 283.8,257.4 289.6,256.6 295.0,253.6 299.3,248.9 302.0,243.0" fill="rgb(30,30,36)"/><polygon points="127.4,236.4 126.9,230.4 124.8,225.5 121.4,222.3 117.2,221.2 112.7,222.2 108.4,225.2 104.8,229.8 102.3,235.5 101.2,241.6 101.6,247.5 103.5,252.4 106.7,255.8 110.9,257.2 115.5,256.4 120.0,253.4 123.7,248.7 126.4,242.8" fill="rgb(30,30,36)"/><polygon points="263.7,188.0 217.6,162.5 199.1,135.0 243.4,161.4" fill="rgb(20,31,54)"/><polygon points="119.0,238.0 118.2,234.1 115.7,232.1 112.6,232.7 109.9,235.8 108.8,240.0 109.5,243.9 111.9,245.9 115.1,245.3 117.8,242.3" fill="rgb(180,180,190)"/><polygon points="273.8,252.6 278.3,256.0 273.5,254.2 268.9,250.8" fill="rgb(13,13,16)"/><polygon points="110.9,257.2 115.5,256.4 122.7,258.1 118.1,258.9" fill="rgb(14,14,17)"/><polygon points="293.3,222.6 287.8,221.4 283.1,219.2 288.6,220.3" fill="rgb(14,14,17)"/><polygon points="126.9,230.4 124.8,225.5 131.9,227.7 134.0,232.5" fill="rgb(12,12,15)"/><polygon points="278.3,256.0 283.8,257.4 279.0,255.6 273.5,254.2" fill="rgb(14,14,17)"/><polygon points="115.5,256.4 120.0,253.4 127.2,255.2 122.7,258.1" fill="rgb(13,13,16)"/><polygon points="127.4,236.4 126.9,230.4 134.0,232.5 134.6,238.4" fill="rgb(10,10,12)"/><polygon points="298.0,225.7 293.3,222.6 288.6,220.3 293.4,223.5" fill="rgb(13,13,16)"/><polygon points="217.6,162.5 123.7,188.0 142.1,152.9 199.1,135.0" fill="rgb(71,98,143)"/><polygon points="120.0,253.4 123.7,248.7 130.9,250.6 127.2,255.2" fill="rgb(12,12,14)"/><polygon points="297.3,241.0 294.6,247.0 290.3,251.8 284.8,254.8 279.0,255.6 273.5,254.2 268.9,250.8 265.9,245.8 264.7,239.9 265.4,233.7 268.0,227.9 272.1,223.2 277.4,220.2 283.1,219.2 288.6,220.3 293.4,223.5 296.6,228.4 298.0,234.5" fill="rgb(18,18,22)"/><polygon points="126.4,242.8 127.4,236.4 134.6,238.4 133.5,244.7" fill="rgb(8,8,10)"/><polygon points="123.7,248.7 126.4,242.8 133.5,244.7 130.9,250.6" fill="rgb(10,10,12)"/><polygon points="283.8,257.4 289.6,256.6 284.8,254.8 279.0,255.6" fill="rgb(14,14,17)"/><polygon points="301.2,230.6 298.0,225.7 293.4,223.5 296.6,228.4" fill="rgb(12,12,15)"/><polygon points="289.6,256.6 295.0,253.6 290.3,251.8 284.8,254.8" fill="rgb(13,13,16)"/><polygon points="302.6,236.6 301.2,230.6 296.6,228.4 298.0,234.5" fill="rgb(10,10,12)"/><polygon points="295.0,253.6 299.3,248.9 294.6,247.0 290.3,251.8" fill="rgb(12,12,14)"/><polygon points="302.0,243.0 302.6,236.6 298.0,234.5 297.3,241.0" fill="rgb(8,8,10)"/><polygon points="299.3,248.9 302.0,243.0 297.3,241.0 294.6,247.0" fill="rgb(10,10,12)"/><polygon points="264.9,148.0 98.3,193.6 95.5,239.7 267.1,204.8" fill="rgb(187,48,61)"/><polygon points="299.5,189.6 303.3,191.9 304.0,204.1 300.2,201.9" fill="rgb(255,235,160)"/><polygon points="215.6,163.0 217.4,162.5 197.8,134.2 196.1,134.8" fill="rgb(35,10,18)"/><polygon points="310.3,178.7 264.9,148.0 267.1,204.8 313.6,228.3" fill="rgb(107,27,35)"/><polygon points="283.2,196.4 299.5,205.6 300.2,216.1 283.8,207.5" fill="rgb(18,18,22)"/><polygon points="216.9,205.6 213.9,212.3 220.4,215.0 223.3,208.4" fill="rgb(10,10,12)"/><polygon points="213.9,212.3 212.9,219.4 219.5,222.0 220.4,215.0" fill="rgb(8,8,10)"/><polygon points="221.5,200.1 216.9,205.6 223.3,208.4 227.9,203.0" fill="rgb(12,12,14)"/><polygon points="212.9,219.4 214.0,226.1 220.6,228.6 219.5,222.0" fill="rgb(10,10,12)"/><polygon points="276.9,175.7 281.3,178.4 281.9,191.4 277.5,188.9" fill="rgb(255,235,160)"/><polygon points="227.2,196.5 221.5,200.1 227.9,203.0 233.6,199.5" fill="rgb(13,13,16)"/><polygon points="214.0,226.1 217.2,231.7 223.7,234.2 220.6,228.6" fill="rgb(12,12,15)"/><polygon points="233.4,195.1 227.2,196.5 233.6,199.5 239.7,198.1" fill="rgb(14,14,17)"/><polygon points="254.6,222.3 251.5,229.2 246.6,234.8 240.7,238.3 234.4,239.4 228.5,237.9 223.7,234.2 220.6,228.6 219.5,222.0 220.4,215.0 223.3,208.4 227.9,203.0 233.6,199.5 239.7,198.1 245.7,199.2 250.7,202.7 254.1,208.2 255.5,215.0" fill="rgb(18,18,22)"/><polygon points="217.2,231.7 221.9,235.5 228.5,237.9 223.7,234.2" fill="rgb(13,13,16)"/><polygon points="239.4,196.1 233.4,195.1 239.7,198.1 245.7,199.2" fill="rgb(14,14,17)"/><polygon points="221.9,235.5 227.9,237.0 234.4,239.4 228.5,237.9" fill="rgb(14,14,17)"/><polygon points="244.5,199.7 239.4,196.1 245.7,199.2 250.7,202.7" fill="rgb(13,13,16)"/><polygon points="249.3,212.2 247.9,205.2 244.5,199.7 239.4,196.1 233.4,195.1 227.2,196.5 221.5,200.1 216.9,205.6 213.9,212.3 212.9,219.4 214.0,226.1 217.2,231.7 221.9,235.5 227.9,237.0 234.3,235.9 240.3,232.3 245.2,226.7 248.3,219.6" fill="rgb(30,30,36)"/><polygon points="237.6,214.4 236.1,209.9 232.5,207.7 228.2,208.6 224.7,212.2 223.5,217.2 224.9,221.6 228.4,223.9 232.8,223.0 236.3,219.4" fill="rgb(180,180,190)"/><polygon points="227.9,237.0 234.3,235.9 240.7,238.3 234.4,239.4" fill="rgb(14,14,17)"/><polygon points="247.9,205.2 244.5,199.7 250.7,202.7 254.1,208.2" fill="rgb(12,12,15)"/><polygon points="234.3,235.9 240.3,232.3 246.6,234.8 240.7,238.3" fill="rgb(13,13,16)"/><polygon points="249.3,212.2 247.9,205.2 254.1,208.2 255.5,215.0" fill="rgb(10,10,12)"/><polygon points="240.3,232.3 245.2,226.7 251.5,229.2 246.6,234.8" fill="rgb(12,12,14)"/><polygon points="248.3,219.6 249.3,212.2 255.5,215.0 254.6,222.3" fill="rgb(8,8,10)"/><polygon points="245.2,226.7 248.3,219.6 254.6,222.3 251.5,229.2" fill="rgb(10,10,12)"/></svg>