<svg xmlns="http://www.w3.org/2000/svg" viewBox="0 0 400 400"><rect width="400" height="400" fill="#0f1020"/><rect x="0" y="250" width="400" height="150" fill="#0a0b17"/><ellipse cx="200" cy="262" rx="120" ry="16" fill="rgba(0,0,0,0.45)"/><polygon points="195.0,230.4 195.0,240.2 201.6,240.6 201.6,230.8" fill="rgb(255,100,110)"/><polygon points="142.8,211.5 216.8,216.6 217.2,257.1 141.4,253.2" fill="rgb(116,19,31)"/><polygon points="158.4,228.2 158.2,238.1 165.0,238.5 165.2,228.6" fill="rgb(255,100,110)"/><polygon points="224.8,253.7 224.6,259.1 216.3,258.7 216.5,253.2" fill="rgb(13,13,16)"/><polygon points="225.5,248.5 224.8,253.7 216.5,253.2 217.2,248.1" fill="rgb(10,10,12)"/><polygon points="224.6,259.1 225.0,264.1 216.6,263.7 216.3,258.7" fill="rgb(15,15,18)"/><polygon points="226.6,244.2 225.5,248.5 217.2,248.1 218.2,243.7" fill="rgb(8,8,10)"/><polygon points="225.0,264.1 225.8,268.3 217.4,267.9 216.6,263.7" fill="rgb(16,16,20)"/><polygon points="228.0,241.2 226.6,244.2 218.2,243.7 219.6,240.7" fill="rgb(11,11,14)"/><polygon points="222.3,208.3 222.8,207.7 227.6,173.3 227.1,173.9" fill="rgb(35,10,18)"/><polygon points="225.8,268.3 227.0,271.0 218.5,270.6 217.4,267.9" fill="rgb(17,17,20)"/><polygon points="229.6,239.9 228.0,241.2 219.6,240.7 221.1,239.4" fill="rgb(14,14,17)"/><polygon points="231.1,254.6 230.7,251.2 229.8,249.7 228.7,250.5 227.9,253.4 227.6,257.2 228.0,260.5 228.9,262.1 230.0,261.3 230.9,258.5" fill="rgb(180,180,190)"/><polygon points="233.8,252.5 233.4,247.2 232.5,243.1 231.1,240.5 229.6,239.9 228.0,241.2 226.6,244.2 225.5,248.5 224.8,253.7 224.6,259.1 225.0,264.1 225.8,268.3 227.0,271.0 228.5,272.0 230.2,271.0 231.7,268.1 232.9,263.7 233.6,258.2" fill="rgb(30,30,36)"/><polygon points="227.0,271.0 228.5,272.0 220.0,271.6 218.5,270.6" fill="rgb(16,16,19)"/><polygon points="231.1,240.5 229.6,239.9 221.1,239.4 222.5,240.0" fill="rgb(16,16,19)"/><polygon points="222.1,208.2 225.3,173.7 155.1,167.6 149.5,203.0" fill="rgb(16,24,42)"/><polygon points="224.8,257.8 224.1,263.2 222.9,267.7 221.5,270.6 220.0,271.6 218.5,270.6 217.4,267.9 216.6,263.7 216.3,258.7 216.5,253.2 217.2,248.1 218.2,243.7 219.6,240.7 221.1,239.4 222.5,240.0 223.8,242.6 224.6,246.7 225.0,252.0" fill="rgb(18,18,22)"/><polygon points="138.7,249.2 138.4,254.8 147.3,255.2 147.6,249.6" fill="rgb(13,13,16)"/><polygon points="139.2,243.8 138.7,249.2 147.6,249.6 148.2,244.3" fill="rgb(10,10,12)"/><polygon points="138.4,254.8 138.3,260.0 147.3,260.4 147.3,255.2" fill="rgb(15,15,18)"/><polygon points="228.5,272.0 230.2,271.0 221.5,270.6 220.0,271.6" fill="rgb(14,14,17)"/><polygon points="139.9,239.3 139.2,243.8 148.2,244.3 148.9,239.8" fill="rgb(8,8,10)"/><polygon points="232.5,243.1 231.1,240.5 222.5,240.0 223.8,242.6" fill="rgb(17,17,20)"/><polygon points="138.3,260.0 138.5,264.3 147.5,264.7 147.3,260.4" fill="rgb(16,16,20)"/><polygon points="140.6,236.1 139.9,239.3 148.9,239.8 149.7,236.7" fill="rgb(11,11,14)"/><polygon points="230.2,271.0 231.7,268.1 222.9,267.7 221.5,270.6" fill="rgb(11,11,14)"/><polygon points="149.3,203.0 149.6,202.4 153.5,166.7 153.2,167.4" fill="rgb(35,10,18)"/><polygon points="233.4,247.2 232.5,243.1 223.8,242.6 224.6,246.7" fill="rgb(16,16,20)"/><polygon points="138.5,264.3 138.9,267.1 148.0,267.5 147.5,264.7" fill="rgb(17,17,20)"/><polygon points="231.7,268.1 232.9,263.7 224.1,263.2 222.9,267.7" fill="rgb(8,8,10)"/><polygon points="141.4,234.8 140.6,236.1 149.7,236.7 150.5,235.3" fill="rgb(14,14,17)"/><polygon points="233.8,252.5 233.4,247.2 224.6,246.7 225.0,252.0" fill="rgb(15,15,18)"/><polygon points="232.9,263.7 233.6,258.2 224.8,257.8 224.1,263.2" fill="rgb(10,10,12)"/><polygon points="233.6,258.2 233.8,252.5 225.0,252.0 224.8,257.8" fill="rgb(13,13,16)"/><polygon points="151.8,254.1 151.2,259.7 150.4,264.4 149.6,267.4 148.7,268.4 148.0,267.5 147.5,264.7 147.3,260.4 147.3,255.2 147.6,249.6 148.2,244.3 148.9,239.8 149.7,236.7 150.5,235.3 151.2,235.9 151.8,238.5 152.1,242.7 152.1,248.2" fill="rgb(18,18,22)"/><polygon points="138.9,267.1 139.5,268.0 148.7,268.4 148.0,267.5" fill="rgb(16,16,19)"/><polygon points="142.0,235.4 141.4,234.8 150.5,235.3 151.2,235.9" fill="rgb(16,16,19)"/><polygon points="142.6,247.7 142.7,242.2 142.5,237.9 142.0,235.4 141.4,234.8 140.6,236.1 139.9,239.3 139.2,243.8 138.7,249.2 138.4,254.8 138.3,260.0 138.5,264.3 138.9,267.1 139.5,268.0 140.3,267.0 141.0,263.9 141.7,259.3 142.3,253.6" fill="rgb(30,30,36)"/><polygon points="141.0,249.9 141.0,246.4 140.6,244.9 140.1,245.8 139.6,248.7 139.4,252.7 139.4,256.1 139.7,257.8 140.2,256.9 140.7,253.9" fill="rgb(180,180,190)"/><polygon points="139.5,268.0 140.3,267.0 149.6,267.4 148.7,268.4" fill="rgb(14,14,17)"/><polygon points="142.5,237.9 142.0,235.4 151.2,235.9 151.8,238.5" fill="rgb(17,17,20)"/><polygon points="140.3,267.0 141.0,263.9 150.4,264.4 149.6,267.4" fill="rgb(11,11,14)"/><polygon points="142.7,242.2 142.5,237.9 151.8,238.5 152.1,242.7" fill="rgb(16,16,20)"/><polygon points="141.0,263.9 141.7,259.3 151.2,259.7 150.4,264.4" fill="rgb(8,8,10)"/><polygon points="255.7,172.5 245.4,148.4 225.3,173.7 222.1,208.2" fill="rgb(55,76,111)"/><polygon points="142.6,247.7 142.7,242.2 152.1,242.7 152.1,248.2" fill="rgb(15,15,18)"/><polygon points="141.7,259.3 142.3,253.6 151.8,254.1 151.2,259.7" fill="rgb(10,10,12)"/><polygon points="142.3,253.6 142.6,247.7 152.1,248.2 151.8,254.1" fill="rgb(13,13,16)"/><polygon points="245.4,148.4 166.5,140.5 155.1,167.6 225.3,173.7" fill="rgb(93,19,31)"/><polygon points="167.8,164.6 149.5,203.0 155.1,167.6 166.5,140.5" fill="rgb(59,81,117)"/><polygon points="278.5,152.1 281.2,207.9 217.2,257.1 216.8,216.6" fill="rgb(153,39,50)"/><polygon points="278.5,152.1 216.8,216.6 142.8,211.5 175.0,141.7" fill="rgb(190,85,93)"/><polygon points="281.2,207.9 174.1,199.9 141.4,253.2 217.2,257.1" fill="rgb(23,6,9)"/><polygon points="175.0,141.7 142.8,211.5 141.4,253.2 174.1,199.9" fill="rgb(153,39,50)"/><polygon points="255.2,173.3 255.9,172.5 247.4,148.6 246.8,149.4" fill="rgb(35,10,18)"/><polygon points="255.7,172.5 167.8,164.6 166.5,140.5 245.4,148.4" fill="rgb(27,41,73)"/><polygon points="167.2,165.4 167.6,164.6 164.4,140.3 164.0,141.1" fill="rgb(35,10,18)"/><polygon points="266.1,222.6 265.9,229.4 255.5,228.7 255.7,221.9" fill="rgb(13,13,16)"/><polygon points="267.0,216.0 266.1,222.6 255.7,221.9 256.7,215.3" fill="rgb(10,10,12)"/><polygon points="265.9,229.4 266.6,235.6 256.1,235.0 255.5,228.7" fill="rgb(15,15,18)"/><polygon points="268.7,210.3 267.0,216.0 256.7,215.3 258.3,209.5" fill="rgb(8,8,10)"/><polygon points="266.6,235.6 268.0,240.6 257.5,240.0 256.1,235.0" fill="rgb(16,16,20)"/><polygon points="271.0,206.1 268.7,210.3 258.3,209.5 260.4,205.4" fill="rgb(11,11,14)"/><polygon points="268.0,240.6 270.1,243.8 259.5,243.1 257.5,240.0" fill="rgb(17,17,20)"/><polygon points="273.5,204.1 271.0,206.1 260.4,205.4 262.8,203.3" fill="rgb(14,14,17)"/><polygon points="276.3,222.2 275.5,218.0 273.9,216.4 272.2,217.7 270.9,221.5 270.5,226.3 271.2,230.4 272.8,232.2 274.6,230.9 275.9,227.1" fill="rgb(180,180,190)"/><polygon points="280.7,218.7 279.9,212.1 278.3,207.2 276.0,204.4 273.5,204.1 271.0,206.1 268.7,210.3 267.0,216.0 266.1,222.6 265.9,229.4 266.6,235.6 268.0,240.6 270.1,243.8 272.6,244.6 275.2,243.0 277.6,239.0 279.5,233.1 280.6,226.0" fill="rgb(30,30,36)"/><polygon points="270.1,243.8 272.6,244.6 261.8,244.0 259.5,243.1" fill="rgb(16,16,19)"/><polygon points="276.0,204.4 273.5,204.1 262.8,203.3 265.3,203.6" fill="rgb(16,16,19)"/><polygon points="269.5,225.3 268.4,232.4 266.6,238.3 264.3,242.3 261.8,244.0 259.5,243.1 257.5,240.0 256.1,235.0 255.5,228.7 255.7,221.9 256.7,215.3 258.3,209.5 260.4,205.4 262.8,203.3 265.3,203.6 267.4,206.4 268.9,211.3 269.7,217.9" fill="rgb(18,18,22)"/><polygon points="158.0,215.3 157.6,222.4 168.9,223.2 169.3,216.1" fill="rgb(13,13,16)"/><polygon points="158.7,208.4 158.0,215.3 169.3,216.1 170.0,209.2" fill="rgb(10,10,12)"/><polygon points="157.6,222.4 157.7,228.9 169.0,229.6 168.9,223.2" fill="rgb(15,15,18)"/><polygon points="272.6,244.6 275.2,243.0 264.3,242.3 261.8,244.0" fill="rgb(14,14,17)"/><polygon points="159.7,202.3 158.7,208.4 170.0,209.2 171.1,203.2" fill="rgb(8,8,10)"/><polygon points="278.3,207.2 276.0,204.4 265.3,203.6 267.4,206.4" fill="rgb(17,17,20)"/><polygon points="157.7,228.9 158.1,234.1 169.6,234.8 169.0,229.6" fill="rgb(16,16,20)"/><polygon points="160.9,197.9 159.7,202.3 171.1,203.2 172.4,198.7" fill="rgb(11,11,14)"/><polygon points="275.2,243.0 277.6,239.0 266.6,238.3 264.3,242.3" fill="rgb(11,11,14)"/><polygon points="279.9,212.1 278.3,207.2 267.4,206.4 268.9,211.3" fill="rgb(16,16,20)"/><polygon points="158.1,234.1 158.9,237.3 170.5,238.0 169.6,234.8" fill="rgb(17,17,20)"/><polygon points="277.6,239.0 279.5,233.1 268.4,232.4 266.6,238.3" fill="rgb(8,8,10)"/><polygon points="162.1,195.6 160.9,197.9 172.4,198.7 173.7,196.5" fill="rgb(14,14,17)"/><polygon points="280.7,218.7 279.9,212.1 268.9,211.3 269.7,217.9" fill="rgb(15,15,18)"/><polygon points="279.5,233.1 280.6,226.0 269.5,225.3 268.4,232.4" fill="rgb(10,10,12)"/><polygon points="280.6,226.0 280.7,218.7 269.7,217.9 269.5,225.3" fill="rgb(13,13,16)"/><polygon points="176.5,219.1 175.6,226.5 174.5,232.8 173.1,237.0 171.7,238.8 170.5,238.0 169.6,234.8 169.0,229.6 168.9,223.2 169.3,216.1 170.0,209.2 171.1,203.2 172.4,198.7 173.7,196.5 175.0,196.7 176.0,199.5 176.7,204.6 176.8,211.5" fill="rgb(18,18,22)"/><polygon points="158.9,237.3 159.9,238.1 171.7,238.8 170.5,238.0" fill="rgb(16,16,19)"/><polygon points="163.2,195.8 162.1,195.6 173.7,196.5 175.0,196.7" fill="rgb(16,16,19)"/><polygon points="164.7,210.6 164.6,203.8 164.1,198.6 163.2,195.8 162.1,195.6 160.9,197.9 159.7,202.3 158.7,208.4 158.0,215.3 157.6,222.4 157.7,228.9 158.1,234.1 158.9,237.3 159.9,238.1 161.2,236.3 162.4,232.1 163.5,225.8 164.3,218.3" fill="rgb(30,30,36)"/><polygon points="162.0,214.4 161.9,210.1 161.3,208.4 160.4,209.9 159.7,213.9 159.3,219.0 159.5,223.2 160.1,225.0 160.9,223.7 161.7,219.6" fill="rgb(180,180,190)"/><polygon points="159.9,238.1 161.2,236.3 173.1,237.0 171.7,238.8" fill="rgb(14,14,17)"/><polygon points="249.2,170.0 258.3,170.8 258.8,184.3 249.6,183.5" fill="rgb(255,235,160)"/><polygon points="164.1,198.6 163.2,195.8 175.0,196.7 176.0,199.5" fill="rgb(17,17,20)"/><polygon points="161.2,236.3 162.4,232.1 174.5,232.8 173.1,237.0" fill="rgb(11,11,14)"/><polygon points="278.5,152.1 175.0,141.7 174.1,199.9 281.2,207.9" fill="rgb(166,43,54)"/><polygon points="164.6,203.8 164.1,198.6 176.0,199.5 176.7,204.6" fill="rgb(16,16,20)"/><polygon points="162.4,232.1 163.5,225.8 175.6,226.5 174.5,232.8" fill="rgb(8,8,10)"/><polygon points="164.7,210.6 164.6,203.8 176.7,204.6 176.8,211.5" fill="rgb(15,15,18)"/><polygon points="209.7,184.8 247.4,187.9 247.7,199.5 209.8,196.5" fill="rgb(18,18,22)"/><polygon points="197.7,165.3 207.2,166.2 207.3,179.9 197.7,179.1" fill="rgb(255,235,160)"/><polygon points="163.5,225.8 164.3,218.3 176.5,219.1 175.6,226.5" fill="rgb(10,10,12)"/><polygon points="164.3,218.3 164.7,210.6 176.8,211.5 176.5,219.1" fill="rgb(13,13,16)"/></svg>