<svg xmlns="http://www.w3.org/2000/svg" viewBox="0 0 400 400"><rect width="400" height="400" fill="#0f1020"/><rect x="0" y="250" width="400" height="150" fill="#0a0b17"/><ellipse cx="200" cy="262" rx="120" ry="16" fill="rgba(0,0,0,0.45)"/><polygon points="143.8,225.3 143.4,235.4 148.5,236.7 148.8,226.7" fill="rgb(255,100,110)"/><polygon points="174.3,248.5 172.3,253.5 166.3,252.0 168.3,247.0" fill="rgb(9,9,11)"/><polygon points="172.3,253.5 171.5,258.8 165.5,257.4 166.3,252.0" fill="rgb(8,8,10)"/><polygon points="177.4,244.5 174.3,248.5 168.3,247.0 171.4,242.9" fill="rgb(11,11,14)"/><polygon points="180.2,208.5 181.5,208.2 196.0,176.0 194.7,176.4" fill="rgb(35,10,18)"/><polygon points="171.5,258.8 172.1,263.9 166.0,262.6 165.5,257.4" fill="rgb(11,11,13)"/><polygon points="181.2,241.9 177.4,244.5 171.4,242.9 175.2,240.3" fill="rgb(13,13,16)"/><polygon points="172.1,263.9 174.0,268.3 167.9,267.0 166.0,262.6" fill="rgb(13,13,15)"/><polygon points="185.2,241.1 181.2,241.9 175.2,240.3 179.3,239.4" fill="rgb(14,14,17)"/><polygon points="187.8,255.9 187.0,252.5 184.7,250.7 181.9,251.3 179.6,253.9 178.7,257.6 179.5,261.0 181.7,262.8 184.6,262.3 186.9,259.6" fill="rgb(180,180,190)"/><polygon points="195.0,254.5 194.3,249.2 192.2,244.9 189.1,242.1 185.2,241.1 181.2,241.9 177.4,244.5 174.3,248.5 172.3,253.5 171.5,258.8 172.1,263.9 174.0,268.3 177.0,271.2 180.8,272.5 184.9,271.9 188.9,269.3 192.1,265.2 194.3,260.1" fill="rgb(30,30,36)"/><polygon points="174.0,268.3 177.0,271.2 171.0,270.0 167.9,267.0" fill="rgb(14,14,17)"/><polygon points="189.1,242.1 185.2,241.1 179.3,239.4 183.1,240.5" fill="rgb(14,14,17)"/><polygon points="177.0,271.2 180.8,272.5 174.8,271.3 171.0,270.0" fill="rgb(14,14,17)"/><polygon points="192.2,244.9 189.1,242.1 183.1,240.5 186.3,243.3" fill="rgb(14,14,17)"/><polygon points="188.3,258.7 186.1,263.9 182.8,268.0 178.9,270.6 174.8,271.3 171.0,270.0 167.9,267.0 166.0,262.6 165.5,257.4 166.3,252.0 168.3,247.0 171.4,242.9 175.2,240.3 179.3,239.4 183.1,240.5 186.3,243.3 188.3,247.7 189.0,253.0" fill="rgb(18,18,22)"/><polygon points="101.7,196.2 160.9,214.5 159.9,255.5 99.0,241.6" fill="rgb(80,13,21)"/><polygon points="180.8,272.5 184.9,271.9 178.9,270.6 174.8,271.3" fill="rgb(14,14,17)"/><polygon points="194.3,249.2 192.2,244.9 186.3,243.3 188.3,247.7" fill="rgb(13,13,15)"/><polygon points="184.9,271.9 188.9,269.3 182.8,268.0 178.9,270.6" fill="rgb(13,13,16)"/><polygon points="195.0,254.5 194.3,249.2 188.3,247.7 189.0,253.0" fill="rgb(11,11,13)"/><polygon points="188.9,269.3 192.1,265.2 186.1,263.9 182.8,268.0" fill="rgb(11,11,14)"/><polygon points="194.3,260.1 195.0,254.5 189.0,253.0 188.3,258.7" fill="rgb(8,8,10)"/><polygon points="192.1,265.2 194.3,260.1 188.3,258.7 186.1,263.9" fill="rgb(9,9,11)"/><polygon points="264.4,186.3 244.8,160.0 193.4,175.9 180.1,208.5" fill="rgb(67,93,135)"/><polygon points="180.1,208.5 193.4,175.9 142.3,154.8 125.1,190.0" fill="rgb(16,23,41)"/><polygon points="114.3,217.1 113.7,227.7 119.4,229.2 119.9,218.6" fill="rgb(255,100,110)"/><polygon points="309.9,175.6 313.3,225.9 159.9,255.5 160.9,214.5" fill="rgb(186,48,60)"/><polygon points="244.8,160.0 195.0,135.1 142.3,154.8 193.4,175.9" fill="rgb(93,19,31)"/><polygon points="262.9,186.8 264.6,186.3 245.9,160.6 244.4,161.1" fill="rgb(35,10,18)"/><polygon points="125.0,190.0 126.3,189.6 142.2,153.6 140.8,154.1" fill="rgb(35,10,18)"/><polygon points="106.9,231.7 104.7,237.4 112.3,239.2 114.5,233.6" fill="rgb(9,9,11)"/><polygon points="104.7,237.4 103.6,243.4 111.3,245.1 112.3,239.2" fill="rgb(8,8,10)"/><polygon points="110.2,227.1 106.9,231.7 114.5,233.6 117.8,229.0" fill="rgb(11,11,14)"/><polygon points="103.6,243.4 104.0,249.2 111.7,250.8 111.3,245.1" fill="rgb(11,11,13)"/><polygon points="114.1,224.0 110.2,227.1 117.8,229.0 121.7,226.0" fill="rgb(13,13,16)"/><polygon points="104.0,249.2 105.7,254.0 113.4,255.6 111.7,250.8" fill="rgb(13,13,15)"/><polygon points="309.9,175.6 160.9,214.5 101.7,196.2 256.3,146.1" fill="rgb(190,85,93)"/><polygon points="118.2,222.9 114.1,224.0 121.7,226.0 125.8,225.0" fill="rgb(14,14,17)"/><polygon points="134.2,245.9 131.8,251.7 128.3,256.4 124.3,259.3 120.1,260.2 116.3,258.8 113.4,255.6 111.7,250.8 111.3,245.1 112.3,239.2 114.5,233.6 117.8,229.0 121.7,226.0 125.8,225.0 129.6,226.0 132.7,229.1 134.6,233.8 135.1,239.7" fill="rgb(18,18,22)"/><polygon points="105.7,254.0 108.6,257.3 116.3,258.8 113.4,255.6" fill="rgb(14,14,17)"/><polygon points="122.1,224.0 118.2,222.9 125.8,225.0 129.6,226.0" fill="rgb(14,14,17)"/><polygon points="108.6,257.3 112.4,258.6 120.1,260.2 116.3,258.8" fill="rgb(14,14,17)"/><polygon points="125.1,227.0 122.1,224.0 129.6,226.0 132.7,229.1" fill="rgb(14,14,17)"/><polygon points="127.5,237.8 127.0,231.8 125.1,227.0 122.1,224.0 118.2,222.9 114.1,224.0 110.2,227.1 106.9,231.7 104.7,237.4 103.6,243.4 104.0,249.2 105.7,254.0 108.6,257.3 112.4,258.6 116.6,257.7 120.7,254.8 124.1,250.0 126.5,244.1" fill="rgb(30,30,36)"/><polygon points="119.8,239.5 119.1,235.7 116.9,233.8 114.0,234.5 111.6,237.5 110.5,241.7 111.2,245.5 113.3,247.5 116.2,246.8 118.7,243.8" fill="rgb(180,180,190)"/><polygon points="112.4,258.6 116.6,257.7 124.3,259.3 120.1,260.2" fill="rgb(14,14,17)"/><polygon points="274.1,228.5 271.7,234.3 266.1,232.4 268.5,226.5" fill="rgb(9,9,11)"/><polygon points="127.0,231.8 125.1,227.0 132.7,229.1 134.6,233.8" fill="rgb(13,13,15)"/><polygon points="271.7,234.3 271.0,240.5 265.4,238.6 266.1,232.4" fill="rgb(8,8,10)"/><polygon points="278.0,223.8 274.1,228.5 268.5,226.5 272.5,221.7" fill="rgb(11,11,14)"/><polygon points="313.3,225.9 258.3,203.3 99.0,241.6 159.9,255.5" fill="rgb(23,6,9)"/><polygon points="116.6,257.7 120.7,254.8 128.3,256.4 124.3,259.3" fill="rgb(13,13,16)"/><polygon points="271.0,240.5 272.2,246.4 266.5,244.6 265.4,238.6" fill="rgb(11,11,13)"/><polygon points="127.5,237.8 127.0,231.8 134.6,233.8 135.1,239.7" fill="rgb(11,11,13)"/><polygon points="283.0,220.7 278.0,223.8 272.5,221.7 277.5,218.5" fill="rgb(13,13,16)"/><polygon points="120.7,254.8 124.1,250.0 131.8,251.7 128.3,256.4" fill="rgb(11,11,14)"/><polygon points="126.5,244.1 127.5,237.8 135.1,239.7 134.2,245.9" fill="rgb(8,8,10)"/><polygon points="272.2,246.4 275.1,251.3 269.5,249.6 266.5,244.6" fill="rgb(13,13,15)"/><polygon points="124.1,250.0 126.5,244.1 134.2,245.9 131.8,251.7" fill="rgb(9,9,11)"/><polygon points="264.4,186.3 212.0,162.1 195.0,135.1 244.8,160.0" fill="rgb(21,32,57)"/><polygon points="212.0,162.1 125.1,190.0 142.3,154.8 195.0,135.1" fill="rgb(71,97,141)"/><polygon points="288.5,219.5 283.0,220.7 277.5,218.5 283.0,217.3" fill="rgb(14,14,17)"/><polygon points="293.1,236.5 291.6,232.6 288.4,230.7 284.6,231.4 281.6,234.5 280.6,238.8 282.0,242.7 285.2,244.7 289.1,244.0 292.1,240.9" fill="rgb(180,180,190)"/><polygon points="303.0,234.6 301.6,228.6 298.4,223.7 293.9,220.5 288.5,219.5 283.0,220.7 278.0,223.8 274.1,228.5 271.7,234.3 271.0,240.5 272.2,246.4 275.1,251.3 279.4,254.6 284.7,256.0 290.4,255.1 295.6,252.0 299.8,247.2 302.4,241.1" fill="rgb(30,30,36)"/><polygon points="275.1,251.3 279.4,254.6 273.8,253.0 269.5,249.6" fill="rgb(14,14,17)"/><polygon points="293.9,220.5 288.5,219.5 283.0,217.3 288.4,218.3" fill="rgb(14,14,17)"/><polygon points="279.4,254.6 284.7,256.0 279.2,254.3 273.8,253.0" fill="rgb(14,14,17)"/><polygon points="298.4,223.7 293.9,220.5 288.4,218.3 293.0,221.5" fill="rgb(14,14,17)"/><polygon points="296.9,239.2 294.3,245.3 290.1,250.3 284.8,253.4 279.2,254.3 273.8,253.0 269.5,249.6 266.5,244.6 265.4,238.6 266.1,232.4 268.5,226.5 272.5,221.7 277.5,218.5 283.0,217.3 288.4,218.3 293.0,221.5 296.2,226.4 297.6,232.6" fill="rgb(18,18,22)"/><polygon points="284.7,256.0 290.4,255.1 284.8,253.4 279.2,254.3" fill="rgb(14,14,17)"/><polygon points="301.6,228.6 298.4,223.7 293.0,221.5 296.2,226.4" fill="rgb(13,13,15)"/><polygon points="290.4,255.1 295.6,252.0 290.1,250.3 284.8,253.4" fill="rgb(13,13,16)"/><polygon points="303.0,234.6 301.6,228.6 296.2,226.4 297.6,232.6" fill="rgb(11,11,13)"/><polygon points="295.6,252.0 299.8,247.2 294.3,245.3 290.1,250.3" fill="rgb(11,11,14)"/><polygon points="302.4,241.1 303.0,234.6 297.6,232.6 296.9,239.2" fill="rgb(8,8,10)"/><polygon points="299.8,247.2 302.4,241.1 296.9,239.2 294.3,245.3" fill="rgb(9,9,11)"/><polygon points="256.3,146.1 101.7,196.2 99.0,241.6 258.3,203.3" fill="rgb(186,48,60)"/><polygon points="210.1,162.6 211.9,162.0 193.6,134.4 192.0,135.0" fill="rgb(35,10,18)"/><polygon points="296.8,187.0 301.2,189.2 302.0,201.6 297.5,199.5" fill="rgb(255,235,160)"/><polygon points="309.9,175.6 256.3,146.1 258.3,203.3 313.3,225.9" fill="rgb(115,29,37)"/><polygon points="277.3,194.4 296.6,203.2 297.2,213.9 277.8,205.6" fill="rgb(18,18,22)"/><polygon points="210.2,205.3 207.4,212.0 214.8,214.6 217.5,207.9" fill="rgb(9,9,11)"/><polygon points="207.4,212.0 206.5,219.2 213.9,221.6 214.8,214.6" fill="rgb(8,8,10)"/><polygon points="214.6,199.7 210.2,205.3 217.5,207.9 221.8,202.4" fill="rgb(11,11,14)"/><polygon points="206.5,219.2 207.5,225.9 214.9,228.3 213.9,221.6" fill="rgb(11,11,13)"/><polygon points="219.9,195.9 214.6,199.7 221.8,202.4 227.2,198.7" fill="rgb(13,13,16)"/><polygon points="207.5,225.9 210.4,231.5 217.8,233.7 214.9,228.3" fill="rgb(13,13,15)"/><polygon points="270.1,173.6 275.2,176.2 275.8,189.4 270.6,187.0" fill="rgb(255,235,160)"/><polygon points="225.8,194.3 219.9,195.9 227.2,198.7 233.0,197.2" fill="rgb(14,14,17)"/><polygon points="246.9,221.3 244.0,228.3 239.4,233.9 233.8,237.6 227.8,238.8 222.3,237.4 217.8,233.7 214.9,228.3 213.9,221.6 214.8,214.6 217.5,207.9 221.8,202.4 227.2,198.7 233.0,197.2 238.6,198.2 243.3,201.5 246.5,207.0 247.8,213.8" fill="rgb(18,18,22)"/><polygon points="210.4,231.5 214.9,235.2 222.3,237.4 217.8,233.7" fill="rgb(14,14,17)"/><polygon points="231.4,195.2 225.8,194.3 233.0,197.2 238.6,198.2" fill="rgb(14,14,17)"/><polygon points="214.9,235.2 220.4,236.5 227.8,238.8 222.3,237.4" fill="rgb(14,14,17)"/><polygon points="236.2,198.7 231.4,195.2 238.6,198.2 243.3,201.5" fill="rgb(14,14,17)"/><polygon points="240.6,211.1 239.4,204.2 236.2,198.7 231.4,195.2 225.8,194.3 219.9,195.9 214.6,199.7 210.2,205.3 207.4,212.0 206.5,219.2 207.5,225.9 210.4,231.5 214.9,235.2 220.4,236.5 226.4,235.3 232.1,231.6 236.7,225.8 239.7,218.7" fill="rgb(30,30,36)"/><polygon points="229.6,213.6 228.2,209.1 224.8,207.0 220.8,208.0 217.5,211.7 216.3,216.7 217.6,221.2 220.9,223.3 225.1,222.4 228.4,218.7" fill="rgb(180,180,190)"/><polygon points="220.4,236.5 226.4,235.3 233.8,237.6 227.8,238.8" fill="rgb(14,14,17)"/><polygon points="239.4,204.2 236.2,198.7 243.3,201.5 246.5,207.0" fill="rgb(13,13,15)"/><polygon points="226.4,235.3 232.1,231.6 239.4,233.9 233.8,237.6" fill="rgb(13,13,16)"/><polygon points="240.6,211.1 239.4,204.2 246.5,207.0 247.8,213.8" fill="rgb(11,11,13)"/><polygon points="232.1,231.6 236.7,225.8 244.0,228.3 239.4,233.9" fill="rgb(11,11,14)"/><polygon points="239.7,218.7 240.6,211.1 247.8,213.8 246.9,221.3" fill="rgb(8,8,10)"/><polygon points="236.7,225.8 239.7,218.7 246.9,221.3 244.0,228.3" fill="rgb(9,9,11)"/></svg>