<svg xmlns="http://www.w3.org/2000/svg" viewBox="0 0 400 400"><rect width="400" height="400" fill="#0f1020"/><rect x="0" y="250" width="400" height="150" fill="#0a0b17"/><ellipse cx="200" cy="262" rx="120" ry="16" fill="rgba(0,0,0,0.45)"/><polygon points="170.8,203.1 169.1,203.3 187.9,172.6 189.6,172.4" fill="rgb(35,10,18)"/><polygon points="144.5,244.8 148.5,241.0 144.9,239.0 140.8,242.8" fill="rgb(13,13,16)"/><polygon points="141.8,249.7 144.5,244.8 140.8,242.8 138.1,247.8" fill="rgb(12,12,14)"/><polygon points="148.5,241.0 153.4,238.8 149.9,236.7 144.9,239.0" fill="rgb(14,14,17)"/><polygon points="140.7,255.2 141.8,249.7 138.1,247.8 137.0,253.3" fill="rgb(10,10,12)"/><polygon points="153.4,238.8 158.6,238.4 155.1,236.3 149.9,236.7" fill="rgb(14,14,17)"/><polygon points="149.9,254.6 151.1,250.9 154.1,248.4 157.7,248.2 160.5,250.2 161.6,253.8 160.4,257.5 157.4,260.0 153.8,260.2 150.9,258.1" fill="rgb(180,180,190)"/><polygon points="140.7,255.2 141.8,249.7 144.5,244.8 148.5,241.0 153.4,238.8 158.6,238.4 163.5,239.8 167.4,243.1 170.0,247.6 170.8,253.0 169.8,258.6 167.0,263.6 162.9,267.5 157.8,269.8 152.6,270.1 147.7,268.5 143.9,265.2 141.4,260.5" fill="rgb(30,30,36)"/><polygon points="141.4,260.5 140.7,255.2 137.0,253.3 137.7,258.8" fill="rgb(8,8,9)"/><polygon points="158.6,238.4 163.5,239.8 160.1,237.8 155.1,236.3" fill="rgb(13,13,16)"/><polygon points="143.9,265.2 141.4,260.5 137.7,258.8 140.1,263.5" fill="rgb(10,10,12)"/><polygon points="163.5,239.8 167.4,243.1 164.0,241.0 160.1,237.8" fill="rgb(12,12,14)"/><polygon points="147.7,268.5 143.9,265.2 140.1,263.5 144.0,266.8" fill="rgb(12,12,14)"/><polygon points="167.4,243.1 170.0,247.6 166.6,245.6 164.0,241.0" fill="rgb(10,10,12)"/><polygon points="121.0,219.7 117.7,217.8 117.2,228.4 120.5,230.2" fill="rgb(255,235,160)"/><polygon points="152.6,270.1 147.7,268.5 144.0,266.8 149.0,268.5" fill="rgb(13,13,16)"/><polygon points="170.0,247.6 170.8,253.0 167.5,251.1 166.6,245.6" fill="rgb(8,8,9)"/><polygon points="137.7,258.8 140.1,263.5 144.0,266.8 149.0,268.5 154.3,268.1 159.4,265.9 163.6,261.9 166.4,256.8 167.5,251.1 166.6,245.6 164.0,241.0 160.1,237.8 155.1,236.3 149.9,236.7 144.9,239.0 140.8,242.8 138.1,247.8 137.0,253.3" fill="rgb(18,18,22)"/><polygon points="169.0,203.3 272.1,192.8 250.3,164.4 187.3,172.0" fill="rgb(68,94,136)"/><polygon points="157.8,269.8 152.6,270.1 149.0,268.5 154.3,268.1" fill="rgb(14,14,17)"/><polygon points="170.8,253.0 169.8,258.6 166.4,256.8 167.5,251.1" fill="rgb(10,10,12)"/><polygon points="162.9,267.5 157.8,269.8 154.3,268.1 159.4,265.9" fill="rgb(14,14,17)"/><polygon points="169.8,258.6 167.0,263.6 163.6,261.9 166.4,256.8" fill="rgb(12,12,14)"/><polygon points="167.0,263.6 162.9,267.5 159.4,265.9 163.6,261.9" fill="rgb(13,13,16)"/><polygon points="129.4,208.2 305.2,190.3 308.2,237.2 127.6,250.7" fill="rgb(188,48,61)"/><polygon points="272.2,192.8 270.3,193.0 248.9,165.3 250.7,165.1" fill="rgb(35,10,18)"/><polygon points="90.1,182.4 129.4,208.2 127.6,250.7 86.9,231.1" fill="rgb(104,27,34)"/><polygon points="116.2,231.5 101.9,223.9 101.4,233.4 115.7,240.5" fill="rgb(18,18,22)"/><polygon points="137.5,177.9 169.0,203.3 187.3,172.0 160.2,143.6" fill="rgb(20,30,53)"/><polygon points="264.1,235.5 268.4,231.5 266.6,229.1 262.1,233.2" fill="rgb(13,13,16)"/><polygon points="261.3,240.8 264.1,235.5 262.1,233.2 259.3,238.6" fill="rgb(12,12,14)"/><polygon points="268.4,231.5 273.9,229.0 272.2,226.6 266.6,229.1" fill="rgb(14,14,17)"/><polygon points="260.5,246.6 261.3,240.8 259.3,238.6 258.5,244.5" fill="rgb(10,10,12)"/><polygon points="273.9,229.0 279.9,228.5 278.2,226.1 272.2,226.6" fill="rgb(14,14,17)"/><polygon points="271.0,245.9 272.1,242.0 275.4,239.3 279.5,239.0 283.0,241.2 284.5,245.0 283.4,249.0 280.1,251.6 275.9,251.9 272.4,249.7" fill="rgb(180,180,190)"/><polygon points="260.5,246.6 261.3,240.8 264.1,235.5 268.4,231.5 273.9,229.0 279.9,228.5 285.6,230.1 290.5,233.5 293.8,238.4 295.2,244.1 294.5,250.1 291.7,255.5 287.1,259.7 281.5,262.1 275.4,262.5 269.6,260.8 264.9,257.3 261.7,252.3" fill="rgb(30,30,36)"/><polygon points="261.7,252.3 260.5,246.6 258.5,244.5 259.7,250.3" fill="rgb(8,8,9)"/><polygon points="279.9,228.5 285.6,230.1 284.1,227.7 278.2,226.1" fill="rgb(13,13,16)"/><polygon points="160.2,143.6 187.3,172.0 250.3,164.4 231.4,133.7" fill="rgb(93,19,31)"/><polygon points="264.9,257.3 261.7,252.3 259.7,250.3 262.9,255.3" fill="rgb(10,10,12)"/><polygon points="285.6,230.1 290.5,233.5 289.0,231.1 284.1,227.7" fill="rgb(12,12,14)"/><polygon points="269.6,260.8 264.9,257.3 262.9,255.3 267.8,258.9" fill="rgb(12,12,14)"/><polygon points="290.5,233.5 293.8,238.4 292.4,236.1 289.0,231.1" fill="rgb(10,10,12)"/><polygon points="101.9,208.4 98.1,206.2 97.4,217.5 101.2,219.6" fill="rgb(255,235,160)"/><polygon points="275.4,262.5 269.6,260.8 267.8,258.9 273.6,260.6" fill="rgb(13,13,16)"/><polygon points="293.8,238.4 295.2,244.1 293.8,241.9 292.4,236.1" fill="rgb(8,8,9)"/><polygon points="259.7,250.3 262.9,255.3 267.8,258.9 273.6,260.6 279.8,260.2 285.6,257.8 290.2,253.5 293.0,248.0 293.8,241.9 292.4,236.1 289.0,231.1 284.1,227.7 278.2,226.1 272.2,226.6 266.6,229.1 262.1,233.2 259.3,238.6 258.5,244.5" fill="rgb(18,18,22)"/><polygon points="90.1,182.4 292.4,158.0 305.2,190.3 129.4,208.2" fill="rgb(190,85,93)"/><polygon points="281.5,262.1 275.4,262.5 273.6,260.6 279.8,260.2" fill="rgb(14,14,17)"/><polygon points="295.2,244.1 294.5,250.1 293.0,248.0 293.8,241.9" fill="rgb(10,10,12)"/><polygon points="287.1,259.7 281.5,262.1 279.8,260.2 285.6,257.8" fill="rgb(14,14,17)"/><polygon points="294.5,250.1 291.7,255.5 290.2,253.5 293.0,248.0" fill="rgb(12,12,14)"/><polygon points="291.7,255.5 287.1,259.7 285.6,257.8 290.2,253.5" fill="rgb(13,13,16)"/><polygon points="255.1,163.8 231.4,133.7 250.3,164.4 272.1,192.8" fill="rgb(17,25,45)"/><polygon points="86.9,231.1 127.6,250.7 308.2,237.2 295.5,212.5" fill="rgb(23,6,9)"/><polygon points="304.3,202.4 305.0,213.9 304.0,211.7 303.2,199.9" fill="rgb(255,100,110)"/><polygon points="139.4,177.6 137.5,177.8 159.4,142.7 161.3,142.5" fill="rgb(35,10,18)"/><polygon points="101.7,221.6 106.5,217.1 111.4,219.9 106.7,224.3" fill="rgb(13,13,16)"/><polygon points="98.4,227.4 101.7,221.6 106.7,224.3 103.5,230.0" fill="rgb(12,12,14)"/><polygon points="106.5,217.1 112.2,214.4 117.0,217.2 111.4,219.9" fill="rgb(14,14,17)"/><polygon points="97.0,233.8 98.4,227.4 103.5,230.0 102.1,236.3" fill="rgb(10,10,12)"/><polygon points="112.2,214.4 118.1,213.8 122.9,216.7 117.0,217.2" fill="rgb(14,14,17)"/><polygon points="102.8,242.4 105.4,247.7 109.7,251.5 115.2,253.3 121.2,252.9 127.0,250.2 131.8,245.7 135.1,239.8 136.4,233.4 135.5,227.1 132.7,221.9 128.3,218.3 122.9,216.7 117.0,217.2 111.4,219.9 106.7,224.3 103.5,230.0 102.1,236.3" fill="rgb(18,18,22)"/><polygon points="97.7,240.0 97.0,233.8 102.1,236.3 102.8,242.4" fill="rgb(8,8,9)"/><polygon points="118.1,213.8 123.7,215.4 128.3,218.3 122.9,216.7" fill="rgb(13,13,16)"/><polygon points="137.5,177.9 160.2,143.6 231.4,133.7 255.1,163.8" fill="rgb(72,98,143)"/><polygon points="100.3,245.4 97.7,240.0 102.8,242.4 105.4,247.7" fill="rgb(10,10,12)"/><polygon points="123.7,215.4 128.2,219.1 132.7,221.9 128.3,218.3" fill="rgb(12,12,14)"/><polygon points="305.2,190.3 292.4,158.0 295.5,212.5 308.2,237.2" fill="rgb(73,12,19)"/><polygon points="104.7,249.3 100.3,245.4 105.4,247.7 109.7,251.5" fill="rgb(12,12,14)"/><polygon points="128.2,219.1 131.0,224.4 135.5,227.1 132.7,221.9" fill="rgb(10,10,12)"/><polygon points="110.3,251.1 104.7,249.3 109.7,251.5 115.2,253.3" fill="rgb(13,13,16)"/><polygon points="131.0,224.4 131.8,230.8 136.4,233.4 135.5,227.1" fill="rgb(8,8,9)"/><polygon points="97.0,233.8 98.4,227.4 101.7,221.6 106.5,217.1 112.2,214.4 118.1,213.8 123.7,215.4 128.2,219.1 131.0,224.4 131.8,230.8 130.5,237.3 127.1,243.3 122.2,247.9 116.4,250.6 110.3,251.1 104.7,249.3 100.3,245.4 97.7,240.0" fill="rgb(30,30,36)"/><polygon points="107.3,232.8 108.9,228.4 112.4,225.5 116.5,225.1 119.8,227.5 120.9,231.6 119.4,236.0 115.8,239.0 111.6,239.3 108.4,236.9" fill="rgb(180,180,190)"/><polygon points="116.4,250.6 110.3,251.1 115.2,253.3 121.2,252.9" fill="rgb(14,14,17)"/><polygon points="131.8,230.8 130.5,237.3 135.1,239.8 136.4,233.4" fill="rgb(10,10,12)"/><polygon points="122.2,247.9 116.4,250.6 121.2,252.9 127.0,250.2" fill="rgb(14,14,17)"/><polygon points="130.5,237.3 127.1,243.3 131.8,245.7 135.1,239.8" fill="rgb(12,12,14)"/><polygon points="127.1,243.3 122.2,247.9 127.0,250.2 131.8,245.7" fill="rgb(13,13,16)"/><polygon points="90.1,182.4 86.9,231.1 295.5,212.5 292.4,158.0" fill="rgb(188,48,61)"/><polygon points="255.1,163.7 252.9,164.0 228.8,133.1 230.8,132.8" fill="rgb(35,10,18)"/><polygon points="298.2,188.2 298.9,200.7 297.7,198.0 297.0,185.4" fill="rgb(255,100,110)"/><polygon points="241.4,208.4 246.7,203.5 249.2,206.8 244.1,211.6" fill="rgb(13,13,16)"/><polygon points="238.1,214.7 241.4,208.4 244.1,211.6 240.8,217.7" fill="rgb(12,12,14)"/><polygon points="246.7,203.5 253.2,200.5 255.7,203.9 249.2,206.8" fill="rgb(14,14,17)"/><polygon points="237.0,221.6 238.1,214.7 240.8,217.7 239.8,224.5" fill="rgb(10,10,12)"/><polygon points="253.2,200.5 260.3,199.8 262.6,203.2 255.7,203.9" fill="rgb(14,14,17)"/><polygon points="241.1,231.2 244.8,236.9 250.2,240.9 257.0,242.8 264.1,242.3 270.7,239.4 276.1,234.4 279.4,228.0 280.3,221.1 278.8,214.4 274.9,208.7 269.3,204.9 262.6,203.2 255.7,203.9 249.2,206.8 244.1,211.6 240.8,217.7 239.8,224.5" fill="rgb(18,18,22)"/><polygon points="238.4,228.3 237.0,221.6 239.8,224.5 241.1,231.2" fill="rgb(8,8,9)"/><polygon points="260.3,199.8 267.1,201.5 269.3,204.9 262.6,203.2" fill="rgb(13,13,16)"/><polygon points="242.1,234.1 238.4,228.3 241.1,231.2 244.8,236.9" fill="rgb(10,10,12)"/><polygon points="267.1,201.5 272.8,205.4 274.9,208.7 269.3,204.9" fill="rgb(12,12,14)"/><polygon points="247.7,238.3 242.1,234.1 244.8,236.9 250.2,240.9" fill="rgb(12,12,14)"/><polygon points="272.8,205.4 276.8,211.1 278.8,214.4 274.9,208.7" fill="rgb(10,10,12)"/><polygon points="254.5,240.2 247.7,238.3 250.2,240.9 257.0,242.8" fill="rgb(13,13,16)"/><polygon points="276.8,211.1 278.3,218.0 280.3,221.1 278.8,214.4" fill="rgb(8,8,9)"/><polygon points="237.0,221.6 238.1,214.7 241.4,208.4 246.7,203.5 253.2,200.5 260.3,199.8 267.1,201.5 272.8,205.4 276.8,211.1 278.3,218.0 277.4,225.1 274.0,231.6 268.5,236.7 261.8,239.6 254.5,240.2 247.7,238.3 242.1,234.1 238.4,228.3" fill="rgb(30,30,36)"/><polygon points="249.4,220.4 250.7,215.7 254.6,212.5 259.6,212.0 263.7,214.5 265.4,219.0 264.1,223.8 260.1,227.0 255.1,227.4 251.0,224.9" fill="rgb(180,180,190)"/><polygon points="261.8,239.6 254.5,240.2 257.0,242.8 264.1,242.3" fill="rgb(14,14,17)"/><polygon points="278.3,218.0 277.4,225.1 279.4,228.0 280.3,221.1" fill="rgb(10,10,12)"/><polygon points="268.5,236.7 261.8,239.6 264.1,242.3 270.7,239.4" fill="rgb(14,14,17)"/><polygon points="277.4,225.1 274.0,231.6 276.1,234.4 279.4,228.0" fill="rgb(12,12,14)"/><polygon points="274.0,231.6 268.5,236.7 270.7,239.4 276.1,234.4" fill="rgb(13,13,16)"/></svg>