<svg xmlns="http://www.w3.org/2000/svg" viewBox="0 0 400 400"><rect width="400" height="400" fill="#0f1020"/><rect x="0" y="250" width="400" height="150" fill="#0a0b17"/><ellipse cx="200" cy="262" rx="120" ry="16" fill="rgba(0,0,0,0.45)"/><polygon points="153.5,251.6 156.0,246.6 151.3,244.8 148.8,249.8" fill="rgb(11,11,13)"/><polygon points="156.0,246.6 159.7,242.7 155.0,240.9 151.3,244.8" fill="rgb(12,12,15)"/><polygon points="152.6,257.0 153.5,251.6 148.8,249.8 147.8,255.3" fill="rgb(9,9,10)"/><polygon points="159.7,242.7 164.1,240.4 159.6,238.4 155.0,240.9" fill="rgb(14,14,17)"/><polygon points="153.2,262.2 152.6,257.0 147.8,255.3 148.5,260.6" fill="rgb(9,9,11)"/><polygon points="179.0,204.4 177.4,204.6 194.8,173.1 196.4,172.8" fill="rgb(35,10,18)"/><polygon points="164.1,240.4 168.9,239.8 164.4,237.8 159.6,238.4" fill="rgb(14,14,17)"/><polygon points="161.0,256.1 162.1,252.4 164.8,249.9 168.1,249.5 170.8,251.4 171.8,254.9 170.7,258.6 167.9,261.1 164.6,261.5 161.9,259.6" fill="rgb(180,180,190)"/><polygon points="152.6,257.0 153.5,251.6 156.0,246.6 159.7,242.7 164.1,240.4 168.9,239.8 173.4,241.0 177.1,244.1 179.5,248.5 180.3,253.9 179.3,259.4 176.8,264.5 173.0,268.5 168.3,270.8 163.5,271.3 159.0,269.9 155.5,266.7 153.2,262.2" fill="rgb(30,30,36)"/><polygon points="155.5,266.7 153.2,262.2 148.5,260.6 150.7,265.1" fill="rgb(11,11,13)"/><polygon points="131.3,222.9 127.3,221.2 126.8,231.6 130.9,233.2" fill="rgb(255,235,160)"/><polygon points="168.9,239.8 173.4,241.0 168.9,239.1 164.4,237.8" fill="rgb(14,14,17)"/><polygon points="159.0,269.9 155.5,266.7 150.7,265.1 154.3,268.4" fill="rgb(13,13,15)"/><polygon points="173.4,241.0 177.1,244.1 172.6,242.2 168.9,239.1" fill="rgb(13,13,15)"/><polygon points="163.5,271.3 159.0,269.9 154.3,268.4 158.8,269.8" fill="rgb(14,14,17)"/><polygon points="177.1,244.1 179.5,248.5 175.0,246.7 172.6,242.2" fill="rgb(11,11,13)"/><polygon points="148.5,260.6 150.7,265.1 154.3,268.4 158.8,269.8 163.7,269.3 168.4,266.9 172.3,262.9 174.8,257.7 175.8,252.1 175.0,246.7 172.6,242.2 168.9,239.1 164.4,237.8 159.6,238.4 155.0,240.9 151.3,244.8 148.8,249.8 147.8,255.3" fill="rgb(18,18,22)"/><polygon points="168.3,270.8 163.5,271.3 158.8,269.8 163.7,269.3" fill="rgb(14,14,17)"/><polygon points="179.5,248.5 180.3,253.9 175.8,252.1 175.0,246.7" fill="rgb(9,9,11)"/><polygon points="173.0,268.5 168.3,270.8 163.7,269.3 168.4,266.9" fill="rgb(14,14,17)"/><polygon points="180.3,253.9 179.3,259.4 174.8,257.7 175.8,252.1" fill="rgb(9,9,10)"/><polygon points="176.8,264.5 173.0,268.5 168.4,266.9 172.3,262.9" fill="rgb(12,12,15)"/><polygon points="179.3,259.4 176.8,264.5 172.3,262.9 174.8,257.7" fill="rgb(11,11,13)"/><polygon points="177.3,204.6 275.8,188.9 254.0,161.3 194.0,172.5" fill="rgb(69,94,137)"/><polygon points="93.0,188.2 141.4,211.2 139.9,253.0 90.0,235.6" fill="rgb(92,23,30)"/><polygon points="125.6,234.7 108.1,227.9 107.6,237.1 125.3,243.5" fill="rgb(18,18,22)"/><polygon points="141.4,211.2 309.0,184.7 312.2,232.9 139.9,253.0" fill="rgb(189,48,61)"/><polygon points="135.6,181.4 177.3,204.6 194.0,172.5 156.5,146.3" fill="rgb(18,27,49)"/><polygon points="275.8,189.0 274.0,189.3 253.0,162.3 254.7,162.0" fill="rgb(35,10,18)"/><polygon points="107.8,212.8 103.1,210.8 102.5,221.9 107.2,223.8" fill="rgb(255,235,160)"/><polygon points="156.5,146.3 194.0,172.5 254.0,161.3 222.6,131.8" fill="rgb(93,19,31)"/><polygon points="266.5,238.4 269.2,232.9 265.8,230.7 263.1,236.2" fill="rgb(11,11,13)"/><polygon points="269.2,232.9 273.5,228.6 270.2,226.3 265.8,230.7" fill="rgb(12,12,15)"/><polygon points="265.7,244.3 266.5,238.4 263.1,236.2 262.3,242.3" fill="rgb(9,9,10)"/><polygon points="273.5,228.6 278.9,225.9 275.6,223.5 270.2,226.3" fill="rgb(14,14,17)"/><polygon points="93.0,188.2 280.1,152.7 309.0,184.7 141.4,211.2" fill="rgb(190,85,93)"/><polygon points="267.0,250.1 265.7,244.3 262.3,242.3 263.5,248.1" fill="rgb(9,9,11)"/><polygon points="278.9,225.9 284.8,225.1 281.6,222.7 275.6,223.5" fill="rgb(14,14,17)"/><polygon points="276.1,243.2 277.2,239.2 280.4,236.3 284.5,235.9 287.9,237.9 289.4,241.8 288.3,245.9 285.1,248.7 281.0,249.2 277.5,247.1" fill="rgb(180,180,190)"/><polygon points="265.7,244.3 266.5,238.4 269.2,232.9 273.5,228.6 278.9,225.9 284.8,225.1 290.5,226.4 295.3,229.7 298.6,234.6 300.0,240.5 299.3,246.7 296.5,252.3 292.1,256.8 286.5,259.4 280.5,260.0 274.8,258.5 270.1,255.0 267.0,250.1" fill="rgb(30,30,36)"/><polygon points="270.1,255.0 267.0,250.1 263.5,248.1 266.7,253.1" fill="rgb(11,11,13)"/><polygon points="284.8,225.1 290.5,226.4 287.4,224.1 281.6,222.7" fill="rgb(14,14,17)"/><polygon points="274.8,258.5 270.1,255.0 266.7,253.1 271.4,256.6" fill="rgb(13,13,15)"/><polygon points="290.5,226.4 295.3,229.7 292.3,227.4 287.4,224.1" fill="rgb(13,13,15)"/><polygon points="280.5,260.0 274.8,258.5 271.4,256.6 277.2,258.2" fill="rgb(14,14,17)"/><polygon points="295.3,229.7 298.6,234.6 295.6,232.3 292.3,227.4" fill="rgb(11,11,13)"/><polygon points="263.5,248.1 266.7,253.1 271.4,256.6 277.2,258.2 283.3,257.6 289.0,254.9 293.5,250.3 296.3,244.6 297.0,238.3 295.6,232.3 292.3,227.4 287.4,224.1 281.6,222.7 275.6,223.5 270.2,226.3 265.8,230.7 263.1,236.2 262.3,242.3" fill="rgb(18,18,22)"/><polygon points="286.5,259.4 280.5,260.0 277.2,258.2 283.3,257.6" fill="rgb(14,14,17)"/><polygon points="298.6,234.6 300.0,240.5 297.0,238.3 295.6,232.3" fill="rgb(9,9,11)"/><polygon points="137.1,181.0 135.4,181.3 155.4,145.5 157.1,145.1" fill="rgb(35,10,18)"/><polygon points="90.0,235.6 139.9,253.0 312.2,232.9 282.9,208.3" fill="rgb(23,6,9)"/><polygon points="292.1,256.8 286.5,259.4 283.3,257.6 289.0,254.9" fill="rgb(14,14,17)"/><polygon points="99.2,231.5 102.1,225.8 108.3,228.2 105.4,233.8" fill="rgb(11,11,13)"/><polygon points="300.0,240.5 299.3,246.7 296.3,244.6 297.0,238.3" fill="rgb(9,9,10)"/><polygon points="102.1,225.8 106.3,221.2 112.4,223.7 108.3,228.2" fill="rgb(12,12,15)"/><polygon points="296.5,252.3 292.1,256.8 289.0,254.9 293.5,250.3" fill="rgb(12,12,15)"/><polygon points="97.9,237.8 99.2,231.5 105.4,233.8 104.2,240.0" fill="rgb(9,9,10)"/><polygon points="299.3,246.7 296.5,252.3 293.5,250.3 296.3,244.6" fill="rgb(11,11,13)"/><polygon points="106.3,221.2 111.3,218.3 117.4,220.9 112.4,223.7" fill="rgb(14,14,17)"/><polygon points="98.4,243.8 97.9,237.8 104.2,240.0 104.7,245.9" fill="rgb(9,9,11)"/><polygon points="244.6,160.8 222.6,131.8 254.0,161.3 275.8,188.9" fill="rgb(19,28,50)"/><polygon points="111.3,218.3 116.6,217.5 122.6,220.1 117.4,220.9" fill="rgb(14,14,17)"/><polygon points="104.7,245.9 107.0,251.0 110.8,254.6 115.7,256.1 121.0,255.5 126.2,252.7 130.5,248.1 133.4,242.3 134.6,235.9 133.9,229.8 131.4,224.8 127.5,221.4 122.6,220.1 117.4,220.9 112.4,223.7 108.3,228.2 105.4,233.8 104.2,240.0" fill="rgb(18,18,22)"/><polygon points="100.7,249.0 98.4,243.8 104.7,245.9 107.0,251.0" fill="rgb(11,11,13)"/><polygon points="116.6,217.5 121.5,218.9 127.5,221.4 122.6,220.1" fill="rgb(14,14,17)"/><polygon points="104.5,252.6 100.7,249.0 107.0,251.0 110.8,254.6" fill="rgb(13,13,15)"/><polygon points="121.5,218.9 125.5,222.3 131.4,224.8 127.5,221.4" fill="rgb(13,13,15)"/><polygon points="109.4,254.2 104.5,252.6 110.8,254.6 115.7,256.1" fill="rgb(14,14,17)"/><polygon points="125.5,222.3 128.0,227.4 133.9,229.8 131.4,224.8" fill="rgb(11,11,13)"/><polygon points="97.9,237.8 99.2,231.5 102.1,225.8 106.3,221.2 111.3,218.3 116.6,217.5 121.5,218.9 125.5,222.3 128.0,227.4 128.7,233.5 127.4,240.0 124.4,246.0 120.1,250.7 114.8,253.5 109.4,254.2 104.5,252.6 100.7,249.0 98.4,243.8" fill="rgb(30,30,36)"/><polygon points="106.9,236.5 108.3,232.2 111.4,229.2 115.0,228.6 117.9,230.8 118.9,234.8 117.5,239.2 114.4,242.2 110.7,242.6 107.8,240.5" fill="rgb(180,180,190)"/><polygon points="114.8,253.5 109.4,254.2 115.7,256.1 121.0,255.5" fill="rgb(14,14,17)"/><polygon points="128.0,227.4 128.7,233.5 134.6,235.9 133.9,229.8" fill="rgb(9,9,11)"/><polygon points="305.1,197.2 305.9,209.1 303.5,206.8 302.8,194.8" fill="rgb(255,100,110)"/><polygon points="120.1,250.7 114.8,253.5 121.0,255.5 126.2,252.7" fill="rgb(14,14,17)"/><polygon points="135.6,181.4 156.5,146.3 222.6,131.8 244.6,160.8" fill="rgb(72,99,144)"/><polygon points="128.7,233.5 127.4,240.0 133.4,242.3 134.6,235.9" fill="rgb(9,9,10)"/><polygon points="124.4,246.0 120.1,250.7 126.2,252.7 130.5,248.1" fill="rgb(12,12,15)"/><polygon points="127.4,240.0 124.4,246.0 130.5,248.1 133.4,242.3" fill="rgb(11,11,13)"/><polygon points="93.0,188.2 90.0,235.6 282.9,208.3 280.1,152.7" fill="rgb(189,48,61)"/><polygon points="309.0,184.7 280.1,152.7 282.9,208.3 312.2,232.9" fill="rgb(64,11,17)"/><polygon points="244.5,160.7 242.5,161.1 219.7,131.4 221.7,130.9" fill="rgb(35,10,18)"/><polygon points="291.2,183.1 291.9,195.9 289.1,193.3 288.4,180.3" fill="rgb(255,100,110)"/><polygon points="226.5,213.2 229.7,206.7 234.3,209.8 231.1,216.1" fill="rgb(11,11,13)"/><polygon points="229.7,206.7 234.7,201.5 239.2,204.7 234.3,209.8" fill="rgb(12,12,15)"/><polygon points="225.4,220.2 226.5,213.2 231.1,216.1 230.1,223.0" fill="rgb(9,9,10)"/><polygon points="234.7,201.5 241.0,198.2 245.4,201.4 239.2,204.7" fill="rgb(14,14,17)"/><polygon points="226.7,227.0 225.4,220.2 230.1,223.0 231.4,229.7" fill="rgb(9,9,11)"/><polygon points="241.0,198.2 247.7,197.1 252.1,200.4 245.4,201.4" fill="rgb(14,14,17)"/><polygon points="231.4,229.7 234.8,235.3 240.0,239.2 246.5,240.9 253.3,240.1 259.7,236.9 264.9,231.6 268.2,225.0 269.1,217.8 267.6,211.0 263.9,205.4 258.5,201.8 252.1,200.4 245.4,201.4 239.2,204.7 234.3,209.8 231.1,216.1 230.1,223.0" fill="rgb(18,18,22)"/><polygon points="230.1,232.7 226.7,227.0 231.4,229.7 234.8,235.3" fill="rgb(11,11,13)"/><polygon points="247.7,197.1 254.3,198.5 258.5,201.8 252.1,200.4" fill="rgb(14,14,17)"/><polygon points="235.4,236.7 230.1,232.7 234.8,235.3 240.0,239.2" fill="rgb(13,13,15)"/><polygon points="254.3,198.5 259.8,202.2 263.9,205.4 258.5,201.8" fill="rgb(13,13,15)"/><polygon points="241.9,238.3 235.4,236.7 240.0,239.2 246.5,240.9" fill="rgb(14,14,17)"/><polygon points="259.8,202.2 263.5,207.9 267.6,211.0 263.9,205.4" fill="rgb(11,11,13)"/><polygon points="225.4,220.2 226.5,213.2 229.7,206.7 234.7,201.5 241.0,198.2 247.7,197.1 254.3,198.5 259.8,202.2 263.5,207.9 265.0,214.8 264.1,222.1 260.7,228.8 255.4,234.2 248.9,237.5 241.9,238.3 235.4,236.7 230.1,232.7 226.7,227.0" fill="rgb(30,30,36)"/><polygon points="237.1,218.5 238.4,213.7 242.2,210.3 246.9,209.6 250.9,211.9 252.5,216.4 251.1,221.3 247.3,224.7 242.6,225.4 238.6,223.0" fill="rgb(180,180,190)"/><polygon points="248.9,237.5 241.9,238.3 246.5,240.9 253.3,240.1" fill="rgb(14,14,17)"/><polygon points="263.5,207.9 265.0,214.8 269.1,217.8 267.6,211.0" fill="rgb(9,9,11)"/><polygon points="255.4,234.2 248.9,237.5 253.3,240.1 259.7,236.9" fill="rgb(14,14,17)"/><polygon points="265.0,214.8 264.1,222.1 268.2,225.0 269.1,217.8" fill="rgb(9,9,10)"/><polygon points="260.7,228.8 255.4,234.2 259.7,236.9 264.9,231.6" fill="rgb(12,12,15)"/><polygon points="264.1,222.1 260.7,228.8 264.9,231.6 268.2,225.0" fill="rgb(11,11,13)"/></svg>