<svg xmlns="http://www.w3.org/2000/svg" viewBox="0 0 400 400"><rect width="400" height="400" fill="#0f1020"/><rect x="0" y="250" width="400" height="150" fill="#0a0b17"/><ellipse cx="200" cy="262" rx="120" ry="16" fill="rgba(0,0,0,0.45)"/><polygon points="250.3,226.4 245.0,227.7 245.3,237.7 250.6,236.5" fill="rgb(255,235,160)"/><polygon points="221.3,253.9 219.4,248.9 225.7,247.5 227.6,252.6" fill="rgb(11,11,14)"/><polygon points="222.0,259.2 221.3,253.9 227.6,252.6 228.4,258.0" fill="rgb(14,14,17)"/><polygon points="219.4,248.9 216.5,244.8 222.9,243.4 225.7,247.5" fill="rgb(8,8,9)"/><polygon points="221.4,264.3 222.0,259.2 228.4,258.0 227.8,263.1" fill="rgb(16,16,20)"/><polygon points="216.5,244.8 213.0,242.2 219.4,240.7 222.9,243.4" fill="rgb(11,11,13)"/><polygon points="219.6,268.6 221.4,264.3 227.8,263.1 226.0,267.4" fill="rgb(18,18,21)"/><polygon points="213.0,242.2 209.2,241.3 215.6,239.8 219.4,240.7" fill="rgb(14,14,17)"/><polygon points="216.8,271.5 219.6,268.6 226.0,267.4 223.2,270.4" fill="rgb(17,17,21)"/><polygon points="215.2,257.9 214.4,254.2 212.3,251.5 209.7,250.9 207.5,252.7 206.7,256.0 207.6,259.8 209.7,262.5 212.4,263.0 214.5,261.2" fill="rgb(180,180,190)"/><polygon points="222.0,259.2 221.3,253.9 219.4,248.9 216.5,244.8 213.0,242.2 209.2,241.3 205.6,242.2 202.6,245.0 200.7,249.3 200.0,254.5 200.7,260.1 202.7,265.3 205.7,269.5 209.4,272.0 213.2,272.7 216.8,271.5 219.6,268.6 221.4,264.3" fill="rgb(30,30,36)"/><polygon points="209.2,241.3 205.6,242.2 212.0,240.8 215.6,239.8" fill="rgb(16,16,20)"/><polygon points="232.3,215.3 294.4,198.6 297.0,243.5 233.1,256.1" fill="rgb(184,47,60)"/><polygon points="213.2,272.7 216.8,271.5 223.2,270.4 219.7,271.6" fill="rgb(16,16,20)"/><polygon points="203.6,205.5 204.9,205.9 191.1,172.9 189.9,172.4" fill="rgb(35,10,18)"/><polygon points="227.8,263.1 226.0,267.4 223.2,270.4 219.7,271.6 215.9,270.9 212.2,268.3 209.1,264.1 207.1,258.8 206.4,253.2 207.1,247.8 209.0,243.5 212.0,240.8 215.6,239.8 219.4,240.7 222.9,243.4 225.7,247.5 227.6,252.6 228.4,258.0" fill="rgb(18,18,22)"/><polygon points="205.6,242.2 202.6,245.0 209.0,243.5 212.0,240.8" fill="rgb(17,17,21)"/><polygon points="274.5,234.6 252.0,239.6 252.3,248.1 274.9,243.4" fill="rgb(18,18,22)"/><polygon points="209.4,272.0 213.2,272.7 219.7,271.6 215.9,270.9" fill="rgb(14,14,17)"/><polygon points="202.6,245.0 200.7,249.3 207.1,247.8 209.0,243.5" fill="rgb(18,18,21)"/><polygon points="205.7,269.5 209.4,272.0 215.9,270.9 212.2,268.3" fill="rgb(11,11,13)"/><polygon points="200.7,249.3 200.0,254.5 206.4,253.2 207.1,247.8" fill="rgb(16,16,20)"/><polygon points="202.7,265.3 205.7,269.5 212.2,268.3 209.1,264.1" fill="rgb(8,8,9)"/><polygon points="200.0,254.5 200.7,260.1 207.1,258.8 206.4,253.2" fill="rgb(14,14,17)"/><polygon points="200.7,260.1 202.7,265.3 209.1,264.1 207.1,258.8" fill="rgb(11,11,14)"/><polygon points="281.2,218.9 275.3,220.3 275.8,230.8 281.7,229.4" fill="rgb(255,235,160)"/><polygon points="205.0,205.9 263.5,188.3 247.2,152.2 192.4,172.4" fill="rgb(18,27,47)"/><polygon points="205.0,205.9 192.4,172.4 142.2,154.4 122.3,180.6" fill="rgb(44,60,88)"/><polygon points="232.3,215.3 233.1,256.1 87.9,223.6 91.2,172.5" fill="rgb(122,31,40)"/><polygon points="292.5,239.1 290.4,233.5 282.5,235.2 284.5,240.8" fill="rgb(11,11,14)"/><polygon points="293.4,245.1 292.5,239.1 284.5,240.8 285.4,246.7" fill="rgb(14,14,17)"/><polygon points="290.4,233.5 287.5,228.9 279.6,230.7 282.5,235.2" fill="rgb(8,8,9)"/><polygon points="293.1,250.8 293.4,245.1 285.4,246.7 285.1,252.3" fill="rgb(16,16,20)"/><polygon points="287.5,228.9 283.9,225.8 276.0,227.6 279.6,230.7" fill="rgb(11,11,13)"/><polygon points="291.6,255.6 293.1,250.8 285.1,252.3 283.6,257.0" fill="rgb(18,18,21)"/><polygon points="192.4,172.4 247.2,152.2 196.9,130.0 142.2,154.4" fill="rgb(93,19,31)"/><polygon points="283.9,225.8 280.2,224.7 272.3,226.5 276.0,227.6" fill="rgb(14,14,17)"/><polygon points="289.0,258.7 291.6,255.6 283.6,257.0 280.9,260.2" fill="rgb(17,17,21)"/><polygon points="285.1,252.3 283.6,257.0 280.9,260.2 277.5,261.4 273.8,260.5 270.1,257.6 267.0,252.9 264.8,247.1 263.9,240.9 264.4,235.1 266.1,230.4 268.9,227.5 272.3,226.5 276.0,227.6 279.6,230.7 282.5,235.2 284.5,240.8 285.4,246.7" fill="rgb(18,18,22)"/><polygon points="262.4,187.8 263.6,188.3 248.8,151.6 247.6,151.0" fill="rgb(35,10,18)"/><polygon points="280.2,224.7 276.8,225.6 268.9,227.5 272.3,226.5" fill="rgb(16,16,20)"/><polygon points="232.3,215.3 91.2,172.5 152.9,144.4 294.4,198.6" fill="rgb(190,85,93)"/><polygon points="285.6,260.0 289.0,258.7 280.9,260.2 277.5,261.4" fill="rgb(16,16,20)"/><polygon points="122.2,180.7 123.8,181.2 142.5,155.5 141.0,154.9" fill="rgb(35,10,18)"/><polygon points="293.4,245.1 292.5,239.1 290.4,233.5 287.5,228.9 283.9,225.8 280.2,224.7 276.8,225.6 274.1,228.6 272.4,233.3 271.9,239.2 272.9,245.4 275.1,251.3 278.2,256.1 281.9,259.1 285.6,260.0 289.0,258.7 291.6,255.6 293.1,250.8" fill="rgb(30,30,36)"/><polygon points="287.3,243.3 286.3,239.2 284.1,236.1 281.6,235.4 279.6,237.2 278.9,241.0 279.9,245.2 282.2,248.3 284.8,249.0 286.7,247.1" fill="rgb(180,180,190)"/><polygon points="276.8,225.6 274.1,228.6 266.1,230.4 268.9,227.5" fill="rgb(17,17,21)"/><polygon points="281.9,259.1 285.6,260.0 277.5,261.4 273.8,260.5" fill="rgb(14,14,17)"/><polygon points="274.1,228.6 272.4,233.3 264.4,235.1 266.1,230.4" fill="rgb(18,18,21)"/><polygon points="278.2,256.1 281.9,259.1 273.8,260.5 270.1,257.6" fill="rgb(11,11,13)"/><polygon points="272.4,233.3 271.9,239.2 263.9,240.9 264.4,235.1" fill="rgb(16,16,20)"/><polygon points="275.1,251.3 278.2,256.1 270.1,257.6 267.0,252.9" fill="rgb(8,8,9)"/><polygon points="271.9,239.2 272.9,245.4 264.8,247.1 263.9,240.9" fill="rgb(14,14,17)"/><polygon points="272.9,245.4 275.1,251.3 267.0,252.9 264.8,247.1" fill="rgb(11,11,14)"/><polygon points="233.1,256.1 297.0,243.5 151.2,202.0 87.9,223.6" fill="rgb(23,6,9)"/><polygon points="127.4,232.9 125.1,227.0 131.4,225.1 133.7,231.1" fill="rgb(11,11,14)"/><polygon points="128.1,239.2 127.4,232.9 133.7,231.1 134.4,237.4" fill="rgb(14,14,17)"/><polygon points="125.1,227.0 121.4,222.1 127.6,220.1 131.4,225.1" fill="rgb(8,8,9)"/><polygon points="126.9,245.1 128.1,239.2 134.4,237.4 133.3,243.4" fill="rgb(16,16,20)"/><polygon points="121.4,222.1 116.6,218.8 122.8,216.8 127.6,220.1" fill="rgb(11,11,13)"/><polygon points="124.1,250.0 126.9,245.1 133.3,243.4 130.5,248.4" fill="rgb(18,18,21)"/><polygon points="116.6,218.8 111.3,217.6 117.5,215.5 122.8,216.8" fill="rgb(14,14,17)"/><polygon points="263.5,188.3 180.6,156.8 196.9,130.0 247.2,152.2" fill="rgb(47,65,94)"/><polygon points="119.9,253.3 124.1,250.0 130.5,248.4 126.3,251.7" fill="rgb(17,17,21)"/><polygon points="118.8,237.3 117.9,232.9 115.0,229.7 111.4,228.9 108.2,230.8 106.8,234.7 107.8,239.2 110.7,242.4 114.4,243.1 117.5,241.2" fill="rgb(180,180,190)"/><polygon points="128.1,239.2 127.4,232.9 125.1,227.0 121.4,222.1 116.6,218.8 111.3,217.6 106.1,218.5 101.7,221.6 98.6,226.5 97.3,232.6 97.9,239.2 100.3,245.4 104.4,250.4 109.4,253.6 114.8,254.6 119.9,253.3 124.1,250.0 126.9,245.1" fill="rgb(30,30,36)"/><polygon points="111.3,217.6 106.1,218.5 112.3,216.4 117.5,215.5" fill="rgb(16,16,20)"/><polygon points="122.3,180.6 142.2,154.4 196.9,130.0 180.6,156.8" fill="rgb(29,44,78)"/><polygon points="114.8,254.6 119.9,253.3 126.3,251.7 121.2,252.9" fill="rgb(16,16,20)"/><polygon points="133.3,243.4 130.5,248.4 126.3,251.7 121.2,252.9 115.7,251.9 110.7,248.7 106.6,243.6 104.1,237.3 103.5,230.6 104.8,224.4 107.9,219.5 112.3,216.4 117.5,215.5 122.8,216.8 127.6,220.1 131.4,225.1 133.7,231.1 134.4,237.4" fill="rgb(18,18,22)"/><polygon points="106.1,218.5 101.7,221.6 107.9,219.5 112.3,216.4" fill="rgb(17,17,21)"/><polygon points="109.4,253.6 114.8,254.6 121.2,252.9 115.7,251.9" fill="rgb(14,14,17)"/><polygon points="294.4,198.6 152.9,144.4 151.2,202.0 297.0,243.5" fill="rgb(122,31,40)"/><polygon points="101.7,221.6 98.6,226.5 104.8,224.4 107.9,219.5" fill="rgb(18,18,21)"/><polygon points="104.4,250.4 109.4,253.6 115.7,251.9 110.7,248.7" fill="rgb(11,11,13)"/><polygon points="98.6,226.5 97.3,232.6 103.5,230.6 104.8,224.4" fill="rgb(16,16,20)"/><polygon points="100.3,245.4 104.4,250.4 110.7,248.7 106.6,243.6" fill="rgb(8,8,9)"/><polygon points="97.3,232.6 97.9,239.2 104.1,237.3 103.5,230.6" fill="rgb(14,14,17)"/><polygon points="97.9,239.2 100.3,245.4 106.6,243.6 104.1,237.3" fill="rgb(11,11,14)"/><polygon points="180.7,156.8 182.4,157.4 200.1,130.0 198.5,129.3" fill="rgb(35,10,18)"/><polygon points="106.7,184.4 106.0,197.1 100.8,199.1 101.5,186.6" fill="rgb(255,100,110)"/><polygon points="152.9,144.4 91.2,172.5 87.9,223.6 151.2,202.0" fill="rgb(128,21,34)"/><polygon points="199.1,211.9 196.5,205.1 188.4,207.6 191.0,214.3" fill="rgb(11,11,14)"/><polygon points="200.0,219.1 199.1,211.9 191.0,214.3 191.8,221.4" fill="rgb(14,14,17)"/><polygon points="196.5,205.1 192.5,199.4 184.4,202.0 188.4,207.6" fill="rgb(8,8,9)"/><polygon points="199.1,225.8 200.0,219.1 191.8,221.4 190.9,228.0" fill="rgb(16,16,20)"/><polygon points="192.5,199.4 187.5,195.4 179.5,198.1 184.4,202.0" fill="rgb(11,11,13)"/><polygon points="196.5,231.3 199.1,225.8 190.9,228.0 188.2,233.5" fill="rgb(18,18,21)"/><polygon points="187.5,195.4 182.1,193.7 174.1,196.5 179.5,198.1" fill="rgb(14,14,17)"/><polygon points="192.4,235.0 196.5,231.3 188.2,233.5 184.1,237.0" fill="rgb(17,17,21)"/><polygon points="190.9,228.0 188.2,233.5 184.1,237.0 179.0,238.3 173.4,237.0 168.2,233.2 163.9,227.4 161.1,220.3 160.3,212.8 161.5,206.0 164.5,200.6 168.8,197.3 174.1,196.5 179.5,198.1 184.4,202.0 188.4,207.6 191.0,214.3 191.8,221.4" fill="rgb(18,18,22)"/><polygon points="137.4,171.7 136.9,185.2 131.0,187.5 131.5,174.2" fill="rgb(255,100,110)"/><polygon points="182.1,193.7 176.9,194.6 168.8,197.3 174.1,196.5" fill="rgb(16,16,20)"/><polygon points="187.2,236.2 192.4,235.0 184.1,237.0 179.0,238.3" fill="rgb(16,16,20)"/><polygon points="200.0,219.1 199.1,211.9 196.5,205.1 192.5,199.4 187.5,195.4 182.1,193.7 176.9,194.6 172.5,197.9 169.6,203.3 168.4,210.3 169.3,217.9 172.1,225.1 176.4,231.0 181.7,234.9 187.2,236.2 192.4,235.0 196.5,231.3 199.1,225.8" fill="rgb(30,30,36)"/><polygon points="191.0,216.4 189.9,211.4 186.9,207.6 183.1,206.5 180.0,208.6 178.7,213.0 179.8,218.2 182.9,222.0 186.7,223.0 189.8,220.9" fill="rgb(180,180,190)"/><polygon points="176.9,194.6 172.5,197.9 164.5,200.6 168.8,197.3" fill="rgb(17,17,21)"/><polygon points="181.7,234.9 187.2,236.2 179.0,238.3 173.4,237.0" fill="rgb(14,14,17)"/><polygon points="172.5,197.9 169.6,203.3 161.5,206.0 164.5,200.6" fill="rgb(18,18,21)"/><polygon points="176.4,231.0 181.7,234.9 173.4,237.0 168.2,233.2" fill="rgb(11,11,13)"/><polygon points="169.6,203.3 168.4,210.3 160.3,212.8 161.5,206.0" fill="rgb(16,16,20)"/><polygon points="172.1,225.1 176.4,231.0 168.2,233.2 163.9,227.4" fill="rgb(8,8,9)"/><polygon points="168.4,210.3 169.3,217.9 161.1,220.3 160.3,212.8" fill="rgb(14,14,17)"/><polygon points="169.3,217.9 172.1,225.1 163.9,227.4 161.1,220.3" fill="rgb(11,11,14)"/></svg>