<svg xmlns="http://www.w3.org/2000/svg" viewBox="0 0 400 400"><rect width="400" height="400" fill="#0f1020"/><rect x="0" y="250" width="400" height="150" fill="#0a0b17"/><ellipse cx="200" cy="262" rx="120" ry="16" fill="rgba(0,0,0,0.45)"/><polygon points="252.4,250.7 249.9,245.8 254.0,243.9 256.7,248.9" fill="rgb(10,10,12)"/><polygon points="249.9,245.8 246.0,241.9 250.1,240.0 254.0,243.9" fill="rgb(8,8,10)"/><polygon points="225.2,203.8 226.8,204.0 208.7,172.9 207.0,172.7" fill="rgb(35,10,18)"/><polygon points="253.5,256.1 252.4,250.7 256.7,248.9 257.7,254.4" fill="rgb(13,13,15)"/><polygon points="246.0,241.9 241.3,239.6 245.4,237.6 250.1,240.0" fill="rgb(11,11,14)"/><polygon points="252.8,261.4 253.5,256.1 257.7,254.4 257.0,259.7" fill="rgb(15,15,18)"/><polygon points="241.3,239.6 236.3,239.1 240.3,237.1 245.4,237.6" fill="rgb(14,14,17)"/><polygon points="244.6,255.4 243.5,251.7 240.6,249.2 237.2,248.9 234.4,250.8 233.4,254.4 234.5,258.1 237.4,260.6 240.9,260.9 243.7,258.9" fill="rgb(180,180,190)"/><polygon points="253.5,256.1 252.4,250.7 249.9,245.8 246.0,241.9 241.3,239.6 236.3,239.1 231.6,240.5 227.8,243.6 225.3,248.1 224.5,253.5 225.5,259.1 228.2,264.1 232.1,268.0 237.0,270.3 242.0,270.7 246.7,269.2 250.4,266.0 252.8,261.4" fill="rgb(30,30,36)"/><polygon points="250.4,266.0 252.8,261.4 257.0,259.7 254.7,264.4" fill="rgb(16,16,20)"/><polygon points="236.3,239.1 231.6,240.5 235.6,238.5 240.3,237.1" fill="rgb(16,16,19)"/><polygon points="277.7,219.5 274.0,221.4 274.4,231.8 278.1,230.0" fill="rgb(255,235,160)"/><polygon points="246.7,269.2 250.4,266.0 254.7,264.4 250.9,267.6" fill="rgb(16,16,20)"/><polygon points="231.6,240.5 227.8,243.6 231.7,241.6 235.6,238.5" fill="rgb(16,16,20)"/><polygon points="242.0,270.7 246.7,269.2 250.9,267.6 246.2,269.2" fill="rgb(16,16,19)"/><polygon points="227.8,243.6 225.3,248.1 229.2,246.2 231.7,241.6" fill="rgb(16,16,20)"/><polygon points="257.0,259.7 254.7,264.4 250.9,267.6 246.2,269.2 241.1,268.8 236.2,266.4 232.1,262.4 229.4,257.3 228.4,251.7 229.2,246.2 231.7,241.6 235.6,238.5 240.3,237.1 245.4,237.6 250.1,240.0 254.0,243.9 256.7,248.9 257.7,254.4" fill="rgb(18,18,22)"/><polygon points="237.0,270.3 242.0,270.7 246.2,269.2 241.1,268.8" fill="rgb(14,14,17)"/><polygon points="225.3,248.1 224.5,253.5 228.4,251.7 229.2,246.2" fill="rgb(15,15,18)"/><polygon points="232.1,268.0 237.0,270.3 241.1,268.8 236.2,266.4" fill="rgb(11,11,14)"/><polygon points="224.5,253.5 225.5,259.1 229.4,257.3 228.4,251.7" fill="rgb(13,13,15)"/><polygon points="228.2,264.1 232.1,268.0 236.2,266.4 232.1,262.4" fill="rgb(8,8,10)"/><polygon points="225.5,259.1 228.2,264.1 232.1,262.4 229.4,257.3" fill="rgb(10,10,12)"/><polygon points="226.9,204.0 209.4,172.3 147.7,162.9 125.9,190.9" fill="rgb(56,77,112)"/><polygon points="264.7,209.8 266.4,251.9 89.5,235.1 92.6,187.5" fill="rgb(155,40,51)"/><polygon points="264.7,209.8 308.7,185.3 311.9,233.4 266.4,251.9" fill="rgb(164,42,53)"/><polygon points="295.2,225.9 279.3,233.1 279.7,242.1 295.7,235.3" fill="rgb(18,18,22)"/><polygon points="125.8,190.9 127.7,191.2 148.9,163.9 147.2,163.6" fill="rgb(35,10,18)"/><polygon points="226.9,204.0 263.7,179.6 241.8,144.9 209.4,172.3" fill="rgb(15,23,41)"/><polygon points="299.6,208.6 295.4,210.7 296.0,221.7 300.3,219.8" fill="rgb(255,235,160)"/><polygon points="209.4,172.3 241.8,144.9 172.9,132.7 147.7,162.9" fill="rgb(93,19,31)"/><polygon points="135.9,239.6 133.2,234.2 135.8,232.0 138.6,237.4" fill="rgb(10,10,12)"/><polygon points="133.2,234.2 128.9,230.0 131.4,227.7 135.8,232.0" fill="rgb(8,8,10)"/><polygon points="136.7,245.5 135.9,239.6 138.6,237.4 139.4,243.4" fill="rgb(13,13,15)"/><polygon points="128.9,230.0 123.4,227.5 125.9,225.1 131.4,227.7" fill="rgb(11,11,14)"/><polygon points="135.5,251.2 136.7,245.5 139.4,243.4 138.2,249.2" fill="rgb(15,15,18)"/><polygon points="123.4,227.5 117.5,226.9 119.9,224.4 125.9,225.1" fill="rgb(14,14,17)"/><polygon points="126.3,244.6 125.2,240.6 121.9,237.9 117.8,237.5 114.3,239.6 112.8,243.4 113.9,247.5 117.2,250.2 121.4,250.6 124.8,248.4" fill="rgb(180,180,190)"/><polygon points="136.7,245.5 135.9,239.6 133.2,234.2 128.9,230.0 123.4,227.5 117.5,226.9 111.7,228.3 106.9,231.6 103.5,236.5 102.1,242.3 102.9,248.4 105.7,254.0 110.2,258.3 115.8,260.8 121.9,261.3 127.6,259.7 132.3,256.2 135.5,251.2" fill="rgb(30,30,36)"/><polygon points="132.3,256.2 135.5,251.2 138.2,249.2 135.0,254.2" fill="rgb(16,16,20)"/><polygon points="117.5,226.9 111.7,228.3 114.0,225.9 119.9,224.4" fill="rgb(16,16,19)"/><polygon points="264.7,209.8 92.6,187.5 113.4,155.3 308.7,185.3" fill="rgb(190,85,93)"/><polygon points="127.6,259.7 132.3,256.2 135.0,254.2 130.2,257.8" fill="rgb(16,16,20)"/><polygon points="111.7,228.3 106.9,231.6 109.1,229.3 114.0,225.9" fill="rgb(16,16,20)"/><polygon points="121.9,261.3 127.6,259.7 130.2,257.8 124.4,259.4" fill="rgb(16,16,19)"/><polygon points="106.9,231.6 103.5,236.5 105.7,234.2 109.1,229.3" fill="rgb(16,16,20)"/><polygon points="138.2,249.2 135.0,254.2 130.2,257.8 124.4,259.4 118.2,258.9 112.5,256.3 107.9,251.9 105.1,246.3 104.3,240.1 105.7,234.2 109.1,229.3 114.0,225.9 119.9,224.4 125.9,225.1 131.4,227.7 135.8,232.0 138.6,237.4 139.4,243.4" fill="rgb(18,18,22)"/><polygon points="115.8,260.8 121.9,261.3 124.4,259.4 118.2,258.9" fill="rgb(14,14,17)"/><polygon points="103.5,236.5 102.1,242.3 104.3,240.1 105.7,234.2" fill="rgb(15,15,18)"/><polygon points="110.2,258.3 115.8,260.8 118.2,258.9 112.5,256.3" fill="rgb(11,11,14)"/><polygon points="102.1,242.3 102.9,248.4 105.1,246.3 104.3,240.1" fill="rgb(13,13,15)"/><polygon points="105.7,254.0 110.2,258.3 112.5,256.3 107.9,251.9" fill="rgb(8,8,10)"/><polygon points="102.9,248.4 105.7,254.0 107.9,251.9 105.1,246.3" fill="rgb(10,10,12)"/><polygon points="266.4,251.9 311.9,233.4 110.4,210.3 89.5,235.1" fill="rgb(23,6,9)"/><polygon points="125.9,190.9 147.7,162.9 172.9,132.7 149.9,162.2" fill="rgb(27,41,72)"/><polygon points="262.0,179.3 263.8,179.6 242.8,144.1 240.9,143.8" fill="rgb(35,10,18)"/><polygon points="301.5,229.5 298.4,223.7 292.8,226.3 295.8,231.9" fill="rgb(10,10,12)"/><polygon points="298.4,223.7 293.9,219.2 288.4,221.8 292.8,226.3" fill="rgb(8,8,10)"/><polygon points="302.9,235.8 301.5,229.5 295.8,231.9 297.1,238.2" fill="rgb(13,13,15)"/><polygon points="293.9,219.2 288.6,216.4 283.1,219.1 288.4,221.8" fill="rgb(11,11,14)"/><polygon points="96.7,197.4 95.9,209.3 94.2,211.5 95.0,199.8" fill="rgb(255,100,110)"/><polygon points="302.3,242.0 302.9,235.8 297.1,238.2 296.5,244.2" fill="rgb(15,15,18)"/><polygon points="288.6,216.4 282.9,215.7 277.5,218.4 283.1,219.1" fill="rgb(14,14,17)"/><polygon points="296.5,244.2 294.1,249.4 290.0,253.0 284.8,254.7 279.2,254.2 273.7,251.5 269.1,246.9 266.0,241.0 264.7,234.6 265.5,228.5 268.1,223.4 272.3,219.9 277.5,218.4 283.1,219.1 288.4,221.8 292.8,226.3 295.8,231.9 297.1,238.2" fill="rgb(18,18,22)"/><polygon points="299.8,247.2 302.3,242.0 296.5,244.2 294.1,249.4" fill="rgb(16,16,20)"/><polygon points="282.9,215.7 277.6,217.2 272.3,219.9 277.5,218.4" fill="rgb(16,16,19)"/><polygon points="295.7,250.9 299.8,247.2 294.1,249.4 290.0,253.0" fill="rgb(16,16,20)"/><polygon points="277.6,217.2 273.4,220.7 268.1,223.4 272.3,219.9" fill="rgb(16,16,20)"/><polygon points="290.5,252.6 295.7,250.9 290.0,253.0 284.8,254.7" fill="rgb(16,16,19)"/><polygon points="263.7,179.6 149.9,162.2 172.9,132.7 241.8,144.9" fill="rgb(59,82,119)"/><polygon points="273.4,220.7 270.8,225.9 265.5,228.5 268.1,223.4" fill="rgb(16,16,20)"/><polygon points="302.9,235.8 301.5,229.5 298.4,223.7 293.9,219.2 288.6,216.4 282.9,215.7 277.6,217.2 273.4,220.7 270.8,225.9 270.0,232.1 271.3,238.7 274.5,244.6 279.1,249.3 284.7,252.1 290.5,252.6 295.7,250.9 299.8,247.2 302.3,242.0" fill="rgb(30,30,36)"/><polygon points="293.2,234.6 291.7,230.3 288.4,227.4 284.5,226.9 281.4,229.1 280.4,233.2 281.8,237.6 285.2,240.6 289.1,241.0 292.2,238.7" fill="rgb(180,180,190)"/><polygon points="284.7,252.1 290.5,252.6 284.8,254.7 279.2,254.2" fill="rgb(14,14,17)"/><polygon points="270.8,225.9 270.0,232.1 264.7,234.6 265.5,228.5" fill="rgb(15,15,18)"/><polygon points="279.1,249.3 284.7,252.1 279.2,254.2 273.7,251.5" fill="rgb(11,11,14)"/><polygon points="270.0,232.1 271.3,238.7 266.0,241.0 264.7,234.6" fill="rgb(13,13,15)"/><polygon points="274.5,244.6 279.1,249.3 273.7,251.5 269.1,246.9" fill="rgb(8,8,10)"/><polygon points="271.3,238.7 274.5,244.6 269.1,246.9 266.0,241.0" fill="rgb(10,10,12)"/><polygon points="113.4,155.3 92.6,187.5 89.5,235.1 110.4,210.3" fill="rgb(115,19,31)"/><polygon points="308.7,185.3 113.4,155.3 110.4,210.3 311.9,233.4" fill="rgb(155,40,51)"/><polygon points="150.0,162.2 152.1,162.5 175.7,132.1 173.6,131.8" fill="rgb(35,10,18)"/><polygon points="106.9,182.8 106.2,195.6 104.2,198.2 104.9,185.6" fill="rgb(255,100,110)"/><polygon points="167.6,213.9 164.3,207.5 160.6,210.6 163.9,216.9" fill="rgb(10,10,12)"/><polygon points="164.3,207.5 159.1,202.4 155.6,205.7 160.6,210.6" fill="rgb(8,8,10)"/><polygon points="168.6,220.8 167.6,213.9 163.9,216.9 164.9,223.7" fill="rgb(13,13,15)"/><polygon points="159.1,202.4 152.7,199.3 149.3,202.6 155.6,205.7" fill="rgb(11,11,14)"/><polygon points="167.3,227.6 168.6,220.8 164.9,223.7 163.6,230.4" fill="rgb(15,15,18)"/><polygon points="152.7,199.3 145.7,198.4 142.4,201.7 149.3,202.6" fill="rgb(14,14,17)"/><polygon points="163.6,230.4 160.0,236.0 154.7,240.0 148.1,241.8 141.0,241.1 134.5,238.1 129.2,233.0 125.9,226.5 124.9,219.4 126.5,212.6 130.3,207.0 135.8,203.3 142.4,201.7 149.3,202.6 155.6,205.7 160.6,210.6 163.9,216.9 164.9,223.7" fill="rgb(18,18,22)"/><polygon points="163.7,233.4 167.3,227.6 163.6,230.4 160.0,236.0" fill="rgb(16,16,20)"/><polygon points="145.7,198.4 139.0,199.9 135.8,203.3 142.4,201.7" fill="rgb(16,16,19)"/><polygon points="158.3,237.4 163.7,233.4 160.0,236.0 154.7,240.0" fill="rgb(16,16,20)"/><polygon points="139.0,199.9 133.4,203.8 130.3,207.0 135.8,203.3" fill="rgb(16,16,20)"/><polygon points="151.6,239.2 158.3,237.4 154.7,240.0 148.1,241.8" fill="rgb(16,16,19)"/><polygon points="133.4,203.8 129.5,209.4 126.5,212.6 130.3,207.0" fill="rgb(16,16,20)"/><polygon points="168.6,220.8 167.6,213.9 164.3,207.5 159.1,202.4 152.7,199.3 145.7,198.4 139.0,199.9 133.4,203.8 129.5,209.4 128.0,216.3 129.0,223.5 132.3,230.2 137.7,235.4 144.4,238.5 151.6,239.2 158.3,237.4 163.7,233.4 167.3,227.6" fill="rgb(30,30,36)"/><polygon points="156.6,219.4 155.2,214.6 151.4,211.3 146.5,210.7 142.5,213.1 140.8,217.6 142.1,222.5 146.0,225.8 150.9,226.3 155.0,223.9" fill="rgb(180,180,190)"/><polygon points="144.4,238.5 151.6,239.2 148.1,241.8 141.0,241.1" fill="rgb(14,14,17)"/><polygon points="129.5,209.4 128.0,216.3 124.9,219.4 126.5,212.6" fill="rgb(15,15,18)"/><polygon points="137.7,235.4 144.4,238.5 141.0,241.1 134.5,238.1" fill="rgb(11,11,14)"/><polygon points="128.0,216.3 129.0,223.5 125.9,226.5 124.9,219.4" fill="rgb(13,13,15)"/><polygon points="132.3,230.2 137.7,235.4 134.5,238.1 129.2,233.0" fill="rgb(8,8,10)"/><polygon points="129.0,223.5 132.3,230.2 129.2,233.0 125.9,226.5" fill="rgb(10,10,12)"/></svg>