<svg xmlns="http://www.w3.org/2000/svg" viewBox="0 0 400 400"><rect width="400" height="400" fill="#0f1020"/><rect x="0" y="250" width="400" height="150" fill="#0a0b17"/><ellipse cx="200" cy="262" rx="120" ry="16" fill="rgba(0,0,0,0.45)"/><polygon points="163.1,201.5 161.3,201.6 181.2,171.7 182.9,171.6" fill="rgb(35,10,18)"/><polygon points="161.2,201.6 267.0,196.3 245.5,167.3 180.8,171.1" fill="rgb(67,92,134)"/><polygon points="138.2,238.9 143.5,236.8 141.1,234.6 135.8,236.7" fill="rgb(14,14,18)"/><polygon points="133.9,242.6 138.2,238.9 135.8,236.7 131.4,240.5" fill="rgb(14,14,17)"/><polygon points="143.5,236.8 149.0,236.6 146.7,234.3 141.1,234.6" fill="rgb(14,14,17)"/><polygon points="139.6,252.7 140.9,249.0 144.1,246.6 147.9,246.5 150.9,248.6 152.0,252.3 150.7,256.0 147.5,258.4 143.7,258.5 140.6,256.4" fill="rgb(180,180,190)"/><polygon points="131.0,247.5 133.9,242.6 131.4,240.5 128.4,245.4" fill="rgb(13,13,16)"/><polygon points="129.8,253.0 131.0,247.5 133.9,242.6 138.2,238.9 143.5,236.8 149.0,236.6 154.1,238.3 158.3,241.7 161.0,246.4 161.8,251.9 160.7,257.5 157.8,262.5 153.4,266.3 148.0,268.4 142.4,268.6 137.2,266.8 133.1,263.3 130.5,258.5" fill="rgb(30,30,36)"/><polygon points="149.0,236.6 154.1,238.3 151.9,236.1 146.7,234.3" fill="rgb(13,13,16)"/><polygon points="129.8,253.0 131.0,247.5 128.4,245.4 127.2,251.0" fill="rgb(11,11,14)"/><polygon points="154.1,238.3 158.3,241.7 156.1,239.5 151.9,236.1" fill="rgb(11,11,13)"/><polygon points="130.5,258.5 129.8,253.0 127.2,251.0 127.9,256.6" fill="rgb(9,9,11)"/><polygon points="267.0,196.4 265.1,196.5 243.8,168.1 245.6,168.0" fill="rgb(35,10,18)"/><polygon points="158.3,241.7 161.0,246.4 158.8,244.3 156.1,239.5" fill="rgb(9,9,11)"/><polygon points="133.1,263.3 130.5,258.5 127.9,256.6 130.5,261.4" fill="rgb(9,9,11)"/><polygon points="118.4,204.6 299.2,195.6 301.9,241.2 116.3,248.0" fill="rgb(184,47,60)"/><polygon points="161.0,246.4 161.8,251.9 159.7,249.9 158.8,244.3" fill="rgb(9,9,11)"/><polygon points="137.2,266.8 133.1,263.3 130.5,261.4 134.7,265.0" fill="rgb(11,11,13)"/><polygon points="161.8,251.9 160.7,257.5 158.6,255.5 159.7,249.9" fill="rgb(11,11,14)"/><polygon points="142.4,268.6 137.2,266.8 134.7,265.0 140.0,266.8" fill="rgb(13,13,16)"/><polygon points="127.9,256.6 130.5,261.4 134.7,265.0 140.0,266.8 145.7,266.6 151.1,264.5 155.6,260.6 158.6,255.5 159.7,249.9 158.8,244.3 156.1,239.5 151.9,236.1 146.7,234.3 141.1,234.6 135.8,236.7 131.4,240.5 128.4,245.4 127.2,251.0" fill="rgb(18,18,22)"/><polygon points="160.7,257.5 157.8,262.5 155.6,260.6 158.6,255.5" fill="rgb(13,13,16)"/><polygon points="148.0,268.4 142.4,268.6 140.0,266.8 145.7,266.6" fill="rgb(14,14,17)"/><polygon points="157.8,262.5 153.4,266.3 151.1,264.5 155.6,260.6" fill="rgb(14,14,17)"/><polygon points="153.4,266.3 148.0,268.4 145.7,266.6 151.1,264.5" fill="rgb(14,14,18)"/><polygon points="112.0,216.0 109.6,213.9 109.0,224.8 111.4,226.7" fill="rgb(255,235,160)"/><polygon points="262.0,234.1 267.5,231.9 267.2,229.5 261.6,231.7" fill="rgb(14,14,18)"/><polygon points="257.6,237.9 262.0,234.1 261.6,231.7 257.1,235.6" fill="rgb(14,14,17)"/><polygon points="267.5,231.9 273.4,231.7 273.2,229.2 267.2,229.5" fill="rgb(14,14,17)"/><polygon points="264.5,248.3 265.6,244.5 268.8,242.0 272.9,241.9 276.4,244.1 277.8,247.9 276.7,251.7 273.5,254.2 269.3,254.4 265.9,252.1" fill="rgb(180,180,190)"/><polygon points="254.9,243.0 257.6,237.9 257.1,235.6 254.3,240.7" fill="rgb(13,13,16)"/><polygon points="254.0,248.7 254.9,243.0 257.6,237.9 262.0,234.1 267.5,231.9 273.4,231.7 279.1,233.4 283.8,236.9 287.1,241.8 288.4,247.4 287.7,253.2 284.9,258.4 280.4,262.4 274.8,264.5 268.8,264.7 263.1,262.9 258.4,259.3 255.2,254.3" fill="rgb(30,30,36)"/><polygon points="273.4,231.7 279.1,233.4 279.0,231.0 273.2,229.2" fill="rgb(13,13,16)"/><polygon points="254.0,248.7 254.9,243.0 254.3,240.7 253.4,246.5" fill="rgb(11,11,14)"/><polygon points="279.1,233.4 283.8,236.9 283.8,234.6 279.0,231.0" fill="rgb(11,11,13)"/><polygon points="255.2,254.3 254.0,248.7 253.4,246.5 254.7,252.3" fill="rgb(9,9,11)"/><polygon points="283.8,236.9 287.1,241.8 287.1,239.5 283.8,234.6" fill="rgb(9,9,11)"/><polygon points="258.4,259.3 255.2,254.3 254.7,252.3 257.9,257.3" fill="rgb(9,9,11)"/><polygon points="287.1,241.8 288.4,247.4 288.5,245.3 287.1,239.5" fill="rgb(9,9,11)"/><polygon points="263.1,262.9 258.4,259.3 257.9,257.3 262.7,261.0" fill="rgb(11,11,13)"/><polygon points="288.4,247.4 287.7,253.2 287.7,251.2 288.5,245.3" fill="rgb(11,11,14)"/><polygon points="268.8,264.7 263.1,262.9 262.7,261.0 268.5,262.9" fill="rgb(13,13,16)"/><polygon points="254.7,252.3 257.9,257.3 262.7,261.0 268.5,262.9 274.6,262.7 280.3,260.4 284.9,256.4 287.7,251.2 288.5,245.3 287.1,239.5 283.8,234.6 279.0,231.0 273.2,229.2 267.2,229.5 261.6,231.7 257.1,235.6 254.3,240.7 253.4,246.5" fill="rgb(18,18,22)"/><polygon points="287.7,253.2 284.9,258.4 284.9,256.4 287.7,251.2" fill="rgb(13,13,16)"/><polygon points="141.2,174.5 161.2,201.6 180.8,171.1 165.0,141.1" fill="rgb(22,33,58)"/><polygon points="274.8,264.5 268.8,264.7 268.5,262.9 274.6,262.7" fill="rgb(14,14,17)"/><polygon points="284.9,258.4 280.4,262.4 280.3,260.4 284.9,256.4" fill="rgb(14,14,17)"/><polygon points="280.4,262.4 274.8,264.5 274.6,262.7 280.3,260.4" fill="rgb(14,14,18)"/><polygon points="165.0,141.1 180.8,171.1 245.5,167.3 239.2,136.1" fill="rgb(93,19,31)"/><polygon points="89.9,176.3 118.4,204.6 116.3,248.0 86.6,226.5" fill="rgb(119,31,39)"/><polygon points="108.2,227.9 97.8,219.6 97.2,229.3 107.7,237.2" fill="rgb(18,18,22)"/><polygon points="89.9,176.3 301.5,163.9 299.2,195.6 118.4,204.6" fill="rgb(190,85,93)"/><polygon points="300.9,207.3 301.6,218.6 301.8,216.3 301.1,204.9" fill="rgb(255,100,110)"/><polygon points="263.8,167.4 239.2,136.1 245.5,167.3 267.0,196.3" fill="rgb(15,22,40)"/><polygon points="98.1,203.6 95.3,201.2 94.6,212.8 97.4,215.2" fill="rgb(255,235,160)"/><polygon points="86.6,226.5 116.3,248.0 301.9,241.2 304.8,217.0" fill="rgb(23,6,9)"/><polygon points="299.2,195.6 301.5,163.9 304.8,217.0 301.9,241.2" fill="rgb(83,14,22)"/><polygon points="143.2,174.3 141.2,174.4 164.5,140.2 166.6,140.1" fill="rgb(35,10,18)"/><polygon points="141.2,174.5 165.0,141.1 239.2,136.1 263.8,167.4" fill="rgb(70,97,141)"/><polygon points="109.2,213.0 115.4,210.5 118.7,213.5 112.6,216.0" fill="rgb(14,14,18)"/><polygon points="263.8,167.3 261.6,167.4 236.9,135.3 239.0,135.2" fill="rgb(35,10,18)"/><polygon points="103.9,217.4 109.2,213.0 112.6,216.0 107.4,220.3" fill="rgb(14,14,17)"/><polygon points="302.2,193.4 302.9,205.6 303.2,202.9 302.4,190.6" fill="rgb(255,100,110)"/><polygon points="115.4,210.5 121.9,210.1 125.1,213.2 118.7,213.5" fill="rgb(14,14,17)"/><polygon points="100.3,223.2 103.9,217.4 107.4,220.3 103.9,226.0" fill="rgb(13,13,16)"/><polygon points="103.2,238.8 106.1,244.3 110.9,248.4 116.9,250.4 123.5,250.2 129.7,247.7 135.0,243.2 138.5,237.4 139.8,230.9 138.9,224.5 135.9,219.0 131.1,215.1 125.1,213.2 118.7,213.5 112.6,216.0 107.4,220.3 103.9,226.0 102.5,232.4" fill="rgb(18,18,22)"/><polygon points="121.9,210.1 128.0,212.1 131.1,215.1 125.1,213.2" fill="rgb(13,13,16)"/><polygon points="98.8,229.7 100.3,223.2 103.9,226.0 102.5,232.4" fill="rgb(11,11,14)"/><polygon points="128.0,212.1 132.9,216.0 135.9,219.0 131.1,215.1" fill="rgb(11,11,13)"/><polygon points="99.6,236.1 98.8,229.7 102.5,232.4 103.2,238.8" fill="rgb(9,9,11)"/><polygon points="132.9,216.0 136.0,221.6 138.9,224.5 135.9,219.0" fill="rgb(9,9,11)"/><polygon points="102.5,241.8 99.6,236.1 103.2,238.8 106.1,244.3" fill="rgb(9,9,11)"/><polygon points="89.9,176.3 86.6,226.5 304.8,217.0 301.5,163.9" fill="rgb(184,47,60)"/><polygon points="136.0,221.6 136.9,228.1 139.8,230.9 138.9,224.5" fill="rgb(9,9,11)"/><polygon points="107.4,245.9 102.5,241.8 106.1,244.3 110.9,248.4" fill="rgb(11,11,13)"/><polygon points="136.9,228.1 135.5,234.7 138.5,237.4 139.8,230.9" fill="rgb(11,11,14)"/><polygon points="113.5,248.0 107.4,245.9 110.9,248.4 116.9,250.4" fill="rgb(13,13,16)"/><polygon points="98.8,229.7 100.3,223.2 103.9,217.4 109.2,213.0 115.4,210.5 121.9,210.1 128.0,212.1 132.9,216.0 136.0,221.6 136.9,228.1 135.5,234.7 131.9,240.7 126.6,245.2 120.2,247.7 113.5,248.0 107.4,245.9 102.5,241.8 99.6,236.1" fill="rgb(30,30,36)"/><polygon points="135.5,234.7 131.9,240.7 135.0,243.2 138.5,237.4" fill="rgb(13,13,16)"/><polygon points="110.3,229.1 111.9,224.7 115.7,221.9 120.3,221.7 123.9,224.2 125.1,228.5 123.5,232.9 119.6,235.8 115.0,236.0 111.5,233.4" fill="rgb(180,180,190)"/><polygon points="120.2,247.7 113.5,248.0 116.9,250.4 123.5,250.2" fill="rgb(14,14,17)"/><polygon points="131.9,240.7 126.6,245.2 129.7,247.7 135.0,243.2" fill="rgb(14,14,17)"/><polygon points="126.6,245.2 120.2,247.7 123.5,250.2 129.7,247.7" fill="rgb(14,14,18)"/><polygon points="257.1,206.0 263.7,203.4 264.1,206.7 257.7,209.3" fill="rgb(14,14,18)"/><polygon points="251.8,210.6 257.1,206.0 257.7,209.3 252.5,213.8" fill="rgb(14,14,17)"/><polygon points="263.7,203.4 270.8,203.0 271.1,206.4 264.1,206.7" fill="rgb(14,14,17)"/><polygon points="248.4,216.6 251.8,210.6 252.5,213.8 249.2,219.7" fill="rgb(13,13,16)"/><polygon points="249.5,233.0 253.2,238.7 258.8,243.0 265.6,245.1 272.7,244.8 279.4,242.2 284.7,237.6 287.9,231.5 288.8,224.7 287.3,218.1 283.4,212.4 277.8,208.4 271.1,206.4 264.1,206.7 257.7,209.3 252.5,213.8 249.2,219.7 248.1,226.4" fill="rgb(18,18,22)"/><polygon points="270.8,203.0 277.6,205.0 277.8,208.4 271.1,206.4" fill="rgb(13,13,16)"/><polygon points="247.3,223.4 248.4,216.6 249.2,219.7 248.1,226.4" fill="rgb(11,11,14)"/><polygon points="277.6,205.0 283.4,209.1 283.4,212.4 277.8,208.4" fill="rgb(11,11,13)"/><polygon points="248.8,230.1 247.3,223.4 248.1,226.4 249.5,233.0" fill="rgb(9,9,11)"/><polygon points="283.4,209.1 287.3,214.9 287.3,218.1 283.4,212.4" fill="rgb(9,9,11)"/><polygon points="252.6,236.0 248.8,230.1 249.5,233.0 253.2,238.7" fill="rgb(9,9,11)"/><polygon points="287.3,214.9 288.9,221.6 288.8,224.7 287.3,218.1" fill="rgb(9,9,11)"/><polygon points="258.2,240.3 252.6,236.0 253.2,238.7 258.8,243.0" fill="rgb(11,11,13)"/><polygon points="288.9,221.6 288.0,228.5 287.9,231.5 288.8,224.7" fill="rgb(11,11,14)"/><polygon points="265.1,242.4 258.2,240.3 258.8,243.0 265.6,245.1" fill="rgb(13,13,16)"/><polygon points="247.3,223.4 248.4,216.6 251.8,210.6 257.1,206.0 263.7,203.4 270.8,203.0 277.6,205.0 283.4,209.1 287.3,214.9 288.9,221.6 288.0,228.5 284.6,234.8 279.2,239.5 272.4,242.2 265.1,242.4 258.2,240.3 252.6,236.0 248.8,230.1" fill="rgb(30,30,36)"/><polygon points="288.0,228.5 284.6,234.8 284.7,237.6 287.9,231.5" fill="rgb(13,13,16)"/><polygon points="259.9,222.8 261.3,218.2 265.2,215.2 270.2,215.0 274.3,217.6 276.1,222.1 274.7,226.7 270.8,229.7 265.8,229.9 261.6,227.2" fill="rgb(180,180,190)"/><polygon points="272.4,242.2 265.1,242.4 265.6,245.1 272.7,244.8" fill="rgb(14,14,17)"/><polygon points="284.6,234.8 279.2,239.5 279.4,242.2 284.7,237.6" fill="rgb(14,14,17)"/><polygon points="279.2,239.5 272.4,242.2 272.7,244.8 279.4,242.2" fill="rgb(14,14,18)"/></svg>