<svg xmlns="http://www.w3.org/2000/svg" viewBox="0 0 400 400"><defs><radialGradient id="body" cx="0.38" cy="0.32"><stop offset="0" stop-color="#2f3244"/><stop offset="0.55" stop-color="#15161f"/><stop offset="1" stop-color="#05060a"/></radialGradient><radialGradient id="glass" cx="0.5" cy="0.5"><stop offset="0" stop-color="#0a1428"/><stop offset="0.75" stop-color="#020308"/><stop offset="1" stop-color="#000"/></radialGradient><radialGradient id="glint" cx="0.5" cy="0.5"><stop offset="0" stop-color="rgba(255,255,255,0.55)"/><stop offset="1" stop-color="rgba(255,255,255,0)"/></radialGradient></defs><rect width="400" height="400" fill="#0f1020"/><circle cx="200" cy="200" r="188" fill="#05060a"/><circle cx="200" cy="200" r="182" fill="url(#body)"/><g transform="rotate(232.4 200 200)"><line x1="358.0" y1="200.0" x2="380.0" y2="200.0" stroke="#9aa0bb" stroke-width="1.6" opacity="0.9"/><line x1="363.6" y1="221.5" x2="378.5" y2="223.5" stroke="#9aa0bb" stroke-width="0.8" opacity="0.5"/><line x1="359.4" y1="242.7" x2="373.9" y2="246.6" stroke="#9aa0bb" stroke-width="0.8" opacity="0.5"/><line x1="352.4" y1="263.1" x2="366.3" y2="268.9" stroke="#9aa0bb" stroke-width="0.8" opacity="0.5"/><line x1="336.8" y1="279.0" x2="355.9" y2="290.0" stroke="#9aa0bb" stroke-width="1.6" opacity="0.9"/><line x1="330.9" y1="300.4" x2="342.8" y2="309.6" stroke="#9aa0bb" stroke-width="0.8" opacity="0.5"/><line x1="316.7" y1="316.7" x2="327.3" y2="327.3" stroke="#9aa0bb" stroke-width="0.8" opacity="0.5"/><line x1="300.4" y1="330.9" x2="309.6" y2="342.8" stroke="#9aa0bb" stroke-width="0.8" opacity="0.5"/><line x1="279.0" y1="336.8" x2="290.0" y2="355.9" stroke="#9aa0bb" stroke-width="1.6" opacity="0.9"/><line x1="263.1" y1="352.4" x2="268.9" y2="366.3" stroke="#9aa0bb" stroke-width="0.8" opacity="0.5"/><line x1="242.7" y1="359.4" x2="246.6" y2="373.9" stroke="#9aa0bb" stroke-width="0.8" opacity="0.5"/><line x1="221.5" y1="363.6" x2="223.5" y2="378.5" stroke="#9aa0bb" stroke-width="0.8" opacity="0.5"/><line x1="200.0" y1="358.0" x2="200.0" y2="380.0" stroke="#9aa0bb" stroke-width="1.6" opacity="0.9"/><line x1="178.5" y1="363.6" x2="176.5" y2="378.5" stroke="#9aa0bb" stroke-width="0.8" opacity="0.5"/><line x1="157.3" y1="359.4" x2="153.4" y2="373.9" stroke="#9aa0bb" stroke-width="0.8" opacity="0.5"/><line x1="136.9" y1="352.4" x2="131.1" y2="366.3" stroke="#9aa0bb" stroke-width="0.8" opacity="0.5"/><line x1="121.0" y1="336.8" x2="110.0" y2="355.9" stroke="#9aa0bb" stroke-width="1.6" opacity="0.9"/><line x1="99.6" y1="330.9" x2="90.4" y2="342.8" stroke="#9aa0bb" stroke-width="0.8" opacity="0.5"/><line x1="83.3" y1="316.7" x2="72.7" y2="327.3" stroke="#9aa0bb" stroke-width="0.8" opacity="0.5"/><line x1="69.1" y1="300.4" x2="57.2" y2="309.6" stroke="#9aa0bb" stroke-width="0.8" opacity="0.5"/><line x1="63.2" y1="279.0" x2="44.1" y2="290.0" stroke="#9aa0bb" stroke-width="1.6" opacity="0.9"/><line x1="47.6" y1="263.1" x2="33.7" y2="268.9" stroke="#9aa0bb" stroke-width="0.8" opacity="0.5"/><line x1="40.6" y1="242.7" x2="26.1" y2="246.6" stroke="#9aa0bb" stroke-width="0.8" opacity="0.5"/><line x1="36.4" y1="221.5" x2="21.5" y2="223.5" stroke="#9aa0bb" stroke-width="0.8" opacity="0.5"/><line x1="42.0" y1="200.0" x2="20.0" y2="200.0" stroke="#9aa0bb" stroke-width="1.6" opacity="0.9"/><line x1="36.4" y1="178.5" x2="21.5" y2="176.5" stroke="#9aa0bb" stroke-width="0.8" opacity="0.5"/><line x1="40.6" y1="157.3" x2="26.1" y2="153.4" stroke="#9aa0bb" stroke-width="0.8" opacity="0.5"/><line x1="47.6" y1="136.9" x2="33.7" y2="131.1" stroke="#9aa0bb" stroke-width="0.8" opacity="0.5"/><line x1="63.2" y1="121.0" x2="44.1" y2="110.0" stroke="#9aa0bb" stroke-width="1.6" opacity="0.9"/><line x1="69.1" y1="99.6" x2="57.2" y2="90.4" stroke="#9aa0bb" stroke-width="0.8" opacity="0.5"/><line x1="83.3" y1="83.3" x2="72.7" y2="72.7" stroke="#9aa0bb" stroke-width="0.8" opacity="0.5"/><line x1="99.6" y1="69.1" x2="90.4" y2="57.2" stroke="#9aa0bb" stroke-width="0.8" opacity="0.5"/><line x1="121.0" y1="63.2" x2="110.0" y2="44.1" stroke="#9aa0bb" stroke-width="1.6" opacity="0.9"/><line x1="136.9" y1="47.6" x2="131.1" y2="33.7" stroke="#9aa0bb" stroke-width="0.8" opacity="0.5"/><line x1="157.3" y1="40.6" x2="153.4" y2="26.1" stroke="#9aa0bb" stroke-width="0.8" opacity="0.5"/><line x1="178.5" y1="36.4" x2="176.5" y2="21.5" stroke="#9aa0bb" stroke-width="0.8" opacity="0.5"/><line x1="200.0" y1="42.0" x2="200.0" y2="20.0" stroke="#9aa0bb" stroke-width="1.6" opacity="0.9"/><line x1="221.5" y1="36.4" x2="223.5" y2="21.5" stroke="#9aa0bb" stroke-width="0.8" opacity="0.5"/><line x1="242.7" y1="40.6" x2="246.6" y2="26.1" stroke="#9aa0bb" stroke-width="0.8" opacity="0.5"/><line x1="263.1" y1="47.6" x2="268.9" y2="33.7" stroke="#9aa0bb" stroke-width="0.8" opacity="0.5"/><line x1="279.0" y1="63.2" x2="290.0" y2="44.1" stroke="#9aa0bb" stroke-width="1.6" opacity="0.9"/><line x1="300.4" y1="69.1" x2="309.6" y2="57.2" stroke="#9aa0bb" stroke-width="0.8" opacity="0.5"/><line x1="316.7" y1="83.3" x2="327.3" y2="72.7" stroke="#9aa0bb" stroke-width="0.8" opacity="0.5"/><line x1="330.9" y1="99.6" x2="342.8" y2="90.4" stroke="#9aa0bb" stroke-width="0.8" opacity="0.5"/><line x1="336.8" y1="121.0" x2="355.9" y2="110.0" stroke="#9aa0bb" stroke-width="1.6" opacity="0.9"/><line x1="352.4" y1="136.9" x2="366.3" y2="131.1" stroke="#9aa0bb" stroke-width="0.8" opacity="0.5"/><line x1="359.4" y1="157.3" x2="373.9" y2="153.4" stroke="#9aa0bb" stroke-width="0.8" opacity="0.5"/><line x1="363.6" y1="178.5" x2="378.5" y2="176.5" stroke="#9aa0bb" stroke-width="0.8" opacity="0.5"/></g><circle cx="200" cy="200" r="152" fill="none" stroke="#23263a" stroke-width="1"/><g transform="rotate(-154.9 200 200)"><text x="200.0" y="62.0" fill="#c9cbe0" font-size="11" font-family="-apple-system,Arial,sans-serif" text-anchor="middle" dominant-baseline="middle" transform="rotate(0.0 200.0 62.0)">∞</text><text x="297.6" y="102.4" fill="#c9cbe0" font-size="11" font-family="-apple-system,Arial,sans-serif" text-anchor="middle" dominant-baseline="middle" transform="rotate(45.0 297.6 102.4)">20</text><text x="338.0" y="200.0" fill="#c9cbe0" font-size="11" font-family="-apple-system,Arial,sans-serif" text-anchor="middle" dominant-baseline="middle" transform="rotate(90.0 338.0 200.0)">10</text><text x="297.6" y="297.6" fill="#c9cbe0" font-size="11" font-family="-apple-system,Arial,sans-serif" text-anchor="middle" dominant-baseline="middle" transform="rotate(135.0 297.6 297.6)">5</text><text x="200.0" y="338.0" fill="#c9cbe0" font-size="11" font-family="-apple-system,Arial,sans-serif" text-anchor="middle" dominant-baseline="middle" transform="rotate(180.0 200.0 338.0)">3</text><text x="102.4" y="297.6" fill="#c9cbe0" font-size="11" font-family="-apple-system,Arial,sans-serif" text-anchor="middle" dominant-baseline="middle" transform="rotate(225.0 102.4 297.6)">2</text><text x="62.0" y="200.0" fill="#c9cbe0" font-size="11" font-family="-apple-system,Arial,sans-serif" text-anchor="middle" dominant-baseline="middle" transform="rotate(270.0 62.0 200.0)">1.5</text><text x="102.4" y="102.4" fill="#c9cbe0" font-size="11" font-family="-apple-system,Arial,sans-serif" text-anchor="middle" dominant-baseline="middle" transform="rotate(315.0 102.4 102.4)">1</text></g><circle cx="200" cy="200" r="120" fill="#0a0b12" stroke="#1f2232" stroke-width="1"/><line x1="95.9" y1="198.8" x2="82.0" y2="198.7" stroke="#1a1c28" stroke-width="1" opacity="0.7"/><line x1="136.0" y1="117.8" x2="127.5" y2="106.9" stroke="#1a1c28" stroke-width="1" opacity="0.7"/><line x1="224.3" y1="98.7" x2="227.6" y2="85.3" stroke="#1a1c28" stroke-width="1" opacity="0.7"/><line x1="294.3" y1="155.9" x2="306.9" y2="150.0" stroke="#1a1c28" stroke-width="1" opacity="0.7"/><line x1="293.3" y1="246.2" x2="305.7" y2="252.4" stroke="#1a1c28" stroke-width="1" opacity="0.7"/><line x1="222.0" y1="301.8" x2="224.9" y2="315.3" stroke="#1a1c28" stroke-width="1" opacity="0.7"/><line x1="134.1" y1="280.7" x2="125.4" y2="291.4" stroke="#1a1c28" stroke-width="1" opacity="0.7"/><polygon points="105.7,244.1 106.7,153.8 178.0,98.2 265.9,119.3 304.1,201.2 264.0,282.2 175.7,301.3" fill="url(#glass)"/><ellipse cx="142.0" cy="184.5" rx="22" ry="7" fill="url(#glint)" opacity="0.35" transform="rotate(194.9 142.0 184.5)"/></svg>