<svg xmlns="http://www.w3.org/2000/svg" viewBox="0 0 400 400"><defs><radialGradient id="body" cx="0.38" cy="0.32"><stop offset="0" stop-color="#2f3244"/><stop offset="0.55" stop-color="#15161f"/><stop offset="1" stop-color="#05060a"/></radialGradient><radialGradient id="glass" cx="0.5" cy="0.5"><stop offset="0" stop-color="#0a1428"/><stop offset="0.75" stop-color="#020308"/><stop offset="1" stop-color="#000"/></radialGradient><radialGradient id="glint" cx="0.5" cy="0.5"><stop offset="0" stop-color="rgba(255,255,255,0.55)"/><stop offset="1" stop-color="rgba(255,255,255,0)"/></radialGradient></defs><rect width="400" height="400" fill="#0f1020"/><circle cx="200" cy="200" r="188" fill="#05060a"/><circle cx="200" cy="200" r="182" fill="url(#body)"/><g transform="rotate(129.9 200 200)"><line x1="358.0" y1="200.0" x2="380.0" y2="200.0" stroke="#9aa0bb" stroke-width="1.6" opacity="0.9"/><line x1="363.6" y1="221.5" x2="378.5" y2="223.5" stroke="#9aa0bb" stroke-width="0.8" opacity="0.5"/><line x1="359.4" y1="242.7" x2="373.9" y2="246.6" stroke="#9aa0bb" stroke-width="0.8" opacity="0.5"/><line x1="352.4" y1="263.1" x2="366.3" y2="268.9" stroke="#9aa0bb" stroke-width="0.8" opacity="0.5"/><line x1="336.8" y1="279.0" x2="355.9" y2="290.0" stroke="#9aa0bb" stroke-width="1.6" opacity="0.9"/><line x1="330.9" y1="300.4" x2="342.8" y2="309.6" stroke="#9aa0bb" stroke-width="0.8" opacity="0.5"/><line x1="316.7" y1="316.7" x2="327.3" y2="327.3" stroke="#9aa0bb" stroke-width="0.8" opacity="0.5"/><line x1="300.4" y1="330.9" x2="309.6" y2="342.8" stroke="#9aa0bb" stroke-width="0.8" opacity="0.5"/><line x1="279.0" y1="336.8" x2="290.0" y2="355.9" stroke="#9aa0bb" stroke-width="1.6" opacity="0.9"/><line x1="263.1" y1="352.4" x2="268.9" y2="366.3" stroke="#9aa0bb" stroke-width="0.8" opacity="0.5"/><line x1="242.7" y1="359.4" x2="246.6" y2="373.9" stroke="#9aa0bb" stroke-width="0.8" opacity="0.5"/><line x1="221.5" y1="363.6" x2="223.5" y2="378.5" stroke="#9aa0bb" stroke-width="0.8" opacity="0.5"/><line x1="200.0" y1="358.0" x2="200.0" y2="380.0" stroke="#9aa0bb" stroke-width="1.6" opacity="0.9"/><line x1="178.5" y1="363.6" x2="176.5" y2="378.5" stroke="#9aa0bb" stroke-width="0.8" opacity="0.5"/><line x1="157.3" y1="359.4" x2="153.4" y2="373.9" stroke="#9aa0bb" stroke-width="0.8" opacity="0.5"/><line x1="136.9" y1="352.4" x2="131.1" y2="366.3" stroke="#9aa0bb" stroke-width="0.8" opacity="0.5"/><line x1="121.0" y1="336.8" x2="110.0" y2="355.9" stroke="#9aa0bb" stroke-width="1.6" opacity="0.9"/><line x1="99.6" y1="330.9" x2="90.4" y2="342.8" stroke="#9aa0bb" stroke-width="0.8" opacity="0.5"/><line x1="83.3" y1="316.7" x2="72.7" y2="327.3" stroke="#9aa0bb" stroke-width="0.8" opacity="0.5"/><line x1="69.1" y1="300.4" x2="57.2" y2="309.6" stroke="#9aa0bb" stroke-width="0.8" opacity="0.5"/><line x1="63.2" y1="279.0" x2="44.1" y2="290.0" stroke="#9aa0bb" stroke-width="1.6" opacity="0.9"/><line x1="47.6" y1="263.1" x2="33.7" y2="268.9" stroke="#9aa0bb" stroke-width="0.8" opacity="0.5"/><line x1="40.6" y1="242.7" x2="26.1" y2="246.6" stroke="#9aa0bb" stroke-width="0.8" opacity="0.5"/><line x1="36.4" y1="221.5" x2="21.5" y2="223.5" stroke="#9aa0bb" stroke-width="0.8" opacity="0.5"/><line x1="42.0" y1="200.0" x2="20.0" y2="200.0" stroke="#9aa0bb" stroke-width="1.6" opacity="0.9"/><line x1="36.4" y1="178.5" x2="21.5" y2="176.5" stroke="#9aa0bb" stroke-width="0.8" opacity="0.5"/><line x1="40.6" y1="157.3" x2="26.1" y2="153.4" stroke="#9aa0bb" stroke-width="0.8" opacity="0.5"/><line x1="47.6" y1="136.9" x2="33.7" y2="131.1" stroke="#9aa0bb" stroke-width="0.8" opacity="0.5"/><line x1="63.2" y1="121.0" x2="44.1" y2="110.0" stroke="#9aa0bb" stroke-width="1.6" opacity="0.9"/><line x1="69.1" y1="99.6" x2="57.2" y2="90.4" stroke="#9aa0bb" stroke-width="0.8" opacity="0.5"/><line x1="83.3" y1="83.3" x2="72.7" y2="72.7" stroke="#9aa0bb" stroke-width="0.8" opacity="0.5"/><line x1="99.6" y1="69.1" x2="90.4" y2="57.2" stroke="#9aa0bb" stroke-width="0.8" opacity="0.5"/><line x1="121.0" y1="63.2" x2="110.0" y2="44.1" stroke="#9aa0bb" stroke-width="1.6" opacity="0.9"/><line x1="136.9" y1="47.6" x2="131.1" y2="33.7" stroke="#9aa0bb" stroke-width="0.8" opacity="0.5"/><line x1="157.3" y1="40.6" x2="153.4" y2="26.1" stroke="#9aa0bb" stroke-width="0.8" opacity="0.5"/><line x1="178.5" y1="36.4" x2="176.5" y2="21.5" stroke="#9aa0bb" stroke-width="0.8" opacity="0.5"/><line x1="200.0" y1="42.0" x2="200.0" y2="20.0" stroke="#9aa0bb" stroke-width="1.6" opacity="0.9"/><line x1="221.5" y1="36.4" x2="223.5" y2="21.5" stroke="#9aa0bb" stroke-width="0.8" opacity="0.5"/><line x1="242.7" y1="40.6" x2="246.6" y2="26.1" stroke="#9aa0bb" stroke-width="0.8" opacity="0.5"/><line x1="263.1" y1="47.6" x2="268.9" y2="33.7" stroke="#9aa0bb" stroke-width="0.8" opacity="0.5"/><line x1="279.0" y1="63.2" x2="290.0" y2="44.1" stroke="#9aa0bb" stroke-width="1.6" opacity="0.9"/><line x1="300.4" y1="69.1" x2="309.6" y2="57.2" stroke="#9aa0bb" stroke-width="0.8" opacity="0.5"/><line x1="316.7" y1="83.3" x2="327.3" y2="72.7" stroke="#9aa0bb" stroke-width="0.8" opacity="0.5"/><line x1="330.9" y1="99.6" x2="342.8" y2="90.4" stroke="#9aa0bb" stroke-width="0.8" opacity="0.5"/><line x1="336.8" y1="121.0" x2="355.9" y2="110.0" stroke="#9aa0bb" stroke-width="1.6" opacity="0.9"/><line x1="352.4" y1="136.9" x2="366.3" y2="131.1" stroke="#9aa0bb" stroke-width="0.8" opacity="0.5"/><line x1="359.4" y1="157.3" x2="373.9" y2="153.4" stroke="#9aa0bb" stroke-width="0.8" opacity="0.5"/><line x1="363.6" y1="178.5" x2="378.5" y2="176.5" stroke="#9aa0bb" stroke-width="0.8" opacity="0.5"/></g><circle cx="200" cy="200" r="152" fill="none" stroke="#23263a" stroke-width="1"/><g transform="rotate(-86.6 200 200)"><text x="200.0" y="62.0" fill="#c9cbe0" font-size="11" font-family="-apple-system,Arial,sans-serif" text-anchor="middle" dominant-baseline="middle" transform="rotate(0.0 200.0 62.0)">∞</text><text x="297.6" y="102.4" fill="#c9cbe0" font-size="11" font-family="-apple-system,Arial,sans-serif" text-anchor="middle" dominant-baseline="middle" transform="rotate(45.0 297.6 102.4)">20</text><text x="338.0" y="200.0" fill="#c9cbe0" font-size="11" font-family="-apple-system,Arial,sans-serif" text-anchor="middle" dominant-baseline="middle" transform="rotate(90.0 338.0 200.0)">10</text><text x="297.6" y="297.6" fill="#c9cbe0" font-size="11" font-family="-apple-system,Arial,sans-serif" text-anchor="middle" dominant-baseline="middle" transform="rotate(135.0 297.6 297.6)">5</text><text x="200.0" y="338.0" fill="#c9cbe0" font-size="11" font-family="-apple-system,Arial,sans-serif" text-anchor="middle" dominant-baseline="middle" transform="rotate(180.0 200.0 338.0)">3</text><text x="102.4" y="297.6" fill="#c9cbe0" font-size="11" font-family="-apple-system,Arial,sans-serif" text-anchor="middle" dominant-baseline="middle" transform="rotate(225.0 102.4 297.6)">2</text><text x="62.0" y="200.0" fill="#c9cbe0" font-size="11" font-family="-apple-system,Arial,sans-serif" text-anchor="middle" dominant-baseline="middle" transform="rotate(270.0 62.0 200.0)">1.5</text><text x="102.4" y="102.4" fill="#c9cbe0" font-size="11" font-family="-apple-system,Arial,sans-serif" text-anchor="middle" dominant-baseline="middle" transform="rotate(315.0 102.4 102.4)">1</text></g><circle cx="200" cy="200" r="120" fill="#0a0b12" stroke="#1f2232" stroke-width="1"/><line x1="169.1" y1="275.4" x2="155.2" y2="309.2" stroke="#1a1c28" stroke-width="1" opacity="0.7"/><line x1="121.8" y1="222.8" x2="86.7" y2="233.1" stroke="#1a1c28" stroke-width="1" opacity="0.7"/><line x1="133.4" y1="153.1" x2="103.5" y2="132.1" stroke="#1a1c28" stroke-width="1" opacity="0.7"/><line x1="195.1" y1="118.7" x2="193.0" y2="82.2" stroke="#1a1c28" stroke-width="1" opacity="0.7"/><line x1="260.6" y1="145.5" x2="287.7" y2="121.1" stroke="#1a1c28" stroke-width="1" opacity="0.7"/><line x1="280.4" y1="213.4" x2="316.4" y2="219.4" stroke="#1a1c28" stroke-width="1" opacity="0.7"/><line x1="239.7" y1="271.2" x2="257.4" y2="303.1" stroke="#1a1c28" stroke-width="1" opacity="0.7"/><polygon points="204.9,281.3 139.4,254.5 119.6,186.6 160.3,128.8 230.9,124.6 278.2,177.2 266.6,246.9" fill="url(#glass)"/><ellipse cx="164.2" cy="248.2" rx="22" ry="7" fill="url(#glint)" opacity="0.35" transform="rotate(126.6 164.2 248.2)"/></svg>