<svg xmlns="http://www.w3.org/2000/svg" viewBox="0 0 400 400"><rect width="400" height="400" fill="#0f1020"/><g transform="translate(200,200) rotate(121.5)"><circle cx="0.0" cy="0.0" r="5.0" fill="hsl(216,70%,65%)" opacity="1.00"/><circle cx="-8.8" cy="8.1" r="5.0" fill="hsl(218,70%,65%)" opacity="1.00"/><circle cx="1.5" cy="-16.9" r="5.0" fill="hsl(219,70%,65%)" opacity="1.00"/><circle cx="12.6" cy="16.5" r="5.0" fill="hsl(220,70%,65%)" opacity="1.00"/><circle cx="-23.6" cy="-4.2" r="5.0" fill="hsl(221,70%,65%)" opacity="1.00"/><circle cx="22.6" cy="-14.4" r="5.0" fill="hsl(222,70%,65%)" opacity="1.00"/><circle cx="-7.6" cy="28.4" r="5.0" fill="hsl(223,70%,65%)" opacity="1.00"/><circle cx="-14.6" cy="-28.2" r="5.0" fill="hsl(224,70%,65%)" opacity="1.00"/><circle cx="31.9" cy="11.6" r="5.0" fill="hsl(225,70%,65%)" opacity="1.00"/><circle cx="-33.3" cy="13.7" r="5.0" fill="hsl(227,70%,65%)" opacity="1.00"/><circle cx="16.1" cy="-34.4" r="5.0" fill="hsl(228,70%,65%)" opacity="1.00"/><circle cx="11.9" cy="38.0" r="5.0" fill="hsl(229,70%,65%)" opacity="1.00"/><circle cx="-36.0" cy="-20.8" r="5.0" fill="hsl(230,70%,65%)" opacity="1.00"/><circle cx="42.3" cy="-9.3" r="5.0" fill="hsl(231,70%,65%)" opacity="1.00"/><circle cx="-25.8" cy="36.7" r="5.0" fill="hsl(232,70%,65%)" opacity="1.00"/><circle cx="-6.0" cy="-46.1" r="5.0" fill="hsl(233,70%,65%)" opacity="1.00"/><circle cx="36.7" cy="30.9" r="5.0" fill="hsl(234,70%,65%)" opacity="1.00"/><circle cx="-49.4" cy="2.0" r="5.0" fill="hsl(236,70%,65%)" opacity="1.00"/><circle cx="36.1" cy="-35.9" r="5.0" fill="hsl(237,70%,65%)" opacity="1.00"/><circle cx="-2.4" cy="52.3" r="5.0" fill="hsl(238,70%,65%)" opacity="1.00"/><circle cx="-34.4" cy="-41.2" r="5.0" fill="hsl(239,70%,65%)" opacity="1.00"/><circle cx="54.5" cy="7.3" r="5.0" fill="hsl(240,70%,65%)" opacity="1.00"/><circle cx="-46.2" cy="32.1" r="5.0" fill="hsl(241,70%,65%)" opacity="1.00"/><circle cx="12.6" cy="-56.1" r="5.0" fill="hsl(242,70%,65%)" opacity="1.00"/><circle cx="29.2" cy="51.0" r="5.0" fill="hsl(243,70%,65%)" opacity="1.00"/><circle cx="-57.2" cy="-18.2" r="5.0" fill="hsl(245,70%,65%)" opacity="1.00"/><circle cx="55.5" cy="-25.7" r="5.0" fill="hsl(246,70%,65%)" opacity="1.00"/><circle cx="-24.1" cy="57.5" r="5.0" fill="hsl(247,70%,65%)" opacity="1.00"/><circle cx="-21.5" cy="-59.8" r="5.0" fill="hsl(248,70%,65%)" opacity="1.00"/><circle cx="57.2" cy="30.1" r="5.0" fill="hsl(249,70%,65%)" opacity="1.00"/><circle cx="-63.6" cy="16.8" r="5.0" fill="hsl(250,70%,65%)" opacity="1.00"/><circle cx="36.1" cy="-56.2" r="5.0" fill="hsl(251,70%,65%)" opacity="1.00"/><circle cx="11.5" cy="66.9" r="5.0" fill="hsl(252,70%,65%)" opacity="1.00"/><circle cx="-54.5" cy="-42.2" r="5.0" fill="hsl(254,70%,65%)" opacity="1.00"/><circle cx="69.7" cy="-5.8" r="5.0" fill="hsl(255,70%,65%)" opacity="1.00"/><circle cx="-48.2" cy="52.1" r="5.0" fill="hsl(256,70%,65%)" opacity="1.00"/><circle cx="0.4" cy="-72.0" r="5.0" fill="hsl(257,70%,65%)" opacity="1.00"/><circle cx="49.0" cy="54.1" r="5.0" fill="hsl(258,70%,65%)" opacity="1.00"/><circle cx="-73.7" cy="-6.8" r="5.0" fill="hsl(259,70%,65%)" opacity="1.00"/><circle cx="59.7" cy="-45.3" r="5.0" fill="hsl(260,70%,65%)" opacity="1.00"/><circle cx="-13.6" cy="74.7" r="5.0" fill="hsl(261,70%,65%)" opacity="1.00"/><circle cx="-40.9" cy="-65.0" r="5.0" fill="hsl(263,70%,65%)" opacity="1.00"/><circle cx="75.0" cy="20.6" r="5.0" fill="hsl(264,70%,65%)" opacity="1.00"/><circle cx="-70.0" cy="35.9" r="5.0" fill="hsl(265,70%,65%)" opacity="1.00"/><circle cx="27.7" cy="-74.6" r="5.0" fill="hsl(266,70%,65%)" opacity="1.00"/><circle cx="30.4" cy="74.6" r="5.0" fill="hsl(267,70%,65%)" opacity="1.00"/><circle cx="-73.5" cy="-34.9" r="5.0" fill="hsl(268,70%,65%)" opacity="1.00"/><circle cx="78.6" cy="-24.2" r="5.0" fill="hsl(269,70%,65%)" opacity="1.00"/><circle cx="-42.0" cy="71.7" r="5.0" fill="hsl(270,70%,65%)" opacity="1.00"/><circle cx="-17.6" cy="-82.1" r="5.0" fill="hsl(272,70%,65%)" opacity="1.00"/><circle cx="69.2" cy="49.1" r="5.0" fill="hsl(273,70%,65%)" opacity="1.00"/><circle cx="-85.0" cy="10.6" r="5.0" fill="hsl(274,70%,65%)" opacity="1.00"/><circle cx="56.1" cy="-65.9" r="5.0" fill="hsl(275,70%,65%)" opacity="1.00"/><circle cx="3.2" cy="87.3" r="5.0" fill="hsl(276,70%,65%)" opacity="1.00"/><circle cx="-61.9" cy="-62.8" r="5.0" fill="hsl(277,70%,65%)" opacity="1.00"/><circle cx="88.9" cy="4.5" r="5.0" fill="hsl(278,70%,65%)" opacity="1.00"/><circle cx="-69.2" cy="57.2" r="5.0" fill="hsl(279,70%,65%)" opacity="1.00"/><circle cx="12.5" cy="-89.7" r="5.0" fill="hsl(281,70%,65%)" opacity="1.00"/><circle cx="51.8" cy="75.3" r="5.0" fill="hsl(282,70%,65%)" opacity="1.00"/><circle cx="-89.8" cy="-20.7" r="5.0" fill="hsl(283,70%,65%)" opacity="1.00"/><circle cx="80.9" cy="-45.8" r="5.0" fill="hsl(284,70%,65%)" opacity="1.00"/><circle cx="-28.9" cy="89.1" r="5.0" fill="hsl(285,70%,65%)" opacity="1.00"/><circle cx="-39.2" cy="-86.0" r="5.0" fill="hsl(286,70%,65%)" opacity="1.00"/><circle cx="87.7" cy="37.2" r="5.0" fill="hsl(287,70%,65%)" opacity="1.00"/><circle cx="-90.5" cy="32.1" r="5.0" fill="hsl(288,70%,65%)" opacity="1.00"/><circle cx="45.4" cy="-85.4" r="5.0" fill="hsl(290,70%,65%)" opacity="1.00"/><circle cx="24.4" cy="94.4" r="5.0" fill="hsl(291,70%,65%)" opacity="1.00"/><circle cx="-82.4" cy="-53.5" r="5.0" fill="hsl(292,70%,65%)" opacity="1.00"/><circle cx="97.6" cy="-16.3" r="5.0" fill="hsl(293,70%,65%)" opacity="1.00"/><circle cx="-61.4" cy="78.5" r="5.0" fill="hsl(294,70%,65%)" opacity="1.00"/><circle cx="-7.8" cy="-100.1" r="5.0" fill="hsl(295,70%,65%)" opacity="1.00"/><circle cx="73.9" cy="69.0" r="5.0" fill="hsl(296,70%,65%)" opacity="1.00"/><circle cx="-101.8" cy="-1.0" r="5.0" fill="hsl(297,70%,65%)" opacity="1.00"/><circle cx="76.3" cy="-68.5" r="5.0" fill="hsl(299,70%,65%)" opacity="1.00"/><circle cx="-10.0" cy="102.7" r="5.0" fill="hsl(300,70%,65%)" opacity="1.00"/><circle cx="-62.4" cy="-83.1" r="5.0" fill="hsl(301,70%,65%)" opacity="1.00"/><circle cx="102.8" cy="19.2" r="5.0" fill="hsl(302,70%,65%)" opacity="1.00"/><circle cx="-89.4" cy="55.6" r="5.0" fill="hsl(303,70%,65%)" opacity="1.00"/><circle cx="28.5" cy="-102.1" r="5.0" fill="hsl(304,70%,65%)" opacity="1.00"/><circle cx="48.2" cy="95.1" r="5.0" fill="hsl(305,70%,65%)" opacity="1.00"/><circle cx="-100.5" cy="-37.8" r="5.0" fill="hsl(306,70%,65%)" opacity="1.00"/><circle cx="100.2" cy="-40.2" r="5.0" fill="hsl(308,70%,65%)" opacity="1.00"/><circle cx="-47.0" cy="98.0" r="5.0" fill="hsl(309,70%,65%)" opacity="1.00"/><circle cx="-31.7" cy="-104.6" r="5.0" fill="hsl(310,70%,65%)" opacity="1.00"/><circle cx="94.6" cy="56.1" r="5.0" fill="hsl(311,70%,65%)" opacity="1.00"/><circle cx="-108.3" cy="22.7" r="5.0" fill="hsl(312,70%,65%)" opacity="1.00"/><circle cx="64.9" cy="-90.4" r="5.0" fill="hsl(313,70%,65%)" opacity="1.00"/><circle cx="13.3" cy="111.1" r="5.0" fill="hsl(314,70%,65%)" opacity="1.00"/><circle cx="-85.4" cy="-73.4" r="5.0" fill="hsl(315,70%,65%)" opacity="1.00"/><circle cx="113.2" cy="-3.6" r="5.0" fill="hsl(317,70%,65%)" opacity="1.00"/><circle cx="-81.5" cy="79.5" r="5.0" fill="hsl(318,70%,65%)" opacity="1.00"/><circle cx="6.4" cy="-114.3" r="5.0" fill="hsl(319,70%,65%)" opacity="1.00"/><circle cx="72.9" cy="89.1" r="4.6" fill="hsl(320,70%,65%)" opacity="0.83"/><circle cx="-114.5" cy="-16.5" r="4.2" fill="hsl(321,70%,65%)" opacity="0.67"/><circle cx="96.1" cy="-65.5" r="3.8" fill="hsl(322,70%,65%)" opacity="0.50"/><circle cx="-26.8" cy="113.9" r="3.3" fill="hsl(323,70%,65%)" opacity="0.33"/><circle cx="-57.5" cy="-102.6" r="2.9" fill="hsl(324,70%,65%)" opacity="0.17"/></g></svg>