<svg xmlns="http://www.w3.org/2000/svg" viewBox="0 0 400 400"><rect width="400" height="400" fill="#0f1020"/><g transform="translate(200,200) rotate(73.4)"><circle cx="0.0" cy="0.0" r="5.0" fill="hsl(202,70%,65%)" opacity="1.00"/><circle cx="-8.8" cy="8.1" r="5.0" fill="hsl(203,70%,65%)" opacity="1.00"/><circle cx="1.5" cy="-16.9" r="5.0" fill="hsl(204,70%,65%)" opacity="1.00"/><circle cx="12.6" cy="16.5" r="5.0" fill="hsl(205,70%,65%)" opacity="1.00"/><circle cx="-23.6" cy="-4.2" r="5.0" fill="hsl(207,70%,65%)" opacity="1.00"/><circle cx="22.6" cy="-14.4" r="5.0" fill="hsl(208,70%,65%)" opacity="1.00"/><circle cx="-7.6" cy="28.4" r="5.0" fill="hsl(209,70%,65%)" opacity="1.00"/><circle cx="-14.6" cy="-28.2" r="5.0" fill="hsl(210,70%,65%)" opacity="1.00"/><circle cx="31.9" cy="11.6" r="5.0" fill="hsl(211,70%,65%)" opacity="1.00"/><circle cx="-33.3" cy="13.7" r="5.0" fill="hsl(212,70%,65%)" opacity="1.00"/><circle cx="16.1" cy="-34.4" r="5.0" fill="hsl(213,70%,65%)" opacity="1.00"/><circle cx="11.9" cy="38.0" r="5.0" fill="hsl(214,70%,65%)" opacity="1.00"/><circle cx="-36.0" cy="-20.8" r="5.0" fill="hsl(216,70%,65%)" opacity="1.00"/><circle cx="42.3" cy="-9.3" r="5.0" fill="hsl(217,70%,65%)" opacity="1.00"/><circle cx="-25.8" cy="36.7" r="5.0" fill="hsl(218,70%,65%)" opacity="1.00"/><circle cx="-6.0" cy="-46.1" r="5.0" fill="hsl(219,70%,65%)" opacity="1.00"/><circle cx="36.7" cy="30.9" r="5.0" fill="hsl(220,70%,65%)" opacity="1.00"/><circle cx="-49.4" cy="2.0" r="5.0" fill="hsl(221,70%,65%)" opacity="1.00"/><circle cx="36.1" cy="-35.9" r="5.0" fill="hsl(222,70%,65%)" opacity="1.00"/><circle cx="-2.4" cy="52.3" r="5.0" fill="hsl(223,70%,65%)" opacity="1.00"/><circle cx="-34.4" cy="-41.2" r="5.0" fill="hsl(225,70%,65%)" opacity="1.00"/><circle cx="54.5" cy="7.3" r="5.0" fill="hsl(226,70%,65%)" opacity="1.00"/><circle cx="-46.2" cy="32.1" r="5.0" fill="hsl(227,70%,65%)" opacity="1.00"/><circle cx="12.6" cy="-56.1" r="5.0" fill="hsl(228,70%,65%)" opacity="1.00"/><circle cx="29.2" cy="51.0" r="5.0" fill="hsl(229,70%,65%)" opacity="1.00"/><circle cx="-57.2" cy="-18.2" r="5.0" fill="hsl(230,70%,65%)" opacity="1.00"/><circle cx="55.5" cy="-25.7" r="5.0" fill="hsl(231,70%,65%)" opacity="1.00"/><circle cx="-24.1" cy="57.5" r="5.0" fill="hsl(232,70%,65%)" opacity="1.00"/><circle cx="-21.5" cy="-59.8" r="5.0" fill="hsl(234,70%,65%)" opacity="1.00"/><circle cx="57.2" cy="30.1" r="5.0" fill="hsl(235,70%,65%)" opacity="1.00"/><circle cx="-63.6" cy="16.8" r="5.0" fill="hsl(236,70%,65%)" opacity="1.00"/><circle cx="36.1" cy="-56.2" r="5.0" fill="hsl(237,70%,65%)" opacity="1.00"/><circle cx="11.5" cy="66.9" r="5.0" fill="hsl(238,70%,65%)" opacity="1.00"/><circle cx="-54.5" cy="-42.2" r="5.0" fill="hsl(239,70%,65%)" opacity="1.00"/><circle cx="69.7" cy="-5.8" r="5.0" fill="hsl(240,70%,65%)" opacity="1.00"/><circle cx="-48.2" cy="52.1" r="5.0" fill="hsl(241,70%,65%)" opacity="1.00"/><circle cx="0.4" cy="-72.0" r="5.0" fill="hsl(243,70%,65%)" opacity="1.00"/><circle cx="49.0" cy="54.1" r="5.0" fill="hsl(244,70%,65%)" opacity="1.00"/><circle cx="-73.7" cy="-6.8" r="5.0" fill="hsl(245,70%,65%)" opacity="1.00"/><circle cx="59.7" cy="-45.3" r="5.0" fill="hsl(246,70%,65%)" opacity="1.00"/><circle cx="-13.6" cy="74.7" r="5.0" fill="hsl(247,70%,65%)" opacity="1.00"/><circle cx="-40.9" cy="-65.0" r="5.0" fill="hsl(248,70%,65%)" opacity="1.00"/><circle cx="75.0" cy="20.6" r="5.0" fill="hsl(249,70%,65%)" opacity="1.00"/><circle cx="-70.0" cy="35.9" r="5.0" fill="hsl(250,70%,65%)" opacity="1.00"/><circle cx="27.7" cy="-74.6" r="5.0" fill="hsl(252,70%,65%)" opacity="1.00"/><circle cx="30.4" cy="74.6" r="5.0" fill="hsl(253,70%,65%)" opacity="1.00"/><circle cx="-73.5" cy="-34.9" r="5.0" fill="hsl(254,70%,65%)" opacity="1.00"/><circle cx="78.6" cy="-24.2" r="5.0" fill="hsl(255,70%,65%)" opacity="1.00"/><circle cx="-42.0" cy="71.7" r="5.0" fill="hsl(256,70%,65%)" opacity="1.00"/><circle cx="-17.6" cy="-82.1" r="5.0" fill="hsl(257,70%,65%)" opacity="1.00"/><circle cx="69.2" cy="49.1" r="5.0" fill="hsl(258,70%,65%)" opacity="1.00"/><circle cx="-85.0" cy="10.6" r="5.0" fill="hsl(259,70%,65%)" opacity="1.00"/><circle cx="56.1" cy="-65.9" r="5.0" fill="hsl(261,70%,65%)" opacity="1.00"/><circle cx="3.2" cy="87.3" r="4.6" fill="hsl(262,70%,65%)" opacity="0.83"/><circle cx="-61.9" cy="-62.8" r="4.2" fill="hsl(263,70%,65%)" opacity="0.67"/><circle cx="88.9" cy="4.5" r="3.8" fill="hsl(264,70%,65%)" opacity="0.50"/><circle cx="-69.2" cy="57.2" r="3.3" fill="hsl(265,70%,65%)" opacity="0.33"/><circle cx="12.5" cy="-89.7" r="2.9" fill="hsl(266,70%,65%)" opacity="0.17"/></g></svg>